<svg xmlns="http://www.w3.org/2000/svg" width="371" height="241"><g fill="none"><path fill="#E0E1E5" d="M73.3 193.2c-1.3-5.6-6.3-9.8-12.3-9.8-1.3 0-2.6.2-3.9.6-1.3-10-9.8-17.8-20.2-17.8-8.6 0-15.9 5.3-18.9 12.8-1.7-.7-3.6-1-5.6-.8-5.9.5-10.7 5.1-11.4 10.9-.2 1.4-.1 2.8.1 4.1h72.2zm271.6-49.5h-28.8c-2 0-3.6 1.6-3.6 3.6v7.2c0 2 1.6 3.6 3.6 3.6h28.8c2 0 3.6-1.6 3.6-3.6v-7.2c0-2-1.6-3.6-3.6-3.6z"/><path fill="#240F45" d="M117.2 226.5c0 5 3.9 9 8.6 9h4.3c4.8 0 8.6-4 8.6-9h-21.5zm104.4 0c0 5 3.9 9 8.6 9h4.3c4.8 0 8.6-4 8.6-9h-21.5zm63 0c0 5 3.9 9 8.6 9h4.3c4.8 0 8.6-4 8.6-9h-21.5zm-95.4 0c0 5 3.9 9 8.6 9h4.3c4.8 0 8.6-4 8.6-9h-21.5z"/><path fill="#357DB7" d="M315.2 94.2h-108c-5 0-9 4-9 9v117c0 5 4 9 9 9h108c5 0 9-4 9-9v-117c0-5-4-9-9-9z"/><path fill="#E0E1E5" d="M321.6 235.5H101.8c-1.4 0-2.6 1.2-2.6 2.6v.2c0 1.4 1.2 2.6 2.6 2.6h219.8c1.4 0 2.6-1.2 2.6-2.6v-.2c0-1.4-1.2-2.6-2.6-2.6zm45.8-66.6h-28.8c-2 0-3.6 1.6-3.6 3.6v7.2c0 2 1.6 3.6 3.6 3.6h28.8c2 0 3.6-1.6 3.6-3.6v-7.2c0-2-1.6-3.6-3.6-3.6zm-261.9 40.5H76.7c-2 0-3.6 1.6-3.6 3.6v7.2c0 2 1.6 3.6 3.6 3.6h28.8c2 0 3.6-1.6 3.6-3.6V213c0-2-1.6-3.6-3.6-3.6z"/><path fill="#FFF" d="M55.1 141H43.4c-1.5 0-2.7-1.2-2.7-2.7 0-1.5 1.2-2.7 2.7-2.7h11.7c1.5 0 2.7 1.2 2.7 2.7 0 1.5-1.2 2.7-2.7 2.7z"/><path fill="#BEBFC2" d="M60.5 141H48.8c-1.5 0-2.7-1.2-2.7-2.7 0-1.5 1.2-2.7 2.7-2.7h11.7c1.5 0 2.7 1.2 2.7 2.7 0 1.5-1.2 2.7-2.7 2.7z"/><path fill="#240F45" d="M113.6 113.1h75.6v97.2h-75.6z"/><path fill="#BEBFC2" d="M192.8 131.1h-20.7c-1.5 0-2.7-1.2-2.7-2.7 0-1.5 1.2-2.7 2.7-2.7h20.7c1.5 0 2.7 1.2 2.7 2.7 0 1.5-1.2 2.7-2.7 2.7z"/><path fill="#9C452C" d="M151.5 160.8c.7 0 1.4.3 1.9.8l5.5 5.5c.6.6 1.8 1 2.6.9h31.6c.8.1 1.4.7 1.4 1.6l-3.4 31.7c-.2 1.6-1 2.4-1.9 2.7h-48.7c-.5-.3-.8-.9-.8-1.5v-39c0-1.5 1.2-2.7 2.7-2.7h9.1z"/><path fill="#FFF" d="M183.8 159v33.1c0 1.1-.9 2-2 2h-30.1c-1.1 0-2-.9-2-2V152c0-1.1.9-2 2-2h23.2l8.9 9z"/><path fill="#DF5833" d="M182 200.9l-3.3-26c-.2-1.3-1.3-2.4-2.7-2.4h-26.7c-.8-.4-2-.8-2.6-1.4l-2.1-2c-.6-.6-1.8-1-2.6-1.1h-9.8c-.8.1-1.5.7-1.4 1.6l3.2 32c.1 1.4 1.3 2.4 2.7 2.4h47.8c-1.2-.5-2.3-1.8-2.5-3.1z"/><path fill="#BEBFC2" d="M176.6 159h7.2l-9-9v7.2c0 1 .8 1.8 1.8 1.8z"/><path fill="#61A4D9" d="M198.2 103.2c0-4.7 3.6-8.5 8.1-9h-98.1c-5 0-9 4-9 9v1.8h99v-1.8z"/><path fill="#4695D1" d="M99.2 105v113.4h99V105h-99zm90 105.3h-81v-97.2h81v97.2z"/><path fill="#357DB7" d="M198.2 220.2v-1.8h-99v1.8c0 5 4 9 9 9h98.1c-4.5-.5-8.1-4.3-8.1-9z"/><path fill="#265275" d="M108.2 113.1h5.4v97.2h-5.4z"/><g transform="translate(55 119)"><path fill="#FCB554" d="M3.1 30.1h43.4c1.7 0 3-1.4 3-3V3.5c0-1.7-1.4-3-3-3H3.1c-1.7 0-3 1.4-3 3v23.6c0 1.6 1.4 3 3 3z"/><path fill="#FFF" d="M18.8 23.8H6.7c-1.1 0-2-.9-2-2V7.9c0-1.1.9-2 2-2h12.1c1.1 0 2 .9 2 2v13.9c0 1.1-.9 2-2 2z"/><path fill="#240F45" d="M12.7 16.6c-3 0-5.4 2.2-5.4 7.2h10.8c0-5-2.4-7.2-5.4-7.2z"/><circle cx="12.7" cy="13.9" r="3.6" fill="#240F45"/><path fill="#CC872A" d="M45.1 11.2V7.6c0-1-.8-1.8-1.8-1.8H27.1c-1 0-1.8.8-1.8 1.8v3.6c0 1 .8 1.8 1.8 1.8h16.2c1 0 1.8-.8 1.8-1.8zm0 6.7v-1.7c0-.3-.2-.5-.5-.5H25.9c-.3 0-.5.2-.5.5v1.7c0 .3.2.5.5.5h18.7c.3 0 .5-.2.5-.5zm-19.8 3.7v1.7c0 .3.2.5.5.5h18.7c.3 0 .5-.2.5-.5v-1.7c0-.3-.2-.5-.5-.5H25.8c-.3 0-.5.2-.5.5z"/></g><g transform="translate(41 175)"><path fill="#6FC05C" d="M.6.2H51v27H.6z"/><circle cx="25.8" cy="13.7" r="7.2" fill="#FFF"/><path fill="#5A9C4A" d="M6 .2H.6v5.4C3.6 5.6 6 3.2 6 .2zm45 5.4V.2h-5.4c0 3 2.4 5.4 5.4 5.4zM.6 21.8v5.4H6c0-3-2.4-5.4-5.4-5.4zm50.4 0c-3 0-5.4 2.4-5.4 5.4H51v-5.4z"/></g><path fill="#BEBFC2" d="M34.4 189.6h-9.9c-1.5 0-2.7-1.2-2.7-2.7 0-1.5 1.2-2.7 2.7-2.7h9.9c1.5 0 2.7 1.2 2.7 2.7 0 1.5-1.2 2.7-2.7 2.7zm-18.9 0h-2.7c-1.5 0-2.7-1.2-2.7-2.7 0-1.5 1.2-2.7 2.7-2.7h2.7c1.5 0 2.7 1.2 2.7 2.7 0 1.5-1.2 2.7-2.7 2.7z"/><path fill="#FFF" d="M119.9 166.2h-11.7c-1.5 0-2.7-1.2-2.7-2.7 0-1.5 1.2-2.7 2.7-2.7h11.7c1.5 0 2.7 1.2 2.7 2.7 0 1.5-1.2 2.7-2.7 2.7zm-73.8-41.4H34.4c-1.5 0-2.7-1.2-2.7-2.7 0-1.5 1.2-2.7 2.7-2.7h11.7c1.5 0 2.7 1.2 2.7 2.7 0 1.5-1.2 2.7-2.7 2.7zm-20.7 0h-2.7c-1.5 0-2.7-1.2-2.7-2.7 0-1.5 1.2-2.7 2.7-2.7h2.7c1.5 0 2.7 1.2 2.7 2.7 0 1.5-1.2 2.7-2.7 2.7zm154.8 6.3h-11.7c-1.5 0-2.7-1.2-2.7-2.7 0-1.5 1.2-2.7 2.7-2.7h11.7c1.5 0 2.7 1.2 2.7 2.7 0 1.5-1.2 2.7-2.7 2.7zm-19.8 0h-.9c-1.5 0-2.7-1.2-2.7-2.7 0-1.5 1.2-2.7 2.7-2.7h.9c1.5 0 2.7 1.2 2.7 2.7 0 1.5-1.2 2.7-2.7 2.7zm-52.2 13.5h-3.6c-1.5 0-2.7-1.2-2.7-2.7 0-1.5 1.2-2.7 2.7-2.7h3.6c1.5 0 2.7 1.2 2.7 2.7 0 1.5-1.2 2.7-2.7 2.7z"/><g transform="translate(204 105)"><path fill="#265275" d="M111 3.8c-.7-.7-1.6-1.1-2.5-1.1H8.6c-3 0-5.4 2.4-5.4 5.4v102.6c0 3 2.4 5.4 5.4 5.4h99.9c1 0 1.9-.4 2.5-1.1.7-.7 1.1-1.6 1.1-2.5V6.3c0-1-.4-1.9-1.1-2.5z"/><path fill="#61A4D9" d="M93.2 0H8.6c-3 0-5.4 2.4-5.4 5.4V108c0 3 2.4 5.4 5.4 5.4h84.6c3 0 5.4-2.4 5.4-5.4V5.4c0-3-2.4-5.4-5.4-5.4z"/><path fill="#357DB7" d="M13.1 3.6h95.4v106.2H13.1z"/><path fill="#4695D1" d="M20.3 100.8V12.6c0-1 .8-1.8 1.8-1.8h77.4c1 0 1.8.8 1.8 1.8v88.2c0 1-.8 1.8-1.8 1.8H22.1c-1 0-1.8-.8-1.8-1.8z"/><path fill="#7DB6E0" d="M111.6 64.8h1c2.2 0 4-1.8 4-4v-8.2c0-2.2-1.8-4-4-4h-1c-2.2 0-4 1.8-4 4v8.2c0 2.2 1.8 4 4 4z"/><path fill="#4695D1" d="M111 1.1c-.7-.7-1.6-1.1-2.5-1.1H13.1c-1 0-1.9.4-2.5 1.1-.7.7-1.1 1.6-1.1 2.5v106.2c0 1 .4 1.9 1.1 2.5.7.7 1.6 1.1 2.5 1.1h95.4c1 0 1.9-.4 2.5-1.1.7-.7 1.1-1.6 1.1-2.5V3.6c0-1-.4-1.9-1.1-2.5zm-9.7 105.1h-81c-2 0-3.6-1.6-3.6-3.6V10.8c0-2 1.6-3.6 3.6-3.6h81c2 0 3.6 1.6 3.6 3.6v91.8c0 2-1.6 3.6-3.6 3.6z"/><path fill="#357DB7" d="M63.5 31.5c-13.9 0-25.2 11.3-25.2 25.2 0 13.9 11.3 25.2 25.2 25.2 13.9 0 25.2-11.3 25.2-25.2 0-13.9-11.3-25.2-25.2-25.2z"/><path fill="#FFF" d="M63.5 37.8c-10.4 0-18.9 8.5-18.9 18.9 0 10.4 8.5 18.9 18.9 18.9H68V37.8h-4.5z"/><path d="M43.3 68.8c-1.4.8-1.8 2.8-.7 4.1.9 1 2.3 1.1 3.5.5l7.7-4.4c1.3-.7 1.7-2.4 1-3.7-.7-1.3-2.4-1.7-3.7-1l-7.8 4.5zm38.9-22.5c-1.4.8-1.8 2.8-.7 4.1.9 1 2.3 1.1 3.5.5l7.7-4.4c1.3-.7 1.7-2.4 1-3.7-.7-1.3-2.4-1.7-3.7-1l-7.8 4.5zM90 73c1.4.8 3.4.2 3.9-1.5.4-1.2-.2-2.6-1.3-3.3l-7.7-4.4c-1.3-.7-2.9-.3-3.7 1-.7 1.3-.3 2.9 1 3.7L90 73zM51.1 51.4c1.4.8 3.4.2 3.9-1.5.4-1.2-.2-2.6-1.3-3.3L46 42.2c-1.3-.7-2.9-.3-3.7 1-.7 1.3-.3 2.9 1 3.7l7.8 4.5zm19.6 30.3c0 1.7-1.5 3-3.2 2.6-1.3-.3-2.2-1.5-2.2-2.8v-8.9c0-1.5 1.2-2.7 2.7-2.7 1.5 0 2.7 1.2 2.7 2.7v9.1zm0-41.9c0 1.7-1.5 3-3.2 2.6-1.3-.3-2.2-1.5-2.2-2.8v-8.9c0-1.5 1.2-2.7 2.7-2.7 1.5 0 2.7 1.2 2.7 2.7v9.1z" fill="#7DB6E0"/><path fill="#357DB7" d="M68 40.5c-1.2 0-2.4.2-3.6.4C71.6 42.5 77 49 77 56.7c0 7.7-5.4 14.1-12.6 15.8 1.2.3 2.4.4 3.6.4 8.9 0 16.2-7.3 16.2-16.2 0-8.9-7.3-16.2-16.2-16.2z"/><path fill="#265275" d="M77 56.7c0-7.7-5.4-14.1-12.6-15.8-2.9.7-5.5 2.1-7.5 4-3.1 3-5.1 7.1-5.1 11.8 0 4.6 2 8.8 5.1 11.8 2.1 2 4.7 3.4 7.5 4C71.6 70.8 77 64.4 77 56.7z"/><path fill="#7DB6E0" d="M68 37.8c-10.4 0-18.9 8.5-18.9 18.9 0 10.4 8.5 18.9 18.9 18.9 10.4 0 18.9-8.5 18.9-18.9 0-10.4-8.5-18.9-18.9-18.9zm0 32.4c-7.4 0-13.5-6.1-13.5-13.5S60.6 43.2 68 43.2s13.5 6.1 13.5 13.5S75.4 70.2 68 70.2z"/><path fill="#FFF" d="M32.5 13.5c-5.2 0-9.5 4-9.5 9s4.2 9 9.5 9h4.9v-18h-4.9z"/><circle cx="37.4" cy="22.5" r="9" fill="#7DB6E0"/><path fill="#7DB6E0" d="M4.5 25.2h1c2.2 0 4-1.8 4-4V13c0-2.2-1.8-4-4-4h-1c-2.2 0-4 1.8-4 4v8.2c0 2.2 1.8 4 4 4zm0 79.2h1c2.2 0 4-1.8 4-4v-8.2c0-2.2-1.8-4-4-4h-1c-2.2 0-4 1.8-4 4v8.2c0 2.2 1.8 4 4 4z"/></g><g transform="translate(65)"><g fill="#BEBFC2"><path d="M40.5 9.6c3.7 0 8.1 2.1 8.1 8.1v16.2H32.4V17.7c0-6 4.4-8.1 8.1-8.1zm0-5.8c-8 0-14.4 5.4-14.4 14.2v22.3h28.8V18c0-8.9-6.4-14.2-14.4-14.2z"/><path d="M21.6 62.7h37.8c2.5 0 4.5-2 4.5-4.5v-27c0-2.5-2-4.5-4.5-4.5H21.6c-2.5 0-4.5 2-4.5 4.5v27c0 2.5 2 4.5 4.5 4.5z"/></g><path fill="#FFF" d="M5.4 32.1c0 1.5-1.2 2.7-2.7 2.7-1.5 0-2.7-1.2-2.7-2.7 0-1.5 1.2-2.7 2.7-2.7 1.5 0 2.7 1.2 2.7 2.7zM75.6 3.3c0 1.5-1.2 2.7-2.7 2.7-1.5 0-2.7-1.2-2.7-2.7 0-1.5 1.2-2.7 2.7-2.7 1.5 0 2.7 1.2 2.7 2.7zM17.3 7.8l-1.9-.4-1.9-.4-.4-1.9-.4-1.9c-.1-.5-.5-.7-.9-.7s-.8.2-.9.7l-.3 1.7-.3 1.7V7h-.4l-1.7.3-1.7.3c-.5.1-.7.5-.7.9s.2.8.7.9l1.9.4 1.9.4.4 1.9.4 1.9c.1.5.5.7.9.7s.8-.2.9-.7l.3-1.7.3-1.7v-.4h.4l1.7-.3 1.7-.3c.5-.1.7-.5.7-.9s-.2-.8-.7-.9zM178.4 69l-1.9-.4-1.9-.4-.4-1.9-.4-1.9c-.1-.5-.5-.7-.9-.7s-.8.2-.9.7l-.3 1.7-.3 1.7v.4h-.4l-1.7.3-1.7.3c-.5.1-.7.5-.7.9s.2.8.7.9l1.9.4 1.9.4.4 1.9.4 1.9c.1.5.5.7.9.7s.8-.2.9-.7l.3-1.7.3-1.7v-.4h.4l1.7-.3 1.7-.3c.5-.1.7-.5.7-.9s-.2-.8-.7-.9z"/><circle cx="40.5" cy="44.7" r="9.9" fill="#BEBFC2"/><circle cx="40.5" cy="44.7" r="4.5" fill="#FFF"/></g><path fill="#FFF" d="M256.7 24.9h4.5v24.3h-4.5z"/><path fill="#BEBFC2" d="M261.2 24.9h18v24.3h-18z"/><path fill="#BEBFC2" d="M264.8 31.2h9.9c.5 0 .9-.4.9-.9v-.9c0-.5-.4-.9-.9-.9h-9.9c-.5 0-.9.4-.9.9v.9c0 .5.4.9.9.9z"/><path fill="#FFF" d="M268.4 17.7h7.2v31.5h-7.2z"/><path fill="#BEBFC2" d="M275.6 17.7h18.9v31.5h-18.9zm57.6 31.5h-82.8v5.4h100.8v-5.4z"/><path fill="#BEBFC2" d="M280.1 26.7h9.9c.5 0 .9-.4.9-.9v-3.6c0-.5-.4-.9-.9-.9h-9.9c-.5 0-.9.4-.9.9v3.6c0 .5.4.9.9.9zm0 5.4h9.9c.5 0 .9-.4.9-.9v-.9c0-.5-.4-.9-.9-.9h-9.9c-.5 0-.9.4-.9.9v.9c0 .5.4.9.9.9zm46.8 22.5h6.3v6.3h-6.3zm-58.5 0h6.3v6.3h-6.3zm44.1-12.1c-2.7 0-5.9-.8-8.4-2.4l1-1.7c2.2 1.4 4.7 1.9 7.3 1.9 4.7 0 9-2.1 11.6-6 2.1-3.1 2.8-6.7 2.1-10.4-.7-3.5-2.7-6.5-5.6-8.6l1-1.5c6.9 4.9 8.7 14.5 4 21.6-2.8 4.4-7.6 7-13 7.1z"/><g transform="translate(302 16)"><circle cx="10.5" cy="10.7" r="9.9" fill="#E0E1E5"/><path d="M8.7 3.6C8.7 1.9 7.3.5 5.5.5H3.7C2 2.1.9 4.3.6 6.8h4.9c1.8 0 3.2-1.4 3.2-3.2zm5.9 5h-5c-1.5 0-2.7 1.2-2.7 2.7 0 1.5 1.2 2.7 2.7 2.7h4.5c1.5 0 2.7-1.2 2.7-2.7 0-1.3-1-2.4-2.2-2.7z" fill="#BEBFC2"/></g><path fill="#BEBFC2" d="M317.9 46.5h-6.3c-1.5 0-2.7 1.2-2.7 2.7h11.7c0-1.5-1.2-2.7-2.7-2.7z"/><path fill="#BEBFC2" d="M313.4 42h2.7v5.4h-2.7zm4.3-23.7c1 1.5 1.5 3.3 1.5 5.2 0 5.5-4.4 9.9-9.9 9.9-1.9 0-3.7-.6-5.2-1.5 1.7 2.8 4.8 4.7 8.4 4.7 5.5 0 9.9-4.4 9.9-9.9 0-3.5-1.9-6.6-4.7-8.4z"/><path fill="#FFF" d="M203.6 114.9c-1 0-1.8.8-1.8 1.8v10.8c0 1 .8 1.8 1.8 1.8s1.8-.8 1.8-1.8v-10.8c0-1-.8-1.8-1.8-1.8zm0 79.2c-1 0-1.8.8-1.8 1.8v10.8c0 1 .8 1.8 1.8 1.8s1.8-.8 1.8-1.8v-10.8c0-1-.8-1.8-1.8-1.8z"/><path fill="#E0E1E5" d="M184 73.5c-1.3-5.6-6.3-9.8-12.3-9.8-1.3 0-2.6.2-3.9.6-1.3-10-9.8-17.8-20.2-17.8-8.6 0-15.9 5.3-18.9 12.8-1.7-.7-3.6-1-5.6-.8-5.9.5-10.7 5.1-11.4 10.9-.2 1.4-.1 2.8.1 4.1H184z"/><g transform="translate(235 122)"><path fill="#357DB7" d="M6.4.1c-.5 0-.9.1-1.4.2C7.3.9 9.1 3 9.1 5.5S7.4 10.1 5 10.7c.4.1.9.2 1.4.2 3 0 5.4-2.4 5.4-5.4 0-3-2.4-5.4-5.4-5.4z"/><ellipse cx="5" cy="5.5" fill="#265275" rx="4.1" ry="5.2"/></g><circle cx="205.4" cy="101.4" r="1.8" fill="#265275"/><circle cx="318.8" cy="101.4" r="1.8" fill="#265275"/><circle cx="205.4" cy="222" r="1.8" fill="#265275"/><circle cx="191" cy="101.4" r="1.8" fill="#357DB7"/><circle cx="105.5" cy="101.4" r="1.8" fill="#357DB7"/><circle cx="318.8" cy="222" r="1.8" fill="#265275"/></g></svg>