<svg fill="none" height="340" viewBox="0 0 320 340" width="320" xmlns="http://www.w3.org/2000/svg" xmlns:xlink="http://www.w3.org/1999/xlink"><filter id="a" color-interpolation-filters="sRGB" filterUnits="userSpaceOnUse" height="175.73" width="215.627" x="51.9189" y="152.028"><feFlood flood-opacity="0" result="BackgroundImageFix"/><feColorMatrix in="SourceAlpha" type="matrix" values="0 0 0 0 0 0 0 0 0 0 0 0 0 0 0 0 0 0 127 0"/><feOffset/><feGaussianBlur stdDeviation="1.5"/><feColorMatrix type="matrix" values="0 0 0 0 0 0 0 0 0 0 0 0 0 0 0 0 0 0 0.1 0"/><feBlend in2="BackgroundImageFix" mode="normal" result="effect1_dropShadow"/><feBlend in="SourceGraphic" in2="effect1_dropShadow" mode="normal" result="shape"/></filter><filter id="b" color-interpolation-filters="sRGB" filterUnits="userSpaceOnUse" height="16.2292" width="16.2292" x="237.497" y="234.145"><feFlood flood-opacity="0" result="BackgroundImageFix"/><feColorMatrix in="SourceAlpha" type="matrix" values="0 0 0 0 0 0 0 0 0 0 0 0 0 0 0 0 0 0 127 0"/><feOffset dy=".676215"/><feGaussianBlur stdDeviation=".676215"/><feColorMatrix type="matrix" values="0 0 0 0 0 0 0 0 0 0 0 0 0 0 0 0 0 0 0.236158 0"/><feBlend in2="BackgroundImageFix" mode="normal" result="effect1_dropShadow"/><feBlend in="SourceGraphic" in2="effect1_dropShadow" mode="normal" result="shape"/></filter><filter id="c" color-interpolation-filters="sRGB" filterUnits="userSpaceOnUse" height="78" width="314" x="3" y="89"><feFlood flood-opacity="0" result="BackgroundImageFix"/><feColorMatrix in="SourceAlpha" type="matrix" values="0 0 0 0 0 0 0 0 0 0 0 0 0 0 0 0 0 0 127 0"/><feOffset dy="6"/><feGaussianBlur stdDeviation="11.5"/><feColorMatrix type="matrix" values="0 0 0 0 0 0 0 0 0 0 0 0 0 0 0 0 0 0 0.16 0"/><feBlend in2="BackgroundImageFix" mode="normal" result="effect1_dropShadow"/><feBlend in="SourceGraphic" in2="effect1_dropShadow" mode="normal" result="shape"/></filter><filter id="d" color-interpolation-filters="sRGB" filterUnits="userSpaceOnUse" height="55.1362" width="289.004" x="15" y="92.5947"><feFlood flood-opacity="0" result="BackgroundImageFix"/><feColorMatrix in="SourceAlpha" type="matrix" values="0 0 0 0 0 0 0 0 0 0 0 0 0 0 0 0 0 0 127 0"/><feOffset/><feGaussianBlur stdDeviation="2"/><feColorMatrix type="matrix" values="0 0 0 0 0 0 0 0 0 0 0 0 0 0 0 0 0 0 0.1 0"/><feBlend in2="BackgroundImageFix" mode="normal" result="effect1_dropShadow"/><feBlend in="SourceGraphic" in2="effect1_dropShadow" mode="normal" result="shape"/></filter><filter id="e" color-interpolation-filters="sRGB" filterUnits="userSpaceOnUse" height="129.689" width="215.527" x="51.9189" y="-41.2655"><feFlood flood-opacity="0" result="BackgroundImageFix"/><feColorMatrix in="SourceAlpha" type="matrix" values="0 0 0 0 0 0 0 0 0 0 0 0 0 0 0 0 0 0 127 0"/><feOffset/><feGaussianBlur stdDeviation="1.5"/><feColorMatrix type="matrix" values="0 0 0 0 0 0 0 0 0 0 0 0 0 0 0 0 0 0 0.1 0"/><feBlend in2="BackgroundImageFix" mode="normal" result="effect1_dropShadow"/><feBlend in="SourceGraphic" in2="effect1_dropShadow" mode="normal" result="shape"/></filter><linearGradient id="f" gradientUnits="userSpaceOnUse" x1="160" x2="160" y1="151" y2="239"><stop offset="0" stop-color="#c4c4c4"/><stop offset="1" stop-color="#c4c4c4" stop-opacity="0"/></linearGradient><linearGradient id="g" gradientUnits="userSpaceOnUse" x1="164" x2="163.445" y1="25.0067" y2="93.9996"><stop offset="0" stop-color="#c4c4c4" stop-opacity="0"/><stop offset="1" stop-color="#c4c4c4"/></linearGradient><radialGradient id="h" cx="0" cy="0" gradientTransform="matrix(0 -10.9501 10.9501 0 220.5 75.4917)" gradientUnits="userSpaceOnUse" r="1"><stop offset="0" stop-color="#f6b151"/><stop offset="1" stop-color="#e09d40"/></radialGradient><clipPath id="i"><path d="m65.7383 233.469h187.988v16.2292h-187.988z"/></clipPath><clipPath id="j"><rect height="47.1362" rx="5.01555" width="281.004" x="19" y="96.5947"/></clipPath><mask id="k" height="88" maskUnits="userSpaceOnUse" width="236" x="42" y="151"><path d="m42 151h236v88h-236z" fill="url(#f)"/></mask><mask id="l" height="79" maskUnits="userSpaceOnUse" width="259" x="34" y="15"><path d="m34 15h259v79h-259z" fill="url(#g)"/></mask><g mask="url(#k)"><g filter="url(#a)"><rect fill="#fff" height="169.73" rx="3.74156" width="209.627" x="54.9189" y="155.028"/><path d="m0 0h209.627v33.8108h-209.627z" fill="#eee" fill-opacity=".5" transform="translate(54.9189 224.678)"/><g clip-path="url(#i)"><g fill="#333"><path d="m70.6073 243.963c1.6945 0 2.4424-.909 2.4424-1.959 0-2.348-3.6732-1.619-3.6732-2.803 0-.463.4166-.785 1.0603-.785.6627 0 1.3349.227 1.8366.729l.6249-.824c-.5775-.568-1.3822-.89-2.3573-.89-1.3917 0-2.3005.805-2.3005 1.856 0 2.319 3.6732 1.495 3.6732 2.821 0 .426-.3503.871-1.2591.871-.8804 0-1.5715-.417-1.9976-.881l-.6248.862c.568.587 1.4106 1.003 2.5751 1.003z"/><path d="m74.5337 238.719c.3408 0 .6154-.275.6154-.616s-.2746-.615-.6154-.615-.6154.274-.6154.615.2746.616.6154.616zm.4923 5.131v-4.573h-.9941v4.573z"/><path d="m77.6977 243.963c.4544 0 .7479-.132.9277-.293l-.2366-.758c-.0758.086-.2462.171-.4355.171-.284 0-.4355-.237-.4355-.549v-2.395h.9278v-.862h-.9278v-1.249h-.994v1.249h-.7574v.862h.7574v2.641c0 .767.3976 1.183 1.1739 1.183z"/><path d="m81.4593 243.963c.7195 0 1.3916-.236 1.8555-.672l-.4544-.653c-.3314.331-.8521.511-1.3065.511-.8615 0-1.3727-.577-1.4484-1.259h3.5217v-.246c0-1.439-.871-2.48-2.2437-2.48-1.3538 0-2.3194 1.069-2.3194 2.395 0 1.448 1.013 2.404 2.3952 2.404zm1.2117-2.783h-2.575c.0379-.549.4355-1.202 1.2781-1.202.8993 0 1.2685.662 1.2969 1.202z"/><path d="m88.1851 243.85v-2.367h1.6757c1.3159 0 2.0543-.899 2.0543-1.969 0-1.079-.7289-1.979-2.0543-1.979h-2.7833v6.315zm1.5242-3.342h-1.5242v-1.998h1.5242c.6248 0 1.0698.398 1.0698 1.004 0 .596-.445.994-1.0698.994z"/><path d="m93.8121 243.85v-3.115c.1988-.331.7573-.615 1.1834-.615.123 0 .2177.009.3029.028v-.984c-.5869 0-1.136.34-1.4863.776v-.663h-.9941v4.573z"/><path d="m96.6018 238.719c.3408 0 .6154-.275.6154-.616s-.2746-.615-.6154-.615-.6153.274-.6153.615.2745.616.6153.616zm.4923 5.131v-4.573h-.994v4.573z"/><path d="m100.656 243.85 1.865-4.573h-1.061l-1.334 3.427-1.3353-3.427h-1.0698l1.865 4.573z"/><path d="m106.941 243.85v-3.039c0-1.221-.89-1.647-1.912-1.647-.729 0-1.392.227-1.922.738l.417.691c.388-.398.842-.587 1.353-.587.625 0 1.07.322 1.07.852v.682c-.341-.388-.861-.587-1.486-.587-.748 0-1.581.435-1.581 1.496 0 1.003.842 1.514 1.581 1.514.606 0 1.145-.217 1.486-.615v.502zm-2.083-.568c-.558 0-.984-.322-.984-.824 0-.492.426-.824.984-.824.426 0 .852.161 1.089.474v.7c-.237.313-.663.474-1.089.474z"/><path d="m110.312 243.963c.9 0 1.43-.388 1.752-.814l-.653-.615c-.256.36-.606.549-1.051.549-.824 0-1.382-.634-1.382-1.524s.558-1.515 1.382-1.515c.445 0 .795.17 1.051.53l.653-.596c-.322-.436-.852-.814-1.752-.814-1.382 0-2.357 1.013-2.357 2.395s.975 2.404 2.357 2.404z"/><path d="m112.755 245.639c.133.038.417.066.559.066.71-.009 1.25-.255 1.562-1.032l2.206-5.396h-1.061l-1.334 3.427-1.335-3.427h-1.07l1.884 4.63-.227.52c-.133.303-.341.398-.663.398-.114 0-.275-.029-.379-.076z"/><path d="m121.283 243.85v-2.367h1.675c1.316 0 2.055-.899 2.055-1.969 0-1.079-.729-1.979-2.055-1.979h-2.783v6.315zm1.524-3.342h-1.524v-1.998h1.524c.625 0 1.07.398 1.07 1.004 0 .596-.445.994-1.07.994z"/><path d="m126.91 243.85v-3.115c.198-.331.757-.615 1.183-.615.123 0 .218.009.303.028v-.984c-.587 0-1.136.34-1.486.776v-.663h-.994v4.573z"/><path d="m131.271 243.963c1.458 0 2.348-1.098 2.348-2.404 0-1.316-.89-2.395-2.348-2.395s-2.348 1.079-2.348 2.395c0 1.306.89 2.404 2.348 2.404zm0-.88c-.843 0-1.316-.71-1.316-1.524 0-.805.473-1.515 1.316-1.515.852 0 1.316.71 1.316 1.515 0 .814-.464 1.524-1.316 1.524z"/><path d="m136.016 243.963c.454 0 .748-.132.928-.293l-.237-.758c-.076.086-.246.171-.435.171-.284 0-.436-.237-.436-.549v-2.395h.928v-.862h-.928v-1.249h-.994v1.249h-.757v.862h.757v2.641c0 .767.398 1.183 1.174 1.183z"/><path d="m139.778 243.963c.719 0 1.391-.236 1.855-.672l-.454-.653c-.332.331-.852.511-1.307.511-.861 0-1.373-.577-1.448-1.259h3.521v-.246c0-1.439-.87-2.48-2.243-2.48-1.354 0-2.32 1.069-2.32 2.395 0 1.448 1.013 2.404 2.396 2.404zm1.211-2.783h-2.575c.038-.549.436-1.202 1.278-1.202.9 0 1.269.662 1.297 1.202z"/><path d="m145.009 243.963c.9 0 1.43-.388 1.752-.814l-.653-.615c-.256.36-.606.549-1.051.549-.824 0-1.382-.634-1.382-1.524s.558-1.515 1.382-1.515c.445 0 .795.17 1.051.53l.653-.596c-.322-.436-.852-.814-1.752-.814-1.382 0-2.357 1.013-2.357 2.395s.975 2.404 2.357 2.404z"/><path d="m149.024 243.963c.454 0 .748-.132.928-.293l-.237-.758c-.076.086-.246.171-.436.171-.284 0-.435-.237-.435-.549v-2.395h.928v-.862h-.928v-1.249h-.994v1.249h-.757v.862h.757v2.641c0 .767.398 1.183 1.174 1.183z"/><path d="m151.167 238.719c.34 0 .615-.275.615-.616s-.275-.615-.615-.615c-.341 0-.616.274-.616.615s.275.616.616.616zm.492 5.131v-4.573h-.994v4.573z"/><path d="m155.022 243.963c1.458 0 2.347-1.098 2.347-2.404 0-1.316-.889-2.395-2.347-2.395s-2.348 1.079-2.348 2.395c0 1.306.89 2.404 2.348 2.404zm0-.88c-.843 0-1.316-.71-1.316-1.524 0-.805.473-1.515 1.316-1.515.852 0 1.316.71 1.316 1.515 0 .814-.464 1.524-1.316 1.524z"/><path d="m162.474 243.85v-3.219c0-.937-.492-1.467-1.477-1.467-.719 0-1.316.369-1.618.729v-.616h-.994v4.573h.994v-3.2c.236-.303.672-.606 1.173-.606.559 0 .928.227.928.947v2.859z"/></g><path d="m225.325 241.583c0-4.481 3.633-8.114 8.115-8.114h12.172c4.481 0 8.114 3.633 8.114 8.114 0 4.482-3.633 8.115-8.114 8.115h-12.172c-4.482 0-8.115-3.633-8.115-8.115z" fill="#50a951"/><g filter="url(#b)"><path clip-rule="evenodd" d="m245.612 248.345c3.734 0 6.762-3.027 6.762-6.762 0-3.734-3.028-6.762-6.762-6.762-3.735 0-6.763 3.028-6.763 6.762 0 3.735 3.028 6.762 6.763 6.762z" fill="#fff" fill-rule="evenodd"/></g></g><path d="m54.9189 224.002h209.6271v.676h-209.6271z" fill="#000" fill-opacity=".05"/><g fill="#333"><path d="m92.5383 210.715v-2.367h1.6757c1.3159 0 2.0543-.899 2.0543-1.969 0-1.079-.729-1.978-2.0543-1.978h-2.7833v6.314zm1.5242-3.342h-1.5242v-1.997h1.5242c.6248 0 1.0698.397 1.0698 1.003 0 .597-.445.994-1.0698.994z"/><path d="m99.1058 210.829c1.4582 0 2.3482-1.098 2.3482-2.405 0-1.316-.89-2.395-2.3482-2.395-1.4579 0-2.3478 1.079-2.3478 2.395 0 1.307.8899 2.405 2.3478 2.405zm0-.881c-.8425 0-1.3159-.71-1.3159-1.524 0-.805.4734-1.515 1.3159-1.515.8521 0 1.3162.71 1.3162 1.515 0 .814-.4641 1.524-1.3162 1.524z"/><path d="m104.542 210.829c1.458 0 2.348-1.098 2.348-2.405 0-1.316-.89-2.395-2.348-2.395s-2.348 1.079-2.348 2.395c0 1.307.89 2.405 2.348 2.405zm0-.881c-.843 0-1.316-.71-1.316-1.524 0-.805.473-1.515 1.316-1.515.852 0 1.316.71 1.316 1.515 0 .814-.464 1.524-1.316 1.524z"/><path d="m108.899 210.715v-3.115c.199-.331.757-.615 1.183-.615.123 0 .218.01.303.029v-.985c-.587 0-1.136.341-1.486.776v-.662h-.994v4.572z"/><path d="m114.764 210.715v-2.367h1.675c1.316 0 2.055-.899 2.055-1.969 0-1.079-.729-1.978-2.055-1.978h-2.783v6.314zm1.524-3.342h-1.524v-1.997h1.524c.625 0 1.07.397 1.07 1.003 0 .597-.445.994-1.07.994z"/><path d="m120.391 210.715v-3.115c.198-.331.757-.615 1.183-.615.123 0 .218.01.303.029v-.985c-.587 0-1.136.341-1.486.776v-.662h-.994v4.572z"/><path d="m123.18 205.584c.341 0 .616-.275.616-.615 0-.341-.275-.616-.616-.616s-.615.275-.615.616c0 .34.274.615.615.615zm.493 5.131v-4.572h-.994v4.572z"/><path d="m127.234 210.715 1.865-4.572h-1.06l-1.335 3.427-1.335-3.427h-1.07l1.865 4.572z"/><path d="m133.52 210.715v-3.039c0-1.221-.89-1.647-1.913-1.647-.729 0-1.391.227-1.922.738l.417.691c.388-.397.843-.587 1.354-.587.625 0 1.07.322 1.07.853v.681c-.341-.388-.862-.587-1.487-.587-.748 0-1.581.436-1.581 1.496 0 1.003.843 1.515 1.581 1.515.606 0 1.146-.218 1.487-.616v.502zm-2.083-.568c-.559 0-.985-.322-.985-.824 0-.492.426-.823.985-.823.426 0 .852.161 1.089.473v.701c-.237.312-.663.473-1.089.473z"/><path d="m136.891 210.829c.899 0 1.429-.388 1.751-.814l-.653-.616c-.256.36-.606.549-1.051.549-.823 0-1.382-.634-1.382-1.524s.559-1.515 1.382-1.515c.445 0 .795.171 1.051.531l.653-.597c-.322-.435-.852-.814-1.751-.814-1.382 0-2.357 1.013-2.357 2.395s.975 2.405 2.357 2.405z"/><path d="m139.334 212.504c.132.038.416.067.558.067.71-.01 1.25-.256 1.562-1.032l2.206-5.396h-1.06l-1.335 3.427-1.335-3.427h-1.07l1.884 4.629-.227.521c-.132.303-.341.397-.662.397-.114 0-.275-.028-.379-.076z"/><path d="m147.861 210.715v-2.367h1.676c1.316 0 2.054-.899 2.054-1.969 0-1.079-.729-1.978-2.054-1.978h-2.783v6.314zm1.524-3.342h-1.524v-1.997h1.524c.625 0 1.07.397 1.07 1.003 0 .597-.445.994-1.07.994z"/><path d="m153.488 210.715v-3.115c.199-.331.757-.615 1.183-.615.124 0 .218.01.303.029v-.985c-.587 0-1.136.341-1.486.776v-.662h-.994v4.572z"/><path d="m159.572 210.715v-3.039c0-1.221-.89-1.647-1.912-1.647-.729 0-1.392.227-1.922.738l.417.691c.388-.397.842-.587 1.354-.587.624 0 1.069.322 1.069.853v.681c-.34-.388-.861-.587-1.486-.587-.748 0-1.581.436-1.581 1.496 0 1.003.843 1.515 1.581 1.515.606 0 1.146-.218 1.486-.616v.502zm-2.082-.568c-.559 0-.985-.322-.985-.824 0-.492.426-.823.985-.823.426 0 .852.161 1.088.473v.701c-.236.312-.662.473-1.088.473z"/><path d="m162.944 210.829c.899 0 1.429-.388 1.751-.814l-.653-.616c-.256.36-.606.549-1.051.549-.824 0-1.382-.634-1.382-1.524s.558-1.515 1.382-1.515c.445 0 .795.171 1.051.531l.653-.597c-.322-.435-.852-.814-1.751-.814-1.383 0-2.358 1.013-2.358 2.395s.975 2.405 2.358 2.405z"/><path d="m166.958 210.829c.455 0 .748-.133.928-.294l-.237-.757c-.076.085-.246.17-.435.17-.284 0-.436-.236-.436-.549v-2.395h.928v-.861h-.928v-1.25h-.994v1.25h-.757v.861h.757v2.641c0 .767.398 1.184 1.174 1.184z"/><path d="m169.101 205.584c.341 0 .615-.275.615-.615 0-.341-.274-.616-.615-.616s-.616.275-.616.616c0 .34.275.615.616.615zm.492 5.131v-4.572h-.994v4.572z"/><path d="m172.965 210.829c.9 0 1.43-.388 1.752-.814l-.653-.616c-.256.36-.606.549-1.051.549-.824 0-1.382-.634-1.382-1.524s.558-1.515 1.382-1.515c.445 0 .795.171 1.051.531l.653-.597c-.322-.435-.852-.814-1.752-.814-1.382 0-2.357 1.013-2.357 2.395s.975 2.405 2.357 2.405z"/><path d="m177.718 210.829c.72 0 1.392-.237 1.856-.672l-.455-.654c-.331.332-.852.512-1.306.512-.862 0-1.373-.578-1.449-1.26h3.522v-.246c0-1.439-.871-2.48-2.243-2.48-1.354 0-2.32 1.07-2.32 2.395 0 1.449 1.013 2.405 2.395 2.405zm1.212-2.784h-2.575c.038-.549.435-1.202 1.278-1.202.899 0 1.269.663 1.297 1.202z"/><path d="m182.439 210.829c1.231 0 1.903-.616 1.903-1.43 0-1.817-2.765-1.212-2.765-2.016 0-.322.322-.568.843-.568.577 0 1.079.246 1.354.549l.416-.701c-.407-.36-.994-.634-1.77-.634-1.155 0-1.799.634-1.799 1.382 0 1.761 2.765 1.117 2.765 2.017 0 .359-.313.605-.909.605-.587 0-1.221-.302-1.543-.634l-.455.71c.474.464 1.174.72 1.96.72z"/></g><path d="m54.9189 189.515h209.6271v.676h-209.6271z" fill="#000" fill-opacity=".05"/><path clip-rule="evenodd" d="m248.507 203.228c-.254.252-.254.665 0 .918l2.968 2.95-2.968 2.951c-.254.252-.254.665 0 .917.253.253.669.253.923 0l3.43-3.409c.253-.252.253-.665 0-.918l-3.43-3.409c-.254-.252-.67-.252-.923 0z" fill="#aaa" fill-rule="evenodd"/><path d="m73.8509 213.168c2.9867 0 5.408-2.421 5.408-5.408s-2.4213-5.408-5.408-5.408c-2.9868 0-5.408 2.421-5.408 5.408s2.4212 5.408 5.408 5.408z" style="fill-rule:evenodd;clip-rule:evenodd;stroke:#de5833;stroke-width:1.39897;stroke-linecap:round;stroke-linejoin:round"/><path d="m75.7436 205.867-3.7856 3.786" stroke="#de5833" stroke-linecap="round" stroke-width="1.39897"/><path d="m75.7436 209.653-3.7856-3.786" stroke="#de5833" stroke-linecap="round" stroke-width="1.39897"/><path d="m95.8045 175.876v-.975h-2.7928c1.6852-1.278 2.7549-2.32 2.7549-3.494 0-1.259-1.0603-1.94-2.2815-1.94-.8899 0-1.7798.331-2.3384 1.013l.6438.719c.4071-.454.9656-.748 1.704-.748.5775 0 1.155.294 1.155.956 0 .919-.9656 1.733-3.4176 3.588v.881z" fill="#333"/><path d="m102.115 175.876v-5.34h1.912v-.975h-4.9323v.975h1.9123v5.34z" fill="#333"/><path d="m105.219 175.876v-3.115c.199-.331.758-.615 1.184-.615.123 0 .217.009.303.028v-.984c-.587 0-1.136.34-1.487.776v-.663h-.994v4.573z" fill="#333"/><path d="m111.304 175.876v-3.039c0-1.221-.89-1.647-1.913-1.647-.729 0-1.391.227-1.922.738l.417.691c.388-.397.843-.587 1.354-.587.625 0 1.07.322 1.07.852v.682c-.341-.388-.862-.587-1.487-.587-.748 0-1.581.435-1.581 1.496 0 1.003.843 1.514 1.581 1.514.606 0 1.146-.217 1.487-.615v.502zm-2.083-.568c-.559 0-.985-.322-.985-.824 0-.492.426-.823.985-.823.426 0 .852.16 1.089.473v.7c-.237.313-.663.474-1.089.474z" fill="#333"/><path d="m114.675 175.989c.899 0 1.429-.388 1.751-.814l-.653-.615c-.256.36-.606.549-1.051.549-.823 0-1.382-.634-1.382-1.524s.559-1.515 1.382-1.515c.445 0 .795.17 1.051.53l.653-.596c-.322-.436-.852-.814-1.751-.814-1.382 0-2.357 1.013-2.357 2.395s.975 2.404 2.357 2.404z" fill="#333"/><path d="m121.586 175.876-1.931-2.5 1.893-2.073h-1.23l-2.017 2.206v-3.948h-.994v6.315h.994v-1.231l.644-.663 1.392 1.894z" fill="#333"/><path d="m124.374 175.989c.719 0 1.392-.236 1.855-.672l-.454-.653c-.331.331-.852.511-1.306.511-.862 0-1.373-.577-1.449-1.259h3.522v-.246c0-1.439-.871-2.48-2.244-2.48-1.354 0-2.319 1.069-2.319 2.395 0 1.448 1.013 2.404 2.395 2.404zm1.212-2.783h-2.575c.038-.549.435-1.202 1.278-1.202.899 0 1.268.662 1.297 1.202z" fill="#333"/><path d="m128.517 175.876v-3.115c.199-.331.757-.615 1.183-.615.124 0 .218.009.303.028v-.984c-.587 0-1.136.34-1.486.776v-.663h-.994v4.573z" fill="#333"/><path d="m132.377 175.989c1.23 0 1.902-.615 1.902-1.429 0-1.818-2.764-1.212-2.764-2.017 0-.321.322-.568.843-.568.577 0 1.079.247 1.353.549l.417-.7c-.407-.36-.994-.634-1.77-.634-1.155 0-1.799.634-1.799 1.382 0 1.761 2.764 1.117 2.764 2.016 0 .36-.312.606-.909.606-.586 0-1.221-.303-1.543-.634l-.454.71c.473.464 1.174.719 1.96.719z" fill="#333"/><path d="m140.93 175.876c1.193 0 1.837-.729 1.837-1.714 0-.767-.54-1.439-1.222-1.543.587-.123 1.099-.663 1.099-1.448 0-.89-.635-1.61-1.799-1.61h-3.105v6.315zm-.303-3.711h-1.78v-1.629h1.78c.559 0 .88.351.88.815 0 .482-.321.814-.88.814zm.047 2.736h-1.827v-1.761h1.827c.625 0 .957.407.957.88 0 .549-.36.881-.957.881z" fill="#333"/><path d="m144.853 175.876v-6.315h-.994v6.315z" fill="#333"/><path d="m148.216 175.989c1.458 0 2.348-1.098 2.348-2.404 0-1.316-.89-2.395-2.348-2.395s-2.348 1.079-2.348 2.395c0 1.306.89 2.404 2.348 2.404zm0-.88c-.843 0-1.316-.71-1.316-1.524 0-.805.473-1.515 1.316-1.515.852 0 1.316.71 1.316 1.515 0 .814-.464 1.524-1.316 1.524z" fill="#333"/><path d="m153.662 175.989c.899 0 1.429-.388 1.751-.814l-.653-.615c-.256.36-.606.549-1.051.549-.824 0-1.382-.634-1.382-1.524s.558-1.515 1.382-1.515c.445 0 .795.17 1.051.53l.653-.596c-.322-.436-.852-.814-1.751-.814-1.383 0-2.358 1.013-2.358 2.395s.975 2.404 2.358 2.404z" fill="#333"/><path d="m160.573 175.876-1.931-2.5 1.893-2.073h-1.231l-2.016 2.206v-3.948h-.994v6.315h.994v-1.231l.644-.663 1.391 1.894z" fill="#333"/><path d="m163.361 175.989c.719 0 1.391-.236 1.855-.672l-.454-.653c-.332.331-.852.511-1.307.511-.861 0-1.372-.577-1.448-1.259h3.522v-.246c0-1.439-.871-2.48-2.244-2.48-1.354 0-2.319 1.069-2.319 2.395 0 1.448 1.012 2.404 2.395 2.404zm1.211-2.783h-2.575c.038-.549.436-1.202 1.278-1.202.9 0 1.269.662 1.297 1.202z" fill="#333"/><path d="m170.723 175.876v-6.315h-.994v2.377c-.36-.493-.89-.748-1.468-.748-1.174 0-2.026.918-2.026 2.395 0 1.514.862 2.404 2.026 2.404.597 0 1.117-.284 1.468-.738v.625zm-2.168-.767c-.796 0-1.297-.634-1.297-1.524 0-.881.501-1.515 1.297-1.515.464 0 .956.275 1.174.615v1.809c-.218.34-.71.615-1.174.615z" fill="#333"/><path clip-rule="evenodd" d="m76.2915 170.898c.2357.226.2432.601.0169.836l-2.5982 2.705c-.1115.116-.2656.182-.4267.182-.161 0-.3151-.066-.4267-.182l-1.4592-1.519c-.2263-.236-.2188-.61.0169-.837.2356-.226.6102-.218.8366.017l1.0324 1.075 2.1714-2.26c.2264-.236.601-.244.8366-.017z" fill="#3ea140" fill-rule="evenodd"/><path clip-rule="evenodd" d="m73.8533 177.512c2.7076 0 4.9025-2.195 4.9025-4.903 0-2.707-2.1949-4.902-4.9025-4.902s-4.9026 2.195-4.9026 4.902c0 2.708 2.195 4.903 4.9026 4.903zm6.0859-4.903c0 3.361-2.7248 6.086-6.0859 6.086-3.3612 0-6.086-2.725-6.086-6.086s2.7248-6.086 6.086-6.086c3.3611 0 6.0859 2.725 6.0859 6.086z" fill="#3ea140" fill-rule="evenodd"/><path clip-rule="evenodd" d="m248.507 166.036c-.254.253-.254.666 0 .918l2.968 2.95-2.968 2.951c-.254.252-.254.665 0 .917.253.253.669.253.922 0l3.43-3.409c.254-.252.254-.665 0-.917l-3.43-3.41c-.253-.252-.669-.252-.922 0z" fill="#aaa" fill-rule="evenodd"/></g></g><g filter="url(#c)"><path d="m26 106h268v32h-268z" fill="#c4c4c4"/></g><g filter="url(#d)"><g clip-path="url(#j)"><rect fill="#fff" height="47.1362" rx="5.01555" width="281.004" x="19" y="96.5947"/><g fill="#333"><path d="m72.8367 123.818v-1.308h-4.3148v-2.36h4.2259v-1.307h-4.2259v-2.183h4.3148v-1.307h-5.7996v8.465z"/><path d="m79.8056 123.818v-4.315c0-1.257-.6599-1.967-1.9797-1.967-.9645 0-1.764.495-2.1701.977v-.825h-1.3325v6.13h1.3325v-4.29c.3173-.406.9011-.812 1.5737-.812.7487 0 1.2436.305 1.2436 1.269v3.833z"/><path d="m84.328 123.97c1.2056 0 1.9163-.52 2.3478-1.092l-.8757-.824c-.3426.482-.8122.736-1.4086.736-1.1041 0-1.8528-.851-1.8528-2.044 0-1.192.7487-2.03 1.8528-2.03.5964 0 1.066.228 1.4086.711l.8757-.8c-.4315-.584-1.1422-1.091-2.3478-1.091-1.8528 0-3.1599 1.358-3.1599 3.21 0 1.853 1.3071 3.224 3.1599 3.224z"/><path d="m89.1891 123.818v-4.176c.2665-.444 1.0152-.825 1.5863-.825.165 0 .2919.013.4061.039v-1.32c-.7868 0-1.5229.457-1.9924 1.04v-.888h-1.3325v6.13z"/><path d="m92.0023 126.216c.1777.051.5584.089.7488.089.9517-.013 1.6751-.343 2.0939-1.383l2.9569-7.234h-1.4214l-1.7893 4.594-1.7894-4.594h-1.434l2.5254 6.206-.3046.698c-.1776.406-.4568.533-.8883.533-.1523 0-.368-.038-.5076-.102z"/><path d="m101.938 123.97c1.586 0 2.716-1.206 2.716-3.224 0-2.017-1.13-3.21-2.716-3.21-.799 0-1.51.38-1.9669.99v-.838h-1.3325v8.465h1.3325v-3.186c.5079.647 1.1929 1.003 1.9669 1.003zm-.393-1.18c-.622 0-1.282-.381-1.5739-.838v-2.424c.3049-.457.9519-.812 1.5739-.812 1.053 0 1.738.838 1.738 2.03 0 1.193-.685 2.044-1.738 2.044z"/><path d="m107.84 123.97c.61 0 1.003-.178 1.244-.394l-.317-1.015c-.102.114-.33.229-.584.229-.381 0-.584-.318-.584-.736v-3.211h1.244v-1.155h-1.244v-1.675h-1.332v1.675h-1.015v1.155h1.015v3.541c0 1.027.533 1.586 1.573 1.586z"/><path d="m112.883 123.97c.964 0 1.865-.317 2.487-.901l-.609-.876c-.444.444-1.142.685-1.751.685-1.155 0-1.84-.774-1.942-1.687h4.721v-.33c0-1.929-1.168-3.325-3.008-3.325-1.814 0-3.109 1.434-3.109 3.21 0 1.942 1.358 3.224 3.211 3.224zm1.624-3.731h-3.452c.051-.736.584-1.612 1.714-1.612 1.205 0 1.7.888 1.738 1.612z"/><path d="m122.752 123.818v-8.465h-1.333v3.185c-.482-.66-1.193-1.002-1.967-1.002-1.574 0-2.716 1.231-2.716 3.21 0 2.031 1.155 3.224 2.716 3.224.799 0 1.497-.381 1.967-.99v.838zm-2.907-1.028c-1.066 0-1.738-.851-1.738-2.044 0-1.18.672-2.03 1.738-2.03.622 0 1.282.368 1.574.825v2.424c-.292.457-.952.825-1.574.825z"/><path d="m131.862 123.97c1.7 0 2.753-.901 3.401-1.916l-1.269-.635c-.406.698-1.231 1.231-2.132 1.231-1.676 0-2.919-1.294-2.919-3.058 0-1.79 1.243-3.059 2.919-3.059.901 0 1.726.521 2.132 1.231l1.256-.66c-.622-1.015-1.688-1.891-3.388-1.891-2.5 0-4.442 1.764-4.442 4.379 0 2.601 1.942 4.378 4.442 4.378z"/><path d="m139.179 123.97c1.955 0 3.148-1.472 3.148-3.224 0-1.764-1.193-3.21-3.148-3.21-1.954 0-3.147 1.446-3.147 3.21 0 1.752 1.193 3.224 3.147 3.224zm0-1.18c-1.129 0-1.764-.952-1.764-2.044 0-1.078.635-2.03 1.764-2.03 1.143 0 1.764.952 1.764 2.03 0 1.092-.621 2.044-1.764 2.044z"/><path d="m149.17 123.818v-4.315c0-1.257-.66-1.967-1.98-1.967-.965 0-1.764.495-2.17.977v-.825h-1.333v6.13h1.333v-4.29c.317-.406.901-.812 1.574-.812.748 0 1.243.305 1.243 1.269v3.833z"/><path d="m156.382 123.818v-4.315c0-1.257-.659-1.967-1.979-1.967-.965 0-1.764.495-2.17.977v-.825h-1.333v6.13h1.333v-4.29c.317-.406.901-.812 1.573-.812.749 0 1.244.305 1.244 1.269v3.833z"/><path d="m160.956 123.97c.964 0 1.865-.317 2.487-.901l-.609-.876c-.444.444-1.142.685-1.752.685-1.154 0-1.84-.774-1.941-1.687h4.721v-.33c0-1.929-1.168-3.325-3.008-3.325-1.815 0-3.109 1.434-3.109 3.21 0 1.942 1.358 3.224 3.211 3.224zm1.624-3.731h-3.452c.051-.736.584-1.612 1.713-1.612 1.206 0 1.701.888 1.739 1.612z"/><path d="m167.969 123.97c1.205 0 1.916-.52 2.348-1.092l-.876-.824c-.343.482-.812.736-1.409.736-1.104 0-1.852-.851-1.852-2.044 0-1.192.748-2.03 1.852-2.03.597 0 1.066.228 1.409.711l.876-.8c-.432-.584-1.143-1.091-2.348-1.091-1.853 0-3.16 1.358-3.16 3.21 0 1.853 1.307 3.224 3.16 3.224z"/><path d="m173.35 123.97c.609 0 1.003-.178 1.244-.394l-.317-1.015c-.102.114-.33.229-.584.229-.381 0-.584-.318-.584-.736v-3.211h1.244v-1.155h-1.244v-1.675h-1.332v1.675h-1.016v1.155h1.016v3.541c0 1.027.533 1.586 1.573 1.586z"/><path d="m176.223 116.939c.456 0 .824-.368.824-.825 0-.456-.368-.824-.824-.824-.457 0-.825.368-.825.824 0 .457.368.825.825.825zm.659 6.879v-6.13h-1.332v6.13z"/><path d="m181.39 123.97c1.955 0 3.148-1.472 3.148-3.224 0-1.764-1.193-3.21-3.148-3.21-1.954 0-3.147 1.446-3.147 3.21 0 1.752 1.193 3.224 3.147 3.224zm0-1.18c-1.129 0-1.764-.952-1.764-2.044 0-1.078.635-2.03 1.764-2.03 1.142 0 1.764.952 1.764 2.03 0 1.092-.622 2.044-1.764 2.044z"/><path d="m191.38 123.818v-4.315c0-1.257-.659-1.967-1.979-1.967-.965 0-1.764.495-2.17.977v-.825h-1.333v6.13h1.333v-4.29c.317-.406.901-.812 1.573-.812.749 0 1.244.305 1.244 1.269v3.833z"/></g><path clip-rule="evenodd" d="m47.65 117.869c.316.303.3261.805.0226 1.121l-3.4828 3.626c-.1495.156-.3561.244-.572.244s-.4225-.088-.572-.244l-1.956-2.036c-.3035-.316-.2934-.818.0226-1.122.3159-.303.818-.293 1.1214.023l1.384 1.441 2.9108-3.031c.3034-.316.8055-.326 1.1214-.022z" fill="#3ea140" fill-rule="evenodd"/><path clip-rule="evenodd" d="m44.3811 126.735c3.6295 0 6.5719-2.943 6.5719-6.572 0-3.63-2.9424-6.572-6.5719-6.572-3.6296 0-6.5719 2.942-6.5719 6.572 0 3.629 2.9423 6.572 6.5719 6.572zm8.1582-6.572c0 4.506-3.6526 8.158-8.1582 8.158-4.5057 0-8.1582-3.652-8.1582-8.158s3.6525-8.158 8.1582-8.158c4.5056 0 8.1582 3.652 8.1582 8.158z" fill="#3ea140" fill-rule="evenodd"/></g></g><path d="m80.7236 308.223c-.803-3.463-3.891-6.06-7.597-6.06-.803 0-1.606.124-2.41.371-.802-6.184-6.052-11.008-12.476-11.008-5.312 0-9.82 3.278-11.673 7.916-1.0946-.448-2.2834-.619-3.46-.495-3.643.31-6.608 3.154-7.04 6.741-.124.866-.062 1.732.061 2.535zm167.7534-30.611h-17.787c-1.235 0-2.223.99-2.223 2.226v4.453c0 1.236.988 2.226 2.223 2.226h17.788c1.236 0 2.224-.99 2.224-2.226v-4.453c.001-.293-.056-.582-.167-.853-.111-.27-.275-.516-.482-.723-.206-.207-.452-.371-.723-.483-.27-.111-.56-.168-.852-.167z" fill="#e0e1e5" fill-opacity=".6"/><path d="m107.839 328.817c0 3.092 2.408 5.566 5.311 5.566h2.656c2.965 0 5.312-2.474 5.312-5.566h-13.28zm64.482 0c0 3.092 2.409 5.566 5.312 5.566h2.656c2.965 0 5.312-2.474 5.312-5.566zm38.912 0c0 3.092 2.409 5.566 5.312 5.566h2.656c2.965 0 5.312-2.474 5.312-5.566zm-58.923 0c0 3.092 2.408 5.566 5.311 5.566h2.656c2.965 0 5.312-2.474 5.312-5.566h-13.28z" fill="#240f45"/><path d="m230.133 247h-66.706c-.731-.002-1.456.14-2.132.419-.676.278-1.29.688-1.807 1.206-.517.517-.926 1.132-1.204 1.808s-.42 1.401-.416 2.132v72.356c-.004.731.138 1.456.416 2.132.278.677.687 1.292 1.204 1.809s1.131.927 1.807 1.206 1.4.422 2.132.419h66.706c.731.003 1.456-.14 2.132-.418.676-.279 1.29-.689 1.807-1.207.517-.517.927-1.132 1.205-1.808.278-.677.419-1.402.416-2.133v-72.356c.003-.731-.138-1.456-.417-2.132-.278-.677-.687-1.291-1.204-1.809-.517-.517-1.131-.927-1.807-1.206-.676-.278-1.401-.421-2.132-.418z" fill="#357db7"/><path d="m234.086 334.383h-135.7604c-.864 0-1.605.742-1.605 1.608v.123c0 .866.741 1.608 1.606 1.608h135.7604c.864 0 1.605-.742 1.605-1.608v-.123c0-.866-.741-1.608-1.606-1.608zm28.289-41.187h-17.789c-1.235 0-2.223.99-2.223 2.226v4.454c0 1.237.988 2.226 2.223 2.226h17.789c1.235 0 2.223-.99 2.223-2.226v-4.453c.001-.292-.056-.582-.167-.853-.111-.27-.275-.516-.481-.723-.207-.207-.453-.371-.723-.482-.27-.112-.56-.169-.852-.168zm-161.763 25.046h-17.7884c-1.236 0-2.224.99-2.224 2.226v4.453c0 1.237.988 2.226 2.224 2.226h17.7884c1.235 0 2.224-.99 2.224-2.226v-4.453c.001-.292-.056-.582-.167-.853-.111-.27-.275-.516-.482-.723-.206-.207-.452-.371-.723-.483-.27-.111-.56-.168-.852-.167z" fill="#e0e1e5" fill-opacity=".6"/><path d="m69.4827 275.942h-7.227c-.2195.001-.4369-.042-.6398-.125-.2028-.084-.3871-.207-.5422-.362-.155-.156-.2778-.34-.3613-.543-.0834-.203-.1258-.421-.1247-.64 0-.928.742-1.67 1.668-1.67h7.227c.926 0 1.667.742 1.667 1.67s-.741 1.67-1.667 1.67z" fill="#fff"/><path d="m72.8176 275.942h-7.228c-.2193.001-.4366-.042-.6394-.126-.2027-.084-.3869-.207-.5419-.362-.1549-.155-.2776-.339-.361-.542s-.1257-.421-.1247-.64c0-.928.74-1.67 1.667-1.67h7.227c.926 0 1.667.742 1.667 1.67s-.74 1.67-1.667 1.67z" fill="#bebfc2"/><path d="m105.615 258.688h46.694v60.111h-46.694z" fill="#240f45"/><path d="m154.533 269.819h-12.785c-.22.001-.437-.042-.64-.126-.203-.083-.387-.206-.542-.361-.155-.156-.278-.34-.362-.543-.083-.203-.125-.421-.124-.64 0-.927.741-1.669 1.668-1.669h12.785c.926 0 1.668.742 1.668 1.67 0 .927-.742 1.67-1.668 1.67z" fill="#bebfc2"/><path d="m129.024 288.186c.432 0 .865.186 1.173.495l3.398 3.402c.37.37 1.111.618 1.605.556h19.518c.494.062.865.433.865.99l-2.1 19.604c-.124.99-.618 1.484-1.174 1.67h-30.079c-.308-.186-.493-.557-.493-.928v-24.119c0-.927.74-1.67 1.667-1.67z" fill="#9c452c"/><path d="m148.974 287.073v20.47c-.001.328-.131.641-.363.873-.231.232-.545.363-.872.364h-18.592c-.328-.001-.642-.132-.873-.364s-.362-.545-.362-.873v-24.799c0-.68.556-1.236 1.235-1.236h14.33z" fill="#fff"/><path d="m147.862 312.986-2.038-16.08c-.124-.804-.803-1.484-1.668-1.484h-16.49c-.495-.247-1.236-.495-1.607-.866l-1.297-1.236c-.37-.372-1.112-.619-1.606-.68h-6.053c-.494.061-.926.432-.864.989l1.976 19.79c.062.865.803 1.483 1.668 1.483h29.523c-.74-.309-1.42-1.113-1.544-1.917z" fill="#df5833"/><path d="m144.527 287.073h4.447l-5.559-5.565v4.452c0 .619.494 1.113 1.112 1.113z" fill="#bebfc2"/><path d="m157.868 252.566c0-2.907 2.224-5.257 5.003-5.566h-60.591c-.732-.003-1.456.14-2.132.418-.6766.279-1.2908.689-1.8076 1.206-.5169.518-.9263 1.132-1.2045 1.809-.2781.676-.4197 1.401-.4164 2.132v1.114h61.1485v-1.114z" fill="#61a4d9"/><path d="m96.7197 253.679v70.129h61.1483v-70.13h-61.1473zm55.5903 65.12h-50.03v-60.111h50.029v60.11z" fill="#4695d1"/><path d="m157.868 324.921v-1.113h-61.1472v1.113c-.0035.731.1379 1.456.416 2.132.278.677.6873 1.292 1.2041 1.809s1.1309.927 1.8071 1.206c.676.279 1.4.422 2.132.419h60.591c-2.78-.31-5.003-2.66-5.003-5.566z" fill="#357db7"/><path d="m102.28 258.688h3.335v60.111h-3.335z" fill="#265275"/><path d="m71.3347 280.951h26.805c.4914-.002.9621-.198 1.3093-.546s.5426-.819.5437-1.31v-14.595c-.0016-.491-.1973-.961-.5444-1.309-.3472-.347-.8176-.543-1.3086-.545h-26.805c-.4911.002-.9615.198-1.3086.545-.3471.348-.5428.818-.5444 1.309v14.596c0 .99.864 1.856 1.853 1.856z" fill="#fcb554"/><path d="m81.0318 277.054h-7.474c-.3274-.001-.6409-.132-.8722-.363-.2314-.232-.3618-.546-.3628-.873v-8.596c0-.68.556-1.237 1.235-1.237h7.474c.68 0 1.235.556 1.235 1.237v8.596c-.0011.327-.1315.641-.3629.873-.2313.231-.5448.362-.8721.363z" fill="#fff"/><path d="m77.2637 272.602c-1.853 0-3.335 1.36-3.335 4.452h6.67c0-3.092-1.482-4.452-3.335-4.452z" fill="#240f45"/><path d="m77.2638 273.158c1.2283 0 2.224-.997 2.224-2.226s-.9957-2.226-2.224-2.226-2.224.997-2.224 2.226.9957 2.226 2.224 2.226z" fill="#240f45"/><path d="m97.2756 269.262v-2.226c0-.618-.494-1.113-1.112-1.113h-10.006c-.617 0-1.111.495-1.111 1.113v2.226c0 .619.494 1.113 1.111 1.113h10.006c.618 0 1.112-.494 1.112-1.113zm0 4.144v-1.052c0-.185-.124-.309-.309-.309h-11.55c-.185 0-.309.124-.309.31v1.05c0 .186.124.31.31.31h11.55c.184 0 .308-.124.308-.31zm-12.229 2.288v1.051c0 .186.123.31.308.31h11.55c.186 0 .31-.124.31-.31v-1.051c0-.186-.124-.31-.31-.31h-11.55c-.185 0-.308.124-.308.31z" fill="#cc872a"/><path d="m61.1445 297.092h31.13v16.697h-31.13z" fill="#6fc05c"/><path d="m76.7085 309.893c2.456 0 4.447-1.994 4.447-4.453s-1.991-4.453-4.447-4.453-4.447 1.994-4.447 4.453 1.991 4.453 4.447 4.453z" fill="#fff"/><path d="m64.4796 297.092h-3.336v3.34c.4389.002.8738-.084 1.2796-.251.4058-.168.7744-.414 1.0846-.724.3101-.311.5557-.68.7225-1.086s.2515-.841.2493-1.28zm27.794 3.339v-3.34h-3.335c-.0022.439.0826.874.2494 1.28.1668.405.4123.774.7223 1.085.3101.31.6785.556 1.0841.724.4056.167.8404.253 1.2792.251zm-31.13 10.019v3.34h3.336c.0021-.439-.0827-.874-.2495-1.279-.1668-.406-.4123-.775-.7223-1.086-.3101-.31-.6785-.556-1.0841-.724-.4056-.167-.8404-.252-1.2791-.251zm31.13 0c-.4388-.001-.8736.084-1.2792.251-.4056.168-.774.414-1.0841.724-.31.311-.5555.68-.7223 1.086-.1668.405-.2516.84-.2494 1.279h3.335z" fill="#5a9c4a"/><path d="m56.6968 305.997h-6.115c-.2194.001-.4367-.042-.6394-.126-.2028-.084-.387-.207-.5419-.362-.155-.155-.2777-.339-.3611-.542-.0833-.203-.1257-.421-.1246-.64 0-.927.74-1.67 1.667-1.67h6.115c.927 0 1.668.743 1.668 1.67 0 .928-.741 1.67-1.668 1.67zm-11.673 0h-1.668c-.2195.001-.4369-.042-.6398-.125-.2028-.084-.3871-.207-.5422-.362-.155-.156-.2778-.34-.3613-.543-.0834-.203-.1258-.421-.1247-.64 0-.927.741-1.67 1.668-1.67h1.668c.926 0 1.667.743 1.667 1.67 0 .928-.741 1.67-1.667 1.67z" fill="#bebfc2"/><path d="m109.506 291.526h-7.226c-.22.001-.437-.042-.64-.126-.203-.083-.387-.206-.542-.361-.155-.156-.278-.34-.361-.543-.084-.203-.126-.421-.125-.64 0-.927.741-1.67 1.668-1.67h7.226c.927 0 1.668.743 1.668 1.67 0 .928-.741 1.67-1.668 1.67zm-45.5822-25.603h-7.227c-.2195.001-.4369-.042-.6398-.126-.2028-.083-.3871-.206-.5422-.361-.1551-.156-.2778-.34-.3613-.543-.0834-.203-.1258-.421-.1247-.64 0-.927.742-1.67 1.668-1.67h7.227c.926 0 1.667.743 1.667 1.67 0 .928-.74 1.67-1.667 1.67zm-12.786 0h-1.667c-.2195.001-.4369-.042-.6398-.126-.2028-.083-.3871-.206-.5422-.361-.1551-.156-.2778-.34-.3613-.543-.0834-.203-.1258-.421-.1247-.64 0-.927.741-1.67 1.668-1.67h1.667c.927 0 1.668.743 1.668 1.67 0 .928-.741 1.67-1.668 1.67zm95.6122 3.896h-7.226c-.22.001-.437-.042-.64-.126-.203-.083-.387-.206-.542-.361-.155-.156-.278-.34-.361-.543-.084-.203-.126-.421-.125-.64 0-.927.742-1.669 1.668-1.669h7.226c.927 0 1.668.742 1.668 1.67 0 .927-.741 1.67-1.668 1.67zm-12.229 0h-.556c-.22.001-.437-.042-.64-.126-.203-.083-.387-.206-.542-.361-.155-.156-.278-.34-.361-.543-.084-.203-.126-.421-.125-.64 0-.927.742-1.669 1.668-1.669h.556c.927 0 1.668.742 1.668 1.67 0 .927-.741 1.67-1.668 1.67zm-32.241 8.349h-2.224c-.2196.001-.4369-.042-.6397-.126-.2027-.084-.3869-.207-.5418-.362-.155-.155-.2777-.339-.3611-.542-.0833-.203-.1257-.421-.1246-.64 0-.927.74-1.67 1.6672-1.67h2.224c.926 0 1.667.743 1.667 1.67 0 .928-.74 1.67-1.667 1.67z" fill="#fff"/><path d="m230.01 256.029c-.433-.433-.99-.68-1.545-.68h-61.704c-.439-.001-.874.084-1.279.251-.406.168-.774.414-1.084.724-.31.311-.556.68-.723 1.086-.167.405-.251.84-.249 1.279v63.449c-.002.439.083.874.249 1.28.167.406.413.775.723 1.085.31.311.679.557 1.084.724.406.167.841.253 1.28.251h61.703c.618 0 1.174-.248 1.544-.68.432-.433.68-.99.68-1.546v-65.677c0-.618-.248-1.175-.68-1.546z" fill="#265275"/><path d="m219.015 253.679h-52.253c-.439-.002-.874.084-1.28.251-.405.167-.774.413-1.084.724s-.556.679-.723 1.085c-.166.406-.251.841-.249 1.28v63.45c-.002.439.083.874.249 1.28.167.406.413.775.723 1.085.31.311.679.557 1.084.724.406.167.841.253 1.28.251h52.253c.439.001.873-.084 1.279-.251.406-.168.774-.414 1.084-.724.31-.311.556-.68.722-1.085.167-.406.252-.841.25-1.28v-63.451c.002-.439-.083-.873-.25-1.279s-.412-.775-.722-1.085-.679-.556-1.084-.724c-.406-.167-.84-.252-1.279-.251z" fill="#61a4d9"/><path d="m169.541 255.905h58.924v65.676h-58.924z" fill="#357db7"/><path d="m173.988 316.016v-54.545c0-.618.494-1.113 1.112-1.113h47.806c.618 0 1.112.495 1.112 1.113v54.545c0 .618-.494 1.113-1.112 1.113h-47.806c-.146.001-.291-.028-.427-.084-.135-.055-.258-.137-.361-.241-.103-.103-.185-.226-.241-.361-.056-.136-.084-.281-.083-.427z" fill="#4695d1"/><path d="m230.38 293.753h.617c.655-.002 1.282-.264 1.745-.727.463-.464.724-1.092.726-1.747v-5.07c-.002-.655-.263-1.283-.725-1.746-.463-.464-1.09-.725-1.745-.728h-.618c-.655.003-1.283.264-1.745.728-.463.463-.724 1.091-.725 1.746v5.07c.001.655.262 1.283.725 1.746.462.464 1.09.725 1.745.728z" fill="#7db6e0"/><path d="m230.01 254.359c-.434-.433-.99-.68-1.546-.68h-58.923c-.617 0-1.173.247-1.544.68-.432.433-.68.99-.68 1.546v65.677c0 .618.248 1.175.68 1.546.432.433.988.68 1.544.68h58.924c.618 0 1.174-.247 1.544-.68.432-.433.68-.99.68-1.546v-65.677c0-.618-.248-1.175-.68-1.546zm-5.992 64.996h-50.03c-.293.001-.583-.056-.853-.168-.27-.111-.516-.275-.722-.482-.207-.207-.371-.453-.482-.723-.111-.271-.168-.561-.166-.853v-56.77c0-1.237.988-2.226 2.223-2.226h50.03c1.235 0 2.223.99 2.223 2.226v56.77c.001.292-.056.582-.167.853-.111.27-.275.516-.481.723-.207.207-.453.371-.723.482-.27.112-.56.169-.852.168z" fill="#4695d1"/><path d="m200.67 273.159c-8.585 0-15.564 6.988-15.564 15.585 0 8.596 6.98 15.584 15.565 15.584s15.565-6.988 15.565-15.584c0-8.597-6.98-15.585-15.565-15.585z" fill="#357db7"/><path d="m200.67 277.055c-6.423 0-11.673 5.257-11.673 11.689 0 6.431 5.25 11.688 11.674 11.688h2.779v-23.377z" fill="#fff"/><path d="m188.194 296.226c-.864.495-1.112 1.732-.432 2.536.556.618 1.42.68 2.162.31l4.756-2.722c.803-.433 1.05-1.484.617-2.288-.432-.804-1.482-1.051-2.285-.618zm24.026-13.914c-.864.495-1.111 1.732-.432 2.535.556.619 1.421.68 2.162.31l4.756-2.721c.803-.433 1.05-1.485.618-2.289-.433-.803-1.483-1.05-2.286-.618l-4.817 2.783zm4.818 16.512c.865.495 2.1.124 2.41-.928.246-.742-.124-1.608-.804-2.04l-4.756-2.722c-.387-.213-.841-.267-1.268-.152-.426.116-.791.392-1.017.771-.213.387-.267.842-.152 1.268.115.427.391.792.77 1.02zm-24.026-13.358c.865.495 2.1.124 2.409-.928.247-.742-.124-1.608-.803-2.04l-4.756-2.722c-.387-.213-.841-.267-1.268-.152-.426.116-.791.392-1.017.771-.213.387-.267.842-.152 1.268.115.427.39.792.769 1.02zm12.106 18.738c0 1.051-.927 1.855-1.977 1.608-.803-.186-1.358-.928-1.358-1.732v-5.504c0-.927.74-1.67 1.667-1.67s1.668.743 1.668 1.67zm0-25.912c0 1.052-.927 1.855-1.977 1.608-.803-.185-1.358-.928-1.358-1.731v-5.504c0-.928.74-1.67 1.667-1.67s1.668.742 1.668 1.67z" fill="#7db6e0"/><path d="m203.45 278.725c-.741 0-1.482.124-2.223.247 4.447.99 7.782 5.01 7.782 9.772 0 4.761-3.335 8.72-7.782 9.77.74.186 1.482.248 2.223.248 5.497 0 10.006-4.514 10.006-10.018s-4.509-10.019-10.006-10.019z" fill="#357db7"/><path d="m209.009 288.744c0-4.762-3.335-8.72-7.782-9.772-1.792.433-3.397 1.3-4.633 2.474-1.914 1.855-3.15 4.391-3.15 7.298 0 2.844 1.236 5.442 3.15 7.297 1.287 1.236 2.89 2.092 4.633 2.474 4.447-1.052 7.782-5.01 7.782-9.771z" fill="#265275"/><path d="m203.45 277.055c-6.423 0-11.673 5.257-11.673 11.689 0 6.431 5.25 11.688 11.673 11.688 6.424 0 11.674-5.257 11.674-11.688 0-6.432-5.25-11.689-11.674-11.689zm0 20.037c-4.57 0-8.338-3.772-8.338-8.348 0-4.577 3.768-8.35 8.338-8.35s8.338 3.773 8.338 8.35c0 4.576-3.767 8.348-8.338 8.348z" fill="#7db6e0"/><path d="m181.524 262.028c-3.212 0-5.868 2.473-5.868 5.566 0 3.092 2.594 5.565 5.868 5.565h3.026v-11.13h-3.026z" fill="#fff"/><path d="m184.55 273.16c3.07 0 5.559-2.492 5.559-5.566s-2.489-5.566-5.559-5.566-5.559 2.492-5.559 5.566 2.489 5.566 5.559 5.566z" fill="#7db6e0"/><path d="m164.23 269.263h.617c.655-.003 1.282-.264 1.744-.727.463-.464.724-1.091.726-1.746v-5.072c-.002-.655-.263-1.282-.726-1.746-.462-.463-1.089-.724-1.744-.727h-.617c-.655.003-1.282.264-1.745.727-.463.464-.723 1.091-.725 1.746v5.072c.002.655.262 1.282.725 1.746.463.463 1.09.724 1.745.727zm0 48.979h.617c.655-.003 1.282-.264 1.744-.727.463-.464.724-1.091.726-1.746v-5.071c-.002-.655-.262-1.283-.725-1.746-.463-.464-1.09-.725-1.745-.728h-.617c-.655.003-1.283.264-1.745.728-.463.463-.724 1.091-.725 1.746v5.07c.001.655.262 1.283.725 1.746.462.464 1.09.725 1.745.728z" fill="#7db6e0"/><path d="m161.204 259.801c-.618 0-1.112.495-1.112 1.113v6.68c0 .618.494 1.112 1.112 1.112.617 0 1.111-.494 1.111-1.113v-6.679c0-.618-.494-1.113-1.111-1.113zm0 48.979c-.618 0-1.112.495-1.112 1.113v6.68c0 .618.494 1.112 1.112 1.112.617 0 1.111-.494 1.111-1.113v-6.679c0-.618-.494-1.113-1.111-1.113z" fill="#fff"/><path d="m184.551 264.254c-.309 0-.556.062-.865.124 1.42.37 2.533 1.67 2.533 3.215 0 1.546-1.05 2.845-2.533 3.216.247.062.556.124.865.124.438.001.873-.084 1.279-.251.406-.168.774-.414 1.084-.725.31-.31.556-.679.722-1.085.167-.406.252-.841.25-1.28.002-.439-.083-.873-.25-1.279s-.413-.775-.723-1.085-.678-.556-1.084-.724c-.405-.167-.84-.252-1.278-.251z" fill="#357db7"/><g fill="#265275"><path d="m183.686 270.809c1.398 0 2.532-1.44 2.532-3.216s-1.134-3.216-2.532-3.216c-1.399 0-2.532 1.44-2.532 3.216s1.133 3.216 2.532 3.216z"/><path d="m162.315 252.565c.614 0 1.112-.498 1.112-1.113s-.498-1.113-1.112-1.113c-.615 0-1.112.498-1.112 1.113s.497 1.113 1.112 1.113z"/><path d="m232.357 252.565c.614 0 1.112-.498 1.112-1.113s-.498-1.113-1.112-1.113c-.615 0-1.112.498-1.112 1.113s.497 1.113 1.112 1.113z"/><path d="m162.315 327.147c.614 0 1.112-.498 1.112-1.113s-.498-1.113-1.112-1.113c-.615 0-1.112.498-1.112 1.113s.497 1.113 1.112 1.113z"/></g><path d="m153.421 252.565c.614 0 1.112-.498 1.112-1.113s-.498-1.113-1.112-1.113c-.615 0-1.112.498-1.112 1.113s.497 1.113 1.112 1.113z" fill="#357db7"/><path d="m100.612 252.565c.614 0 1.112-.498 1.112-1.113s-.498-1.113-1.112-1.113c-.6144 0-1.1122.498-1.1122 1.113s.4978 1.113 1.1122 1.113z" fill="#357db7"/><path d="m232.357 327.147c.614 0 1.112-.498 1.112-1.113s-.498-1.113-1.112-1.113c-.615 0-1.112.498-1.112 1.113s.497 1.113 1.112 1.113z" fill="#265275"/><g mask="url(#l)"><g filter="url(#e)"><rect fill="#fff" height="123.689" rx="3.37947" width="209.527" x="54.9189" y="-38.2655"/><g fill="#888"><path d="m100.872 73.8106c.933 0 1.696-.3975 2.223-.9895v-2.0196h-2.563v.8354h1.622v.8354c-.243.2352-.73.4866-1.282.4866-1.0702 0-1.865-.8273-1.865-1.9546 0-1.1437.7948-1.9547 1.865-1.9547.601 0 1.112.3163 1.404.7218l.77-.4461c-.43-.6164-1.119-1.1192-2.174-1.1192-1.573 0-2.8383 1.0949-2.8383 2.7982 0 1.6951 1.2653 2.8063 2.8383 2.8063z"/><path d="m109.121 73.7051-1.33-2.125c.657-.1054 1.289-.6326 1.289-1.5897 0-1.0057-.705-1.6951-1.776-1.6951h-2.376v5.4098h.948v-2.0195h.949l1.193 2.0195zm-1.939-2.8549h-1.306v-1.7195h1.306c.536 0 .925.3325.925.8516 0 .5272-.389.8679-.925.8679z"/><path d="m115.748 73.7051-2.125-5.4098h-1.184l-2.125 5.4098h1.078l.398-1.0463h2.482l.397 1.0463zm-1.744-1.8817h-1.947l.974-2.5792z"/><path d="m119.195 73.7051c1.687 0 2.823-1.1111 2.823-2.709 0-1.5815-1.136-2.7008-2.831-2.7008h-2.012v5.4098zm-.008-.8354h-1.063v-3.739h1.071c1.2 0 1.849.8273 1.849 1.8654 0 1.0301-.681 1.8736-1.857 1.8736z"/><path d="m127.485 73.7051v-.8354h-2.757v-1.5086h2.7v-.8354h-2.7v-1.395h2.757v-.8354h-3.706v5.4098z"/><path d="m135.947 73.7051v-.8354h-2.758v-1.5086h2.701v-.8354h-2.701v-1.395h2.758v-.8354h-3.706v5.4098z"/><path d="m142.454 73.7051v-5.4098h-.948v3.7471l-2.766-3.7471h-.974v5.4098h.949v-3.8688l2.823 3.8688z"/><path d="m149.161 73.7051v-5.4098h-.949v2.2061h-2.814v-2.2061h-.949v5.4098h.949v-2.3683h2.814v2.3683z"/><path d="m156.03 73.7051-2.125-5.4098h-1.185l-2.125 5.4098h1.079l.398-1.0463h2.481l.398 1.0463zm-1.744-1.8817h-1.947l.973-2.5792z"/><path d="m162.145 73.7051v-5.4098h-.949v3.7471l-2.766-3.7471h-.973v5.4098h.949v-3.8688l2.823 3.8688z"/><path d="m166.743 73.8025c1.087 0 1.76-.5759 2.174-1.2248l-.811-.4055c-.26.4461-.787.7867-1.363.7867-1.071 0-1.865-.8273-1.865-1.9546 0-1.1437.794-1.9547 1.865-1.9547.576 0 1.103.3325 1.363.7867l.803-.4217c-.398-.6489-1.079-1.2085-2.166-1.2085-1.598 0-2.839 1.1273-2.839 2.7982 0 1.6627 1.241 2.7982 2.839 2.7982z"/><path d="m174.22 73.7051v-.8354h-2.758v-1.5086h2.701v-.8354h-2.701v-1.395h2.758v-.8354h-3.707v5.4098z"/><path d="m178.059 73.7051c1.687 0 2.822-1.1111 2.822-2.709 0-1.5815-1.135-2.7008-2.831-2.7008h-2.011v5.4098zm-.009-.8354h-1.062v-3.739h1.071c1.2 0 1.849.8273 1.849 1.8654 0 1.0301-.681 1.8736-1.858 1.8736z"/><path d="m186.527 73.7051v-2.344h2.701v-.8354h-2.701v-1.395h2.758v-.8354h-3.707v5.4098z"/><path d="m195.186 73.7051-1.33-2.125c.657-.1054 1.29-.6326 1.29-1.5897 0-1.0057-.706-1.6951-1.776-1.6951h-2.377v5.4098h.949v-2.0195h.949l1.192 2.0195zm-1.938-2.8549h-1.306v-1.7195h1.306c.535 0 .925.3325.925.8516 0 .5272-.39.8679-.925.8679z"/><path d="m199.469 73.8025c1.615 0 2.766-1.1842 2.766-2.7982 0-1.6141-1.151-2.7982-2.766-2.7982-1.622 0-2.765 1.1841-2.765 2.7982 0 1.614 1.143 2.7982 2.765 2.7982zm0-.8436c-1.094 0-1.792-.8435-1.792-1.9546 0-1.1193.698-1.9547 1.792-1.9547 1.087 0 1.793.8354 1.793 1.9547 0 1.1111-.706 1.9546-1.793 1.9546z"/><path d="m209.606 73.7051v-5.4098h-1.338l-1.468 3.7147-1.476-3.7147h-1.338v5.4098h.949v-4.177l1.662 4.177h.406l1.654-4.177v4.177z"/></g><path clip-rule="evenodd" d="m214.542 70.5c0-3.2907 2.667-5.9583 5.958-5.9583 1.58 0 3.096.6277 4.213 1.7451 1.118 1.1174 1.745 2.6329 1.745 4.2132 0 3.2907-2.667 5.9583-5.958 5.9583s-5.958-2.6676-5.958-5.9583zm7.383.7746c-.199.4638-.65.7695-1.154.7827-.407.0004-.797-.1658-1.078-.46-.281-.2941-.43-.6907-.412-1.0973-.02-.4071.128-.8045.41-1.099.282-.2946.672-.4603 1.08-.4583.508.009.964.3153 1.164.7827l1.195-.5796c-.426-.9081-1.357-1.471-2.359-1.4273-1.641 0-2.912 1.1294-2.912 2.7815s1.26 2.7814 2.912 2.7814c1 .0278 1.921-.5387 2.348-1.4435z" fill="url(#h)" fill-rule="evenodd"/><path d="m117.759 58.1161c1.334 0 2.142-.5926 2.573-1.1853l-1.118-1.0506c-.31.4445-.782.7139-1.374.7139-1.037 0-1.765-.7678-1.765-1.8992 0-1.1315.728-1.8858 1.765-1.8858.592 0 1.064.2425 1.374.7004l1.118-1.0506c-.431-.5927-1.239-1.1718-2.573-1.1718-1.993 0-3.448 1.4143-3.448 3.4078 0 2.0069 1.455 3.4212 3.448 3.4212z" fill="#333"/><path d="m123.161 57.9545v-4.2968c.283-.4176 1.037-.7408 1.603-.7408.202 0 .35.0134.471.0404v-1.6702c-.808 0-1.603.4714-2.074 1.0371v-.8755h-1.711v6.5058z" fill="#333"/><path d="m129.361 58.1161c1.011 0 2.034-.3098 2.681-.9024l-.768-1.1315c-.417.4041-1.172.6331-1.724.6331-1.105 0-1.751-.66-1.872-1.4547h4.835v-.4041c0-2.1147-1.306-3.5694-3.259-3.5694-1.967 0-3.368 1.522-3.368 3.4078 0 2.0878 1.495 3.4212 3.475 3.4212zm1.509-4.0408h-3.206c.068-.6466.526-1.3874 1.59-1.3874 1.131 0 1.562.7678 1.616 1.3874z" fill="#333"/><path d="m136.807 58.1161c1.01 0 2.033-.3098 2.68-.9024l-.768-1.1315c-.417.4041-1.172.6331-1.724.6331-1.104 0-1.751-.66-1.872-1.4547h4.835v-.4041c0-2.1147-1.306-3.5694-3.259-3.5694-1.967 0-3.368 1.522-3.368 3.4078 0 2.0878 1.495 3.4212 3.476 3.4212zm1.508-4.0408h-3.206c.068-.6466.526-1.3874 1.59-1.3874 1.131 0 1.562.7678 1.616 1.3874z" fill="#333"/><path d="m144.912 58.1161c1.67 0 2.882-1.2526 2.882-3.4212s-1.212-3.4078-2.882-3.4078c-.795 0-1.509.3502-2.007.9832v-.8216h-1.711v8.9842h1.711v-3.3135c.538.6735 1.239.9967 2.007.9967zm-.539-1.522c-.552 0-1.185-.3368-1.468-.7543v-2.2899c.296-.431.916-.7408 1.468-.7408.983 0 1.657.7678 1.657 1.8858 0 1.1314-.674 1.8992-1.657 1.8992z" fill="#333"/><path d="m148.831 60.4868c.202.0673.647.1078.836.1078 1.117-.027 1.98-.3503 2.464-1.576l3.058-7.5699h-1.832l-1.71 4.5258-1.698-4.5258h-1.831l2.64 6.5866-.243.5657c-.162.3503-.458.4715-.902.4715-.162 0-.391-.0404-.539-.1078z" fill="#333"/><path d="m158.296 58.1161c1.805 0 2.829-.8755 2.829-2.0743 0-2.6266-3.866-1.8184-3.866-2.7747 0-.3637.404-.6331 1.024-.6331.795 0 1.535.3502 1.926.7543l.687-1.2123c-.646-.5118-1.522-.8889-2.613-.8889-1.724 0-2.667.9563-2.667 2.0473 0 2.5593 3.852 1.6837 3.852 2.7478 0 .4041-.35.687-1.091.687-.808 0-1.764-.4445-2.249-.9025l-.741 1.2392c.687.6331 1.778 1.0102 2.909 1.0102z" fill="#333"/><path d="m163.22 50.7483c.566 0 1.024-.458 1.024-1.0237s-.458-1.0102-1.024-1.0102c-.552 0-1.01.4445-1.01 1.0102s.458 1.0237 1.01 1.0237zm.862 7.2062v-6.5058h-1.71v6.5058z" fill="#333"/><path d="m167.961 58.1161c.714 0 1.172-.1885 1.428-.4175l-.364-1.3066c-.094.1078-.337.2021-.593.2021-.377 0-.592-.3098-.592-.7274v-2.9229h1.32v-1.4951h-1.32v-1.778h-1.711v1.778h-1.078v1.4951h1.078v3.3809c0 1.1718.633 1.7914 1.832 1.7914z" fill="#333"/><path d="m173.388 58.1161c1.01 0 2.033-.3098 2.68-.9024l-.768-1.1315c-.417.4041-1.172.6331-1.724.6331-1.104 0-1.751-.66-1.872-1.4547h4.835v-.4041c0-2.1147-1.306-3.5694-3.259-3.5694-1.967 0-3.368 1.522-3.368 3.4078 0 2.0878 1.496 3.4212 3.476 3.4212zm1.508-4.0408h-3.206c.068-.6466.526-1.3874 1.59-1.3874 1.131 0 1.562.7678 1.616 1.3874z" fill="#333"/><path d="m178.598 58.1027c.593 0 1.091-.4984 1.091-1.0911 0-.5926-.498-1.091-1.091-1.091s-1.091.4984-1.091 1.091c0 .5927.498 1.0911 1.091 1.0911z" fill="#333"/><path d="m184.16 58.1161c1.333 0 2.142-.5926 2.573-1.1853l-1.118-1.0506c-.31.4445-.782.7139-1.374.7139-1.037 0-1.765-.7678-1.765-1.8992 0-1.1315.728-1.8858 1.765-1.8858.592 0 1.064.2425 1.374.7004l1.118-1.0506c-.431-.5927-1.24-1.1718-2.573-1.1718-1.994 0-3.448 1.4143-3.448 3.4078 0 2.0069 1.454 3.4212 3.448 3.4212z" fill="#333"/><path d="m190.868 58.1161c2.155 0 3.448-1.5759 3.448-3.4212 0-1.8454-1.293-3.4078-3.448-3.4078-2.142 0-3.435 1.5624-3.435 3.4078 0 1.8453 1.293 3.4212 3.435 3.4212zm0-1.522c-1.064 0-1.657-.8755-1.657-1.8992 0-1.0103.593-1.8858 1.657-1.8858 1.078 0 1.67.8755 1.67 1.8858 0 1.0237-.592 1.8992-1.67 1.8992z" fill="#333"/><path d="m205.391 57.9545v-4.7009c0-1.3335-.714-1.9665-1.913-1.9665-.996 0-1.858.5926-2.236 1.1718-.229-.7274-.848-1.1718-1.805-1.1718-.996 0-1.845.6196-2.128.9967v-.8351h-1.71v6.5058h1.71v-4.3911c.256-.3502.755-.7543 1.347-.7543.701 0 .97.431.97 1.0372v4.1082h1.724v-4.3911c.243-.3502.741-.7543 1.347-.7543.701 0 .97.431.97 1.0372v4.1082z" fill="#333"/><path d="m159.564 39.4531c18.763 0 33.974-15.3174 33.974-34.2125s-15.211-34.2125-33.974-34.2125c-18.764 0-33.975 15.3174-33.975 34.2125s15.211 34.2125 33.975 34.2125z" fill="#999" fill-opacity=".25"/><path d="m159.564-28.9719c-4.536-.0056-9.026.9058-13.204 2.6801h.508c15.062-.0021 28.553 9.3824 33.881 23.56833 5.329 14.18597 1.384 30.21227-9.909 40.24867 15.628-5.5287 25.02-21.5992 22.231-38.041046-2.788-16.441854-16.943-28.463154-33.507-28.456054z" fill="#333" fill-opacity=".15"/><path d="m193.477 5.86282c.013-8.67392-3.365-17.00232-9.399-23.17552h-56.074c-1.169 0-2.116.9568-2.116 2.1371v38.3858c0 1.8834 1.512 3.4102 3.377 3.4102h56.947c4.712-5.8709 7.277-13.201 7.265-20.75758z" fill="#fff"/><path d="m170.401 17.4623h-18.562c-.292.0009-.572-.1158-.778-.3241-.207-.2084-.322-.491-.32-.7852-.002-.2942.113-.5769.32-.7852.206-.2083.486-.325.778-.3241h18.562c.292-.0009.573.1157.78.3239.207.2083.322.4909.322.7854-.018.605-.501 1.0912-1.102 1.1093z" fill="#999" fill-opacity=".25"/><path d="m181.103 17.4623h-7.002c-.292.0009-.572-.1158-.779-.3241-.206-.2084-.321-.491-.319-.7852-.002-.2942.113-.5769.319-.7852.207-.2083.487-.325.779-.3241h7.002c.293-.0009.573.1157.78.3239.207.2083.323.4909.322.7854.001.2945-.115.5771-.322.7853-.207.2083-.487.3249-.78.324z" fill="#dee2ea"/><path d="m158.842 21.9123h-7.003c-.292.0009-.572-.1158-.778-.3242-.207-.2083-.322-.4909-.32-.7851-.002-.2942.113-.5769.32-.7852.206-.2083.486-.325.778-.3242h7.003c.292-.0008.573.1158.78.324.206.2083.322.4909.321.7854.001.2945-.115.5771-.321.7853-.207.2083-.488.3249-.78.324z" fill="#999" fill-opacity=".25"/><path d="m172.758 21.9123h-7.005c-.292.0009-.573-.1158-.779-.3242-.206-.2083-.321-.4909-.32-.7851-.001-.2942.114-.5769.32-.7852s.487-.325.779-.3242h7.005c.292-.0008.573.1159.779.3242s.321.491.32.7852c-.017.6045-.499 1.0911-1.099 1.1093z" fill="#999" fill-opacity=".25"/><path d="m162.297 21.8965c.609 0 1.102-.4967 1.102-1.1093 0-.6127-.493-1.1094-1.102-1.1094-.608 0-1.101.4967-1.101 1.1094 0 .6126.493 1.1093 1.101 1.1093z" fill="#999" fill-opacity=".25"/><path d="m179.575 21.8965c.608 0 1.102-.4967 1.102-1.1093 0-.6127-.494-1.1094-1.102-1.1094s-1.102.4967-1.102 1.1094c0 .6126.494 1.1093 1.102 1.1093z" fill="#dee2ea"/><path d="m176.396 21.8965c.608 0 1.101-.4967 1.101-1.1093 0-.6127-.493-1.1094-1.101-1.1094-.609 0-1.102.4967-1.102 1.1094 0 .6126.493 1.1093 1.102 1.1093z" fill="#dee2ea"/><path d="m183.247 21.9123h5.998c.399-.7206.773-1.458 1.12-2.2123-.037 0-.078 0-.116 0h-7.002c-.574.0437-1.018.5259-1.018 1.1061s.444 1.0624 1.018 1.1062z" fill="#dee2ea"/><path d="m146.582 26.7289h-19.772c-1.894-.0086-3.427-1.5511-3.437-3.4576v-36.8199h23.225z" fill="#3fa140"/><path d="m139.822 15.2753h-10.825c-.52 0-.942-.4245-.942-.9482 0-.5236.422-.9481.942-.9481h10.825c.52 0 .941.4245.941.9481 0 .5237-.421.9482-.941.9482z" fill="#fff" opacity=".59"/><path d="m137.069 19.8643h-8.072c-.52 0-.942-.4245-.942-.9481 0-.5237.422-.9482.942-.9482h8.072c.52 0 .942.4245.942.9482 0 .5236-.422.9481-.942.9481z" fill="#fff" opacity=".59"/><path d="m139.822 19.8643c-.52 0-.942-.4245-.942-.9481 0-.5237.422-.9482.942-.9482s.942.4245.942.9482c0 .5236-.422.9481-.942.9481z" fill="#fff" opacity=".59"/><path d="m180.444 23.9685c12.832 0 23.234-10.4746 23.234-23.395759 0-12.921141-10.402-23.395741-23.234-23.395741-12.831 0-23.233 10.4746-23.233 23.395741 0 12.921159 10.402 23.395759 23.233 23.395759z" fill="#4c863e"/><path d="m181.42 22.3516c13.039 0 23.609-10.6437 23.609-23.77334 0-13.12966-10.57-23.77336-23.609-23.77336-13.038 0-23.608 10.6437-23.608 23.77336 0 13.12964 10.57 23.77334 23.608 23.77334z" fill="#3fa140"/></g></g></svg>