<svg fill="none" height="336" viewBox="0 0 301 336" width="301" xmlns="http://www.w3.org/2000/svg" xmlns:xlink="http://www.w3.org/1999/xlink"><filter id="a" color-interpolation-filters="sRGB" filterUnits="userSpaceOnUse" height="136.367" width="227.689" x="36.6117" y="55.9227"><feFlood flood-opacity="0" result="BackgroundImageFix"/><feColorMatrix in="SourceAlpha" type="matrix" values="0 0 0 0 0 0 0 0 0 0 0 0 0 0 0 0 0 0 127 0"/><feOffset/><feGaussianBlur stdDeviation="1.19417"/><feColorMatrix type="matrix" values="0 0 0 0 0 0 0 0 0 0 0 0 0 0 0 0 0 0 0.1 0"/><feBlend in2="BackgroundImageFix" mode="normal" result="effect1_dropShadow"/><feBlend in="SourceGraphic" in2="effect1_dropShadow" mode="normal" result="shape"/></filter><filter id="b" color-interpolation-filters="sRGB" filterUnits="userSpaceOnUse" height="64.4854" width="291.379" x="4.98058" y=".407913"><feFlood flood-opacity="0" result="BackgroundImageFix"/><feColorMatrix in="SourceAlpha" type="matrix" values="0 0 0 0 0 0 0 0 0 0 0 0 0 0 0 0 0 0 127 0"/><feOffset dy="4.7767"/><feGaussianBlur stdDeviation="9.15534"/><feColorMatrix type="matrix" values="0 0 0 0 0 0 0 0 0 0 0 0 0 0 0 0 0 0 0.16 0"/><feBlend in2="BackgroundImageFix" mode="normal" result="effect1_dropShadow"/><feBlend in="SourceGraphic" in2="effect1_dropShadow" mode="normal" result="shape"/></filter><filter id="c" color-interpolation-filters="sRGB" filterUnits="userSpaceOnUse" height="42.9646" width="283.726" x="8.40904" y="6.51964"><feFlood flood-opacity="0" result="BackgroundImageFix"/><feColorMatrix in="SourceAlpha" type="matrix" values="0 0 0 0 0 0 0 0 0 0 0 0 0 0 0 0 0 0 127 0"/><feOffset/><feGaussianBlur stdDeviation="1.59223"/><feColorMatrix type="matrix" values="0 0 0 0 0 0 0 0 0 0 0 0 0 0 0 0 0 0 0.15 0"/><feBlend in2="BackgroundImageFix" mode="normal" result="effect1_dropShadow"/><feBlend in="SourceGraphic" in2="effect1_dropShadow" mode="normal" result="shape"/></filter><filter id="d" color-interpolation-filters="sRGB" filterUnits="userSpaceOnUse" height="222.04" width="227.795" x="36.6117" y="199.194"><feFlood flood-opacity="0" result="BackgroundImageFix"/><feColorMatrix in="SourceAlpha" type="matrix" values="0 0 0 0 0 0 0 0 0 0 0 0 0 0 0 0 0 0 127 0"/><feOffset/><feGaussianBlur stdDeviation="1.19417"/><feColorMatrix type="matrix" values="0 0 0 0 0 0 0 0 0 0 0 0 0 0 0 0 0 0 0.1 0"/><feBlend in2="BackgroundImageFix" mode="normal" result="effect1_dropShadow"/><feBlend in="SourceGraphic" in2="effect1_dropShadow" mode="normal" result="shape"/></filter><radialGradient id="e" cx="0" cy="0" gradientTransform="matrix(0 -12.6347 12.6347 0 214.5 180.26)" gradientUnits="userSpaceOnUse" r="1"><stop offset="0" stop-color="#f6b151"/><stop offset="1" stop-color="#e09d40"/></radialGradient><linearGradient id="f"><stop offset=".01" stop-color="#6176b9"/><stop offset=".69" stop-color="#394a9f"/></linearGradient><linearGradient id="g" gradientUnits="userSpaceOnUse" x1="25.7083" x2="27.2216" xlink:href="#f" y1="24.8968" y2="24.8968"/><linearGradient id="h" gradientUnits="userSpaceOnUse" x1="30.4673" x2="31.8464" xlink:href="#f" y1="24.2082" y2="24.2082"/><linearGradient id="i" gradientUnits="userSpaceOnUse" x1="147.884" x2="147.884" y1="63.7283" y2="253.204"><stop offset="0" stop-color="#c4c4c4"/><stop offset="1" stop-color="#c4c4c4" stop-opacity="0"/></linearGradient><clipPath id="j"><path d="m39 201.582h223.018v37.4095h-223.018z"/></clipPath><clipPath id="k"><path d="m77 186.798h140.854v149.201h-140.854z"/></clipPath><mask id="l" height="18" maskUnits="userSpaceOnUse" width="10" x="24" y="20"><path clip-rule="evenodd" d="m33.802 36.764c-1.2065.5598-2.5485.8722-3.9626.8722-1.979 0-3.8183-.6134-5.3418-1.6633v-15.4102h9.3044z" fill="#fff" fill-rule="evenodd"/></mask><mask id="m" height="18" maskUnits="userSpaceOnUse" width="11" x="24" y="20"><path clip-rule="evenodd" d="m34.211 36.5635c-1.309.6858-2.7951 1.0736-4.3707 1.0736-1.8249 0-3.531-.5216-4.9802-1.4259v-15.7034h9.3509z" fill="#fff" fill-rule="evenodd"/></mask><mask id="n" height="19" maskUnits="userSpaceOnUse" width="19" x="20" y="18"><path clip-rule="evenodd" d="m29.5949 36.7773c5.0713 0 9.1824-4.1111 9.1824-9.1824 0-5.0712-4.1111-9.1823-9.1824-9.1823-5.0712 0-9.1823 4.1111-9.1823 9.1823 0 5.0713 4.1111 9.1824 9.1823 9.1824z" fill="#fff" fill-rule="evenodd"/></mask><mask id="o" height="191" maskUnits="userSpaceOnUse" width="240" x="28" y="63"><path d="m28.0681 63.7283h239.6309v189.4757h-239.6309z" fill="url(#i)"/></mask><g filter="url(#a)" opacity=".7"><rect fill="#fff" height="131.59" rx="3.59536" width="222.913" x="39" y="58.311"/><g fill="#888"><path d="m87.889 178.164c.9923 0 1.8034-.423 2.3643-1.053v-2.149h-2.7267v.889h1.7258v.889c-.2589.25-.7766.518-1.3634.518-1.139 0-1.9846-.88-1.9846-2.08 0-1.217.8456-2.079 1.9846-2.079.6385 0 1.1822.336 1.4928.768l.8197-.475c-.4573-.656-1.1907-1.191-2.3125-1.191-1.674 0-3.0201 1.165-3.0201 2.977 0 1.804 1.3461 2.986 3.0201 2.986z"/><path d="m96.6643 178.052-1.4152-2.261c.699-.112 1.372-.673 1.372-1.691 0-1.07-.7507-1.804-1.8897-1.804h-2.5283v5.756h1.0096v-2.149h1.0096l1.2684 2.149zm-2.0623-3.038h-1.3893v-1.829h1.3893c.5695 0 .9836.354.9836.906 0 .561-.4141.923-.9836.923z"/><path d="m103.715 178.052-2.261-5.756h-1.26l-2.2607 5.756h1.1477l.4228-1.114h2.6402l.423 1.114zm-1.856-2.002h-2.0705l1.0355-2.744z"/><path d="m107.382 178.052c1.795 0 3.003-1.183 3.003-2.882 0-1.683-1.208-2.874-3.012-2.874h-2.139v5.756zm-.009-.889h-1.13v-3.978h1.139c1.277 0 1.967.88 1.967 1.985 0 1.095-.724 1.993-1.976 1.993z"/><path d="m116.202 178.052v-.889h-2.934v-1.605h2.874v-.889h-2.874v-1.484h2.934v-.889h-3.943v5.756z"/><path d="m125.204 178.052v-.889h-2.933v-1.605h2.873v-.889h-2.873v-1.484h2.933v-.889h-3.943v5.756z"/><path d="m132.127 178.052v-5.756h-1.009v3.987l-2.943-3.987h-1.035v5.756h1.01v-4.116l3.002 4.116z"/><path d="m139.263 178.052v-5.756h-1.01v2.347h-2.994v-2.347h-1.01v5.756h1.01v-2.52h2.994v2.52z"/><path d="m146.57 178.052-2.261-5.756h-1.26l-2.261 5.756h1.148l.423-1.114h2.64l.423 1.114zm-1.855-2.002h-2.071l1.035-2.744z"/><path d="m153.076 178.052v-5.756h-1.01v3.987l-2.942-3.987h-1.035v5.756h1.009v-4.116l3.003 4.116z"/><path d="m157.968 178.155c1.156 0 1.872-.613 2.312-1.303l-.863-.431c-.276.474-.837.837-1.449.837-1.139 0-1.985-.88-1.985-2.08 0-1.217.846-2.079 1.985-2.079.612 0 1.173.353 1.449.837l.855-.449c-.423-.69-1.148-1.286-2.304-1.286-1.7 0-3.02 1.2-3.02 2.977 0 1.769 1.32 2.977 3.02 2.977z"/><path d="m165.922 178.052v-.889h-2.934v-1.605h2.873v-.889h-2.873v-1.484h2.934v-.889h-3.944v5.756z"/><path d="m170.006 178.052c1.795 0 3.003-1.183 3.003-2.882 0-1.683-1.208-2.874-3.012-2.874h-2.14v5.756zm-.009-.889h-1.13v-3.978h1.139c1.277 0 1.967.88 1.967 1.985 0 1.095-.724 1.993-1.976 1.993z"/><path d="m179.016 178.052v-2.494h2.873v-.889h-2.873v-1.484h2.933v-.889h-3.943v5.756z"/><path d="m188.228 178.052-1.415-2.261c.699-.112 1.372-.673 1.372-1.691 0-1.07-.751-1.804-1.89-1.804h-2.528v5.756h1.01v-2.149h1.009l1.269 2.149zm-2.062-3.038h-1.389v-1.829h1.389c.569 0 .983.354.983.906 0 .561-.414.923-.983.923z"/><path d="m192.785 178.155c1.717 0 2.942-1.26 2.942-2.977s-1.225-2.977-2.942-2.977c-1.726 0-2.943 1.26-2.943 2.977s1.217 2.977 2.943 2.977zm0-.897c-1.165 0-1.907-.898-1.907-2.08 0-1.191.742-2.079 1.907-2.079 1.156 0 1.907.888 1.907 2.079 0 1.182-.751 2.08-1.907 2.08z"/><path d="m203.569 178.052v-5.756h-1.423l-1.562 3.952-1.571-3.952h-1.424v5.756h1.01v-4.444l1.769 4.444h.431l1.761-4.444v4.444z"/></g><path clip-rule="evenodd" d="m207.625 174.5c0-3.797 3.078-6.875 6.875-6.875 1.823 0 3.572.724 4.861 2.014 1.29 1.289 2.014 3.038 2.014 4.861 0 3.797-3.078 6.875-6.875 6.875s-6.875-3.078-6.875-6.875zm8.519.894c-.23.535-.749.888-1.332.903-.469 0-.919-.191-1.243-.531-.325-.339-.497-.797-.475-1.266-.023-.47.148-.928.473-1.268s.775-.531 1.245-.529c.587.01 1.113.364 1.344.903l1.378-.668c-.492-1.048-1.565-1.698-2.722-1.647-1.893 0-3.359 1.303-3.359 3.209s1.453 3.209 3.359 3.209c1.154.032 2.218-.621 2.71-1.665z" fill="url(#e)" fill-rule="evenodd"/><path d="m105.855 161.211c1.418 0 2.278-.631 2.737-1.261l-1.19-1.118c-.329.473-.831.76-1.461.76-1.104 0-1.877-.817-1.877-2.021s.773-2.006 1.877-2.006c.63 0 1.132.258 1.461.745l1.19-1.118c-.459-.63-1.319-1.246-2.737-1.246-2.121 0-3.669 1.504-3.669 3.625 0 2.135 1.548 3.64 3.669 3.64z" fill="#333"/><path d="m111.601 161.039v-4.571c.301-.445 1.104-.789 1.706-.789.215 0 .372.015.501.043v-1.776c-.859 0-1.705.501-2.207 1.103v-.931h-1.819v6.921z" fill="#333"/><path d="m118.198 161.211c1.075 0 2.164-.33 2.852-.96l-.817-1.204c-.444.43-1.246.674-1.834.674-1.175 0-1.863-.703-1.992-1.548h5.145v-.43c0-2.25-1.39-3.797-3.468-3.797-2.092 0-3.583 1.619-3.583 3.625 0 2.221 1.591 3.64 3.697 3.64zm1.605-4.299h-3.41c.071-.688.559-1.476 1.691-1.476 1.203 0 1.662.817 1.719 1.476z" fill="#333"/><path d="m126.119 161.211c1.075 0 2.164-.33 2.852-.96l-.817-1.204c-.444.43-1.247.674-1.834.674-1.175 0-1.863-.703-1.992-1.548h5.144v-.43c0-2.25-1.39-3.797-3.468-3.797-2.092 0-3.582 1.619-3.582 3.625 0 2.221 1.591 3.64 3.697 3.64zm1.605-4.299h-3.41c.071-.688.558-1.476 1.69-1.476 1.204 0 1.663.817 1.72 1.476z" fill="#333"/><path d="m134.742 161.211c1.777 0 3.067-1.333 3.067-3.64s-1.29-3.625-3.067-3.625c-.845 0-1.605.372-2.135 1.046v-.874h-1.82v9.558h1.82v-3.526c.573.717 1.318 1.061 2.135 1.061zm-.573-1.619c-.588 0-1.261-.359-1.562-.803v-2.436c.315-.459.974-.788 1.562-.788 1.046 0 1.762.817 1.762 2.006 0 1.204-.716 2.021-1.762 2.021z" fill="#333"/><path d="m138.912 163.733c.215.072.688.115.889.115 1.189-.029 2.106-.373 2.622-1.677l3.253-8.053h-1.949l-1.82 4.814-1.805-4.814h-1.949l2.808 7.007-.258.602c-.172.372-.487.501-.96.501-.172 0-.415-.043-.573-.114z" fill="#333"/><path d="m148.982 161.211c1.92 0 3.009-.932 3.009-2.207 0-2.794-4.113-1.934-4.113-2.952 0-.387.43-.673 1.09-.673.845 0 1.633.372 2.049.802l.731-1.29c-.688-.544-1.62-.945-2.78-.945-1.835 0-2.838 1.017-2.838 2.178 0 2.722 4.099 1.791 4.099 2.923 0 .43-.373.731-1.161.731-.86 0-1.877-.473-2.393-.96l-.788 1.318c.73.674 1.891 1.075 3.095 1.075z" fill="#333"/><path d="m154.22 153.372c.602 0 1.09-.487 1.09-1.089s-.488-1.075-1.09-1.075c-.587 0-1.074.473-1.074 1.075s.487 1.089 1.074 1.089zm.918 7.667v-6.921h-1.82v6.921z" fill="#333"/><path d="m159.264 161.211c.759 0 1.246-.201 1.519-.444l-.387-1.39c-.101.114-.359.215-.631.215-.401 0-.63-.33-.63-.774v-3.11h1.404v-1.59h-1.404v-1.892h-1.82v1.892h-1.147v1.59h1.147v3.597c0 1.247.673 1.906 1.949 1.906z" fill="#333"/><path d="m165.037 161.211c1.075 0 2.164-.33 2.852-.96l-.817-1.204c-.444.43-1.247.674-1.834.674-1.175 0-1.863-.703-1.992-1.548h5.144v-.43c0-2.25-1.39-3.797-3.468-3.797-2.092 0-3.582 1.619-3.582 3.625 0 2.221 1.591 3.64 3.697 3.64zm1.605-4.299h-3.411c.072-.688.559-1.476 1.691-1.476 1.204 0 1.663.817 1.72 1.476z" fill="#333"/><path d="m170.58 161.197c.631 0 1.161-.531 1.161-1.161 0-.631-.53-1.161-1.161-1.161-.63 0-1.16.53-1.16 1.161 0 .63.53 1.161 1.16 1.161z" fill="#333"/><path d="m176.498 161.211c1.418 0 2.278-.631 2.737-1.261l-1.19-1.118c-.329.473-.831.76-1.461.76-1.104 0-1.878-.817-1.878-2.021s.774-2.006 1.878-2.006c.63 0 1.132.258 1.461.745l1.19-1.118c-.459-.63-1.319-1.246-2.737-1.246-2.121 0-3.669 1.504-3.669 3.625 0 2.135 1.548 3.64 3.669 3.64z" fill="#333"/><path d="m183.634 161.211c2.293 0 3.669-1.677 3.669-3.64s-1.376-3.625-3.669-3.625c-2.278 0-3.654 1.662-3.654 3.625s1.376 3.64 3.654 3.64zm0-1.619c-1.132 0-1.762-.932-1.762-2.021 0-1.075.63-2.006 1.762-2.006 1.147 0 1.777.931 1.777 2.006 0 1.089-.63 2.021-1.777 2.021z" fill="#333"/><path d="m199.085 161.039v-5.001c0-1.419-.759-2.092-2.035-2.092-1.06 0-1.977.63-2.379 1.246-.243-.774-.902-1.246-1.92-1.246-1.06 0-1.963.659-2.264 1.06v-.888h-1.82v6.921h1.82v-4.672c.272-.372.802-.802 1.433-.802.745 0 1.032.458 1.032 1.103v4.371h1.834v-4.672c.258-.372.788-.802 1.433-.802.745 0 1.032.458 1.032 1.103v4.371z" fill="#333"/><path d="m150.329 140.995c19.963 0 36.146-16.296 36.146-36.399 0-20.1018-16.183-36.3978-36.146-36.3978-19.962 0-36.145 16.296-36.145 36.3978 0 20.103 16.183 36.399 36.145 36.399z" fill="#999" fill-opacity=".25"/><path d="m150.33 68.1983c-4.825-.006-9.602.9636-14.048 2.8513h.541c16.024-.0022 30.377 9.9817 36.046 25.0739 5.669 15.0925 1.472 32.1425-10.542 42.8195 16.626-5.881 26.617-22.979 23.651-40.4708-2.966-17.4922-18.026-30.2815-35.648-30.2739z" fill="#333" fill-opacity=".15"/><path d="m186.41 105.258c.013-9.2276-3.581-18.0881-10-24.6557h-59.656c-1.243 0-2.251 1.0179-2.251 2.2736v40.8381c0 2.004 1.608 3.628 3.592 3.628h60.586c5.012-6.246 7.741-14.044 7.729-22.084z" fill="#fff"/><path d="m176.127 79.106h-62.02c-.605-.0009-1.185.2407-1.613.6716s-.668 1.0155-.667 1.6249v3.2716h68.755c-1.3-1.999-2.792-3.864-4.455-5.5681z" fill="#777"/><path d="m154.149 112.75h-12.448c-.411-.003-.744-.338-.748-.753v-7.602c.006-.414.337-.748.748-.753h12.458c.412.003.745.338.748.753v7.602c.009.204-.068.403-.213.546-.144.144-.342.219-.545.207z" fill="#999" fill-opacity=".25"/><path d="m170.547 112.75h-12.461c-.411-.005-.742-.339-.748-.753v-7.602c.006-.414.337-.748.748-.753h12.461c.411.005.743.339.748.753v7.602c.003.201-.075.394-.216.536s-.332.22-.532.217z" fill="#dee2ea"/><path d="m161.859 117.599h-19.747c-.311.001-.609-.123-.828-.345-.22-.222-.342-.522-.341-.835-.001-.313.121-.614.341-.836.219-.221.517-.345.828-.344h19.747c.311-.001.61.123.83.344.22.222.343.522.342.836-.019.643-.533 1.161-1.172 1.18z" fill="#999" fill-opacity=".25"/><path d="m173.246 117.599h-7.45c-.311.001-.609-.123-.828-.345-.22-.222-.342-.522-.341-.835-.001-.313.121-.614.341-.836.219-.221.517-.345.828-.344h7.45c.311-.001.609.123.829.344.22.222.343.522.343.836 0 .313-.123.614-.343.835-.22.222-.518.346-.829.345z" fill="#dee2ea"/><path d="m149.562 122.333h-7.45c-.311.001-.609-.123-.828-.345-.22-.221-.342-.522-.341-.835-.001-.313.121-.614.341-.835.219-.222.517-.346.828-.345h7.45c.311-.001.609.123.829.345.22.221.343.522.343.835s-.123.614-.343.836c-.22.221-.518.345-.829.344z" fill="#999" fill-opacity=".25"/><path d="m164.367 122.333h-7.453c-.311.001-.609-.123-.828-.345-.22-.221-.342-.522-.34-.835-.002-.313.12-.614.34-.835.219-.222.517-.346.828-.345h7.453c.311-.001.609.123.829.345.219.221.342.522.34.835-.018.643-.53 1.161-1.169 1.18z" fill="#999" fill-opacity=".25"/><path d="m153.238 122.316c.647 0 1.172-.528 1.172-1.18s-.525-1.18-1.172-1.18-1.172.528-1.172 1.18.525 1.18 1.172 1.18z" fill="#999" fill-opacity=".25"/><path d="m171.62 122.316c.647 0 1.172-.528 1.172-1.18s-.525-1.18-1.172-1.18c-.648 0-1.172.528-1.172 1.18s.524 1.18 1.172 1.18z" fill="#dee2ea"/><path d="m168.237 122.316c.647 0 1.172-.528 1.172-1.18s-.525-1.18-1.172-1.18-1.172.528-1.172 1.18.525 1.18 1.172 1.18z" fill="#dee2ea"/><path d="m175.526 122.333h6.381c.425-.766.823-1.551 1.192-2.354-.04 0-.083 0-.123 0h-7.45c-.611.047-1.083.56-1.083 1.177 0 .618.472 1.131 1.083 1.177z" fill="#dee2ea"/><path d="m174.451 112.75h11.112c.608-2.674.914-5.41.912-8.153 0-.337 0-.639 0-.955h-12.021c-.411.005-.742.339-.748.753v7.602c.004.413.335.748.745.753z" fill="#dee2ea"/><path d="m186.315 101.15c-.371-4.0139-1.406-7.9372-3.062-11.607h-40.737c-.413 0-.81.1654-1.102.4599-.293.2945-.457.6939-.457 1.1103v8.5002c0 .4166.164.8156.457 1.1106.292.294.689.46 1.102.46h43.595c.069-.007.137-.018.204-.034z" fill="#999" fill-opacity=".25"/><path d="m116.321 82.9728c.594 0 1.075-.4848 1.075-1.0827 0-.598-.481-1.0827-1.075-1.0827s-1.075.4847-1.075 1.0827c0 .5979.481 1.0827 1.075 1.0827z" fill="#aaa"/><path d="m120.064 82.9728c.594 0 1.075-.4848 1.075-1.0827 0-.598-.481-1.0827-1.075-1.0827s-1.075.4847-1.075 1.0827c0 .5979.481 1.0827 1.075 1.0827z" fill="#aaa"/><path d="m123.804 82.9728c.594 0 1.075-.4848 1.075-1.0827 0-.598-.481-1.0827-1.075-1.0827s-1.075.4847-1.075 1.0827c0 .5979.481 1.0827 1.075 1.0827z" fill="#aaa"/><path d="m136.519 127.458h-21.036c-2.014-.01-3.645-1.651-3.656-3.679v-39.1721h24.709z" fill="#3fa140"/><path d="m129.327 110.424h-11.517c-.553 0-1.001-.452-1.001-1.009s.448-1.009 1.001-1.009h11.517c.553 0 1.001.452 1.001 1.009s-.448 1.009-1.001 1.009z" fill="#fff" opacity=".59"/><path d="m129.327 115.272h-11.517c-.553 0-1.001-.452-1.001-1.009s.448-1.008 1.001-1.008h11.517c.553 0 1.001.451 1.001 1.008s-.448 1.009-1.001 1.009z" fill="#fff" opacity=".59"/><path d="m126.398 120.154h-8.588c-.553 0-1.001-.451-1.001-1.008s.448-1.009 1.001-1.009h8.588c.554 0 1.002.452 1.002 1.009s-.448 1.008-1.002 1.008z" fill="#fff" opacity=".59"/><path d="m129.327 120.154c-.553 0-1.002-.451-1.002-1.008s.449-1.009 1.002-1.009 1.002.452 1.002 1.009-.449 1.008-1.002 1.008z" fill="#fff" opacity=".59"/><path d="m124.208 105.528c4.69 0 8.491-3.828 8.491-8.5506 0-4.7224-3.801-8.5506-8.491-8.5506s-8.491 3.8282-8.491 8.5506c0 4.7226 3.801 8.5506 8.491 8.5506z" fill="#fff" opacity=".59"/><path d="m129.537 103.594c-.069-.353-.212-.687-.417-.981-.424-.589-1.399-.589-2.181-.622-.317.029-.637-.004-.941-.098-.491-.198-.588-.851-.621-1.18-.261-.8172-.618-1.0795-1.002-.982l-.194.1951-.197-.1951c-.39-.0672-.551 0-.811.982-.033.336-.164.982-.618 1.18-.305.094-.626.127-.945.098-.781 0-1.789.033-2.18.622-.242.3-.392.664-.434 1.049 1.513 1.228 3.398 1.899 5.342 1.899 1.907-.028 3.745-.724 5.199-1.967z" fill="#9b7a56"/><path d="m127.297 96.4225c0 2.1957-1.366 4.8825-3.089 4.8825s-3.092-2.7204-3.092-4.8825c0-2.162 1.366-3.9642 3.092-3.9642s3.089 1.7686 3.089 3.9642z" fill="#9b7a56"/><path d="m121.052 93.0803h5.921v2.2932h-5.921z" fill="#af58c4"/><path d="m124.238 93.0803h2.992v2.2932h-2.992z" fill="#ce6ce5"/><path clip-rule="evenodd" d="m129.213 93.1676c.162.3315.175.7168.037 1.0591.284.2955.408.7117.331 1.1158-.076.404-.343.7454-.715.9151.585.7532.324 1.735-.521 1.9973-.069.6567-.616 1.1568-1.272 1.1634-.173.3489-.498.5977-.878.6727h-.063c.672-.9322 1.023-2.0597 1.001-3.2114-.004-.3171-.027-.6336-.067-.9482-.158-.0351-.297-.1287-.39-.2622-.15.1286-.349.1812-.542.1425s-.358-.1644-.447-.3409c-.131.1448-.321.2218-.516.2094-.194-.0124-.373-.1129-.485-.2733-.116.1761-.312.282-.521.282-.21 0-.405-.1059-.521-.282-.108.1674-.287.2735-.485.2861-.197.0126-.389-.0699-.517-.2222-.086.176-.248.3019-.439.3407-.191.0389-.389-.0137-.536-.1423-.095.1175-.227.1993-.374.232-.04.3145-.062.6311-.067.9482.008 1.1641.398 2.293 1.109 3.2106h-.114c-.384-.0823-.715-.3272-.908-.672-.641-.0253-1.174-.5069-1.269-1.1466-.911-.2925-1.011-1.3248-.52-1.9973-.373-.1639-.644-.4986-.728-.8989-.084-.4002.029-.8168.303-1.1185-.144-.3414-.133-.7289.029-1.0619s.46-.5787.816-.6731c-.089-.3648.005-.7505.252-1.0318.248-.2813.617-.4223.987-.3771.174-.3372.477-.5879.839-.6935.363-.1055.752-.0566 1.078.1354.273-.3195.671-.5032 1.09-.5032s.817.1837 1.09.5032c.32-.194.706-.244 1.065-.1379.358.106.656.3585.822.696.369-.0407.734.1017.98.382.246.2802.341.6632.255 1.0269.354.0985.649.3445.811.6759zm-7.382 1.6813c1.238-2.1957 3.449-2.1621 4.674 0-1.431-.8967-3.243-.8967-4.674 0z" fill="#323335" fill-rule="evenodd"/><path d="m127.363 96.6847c.051.5734-.038 1.1507-.26 1.6812.811-.5043.942-1.8123.26-1.6812z" fill="#7b5d3f"/><path d="m120.999 96.6847c-.052.5735.037 1.1512.261 1.6812-.828-.5043-.959-1.8123-.261-1.6812z" fill="#8c6e48"/><path d="m123.297 98.9445v.1883c.003.2048.088.3998.234.5417.147.142.344.2193.547.2148h.334c.42.0038.764-.3339.771-.7565v-.1951z" fill="#fff"/><path d="m123.2 97.4378c.162 0 .294-.1611.294-.3598s-.132-.3597-.294-.3597-.294.161-.294.3597.132.3598.294.3598z" fill="#323335"/><path d="m125.086 97.4378c.163 0 .294-.1611.294-.3598s-.131-.3597-.294-.3597c-.162 0-.294.161-.294.3597s.132.3598.294.3598z" fill="#323335"/><path d="m129.12 102.582c-.424-.591-1.399-.591-2.181-.625-.317.03-.637-.003-.941-.097-.034 0-.034-.034-.067-.034-.407.536-1.024.871-1.693.918-.665-.039-1.278-.376-1.67-.918-.008 0-.016.004-.022.01s-.009.015-.008.024c-.305.093-.626.126-.945.097-.781 0-1.789.034-2.18.625-.242.336-.392.731-.434 1.144 1.522 1.206 3.406 1.853 5.343 1.836 1.944-.035 3.815-.748 5.295-2.018-.133-.336-.3-.659-.497-.962z" fill="#ce6ce5"/><path d="m125.393 100.867c-.33.263-.734.416-1.155.438-.409-.002-.808-.136-1.135-.384-.026.21-.085.414-.174.605.354.333.825.512 1.309.498.498-.011.975-.209 1.336-.555-.089-.19-.15-.393-.181-.602z" fill="#7b5d3f"/><path d="m172.544 124.521c13.652 0 24.718-11.144 24.718-24.8906s-11.066-24.8904-24.718-24.8904c-13.651 0-24.717 11.1438-24.717 24.8904s11.066 24.8906 24.717 24.8906z" fill="#4c863e"/><path d="m173.583 122.8c13.871 0 25.116-11.323 25.116-25.2916 0-13.9684-11.245-25.2921-25.116-25.2921-13.872 0-25.117 11.3237-25.117 25.2921 0 13.9686 11.245 25.2916 25.117 25.2916z" fill="#3fa140"/><path clip-rule="evenodd" d="m168.895 106.857h-9.627v-17.7828h9.334c3.377 0 5.106 2.1596 5.106 4.5325 0 2.2129-1.383 3.7326-3.058 4.0792 1.914.2933 3.404 2.1329 3.404 4.3461 0 2.693-1.756 4.825-5.159 4.825zm-1.117-10.7174c1.276 0 2.074-.7199 2.074-1.8663 0-1.0931-.798-1.8663-2.074-1.8663h-4.734v3.7326zm.159 7.3854c1.41 0 2.261-.747 2.261-2.027 0-1.119-.798-2.0258-2.261-2.0258h-4.893v4.0528z" fill="#fff" fill-rule="evenodd"/><path clip-rule="evenodd" d="m177.963 96.1929h11.966v3.3327h-11.966z" fill="#fff" fill-rule="evenodd"/><path clip-rule="evenodd" d="m182.284 103.525v-11.9979h3.324v11.9979z" fill="#fff" fill-rule="evenodd"/></g><g filter="url(#b)"><path d="m23.2913 13.9419h254.7577v27.8641h-254.7577z" fill="#c4c4c4"/></g><g filter="url(#c)"><path d="m11.5935 19.3345c0-5.3187 4.3117-9.6304 9.6304-9.6304h258.0961c5.319 0 9.63 4.3117 9.63 9.6304v17.3348c0 5.3188-4.311 9.6305-9.63 9.6305h-258.0961c-5.3187 0-9.6304-4.3117-9.6304-9.6305z" fill="#fff"/><rect fill="#aaa" height="5.77826" rx=".963044" transform="matrix(.70710678 -.70710678 .70710678 .70710678 57.346284 200.063376)" width="1.92609" x="270.171" y="30.8086"/><path d="m271.324 23.4498c1.975 1.9745 1.975 5.1757 0 7.1502-1.974 1.9745-5.176 1.9745-7.15 0-1.975-1.9745-1.975-5.1757 0-7.1502 1.974-1.9745 5.176-1.9745 7.15 0z" stroke="#aaa" stroke-width="1.44457"/><g fill="#999"><path d="m58.9754 31.4226c2.4134 0 3.4785-1.2943 3.4785-2.7909 0-3.3437-5.2313-2.3055-5.2313-3.9908 0-.6607.5933-1.1191 1.5101-1.1191.9438 0 1.901.3236 2.6156 1.0382l.8899-1.173c-.8225-.809-1.9685-1.2674-3.3572-1.2674-1.9819 0-3.2763 1.1461-3.2763 2.6426 0 3.3033 5.2313 2.1303 5.2313 4.0178 0 .6068-.4989 1.2404-1.7932 1.2404-1.2539 0-2.2381-.5932-2.8448-1.2538l-.8899 1.2269c.809.8359 2.0089 1.4291 3.6673 1.4291z"/><path d="m66.8728 31.4226c1.0247 0 1.982-.337 2.6426-.9572l-.6472-.9303c-.4718.4719-1.2134.728-1.8606.728-1.2269 0-1.9549-.8224-2.0628-1.7932h5.0155v-.3505c0-2.0494-1.2404-3.5325-3.1953-3.5325-1.9281 0-3.3033 1.5236-3.3033 3.4112 0 2.0628 1.4427 3.4245 3.4111 3.4245zm1.7258-3.9639h-3.6673c.054-.7819.6202-1.7122 1.8202-1.7122 1.2808 0 1.8066.9437 1.8471 1.7122z"/><path d="m76.7642 31.2608v-4.3279c0-1.7392-1.2673-2.346-2.7235-2.346-1.0381 0-1.9819.3236-2.7369 1.0517l.5932.9842c.5528-.5662 1.1999-.8359 1.928-.8359.8899 0 1.5235.4584 1.5235 1.2134v.9708c-.4853-.5528-1.2269-.8359-2.1167-.8359-1.0652 0-2.2516.6202-2.2516 2.1302 0 1.4292 1.1999 2.1572 2.2516 2.1572.8629 0 1.6314-.3101 2.1167-.8763v.7145zm-2.9662-.8089c-.7954 0-1.4022-.4584-1.4022-1.173 0-.7011.6068-1.173 1.4022-1.173.6068 0 1.2135.2292 1.5505.6741v.9978c-.337.4449-.9437.6741-1.5505.6741z"/><path d="m80.015 31.2608v-4.4357c.2831-.4719 1.0786-.8764 1.6853-.8764.1753 0 .3101.0135.4315.0404v-1.4022c-.8359 0-1.6179.4854-2.1168 1.1056v-.9438h-1.4157v6.5121z"/><path d="m86.2397 31.4226c1.2808 0 2.0358-.5528 2.4942-1.1595l-.9303-.8763c-.364.5123-.8629.782-1.4965.782-1.173 0-1.9685-.9034-1.9685-2.1707 0-1.2674.7955-2.1573 1.9685-2.1573.6336 0 1.1325.2427 1.4965.7551l.9303-.8494c-.4584-.6202-1.2134-1.1596-2.4942-1.1596-1.9685 0-3.3572 1.4427-3.3572 3.4112 0 1.9684 1.3887 3.4245 3.3572 3.4245z"/><path d="m95.8129 31.2608v-4.611c0-1.3348-.7011-2.0629-2.1032-2.0629-1.0247 0-1.8607.5259-2.2921 1.0382v-3.3572h-1.4157v8.9929h1.4157v-4.5571c.3236-.4314.9438-.8629 1.6719-.8629.7954 0 1.3078.2966 1.3078 1.3213v4.0987z"/><path d="m104.525 31.2608c2.804 0 4.692-1.8471 4.692-4.5032 0-2.6291-1.888-4.4897-4.705-4.4897h-3.344v8.9929zm-.013-1.3887h-1.767v-6.2155h1.78c1.995 0 3.074 1.3753 3.074 3.101 0 1.7123-1.132 3.1145-3.087 3.1145z"/><path d="m116.511 31.2608v-6.5121h-1.416v4.5706c-.324.4315-.944.8495-1.658.8495-.809 0-1.322-.3236-1.322-1.3348v-4.0853h-1.415v4.6111c0 1.3213.701 2.0628 2.103 2.0628 1.025 0 1.833-.5123 2.292-1.0246v.8628z"/><path d="m121.316 31.4226c1.28 0 2.035-.5528 2.494-1.1595l-.93-.8763c-.365.5123-.863.782-1.497.782-1.173 0-1.969-.9034-1.969-2.1707 0-1.2674.796-2.1573 1.969-2.1573.634 0 1.132.2427 1.497.7551l.93-.8494c-.459-.6202-1.214-1.1596-2.494-1.1596-1.969 0-3.358 1.4427-3.358 3.4112 0 1.9684 1.389 3.4245 3.358 3.4245z"/><path d="m131.158 31.2608-2.75-3.5594 2.697-2.9527h-1.753l-2.872 3.1415v-5.6223h-1.416v8.9929h1.416v-1.7527l.917-.9438 1.982 2.6965z"/><path d="m135.572 31.2608c2.804 0 4.692-1.8471 4.692-4.5032 0-2.6291-1.888-4.4897-4.706-4.4897h-3.343v8.9929zm-.014-1.3887h-1.766v-6.2155h1.78c1.995 0 3.074 1.3753 3.074 3.101 0 1.7123-1.133 3.1145-3.088 3.1145z"/><path d="m147.557 31.2608v-6.5121h-1.415v4.5706c-.324.4315-.944.8495-1.659.8495-.809 0-1.321-.3236-1.321-1.3348v-4.0853h-1.416v4.6111c0 1.3213.702 2.0628 2.104 2.0628 1.024 0 1.833-.5123 2.292-1.0246v.8628z"/><path d="m152.362 31.4226c1.281 0 2.036-.5528 2.495-1.1595l-.931-.8763c-.364.5123-.862.782-1.496.782-1.173 0-1.969-.9034-1.969-2.1707 0-1.2674.796-2.1573 1.969-2.1573.634 0 1.132.2427 1.496.7551l.931-.8494c-.459-.6202-1.214-1.1596-2.495-1.1596-1.968 0-3.357 1.4427-3.357 3.4112 0 1.9684 1.389 3.4245 3.357 3.4245z"/><path d="m162.205 31.2608-2.75-3.5594 2.696-2.9527h-1.752l-2.872 3.1415v-5.6223h-1.416v8.9929h1.416v-1.7527l.917-.9438 1.982 2.6965z"/><path d="m167.59 31.4361c1.55 0 2.817-.6606 3.694-1.6449v-3.3571h-4.261v1.3887h2.697v1.3887c-.405.391-1.214.8089-2.13.8089-1.78 0-3.101-1.3752-3.101-3.2493 0-1.901 1.321-3.2493 3.101-3.2493.997 0 1.847.5258 2.332 1.2l1.281-.7416c-.715-1.0246-1.861-1.8606-3.613-1.8606-2.616 0-4.719 1.8202-4.719 4.6515 0 2.8179 2.103 4.665 4.719 4.665z"/><path d="m175.838 31.4226c2.077 0 3.344-1.5639 3.344-3.4245 0-1.8741-1.267-3.4112-3.344-3.4112-2.076 0-3.344 1.5371-3.344 3.4112 0 1.8606 1.268 3.4245 3.344 3.4245zm0-1.2538c-1.2 0-1.874-1.0112-1.874-2.1707 0-1.1461.674-2.1573 1.874-2.1573 1.214 0 1.874 1.0112 1.874 2.1573 0 1.1595-.66 2.1707-1.874 2.1707z"/></g><path clip-rule="evenodd" d="m29.7468 38.4516c5.8506 0 10.5935-4.7428 10.5935-10.5935 0-5.8506-4.7429-10.5935-10.5935-10.5935s-10.5935 4.7429-10.5935 10.5935c0 5.8507 4.7429 10.5935 10.5935 10.5935z" fill="#fff" fill-rule="evenodd"/><path clip-rule="evenodd" d="m29.8304 18.4104c5.2701 0 9.5423 4.2713 9.5423 9.5402 0 5.269-4.2722 9.5402-9.5423 9.5402s-9.5423-4.2712-9.5423-9.5402c0-5.2689 4.2722-9.5402 9.5423-9.5402z" fill="#de5833" fill-rule="evenodd"/><g mask="url(#l)"><path clip-rule="evenodd" d="m33.7338 42.3256c-.3338-1.5569-2.2811-5.0645-3.0043-6.5652-.7418-1.4818-1.4651-3.5828-1.1313-4.9332.0556-.2439-.6305-2.1196-.4451-2.2509 1.5578-1.0317 1.9656.1125 2.5964-.3564.3152-.2439.7601.1875.8716-.2064.408-1.4255-.5564-3.9016-1.632-4.9707-.3524-.3564-.8904-.5815-1.4836-.6941-.2411-.3189-.612-.6377-1.1313-.9191-.5934-.3189-1.8731-.7315-2.5407-.8441-.4636-.075-.5749.0563-.7604.0938.1855.0188 1.0571.4502 1.224.4689-.1669.1126-.6676 0-.9829.1313-.1669.0751-.2782.3564-.2782.4877.9088-.0937 2.3368 0 3.1713.3752-.6676.075-1.6876.1688-2.1142.3939-1.2611.6753-1.836 2.2509-1.5021 4.1454.3338 1.8946 1.7989 8.7784 2.281 11.0858.4637 2.3072-1.0014 3.7889-1.9472 4.2017l1.0014.0751-.3338.7503c1.2055.1313 2.5407-.2626 2.5407-.2626-.2596.7503-2.0771 1.0129-2.0771 1.0129s.8717.2624 2.2811-.2626c1.4095-.544 2.2811-.8818 2.2811-.8818l.6676 1.7634 1.2797-1.2755.5378 1.3505c-.0373-.0188.9643-.3564.6305-1.9133z" fill="#d5d7d8" fill-rule="evenodd"/></g><g mask="url(#m)"><path clip-rule="evenodd" d="m34.1427 42.0076c-.334-1.5568-2.2812-5.0645-3.0043-6.5651-.7418-1.4819-1.4653-3.5828-1.1315-4.9333.0559-.2439.0559-1.2568.2599-1.3881 1.5576-1.0316 1.4463-.0375 2.077-.4877.3151-.2438.5748-.5252.686-.9191.408-1.4256-.5563-3.9016-1.632-4.9708-.3521-.3564-.8901-.5815-1.4836-.694-.2411-.3189-.612-.6378-1.1311-.9191-1.0014-.544-2.244-.7503-3.394-.544.1855.0188.6122.3939.7791.4314-.2596.1688-.946.1501-.9272.544.9085-.0938 1.91.0563 2.7445.4314-.6675.0751-1.2982.2439-1.7245.469-1.2797.6752-1.6137 2.0258-1.2797 3.9203.3337 1.8945 1.7987 8.7974 2.2809 11.0858.4637 2.3072-1.0012 3.789-1.9285 4.2017l1.0013.075-.3337.7503c1.2055.1313 2.5406-.2626 2.5406-.2626-.2597.7503-2.0769 1.0129-2.0769 1.0129s.8714.2627 2.2809-.2626c1.4094-.5439 2.281-.8816 2.281-.8816l.6679 1.7632 1.2794-1.2942.538 1.3505c-.0373-.0187.9644-.3564.6305-1.9133z" fill="#fff" fill-rule="evenodd"/></g><path clip-rule="evenodd" d="m26.4456 26.4765c0-.3939.3152-.7128.7047-.7128.3894 0 .7047.3189.7047.7128s-.3153.7128-.7047.7128c-.3895 0-.7047-.3189-.7047-.7128z" fill="#2d4f8e" fill-rule="evenodd"/><path clip-rule="evenodd" d="m27.2803 26.2854c0-.1203.0963-.2407.2407-.2407.1204 0 .2408.0963.2408.2407 0 .1204-.0963.2408-.2408.2408-.1444 0-.2407-.0963-.2407-.2408z" fill="#fff" fill-rule="evenodd"/><path clip-rule="evenodd" d="m31.249 26.0451c0-.3377.2782-.6003.612-.6003.334 0 .6122.2814.6122.6003 0 .3376-.2782.619-.6122.619-.3523 0-.612-.2814-.612-.619z" fill="#2d4f8e" fill-rule="evenodd"/><path clip-rule="evenodd" d="m31.9534 25.948c0-.1504.1203-.2407.2409-.2407.1504 0 .2406.1204.2406.2407 0 .1505-.1206.2408-.2406.2408-.1206 0-.2409-.1204-.2409-.2408z" fill="#fff" fill-rule="evenodd"/><path clip-rule="evenodd" d="m26.3079 24.153c-.7534.2853-.4708.8738-.4708.8738s-.0189-.321.5085-.6241c.5086-.321 1.0548-.0892 1.0548-.0892s-.2055-.2559-.6244-.2559c-.1341 0-.2901.0262-.4681.0954z" fill="#2d4f8e" fill-rule="evenodd"/><path clip-rule="evenodd" d="m30.7922 24.3811s.1678-.2534.7828-.2534c.2798 0 .671.2027.671.2027s-.1491-.3544-.5776-.4219c-.0636-.0083-.1225-.012-.1773-.012-.62 0-.6989.4846-.6989.4846z" fill="#2d4f8e" fill-rule="evenodd"/><path clip-rule="evenodd" d="m29.2259 29.1097c.0747-.4292 1.1755-1.2315 1.9592-1.2875s1.0262-.0373 1.6793-.1866 2.3324-.5784 2.7988-.7837c.4665-.2239 2.4445.112 1.0451.877-.5973.3359-2.2206.9516-3.3961 1.3061-1.1568.3545-1.8659-.3358-2.2577.2426-.2985.4478-.056 1.0822 1.3248 1.2128 1.8659.1679 3.6759-.8396 3.8625-.2985.2051.5411-1.6048 1.2128-2.7055 1.2315-1.1011.0186-3.3215-.7277-3.6573-.9516-.2986-.2613-.7464-.8024-.6531-1.3621z" fill="#fdd20a" fill-rule="evenodd"/><path clip-rule="evenodd" d="m30.0657 34.7631s-2.6309-1.3994-2.6683-.8397c-.0373.5786 0 2.8921.2986 3.0787.2985.168 2.5003-1.1382 2.5003-1.1382z" fill="#65bc46" fill-rule="evenodd"/><path clip-rule="evenodd" d="m31.0732 34.6701s1.7912-1.3621 2.2017-1.2688c.3917.0933.485 2.8921.1306 3.0227-.3545.1308-2.407-.7088-2.407-.7088z" fill="#65bc46" fill-rule="evenodd"/><path clip-rule="evenodd" d="m29.4313 34.9128c0 .9141-.1306 1.3061.2612 1.3994.3919.0933 1.1382 0 1.3994-.1679.2613-.1681.0374-1.3621-.0373-1.586-.0933-.2241-1.6233-.0375-1.6233.3545z" fill="#43a244" fill-rule="evenodd"/><path clip-rule="evenodd" d="m29.5995 34.7071c0 .9142-.1306 1.3249.2612 1.3994.3919.0933 1.1382 0 1.3994-.1678.2613-.1681.0376-1.3623-.0373-1.586-.0933-.2241-1.6233-.0375-1.6233.3544z" fill="#65bc46" fill-rule="evenodd"/><path clip-rule="evenodd" d="m29.595 38.19c5.8515 0 10.595-4.7435 10.595-10.595s-4.7435-10.595-10.595-10.595-10.595 4.7435-10.595 10.595 4.7435 10.595 10.595 10.595z" fill="#de5833" fill-rule="evenodd"/><g mask="url(#n)"><path clip-rule="evenodd" d="m31.5603 37.0527c-.4432-.8617-.867-1.6546-1.1301-2.179-.6993-1.4003-1.4021-3.3745-1.0825-4.6477.0583-.2313-.6586-8.566-1.1654-8.8345-.5633-.3001-1.787-.6957-2.421-.8016-.4414-.0707-.5421.0529-.7275.0812.1748.0176 1.0065.4273 1.1672.4503-.1607.1095-.6357-.0036-.9394.1306-.1536.0707-.2684.332-.2649.4556.8653-.0883 2.2179-.0017 3.0196.3532-.6375.0724-1.6051.1536-2.0219.3726-1.2078.6357-1.7411 2.1243-1.4232 3.9078.316 1.7799 1.7164 8.2729 2.1631 10.4413.445 2.1667 5.5642 1.7129 4.8243.2702z" fill="#d5d7d8" fill-rule="evenodd"/><path d="m29.7327 29.9276c-.3178 1.2732.3815 3.2456 1.0825 4.6477.2355.4684.599 1.152.99 1.9089-.9121.226-3.1253.5424-4.6806 0-.445-2.1632-1.8453-8.6579-2.1649-10.4414-.3179-1.7835 0-3.0566 1.2113-3.6923.415-.219 1.0083-.3779 1.644-.4486-.8017-.3567-1.7517-.4944-2.6205-.4061-.0035-.3673.6446-.3461.8883-.5121-.1607-.023-.5598-.3832-.7364-.4008 1.1021-.189 2.2357-.0103 3.2262.5085.505.2702.8617.5598 1.0824.8635.5757.1095 1.0843.3179 1.4162.6498 1.0207 1.0189 1.9319 3.3481 1.5504 4.6866-.1077.3708-.3531.641-.6604.8652-.5968.4344-.4909-.5032-1.976.468-.1924.1253-.1924 1.0718-.2525 1.3031z" fill="#fff"/></g><path clip-rule="evenodd" d="m27.0291 26.8021c.3696 0 .6693-.2996.6693-.6692s-.2997-.6693-.6693-.6693-.6692.2997-.6692.6693.2996.6692.6692.6692z" fill="#2d4f8e" fill-rule="evenodd"/><path clip-rule="evenodd" d="m27.3276 26.0834c.0956 0 .173-.0775.173-.173 0-.0956-.0774-.1731-.173-.1731s-.1731.0775-.1731.1731c0 .0955.0775.173.1731.173z" fill="#fff" fill-rule="evenodd"/><path clip-rule="evenodd" d="m31.5002 26.3094c.3169 0 .5739-.2569.5739-.5739 0-.3169-.257-.5739-.5739-.5739-.317 0-.5739.257-.5739.5739 0 .317.2569.5739.5739.5739z" fill="#2d4f8e" fill-rule="evenodd"/><path clip-rule="evenodd" d="m31.7562 25.6931c.082 0 .1484-.0664.1484-.1483s-.0664-.1483-.1484-.1483c-.0819 0-.1483.0664-.1483.1483s.0664.1483.1483.1483z" fill="#fff" fill-rule="evenodd"/><path clip-rule="evenodd" d="m27.2216 24.1956s-.5051-.2296-.9942.0794c-.4891.3073-.4715.6216-.4715.6216s-.2595-.5792.4327-.8635c.6939-.2825 1.033.1625 1.033.1625z" fill="url(#g)" fill-rule="evenodd"/><path clip-rule="evenodd" d="m31.8464 24.1498s-.362-.2066-.6445-.2031c-.5775.0071-.7346.2614-.7346.2614s.0971-.6075.8352-.4856c.2407.044.4442.2038.5439.4273z" fill="url(#h)" fill-rule="evenodd"/><path clip-rule="evenodd" d="m29.0775 28.7127c.0671-.4062 1.1124-1.1708 1.8541-1.2185.7416-.0459.9712-.0353 1.5892-.1836.6198-.1466 2.2144-.5439 2.6541-.7487.4414-.2031 2.3132.1006.9941.837-.5703.3196-2.1084.9059-3.2085 1.2343-1.0983.3284-1.764-.3143-2.1296.226-.2896.4291-.0582 1.0172 1.2538 1.139 1.7729.1642 3.4716-.7982 3.6588-.2861s-1.5222 1.1478-2.564 1.169c-1.0419.0194-3.1397-.6887-3.454-.9076-.3161-.2172-.7346-.7293-.648-1.2608z" fill="#fdd20a" fill-rule="evenodd"/><path clip-rule="evenodd" d="m32.9093 32.3329c-.3743-.0829-2.0766 1.2043-2.0766 1.2043h.0018l-.0795.9889s1.9459.7964 2.2779.6728c.332-.1271.249-2.7812-.1236-2.866zm-5.5606.498c.0406-.5386 2.5304.7911 2.5304.7911l.0018-.0018.1236 1.0384s-2.0748 1.2431-2.3662 1.0771c-.2896-.166-.332-2.3644-.2896-2.9048z" fill="#65bc46" fill-rule="evenodd"/><path clip-rule="evenodd" d="m29.2769 33.7615c0 .8706-.1254 1.245.2472 1.3279.3744.083 1.0789 0 1.3297-.1659.2472-.166.0406-1.2856-.0424-1.4939-.083-.2084-1.5363-.0424-1.5363.3319z" fill="#43a244" fill-rule="evenodd"/><path clip-rule="evenodd" d="m29.4358 33.5691c0 .8706-.1254 1.2432.2472 1.3262.3726.0847 1.0772 0 1.3279-.166.249-.166.0424-1.2855-.0406-1.4939s-1.5363-.0406-1.5363.332z" fill="#65bc46" fill-rule="evenodd"/><path clip-rule="evenodd" d="m29.5949 36.4792c4.9067 0 8.8843-3.9776 8.8843-8.8843s-3.9776-8.8844-8.8843-8.8844-8.8844 3.9777-8.8844 8.8844 3.9777 8.8843 8.8844 8.8843zm0 .8278c5.3638 0 9.7121-4.3483 9.7121-9.7121s-4.3483-9.7121-9.7121-9.7121-9.7121 4.3483-9.7121 9.7121 4.3483 9.7121 9.7121 9.7121z" fill="#fff" fill-rule="evenodd"/><path d="m52.0415 19.3345h.963v17.3348h-.963z" fill="#666"/></g><g mask="url(#o)"><g filter="url(#d)"><rect fill="#fff" height="216.544" rx="3.59707" width="223.018" x="39" y="201.582"/><g fill="#333"><path d="m82.4973 259.941v-1.037h-2.9712c1.7928-1.36 2.9309-2.468 2.9309-3.717 0-1.339-1.128-2.064-2.4273-2.064-.9467 0-1.8935.352-2.4877 1.077l.6849.766c.4331-.484 1.0273-.796 1.8129-.796.6144 0 1.2288.312 1.2288 1.017 0 .977-1.0274 1.843-3.636 3.817v.937z"/><path d="m89.2106 259.941v-5.68h2.0345v-1.038h-5.2474v1.038h2.0345v5.68z"/><path d="m92.5136 259.941v-3.313c.2116-.353.8058-.655 1.259-.655.131 0 .2317.01.3223.03v-1.047c-.6244 0-1.2086.362-1.5813.826v-.706h-1.0575v4.865z"/><path d="m98.9866 259.941v-3.233c0-1.299-.9468-1.752-2.0345-1.752-.7755 0-1.4806.241-2.0446.785l.4432.735c.4129-.423.8964-.624 1.4402-.624.6648 0 1.1381.342 1.1381.906v.726c-.3625-.413-.9165-.625-1.5812-.625-.7957 0-1.682.463-1.682 1.592 0 1.067.8964 1.611 1.682 1.611.6446 0 1.2187-.232 1.5812-.655v.534zm-2.2158-.604c-.5942 0-1.0475-.343-1.0475-.876 0-.524.4533-.877 1.0475-.877.4532 0 .9065.172 1.1582.504v.745c-.2517.333-.705.504-1.1582.504z"/><path d="m102.573 260.062c.957 0 1.521-.413 1.864-.866l-.695-.655c-.272.383-.645.584-1.118.584-.877 0-1.471-.674-1.471-1.621s.594-1.612 1.471-1.612c.473 0 .846.182 1.118.564l.695-.634c-.343-.464-.907-.866-1.864-.866-1.47 0-2.508 1.077-2.508 2.548 0 1.47 1.038 2.558 2.508 2.558z"/><path d="m109.926 259.941-2.055-2.659 2.015-2.206h-1.309l-2.146 2.347v-4.2h-1.057v6.718h1.057v-1.309l.685-.705 1.481 2.014z"/><path d="m112.892 260.062c.765 0 1.48-.252 1.974-.715l-.483-.695c-.353.352-.907.544-1.39.544-.917 0-1.461-.615-1.541-1.34h3.746v-.262c0-1.53-.926-2.638-2.387-2.638-1.44 0-2.467 1.138-2.467 2.548 0 1.541 1.077 2.558 2.548 2.558zm1.289-2.961h-2.739c.04-.584.463-1.279 1.359-1.279.957 0 1.35.705 1.38 1.279z"/><path d="m117.3 259.941v-3.313c.211-.353.805-.655 1.259-.655.131 0 .231.01.322.03v-1.047c-.624 0-1.209.362-1.581.826v-.706h-1.058v4.865z"/><path d="m121.406 260.062c1.309 0 2.024-.655 2.024-1.521 0-1.934-2.941-1.289-2.941-2.145 0-.343.343-.604.897-.604.614 0 1.148.261 1.44.584l.443-.746c-.433-.382-1.057-.674-1.883-.674-1.229 0-1.914.674-1.914 1.47 0 1.873 2.941 1.189 2.941 2.145 0 .383-.332.645-.967.645-.624 0-1.299-.322-1.642-.675l-.483.756c.504.493 1.249.765 2.085.765z"/><path d="m130.506 259.941c1.269 0 1.954-.775 1.954-1.823 0-.816-.575-1.531-1.3-1.642.625-.13 1.169-.705 1.169-1.541 0-.946-.675-1.712-1.914-1.712h-3.304v6.718zm-.323-3.948h-1.893v-1.732h1.893c.595 0 .937.372.937.866 0 .514-.342.866-.937.866zm.051 2.911h-1.944v-1.874h1.944c.664 0 1.017.434 1.017.937 0 .584-.383.937-1.017.937z"/><path d="m134.679 259.941v-6.718h-1.057v6.718z"/><path d="m138.257 260.062c1.551 0 2.498-1.168 2.498-2.558 0-1.4-.947-2.548-2.498-2.548s-2.498 1.148-2.498 2.548c0 1.39.947 2.558 2.498 2.558zm0-.937c-.896 0-1.4-.755-1.4-1.621 0-.856.504-1.612 1.4-1.612.907 0 1.4.756 1.4 1.612 0 .866-.493 1.621-1.4 1.621z"/><path d="m144.051 260.062c.956 0 1.52-.413 1.863-.866l-.695-.655c-.272.383-.645.584-1.118.584-.876 0-1.471-.674-1.471-1.621s.595-1.612 1.471-1.612c.473 0 .846.182 1.118.564l.695-.634c-.343-.464-.907-.866-1.863-.866-1.471 0-2.508 1.077-2.508 2.548 0 1.47 1.037 2.558 2.508 2.558z"/><path d="m151.403 259.941-2.054-2.659 2.014-2.206h-1.309l-2.145 2.347v-4.2h-1.058v6.718h1.058v-1.309l.684-.705 1.481 2.014z"/><path d="m154.369 260.062c.766 0 1.481-.252 1.974-.715l-.483-.695c-.353.352-.907.544-1.39.544-.917 0-1.46-.615-1.541-1.34h3.747v-.262c0-1.53-.927-2.638-2.387-2.638-1.441 0-2.468 1.138-2.468 2.548 0 1.541 1.078 2.558 2.548 2.558zm1.289-2.961h-2.739c.04-.584.463-1.279 1.36-1.279.956 0 1.349.705 1.379 1.279z"/><path d="m162.201 259.941v-6.718h-1.057v2.528c-.383-.523-.947-.795-1.561-.795-1.249 0-2.156.977-2.156 2.548 0 1.611.917 2.558 2.156 2.558.634 0 1.188-.302 1.561-.786v.665zm-2.306-.816c-.846 0-1.38-.674-1.38-1.621 0-.937.534-1.612 1.38-1.612.494 0 1.017.292 1.249.655v1.924c-.232.362-.755.654-1.249.654z"/></g><path clip-rule="evenodd" d="m59.1439 262.193c2.8806 0 5.2158-2.335 5.2158-5.216 0-2.88-2.3352-5.216-5.2158-5.216s-5.2157 2.336-5.2157 5.216c0 2.881 2.3351 5.216 5.2157 5.216zm6.4747-5.216c0 3.576-2.8988 6.475-6.4747 6.475s-6.4747-2.899-6.4747-6.475 2.8988-6.475 6.4747-6.475 6.4747 2.899 6.4747 6.475z" fill="#3ea140" fill-rule="evenodd"/><path d="m39 238.272h223.018v.72h-223.018z" fill="#000" fill-opacity=".05"/><g clip-path="url(#j)"><g fill="#333"><path d="m81.7273 223.251v-1.037h-3.4244v-1.873h3.3539v-1.038h-3.3539v-1.732h3.4244v-1.038h-4.6028v6.718z"/><path d="m87.2582 223.251v-3.424c0-.997-.5237-1.561-1.5712-1.561-.7654 0-1.3999.393-1.7222.775v-.654h-1.0576v4.864h1.0576v-3.404c.2518-.322.7151-.645 1.2489-.645.5942 0 .987.242.987 1.008v3.041z"/><path d="m90.8474 223.372c.9568 0 1.5209-.413 1.8633-.866l-.695-.655c-.2719.383-.6445.584-1.1179.584-.8763 0-1.4705-.674-1.4705-1.621s.5942-1.612 1.4705-1.612c.4734 0 .846.182 1.1179.564l.695-.634c-.3424-.463-.9065-.866-1.8633-.866-1.4705 0-2.5079 1.077-2.5079 2.548 0 1.47 1.0374 2.558 2.5079 2.558z"/><path d="m94.7054 223.251v-3.313c.2115-.353.8057-.655 1.259-.655.1309 0 .2316.01.3223.03v-1.047c-.6245 0-1.2087.362-1.5813.826v-.705h-1.0575v4.864z"/><path d="m96.9381 225.155c.141.04.4432.07.5942.07.7554-.01 1.3295-.272 1.6619-1.097l2.3468-5.741h-1.128l-1.4202 3.646-1.4202-3.646h-1.1381l2.0043 4.925-.2417.554c-.141.322-.3626.423-.705.423-.1209 0-.2921-.031-.4029-.081z"/><path d="m104.824 223.372c1.259 0 2.155-.957 2.155-2.558 0-1.602-.896-2.548-2.155-2.548-.635 0-1.199.302-1.562.785v-.664h-1.057v6.717h1.057v-2.528c.403.514.947.796 1.562.796zm-.313-.937c-.493 0-1.017-.302-1.249-.664v-1.924c.242-.363.756-.645 1.249-.645.836 0 1.38.665 1.38 1.612s-.544 1.621-1.38 1.621z"/><path d="m109.508 223.372c.483 0 .796-.141.987-.312l-.252-.806c-.08.091-.262.181-.463.181-.302 0-.463-.251-.463-.584v-2.548h.987v-.916h-.987v-1.33h-1.058v1.33h-.806v.916h.806v2.81c0 .816.423 1.259 1.249 1.259z"/><path d="m113.51 223.372c.765 0 1.48-.252 1.974-.715l-.483-.695c-.353.353-.907.544-1.39.544-.917 0-1.461-.614-1.541-1.34h3.746v-.261c0-1.531-.926-2.639-2.387-2.639-1.44 0-2.467 1.138-2.467 2.548 0 1.541 1.077 2.558 2.548 2.558zm1.289-2.961h-2.739c.04-.584.463-1.279 1.359-1.279.957 0 1.35.705 1.38 1.279z"/><path d="m121.342 223.251v-6.718h-1.057v2.528c-.383-.523-.947-.795-1.562-.795-1.248 0-2.155.977-2.155 2.548 0 1.611.917 2.558 2.155 2.558.635 0 1.189-.302 1.562-.785v.664zm-2.306-.816c-.846 0-1.38-.674-1.38-1.621 0-.937.534-1.612 1.38-1.612.493 0 1.017.293 1.249.655v1.924c-.232.362-.756.654-1.249.654z"/><path d="m128.572 223.372c1.35 0 2.186-.715 2.7-1.521l-1.008-.503c-.322.554-.977.977-1.692.977-1.329 0-2.316-1.028-2.316-2.428 0-1.42.987-2.427 2.316-2.427.715 0 1.37.413 1.692.977l.998-.524c-.494-.805-1.34-1.5-2.69-1.5-1.984 0-3.525 1.4-3.525 3.474 0 2.065 1.541 3.475 3.525 3.475z"/><path d="m134.38 223.372c1.551 0 2.498-1.168 2.498-2.558 0-1.4-.947-2.548-2.498-2.548s-2.498 1.148-2.498 2.548c0 1.39.947 2.558 2.498 2.558zm0-.937c-.896 0-1.4-.755-1.4-1.621 0-.856.504-1.612 1.4-1.612.907 0 1.4.756 1.4 1.612 0 .866-.493 1.621-1.4 1.621z"/><path d="m142.309 223.251v-3.424c0-.997-.524-1.561-1.571-1.561-.766 0-1.4.393-1.723.775v-.654h-1.057v4.864h1.057v-3.404c.252-.322.715-.645 1.249-.645.595 0 .987.242.987 1.008v3.041z"/><path d="m148.033 223.251v-3.424c0-.997-.523-1.561-1.571-1.561-.765 0-1.4.393-1.722.775v-.654h-1.058v4.864h1.058v-3.404c.252-.322.715-.645 1.249-.645.594 0 .987.242.987 1.008v3.041z"/><path d="m151.663 223.372c.765 0 1.48-.252 1.974-.715l-.484-.695c-.352.353-.906.544-1.39.544-.916 0-1.46-.614-1.541-1.34h3.747v-.261c0-1.531-.926-2.639-2.387-2.639-1.44 0-2.467 1.138-2.467 2.548 0 1.541 1.077 2.558 2.548 2.558zm1.289-2.961h-2.74c.041-.584.464-1.279 1.36-1.279.957 0 1.35.705 1.38 1.279z"/><path d="m157.229 223.372c.957 0 1.521-.413 1.863-.866l-.695-.655c-.272.383-.644.584-1.118.584-.876 0-1.47-.674-1.47-1.621s.594-1.612 1.47-1.612c.474 0 .846.182 1.118.564l.695-.634c-.342-.463-.906-.866-1.863-.866-1.471 0-2.508 1.077-2.508 2.548 0 1.47 1.037 2.558 2.508 2.558z"/><path d="m161.5 223.372c.483 0 .795-.141.987-.312l-.252-.806c-.081.091-.262.181-.463.181-.302 0-.464-.251-.464-.584v-2.548h.987v-.916h-.987v-1.33h-1.057v1.33h-.806v.916h.806v2.81c0 .816.423 1.259 1.249 1.259z"/><path d="m163.779 217.792c.363 0 .655-.292.655-.654 0-.363-.292-.655-.655-.655-.362 0-.654.292-.654.655 0 .362.292.654.654.654zm.524 5.459v-4.864h-1.057v4.864z"/><path d="m167.881 223.372c1.551 0 2.498-1.168 2.498-2.558 0-1.4-.947-2.548-2.498-2.548s-2.498 1.148-2.498 2.548c0 1.39.947 2.558 2.498 2.558zm0-.937c-.897 0-1.4-.755-1.4-1.621 0-.856.503-1.612 1.4-1.612.906 0 1.4.756 1.4 1.612 0 .866-.494 1.621-1.4 1.621z"/><path d="m175.809 223.251v-3.424c0-.997-.523-1.561-1.571-1.561-.765 0-1.4.393-1.722.775v-.654h-1.058v4.864h1.058v-3.404c.252-.322.715-.645 1.249-.645.594 0 .987.242.987 1.008v3.041z"/></g><path clip-rule="evenodd" d="m61.738 218.466c.2507.241.2587.64.0179.89l-2.7641 2.878c-.1187.124-.2826.193-.454.193-.1713 0-.3353-.069-.454-.193l-1.5523-1.616c-.2409-.251-.2329-.649.0179-.89.2507-.241.6492-.233.89.018l1.0984 1.143 2.3101-2.405c.2409-.251.6394-.259.8901-.018z" fill="#3ea140" fill-rule="evenodd"/><path clip-rule="evenodd" d="m59.1439 225.503c2.8806 0 5.2158-2.335 5.2158-5.216 0-2.88-2.3352-5.216-5.2158-5.216s-5.2157 2.336-5.2157 5.216c0 2.881 2.3351 5.216 5.2157 5.216zm6.4747-5.216c0 3.576-2.8988 6.475-6.4747 6.475s-6.4747-2.899-6.4747-6.475 2.8988-6.475 6.4747-6.475 6.4747 2.899 6.4747 6.475z" fill="#3ea140" fill-rule="evenodd"/></g><path clip-rule="evenodd" d="m244.955 249.984c-.27.268-.27.707 0 .976l3.158 3.139-3.158 3.139c-.27.268-.27.708 0 .976.27.269.712.269.982 0l3.649-3.627c.27-.268.27-.708 0-.976l-3.649-3.627c-.27-.269-.712-.269-.982 0z" fill="#aaa" fill-rule="evenodd"/></g></g><g clip-path="url(#k)" clip-rule="evenodd" fill-rule="evenodd"><path d="m140.17 275.349v3.054l14.096 14.241 1.499-1.537z" fill="#230545"/><path d="m142.354 292.528.006-1.892h1.917c.122 0 .242.005.361.015l40.005.271v6.273c0 2.36-1.872 4.314-4.23 4.314h-13.551c-1.268 0-2.339 1.063-2.339 2.424 0 2.359-1.873 4.314-4.231 4.314h-.137c-2.359 0-4.231-1.955-4.231-4.314 0-1.361-1.071-2.423-2.339-2.423h-2.738c-2.359 0-4.231-1.955-4.231-4.315v-2.245c0-1.267-.928-2.275-2.081-2.408l-2.175-.014zm5.448.036c.446.686.705 1.508.705 2.386v2.245c0 1.361 1.07 2.423 2.34 2.423h2.738c2.358 0 4.23 1.955 4.23 4.315 0 1.359 1.07 2.422 2.34 2.422h.137c1.27 0 2.339-1.063 2.339-2.422 0-2.359 1.872-4.316 4.231-4.316h13.551c1.269 0 2.339-1.062 2.339-2.422v-4.394zm-55.3901 18.106v-9.825h1.8916v9.825c0 1.361 1.0699 2.423 2.3397 2.423h.5478c1.2684 0 2.3387-1.062 2.3387-2.424 0-2.359 1.8723-4.314 4.2313-4.314h13.414v1.892h-13.414c-1.27 0-2.34 1.063-2.34 2.422 0 2.361-1.8716 4.316-4.23 4.316h-.5478c-2.359 0-4.2313-1.955-4.2313-4.315z" fill="#230545"/><path d="m177.402 290.179c0-3.721-2.942-6.737-6.57-6.737h-14.236c-3.629 0-6.57 3.015-6.57 6.737 0 1.469.463 2.822 1.242 3.93h24.892c.81-1.151 1.244-2.523 1.242-3.93z" fill="#7cb5e0"/><path d="m151.267 294.107c1.193 1.699 3.133 2.808 5.329 2.808h14.235c2.197 0 4.137-1.109 5.329-2.807h-24.893z" fill="#4495d4"/><path d="m154.954 291.3c-.603 0-1.096-.505-1.096-1.122 0-.618.493-1.123 1.096-1.123.602 0 1.095.505 1.095 1.123 0 .617-.493 1.122-1.095 1.122zm4.38 0c-.603 0-1.096-.505-1.096-1.122 0-.618.493-1.123 1.096-1.123.602 0 1.096.505 1.096 1.123 0 .617-.494 1.122-1.096 1.122z" fill="#fff"/><path d="m177.541 290.309c0-3.601-2.846-6.521-6.358-6.521s-6.358 2.92-6.358 6.521c0 3.602 2.846 6.521 6.358 6.521s6.358-2.919 6.358-6.521z" fill="#357db6"/><path d="m175.846 290.31c0-2.641-2.087-4.782-4.663-4.782-2.574 0-4.662 2.141-4.662 4.782s2.086 4.782 4.663 4.782c2.575 0 4.662-2.141 4.662-4.782z" fill="#4495d4"/><g fill="#230545"><path d="m170.832 291.3h10.95v-2.245h-10.95z"/><path d="m173.543 290.532c.226-1.518-1.03-2.807-2.511-2.573-.921.145-1.675.917-1.816 1.863-.228 1.518 1.03 2.806 2.51 2.574.921-.144 1.675-.919 1.815-1.864"/><path d="m83.6516 246.104c0-2.361 1.8727-4.314 4.2314-4.314h9.5812v1.892h-9.5812c-1.2702 0-2.3398 1.062-2.3398 2.422v13.475c0 1.36 1.07 2.423 2.3398 2.423h9.8546c2.3584 0 4.2314 1.953 4.2314 4.314v.842h-1.892v-.842c0-1.36-1.0693-2.422-2.3394-2.422h-9.8546c-2.359 0-4.2314-1.955-4.2314-4.315z"/><path d="m100.75 264.912c-3.0237 0-5.4756 2.515-5.4756 5.615 0 3.101 2.4519 5.614 5.4756 5.614 3.024 0 5.475-2.513 5.475-5.614 0-3.1-2.452-5.615-5.475-5.615z"/></g><path d="m107.784 269.745c-.156-.729-.557-1.384-1.136-1.854-.578-.471-1.301-.729-2.047-.732h-14.4889c1.7737 0 3.2093 1.508 3.2093 3.369 0 1.86-1.4367 3.369-3.2093 3.369h14.5469c2.015 0 3.596-1.951 3.125-4.152z" fill="#357db6"/><path d="m91.4967 267.159h-1.1685c-.7461.003-1.4686.262-2.0475.732-.5789.471-.9793 1.126-1.1348 1.855-.4716 2.201 1.1101 4.151 3.1249 4.151h1.2833c2.0158 0 3.5965-1.951 3.1249-4.152-.1557-.729-.5563-1.384-1.1351-1.854-.5789-.471-1.3012-.729-2.0472-.732z" fill="#4495d4"/><path d="m88.1562 301.967h16.8138c2.81 0 5.088-2.335 5.088-5.217v-22.129c0-2.882-2.278-5.217-5.088-5.217h-16.8138z" fill="#230545"/><path d="m94.1799 296.751v-22.131c0-2.88-2.2777-5.216-5.0874-5.216h-.7763c-2.8098 0-5.0874 2.335-5.0874 5.217v22.129c0 2.882 2.2776 5.217 5.0874 5.217h.7763c2.8097 0 5.0874-2.335 5.0874-5.217zm23.1561 2.383h-7.261l4.142 15.853h7.262z" fill="#544463"/><path d="m126.33 299.135h-12.62l4.142 15.853h12.62z" fill="#230545"/><path d="m140.559 304.214h-28.153c-2.809 0-5.086-2.336-5.086-5.217v-25.499c0-2.88 2.277-5.217 5.086-5.217h28.153c2.809 0 5.087 2.337 5.087 5.217v25.499c0 2.881-2.278 5.217-5.087 5.217z" fill="#4495d4"/><path d="m113.89 304.214h-6.57c-2.722 0-4.928-2.345-4.928-5.237v-25.46c0-2.892 2.206-5.236 4.928-5.236h6.57c2.721 0 4.928 2.344 4.928 5.236v25.46c0 2.892-2.207 5.237-4.928 5.237z" fill="#7cb5e0"/><path d="m135.79 268.281v1.347c0 2.977-2.207 5.39-4.928 5.39h3.126c2.81 0 5.088-2.336 5.088-5.217v-1.52z" fill="#230545"/><path d="m136.338 269.802v-1.521h-11.498v1.521c0 2.88 2.278 5.217 5.087 5.217h1.325c2.809 0 5.086-2.337 5.086-5.217z" fill="#544463"/><path d="m111.838 289.259c0-.72-.57-1.305-1.272-1.305s-1.272.585-1.272 1.305c0 .719.57 1.304 1.273 1.304.701 0 1.271-.585 1.271-1.304zm0 4.781c0-.72-.57-1.304-1.272-1.304s-1.272.584-1.272 1.304.57 1.305 1.273 1.305c.701 0 1.271-.585 1.271-1.305z" fill="#de5833"/><path d="m113.964 271.649h-6.719c-1.169 0-2.115.922-2.115 2.058v23.958c0 1.137.947 2.057 2.115 2.057h6.719c1.169 0 2.116-.921 2.116-2.057v-23.958c0-1.137-.947-2.058-2.116-2.058z" fill="#4495d4"/><path d="m111.153 290.178c0-.62-.49-1.123-1.096-1.123-.604 0-1.094.503-1.094 1.123 0 .619.49 1.122 1.095 1.122s1.095-.503 1.095-1.122zm0 5.614c0-.62-.49-1.123-1.096-1.123-.604 0-1.094.503-1.094 1.123s.49 1.123 1.095 1.123 1.095-.503 1.095-1.123z" fill="#230545"/><path d="m141.631 295.555c0 1.978-1.563 3.579-3.491 3.579h-11.91c-1.928 0-3.491-1.601-3.491-3.579 0-1.977 1.563-3.579 3.491-3.579h11.911c1.928 0 3.491 1.602 3.491 3.578" fill="#544463"/><path d="m125.986 295.044h12.397c1.473 0 2.738.901 3.309 2.191.362-.82.453-1.794.111-2.81-.503-1.496-1.939-2.449-3.482-2.449h-12.272c-1.544 0-2.98.953-3.482 2.449-.319.917-.28 1.921.112 2.81.57-1.29 1.836-2.191 3.307-2.191z" fill="#230545"/><path d="m113.964 271.088h-6.719c-1.169 0-2.115.855-2.115 1.909v2.208c0-1.031.944-1.871 2.105-1.871h6.739c1.161 0 2.106.84 2.106 1.871v-2.208c0-1.054-.947-1.909-2.116-1.909z" fill="#357db6"/><path d="m99.9497 289.055h2.4423v-7.861h-2.4423c-1.0705 0-1.9375.838-1.9375 1.873v4.115c0 1.034.867 1.873 1.9375 1.873z" fill="#544463"/><path d="m102.14 289.055h.252v-7.861h-.252c-1.071 0-1.938.838-1.938 1.873v4.115c0 1.034.867 1.873 1.938 1.873z" fill="#230545"/><path d="m122.898 281.054c-.563 1.383-.638 3.021-.081 4.65 1.202 3.505 4.851 5.619 8.149 4.72 1.129-.306 8.368-2.278 14.68-3.996v-11.565z" fill="#357db6"/><path d="m168.035 267.167-15.085 6.663.967 2.303 15.085-6.664z" fill="#230545"/><path d="m154.134 267.939-25.049 6.581c-1.821.479-3.249 1.724-4.055 3.308l34.21-8.99c-.736-.51-1.573-.854-2.454-1.01-.882-.155-1.786-.118-2.652.109" fill="#7cb5e0"/><path d="m124.504 282.456c.873 3.489 4.336 5.593 7.738 4.698l25.048-6.583c3.402-.894 5.454-4.447 4.58-7.935-.381-1.546-1.317-2.897-2.63-3.797l-34.21 8.991c-.728 1.428-.915 3.071-.526 4.626z" fill="#4495d4"/><path d="m135.788 281.416c.321-3.345-2.063-6.323-5.324-6.653-3.262-.329-6.167 2.114-6.488 5.459s2.062 6.323 5.324 6.654c3.262.33 6.167-2.115 6.488-5.46z" fill="#7cb5e0"/><path d="m134.1 281.244c.23-2.389-1.472-4.516-3.802-4.751-2.331-.236-4.405 1.51-4.634 3.9-.23 2.389 1.473 4.517 3.803 4.751 2.329.236 4.405-1.509 4.633-3.9z" fill="#4495d4"/><path d="m131.958 280.633c0-1.24-.981-2.245-2.191-2.245-1.208 0-2.189 1.005-2.189 2.245 0 1.241.981 2.245 2.19 2.245s2.19-1.004 2.19-2.245zm-18-.194c0-1.921-1.519-3.479-3.391-3.479-1.873 0-3.392 1.558-3.392 3.478s1.519 3.478 3.391 3.478c1.873 0 3.391-1.558 3.391-3.478" fill="#230545"/><path d="m112.248 281.756h16.424v-2.245h-16.424zm73.856-2.245s3.715 4.468 4.267 6.514c.905 3.362-1.988 3.152-2.56 3.152h-7.679c-.572 0-3.466.21-2.559-3.151.551-2.047 4.266-6.515 4.266-6.515h-2.624s-3.763 4.528-4.323 6.601c-1.285 4.771 3.179 5.75 5.189 5.75h7.782c2.01 0 6.473-.98 5.188-5.749-.559-2.075-4.324-6.602-4.324-6.602z" fill="#230545"/><path d="m187.806 292.423c0-2.17-1.718-3.93-3.834-3.93-2.117 0-3.833 1.76-3.833 3.93s1.716 3.93 3.833 3.93c2.116 0 3.833-1.759 3.833-3.93" fill="#230545"/><path d="m186.162 292.423c0-1.239-.981-2.245-2.191-2.245-1.208 0-2.189 1.006-2.189 2.245 0 1.241.981 2.247 2.19 2.247s2.19-1.006 2.19-2.247z" fill="#4495d4"/><path d="m185.066 292.423c0-.62-.49-1.123-1.096-1.123-.604 0-1.094.503-1.094 1.123 0 .619.49 1.123 1.096 1.123.605 0 1.095-.504 1.095-1.123" fill="#fff"/><path d="m183.972 272.211s-2.738 1.977-2.738 5.063c0 .366.083.714.237 1.028.117.244 1.033 1.77 2.501 1.77s2.383-1.523 2.5-1.77c.152-.313.237-.662.237-1.028 0-3.086-2.737-5.063-2.737-5.063z" fill="#de5833"/><path d="m184.835 275.673c-.468-.889-.863-1.1-.863-1.1s-.397.211-.864 1.1c-.981 1.862.298 2.823.864 2.823.563 0 1.844-.96.863-2.823z" fill="#ffb652"/><path d="m180.139 279.511v4.586c0 1.808 1.716 3.274 3.833 3.274 2.116 0 3.833-1.466 3.833-3.274v-4.586z" fill="#230545"/><path d="m142.495 276.077c.077.215.067.452-.028.66-.094.208-.266.37-.479.453l-.399.15c-.105.038-.217.055-.329.049-.112-.005-.222-.033-.323-.081-.101-.049-.191-.117-.266-.2-.074-.084-.132-.182-.168-.288l-.146-.409c-.077-.215-.067-.452.028-.659.094-.208.266-.371.479-.454l.399-.149c.105-.038.217-.055.329-.05.112.006.221.034.322.082.102.048.192.116.267.2.074.084.131.181.168.287l.146.408zm3.982-1.488c.078.216.068.452-.027.661-.094.208-.267.371-.48.454l-.396.149c-.106.038-.218.055-.33.049-.112-.005-.221-.033-.323-.081-.101-.048-.191-.116-.266-.2s-.132-.182-.168-.288l-.145-.409c-.077-.215-.067-.451.027-.659.095-.208.267-.371.48-.454l.397-.149c.106-.038.218-.055.329-.049.112.005.222.033.323.081.101.049.192.117.266.2.075.084.132.181.168.287l.146.407z" fill="#fff"/><path d="m88.7044 298.037c-.9036 0-1.6423-.758-1.6423-1.684v-21.335c0-.926.7387-1.684 1.6423-1.684.9035 0 1.6422.758 1.6422 1.684v21.335c0 .926-.7387 1.684-1.6422 1.684zm73.2876 27.038-14.21-14.574c-1.225-1.255-2.735-2.358-4.6-2.358h-24.145c-1.107 0-2.069.463-3.015.884l-33.7573 15.05c-2.7305 1.165-4.8683 3.66-4.0639 7.131.6125 2.64 3.0028 4.446 5.6509 4.446h75.8493c2.644 0 4.56-2.664 4.56-5.502v-.408c-.134-1.774-1.131-3.503-2.269-4.669z" fill="#230545"/><path d="m85.0358 333.408c-1.8489 0-3.5005-1.32-3.8229-3.186-.4748-2.741 1.9573-4.075 2.9496-4.497l33.4695-14.922c.757-.338 1.319-.404 1.949-.404 1.084 0 2.219.333 3.196 1.432l.061.067 14.033 14.391c1.166 1.194 1.684 2.196 1.684 3.247 0 1.754-1.517 3.872-3.399 3.872zm67.6782-8.333-14.243-14.605c-1.051-1.412-2.704-2.327-4.568-2.327h-4.599c1.864 0 3.516.915 4.567 2.327l14.242 14.605c.71.557 1.283 1.268 1.676 2.08.394.812.596 1.702.594 2.604 0 2.837-1.956 5.205-4.56 5.767l-.039.128h4.599l.039-.128c2.605-.562 4.56-2.93 4.56-5.768.003-.901-.2-1.792-.593-2.603-.393-.812-.966-1.523-1.675-2.08z" fill="#544463"/><path d="m86.633 327.363-.0261.01c-.4977.217-2.3653 1.155-1.5181 2.723.1792.326.4428.596.7631.784s.6853.285 1.0565.283h46.9146c.686 0 1.419-1.087 1.419-1.853 0-.17 0-.689-1.06-1.797l-13.184-13.77-.059-.062-.057-.064c-.389-.449-.983-.981-1.603-.981-.221 0-.768.248-1.208.448l-.174.079-31.239 14.188-.0261.012z" fill="#230545"/><path d="m92.8601 328.355c-1.2458 0-1.3303-.416-.1878-.927l24.7177-11.02c1.143-.51 2.8-.187 3.681.717l9.348 9.588c.883.903.584 1.642-.662 1.642h-36.898z" fill="#544463"/><path d="m119.913 319.653c0-.776-.613-1.404-1.37-1.404-.755 0-1.369.628-1.369 1.404 0 .775.614 1.403 1.369 1.403.757 0 1.369-.628 1.369-1.403zm7.117 6.456c0-.621-.49-1.122-1.095-1.122-.606 0-1.095.501-1.095 1.122 0 .62.49 1.123 1.096 1.123.605 0 1.094-.503 1.094-1.123zm-24.09 0c0-.621-.491-1.122-1.096-1.122s-1.095.501-1.095 1.122c0 .62.49 1.123 1.095 1.123s1.096-.503 1.096-1.123z" fill="#230545"/><path d="m164.261 329.665c.183-.171.157-.342.132-.748h-26.814l.001.24c0 .488-.098 1.001-.274 1.445h27.13c.016-.09.008-.182-.023-.267s-.083-.161-.152-.22v-.449zm-31.177-6.362h27.226l-1.463-1.684h-27.227zm-7.804-7.86h27.226l-1.464-1.685h-27.226z" fill="#544463"/><path d="m182.876 290.178h2.191v-4.492h-2.191z" fill="#230545"/><path d="m211.07 220.049s-1.823 1.396-2.289 2.563c-.896-3.019-5.181-7.253-5.181-7.253s-2.06.993-3.268 2.545c-1.972-5.256-7.353-10.406-7.353-10.406s-6.884 6.54-8.574 11.766c-1.112-1.254-2.045-2.187-2.045-2.187s-3.08 2.516-3.754 5.164c-1.143-1.722-3.427-2.358-3.427-2.358s-4.895 3.222-4.895 10.075v31.585c0 3.101 2.452 5.615 5.476 5.615h33.398c3.022 0 5.474-2.514 5.474-5.614v-31.586c0-7.217-3.562-9.909-3.562-9.909z" fill="#de5833"/><path d="m173.021 232.349v26.723c0 2.605 2.06 4.718 4.601 4.718h29.336c2.424 0 4.39-2.016 4.39-4.501v-26.94z" fill="#fff"/><path d="m206.709 225.049h-29.299c-2.424 0-4.388 2.015-4.388 4.501v2.799h38.326v-2.542c0-2.617-2.088-4.758-4.639-4.758z" fill="#230545"/><path d="m183.939 253.253c-2.462-3.433-2.382-8.239.232-11.552 3.345-4.24 9.323-4.647 13.136-1.33.155.134.356.203.561.194.205-.01.398-.098.54-.247l.473-.484c.08-.084.143-.183.184-.292s.06-.225.055-.342c-.005-.116-.033-.23-.083-.335s-.121-.199-.208-.276c-4.414-3.843-11.333-3.724-15.624.675-4.509 4.625-4.483 12.151.026 16.775 4.224 4.332 10.929 4.628 15.467.85l-1.597-1.732c-3.992 3.199-9.954 2.571-13.162-1.904z" fill="#6fbf5c"/><path d="m200.397 257.662v-3.978c.001-.073-.013-.145-.04-.212-.027-.068-.067-.13-.117-.182-.051-.052-.112-.094-.179-.122-.066-.029-.138-.044-.211-.045h-3.88c-.488 0-.732.605-.386.958l3.879 3.978c.344.355.934.104.934-.397z" fill="#6fbf5c"/><path d="m195.195 247.508h-3.558v-4.772c.002-.109-.018-.218-.059-.319-.04-.102-.101-.195-.177-.273s-.167-.141-.268-.184c-.1-.043-.209-.066-.318-.067-.109.001-.217.024-.318.067-.1.044-.191.106-.267.184-.077.079-.137.171-.177.273-.04.101-.061.21-.059.319v5.895c0 .31.245.561.548.561h4.653c.109-.001.217-.024.318-.067.1-.043.191-.105.267-.183.076-.079.136-.171.177-.273.04-.101.061-.209.059-.319.002-.109-.019-.217-.059-.319-.041-.101-.101-.193-.177-.272-.076-.078-.167-.14-.267-.183-.101-.043-.209-.066-.318-.068zm6.297-5.053c-1.815 0-3.286 1.508-3.286 3.368 0 1.861 1.471 3.369 3.286 3.369 1.814 0 3.285-1.508 3.285-3.369 0-1.86-1.471-3.368-3.285-3.368z" fill="#230545"/><path d="m204.986 250.392-3.569-3.66c-.128-.132-.199-.309-.199-.492 0-.184.071-.361.199-.493.062-.064.137-.115.219-.15.083-.035.171-.053.261-.053.089 0 .178.018.26.053.083.035.157.086.22.15l3.57 3.66c.128.133.199.309.199.493 0 .183-.071.36-.199.492-.062.065-.137.116-.219.151-.083.035-.172.053-.261.053-.09 0-.179-.018-.261-.053-.083-.035-.158-.086-.22-.151z" fill="#230545"/><path d="m201.492 247.509c-.907 0-1.642-.755-1.642-1.685 0-.929.735-1.684 1.642-1.684s1.642.755 1.642 1.684c0 .93-.735 1.685-1.642 1.685z" fill="#fff"/><path d="m185.066 227.857c-.605 0-1.095.503-1.095 1.123s.49 1.122 1.095 1.122c.606 0 1.096-.502 1.096-1.122s-.49-1.123-1.096-1.123z" fill="#6fbf5c"/><path d="m180.687 227.857c-.606 0-1.096.503-1.096 1.123s.49 1.122 1.096 1.122c.605 0 1.095-.502 1.095-1.122s-.49-1.123-1.095-1.123z" fill="#ffb652"/><path d="m176.307 227.858c-.605 0-1.095.502-1.095 1.122s.49 1.123 1.095 1.123c.603 0 1.095-.503 1.095-1.123s-.49-1.122-1.096-1.122zm39.694-13.476c-.22-.003-.43-.094-.584-.251-.154-.158-.239-.37-.237-.591v-2.806c-.002-.221.083-.433.237-.591s.364-.249.584-.252c.22.003.43.094.584.252.154.157.239.369.237.59v2.806c.003.221-.083.433-.236.591-.154.158-.364.249-.585.252zm-38.873-13.475c-.221-.003-.431-.094-.585-.251-.153-.158-.239-.37-.237-.591v-2.806c-.002-.221.084-.433.237-.59.154-.158.364-.249.585-.252.22.003.43.094.584.252.153.157.239.369.237.59v2.806c.002.221-.084.433-.237.591-.154.157-.364.248-.584.251zm14.509-7.298c-.903 0-1.643-.757-1.643-1.684v-3.369c0-.926.74-1.684 1.643-1.684s1.643.758 1.643 1.684v3.369c0 .927-.74 1.684-1.643 1.684z" fill="#de5833"/><path d="m185.614 201.469c-.602 0-1.095-.506-1.095-1.123v-.562c0-.617.493-1.122 1.095-1.122s1.096.505 1.096 1.122v.562c0 .617-.494 1.123-1.096 1.123zm15.878 3.368c-.602 0-1.095-.505-1.095-1.122v-.562c0-.617.493-1.122 1.095-1.122s1.096.505 1.096 1.122v.562c0 .617-.494 1.122-1.096 1.122zm-24.638 6.176c-.602 0-1.095-.505-1.095-1.123v-.561c0-.618.493-1.123 1.095-1.123s1.096.505 1.096 1.123v.561c0 .618-.494 1.123-1.096 1.123zm32.304-12.351c-.603 0-1.096-.505-1.096-1.123v-1.123c0-.617.493-1.123 1.096-1.123.602 0 1.095.506 1.095 1.123v1.123c0 .618-.493 1.123-1.095 1.123z" fill="#ffb652"/><path d="m187.727 263.282-1.936-1.985-5.715 5.861h3.871z" fill="#9c452d"/><path d="m180.076 267.158-2.218 2.275c-.194.201-.427.361-.684.47-.258.11-.535.166-.814.166-.28 0-.557-.056-.814-.166-.258-.109-.491-.269-.685-.47l-2.219-2.275h-3.453 3.453l-4.85-4.974c-.398-.412-.62-.963-.62-1.536s.222-1.124.62-1.536l7.154-7.336-1.937-1.986-7.291 7.477c-1.82 1.868-1.82 4.894 0 6.761l7.343 7.531c.428.443.94.795 1.506 1.036.567.241 1.176.365 1.792.365.615 0 1.224-.124 1.791-.365.566-.241 1.078-.593 1.506-1.036l4.292-4.401z" fill="#230545"/><path d="m173.487 268.599c.584-3.164-2.07-5.886-5.155-5.286-1.725.334-3.115 1.76-3.442 3.528-.584 3.165 2.07 5.887 5.156 5.288 1.724-.336 3.115-1.761 3.441-3.53z" fill="#230545"/><path d="m171.926 267.72c0-1.551-1.225-2.808-2.738-2.808-1.512 0-2.736 1.257-2.736 2.807 0 1.551 1.225 2.808 2.736 2.808 1.513 0 2.738-1.257 2.738-2.807z" fill="#4495d4"/><path d="m170.284 267.721c0-.621-.491-1.124-1.096-1.124-.604 0-1.095.503-1.095 1.123 0 .621.491 1.123 1.095 1.123.605 0 1.096-.502 1.096-1.123zm9.307-3.931h10.403v-3.93h-10.403z" fill="#fff"/><path d="m206.501 225.049c-.949-2.632-3.135-3.996-3.135-3.996s-.886.652-2.051 1.806c-.805.797-2.143.54-2.619-.498-2.155-4.705-5.639-7.809-5.639-7.809s-4.133 4.422-6.403 8.378c-.53.926-1.744 1.13-2.519.41-.566-.526-1.012-.928-1.012-.928s-1.646 1.095-2.793 2.637z" fill="#ffb652"/><path d="m99.1066 237.402c-3.0226 0-5.4745 2.515-5.4745 5.614 0 3.102 2.4519 5.615 5.4745 5.615 3.0244 0 5.4754-2.515 5.4754-5.614 0-3.101-2.452-5.615-5.4754-5.615zm23.5434-17.966h1.642v-7.299h-1.642z" fill="#230545"/><path d="m127.269 218.313h-13.619c-1.374 0-2.498 1.074-2.498 2.386v.842c0 1.311 1.124 2.386 2.498 2.386h13.619c1.374 0 2.499-1.075 2.499-2.386v-.842c0-1.313-1.125-2.386-2.499-2.386z" fill="#230545"/><path d="m117.521 221.541v-.842c0-1.313-1.125-2.386-2.499-2.386h-1.371c-1.374 0-2.499 1.074-2.499 2.386v.842c0 1.311 1.125 2.386 2.499 2.386h1.371c1.374 0 2.499-1.075 2.499-2.386z" fill="#544463"/><path d="m118.856 221.681h-10.489c-1.484 0-2.828.877-3.155 2.155-.466 1.835 1.101 3.46 3.099 3.46h10.602c1.998 0 3.566-1.625 3.098-3.46-.326-1.278-1.67-2.155-3.155-2.155z" fill="#4495d4"/><path d="m137.897 223.836c-.326-1.278-1.669-2.155-3.154-2.155h-21.997c1.757 0 3.18 1.257 3.18 2.808 0 1.55-1.423 2.806-3.18 2.806h22.053c1.998 0 3.566-1.624 3.099-3.459" fill="#357db6"/><path d="m122.679 256.69h-8.356l-3.029 11.591h8.358z" fill="#544463"/><path d="m127.964 256.69h-10.677l-3.029 11.591h10.677z" fill="#230545"/><path d="m131.602 225.611h-31.044c-2.3038 0-4.1881 1.952-4.1881 4.339v25.009c0 2.387 1.8843 4.339 4.1881 4.339h31.044c2.304 0 4.188-1.952 4.188-4.338v-25.009c0-2.388-1.884-4.34-4.188-4.34z" fill="#7cb5e0"/><path d="m157.69 242.532c0-9.345-7.308-16.921-16.324-16.921h-39.522c.139 0 .278.008.413.021 8.657.449 15.543 7.809 15.543 16.823v12.524c0 2.376-1.888 4.319-4.198 4.319h39.902c2.303 0 4.186-1.952 4.186-4.338z" fill="#4495d4"/><path d="m147.97 259.298c2.208 0 4.04-2.282 4.256-4.492h-14.669c-.217 2.21-2.049 4.492-4.257 4.492z" fill="#7cb5e0"/><path d="m157.691 248.069h-6.571v6.341c0 .134-.007.266-.021.396h6.592zm-20.258 0h-14.783v2.646c0 2.25 1.95 4.09 4.333 4.09h10.428l.022-.021z" fill="#357db6"/><path d="m137.433 254.807h14.783v-6.737h-14.784zm-28.876-18.528h-4.116c-2.341 0-4.239 1.946-4.239 4.347v4.781c0 2.4 1.898 4.347 4.239 4.347h4.116c2.34 0 4.238-1.946 4.238-4.347v-4.781c0-2.4-1.898-4.347-4.238-4.347z" fill="#4495d4"/><path d="m108.962 245.407c0 2.4-1.961 4.347-4.38 4.347s-4.38-1.947-4.38-4.347v-4.781c0-2.4 1.961-4.347 4.38-4.347 2.42 0 4.38 1.947 4.38 4.347z" fill="#357db6"/><path d="m124.176 201.727c-.164.001-.323-.057-.448-.163-1.299-1.09-2.942-1.684-4.637-1.676-1.716 0-3.364.595-4.636 1.676-.133.111-.302.169-.476.163-.173-.007-.338-.077-.462-.199-.059-.057-.105-.126-.135-.202s-.044-.158-.04-.239c.004-.082.025-.162.062-.236.037-.073.089-.137.153-.189 1.518-1.289 3.484-2 5.534-2 2.051 0 4.017.711 5.535 2.002.269.229.287.616.039.864-.131.129-.306.2-.489.199zm-1.877 2.55c-.159.001-.314-.053-.438-.153-.785-.631-1.763-.973-2.77-.97-1.017 0-2.001.345-2.77.97-.136.108-.306.162-.479.152s-.336-.084-.458-.207c-.057-.059-.102-.129-.13-.206s-.04-.159-.034-.24c.006-.082.028-.162.067-.234.039-.073.092-.136.157-.186 1.034-.829 2.322-1.278 3.647-1.273 1.34 0 2.635.452 3.647 1.273.065.05.118.114.157.186.038.072.061.152.067.234s-.006.164-.034.24c-.029.077-.073.147-.13.206-.065.067-.142.119-.228.155s-.178.054-.271.053z" fill="#ffb652"/><path d="m152.327 230.103h-33.509c2.65 2.924 3.833 6.784 3.833 11.018v7.198c0 2.333 2.352 4.241 4.7 4.241h24.978c2.347 0 4.267-1.909 4.267-4.241v-13.974c0-2.333-1.92-4.242-4.267-4.242" fill="#7cb5e0"/><path d="m133.6 251.437c-1.811 0-3.285-1.511-3.285-3.368v-13.476c0-1.857 1.474-3.369 3.285-3.369h24.638c1.812 0 3.286 1.511 3.286 3.369v13.475c0 1.857-1.474 3.368-3.286 3.368h-24.638z" fill="#230545"/><path d="m158.239 230.103h-24.638c-2.41 0-4.381 2.021-4.381 4.492v13.475c0 2.47 1.972 4.491 4.381 4.491h24.638c2.41 0 4.38-2.021 4.38-4.491v-13.476c0-2.471-1.971-4.492-4.38-4.492zm0 2.246c1.208 0 2.191 1.006 2.191 2.245v13.475c0 1.239-.983 2.245-2.191 2.245h-24.638c-1.209 0-2.191-1.006-2.191-2.245v-13.475c0-1.239.982-2.245 2.192-2.245z" fill="#544463"/><path d="m144.551 244.7c.614 1.317 2.097 2.246 3.833 2.246 1.735 0 3.219-.929 3.832-2.246z" fill="#e5e5e5"/><path d="m141.814 239.087c0-.931-.736-1.684-1.643-1.684-.908 0-1.643.753-1.643 1.684s.736 1.684 1.643 1.684 1.642-.753 1.642-1.684zm16.425 0c0-.931-.736-1.684-1.643-1.684s-1.642.753-1.642 1.684.735 1.684 1.642 1.684c.908 0 1.643-.753 1.643-1.684z" fill="#82dcff"/><path d="m104.622 246.947h-.079c-.882 0-1.603-.741-1.603-1.644v-4.574c0-.903.72-1.643 1.603-1.643h.079c.881 0 1.602.74 1.602 1.643v4.574c0 .904-.721 1.643-1.602 1.643zm18.849-36.868c-.755 0-1.369.628-1.369 1.403v.936c0 .775.614 1.403 1.369 1.403.756 0 1.369-.628 1.369-1.403v-.936c0-.775-.613-1.403-1.369-1.403zm-5.201 8.795h1.642v-10.667h-1.642z" fill="#230545"/><path d="m119.091 206.149c-.755 0-1.369.628-1.369 1.403v.936c0 .775.614 1.403 1.369 1.403.756 0 1.369-.628 1.369-1.403v-.936c0-.775-.613-1.403-1.369-1.403z" fill="#230545"/></g></svg>