<svg fill="none" height="365" viewBox="0 0 320 365" width="320" xmlns="http://www.w3.org/2000/svg" xmlns:xlink="http://www.w3.org/1999/xlink"><filter id="a" color-interpolation-filters="sRGB" filterUnits="userSpaceOnUse" height="229.413" width="235.332" x="42.1968" y="223.326"><feFlood flood-opacity="0" result="BackgroundImageFix"/><feColorMatrix in="SourceAlpha" type="matrix" values="0 0 0 0 0 0 0 0 0 0 0 0 0 0 0 0 0 0 127 0"/><feOffset/><feGaussianBlur stdDeviation="1.5"/><feColorMatrix type="matrix" values="0 0 0 0 0 0 0 0 0 0 0 0 0 0 0 0 0 0 0.1 0"/><feBlend in2="BackgroundImageFix" mode="normal" result="effect1_dropShadow"/><feBlend in="SourceGraphic" in2="effect1_dropShadow" mode="normal" result="shape"/></filter><filter id="b" color-interpolation-filters="sRGB" filterUnits="userSpaceOnUse" height="193" width="309" x="5" y="47"><feFlood flood-opacity="0" result="BackgroundImageFix"/><feColorMatrix in="SourceAlpha" type="matrix" values="0 0 0 0 0 0 0 0 0 0 0 0 0 0 0 0 0 0 127 0"/><feOffset dy="10"/><feGaussianBlur stdDeviation="11.5"/><feColorMatrix type="matrix" values="0 0 0 0 0 0 0 0 0 0 0 0 0 0 0 0 0 0 0.1 0"/><feBlend in2="BackgroundImageFix" mode="normal" result="effect1_dropShadow"/><feBlend in="SourceGraphic" in2="effect1_dropShadow" mode="normal" result="shape"/></filter><filter id="c" color-interpolation-filters="sRGB" filterUnits="userSpaceOnUse" height="174.245" width="289.617" x="15" y="43.0414"><feFlood flood-opacity="0" result="BackgroundImageFix"/><feColorMatrix in="SourceAlpha" type="matrix" values="0 0 0 0 0 0 0 0 0 0 0 0 0 0 0 0 0 0 127 0"/><feOffset/><feGaussianBlur stdDeviation="2"/><feColorMatrix type="matrix" values="0 0 0 0 0 0 0 0 0 0 0 0 0 0 0 0 0 0 0.1 0"/><feBlend in2="BackgroundImageFix" mode="normal" result="effect1_dropShadow"/><feBlend in="SourceGraphic" in2="effect1_dropShadow" mode="normal" result="shape"/></filter><filter id="d" color-interpolation-filters="sRGB" filterUnits="userSpaceOnUse" height="36.1986" width="221.716" x="49.3596" y="2.31479"><feFlood flood-opacity="0" result="BackgroundImageFix"/><feColorMatrix in="SourceAlpha" type="matrix" values="0 0 0 0 0 0 0 0 0 0 0 0 0 0 0 0 0 0 127 0"/><feOffset/><feGaussianBlur stdDeviation="2"/><feColorMatrix type="matrix" values="0 0 0 0 0 0 0 0 0 0 0 0 0 0 0 0 0 0 0.1 0"/><feBlend in2="BackgroundImageFix" mode="normal" result="effect1_dropShadow"/><feBlend in="SourceGraphic" in2="effect1_dropShadow" mode="normal" result="shape"/></filter><linearGradient id="e" gradientUnits="userSpaceOnUse" x1="160" x2="160" y1="220" y2="303"><stop offset="0" stop-color="#c4c4c4"/><stop offset="1" stop-color="#c4c4c4" stop-opacity="0"/></linearGradient><linearGradient id="f"><stop offset=".01" stop-color="#6176b9"/><stop offset=".69" stop-color="#394a9f"/></linearGradient><linearGradient id="g" gradientUnits="userSpaceOnUse" x1="64.1697" x2="65.3359" xlink:href="#f" y1="18.0858" y2="18.0858"/><linearGradient id="h" gradientUnits="userSpaceOnUse" x1="67.8372" x2="68.9" xlink:href="#f" y1="17.5551" y2="17.5551"/><clipPath id="i"><path d="m45.1968 226.326h229.332v38.4685h-229.332z"/></clipPath><mask id="j" height="83" maskUnits="userSpaceOnUse" width="320" x="0" y="220"><path d="m0 220h320v83h-320z" fill="url(#e)"/></mask><mask id="k" height="14" maskUnits="userSpaceOnUse" width="8" x="63" y="14"><path clip-rule="evenodd" d="m70.4725 27.1668c-.9297.4314-1.9637.6721-3.0534.6721-1.5249 0-2.9422-.4727-4.1161-1.2816v-11.8743h7.1695z" fill="#fff" fill-rule="evenodd"/></mask><mask id="l" height="14" maskUnits="userSpaceOnUse" width="8" x="63" y="14"><path clip-rule="evenodd" d="m70.7866 27.0108c-1.0087.5284-2.1537.8273-3.3678.8273-1.4062 0-2.7208-.4019-3.8375-1.0988v-12.1001h7.2053z" fill="#fff" fill-rule="evenodd"/></mask><mask id="m" height="15" maskUnits="userSpaceOnUse" width="15" x="60" y="13"><path clip-rule="evenodd" d="m67.165 27.2414c3.9081 0 7.0763-3.1682 7.0763-7.0764 0-3.9081-3.1682-7.0763-7.0763-7.0763-3.9082 0-7.0764 3.1682-7.0764 7.0763 0 3.9082 3.1682 7.0764 7.0764 7.0764z" fill="#fff" fill-rule="evenodd"/></mask><g mask="url(#j)"><g filter="url(#a)"><rect fill="#fff" height="222.674" rx="3.6989" width="229.332" x="45.1968" y="226.326"/><path d="m45.1968 301.784h229.3312v.74h-229.3312z" fill="#000" fill-opacity=".05"/><g fill="#333"><path d="m89.9257 286.111v-1.067h-3.0553c1.8435-1.398 3.0139-2.537 3.0139-3.821 0-1.378-1.16-2.124-2.4961-2.124-.9735 0-1.9471.363-2.5581 1.109l.7042.787c.4454-.497 1.0565-.819 1.8643-.819.6318 0 1.2635.322 1.2635 1.047 0 1.004-1.0564 1.895-3.7388 3.925v.963z"/><path d="m96.829 286.111v-5.841h2.0921v-1.067h-5.396v1.067h2.0921v5.841z"/><path d="m100.226 286.111v-3.407c.217-.363.828-.674 1.294-.674.135 0 .238.011.332.031v-1.077c-.643 0-1.243.373-1.626.85v-.725h-1.0879v5.002z"/><path d="m106.882 286.111v-3.325c0-1.336-.974-1.802-2.092-1.802-.798 0-1.523.249-2.103.808l.456.756c.425-.435.922-.642 1.481-.642.683 0 1.17.352 1.17.932v.746c-.373-.425-.942-.642-1.626-.642-.818 0-1.729.476-1.729 1.636 0 1.098.921 1.657 1.729 1.657.663 0 1.253-.238 1.626-.673v.549zm-2.279-.621c-.611 0-1.077-.353-1.077-.901 0-.539.466-.902 1.077-.902.466 0 .932.177 1.191.518v.767c-.259.341-.725.518-1.191.518z"/><path d="m110.57 286.235c.984 0 1.564-.424 1.916-.89l-.715-.674c-.279.394-.663.601-1.149.601-.901 0-1.512-.694-1.512-1.667 0-.974.611-1.658 1.512-1.658.486 0 .87.187 1.149.58l.715-.652c-.352-.476-.932-.891-1.916-.891-1.512 0-2.579 1.108-2.579 2.621 0 1.512 1.067 2.63 2.579 2.63z"/><path d="m118.131 286.111-2.113-2.734 2.072-2.268h-1.347l-2.206 2.413v-4.319h-1.087v6.908h1.087v-1.346l.704-.725 1.523 2.071z"/><path d="m121.181 286.235c.787 0 1.522-.259 2.03-.735l-.498-.715c-.362.363-.932.56-1.429.56-.942 0-1.502-.632-1.584-1.378h3.852v-.269c0-1.574-.952-2.714-2.454-2.714-1.481 0-2.538 1.171-2.538 2.621 0 1.584 1.109 2.63 2.621 2.63zm1.325-3.045h-2.817c.042-.6.477-1.315 1.398-1.315.984 0 1.388.725 1.419 1.315z"/><path d="m125.713 286.111v-3.407c.218-.363.829-.674 1.295-.674.135 0 .238.011.331.031v-1.077c-.642 0-1.243.373-1.626.85v-.725h-1.087v5.002z"/><path d="m129.936 286.235c1.346 0 2.081-.673 2.081-1.564 0-1.988-3.024-1.325-3.024-2.206 0-.352.352-.621.922-.621.632 0 1.181.269 1.481.601l.456-.767c-.446-.393-1.088-.694-1.937-.694-1.264 0-1.968.694-1.968 1.512 0 1.927 3.024 1.223 3.024 2.206 0 .394-.342.663-.994.663-.642 0-1.336-.331-1.688-.694l-.497.777c.518.508 1.284.787 2.144.787z"/><path d="m139.293 286.111c1.305 0 2.009-.798 2.009-1.875 0-.839-.59-1.574-1.336-1.688.642-.134 1.202-.725 1.202-1.584 0-.974-.694-1.761-1.968-1.761h-3.397v6.908zm-.331-4.06h-1.948v-1.781h1.948c.611 0 .963.383.963.89 0 .529-.352.891-.963.891zm.051 2.993h-1.999v-1.926h1.999c.684 0 1.046.445 1.046.963 0 .601-.393.963-1.046.963z"/><path d="m143.585 286.111v-6.908h-1.087v6.908z"/><path d="m147.264 286.235c1.595 0 2.568-1.201 2.568-2.63 0-1.44-.973-2.621-2.568-2.621s-2.569 1.181-2.569 2.621c0 1.429.974 2.63 2.569 2.63zm0-.963c-.922 0-1.44-.777-1.44-1.667 0-.881.518-1.658 1.44-1.658.932 0 1.439.777 1.439 1.658 0 .89-.507 1.667-1.439 1.667z"/><path d="m153.221 286.235c.984 0 1.564-.424 1.916-.89l-.714-.674c-.28.394-.663.601-1.15.601-.901 0-1.512-.694-1.512-1.667 0-.974.611-1.658 1.512-1.658.487 0 .87.187 1.15.58l.714-.652c-.352-.476-.932-.891-1.916-.891-1.512 0-2.579 1.108-2.579 2.621 0 1.512 1.067 2.63 2.579 2.63z"/><path d="m160.782 286.111-2.112-2.734 2.071-2.268h-1.346l-2.206 2.413v-4.319h-1.088v6.908h1.088v-1.346l.704-.725 1.522 2.071z"/><path d="m163.832 286.235c.787 0 1.523-.259 2.03-.735l-.497-.715c-.363.363-.932.56-1.429.56-.943 0-1.502-.632-1.585-1.378h3.853v-.269c0-1.574-.953-2.714-2.455-2.714-1.481 0-2.537 1.171-2.537 2.621 0 1.584 1.108 2.63 2.62 2.63zm1.326-3.045h-2.817c.041-.6.476-1.315 1.398-1.315.984 0 1.388.725 1.419 1.315z"/><path d="m171.886 286.111v-6.908h-1.087v2.599c-.394-.538-.974-.818-1.606-.818-1.284 0-2.216 1.005-2.216 2.621 0 1.657.942 2.63 2.216 2.63.653 0 1.222-.31 1.606-.808v.684zm-2.372-.839c-.87 0-1.419-.694-1.419-1.667 0-.964.549-1.658 1.419-1.658.508 0 1.046.301 1.285.674v1.978c-.239.373-.777.673-1.285.673z"/></g><path clip-rule="evenodd" d="m68.5786 281.417c.2578.248.2661.657.0184.915l-2.8424 2.959c-.122.127-.2906.199-.4668.199s-.3448-.072-.4668-.199l-1.5963-1.662c-.2477-.257-.2394-.667.0184-.915.2578-.247.6676-.239.9152.019l1.1295 1.176 2.3755-2.474c.2477-.257.6575-.266.9153-.018z" fill="#3ea140" fill-rule="evenodd"/><path clip-rule="evenodd" d="m65.9109 288.653c2.9622 0 5.3634-2.401 5.3634-5.364 0-2.962-2.4012-5.363-5.3634-5.363-2.9621 0-5.3634 2.401-5.3634 5.363 0 2.963 2.4013 5.364 5.3634 5.364zm6.6581-5.364c0 3.678-2.9809 6.658-6.6581 6.658-3.6771 0-6.658-2.98-6.658-6.658 0-3.677 2.9809-6.658 6.658-6.658 3.6772 0 6.6581 2.981 6.6581 6.658z" fill="#3ea140" fill-rule="evenodd"/><path d="m45.1968 264.055h229.3312v.74h-229.3312z" fill="#000" fill-opacity=".05"/><g clip-path="url(#i)"><g fill="#333"><path d="m89.1337 248.382v-1.067h-3.5213v-1.926h3.4488v-1.067h-3.4488v-1.781h3.5213v-1.067h-4.7331v6.908z"/><path d="m94.8212 248.382v-3.521c0-1.025-.5385-1.605-1.6157-1.605-.7871 0-1.4396.403-1.771.797v-.673h-1.0875v5.002h1.0875v-3.5c.2589-.332.7354-.663 1.2843-.663.611 0 1.0149.248 1.0149 1.035v3.128z"/><path d="m98.512 248.507c.9839 0 1.564-.425 1.916-.891l-.7146-.673c-.2796.393-.6628.6-1.1496.6-.9011 0-1.5121-.694-1.5121-1.667 0-.974.611-1.657 1.5121-1.657.4868 0 .87.186 1.1496.58l.7146-.653c-.352-.476-.9321-.89-1.916-.89-1.5121 0-2.5789 1.108-2.5789 2.62s1.0668 2.631 2.5789 2.631z"/><path d="m102.479 248.382v-3.407c.218-.363.829-.673 1.295-.673.134 0 .238.01.331.031v-1.077c-.642 0-1.243.372-1.626.849v-.725h-1.087v5.002z"/><path d="m104.775 250.34c.145.041.456.072.611.072.777-.01 1.367-.279 1.709-1.129l2.413-5.903h-1.16l-1.46 3.749-1.46-3.749h-1.171l2.061 5.064-.248.57c-.145.331-.373.435-.725.435-.125 0-.301-.031-.415-.083z"/><path d="m112.884 248.507c1.294 0 2.216-.984 2.216-2.631s-.922-2.62-2.216-2.62c-.653 0-1.233.31-1.605.807v-.683h-1.088v6.908h1.088v-2.6c.414.529.973.819 1.605.819zm-.321-.964c-.508 0-1.046-.31-1.284-.683v-1.978c.248-.373.776-.663 1.284-.663.859 0 1.419.683 1.419 1.657 0 .973-.56 1.667-1.419 1.667z"/><path d="m117.701 248.507c.497 0 .818-.145 1.015-.322l-.259-.828c-.083.093-.269.186-.477.186-.31 0-.476-.259-.476-.6v-2.621h1.015v-.942h-1.015v-1.367h-1.087v1.367h-.829v.942h.829v2.89c0 .839.435 1.295 1.284 1.295z"/><path d="m121.816 248.507c.787 0 1.522-.259 2.03-.736l-.497-.714c-.363.362-.932.559-1.429.559-.943 0-1.502-.632-1.585-1.378h3.853v-.269c0-1.574-.953-2.713-2.455-2.713-1.481 0-2.537 1.17-2.537 2.62 0 1.584 1.108 2.631 2.62 2.631zm1.326-3.045h-2.817c.041-.601.476-1.316 1.398-1.316.984 0 1.388.725 1.419 1.316z"/><path d="m129.87 248.382v-6.908h-1.087v2.6c-.394-.539-.974-.818-1.606-.818-1.284 0-2.216 1.004-2.216 2.62 0 1.657.942 2.631 2.216 2.631.653 0 1.222-.311 1.606-.808v.683zm-2.372-.839c-.87 0-1.419-.694-1.419-1.667 0-.963.549-1.657 1.419-1.657.508 0 1.046.3 1.285.673v1.978c-.239.373-.777.673-1.285.673z"/><path d="m137.305 248.507c1.388 0 2.247-.736 2.776-1.564l-1.036-.518c-.332.569-1.005 1.004-1.74 1.004-1.367 0-2.382-1.056-2.382-2.496 0-1.46 1.015-2.496 2.382-2.496.735 0 1.408.425 1.74 1.005l1.025-.539c-.507-.828-1.377-1.543-2.765-1.543-2.04 0-3.625 1.44-3.625 3.573 0 2.124 1.585 3.574 3.625 3.574z"/><path d="m143.277 248.507c1.595 0 2.569-1.202 2.569-2.631 0-1.44-.974-2.62-2.569-2.62s-2.568 1.18-2.568 2.62c0 1.429.973 2.631 2.568 2.631zm0-.964c-.922 0-1.44-.776-1.44-1.667 0-.88.518-1.657 1.44-1.657.932 0 1.44.777 1.44 1.657 0 .891-.508 1.667-1.44 1.667z"/><path d="m151.43 248.382v-3.521c0-1.025-.538-1.605-1.615-1.605-.788 0-1.44.403-1.771.797v-.673h-1.088v5.002h1.088v-3.5c.258-.332.735-.663 1.284-.663.611 0 1.015.248 1.015 1.035v3.128z"/><path d="m157.317 248.382v-3.521c0-1.025-.539-1.605-1.616-1.605-.787 0-1.44.403-1.771.797v-.673h-1.088v5.002h1.088v-3.5c.259-.332.735-.663 1.284-.663.611 0 1.015.248 1.015 1.035v3.128z"/><path d="m161.049 248.507c.787 0 1.522-.259 2.03-.736l-.497-.714c-.363.362-.932.559-1.43.559-.942 0-1.501-.632-1.584-1.378h3.853v-.269c0-1.574-.953-2.713-2.455-2.713-1.481 0-2.537 1.17-2.537 2.62 0 1.584 1.108 2.631 2.62 2.631zm1.326-3.045h-2.818c.042-.601.477-1.316 1.399-1.316.984 0 1.387.725 1.419 1.316z"/><path d="m166.773 248.507c.983 0 1.563-.425 1.916-.891l-.715-.673c-.28.393-.663.6-1.15.6-.901 0-1.512-.694-1.512-1.667 0-.974.611-1.657 1.512-1.657.487 0 .87.186 1.15.58l.715-.653c-.353-.476-.933-.89-1.916-.89-1.513 0-2.579 1.108-2.579 2.62s1.066 2.631 2.579 2.631z"/><path d="m171.164 248.507c.497 0 .819-.145 1.015-.322l-.259-.828c-.082.093-.269.186-.476.186-.311 0-.476-.259-.476-.6v-2.621h1.015v-.942h-1.015v-1.367h-1.088v1.367h-.828v.942h.828v2.89c0 .839.435 1.295 1.284 1.295z"/><path d="m173.508 242.769c.373 0 .674-.301.674-.673 0-.373-.301-.674-.674-.674-.372 0-.673.301-.673.674 0 .372.301.673.673.673zm.539 5.613v-5.002h-1.087v5.002z"/><path d="m177.726 248.507c1.595 0 2.568-1.202 2.568-2.631 0-1.44-.973-2.62-2.568-2.62s-2.569 1.18-2.569 2.62c0 1.429.974 2.631 2.569 2.631zm0-.964c-.922 0-1.44-.776-1.44-1.667 0-.88.518-1.657 1.44-1.657.932 0 1.44.777 1.44 1.657 0 .891-.508 1.667-1.44 1.667z"/><path d="m185.879 248.382v-3.521c0-1.025-.538-1.605-1.616-1.605-.787 0-1.439.403-1.771.797v-.673h-1.087v5.002h1.087v-3.5c.259-.332.736-.663 1.285-.663.611 0 1.015.248 1.015 1.035v3.128z"/></g><path clip-rule="evenodd" d="m68.5786 243.688c.2578.248.2661.658.0184.916l-2.8424 2.959c-.122.127-.2906.199-.4668.199s-.3448-.072-.4668-.199l-1.5963-1.662c-.2477-.258-.2394-.668.0184-.915.2578-.248.6676-.24.9152.018l1.1295 1.176 2.3755-2.473c.2477-.258.6575-.266.9153-.019z" fill="#3ea140" fill-rule="evenodd"/><path clip-rule="evenodd" d="m65.9109 250.924c2.9622 0 5.3634-2.401 5.3634-5.363s-2.4012-5.364-5.3634-5.364c-2.9621 0-5.3634 2.402-5.3634 5.364s2.4013 5.363 5.3634 5.363zm6.6581-5.363c0 3.677-2.9809 6.658-6.6581 6.658-3.6771 0-6.658-2.981-6.658-6.658s2.9809-6.658 6.658-6.658c3.6772 0 6.6581 2.981 6.6581 6.658z" fill="#3ea140" fill-rule="evenodd"/></g><path clip-rule="evenodd" d="m256.982 276.099c-.277.276-.277.727 0 1.003l3.248 3.228-3.248 3.228c-.277.276-.277.728 0 1.004.278.276.732.276 1.01 0l3.752-3.73c.278-.276.278-.728 0-1.004l-3.752-3.729c-.278-.276-.732-.276-1.01 0z" fill="#aaa" fill-rule="evenodd"/></g></g><path d="m147.372 360.31v-.364c0-1.94-1.855-3.88-3.833-3.88h-32.328c-1.978 0-3.462 1.94-3.462 3.88v.364z" fill="#240f45"/><path d="m111.52 363.342c0 .667-.556 1.212-1.236 1.212s-1.237-.545-1.237-1.212v-3.032c0-.667.557-1.212 1.237-1.212s1.236.545 1.236 1.212zm17.308 0c0 .667-.557 1.212-1.236 1.212-.68 0-1.237-.545-1.237-1.212v-3.032c0-.667.557-1.212 1.237-1.212s1.236.545 1.236 1.212zm16.689 0c0 .667-.556 1.212-1.236 1.212s-1.236-.545-1.236-1.212v-3.032c0-.667.556-1.212 1.236-1.212s1.236.545 1.236 1.212z" fill="#240f45"/><path d="m198.675 272.03h-20.507c-1.115 0-2.354.874-2.664 1.935l-8.921 26.838c-.372 1.06.248 1.81 1.425 1.81h20.445c1.115 0 2.23-.75 2.602-1.81l.743-2.122 8.736-26.463c-.434-.125-.805-.188-1.859-.188z" fill="#ffb464"/><path d="m178.168 273.965c-.247 0-.681.312-.743.562l-8.674 26.276h19.64c.248 0 .62-.312.681-.562l8.612-26.276z" fill="#fff"/><path d="m152.085 298.93h24.162v3.746h-24.162z" fill="#554563"/><path d="m176.62 297.999c0 .561-.558.998-1.24.998h-12.886c-.682 0-1.24-.437-1.24-.998 0-.562.558-.999 1.24-.999h12.886c.682 0 1.24.437 1.24.999z" fill="#ffb464"/><path d="m190.931 297.999c0 .561-.558.998-1.24.998h-13.877c-.681 0-1.239-.437-1.239-.998 0-.562.558-.999 1.24-.999h13.877c.681 0 1.239.437 1.239.999z" fill="#ffb464"/><path d="m201.773 273.154-.248-.25c-.31-.25-.743-.5-1.115-.624l-8.736 26.65h-18.152c-1.115 0-2.045.75-2.045 1.873s.93 1.872 2.045 1.872h18.4c.868 0 1.797-.749 2.169-1.81l8.178-24.59c.371-1.124.186-2.435-.496-3.121z" fill="#240f45"/><path d="m190.931 280.207h-13.258l1.425-3.745h13.258z" fill="#6fc05c"/><path d="m185.95 283.951h-9.516l.844-2.496h9.516zm-1.24 3.121h-9.515l.844-1.872h9.516z" fill="#e0e1e5"/><path d="m154.564 310.789v38.072h-17.348v-38.072h-3.716v53.051h3.717v-11.858h17.348v11.858h4.337v-53.051zm22.304-8.114h52.042v4.37h-52.042z" fill="#240f45"/><path d="m114.913 302.675h61.955v4.37h-61.955z" fill="#554563"/><path d="m121.728 305.796h100.366v6.241h-100.366z" fill="#240f45"/><path d="m151.466 260.047c0 3.246-2.602 5.805-5.824 5.805h-.186c-3.221 0-5.823-2.622-5.823-5.805v-3.932c0-3.245 2.602-5.804 5.823-5.804h.186c3.222 0 5.824 2.621 5.824 5.804z" fill="#461450"/><path d="m139.819 273.466c-1.921 1.935-1.921 5.118 0 7.115 1.92 1.935 5.08 1.935 7.062 0l7.063-7.115c1.92-1.935 1.92-5.118 0-7.115-1.92-1.935-5.08-1.935-7.063 0z" fill="#de5934"/><path d="m170.052 257.488c.002-.458-.085-.911-.259-1.335-.173-.423-.428-.808-.75-1.133-.323-.325-.706-.583-1.128-.759-.423-.176-.876-.267-1.333-.268h-6.752c-1.92 0-3.47 1.56-3.47 3.495v.562c0 1.935 1.55 3.495 3.47 3.495h6.753c1.92 0 3.47-1.56 3.47-3.495v-.562z" fill="#461450"/><path d="m163.237 260.234c0-3.807-3.035-6.865-6.815-6.865-3.779 0-6.815 3.058-6.815 6.865v11.236c0 3.807 3.036 6.865 6.815 6.865 3.78 0 6.815-3.058 6.815-6.865z" fill="#de5934"/><path d="m164.229 249h-11.524c-1.3 0-2.354.5-3.098 1.498l-8.054 8.176v6.928c0 2.122 1.611 3.87 3.718 3.87 2.106 0 3.717-1.748 3.717-3.87v-1.935s.186.062.248.062c4.336 0 8.116-2.87 10.098-5.991h4.895c2.354 0 3.965-2.06 3.965-4.37v-.248c0-2.372-1.611-4.12-3.965-4.12z" fill="#461450"/><path d="m148.492 266.725c1.677 0 3.036-1.369 3.036-3.058s-1.359-3.058-3.036-3.058-3.036 1.369-3.036 3.058 1.359 3.058 3.036 3.058z" fill="#de5934"/><path d="m155.183 260.422c0-1.498-1.177-2.684-2.664-2.684h-.186c-1.487 0-2.664 1.186-2.664 2.684v5.18c0 1.498 1.177 2.684 2.664 2.684h.186c1.487 0 2.664-1.186 2.664-2.684z" fill="#461450"/><path d="m180.709 288.882c-.62-1.436-1.983-2.372-3.532-2.372-.496 0-.991.125-1.487.312l-14.435 5.992-12.33-12.42-6.69 6.678 12.019 12.108c1.735 1.748 3.78 2.434 5.142 2.434 2.045 0 2.726 0 6.443-1.623l12.825-5.991c.93-.375 1.673-1.124 2.106-2.06.31-1.06.31-2.122-.061-3.058z" fill="#de5934"/><path d="m131.269 296.746 16.294-16.477-7.683-7.74c-2.044 0-4.15.25-6.01.75-11.585 2.87-20.754 13.793-20.754 26.65v10.86h25.959v-.936c0-5.68-3.16-10.548-7.806-13.107z" fill="#f1a032"/><path d="m121.728 302.488c0-14.917 8.302-25.277 22.613-25.277l-4.646-4.619c-14.312 0-26.64 12.42-26.64 27.337v10.86h8.673z" fill="#fcb554"/><path d="m113.054 310.789h26.021v3.745h-26.02zm61.769 11.921c.991-2.372-.124-5.118-2.478-6.117-2.355-.998-5.08.125-6.072 2.497l-10.656 25.964 7.063 7.115 12.143-29.46z" fill="#240f45"/><path d="m168.875 314.534h-55.635c0 6.865 5.638 12.482 12.515 12.482h43.058c3.346 0 6.134-2.87 6.134-6.241 0-3.37-2.726-6.241-6.072-6.241z" fill="#240f45"/><path d="m150.103 281.642-9.17-9.3c-.425-.43-.932-.772-1.49-1.005-.559-.233-1.158-.353-1.763-.353-.604 0-1.203.12-1.762.353-.558.233-1.065.575-1.49 1.005-1.734 1.748-2.044 4.806-.31 6.554l9.356 9.424z" fill="#fcb554"/><path d="m159.52 264.978c.003.115-.017.23-.059.337-.043.107-.106.204-.187.286s-.178.146-.285.189-.221.064-.336.062h-.124c-.115.002-.23-.018-.337-.062-.106-.043-.203-.107-.284-.189-.082-.082-.145-.179-.188-.286-.042-.107-.062-.222-.059-.337v-.187c0-.5.372-.874.868-.874h.124c.115-.002.229.019.336.062s.204.107.285.189.144.179.187.286c.042.107.062.222.059.337z" fill="#461450"/><g fill="#240f45"><path d="m129.782 337.939c.002-.205-.036-.408-.112-.598-.077-.189-.191-.362-.335-.507s-.316-.26-.505-.339c-.19-.078-.392-.117-.597-.116h-.62c-.205-.001-.408.039-.597.117s-.36.193-.504.338c-.145.145-.258.318-.335.508-.077.189-.115.392-.112.597v19.348c0 .873.681 1.56 1.548 1.56h.62c.205.001.407-.038.597-.117.189-.078.361-.193.505-.338s.258-.318.335-.507c.076-.19.114-.393.112-.598z"/><path d="m114.107 332.01s2.293 4.368 5.08 4.368h16.357c2.85 0 5.08-1.872 5.08-4.369h-26.517z"/><path d="m124.825 335.13v9.487c0 1.685 1.116 3.12 2.788 3.12 1.673 0 2.788-1.373 2.788-3.12v-9.487z"/></g><path d="m131.64 327.016h-19.949c-1.673 0-3.098 1.436-3.098 3.121s1.363 3.12 3.098 3.12h19.95v-6.24z" fill="#6fc05c"/><path d="m150.227 330.075c0-1.686-1.363-3.059-3.098-3.059h-23.543c-1.672 0-3.097 1.373-3.097 3.059v.062c0 1.685 1.363 3.058 3.097 3.058h23.543c1.673 0 3.098-1.373 3.098-3.058z" fill="#5b9c4a"/><path d="m119.25 305.609c0 1.123-.93 2.06-2.045 2.06h-10.16c-1.116 0-2.045-.937-2.045-2.06v-14.605c0-1.123.93-2.06 2.045-2.06h10.16c1.115 0 2.045.937 2.045 2.06z" fill="#6fc05c"/><path d="m119.25 305.983v-14.417c0-1.124-1.301-2.622-2.417-2.622h-.495c-1.115 0-2.045 1.498-2.045 2.622v14.417c0 1.124.868 1.685 2.045 1.685h.495c1.116 0 2.417-.499 2.417-1.685z" fill="#5b9c4a"/><path d="m111.195 300.366c0-1.123-.929-2.06-2.044-2.06h-.248c-1.115 0-2.044.937-2.044 2.06v29.584c0 1.123.929 2.06 2.044 2.06h.248c1.115 0 2.044-.937 2.044-2.06z" fill="#240f45"/><path d="m113.054 310.789h8.674v3.745h-8.674z" fill="#554563"/><path d="m162.804 352.356-1.92-1.935-5.267-5.305-4.275 4.307-.991 1.06 14.125 14.23c2.169-2.308 2.045-8.612-1.672-12.357z" fill="#ff5064"/><path d="m162.804 352.356-1.92-1.935c.804 2.996.37 6.117-1.116 7.552l-8.488-8.55-.991 1.06 14.125 14.23c2.23-2.308 2.107-8.612-1.61-12.357z" fill="#c8465a"/><path d="m150.259 350.505 1.533-1.533 8.562 8.56-1.532 1.534z" fill="#fff"/><path d="m158.777 358.972 5.637 5.68c.496-.5.868-1.186 1.116-1.998l-5.205-5.243-1.548 1.56z" fill="#c5d3dc"/><path d="m186.78 290.442c0-2.559-2.044-4.618-4.585-4.618h-6.938c-2.54 0-4.585 2.06-4.585 4.618v.125c0 2.559 2.044 4.619 4.585 4.619h6.938c2.54 0 4.585-2.06 4.585-4.619z" fill="#de5934"/><path d="m214.04 310.789h3.718v53.05h-3.717zm-21.064 0h3.717v53.05h-3.717z" fill="#240f45"/><path d="m195.454 348.86h20.445v3.122h-20.445z" fill="#240f45"/><path d="m204.972 285.425 2.101 18.037h8.406l2.102-18.037z" fill="#e0e1e5"/><path d="m207.455 294.443.892 7.73h5.858l.956-7.73z" fill="#9650b4"/><g filter="url(#b)"><path d="m28 60h263v147h-263z" fill="#c4c4c4"/></g><g filter="url(#c)"><rect fill="#fff" height="166.245" rx="4.5422" width="281.617" x="19" y="47.0414"/><g fill="#888"><path d="m80.7639 199.534c1.2537 0 2.2784-.535 2.987-1.33v-2.715h-3.4448v1.123h2.1802v1.123c-.327.316-.9811.654-1.7224.654-1.4389 0-2.5073-1.112-2.5073-2.627 0-1.537 1.0684-2.627 2.5073-2.627.8067 0 1.4935.425 1.886.97l1.0356-.6c-.5778-.828-1.5044-1.504-2.9216-1.504-2.1148 0-3.8154 1.472-3.8154 3.761 0 2.278 1.7006 3.772 3.8154 3.772z"/><path d="m91.8501 199.392-1.7878-2.856c.883-.142 1.7333-.851 1.7333-2.137 0-1.352-.9484-2.278-2.3873-2.278h-3.1941v7.271h1.2754v-2.714h1.2755l1.6025 2.714zm-2.6054-3.837h-1.7551v-2.311h1.7551c.7195 0 1.2428.447 1.2428 1.144 0 .709-.5233 1.167-1.2428 1.167z"/><path d="m100.757 199.392-2.8558-7.271h-1.5916l-2.8562 7.271h1.4499l.5342-1.406h3.3358l.5341 1.406zm-2.3435-2.529h-2.6163l1.3082-3.467z"/><path d="m105.391 199.392c2.267 0 3.793-1.494 3.793-3.641 0-2.126-1.526-3.63-3.804-3.63h-2.704v7.271zm-.011-1.123h-1.428v-5.025h1.439c1.613 0 2.485 1.112 2.485 2.507 0 1.384-.916 2.518-2.496 2.518z"/><path d="m116.533 199.392v-1.123h-3.706v-2.028h3.63v-1.122h-3.63v-1.875h3.706v-1.123h-4.982v7.271z"/><path d="m127.906 199.392v-1.123h-3.706v-2.028h3.63v-1.122h-3.63v-1.875h3.706v-1.123h-4.982v7.271z"/><path d="m136.653 199.392v-7.271h-1.276v5.036l-3.717-5.036h-1.308v7.271h1.275v-5.2l3.794 5.2z"/><path d="m145.667 199.392v-7.271h-1.276v2.965h-3.782v-2.965h-1.276v7.271h1.276v-3.183h3.782v3.183z"/><path d="m154.898 199.392-2.856-7.271h-1.592l-2.856 7.271h1.45l.534-1.406h3.336l.534 1.406zm-2.344-2.529h-2.616l1.308-3.467z"/><path d="m163.118 199.392v-7.271h-1.275v5.036l-3.718-5.036h-1.308v7.271h1.275v-5.2l3.794 5.2z"/><path d="m169.298 199.523c1.461 0 2.365-.774 2.921-1.646l-1.09-.545c-.349.599-1.057 1.057-1.831 1.057-1.439 0-2.507-1.112-2.507-2.627 0-1.537 1.068-2.627 2.507-2.627.774 0 1.482.447 1.831 1.057l1.079-.567c-.534-.872-1.449-1.624-2.91-1.624-2.148 0-3.816 1.515-3.816 3.761 0 2.235 1.668 3.761 3.816 3.761z"/><path d="m179.347 199.392v-1.123h-3.707v-2.028h3.63v-1.122h-3.63v-1.875h3.707v-1.123h-4.982v7.271z"/><path d="m184.506 199.392c2.268 0 3.794-1.494 3.794-3.641 0-2.126-1.526-3.63-3.804-3.63h-2.704v7.271zm-.01-1.123h-1.428v-5.025h1.438c1.614 0 2.486 1.112 2.486 2.507 0 1.384-.916 2.518-2.496 2.518z"/><path d="m195.889 199.392v-3.151h3.63v-1.122h-3.63v-1.875h3.706v-1.123h-4.982v7.271z"/><path d="m207.527 199.392-1.788-2.856c.883-.142 1.734-.851 1.734-2.137 0-1.352-.949-2.278-2.388-2.278h-3.194v7.271h1.276v-2.714h1.275l1.603 2.714zm-2.605-3.837h-1.755v-2.311h1.755c.719 0 1.243.447 1.243 1.144 0 .709-.524 1.167-1.243 1.167z"/><path d="m213.284 199.523c2.169 0 3.717-1.592 3.717-3.761 0-2.17-1.548-3.761-3.717-3.761-2.18 0-3.717 1.591-3.717 3.761 0 2.169 1.537 3.761 3.717 3.761zm0-1.134c-1.472 0-2.409-1.134-2.409-2.627 0-1.505.937-2.627 2.409-2.627 1.461 0 2.409 1.122 2.409 2.627 0 1.493-.948 2.627-2.409 2.627z"/><path d="m226.909 199.392v-7.271h-1.799l-1.973 4.993-1.984-4.993h-1.799v7.271h1.275v-5.614l2.235 5.614h.545l2.224-5.614v5.614z"/></g><path clip-rule="evenodd" d="m240.205 202.293c4.014 0 7.268-3.254 7.268-7.267 0-4.014-3.254-7.268-7.268-7.268s-7.267 3.254-7.267 7.268c0 4.013 3.253 7.267 7.267 7.267z" fill="#f5a623" fill-rule="evenodd"/><path d="m240.342 198.878c1.727 0 2.932-.995 3.098-2.566h-1.434c-.156.834-.786 1.347-1.659 1.347-1.127 0-1.835-.928-1.835-2.43 0-1.484.717-2.416 1.83-2.416.859 0 1.522.566 1.659 1.43h1.434c-.112-1.576-1.4-2.649-3.093-2.649-2.04 0-3.333 1.371-3.333 3.64 0 2.273 1.284 3.644 3.333 3.644z" fill="#fff"/><path d="m108.869 176.486c1.619 0 2.6-.719 3.123-1.439l-1.357-1.275c-.376.54-.949.867-1.668.867-1.259 0-2.142-.932-2.142-2.306s.883-2.289 2.142-2.289c.719 0 1.292.294 1.668.85l1.357-1.275c-.523-.72-1.504-1.423-3.123-1.423-2.42 0-4.186 1.717-4.186 4.137 0 2.436 1.766 4.153 4.186 4.153z" fill="#333"/><path d="m115.426 176.29v-5.216c.344-.507 1.259-.899 1.946-.899.245 0 .425.016.572.049v-2.028c-.981 0-1.945.572-2.518 1.259v-1.063h-2.076v7.898z" fill="#333"/><path d="m122.954 176.486c1.226 0 2.469-.376 3.254-1.095l-.932-1.374c-.507.491-1.423.769-2.093.769-1.341 0-2.126-.801-2.273-1.766h5.87v-.491c0-2.567-1.586-4.333-3.957-4.333-2.387 0-4.088 1.848-4.088 4.137 0 2.535 1.815 4.153 4.219 4.153zm1.831-4.905h-3.891c.081-.785.637-1.684 1.929-1.684 1.374 0 1.897.932 1.962 1.684z" fill="#333"/><path d="m131.992 176.486c1.227 0 2.469-.376 3.254-1.095l-.932-1.374c-.507.491-1.423.769-2.093.769-1.341 0-2.126-.801-2.273-1.766h5.87v-.491c0-2.567-1.586-4.333-3.957-4.333-2.387 0-4.088 1.848-4.088 4.137 0 2.535 1.815 4.153 4.219 4.153zm1.832-4.905h-3.892c.082-.785.638-1.684 1.929-1.684 1.374 0 1.897.932 1.963 1.684z" fill="#333"/><path d="m141.832 176.486c2.027 0 3.499-1.52 3.499-4.153s-1.472-4.137-3.499-4.137c-.965 0-1.832.425-2.437 1.194v-.998h-2.076v10.907h2.076v-4.023c.654.818 1.505 1.21 2.437 1.21zm-.654-1.847c-.671 0-1.439-.409-1.783-.916v-2.78c.36-.523 1.112-.899 1.783-.899 1.193 0 2.011.932 2.011 2.289 0 1.374-.818 2.306-2.011 2.306z" fill="#333"/><path d="m146.59 179.364c.245.082.785.131 1.014.131 1.357-.033 2.404-.425 2.992-1.913l3.712-9.19h-2.224l-2.076 5.494-2.061-5.494h-2.223l3.205 7.996-.295.687c-.196.425-.556.572-1.095.572-.197 0-.475-.049-.654-.13z" fill="#333"/><path d="m158.081 176.486c2.191 0 3.434-1.063 3.434-2.518 0-3.188-4.693-2.207-4.693-3.368 0-.442.49-.769 1.242-.769.965 0 1.864.425 2.339.916l.834-1.472c-.785-.621-1.848-1.079-3.173-1.079-2.093 0-3.237 1.161-3.237 2.485 0 3.107 4.676 2.044 4.676 3.336 0 .491-.425.834-1.324.834-.981 0-2.142-.539-2.731-1.095l-.899 1.504c.834.769 2.158 1.226 3.532 1.226z" fill="#333"/><path d="m164.058 167.542c.687 0 1.243-.556 1.243-1.243s-.556-1.226-1.243-1.226c-.67 0-1.226.539-1.226 1.226s.556 1.243 1.226 1.243zm1.047 8.748v-7.898h-2.077v7.898z" fill="#333"/><path d="m169.813 176.486c.867 0 1.423-.229 1.733-.507l-.441-1.586c-.115.131-.409.246-.72.246-.458 0-.719-.376-.719-.883v-3.549h1.602v-1.815h-1.602v-2.158h-2.077v2.158h-1.308v1.815h1.308v4.105c0 1.422.769 2.174 2.224 2.174z" fill="#333"/><path d="m176.401 176.486c1.226 0 2.469-.376 3.254-1.095l-.932-1.374c-.507.491-1.423.769-2.093.769-1.341 0-2.126-.801-2.273-1.766h5.87v-.491c0-2.567-1.586-4.333-3.957-4.333-2.387 0-4.088 1.848-4.088 4.137 0 2.535 1.815 4.153 4.219 4.153zm1.831-4.905h-3.891c.081-.785.637-1.684 1.929-1.684 1.374 0 1.897.932 1.962 1.684z" fill="#333"/><path d="m182.726 176.47c.72 0 1.325-.605 1.325-1.324 0-.72-.605-1.325-1.325-1.325-.719 0-1.324.605-1.324 1.325 0 .719.605 1.324 1.324 1.324z" fill="#333"/><path d="m189.479 176.486c1.618 0 2.6-.719 3.123-1.439l-1.357-1.275c-.376.54-.949.867-1.668.867-1.259 0-2.142-.932-2.142-2.306s.883-2.289 2.142-2.289c.719 0 1.292.294 1.668.85l1.357-1.275c-.523-.72-1.505-1.423-3.123-1.423-2.42 0-4.186 1.717-4.186 4.137 0 2.436 1.766 4.153 4.186 4.153z" fill="#333"/><path d="m197.622 176.486c2.617 0 4.186-1.913 4.186-4.153s-1.569-4.137-4.186-4.137c-2.6 0-4.169 1.897-4.169 4.137s1.569 4.153 4.169 4.153zm0-1.847c-1.292 0-2.011-1.063-2.011-2.306 0-1.226.719-2.289 2.011-2.289 1.308 0 2.028 1.063 2.028 2.289 0 1.243-.72 2.306-2.028 2.306z" fill="#333"/><path d="m215.253 176.29v-5.707c0-1.619-.867-2.387-2.322-2.387-1.21 0-2.257.719-2.715 1.423-.278-.883-1.03-1.423-2.191-1.423-1.21 0-2.24.752-2.583 1.21v-1.014h-2.077v7.898h2.077v-5.331c.31-.425.915-.915 1.635-.915.85 0 1.177.523 1.177 1.259v4.987h2.093v-5.331c.295-.425.9-.915 1.635-.915.851 0 1.178.523 1.178 1.259v4.987z" fill="#333"/><path d="m159.648 151.5c25.22 0 45.664-20.588 45.664-45.984 0-25.3959-20.444-45.9835-45.664-45.9835s-45.664 20.5876-45.664 45.9835c0 25.396 20.444 45.984 45.664 45.984z" fill="#999" fill-opacity=".25"/><path d="m159.648 59.5325c-6.095-.0075-12.13 1.2175-17.747 3.6023h.684c20.243-.0029 38.376 12.6104 45.538 31.6771 7.163 19.0671 1.859 40.6071-13.318 54.0961 21.004-7.43 33.627-29.03 29.879-51.1289-3.747-22.0988-22.773-38.2561-45.036-38.2466z" fill="#333" fill-opacity=".15"/><path d="m205.23 106.352c.017-11.6578-4.523-22.8517-12.633-31.1489h-75.366c-1.571 0-2.845 1.286-2.845 2.8724v51.5925c0 2.532 2.032 4.584 4.539 4.584h76.541c6.332-7.891 9.78-17.743 9.764-27.9z" fill="#fff"/><path d="m192.239 73.3127h-78.352c-.765-.0011-1.498.3042-2.039.8486-.54.5443-.844 1.2829-.842 2.0528v4.1332h86.861c-1.642-2.5254-3.527-4.8817-5.628-7.0346z" fill="#777"/><path d="m164.474 115.817h-15.726c-.52-.004-.941-.428-.945-.951v-9.605c.007-.522.426-.944.945-.951h15.739c.519.004.94.428.944.951v9.605c.012.258-.086.508-.269.69-.182.181-.432.276-.688.261z" fill="#999" fill-opacity=".25"/><path d="m185.19 115.817h-15.743c-.519-.007-.938-.429-.945-.951v-9.605c.007-.522.426-.944.945-.951h15.743c.519.007.939.429.945.951v9.605c.004.253-.095.497-.273.676-.178.18-.42.279-.672.275z" fill="#dee2ea"/><path d="m174.214 121.943h-24.947c-.393.001-.77-.156-1.047-.436s-.432-.66-.43-1.055c-.002-.396.153-.776.43-1.056s.654-.436 1.047-.435h24.947c.393-.001.77.155 1.048.435s.434.66.433 1.056c-.024.813-.673 1.466-1.481 1.491z" fill="#999" fill-opacity=".25"/><path d="m188.599 121.943h-9.411c-.393.001-.77-.156-1.047-.436s-.432-.66-.43-1.055c-.002-.396.153-.776.43-1.056s.654-.436 1.047-.435h9.411c.393-.001.77.155 1.048.435s.434.66.433 1.056c.001.396-.155.775-.433 1.055s-.655.437-1.048.436z" fill="#dee2ea"/><path d="m158.678 127.924h-9.411c-.393.001-.77-.156-1.047-.436s-.432-.66-.43-1.055c-.002-.396.153-.776.43-1.056s.654-.436 1.047-.435h9.411c.393-.001.77.155 1.048.435s.434.66.432 1.056c.002.396-.154.775-.432 1.055s-.655.437-1.048.436z" fill="#999" fill-opacity=".25"/><path d="m177.382 127.924h-9.415c-.393.001-.77-.156-1.047-.436s-.432-.66-.429-1.055c-.003-.396.152-.776.429-1.056s.654-.436 1.047-.435h9.415c.393-.001.77.155 1.047.435s.432.66.43 1.056c-.022.812-.67 1.466-1.477 1.491z" fill="#999" fill-opacity=".25"/><path d="m163.322 127.903c.818 0 1.481-.668 1.481-1.491 0-.824-.663-1.491-1.481-1.491-.817 0-1.48.667-1.48 1.491 0 .823.663 1.491 1.48 1.491z" fill="#999" fill-opacity=".25"/><path d="m186.545 127.903c.817 0 1.48-.668 1.48-1.491 0-.824-.663-1.491-1.48-1.491-.818 0-1.481.667-1.481 1.491 0 .823.663 1.491 1.481 1.491z" fill="#dee2ea"/><path d="m182.271 127.903c.818 0 1.481-.668 1.481-1.491 0-.824-.663-1.491-1.481-1.491-.817 0-1.48.667-1.48 1.491 0 .823.663 1.491 1.48 1.491z" fill="#dee2ea"/><path d="m191.48 127.924h8.061c.538-.969 1.04-1.96 1.506-2.974-.05 0-.105 0-.156 0h-9.411c-.772.059-1.369.707-1.369 1.487s.597 1.428 1.369 1.487z" fill="#dee2ea"/><path d="m190.122 115.817h14.039c.768-3.379 1.154-6.834 1.151-10.301 0-.425 0-.807 0-1.206h-15.186c-.519.007-.938.429-.945.951v9.605c.005.522.423.944.941.951z" fill="#dee2ea"/><path d="m205.11 101.162c-.468-5.071-1.775-10.0274-3.868-14.6638h-51.465c-.522 0-1.023.209-1.393.5811-.369.372-.577.8766-.577 1.4027v10.7387c0 .5261.208 1.0303.577 1.4023.37.372.871.581 1.393.581h55.076c.086-.008.172-.022.257-.042z" fill="#999" fill-opacity=".25"/><path d="m116.684 78.1978c.75 0 1.358-.6124 1.358-1.3678s-.608-1.3678-1.358-1.3678-1.359.6124-1.359 1.3678.609 1.3678 1.359 1.3678z" fill="#aaa"/><path d="m121.413 78.1978c.75 0 1.358-.6124 1.358-1.3678s-.608-1.3678-1.358-1.3678c-.751 0-1.359.6124-1.359 1.3678s.608 1.3678 1.359 1.3678z" fill="#aaa"/><path d="m126.137 78.1978c.75 0 1.358-.6124 1.358-1.3678s-.608-1.3678-1.358-1.3678-1.358.6124-1.358 1.3678.608 1.3678 1.358 1.3678z" fill="#aaa"/><path d="m142.201 134.398h-26.576c-2.545-.012-4.606-2.085-4.619-4.648v-49.4877h31.216z" fill="#3fa140"/><path d="m133.114 112.878h-14.549c-.699 0-1.265-.571-1.265-1.275 0-.703.566-1.274 1.265-1.274h14.549c.699 0 1.266.571 1.266 1.274 0 .704-.567 1.275-1.266 1.275z" fill="#fff" opacity=".59"/><path d="m133.114 119.003h-14.549c-.699 0-1.265-.57-1.265-1.274s.566-1.275 1.265-1.275h14.549c.699 0 1.266.571 1.266 1.275s-.567 1.274-1.266 1.274z" fill="#fff" opacity=".59"/><path d="m129.415 125.171h-10.85c-.699 0-1.265-.57-1.265-1.274s.566-1.275 1.265-1.275h10.85c.699 0 1.265.571 1.265 1.275s-.566 1.274-1.265 1.274z" fill="#fff" opacity=".59"/><path d="m133.114 125.171c-.699 0-1.265-.57-1.265-1.274s.566-1.275 1.265-1.275 1.266.571 1.266 1.275-.567 1.274-1.266 1.274z" fill="#fff" opacity=".59"/><path d="m126.647 106.693c5.925 0 10.728-4.837 10.728-10.8027 0-5.966-4.803-10.8024-10.728-10.8024-5.924 0-10.727 4.8364-10.727 10.8024 0 5.9657 4.803 10.8027 10.727 10.8027z" fill="#fff" opacity=".59"/><path d="m133.38 104.25c-.088-.446-.268-.868-.527-1.24-.536-.744-1.768-.744-2.755-.786-.401.037-.805-.004-1.19-.123-.62-.251-.742-1.075-.784-1.491-.329-1.0325-.781-1.3638-1.266-1.2406l-.244.2464-.249-.2464c-.494-.085-.696 0-1.025 1.2406-.042.425-.207 1.24-.781 1.491-.386.118-.791.16-1.193.123-.988 0-2.262.042-2.755.786-.305.38-.496.84-.549 1.325 1.912 1.552 4.294 2.399 6.75 2.4 2.409-.036 4.731-.915 6.568-2.485z" fill="#9b7a56"/><path d="m130.549 95.1895c0 2.7738-1.725 6.1675-3.902 6.1675-2.176 0-3.906-3.4361-3.906-6.1675s1.726-5.0083 3.906-5.0083c2.181 0 3.902 2.2344 3.902 5.0083z" fill="#9b7a56"/><path d="m122.661 90.967h7.479v2.8971h-7.479z" fill="#af58c4"/><path d="m126.686 90.967h3.779v2.8971h-3.779z" fill="#ce6ce5"/><path clip-rule="evenodd" d="m132.97 91.0776c.204.4187.222.9056.047 1.338.359.3733.515.8991.419 1.4096-.097.5104-.434.9417-.904 1.1561.738.9515.409 2.1919-.658 2.5233-.088.8296-.779 1.4615-1.607 1.4697-.219.4409-.629.7546-1.11.8496h-.08c.85-1.1774 1.294-2.6018 1.266-4.0567-.006-.4006-.034-.8006-.085-1.1979-.199-.0444-.376-.1627-.493-.3314-.189.1626-.441.229-.685.1801s-.451-.2077-.564-.4307c-.166.183-.406.2803-.652.2646s-.471-.1427-.613-.3453c-.146.2225-.394.3563-.658.3563-.265 0-.512-.1338-.658-.3563-.136.2114-.363.3455-.613.3614-.25.016-.492-.0882-.653-.2807-.109.2224-.313.3814-.555.4305-.241.0491-.491-.0174-.677-.1799-.12.1486-.286.2519-.472.2931-.051.3974-.079.7974-.085 1.1979.011 1.4708.503 2.8969 1.401 4.0568h-.144c-.485-.1046-.903-.414-1.147-.8496-.811-.032-1.484-.6404-1.603-1.4485-1.152-.3696-1.278-1.6737-.658-2.5233-.47-.2071-.812-.63-.919-1.1356-.106-.5057.037-1.0319.383-1.4131-.182-.4313-.168-.9209.036-1.3416.205-.4207.582-.731 1.032-.8503-.113-.4609.006-.9482.318-1.3036.313-.3553.779-.5334 1.247-.4763.219-.4261.602-.7428 1.06-.8761.458-.1334.95-.0715 1.361.1709.345-.4036.848-.6357 1.377-.6357s1.032.2321 1.378.6357c.404-.245.892-.3082 1.345-.1742s.829.453 1.038.8794c.466-.0515.928.1285 1.239.4825.31.354.43.8379.322 1.2974.446.1244.819.4351 1.024.8539zm-9.326 2.1238c1.565-2.7738 4.358-2.7314 5.906 0-1.808-1.1327-4.098-1.1327-5.906 0z" fill="#323335" fill-rule="evenodd"/><path d="m130.634 95.5208c.064.7244-.049 1.4537-.329 2.1239 1.025-.6371 1.19-2.2896.329-2.1239z" fill="#7b5d3f"/><path d="m122.594 95.5208c-.067.7245.046 1.4543.329 2.1239-1.046-.6371-1.211-2.2896-.329-2.1239z" fill="#8c6e48"/><path d="m125.496 98.3754v.2379c.004.2587.111.505.296.6844s.434.277.691.2713h.422c.53.0048.965-.4218.974-.9557v-.2464z" fill="#fff"/><path d="m125.374 96.4723c.205 0 .371-.2035.371-.4545s-.166-.4545-.371-.4545-.372.2035-.372.4545.167.4545.372.4545z" fill="#323335"/><path d="m127.757 96.4723c.205 0 .371-.2035.371-.4545s-.166-.4545-.371-.4545-.371.2035-.371.4545.166.4545.371.4545z" fill="#323335"/><path d="m132.853 102.972c-.536-.748-1.768-.748-2.755-.79-.401.037-.805-.005-1.189-.124-.043 0-.043-.042-.085-.042-.514.677-1.293 1.1-2.139 1.16-.84-.049-1.614-.475-2.109-1.16-.011 0-.021.004-.028.012-.007.009-.011.019-.01.03-.386.119-.791.161-1.193.124-.988 0-2.262.042-2.755.79-.306.424-.495.922-.548 1.444 1.922 1.524 4.303 2.342 6.749 2.319 2.456-.043 4.821-.944 6.69-2.548-.168-.426-.379-.833-.628-1.215z" fill="#ce6ce5"/><path d="m128.145 100.805c-.418.332-.928.525-1.459.552-.518-.001-1.021-.171-1.435-.484-.033.265-.107.523-.219.765.447.42 1.042.646 1.654.628.629-.014 1.231-.264 1.687-.7-.113-.241-.189-.497-.228-.761z" fill="#7b5d3f"/><path d="m187.713 130.687c17.246 0 31.227-14.078 31.227-31.4448 0-17.3667-13.981-31.4452-31.227-31.4452s-31.227 14.0785-31.227 31.4452c0 17.3668 13.981 31.4448 31.227 31.4448z" fill="#4c863e"/><path d="m189.025 128.514c17.524 0 31.731-14.305 31.731-31.9525 0-17.647-14.207-31.9527-31.731-31.9527s-31.731 14.3057-31.731 31.9527c0 17.6475 14.207 31.9525 31.731 31.9525z" fill="#3fa140"/><path clip-rule="evenodd" d="m183.102 108.373h-12.161v-22.4668h11.792c4.266 0 6.45 2.7283 6.45 5.7261 0 2.7956-1.747 4.7156-3.863 5.1534 2.418.3705 4.3 2.6947 4.3 5.4903 0 3.402-2.217 6.097-6.518 6.097zm-1.411-13.5409c1.613 0 2.621-.9094 2.621-2.3578 0-1.381-1.008-2.3578-2.621-2.3578h-5.98v4.7156zm.202 9.3299c1.78 0 2.855-.943 2.855-2.56 0-1.414-1.007-2.5595-2.855-2.5595h-6.182v5.1195z" fill="#fff" fill-rule="evenodd"/><path clip-rule="evenodd" d="m194.558 94.8995h15.118v4.2103h-15.118z" fill="#fff" fill-rule="evenodd"/><path clip-rule="evenodd" d="m200.018 104.162v-15.157h4.199v15.157z" fill="#fff" fill-rule="evenodd"/></g><g filter="url(#d)" opacity=".7"><path d="m53.3596 13.7355c0-4.09835 3.3224-7.42071 7.4207-7.42071h198.8747c4.098 0 7.421 3.32236 7.421 7.42071v13.3572c0 4.0984-3.323 7.4207-7.421 7.4207h-198.8747c-4.0983 0-7.4207-3.3223-7.4207-7.4207z" fill="#fff"/><rect fill="#aaa" height="4.45241" rx=".742069" transform="matrix(.70710678 -.70710678 .70710678 .70710678 58.022154 185.231271)" width="1.48414" x="252.605" y="22.5767"/><path d="m253.494 16.9063c1.522 1.5215 1.522 3.9882 0 5.5096-1.521 1.5215-3.988 1.5215-5.509 0-1.522-1.5214-1.522-3.9881 0-5.5096 1.521-1.5214 3.988-1.5214 5.509 0z" stroke="#aaa" stroke-width="1.1131"/><g fill="#999"><path d="m89.8693 23.3443c1.8596 0 2.6803-.9974 2.6803-2.1506 0-2.5764-4.0309-1.7765-4.0309-3.0751 0-.509.4571-.8623 1.1636-.8623.7272 0 1.4648.2494 2.0154.8l.6857-.9039c-.6337-.6233-1.5168-.9765-2.5869-.9765-1.5271 0-2.5245.883-2.5245 2.0362 0 2.5453 4.0309 1.6415 4.0309 3.0959 0 .4675-.3844.9558-1.3817.9558-.9662 0-1.7246-.4571-2.1921-.9662l-.6856.9454c.6233.6441 1.5479 1.1013 2.8258 1.1013z"/><path d="m95.9546 23.3443c.7896 0 1.5272-.2598 2.0362-.7377l-.4986-.7168c-.3637.3636-.935.561-1.4337.561-.9454 0-1.5064-.6337-1.5895-1.3817h3.8647v-.2701c0-1.5792-.9558-2.7219-2.4622-2.7219-1.4856 0-2.5453 1.1739-2.5453 2.6284 0 1.5895 1.1116 2.6388 2.6284 2.6388zm1.3298-3.0544h-2.8258c.0415-.6026.4779-1.3194 1.4025-1.3194.9869 0 1.3921.7272 1.4233 1.3194z"/><path d="m103.576 23.2196v-3.3349c0-1.3401-.976-1.8076-2.098-1.8076-.8 0-1.5274.2493-2.1092.8103l.4571.7584c.4261-.4363.9251-.6441 1.4861-.6441.685 0 1.174.3532 1.174.935v.748c-.374-.426-.946-.6441-1.632-.6441-.82 0-1.7345.4779-1.7345 1.6414 0 1.1013.9245 1.6623 1.7345 1.6623.665 0 1.258-.239 1.632-.6753v.5506zm-2.285-.6233c-.613 0-1.081-.3533-1.081-.9039 0-.5402.468-.9038 1.081-.9038.467 0 .935.1766 1.195.5194v.7688c-.26.3428-.728.5195-1.195.5195z"/><path d="m106.081 23.2196v-3.418c.218-.3636.831-.6753 1.299-.6753.135 0 .239.0104.332.0312v-1.0804c-.644 0-1.246.374-1.631.8518v-.7272h-1.091v5.0179z"/><path d="m110.878 23.3443c.987 0 1.568-.426 1.922-.8935l-.717-.6753c-.281.3948-.665.6026-1.153.6026-.904 0-1.517-.6961-1.517-1.6726 0-.9766.613-1.6623 1.517-1.6623.488 0 .872.187 1.153.5818l.717-.6545c-.354-.4779-.935-.8934-1.922-.8934-1.517 0-2.587 1.1116-2.587 2.6284s1.07 2.6388 2.587 2.6388z"/><path d="m118.254 23.2196v-3.553c0-1.0285-.54-1.5895-1.62-1.5895-.79 0-1.434.4051-1.767.7999v-2.5868h-1.09v6.9294h1.09v-3.5115c.25-.3324.728-.6649 1.289-.6649.613 0 1.007.2286 1.007 1.0181v3.1583z"/><path d="m124.967 23.2196c2.161 0 3.616-1.4233 3.616-3.4699 0-2.0259-1.455-3.4595-3.626-3.4595h-2.577v6.9294zm-.01-1.0701h-1.361v-4.7893h1.371c1.538 0 2.369 1.0597 2.369 2.3895 0 1.3194-.873 2.3998-2.379 2.3998z"/><path d="m134.203 23.2196v-5.0179h-1.091v3.5219c-.249.3324-.727.6545-1.278.6545-.623 0-1.018-.2493-1.018-1.0285v-3.1479h-1.091v3.553c0 1.0182.54 1.5896 1.621 1.5896.789 0 1.413-.3948 1.766-.7896v.6649z"/><path d="m137.905 23.3443c.987 0 1.569-.426 1.922-.8935l-.717-.6753c-.28.3948-.665.6026-1.153.6026-.904 0-1.517-.6961-1.517-1.6726 0-.9766.613-1.6623 1.517-1.6623.488 0 .873.187 1.153.5818l.717-.6545c-.353-.4779-.935-.8934-1.922-.8934-1.517 0-2.587 1.1116-2.587 2.6284s1.07 2.6388 2.587 2.6388z"/><path d="m145.49 23.2196-2.12-2.7427 2.078-2.2752h-1.351l-2.212 2.4207v-4.3322h-1.091v6.9294h1.091v-1.3506l.706-.7272 1.527 2.0778z"/><path d="m148.89 23.2196c2.161 0 3.616-1.4233 3.616-3.4699 0-2.0259-1.455-3.4595-3.626-3.4595h-2.576v6.9294zm-.01-1.0701h-1.361v-4.7893h1.371c1.538 0 2.369 1.0597 2.369 2.3895 0 1.3194-.873 2.3998-2.379 2.3998z"/><path d="m158.126 23.2196v-5.0179h-1.091v3.5219c-.249.3324-.727.6545-1.278.6545-.623 0-1.018-.2493-1.018-1.0285v-3.1479h-1.091v3.553c0 1.0182.54 1.5896 1.621 1.5896.789 0 1.413-.3948 1.766-.7896v.6649z"/><path d="m161.828 23.3443c.987 0 1.569-.426 1.922-.8935l-.717-.6753c-.28.3948-.665.6026-1.153.6026-.904 0-1.517-.6961-1.517-1.6726 0-.9766.613-1.6623 1.517-1.6623.488 0 .873.187 1.153.5818l.717-.6545c-.353-.4779-.935-.8934-1.922-.8934-1.517 0-2.587 1.1116-2.587 2.6284s1.07 2.6388 2.587 2.6388z"/><path d="m169.413 23.2196-2.12-2.7427 2.078-2.2752h-1.35l-2.213 2.4207v-4.3322h-1.091v6.9294h1.091v-1.3506l.706-.7272 1.527 2.0778z"/><path d="m173.561 23.3547c1.195 0 2.172-.5091 2.847-1.2675v-2.5869h-3.283v1.0701h2.078v1.0701c-.312.3013-.935.6233-1.642.6233-1.371 0-2.389-1.0597-2.389-2.5037 0-1.4649 1.018-2.5038 2.389-2.5038.769 0 1.424.4052 1.798.9246l.987-.5713c-.551-.7896-1.434-1.4337-2.785-1.4337-2.015 0-3.636 1.4025-3.636 3.5842 0 2.1713 1.621 3.5946 3.636 3.5946z"/><path d="m179.917 23.3443c1.6 0 2.577-1.2052 2.577-2.6388 0-1.4441-.977-2.6284-2.577-2.6284s-2.576 1.1843-2.576 2.6284c0 1.4336.976 2.6388 2.576 2.6388zm0-.9662c-.924 0-1.444-.7792-1.444-1.6726 0-.8831.52-1.6623 1.444-1.6623.935 0 1.444.7792 1.444 1.6623 0 .8934-.509 1.6726-1.444 1.6726z"/></g><path clip-rule="evenodd" d="m67.3478 28.4656c4.5082 0 8.1628-3.6546 8.1628-8.1628s-3.6546-8.1628-8.1628-8.1628c-4.5081 0-8.1627 3.6546-8.1627 8.1628s3.6546 8.1628 8.1627 8.1628z" fill="#fff" fill-rule="evenodd"/><path clip-rule="evenodd" d="m67.4121 13.0233c4.0609 0 7.3528 3.2912 7.3528 7.3511 0 4.06-3.2919 7.3512-7.3528 7.3512s-7.3528-3.2912-7.3528-7.3512c0-4.0599 3.2919-7.3511 7.3528-7.3511z" fill="#de5833" fill-rule="evenodd"/><g mask="url(#k)"><path clip-rule="evenodd" d="m70.4199 31.4523c-.2572-1.1997-1.7576-3.9025-2.3149-5.0588-.5716-1.1418-1.129-2.7608-.8717-3.8013.0428-.1879-.4859-1.6332-.343-1.7344 1.2004-.795 1.5146.0867 2.0006-.2746.2429-.1879.5858.1445.6716-.159.3144-1.0985-.4287-3.0064-1.2575-3.8302-.2715-.2746-.6861-.4481-1.1432-.5348-.1858-.2457-.4716-.4914-.8717-.7082-.4573-.2457-1.4433-.5637-1.9577-.6504-.3573-.0579-.443.0433-.5859.0722.1429.0145.8145.3469.9431.3614-.1286.0867-.5144 0-.7573.1011-.1287.0579-.2144.2747-.2144.3758.7002-.0722 1.8006 0 2.4436.2891-.5144.0578-1.3004.1301-1.6291.3035-.9717.5204-1.4147 1.7345-1.1575 3.1943.2573 1.4598 1.3862 6.7641 1.7577 8.5421.3573 1.7778-.7716 2.9195-1.5004 3.2376l.7716.0578-.2572.5781c.9289.1012 1.9577-.2023 1.9577-.2023-.2.5781-1.6004.7805-1.6004.7805s.6716.2022 1.7576-.2024c1.0861-.4191 1.7577-.6794 1.7577-.6794l.5145 1.3588.986-.9829.4144 1.0407c-.0287-.0145.7431-.2747.4858-1.4743z" fill="#d5d7d8" fill-rule="evenodd"/></g><g mask="url(#l)"><path clip-rule="evenodd" d="m70.734 31.2058c-.2574-1.1997-1.7578-3.9025-2.315-5.0588-.5716-1.1418-1.1291-2.7606-.8718-3.8013.043-.1879.043-.9684.2002-1.0696 1.2002-.7949 1.1145-.0289 1.6005-.3757.2427-.1879.4428-.4048.5285-.7083.3144-1.0985-.4287-3.0063-1.2575-3.8302-.2713-.2746-.6859-.448-1.1432-.5348-.1858-.2457-.4716-.4914-.8715-.7082-.7717-.4192-1.7291-.5781-2.6153-.4192.1429.0145.4718.3036.6004.3325-.2001.1301-.729.1156-.7145.4191.7-.0722 1.4717.0434 2.1147.3325-.5142.0578-1.0003.1879-1.3288.3613-.986.5203-1.2434 1.561-.986 3.0208.2571 1.4598 1.386 6.7788 1.7575 8.5421.3573 1.7778-.7715 2.9196-1.486 3.2376l.7715.0578-.257.5782c.9288.1012 1.9576-.2024 1.9576-.2024-.2001.5782-1.6004.7805-1.6004.7805s.6715.2024 1.7575-.2023c1.0861-.4192 1.7577-.6794 1.7577-.6794l.5146 1.3587.9859-.9973.4145 1.0407c-.0287-.0145.7431-.2747.4859-1.4743z" fill="#fff" fill-rule="evenodd"/></g><path clip-rule="evenodd" d="m64.8037 19.2382c0-.3035.2429-.5492.543-.5492s.5431.2457.5431.5492-.243.5492-.5431.5492-.543-.2457-.543-.5492z" fill="#2d4f8e" fill-rule="evenodd"/><path clip-rule="evenodd" d="m65.4468 19.0912c0-.0927.0742-.1855.1855-.1855.0928 0 .1855.0742.1855.1855 0 .0928-.0742.1855-.1855.1855s-.1855-.0742-.1855-.1855z" fill="#fff" fill-rule="evenodd"/><path clip-rule="evenodd" d="m68.5049 18.9057c0-.2601.2143-.4625.4716-.4625s.4717.2168.4717.4625c0 .2602-.2144.477-.4717.477-.2716 0-.4716-.2168-.4716-.477z" fill="#2d4f8e" fill-rule="evenodd"/><path clip-rule="evenodd" d="m69.0479 18.831c0-.1159.0927-.1855.1856-.1855.1159 0 .1854.0928.1854.1855 0 .116-.0929.1855-.1854.1855-.0929 0-.1856-.0927-.1856-.1855z" fill="#fff" fill-rule="evenodd"/><path clip-rule="evenodd" d="m64.6977 17.448c-.5805.2198-.3628.6732-.3628.6732s-.0145-.2473.3919-.4809c.3918-.2473.8127-.0687.8127-.0687s-.1583-.1971-.4811-.1971c-.1033 0-.2235.0201-.3607.0735z" fill="#2d4f8e" fill-rule="evenodd"/><path clip-rule="evenodd" d="m68.1533 17.6234s.1293-.1952.6032-.1952c.2155 0 .517.1562.517.1562s-.1149-.2731-.4451-.3252c-.0489-.0063-.0943-.0092-.1365-.0092-.4778 0-.5386.3734-.5386.3734z" fill="#2d4f8e" fill-rule="evenodd"/><path clip-rule="evenodd" d="m66.9464 21.2673c.0575-.3307.9058-.9489 1.5097-.992.6038-.0432.7907-.0288 1.2939-.1438.5033-.115 1.7972-.4457 2.1567-.6039.3594-.1725 1.8836.0863.8052.6758-.4602.2588-1.711.7332-2.6168 1.0064-.8914.2732-1.4377-.2588-1.7397.1869-.23.3451-.0431.8339 1.0208.9345 1.4378.1294 2.8325-.6469 2.9763-.23.158.4169-1.2366.9345-2.0847.9489-.8484.0144-2.5594-.5607-2.8182-.7332-.23-.2013-.5751-.6183-.5032-1.0496z" fill="#fdd20a" fill-rule="evenodd"/><path clip-rule="evenodd" d="m67.5933 25.6237s-2.0273-1.0783-2.056-.647c-.0288.4458 0 2.2285.23 2.3723.2301.1294 1.9266-.8771 1.9266-.8771z" fill="#65bc46" fill-rule="evenodd"/><path clip-rule="evenodd" d="m68.37 25.5518s1.3802-1.0496 1.6966-.9777c.3017.0719.3736 2.2285.1006 2.3292-.2732.1008-1.8547-.5462-1.8547-.5462z" fill="#65bc46" fill-rule="evenodd"/><path clip-rule="evenodd" d="m67.1042 25.7388c0 .7043-.1006 1.0064.2013 1.0783s.877 0 1.0783-.1294c.2013-.1296.0288-1.0496-.0287-1.2221-.0719-.1727-1.2509-.0289-1.2509.2732z" fill="#43a244" fill-rule="evenodd"/><path clip-rule="evenodd" d="m67.2339 25.5805c0 .7045-.1007 1.021.2013 1.0783.3019.0719.877 0 1.0783-.1292.2013-.1296.0289-1.0497-.0288-1.2221-.0719-.1727-1.2508-.0289-1.2508.273z" fill="#65bc46" fill-rule="evenodd"/><path clip-rule="evenodd" d="m67.165 28.33c4.5094 0 8.165-3.6556 8.165-8.165s-3.6556-8.165-8.165-8.165-8.165 3.6556-8.165 8.165 3.6556 8.165 8.165 8.165z" fill="#de5833" fill-rule="evenodd"/><g mask="url(#m)"><path clip-rule="evenodd" d="m68.6796 27.4536c-.3416-.6641-.6682-1.2751-.871-1.6793-.5388-1.0791-1.0805-2.6005-.8341-3.5817.0449-.1782-.5076-6.6014-.8982-6.8082-.4341-.2314-1.3772-.5362-1.8657-.6178-.3402-.0545-.4178.0408-.5607.0626.1348.0136.7757.3293.8995.347-.1238.0844-.4899-.0027-.7239.1007-.1184.0544-.2069.2558-.2041.3511.6668-.0681 1.7092-.0014 2.327.2721-.4913.0558-1.237.1184-1.5582.2872-.9308.4899-1.3418 1.6371-1.0968 3.0115.2436 1.3717 1.3227 6.3755 1.667 8.0466.3429 1.6697 4.288 1.32 3.7178.2082z" fill="#d5d7d8" fill-rule="evenodd"/><path d="m67.2712 21.9627c-.2449.9811.2939 2.5012.8342 3.5817.1815.361.4616.8878.763 1.471-.703.1742-2.4085.4181-3.6071 0-.343-1.667-1.4221-6.6721-1.6684-8.0466-.245-1.3744 0-2.3556.9335-2.8455.3198-.1687.777-.2912 1.2669-.3456-.6178-.2749-1.3499-.3811-2.0194-.313-.0028-.2831.4967-.2667.6845-.3947-.1239-.0176-.4314-.2953-.5675-.3089.8493-.1456 1.7229-.0079 2.4862.392.3892.2082.6641.4313.8342.6654.4437.0844.8356.245 1.0914.5008.7866.7852 1.4888 2.5801 1.1948 3.6116-.083.2858-.2721.494-.5089.6668-.46.3348-.3783-.3878-1.5228.3607-.1483.0966-.1483.826-.1946 1.0043z" fill="#fff"/></g><path clip-rule="evenodd" d="m65.1876 19.554c.2849 0 .5158-.2309.5158-.5158 0-.2848-.2309-.5157-.5158-.5157-.2848 0-.5157.2309-.5157.5157 0 .2849.2309.5158.5157.5158z" fill="#2d4f8e" fill-rule="evenodd"/><path clip-rule="evenodd" d="m65.4175 19.0002c.0737 0 .1334-.0598.1334-.1334 0-.0737-.0597-.1334-.1334-.1334-.0736 0-.1333.0597-.1333.1334 0 .0736.0597.1334.1333.1334z" fill="#fff" fill-rule="evenodd"/><path clip-rule="evenodd" d="m68.6332 19.1743c.2442 0 .4423-.198.4423-.4422 0-.2443-.1981-.4423-.4423-.4423-.2443 0-.4423.198-.4423.4423 0 .2442.198.4422.4423.4422z" fill="#2d4f8e" fill-rule="evenodd"/><path clip-rule="evenodd" d="m68.8306 18.6994c.0631 0 .1143-.0512.1143-.1143s-.0512-.1143-.1143-.1143-.1143.0512-.1143.1143.0512.1143.1143.1143z" fill="#fff" fill-rule="evenodd"/><path clip-rule="evenodd" d="m65.3359 17.5454s-.3892-.1769-.7661.0613c-.377.2367-.3634.479-.3634.479s-.2-.4464.3334-.6655c.5348-.2177.7961.1252.7961.1252z" fill="url(#g)" fill-rule="evenodd"/><path clip-rule="evenodd" d="m68.9 17.51s-.279-.1592-.4967-.1565c-.445.0055-.5661.2015-.5661.2015s.0748-.4682.6436-.3743c.1855.0339.3423.1572.4192.3293z" fill="url(#h)" fill-rule="evenodd"/><path clip-rule="evenodd" d="m66.7662 21.0264c.0517-.313.8573-.9022 1.4289-.9389.5715-.0354.7484-.0273 1.2247-.1416.4777-.1129 1.7065-.4191 2.0454-.577.3402-.1565 1.7827.0776.7661.6451-.4395.2463-1.6248.6981-2.4726.9512-.8465.2531-1.3595-.2422-1.6412.1742-.2232.3307-.0449.7838.9662.8777 1.3663.1266 2.6754-.6151 2.8197-.2204.1442.3946-1.1731.8845-1.976.9008-.8029.015-2.4195-.5307-2.6618-.6994-.2436-.1674-.5661-.5621-.4994-.9717z" fill="#fdd20a" fill-rule="evenodd"/><path clip-rule="evenodd" d="m69.7191 23.8164c-.2885-.064-1.6003.9281-1.6003.9281h.0014l-.0613.762s1.4997.6138 1.7555.5185c.2558-.098.1919-2.1433-.0953-2.2086zm-4.2852.3837c.0313-.415 1.95.6097 1.95.6097l.0014-.0014.0953.8002s-1.599.958-1.8236.8301c-.2231-.1279-.2558-1.8222-.2231-2.2386z" fill="#65bc46" fill-rule="evenodd"/><path clip-rule="evenodd" d="m66.9199 24.9173c0 .6709-.0966.9594.1905 1.0233.2885.064.8315 0 1.0248-.1279.1905-.1279.0313-.9907-.0327-1.1512-.064-.1606-1.1839-.0327-1.1839.2558z" fill="#43a244" fill-rule="evenodd"/><path clip-rule="evenodd" d="m67.0425 24.769c0 .6709-.0966.958.1905 1.022.2871.0653.8301 0 1.0234-.1279.1918-.128.0326-.9907-.0313-1.1513-.064-.1606-1.184-.0313-1.184.2558z" fill="#65bc46" fill-rule="evenodd"/><path clip-rule="evenodd" d="m67.165 27.0117c3.7813 0 6.8467-3.0654 6.8467-6.8467s-3.0654-6.8467-6.8467-6.8467-6.8467 3.0654-6.8467 6.8467 3.0654 6.8467 6.8467 6.8467zm0 .6379c4.1336 0 7.4846-3.351 7.4846-7.4846s-3.351-7.4846-7.4846-7.4846-7.4846 3.351-7.4846 7.4846 3.351 7.4846 7.4846 7.4846z" fill="#fff" fill-rule="evenodd"/><path d="m84.5264 13.7355h.742v13.3572h-.742z" fill="#666"/></g></svg>