<svg xmlns="http://www.w3.org/2000/svg" xmlns:xlink="http://www.w3.org/1999/xlink" width="340" height="205"><defs><path id="a" d="M0 204.637h298.008V0H0z"/></defs><g fill="none" fill-rule="evenodd"><path fill="#9A5CB4" d="M97.797 100.806L66.76 69.769 95.709 40.82c.146-.146.303-.29.464-.433L85.925 24.765c-1.16-1.768-3.682-2.141-5.192-.663l-.023.023-4.51 4.51v7.417l-4.045 4.046h-7.418L44.603 60.231c-5.246 5.246-9.537 15.607-9.537 23.025v61.37c0 13.482-13.484 23.74-26.974 24.84v31.125h26.974c-4.29-5.39-10.86-8.088-18.208-8.092V181.55a46.994 46.994 0 0016.185 2.857c2.525 0 5-.208 7.417-.59V172.27h24.147c.246-.221.496-.435.736-.66a39.87 39.87 0 008.835.997c21.974 0 39.786-17.813 39.786-39.786 0-13.128-7.545-23.394-16.167-32.014"/><path fill="#C296E6" d="M39.635 147.992h60.168v-9.44H41.135c0 3.104-.528 6.307-1.5 9.44M8.092 169.467v31.124h3.372V171.49c13.611 0 24.361-11.212 28.171-23.498h-5.521c-1.915 11.794-13.68 20.468-26.022 21.475"/><path fill="#FFF" d="M34.391 138.552v6.074c0 1.147-.1 2.27-.277 3.366h5.521c.972-3.133 1.5-6.336 1.5-9.44H34.39z"/><mask id="b" fill="#fff"><use xlink:href="#a"/></mask><path fill="#E5E5E5" d="M173.98 36.726h4.72v-2.023h-4.72zm6.744-5.395h44.506v-2.023h-44.506zm46.529 0h4.72v-2.023h-4.72zm-46.529 5.395h44.506v-2.023h-44.506zm-6.744 5.394h4.72v-2.022h-4.72zm35.758 37.764a5.727 5.727 0 015.715-5.395h3.049a3.342 3.342 0 01-.69-2.023 3.371 3.371 0 013.372-3.372h10.79V45.492h-57.993v12.813h8.94c1.89 0 3.462 1.055 3.802 2.697h4.79a3.372 3.372 0 013.372 3.372v1.349h-20.904v26.3a2.705 2.705 0 002.697 2.696h52.599a2.705 2.705 0 002.697-2.697V79.884h-22.236zM173.98 31.331h4.72v-2.023h-4.72zm53.273 5.395h4.72v-2.023h-4.72zm-46.529 5.394h44.506v-2.022h-44.506zm46.529 0h4.72v-2.022h-4.72z" mask="url(#b)"/><path fill="#744A87" d="M148.056 177.162l-3.073 2.947v-.01l-6.374 6.5c.001.003.065.005.066.008.965 1.662 2.873 5.183 4.029 7.445l21.884-21.932c-5.903-.671-11.638.149-16.532 5.042m-24.511-32.555l-.108-.576a45.771 45.771 0 00-10.625-4.805H98.356l-11.076 29.01a43.687 43.687 0 0114.209-2.373c2.067 0 4.107.142 6.108.414.445.06.885.139 1.325.212l1.954-.447c.565.11 1.13.224 1.688.356l.037.008c1.404.334 2.782.732 4.131 1.194l.022.007a43.131 43.131 0 015.937 2.564l.228 1.145c.302.166.61.325.907.499a41.728 41.728 0 0110.08 8.17l9.637-9.637a45.912 45.912 0 00-7.69-15.13 2.078 2.078 0 01-1.827-.496l-9.837-8.96a2.075 2.075 0 01-.644-1.155" mask="url(#b)"/><path fill="#230545" d="M118.556 141.419a45.272 45.272 0 00-5.745-2.193h-11.66v.674c0 7.476-4.601 15.417-11.319 21.651l-2.552 6.686a43.683 43.683 0 0114.208-2.374c.397 0 .793.01 1.188.02 8.043-5.75 13.85-14.421 15.88-24.464" mask="url(#b)"/><path fill="#C296E6" d="M92.385 44.144h-9.44v-9.441H76.2v-5.395l-10.79 10.79h5.395v6.743h9.44v9.44z" mask="url(#b)"/><path fill="#9A5CB4" d="M91.71 66.397l.001 20.23h56.644v-20.23z" mask="url(#b)"/><path fill="#744A87" d="M91.71 81.907l.001 4.72h56.644v-4.72z" mask="url(#b)"/><path fill="#744A87" d="M104.523 86.627h23.84v-20.23h-23.84z" mask="url(#b)"/><path fill="#230545" d="M104.523 86.627h23.602v-6.743h-23.602z" mask="url(#b)"/><path fill="#744A87" d="M95.757 118.996h15.273c-2.978-6.886-7.897-12.855-13.233-18.19L79.235 82.243l-4.383 4.383L84.985 96.76c5.336 5.337 10.772 14.145 10.772 22.237" mask="url(#b)"/><path fill="#C296E6" d="M41.135 130.46h54.622v-9.441H41.135zm2.697-70.132c-5.245 5.245-9.44 15.51-9.44 22.928v37.763h6.743V86.627c0-7.417.92-17.778 6.165-23.024l23.506-23.505h-6.743l-20.23 20.23zM83.221 21.31a19.007 19.007 0 00-2.3 1.929l-4.72 4.72v6.744l7.88-7.88c.532-.533 1.273-1.05 1.923-1.552l-2.783-3.961z" mask="url(#b)"/><path fill="#FFF" d="M34.391 130.46h6.744v-9.441H34.39z" mask="url(#b)"/><path fill="#744A87" d="M111.71 120.671a38.351 38.351 0 00-.676-1.675H95.757v2.023h16.076c-.042-.115-.08-.233-.123-.348M65.411 171.47v.153a39.88 39.88 0 008.767.983c16.599 0 30.813-10.169 36.778-24.613H93.829c-4.517 10.644-16.336 20.536-28.418 23.478m30.346-32.919h17.782c.024-.173.05-.344.073-.517.027-.206.056-.411.08-.619a42.405 42.405 0 00.177-1.98c.017-.263.036-.524.049-.788a41.03 41.03 0 00.046-1.828c0-.558-.018-1.11-.045-1.657-.007-.129-.013-.258-.021-.386-.007-.107-.02-.21-.027-.317H95.757v8.092z" mask="url(#b)"/><path fill="#9A5CB4" d="M113.757 129.094a33.391 33.391 0 00-.213-1.555c-.017-.105-.033-.211-.052-.317a34.58 34.58 0 00-.304-1.59l-.01-.047a35.328 35.328 0 00-.38-1.544l-.06-.22a34.417 34.417 0 00-.473-1.58l-.001-.005c-.135-.41-.282-.814-.431-1.217H95.757v9.44h18.114a30.34 30.34 0 00-.106-1.3l-.008-.065m-18 10.132c0 2.894-.694 5.859-1.928 8.766h17.127a39.51 39.51 0 002.487-8.766c.037-.223.065-.45.096-.674H95.757v.674zm52.261-67.434c-3.465 0-6.528-1.693-8.43-4.29v8.464c.438-.08.888-.128 1.35-.128h9.44a7.418 7.418 0 010 14.835h-4.795a17.74 17.74 0 006.818 1.35c3.073 0 5.59-.68 8.092-2.024l17.587 3.509a2.695 2.695 0 003.173-2.108l.29-1.454a2.704 2.704 0 00-2.116-3.173l-11.568-2.314c-1.455-.29-1.297-1.44-1.297-2.552 0-1.113-.134-2.023 1.35-2.023h14.16a2.705 2.705 0 002.698-2.697v-2.698a2.705 2.705 0 00-2.698-2.697h-34.054z" mask="url(#b)"/><path fill="#9A5CB4" d="M148.018 71.792h19.893c-1.483 0-1.349-.91-1.349-2.023s-.158-2.262 1.297-2.552l11.568-2.314a2.704 2.704 0 002.116-3.174l-.29-1.454a2.695 2.695 0 00-3.173-2.107l-17.587 3.509h-13.486c-1.484 0-3.556.857-4.606 1.907l-2.812 2.813v1.105c1.901 2.597 4.964 4.29 8.43 4.29" mask="url(#b)"/><path fill="#744A87" d="M157.796 83.256a7.418 7.418 0 00-7.418-7.418h-9.44c-.462 0-.912.048-1.35.128v10.661a18.3 18.3 0 005.995 4.046h4.795a7.418 7.418 0 007.418-7.417" mask="url(#b)"/><path fill="#744A87" d="M165.214 80.558a4.72 4.72 0 01-4.72 4.72h-10.116a4.72 4.72 0 110-9.44h10.115a4.72 4.72 0 014.72 4.72" mask="url(#b)"/><path fill="#FFF" d="M64.063 40.098h6.743l5.395-5.395V27.96z" mask="url(#b)"/><path fill="#744A87" d="M156.993 89.301c-2.152.264-4.268.112-6.6-.548-4.828-1.362-8.53-4.519-10.804-8.572v6.446c3.3 3.331 7.753 5.395 12.812 5.395 3.073 0 5.59-.68 8.092-2.023h.003l-3.503-.698z" mask="url(#b)"/><path fill="#6FBF5C" d="M145.514 59.606l19.073 19.073 9.537-9.536-19.073-19.074z" mask="url(#b)"/><path fill="#FFF" d="M162.799 67.354a4.215 4.215 0 10-5.96-5.96 4.215 4.215 0 005.96 5.96" mask="url(#b)"/><path fill="#5A9C4B" d="M157.435 52.453l-2.384-2.384-2.384 2.384a3.372 3.372 0 004.768 0m14.305 19.073l2.384-2.383-2.385-2.385a3.372 3.372 0 000 4.768m-23.841-14.304l-2.384 2.384 2.384 2.383a3.372 3.372 0 000-4.767m19.073 19.073a3.371 3.371 0 00-4.768 0l2.384 2.384 2.384-2.384z" mask="url(#b)"/><path fill="#FFF" d="M226.579 110.566c0 .559.453 1.012 1.011 1.012h7.418a1.012 1.012 0 000-2.023h-7.418c-.558 0-1.011.453-1.011 1.011m-14.836 51.25c0 .559.454 1.012 1.012 1.012h8.766a1.012 1.012 0 000-2.023h-8.766c-.558 0-1.012.453-1.012 1.011" mask="url(#b)"/><path fill="#230545" d="M129.474 66.397h-3.372v20.23h13.487v-20.23zM95.757 98.765L66.76 69.77 53.947 56.956l-3.276 3.276c-5.245 5.245-9.536 15.606-9.536 23.024v43.158h6.743l3.372-3.373 3.372 3.373h26.973l3.372-3.373 3.372 3.373 3.372-3.373 3.371 3.373h13.487l3.792-3.792c-2.652-8.444-8.314-15.567-14.564-21.817l-2.04-2.04z" mask="url(#b)"/><path fill="#744A87" d="M50.671 60.232l3.276-3.275-3.371-3.372-6.309 6.307c-5.432 5.432-9.875 16.161-9.875 23.843v42.679l3.371-3.373 3.372 3.373v-43.16c0-7.417 4.291-17.778 9.536-23.022" mask="url(#b)"/><path fill="#FFF" d="M97.645 67.362c1.44 1.443 4.268 3.747 6.738 3.747 3.86 0 4.953-1.724 6.767-5.245 2.448-4.75 3.713-10.172 3.713-15.934 0-1.198-.064-2.381-.184-3.546-3.37 6.797-8.902 12.242-15.537 15.87-2.803 1.534-2.616 3.988-1.497 5.108" mask="url(#b)"/><path fill="silver" d="M114.727 47.322c-.858 5.697-2.916 10.871-6.044 15.204-2.319 3.21-3.657 4.752-7.474 4.177-1.446-.218-2.894-1.254-4.087-2.403-.5 1.176-.166 2.372.523 3.063 1.441 1.441 4.268 3.746 6.738 3.746 3.86 0 4.953-1.723 6.768-5.245 2.448-4.75 3.712-10.172 3.712-15.934 0-.92-.049-1.829-.12-2.73l-.016.122" mask="url(#b)"/><path fill="#744A87" d="M73.266 101.678a14.025 14.025 0 002.855 4.601c.204.265.35.442.418.524l-.007.012.01-.01.044.053s.304-.352.772-.987c.109-.138.225-.288.346-.456a23.3 23.3 0 00.8-1.166c.525 1.34 1.297 2.537 2.104 3.547 1.83 2.75 3.685 4.457 3.685 4.457s1.922-1.771 3.784-4.608c.74-.972 1.434-2.095 1.917-3.356a13.86 13.86 0 001.534 1.981c.207.27.355.45.424.533a.124.124 0 01-.006.012l.01-.01.044.053s.304-.352.771-.987c.11-.138.225-.288.347-.456.515-.71 1.12-1.592 1.643-2.668 1.486-2.701 3.019-6.506 3.019-10.725H70.806c0 3.689 1.172 7.06 2.46 9.656" mask="url(#b)"/><path fill="#FFF" d="M75.136 67.362c-1.44 1.443-4.267 3.747-6.738 3.747-3.859 0-4.953-1.724-6.767-5.245-2.447-4.75-3.712-10.172-3.712-15.934 0-1.198.064-2.381.184-3.546 3.37 6.797 8.902 12.242 15.536 15.87 2.804 1.534 2.616 3.988 1.497 5.108" mask="url(#b)"/><path fill="silver" d="M73.639 62.254c-4.013-2.195-7.619-5.058-10.59-8.48.602 3.22 1.626 6.276 3.077 9.093 1.815 3.52 2.909 5.245 6.768 5.245.603 0 1.227-.14 1.847-.367.14-.132.274-.26.396-.383 1.118-1.12 1.306-3.574-1.498-5.108m31.403-3.949h8.875c.104-.444.187-.898.274-1.349h-7.58c-.513.463-1.033.915-1.569 1.349" mask="url(#b)"/><path fill="silver" d="M66.171 56.956H58.59c.087.451.17.905.274 1.349h8.875a37.781 37.781 0 01-1.568-1.349m48.563-4.046c.035-.448.065-.896.084-1.348h-3.311a35.98 35.98 0 01-1.048 1.348h4.275zm-53.459-1.348h-3.311c.018.452.049.9.083 1.348h4.275c-.359-.44-.709-.89-1.047-1.348m12.524 10.789H60.087c.169.455.352.904.54 1.349h14.694c-.335-.482-.831-.944-1.522-1.349" mask="url(#b)"/><path fill="#C296E6" d="M51.924 66.397c0 1.154.124 2.284.358 3.372 1 4.633 4.04 8.497 8.409 10.147v4.68c0 8.69 7.27 15.518 15.96 15.518h16.633c8.69 0 15.96-6.828 15.96-15.518v-4.68c5.394-2.038 8.766-7.45 8.766-13.519H51.924z" mask="url(#b)"/><path fill="#744A87" d="M89.866 63.317H76.412c5.512 0 9.721-4.353 9.721-9.722 0-.84-.107-1.653-.308-2.43H74.306c-5.369 0-9.721 4.353-9.721 9.722 0 5.368 4.352 9.722 9.721 9.722h6.157c4.528 0 8.322-3.102 9.403-7.292" mask="url(#b)"/><path fill="#230545" d="M97.105 90.673h-15.96c-2.068 0-3.745-1.977-3.745-4.046h-5.245v5.096c0 2.69 2.03 5.02 4.72 5.02h14.836c2.69 0 5.394-2.33 5.394-5.02v-1.05z" mask="url(#b)"/><path fill="#E37151" d="M89.013 93.37H71.48l2.023 4.721h15.51c1.49 0 2.698-.533 2.698-2.023a2.697 2.697 0 00-2.698-2.697" mask="url(#b)"/><path fill="#FFF" d="M89.987 96.742h3.072v-3.155zm-14.686 0h2.922v-3.155zm4.271 0h9.441v-1.348h-9.44z" mask="url(#b)"/><path fill="#230545" d="M103.174 75.938a1.25 1.25 0 01-1.249 1.249h-.2a1.25 1.25 0 01-1.248-1.25v-.2c0-.689.559-1.248 1.249-1.248h.2c.69 0 1.248.56 1.248 1.249v.2zm-22.927 0a1.25 1.25 0 01-1.25 1.249h-.199a1.25 1.25 0 01-1.249-1.25v-.2c0-.689.56-1.248 1.25-1.248h.199c.69 0 1.249.56 1.249 1.249v.2zm21.323-14.261c3.368-.675 5.627-4.245 5.627-8.173 0-3.312-1.659-6.325-4.188-8.08-1.56 3.282-4.897 5.463-8.774 5.463h-4.19c1.64-2.023 1.42-4.92.307-6.973 0 0-3.282 3.007-5.32 5.044-.997.997-2.762 1.93-4.11 1.93H79.41c-5.37 0-9.721 4.407-9.721 9.777 0 5.369 4.352 9.778 9.72 9.778H98.61c4.528 0 9.78-2.697 10.86-8.766h-7.9z" mask="url(#b)"/><path fill="#C296E6" d="M97.105 91.723c0 2.69-2.705 5.02-5.394 5.02H76.875c-2.69 0-4.72-2.33-4.72-5.02v-5.096H77.4c0 2.07 1.677 4.046 3.746 4.046h15.96v1.05zm-27.648-6.445l2.698 13.487h26.973V85.278h-29.67z" mask="url(#b)"/><path fill="#9A5CB4" d="M113.964 66.397c0 6.07-3.372 11.481-8.767 13.519v4.68c0 8.69-7.269 15.518-15.96 15.518h5.395c8.69 0 15.96-6.828 15.96-15.518v-4.68c5.395-2.038 8.767-7.45 8.767-13.519h-5.395z" mask="url(#b)"/><path fill="#E37151" d="M95.776 78.13c-1.105-2.21-3.67-3.347-5.73-3.347-2.06 0-3.73 1.197-3.73 3.67v4.803h11.953l-2.493-5.125z" mask="url(#b)"/><path fill="#DE5833" d="M98.269 83.256H86.316v1.19c0 2.473 1.99 4.204 4.463 4.204h5.994c2.472 0 3.591-1.509 2.486-3.72l-.99-1.674z" mask="url(#b)"/><path fill="#DE5833" d="M92.779 78.13l2.493 5.126h2.997l-2.493-5.125c-1.105-2.21-3.707-3.348-5.767-3.348-.476 0-.929.113-1.35.249 1.642.407 3.297 1.452 4.12 3.099" mask="url(#b)"/><path fill="#9C452D" d="M99.259 84.93l-.99-1.674h-2.997l.99 1.674c1.105 2.21-.014 3.72-2.486 3.72h2.997c2.472 0 3.592-1.51 2.486-3.72" mask="url(#b)"/><path fill="#9A5CB4" d="M139.589 86.627c5.146 0 9.57-3.04 11.61-7.417h7.946a3.37 3.37 0 003.087-2.023c.18-.414.284-.869.284-1.35V74.49a3.26 3.26 0 00-.301-1.349h-22.626v13.487z" mask="url(#b)"/><path fill="#C296E6" d="M160.493 71.117h-13.486c-1.484 0-3.153.456-3.71 1.012l-1.01 1.011h18.206v-2.023z" mask="url(#b)"/><path fill="silver" d="M161.842 71.792c0-1.49-1.208-1.349-2.697-1.349h-2.698c-1.49 0-2.697-.14-2.697 1.349a2.697 2.697 0 002.697 2.697h2.698a2.697 2.697 0 002.697-2.697" mask="url(#b)"/><path fill="#6FBF5C" d="M182.747 125.065h21.579v-10.79h-21.58z" mask="url(#b)"/><path fill="#FFF" d="M196.907 119.67a3.371 3.371 0 10-6.742 0 3.371 3.371 0 006.742 0" mask="url(#b)"/><path fill="#5A9C4B" d="M185.443 114.275h-2.696v2.698a2.697 2.697 0 002.696-2.698m18.882 2.698v-2.698h-2.697a2.697 2.697 0 002.697 2.698m-21.578 5.394v2.698h2.696a2.697 2.697 0 00-2.696-2.698m21.579 0h-.001a2.697 2.697 0 00-2.697 2.698h2.698v-2.698zm-49.902 25.625l13.487-13.486-6.743-6.744-13.487 13.487z" mask="url(#b)"/><path fill="#6FBF5C" d="M159.903 135.77a2.98 2.98 0 10-4.215 4.216 2.98 2.98 0 004.215-4.216" mask="url(#b)"/><path fill="#5A9C4B" d="M149.366 139.564l-1.685 1.685 1.686 1.686c.931-.93.931-2.44 0-3.371m13.486-10.115l-1.685-1.687-1.687 1.687c.932.93 2.441.93 3.372 0m-10.115 16.858l1.686 1.685 1.686-1.685a2.384 2.384 0 00-3.372 0m13.487-13.487c-.93.931-.93 2.44 0 3.371l1.686-1.685-1.686-1.686zm42.022-36.698l16.966 7.027 3.514-8.483-16.967-7.027z" mask="url(#b)"/><path fill="#6FBF5C" d="M221.165 96.503a2.904 2.904 0 00-1.57-3.788 2.9 2.9 0 101.57 3.788" mask="url(#b)"/><path fill="#5A9C4B" d="M213.816 88.49l-2.056-.851-.87 2.1c1.212.501 2.425-.038 2.926-1.249m14.074 8.314l-.033-.04.87-2.099-2.058-.851c-.502 1.211.038 2.501 1.222 2.99m-18.776-2.781l-.868 2.099 2.056.852c.503-1.212.025-2.45-1.188-2.951m16.967 7.028l.051-.004c-1.182-.49-2.475.039-2.976 1.25l2.056.851.869-2.097zm-96.347 4.533l17.444 7.225 3.613-8.723-17.445-7.225z" mask="url(#b)"/><path fill="#6FBF5C" d="M143.017 105.975a2.984 2.984 0 00-1.613-3.894 2.983 2.983 0 00-2.282 5.51 2.983 2.983 0 003.895-1.616" mask="url(#b)"/><path fill="#5A9C4B" d="M135.46 97.737l-2.113-.875-.894 2.158c1.246.516 2.493-.038 3.008-1.283m14.472 8.548l-.036-.04.895-2.159-2.115-.876c-.516 1.247.039 2.573 1.256 3.075m-19.305-2.86l-.893 2.159 2.114.876c.516-1.246.025-2.518-1.22-3.035m17.443 7.227l.054-.005c-1.216-.503-2.545.04-3.06 1.286l2.114.876.892-2.157z" mask="url(#b)"/><path fill="#6FBF5C" d="M199.345 158.857l-17.445 7.225-3.613-8.723 17.446-7.225z" mask="url(#b)"/><path fill="#FFF" d="M186.063 159.248a2.983 2.983 0 011.613-3.894 2.983 2.983 0 013.894 1.614 2.983 2.983 0 01-1.613 3.895 2.983 2.983 0 01-3.894-1.615" mask="url(#b)"/><path fill="#5A9C4B" d="M193.62 151.01l2.113-.875.893 2.158c-1.245.516-2.492-.038-3.007-1.283m-14.473 8.548l.036-.04-.895-2.159 2.116-.876c.516 1.247-.04 2.573-1.257 3.075m19.306-2.86l.893 2.159-2.115.876c-.516-1.246-.025-2.518 1.222-3.035m-17.445 7.227l-.053-.005c1.216-.503 2.545.04 3.06 1.286l-2.114.876-.893-2.157z" mask="url(#b)"/><path fill="#230545" d="M127.45 86.627h9.441V70.443h-9.44z" mask="url(#b)"/><path fill="#9A5CB4" d="M96.623 16.006a22.149 22.149 0 00-.046.003h.032l.014-.003zm-9.152 8.239c.025-.015.049-.033.074-.048 2.134-1.389 4.623-2.604 7.148-3.487l-1.356-4.059c-3.591.936-7.272 2.602-10.115 4.658l2.783 3.962a19.5 19.5 0 01.878-.636c.191-.131.39-.26.588-.39" mask="url(#b)"/><path fill="#230545" d="M97.803 15.88l-.026.003-.062.006c.036-.002.072-.006.107-.009h-.019" mask="url(#b)"/><path fill="#230545" d="M99.128 15.821c-.065 0-.135.009-.2.01l-.001-.002c-.36.005-.73.022-1.105.051l-.107.01c-.358.03-.722.066-1.092.116l-.014.002c-.01.002-.022 0-.032.002a26.94 26.94 0 00-3.24.64l1.356 4.06c-2.525.884-5.014 2.098-7.148 3.487l-.074.048c-.2.128-.395.259-.588.39-.3.21-.596.42-.879.636l10.17 15.116c2.733-2.422 7.545-4.335 11.046-4.335l-8.092-20.23z" mask="url(#b)"/><path fill="#230545" d="M87.471 24.245c-.197.13-.397.259-.588.39.194-.131.389-.263.588-.39" mask="url(#b)"/><path fill="#FFF" d="M134.194 131.808a1.35 1.35 0 001.349 1.349h6.069a1.35 1.35 0 000-2.697h-6.07a1.35 1.35 0 00-1.348 1.348m-8.092 0a1.35 1.35 0 001.349 1.349h.674a1.35 1.35 0 000-2.697h-.674a1.35 1.35 0 00-1.349 1.348" mask="url(#b)"/><path fill="#6FBF5C" d="M53.13 116.25l19.072 19.073 9.537-9.535-19.073-19.074z" mask="url(#b)"/><path fill="#FFF" d="M70.414 123.999a4.215 4.215 0 10-5.96-5.96 4.215 4.215 0 005.96 5.96" mask="url(#b)"/><path fill="#5A9C4B" d="M65.05 109.098l-2.384-2.384-2.384 2.384a3.372 3.372 0 004.768 0m14.305 19.073l2.384-2.384-2.384-2.384a3.371 3.371 0 000 4.768m-23.842-14.305l-2.384 2.384 2.384 2.384a3.371 3.371 0 000-4.768m19.074 19.074a3.371 3.371 0 00-4.769 0l2.384 2.383 2.385-2.383z" mask="url(#b)"/><path fill="#C296E6" d="M64.637 172.269H45.855v-10.79H34.39v-5.394c-2.396 4.067-5.895 7.54-9.83 10.115h5.11v11.464h10.79v6.158a47.03 47.03 0 0024.176-11.553" mask="url(#b)"/><path fill="#9A5CB4" d="M14.161 195.87h4.72v-16.183h-4.72z" mask="url(#b)"/><path fill="#230545" d="M8.092 192.499h10.79v-8.092H8.092z" mask="url(#b)"/><path fill="#744A87" d="M8.092 192.499h3.372v-8.092H8.092zm135.12-10.377l2.023-2.023-2.023 2.023z" mask="url(#b)"/><path fill="#230545" d="M143.543 170.348l-2.023 2.023-7.615 7.615a39.772 39.772 0 014.83 6.614l4.477-4.477 2.023-2.023a44.436 44.436 0 00-1.692-9.752" mask="url(#b)"/><path fill="#E5E5E5" d="M122.013 202.614c-2.369-6.367-8.417-10.79-15.51-10.79H80.306c-7.092 0-13.14 4.423-15.51 10.79h57.218z" mask="url(#b)"/><path fill="#C296E6" d="M54.622 158.782a2.697 2.697 0 105.395 0 2.697 2.697 0 00-5.395 0m-4.721-4.72a1.35 1.35 0 102.699-.001 1.35 1.35 0 00-2.699 0" mask="url(#b)"/><path fill="#9A5CB4" d="M114.667.93l-12.83 12.848c-2.26 2.265-1.013 6.137 2.145 6.657l2.847.468c5.54.912 10.206-4.413 8.343-9.708l-.04-.11 4.508-5.181a2.706 2.706 0 00.001-3.827L118.494.931a2.706 2.706 0 00-3.827 0" mask="url(#b)"/><path fill="#6FBF5C" d="M128.35 32.484l26.455-5.264-2.631-13.227-26.457 5.262z" mask="url(#b)"/><path fill="#FFF" d="M143.57 22.584a3.372 3.372 0 00-3.963-2.652 3.373 3.373 0 001.313 6.614 3.372 3.372 0 002.65-3.962" mask="url(#b)"/><path fill="#5A9C4B" d="M129.026 18.598l-3.308.658.658 3.306c1.984-.394 3.043-1.98 2.65-3.964m23.805-1.298l-.658-3.307-3.307.657c.364 1.827 1.98 3.046 3.965 2.65m-25.14 11.875l.659 3.309 3.305-.657c-.394-1.986-1.98-3.046-3.964-2.652m26.456-5.262s-3.045 1.982-2.65 3.966l3.308-.659-.658-3.307z" mask="url(#b)"/><path fill="#9A5CB4" d="M141.994 28l-11.797-.013c-1.484 0-1.552-1.157-1.77-2.249-.216-1.092-.526-1.958.929-2.247l13.888-2.763a2.705 2.705 0 002.12-3.171l-.526-2.646a2.707 2.707 0 00-3.172-2.12l-13.89 2.763c-1.455.29-1.5-.63-1.716-1.722-.217-1.09-.597-2.186.773-2.755l10.895-4.527a2.703 2.703 0 001.456-3.524l-.653-.442c-.193-.132-.359-.296-.525-.459a2.682 2.682 0 00-2.913-.568L118.528 8.43l-13.227 2.631c-1.455.29-3.32 1.536-4.145 2.77l-2.002 2.998 3.74 18.802c3.885 2.623 8.656 3.779 13.618 2.792 3.013-.6 5.352-1.912 7.545-3.72h17.93c1.484.007 2.699-1.036 2.7-2.519l.001-1.483a2.706 2.706 0 00-2.694-2.7" mask="url(#b)"/><path fill="#C296E6" d="M105.959 13.019l13.227-2.632 19.688-8.11-.258-.621a2.695 2.695 0 00-3.524-1.447l-16.564 6.87L105.3 9.713c-1.455.289-3.32 1.535-4.144 2.77l-2.21 3.306.658 3.308 2.222-3.248c.824-1.233 2.677-2.54 4.133-2.83" mask="url(#b)"/><path fill="silver" d="M146.424 15.97a2.024 2.024 0 00-2.38-1.59l-2.645.527a2.023 2.023 0 10.79 3.969l2.645-.527a2.022 2.022 0 001.59-2.379" mask="url(#b)"/><path fill="#FFF" d="M140.03 1.446A2.023 2.023 0 00137.387.35l-2.491 1.032a2.023 2.023 0 101.547 3.738l2.493-1.031a2.024 2.024 0 001.094-2.643" mask="url(#b)"/><path fill="silver" d="M139.2 31.252c0-1.116.907-1.944 2.024-1.944h2.697c1.117 0 2.023.828 2.023 1.945s-.905 1.985-2.023 1.984l-2.698.02a2.008 2.008 0 01-2.022-2.005" mask="url(#b)"/><path fill="#744A87" d="M123.896 34.703c-2.085 0-4.158.24-6.211.597-1.152.201-2.327.269-3.781.269-6.01 0-9.381-.866-11.97-4.758l1.053 5.29.187.625c3.887 2.623 9.633 2.659 12.813 2.023 3.372-.674 5.877-2.023 8.07-4.046h-.161z" mask="url(#b)"/><path fill="#C296E6" d="M105.872 24.588a2.697 2.697 0 105.395 0 2.697 2.697 0 00-5.395 0m5.394-6.744a1.35 1.35 0 102.699 0 1.35 1.35 0 00-2.699 0" mask="url(#b)"/><path fill="#9A5CB4" d="M65.411 87.302a1.35 1.35 0 102.699-.001 1.35 1.35 0 00-2.699 0m-2.023-4.045a1.35 1.35 0 102.699-.001 1.35 1.35 0 00-2.699 0" mask="url(#b)"/><path fill="#C296E6" d="M16.859 175.64a1.35 1.35 0 102.698 0 1.35 1.35 0 00-2.698 0" mask="url(#b)"/><path fill="#9A5CB4" d="M89.013 34.703h4.046v-4.046h-4.046z" mask="url(#b)"/><path fill="#9A5CB4" d="M90.362 40.098h5.395v-6.07h-5.395z" mask="url(#b)"/><path fill="#230545" d="M93.396 66.06a7.08 7.08 0 00-7.08-7.08 7.08 7.08 0 00-7.08 7.08 7.08 7.08 0 007.08 7.08 7.08 7.08 0 007.08-7.08m180.663 47.826a5.058 5.058 0 00-4.659-7.028h-3.372a5.036 5.036 0 00-3.43 1.348h-4.507c-2.747 0-4.975 3.257-4.975 6.005 0 1.945-.076 5.418-2.315 7.657-2.488 2.487-5.972 4.545-9.587 4.545h-9.915a2.023 2.023 0 000 4.047h4.384a1.012 1.012 0 010 2.023h-9.347c-2.473 0-4.477 1.91-4.477 4.383s2.004 4.383 4.477 4.383h10.267c.961 0 1.741.724 1.741 1.686 0 .961-.78 1.686-1.741 1.686h-2.738c-1.098 0-1.99.923-1.99 2.023 0 1.098.892 2.023 1.99 2.023h9.377c5.071 0 10.24-3.6 14.023-7.382l1.158-1.244c1.473-1.504 2.548-4.416 2.548-6.522v-2.507c2.023-.474 2.697-1.735 2.697-3.233v-4.063c1.535 0 3.539-.76 3.997-2.14.675 1.036 3.17 1.923 4.659 1.923 2.748 0 4.903-2.25 4.903-4.998 0-2.085-1.34-3.872-3.168-4.615" mask="url(#b)"/><path fill="#DE5833" d="M267.882 113.601H263.5c-3.258 0-5.9 2.867-5.9 6.125v3.934c0 3.259 2.642 6.125 5.9 6.125h4.383c3.259 0 5.9-2.866 5.9-6.125v-3.934c0-3.258-2.641-6.125-5.9-6.125" mask="url(#b)"/><path fill="#230545" d="M272.434 120.85a.845.845 0 01-.843.843h-.337a.845.845 0 01-.843-.843v-.337c0-.463.38-.843.843-.843h.337c.464 0 .843.38.843.843v.337zm-6.069 0a.845.845 0 01-.843.843h-.337a.845.845 0 01-.843-.843v-.337c0-.463.38-.843.843-.843h.337c.464 0 .843.38.843.843v.337z" mask="url(#b)"/><path fill="#DE5833" d="M268.986 166.893l1.307-1.445a37.705 37.705 0 01-1.617-1.479l-5.085 5.621c6.942 5.527 15.841 8.651 25.4 8.172.678-.035 1.35-.09 2.017-.158l-.126-2.526c-8.22-.342-15.811-3.339-21.896-8.185m-30.388-3.723l5.77 4.872c-6.15 6.397-14.113 9.062-24.093 11.431-.66.157-3.799.903-4.554 1.081l2.303-4.011c8.622-2.092 15.496-6.898 20.574-13.373m49.346-38.105h-5.395c-.794 0-1.518.471-1.844 1.2l-.109.243-11.428 4.931c.362.681.569 1.47.569 2.313v1.115l13.357-5.756h4.85a2.025 2.025 0 002.023-2.023 2.025 2.025 0 00-2.023-2.023" mask="url(#b)"/><path fill="#230545" d="M269.168 131.44l-5.808 2.506c.638.904.982 2.002.982 3.178v.068l5.395-2.325v-1.115a4.9 4.9 0 00-.57-2.313" mask="url(#b)"/><path fill="#5A9C4B" d="M271.76 162.828l-4.72-4.72v-24.356c0-2.563-1.87-4.641-4.434-4.641h-.124a4.639 4.639 0 00-4.511 3.566c-.033.21-.072.419-.107.628-.7 4.033-2.028 7.945-3.885 11.44-2.807 5.284-6.825 9.99-11.674 13.363-3.247 2.184-6.698 3.872-10.52 5.04l.017-.006a36.009 36.009 0 006.138 4.257 33.826 33.826 0 0016.373 4.195h1.242c7.151 0 13.626-2.195 19.084-5.887l-2.88-2.879z" mask="url(#b)"/><path fill="#6FBF5C" d="M244.328 160.13c4.849-3.371 8.866-8.078 11.674-13.362 1.857-3.495 3.186-7.407 3.884-11.44.037-.21.075-.417.107-.628a4.64 4.64 0 014.512-3.566h.124c.696 0 1.34.158 1.91.434-.72-1.462-2.161-2.457-3.933-2.457h-.124a4.64 4.64 0 00-4.512 3.566c-.032.21-.07.419-.107.628-.698 4.033-2.028 7.945-3.884 11.44-2.808 5.284-6.825 9.99-11.674 13.363-3.247 2.184-6.698 3.872-10.52 5.04l.018-.006a36.396 36.396 0 002.42 1.893c3.655-1.161 6.976-2.8 10.105-4.904" mask="url(#b)"/><path fill="#230545" d="M274.639 165.707c-5.458 3.693-11.933 5.887-19.084 5.887h-1.242c-8.682 0-16.421-3.227-22.51-8.452l-.018.005c-.423.13-.848.255-1.28.371-.483.133-.973.26-1.471.373 6.425 6.752 15.223 11.075 25.279 11.075h1.242c8.025 0 15.202-2.758 21.04-7.302l-1.956-1.957zm15.783 8.728l-1.246 3.494 3.811 1.359 3.511-9.845c-3.697.33-5.181 2.483-6.076 4.992m-72.206 4.913l1.054-3.102-4.092.972-2.874 7.317c3.686-.45 5.1-2.65 5.912-5.187" mask="url(#b)"/><path fill="#DE5833" d="M265.69 129.448a3.035 3.035 0 01-6.068 0v-3.372a3.035 3.035 0 016.069 0v3.372z" mask="url(#b)"/><path fill="#FFF" d="M268.96 127.762a2.649 2.649 0 00-2.546-3.372h-1.446a2.65 2.65 0 00-2.65 2.65c0 .25.039.492.104.722h6.538zm-30.243 35.74c0 .371.304.675.674.675a.677.677 0 00.675-.675.676.676 0 00-.675-.674.676.676 0 00-.674.674m9.441 0c0 .371.303.675.674.675a.677.677 0 00.675-.675.676.676 0 00-.675-.674.676.676 0 00-.674.674m-4.72 4.046c0 .371.303.675.674.675.37 0 .674-.304.674-.675a.676.676 0 00-.674-.674.676.676 0 00-.674.674m14.161-4.046c0 .371.303.675.674.675.37 0 .674-.304.674-.675a.676.676 0 00-.674-.674.676.676 0 00-.674.674m-4.721 4.046c0 .371.304.675.675.675.37 0 .674-.304.674-.675a.676.676 0 00-.674-.674.676.676 0 00-.675.674m14.162-4.046c0 .371.303.675.674.675.37 0 .674-.304.674-.675a.676.676 0 00-.674-.674.676.676 0 00-.675.674m-4.719 4.046c0 .371.303.675.673.675a.677.677 0 00.675-.675.676.676 0 00-.675-.674.676.676 0 00-.674.674m-14.161-12.138c0 .371.303.675.674.675a.677.677 0 00.675-.675.676.676 0 00-.675-.674.676.676 0 00-.674.674m-4.72 4.046c0 .371.303.675.674.675.37 0 .674-.304.674-.675a.676.676 0 00-.674-.674.676.676 0 00-.674.674m14.161-4.046c0 .371.303.675.674.675.37 0 .674-.304.674-.675a.676.676 0 00-.674-.674.676.676 0 00-.674.674m-4.721 4.046c0 .371.304.675.675.675.37 0 .674-.304.674-.675a.676.676 0 00-.674-.674.676.676 0 00-.675.674m9.442 0c0 .371.303.675.673.675a.677.677 0 00.675-.675.676.676 0 00-.675-.674.676.676 0 00-.674.674m-4.72-12.138c0 .371.303.674.674.674.37 0 .674-.303.674-.674a.676.676 0 00-.674-.674.676.676 0 00-.674.674m-4.721 4.046c0 .371.304.675.675.675.37 0 .674-.304.674-.675a.676.676 0 00-.674-.674.676.676 0 00-.675.674m9.442 0c0 .371.303.675.673.675a.677.677 0 00.675-.675.676.676 0 00-.675-.674.676.676 0 00-.674.674m-4.72-10.789c0 .37.303.674.674.674.37 0 .674-.303.674-.674a.676.676 0 00-.674-.675.676.676 0 00-.674.675m4.721 4.045c0 .372.303.675.673.675a.676.676 0 00.675-.674.676.676 0 00-.675-.675.676.676 0 00-.674.675" mask="url(#b)"/><path fill="#230545" d="M269.4 109.555h-7.755l-6.744 6.743v13.722a11.417 11.417 0 004.384-9.001c0-.03-.005-.057-.005-.086 5.697-.666 10.12-5.502 10.12-11.378" mask="url(#b)"/><path fill="#DE5833" d="M297.956 134.128a2.697 2.697 0 01-2.12 3.171l-5.29 1.053a2.697 2.697 0 11-1.053-5.291l5.29-1.053a2.699 2.699 0 013.173 2.12m-30.916 1.312a3.572 3.572 0 00-1.799-.485 3.597 3.597 0 000 7.193c.657 0 1.27-.178 1.798-.485v-6.222z" mask="url(#b)"/><path fill="#DE5833" d="M291.865 133.606a.345.345 0 00-.281-.068l-14.184 2.99h-12.72a.337.337 0 00-.338.338v3.709h13.432a.339.339 0 00.07-.008l13.878-2.928a.336.336 0 00.268-.33v-3.44a.34.34 0 00-.125-.263" mask="url(#b)"/><path fill="#9A5CB4" d="M78.898 81.57c0 .931-.755 1.686-1.686 1.686h-4.046a1.686 1.686 0 110-3.372h4.046c.931 0 1.686.755 1.686 1.686m29.672 0c0 .931-.756 1.686-1.687 1.686h-4.046a1.686 1.686 0 110-3.372h4.046c.931 0 1.686.755 1.686 1.686" mask="url(#b)"/><path fill="#744A87" d="M128.125 75.838l-2.023-2.023-2.023 2.023 2.023 2.023z" mask="url(#b)"/><path fill="#744A87" d="M126.102 77.86l-2.023 2.024h4.046zm2.023-11.463h-4.046l2.023 2.023z" mask="url(#b)"/><path fill="#9A5CB4" d="M132.53 155.63l-.02-.025a45.837 45.837 0 00-1.359-1.538l-.023-.026a44.986 44.986 0 00-1.433-1.482l-.018-.018a45.675 45.675 0 00-1.509-1.426l-.008-.008a45.934 45.934 0 00-3.937-3.164l-.786-3.912 1.642 8.17-9.915 1.973 1.972 9.914-9.55 2.187a44.853 44.853 0 012.133.342l.066.011c.707.132 1.41.28 2.105.444l.036.009a44.62 44.62 0 014.132 1.193l.022.008a43.472 43.472 0 017.746 3.532l-.747-3.754 9.915-1.972-1.972-9.915 1.679-.332c-.058-.07-.113-.142-.17-.211" mask="url(#b)"/><path fill="#C296E6" d="M128.16 151.107l.008.008c.514.464 1.018.94 1.51 1.426l.017.018c.49.484.967.978 1.433 1.482l.023.026c.465.503.918 1.016 1.36 1.538.006.009.013.016.02.024.057.07.112.143.17.212l3.152-.622a46.49 46.49 0 00-1.3-1.613l-.02-.024a46.515 46.515 0 00-1.359-1.538l-.023-.026a45.667 45.667 0 00-1.433-1.482l-.018-.018a45.672 45.672 0 00-1.509-1.426l-.008-.008a46.178 46.178 0 00-6.745-5.053l.785 3.912a45.934 45.934 0 013.937 3.164" mask="url(#b)"/><path fill="#E5E5E5" d="M215.79 146.644h-8.093a1.35 1.35 0 010-2.698h8.092a1.35 1.35 0 010 2.698M9.44 134.506H1.35a1.35 1.35 0 010-2.698h8.09a1.35 1.35 0 010 2.698" mask="url(#b)"/><path fill="#FFF" d="M37.089 103.486h-8.092a1.35 1.35 0 010-2.697h8.092a1.35 1.35 0 010 2.697" mask="url(#b)"/><path fill="#E5E5E5" d="M26.974 83.93h-8.092a1.35 1.35 0 010-2.697h8.092a1.35 1.35 0 010 2.697m-14.836 0H10.79a1.35 1.35 0 010-2.697h1.35a1.35 1.35 0 010 2.697m36.413-23.602H33.717a1.35 1.35 0 010-2.697h14.836a1.35 1.35 0 010 2.697m129.473 144.309h-8.092a1.35 1.35 0 010-2.697h8.092a1.35 1.35 0 010 2.697m55.971-47.204h-2.023a1.35 1.35 0 010-2.697h2.023a1.35 1.35 0 010 2.697M20.23 134.506h-2.023a1.35 1.35 0 010-2.698h2.023a1.35 1.35 0 010 2.698m221.184-14.162h-2.023a1.35 1.35 0 010-2.697h2.023a1.35 1.35 0 010 2.697m-41.809 60.691h-.674a1.35 1.35 0 010-2.697h.674a1.35 1.35 0 010 2.697m8.767 0H205a1.35 1.35 0 010-2.697h3.372a1.35 1.35 0 010 2.697m-49.227 23.602H4.046a2.029 2.029 0 01-2.023-2.023 2.03 2.03 0 012.023-2.023h155.099c1.112 0 2.023.91 2.023 2.023s-.91 2.023-2.023 2.023m118.684 0h-60.017a2.029 2.029 0 01-2.023-2.023 2.03 2.03 0 012.024-2.023h60.016c1.113 0 2.023.91 2.023 2.023s-.91 2.023-2.023 2.023" mask="url(#b)"/></g></svg>