<svg fill="none" height="339" viewBox="0 0 302 339" width="302" xmlns="http://www.w3.org/2000/svg" xmlns:xlink="http://www.w3.org/1999/xlink"><filter id="a" color-interpolation-filters="sRGB" filterUnits="userSpaceOnUse" height="129.466" width="215.151" x="43.8545" y="-96.2821"><feFlood flood-opacity="0" result="BackgroundImageFix"/><feColorMatrix in="SourceAlpha" type="matrix" values="0 0 0 0 0 0 0 0 0 0 0 0 0 0 0 0 0 0 127 0"/><feOffset/><feGaussianBlur stdDeviation="1.5"/><feColorMatrix type="matrix" values="0 0 0 0 0 0 0 0 0 0 0 0 0 0 0 0 0 0 0.1 0"/><feBlend in2="BackgroundImageFix" mode="normal" result="effect1_dropShadow"/><feBlend in="SourceGraphic" in2="effect1_dropShadow" mode="normal" result="shape"/></filter><filter id="b" color-interpolation-filters="sRGB" filterUnits="userSpaceOnUse" height="141.201" width="215.898" x="43.8545" y="143.658"><feFlood flood-opacity="0" result="BackgroundImageFix"/><feColorMatrix in="SourceAlpha" type="matrix" values="0 0 0 0 0 0 0 0 0 0 0 0 0 0 0 0 0 0 127 0"/><feOffset/><feGaussianBlur stdDeviation="1.5"/><feColorMatrix type="matrix" values="0 0 0 0 0 0 0 0 0 0 0 0 0 0 0 0 0 0 0.1 0"/><feBlend in2="BackgroundImageFix" mode="normal" result="effect1_dropShadow"/><feBlend in="SourceGraphic" in2="effect1_dropShadow" mode="normal" result="shape"/></filter><filter id="c" color-interpolation-filters="sRGB" filterUnits="userSpaceOnUse" height="16.2" width="16.2" x="229.104" y="191.337"><feFlood flood-opacity="0" result="BackgroundImageFix"/><feColorMatrix in="SourceAlpha" type="matrix" values="0 0 0 0 0 0 0 0 0 0 0 0 0 0 0 0 0 0 127 0"/><feOffset dy=".675"/><feGaussianBlur stdDeviation=".675"/><feColorMatrix type="matrix" values="0 0 0 0 0 0 0 0 0 0 0 0 0 0 0 0 0 0 0.236158 0"/><feBlend in2="BackgroundImageFix" mode="normal" result="effect1_dropShadow"/><feBlend in="SourceGraphic" in2="effect1_dropShadow" mode="normal" result="shape"/></filter><filter id="d" color-interpolation-filters="sRGB" filterUnits="userSpaceOnUse" height="81" width="302" x="0" y="80"><feFlood flood-opacity="0" result="BackgroundImageFix"/><feColorMatrix in="SourceAlpha" type="matrix" values="0 0 0 0 0 0 0 0 0 0 0 0 0 0 0 0 0 0 127 0"/><feOffset dy="6"/><feGaussianBlur stdDeviation="11.5"/><feColorMatrix type="matrix" values="0 0 0 0 0 0 0 0 0 0 0 0 0 0 0 0 0 0 0.16 0"/><feBlend in2="BackgroundImageFix" mode="normal" result="effect1_dropShadow"/><feBlend in="SourceGraphic" in2="effect1_dropShadow" mode="normal" result="shape"/></filter><filter id="e" color-interpolation-filters="sRGB" filterUnits="userSpaceOnUse" height="54.9944" width="288.159" x="7" y="84.4595"><feFlood flood-opacity="0" result="BackgroundImageFix"/><feColorMatrix in="SourceAlpha" type="matrix" values="0 0 0 0 0 0 0 0 0 0 0 0 0 0 0 0 0 0 127 0"/><feOffset/><feGaussianBlur stdDeviation="2"/><feColorMatrix type="matrix" values="0 0 0 0 0 0 0 0 0 0 0 0 0 0 0 0 0 0 0.1 0"/><feBlend in2="BackgroundImageFix" mode="normal" result="effect1_dropShadow"/><feBlend in="SourceGraphic" in2="effect1_dropShadow" mode="normal" result="shape"/></filter><filter id="f" color-interpolation-filters="sRGB" filterUnits="userSpaceOnUse" height="41.0834" width="215.151" x="43.8545" y="39.0997"><feFlood flood-opacity="0" result="BackgroundImageFix"/><feColorMatrix in="SourceAlpha" type="matrix" values="0 0 0 0 0 0 0 0 0 0 0 0 0 0 0 0 0 0 127 0"/><feOffset/><feGaussianBlur stdDeviation="1.5"/><feColorMatrix type="matrix" values="0 0 0 0 0 0 0 0 0 0 0 0 0 0 0 0 0 0 0.1 0"/><feBlend in2="BackgroundImageFix" mode="normal" result="effect1_dropShadow"/><feBlend in="SourceGraphic" in2="effect1_dropShadow" mode="normal" result="shape"/></filter><linearGradient id="g" gradientUnits="userSpaceOnUse" x1="154" x2="154" y1="5" y2="85"><stop offset="0" stop-color="#c4c4c4" stop-opacity="0"/><stop offset="1" stop-color="#c4c4c4"/></linearGradient><radialGradient id="h" cx="0" cy="0" gradientTransform="matrix(0 -10.9501 10.9501 0 212.5 20.4917)" gradientUnits="userSpaceOnUse" r="1"><stop offset="0" stop-color="#f6b151"/><stop offset="1" stop-color="#e09d40"/></radialGradient><linearGradient id="i" gradientUnits="userSpaceOnUse" x1="152" x2="152" y1="139" y2="211"><stop offset="0" stop-color="#c4c4c4"/><stop offset="1" stop-color="#c4c4c4" stop-opacity="0"/></linearGradient><clipPath id="j"><path d="m57.6543 190.663h187.65v16.2h-187.65z"/></clipPath><clipPath id="k"><rect height="35.0834" rx="3.73306" width="209.151" x="46.8545" y="42.0997"/></clipPath><mask id="l" height="80" maskUnits="userSpaceOnUse" width="250" x="29" y="5"><path d="m29 5h250v80h-250z" fill="url(#g)"/></mask><mask id="m" height="72" maskUnits="userSpaceOnUse" width="240" x="32" y="139"><path d="m32 139h240v72h-240z" fill="url(#i)"/></mask><mask id="n" height="160" maskUnits="userSpaceOnUse" width="166" x="72" y="175"><path d="m72 334.717h165.02v-159.717h-165.02z" fill="#fff"/></mask><g mask="url(#l)"><g filter="url(#a)"><rect fill="#fff" height="123.466" rx="3.3734" width="209.151" x="46.8545" y="-93.2821"/><g fill="#888"><path d="m92.7253 18.6035c.931 0 1.6921-.3967 2.2183-.9878v-2.0159h-2.5584v.8339h1.6193v.8339c-.2429.2348-.7287.4858-1.2792.4858-1.0687 0-1.8622-.8258-1.8622-1.9512 0-1.1416.7935-1.9512 1.8622-1.9512.5991 0 1.1091.3158 1.4006.7206l.7691-.4453c-.4291-.6153-1.1172-1.1173-2.1697-1.1173-1.5707 0-2.8337 1.093-2.8337 2.7932 0 1.6921 1.263 2.8013 2.8337 2.8013z"/><path d="m100.959 18.4982-1.328-2.1212c.656-.1052 1.287-.6315 1.287-1.5868 0-1.0039-.704-1.6921-1.7728-1.6921h-2.3722v5.4001h.9473v-2.0159h.9472l1.1902 2.0159zm-1.9352-2.8498h-1.3035v-1.7164h1.3035c.5343 0 .9229.3319.9229.8501 0 .5262-.3886.8663-.9229.8663z"/><path d="m107.574 18.4982-2.121-5.4001h-1.182l-2.122 5.4001h1.077l.397-1.0444h2.477l.397 1.0444zm-1.741-1.8783h-1.943l.972-2.5746z"/><path d="m111.015 18.4982c1.684 0 2.817-1.1091 2.817-2.7041 0-1.5787-1.133-2.696-2.825-2.696h-2.008v5.4001zm-.008-.8339h-1.061v-3.7323h1.069c1.198 0 1.846.8258 1.846 1.8621 0 1.0282-.68 1.8702-1.854 1.8702z"/><path d="m119.29 18.4982v-.8339h-2.752v-1.5059h2.696v-.8339h-2.696v-1.3925h2.752v-.8339h-3.7v5.4001z"/><path d="m127.737 18.4982v-.8339h-2.753v-1.5059h2.696v-.8339h-2.696v-1.3925h2.753v-.8339h-3.7v5.4001z"/><path d="m134.233 18.4982v-5.4001h-.948v3.7404l-2.76-3.7404h-.972v5.4001h.947v-3.8618l2.818 3.8618z"/><path d="m140.927 18.4982v-5.4001h-.947v2.2021h-2.809v-2.2021h-.948v5.4001h.948v-2.364h2.809v2.364z"/><path d="m147.783 18.4982-2.121-5.4001h-1.182l-2.121 5.4001h1.077l.396-1.0444h2.478l.396 1.0444zm-1.74-1.8783h-1.944l.972-2.5746z"/><path d="m153.888 18.4982v-5.4001h-.947v3.7404l-2.761-3.7404h-.972v5.4001h.948v-3.8618l2.817 3.8618z"/><path d="m158.478 18.5954c1.084 0 1.756-.5748 2.169-1.2225l-.809-.4048c-.259.4452-.786.7853-1.36.7853-1.069 0-1.863-.8258-1.863-1.9512 0-1.1416.794-1.9512 1.863-1.9512.574 0 1.101.332 1.36.7854l.801-.421c-.396-.6477-1.077-1.2064-2.161-1.2064-1.595 0-2.834 1.1254-2.834 2.7932 0 1.6597 1.239 2.7932 2.834 2.7932z"/><path d="m165.941 18.4982v-.8339h-2.753v-1.5059h2.696v-.8339h-2.696v-1.3925h2.753v-.8339h-3.7v5.4001z"/><path d="m169.773 18.4982c1.684 0 2.817-1.1091 2.817-2.7041 0-1.5787-1.133-2.696-2.825-2.696h-2.008v5.4001zm-.008-.8339h-1.061v-3.7323h1.069c1.198 0 1.846.8258 1.846 1.8621 0 1.0282-.68 1.8702-1.854 1.8702z"/><path d="m178.226 18.4982v-2.3398h2.696v-.8339h-2.696v-1.3925h2.753v-.8339h-3.7v5.4001z"/><path d="m186.87 18.4982-1.328-2.1212c.656-.1052 1.287-.6315 1.287-1.5868 0-1.0039-.704-1.6921-1.773-1.6921h-2.372v5.4001h.947v-2.0159h.948l1.19 2.0159zm-1.935-2.8498h-1.304v-1.7164h1.304c.534 0 .923.3319.923.8501 0 .5262-.389.8663-.923.8663z"/><path d="m191.145 18.5954c1.611 0 2.761-1.1821 2.761-2.7932s-1.15-2.7932-2.761-2.7932c-1.619 0-2.761 1.1821-2.761 2.7932s1.142 2.7932 2.761 2.7932zm0-.842c-1.093 0-1.789-.842-1.789-1.9512 0-1.1173.696-1.9512 1.789-1.9512 1.085 0 1.789.8339 1.789 1.9512 0 1.1092-.704 1.9512-1.789 1.9512z"/><path d="m201.264 18.4982v-5.4001h-1.336l-1.465 3.708-1.474-3.708h-1.336v5.4001h.947v-4.1695l1.66 4.1695h.405l1.652-4.1695v4.1695z"/></g><path clip-rule="evenodd" d="m206.542 15.5c0-3.2907 2.667-5.95837 5.958-5.95837 1.58 0 3.096.62777 4.213 1.74517 1.118 1.1174 1.745 2.6329 1.745 4.2132 0 3.2907-2.667 5.9583-5.958 5.9583s-5.958-2.6676-5.958-5.9583zm7.383.7745c-.199.4639-.65.7696-1.154.7828-.407.0004-.797-.1658-1.078-.46s-.43-.6907-.412-1.0973c-.02-.4071.128-.8045.41-1.0991.282-.2945.672-.4602 1.08-.4582.508.0089.964.3153 1.164.7827l1.195-.5796c-.426-.9081-1.357-1.471-2.359-1.4273-1.641 0-2.912 1.1294-2.912 2.7815 0 1.652 1.26 2.7814 2.912 2.7814 1 .0278 1.921-.5388 2.348-1.4435z" fill="url(#h)" fill-rule="evenodd"/><path d="m109.582 2.94446c1.331 0 2.137-.59159 2.568-1.18319l-1.116-1.048744c-.309.443694-.78.712604-1.372.712604-1.035 0-1.761-.766385-1.761-1.895799 0-1.129411.726-1.882361 1.761-1.882361.592 0 1.063.24202 1.372.69917l1.116-1.04875c-.431-.59159-1.237-1.16975-2.568-1.16975-1.99 0-3.442 1.41177-3.442 3.401691 0 2.003369 1.452 3.415129 3.442 3.415129z" fill="#333"/><path d="m114.974 2.78312v-4.28909c.282-.4168 1.035-.73949 1.6-.73949.201 0 .349.01344.47.04033v-1.66723c-.807 0-1.6.47059-2.07 1.0353v-.87395h-1.708v6.49413z" fill="#333"/><path d="m121.163 2.94446c1.009 0 2.03-.30924 2.676-.90084l-.767-1.129413c-.416.403363-1.169.631933-1.721.631933-1.102 0-1.747-.658823-1.868-1.452102h4.826v-.403362c0-2.110926-1.304-3.563036-3.253-3.563036-1.963 0-3.362 1.51933-3.362 3.401691 0 2.084039 1.493 3.415129 3.469 3.415129zm1.506-4.03362h-3.2c.067-.64538.524-1.38487 1.587-1.38487 1.129 0 1.559.76638 1.613 1.38487z" fill="#333"/><path d="m128.595 2.94446c1.008 0 2.03-.30924 2.676-.90084l-.767-1.129413c-.417.403363-1.17.631933-1.721.631933-1.102 0-1.748-.658823-1.869-1.452102h4.827v-.403362c0-2.110926-1.304-3.563036-3.254-3.563036-1.963 0-3.361 1.51933-3.361 3.401691 0 2.084039 1.492 3.415129 3.469 3.415129zm1.506-4.03362h-3.2c.067-.64538.524-1.38487 1.586-1.38487 1.13 0 1.56.76638 1.614 1.38487z" fill="#333"/><path d="m136.686 2.94446c1.667 0 2.877-1.25042 2.877-3.415129 0-2.164711-1.21-3.401691-2.877-3.401691-.794 0-1.506.34958-2.004.98152v-.82017h-1.707v8.96808h1.707v-3.30757c.538.67227 1.237.99496 2.004.99496zm-.538-1.51933c-.552 0-1.184-.33613-1.466-.752939v-2.285721c.296-.43025.914-.7395 1.466-.7395.981 0 1.653.76639 1.653 1.882361 0 1.129414-.672 1.895799-1.653 1.895799z" fill="#333"/><path d="m140.598 5.31086c.202.06722.646.10756.834.10756 1.116-.02689 1.976-.34958 2.46-1.57311l3.052-7.55632h-1.828l-1.708 4.517654-1.694-4.517654h-1.828l2.635 6.5748-.242.56471c-.161.34958-.457.47059-.901.47059-.161 0-.39-.04034-.538-.10757z" fill="#333"/><path d="m150.046 2.94446c1.802 0 2.824-.87395 2.824-2.070588 0-2.621852-3.859-1.815129-3.859-2.769752 0-.36303.403-.63194 1.022-.63194.793 0 1.533.34958 1.923.75295l.685-1.21009c-.645-.51093-1.519-.8874-2.608-.8874-1.721 0-2.662.95463-2.662 2.0437 0 2.554632 3.845 1.68068 3.845 2.742867 0 .403363-.35.685713-1.089.685713-.807 0-1.761-.44369-2.245-.900839l-.74 1.236979c.686.63193 1.775 1.0084 2.904 1.0084z" fill="#333"/><path d="m154.961-4.41017c.565 0 1.022-.45715 1.022-1.02185 0-.56471-.457-1.00841-1.022-1.00841-.551 0-1.008.4437-1.008 1.00841 0 .5647.457 1.02185 1.008 1.02185zm.861 7.19329v-6.49413h-1.708v6.49413z" fill="#333"/><path d="m159.693 2.94446c.713 0 1.17-.18823 1.425-.4168l-.363-1.30421c-.094.10757-.336.20168-.591.20168-.377 0-.592-.30924-.592-.726049v-2.917651h1.318v-1.49244h-1.318v-1.7748h-1.707v1.7748h-1.076v1.49244h1.076v3.3748c0 1.16975.632 1.78823 1.828 1.78823z" fill="#333"/><path d="m165.11 2.94446c1.009 0 2.031-.30924 2.676-.90084l-.766-1.129413c-.417.403363-1.17.631933-1.722.631933-1.102 0-1.747-.658823-1.868-1.452102h4.826v-.403362c0-2.110926-1.304-3.563036-3.253-3.563036-1.963 0-3.362 1.51933-3.362 3.401691 0 2.084039 1.493 3.415129 3.469 3.415129zm1.506-4.03362h-3.2c.067-.64538.525-1.38487 1.587-1.38487 1.129 0 1.559.76638 1.613 1.38487z" fill="#333"/><path d="m170.311 2.93102c.592 0 1.089-.49748 1.089-1.08908s-.497-1.089077-1.089-1.089077c-.591 0-1.089.497477-1.089 1.089077s.498 1.08908 1.089 1.08908z" fill="#333"/><path d="m175.863 2.94446c1.331 0 2.138-.59159 2.568-1.18319l-1.116-1.048744c-.309.443694-.779.712604-1.371.712604-1.035 0-1.761-.766385-1.761-1.895799 0-1.129411.726-1.882361 1.761-1.882361.592 0 1.062.24202 1.371.69917l1.116-1.04875c-.43-.59159-1.237-1.16975-2.568-1.16975-1.99 0-3.442 1.41177-3.442 3.401691 0 2.003369 1.452 3.415129 3.442 3.415129z" fill="#333"/><path d="m182.559 2.94446c2.152 0 3.442-1.57311 3.442-3.415129 0-1.842021-1.29-3.401691-3.442-3.401691-2.137 0-3.428 1.55967-3.428 3.401691 0 1.842019 1.291 3.415129 3.428 3.415129zm0-1.51933c-1.062 0-1.653-.873948-1.653-1.895799 0-1.008401.591-1.882361 1.653-1.882361 1.076 0 1.668.87396 1.668 1.882361 0 1.021851-.592 1.895799-1.668 1.895799z" fill="#333"/><path d="m197.056 2.78312v-4.69245c0-1.33109-.712-1.96303-1.909-1.96303-.995 0-1.855.5916-2.232 1.16975-.229-.72605-.847-1.16975-1.802-1.16975-.995 0-1.842.61849-2.124.99496v-.83361h-1.708v6.49413h1.708v-4.3832c.255-.34958.753-.75295 1.345-.75295.699 0 .968.43026.968 1.0353v4.10085h1.721v-4.3832c.242-.34958.739-.75295 1.344-.75295.699 0 .968.43026.968 1.0353v4.10085z" fill="#333"/></g></g><g mask="url(#m)"><g filter="url(#b)"><rect fill="#fff" height="135.201" rx="3.73483" width="209.898" x="46.8545" y="146.658"/><path d="m46.8545 210.158h209.2505v.675h-209.2505z" fill="#000" fill-opacity=".05"/><path d="m0 0h209.25v33.75h-209.25z" fill="#eee" fill-opacity=".5" transform="translate(46.8545 181.887)"/><g clip-path="url(#j)"><g fill="#333"><path d="m62.5145 201.151c1.6915 0 2.4381-.907 2.4381-1.956 0-2.344-3.6666-1.616-3.6666-2.797 0-.463.4158-.785 1.0584-.785.6615 0 1.3324.227 1.8333.728l.6237-.822c-.5765-.567-1.3797-.889-2.3531-.889-1.3891 0-2.2963.804-2.2963 1.853 0 2.315 3.6666 1.493 3.6666 2.816 0 .425-.3497.869-1.2569.869-.8788 0-1.5687-.416-1.9939-.879l-.6237.86c.567.586 1.408 1.002 2.5704 1.002z"/><path d="m66.4339 195.916c.3402 0 .6142-.274.6142-.615 0-.34-.274-.614-.6142-.614s-.6143.274-.6143.614c0 .341.2741.615.6143.615zm.4914 5.122v-4.565h-.9923v4.565z"/><path d="m69.5922 201.151c.4536 0 .7465-.132.9261-.293l-.2363-.756c-.0756.085-.2457.17-.4347.17-.2835 0-.4347-.236-.4347-.548v-2.391h.9261v-.86h-.9261v-1.247h-.9922v1.247h-.756v.86h.756v2.637c0 .765.3969 1.181 1.1718 1.181z"/><path d="m73.347 201.151c.7182 0 1.3891-.236 1.8522-.671l-.4536-.652c-.3308.331-.8505.51-1.3041.51-.86 0-1.3703-.576-1.4459-1.257h3.5154v-.245c0-1.437-.8694-2.476-2.2396-2.476-1.3514 0-2.3153 1.068-2.3153 2.391 0 1.446 1.0112 2.4 2.3909 2.4zm1.2096-2.778h-2.5704c.0378-.548.4347-1.2 1.2757-1.2.8978 0 1.2663.661 1.2947 1.2z"/><path d="m80.0608 201.038v-2.363h1.6726c1.3136 0 2.0507-.898 2.0507-1.966 0-1.077-.7277-1.975-2.0507-1.975h-2.7783v6.304zm1.5214-3.336h-1.5214v-1.994h1.5214c.6237 0 1.0679.397 1.0679 1.001 0 .596-.4442.993-1.0679.993z"/><path d="m85.6776 201.038v-3.109c.1985-.331.756-.615 1.1813-.615.1228 0 .2173.01.3024.029v-.983c-.5859 0-1.134.34-1.4837.775v-.662h-.9922v4.565z"/><path d="m88.4623 195.916c.3402 0 .6143-.274.6143-.615 0-.34-.2741-.614-.6143-.614s-.6142.274-.6142.614c0 .341.274.615.6142.615zm.4914 5.122v-4.565h-.9922v4.565z"/><path d="m92.5089 201.038 1.8617-4.565h-1.0584l-1.3325 3.421-1.3324-3.421h-1.0679l1.8617 4.565z"/><path d="m98.7831 201.038v-3.034c0-1.219-.8883-1.644-1.9089-1.644-.7277 0-1.3892.227-1.9184.737l.4158.69c.3875-.397.8411-.586 1.3514-.586.6237 0 1.0678.321 1.0678.85v.681c-.3402-.388-.8599-.586-1.4836-.586-.7466 0-1.5782.435-1.5782 1.493 0 1.002.8411 1.512 1.5782 1.512.6048 0 1.1434-.217 1.4836-.614v.501zm-2.079-.567c-.5576 0-.9828-.322-.9828-.823 0-.491.4252-.822.9828-.822.4252 0 .8505.161 1.0867.473v.699c-.2362.312-.6615.473-1.0867.473z"/><path d="m102.148 201.151c.898 0 1.427-.387 1.749-.813l-.652-.614c-.256.359-.605.548-1.049.548-.823 0-1.38-.633-1.38-1.521 0-.889.557-1.512 1.38-1.512.444 0 .793.17 1.049.529l.652-.595c-.322-.435-.851-.813-1.749-.813-1.379 0-2.3527 1.011-2.3527 2.391 0 1.379.9737 2.4 2.3527 2.4z"/><path d="m104.587 202.824c.132.037.416.066.557.066.709-.01 1.248-.255 1.56-1.03l2.202-5.387h-1.059l-1.332 3.421-1.333-3.421h-1.068l1.881 4.621-.227.52c-.132.302-.34.397-.661.397-.114 0-.274-.028-.378-.076z"/><path d="m113.099 201.038v-2.363h1.673c1.313 0 2.05-.898 2.05-1.966 0-1.077-.727-1.975-2.05-1.975h-2.779v6.304zm1.521-3.336h-1.521v-1.994h1.521c.624 0 1.068.397 1.068 1.001 0 .596-.444.993-1.068.993z"/><path d="m118.716 201.038v-3.109c.198-.331.756-.615 1.181-.615.123 0 .217.01.302.029v-.983c-.586 0-1.134.34-1.483.775v-.662h-.993v4.565z"/><path d="m123.069 201.151c1.455 0 2.344-1.096 2.344-2.4 0-1.314-.889-2.391-2.344-2.391s-2.343 1.077-2.343 2.391c0 1.304.888 2.4 2.343 2.4zm0-.879c-.841 0-1.313-.709-1.313-1.521 0-.804.472-1.512 1.313-1.512.851 0 1.314.708 1.314 1.512 0 .812-.463 1.521-1.314 1.521z"/><path d="m127.806 201.151c.453 0 .746-.132.926-.293l-.236-.756c-.076.085-.246.17-.435.17-.284 0-.435-.236-.435-.548v-2.391h.926v-.86h-.926v-1.247h-.992v1.247h-.756v.86h.756v2.637c0 .765.397 1.181 1.172 1.181z"/><path d="m131.56 201.151c.719 0 1.39-.236 1.853-.671l-.454-.652c-.331.331-.85.51-1.304.51-.86 0-1.37-.576-1.446-1.257h3.516v-.245c0-1.437-.87-2.476-2.24-2.476-1.351 0-2.315 1.068-2.315 2.391 0 1.446 1.011 2.4 2.39 2.4zm1.21-2.778h-2.57c.037-.548.434-1.2 1.275-1.2.898 0 1.267.661 1.295 1.2z"/><path d="m136.783 201.151c.898 0 1.427-.387 1.748-.813l-.652-.614c-.255.359-.605.548-1.049.548-.822 0-1.38-.633-1.38-1.521 0-.889.558-1.512 1.38-1.512.444 0 .794.17 1.049.529l.652-.595c-.321-.435-.85-.813-1.748-.813-1.38 0-2.353 1.011-2.353 2.391 0 1.379.973 2.4 2.353 2.4z"/><path d="m140.79 201.151c.454 0 .747-.132.926-.293l-.236-.756c-.076.085-.246.17-.435.17-.283 0-.434-.236-.434-.548v-2.391h.926v-.86h-.926v-1.247h-.993v1.247h-.756v.86h.756v2.637c0 .765.397 1.181 1.172 1.181z"/><path d="m142.929 195.916c.34 0 .614-.274.614-.615 0-.34-.274-.614-.614-.614s-.614.274-.614.614c0 .341.274.615.614.615zm.491 5.122v-4.565h-.992v4.565z"/><path d="m146.777 201.151c1.455 0 2.344-1.096 2.344-2.4 0-1.314-.889-2.391-2.344-2.391s-2.343 1.077-2.343 2.391c0 1.304.888 2.4 2.343 2.4zm0-.879c-.841 0-1.313-.709-1.313-1.521 0-.804.472-1.512 1.313-1.512.851 0 1.314.708 1.314 1.512 0 .812-.463 1.521-1.314 1.521z"/><path d="m154.216 201.038v-3.213c0-.936-.491-1.465-1.474-1.465-.718 0-1.313.368-1.616.727v-.614h-.992v4.565h.992v-3.195c.237-.302.671-.604 1.172-.604.558 0 .926.226.926.945v2.854z"/></g><path d="m216.955 198.763c0-4.474 3.626-8.1 8.1-8.1h12.15c4.473 0 8.1 3.626 8.1 8.1 0 4.473-3.627 8.1-8.1 8.1h-12.15c-4.474 0-8.1-3.627-8.1-8.1z" fill="#50a951"/><g filter="url(#c)"><path clip-rule="evenodd" d="m237.204 205.512c3.728 0 6.75-3.022 6.75-6.75 0-3.727-3.022-6.75-6.75-6.75s-6.75 3.023-6.75 6.75c0 3.728 3.022 6.75 6.75 6.75z" fill="#fff" fill-rule="evenodd"/></g></g><path d="m46.8545 181.212h209.2505v.675h-209.2505z" fill="#000" fill-opacity=".05"/><g fill="#333"><path d="m84.4059 167.962v-2.362h1.6727c1.3135 0 2.0506-.898 2.0506-1.966 0-1.077-.7276-1.975-2.0506-1.975h-2.7783v6.303zm1.5215-3.335h-1.5215v-1.994h1.5215c.6237 0 1.0678.397 1.0678 1.001 0 .596-.4441.993-1.0678.993z"/><path d="m90.9617 168.076c1.4553 0 2.3436-1.096 2.3436-2.4 0-1.314-.8883-2.391-2.3436-2.391s-2.3436 1.077-2.3436 2.391c0 1.304.8883 2.4 2.3436 2.4zm0-.879c-.8411 0-1.3136-.709-1.3136-1.521 0-.804.4725-1.512 1.3136-1.512.8505 0 1.3135.708 1.3135 1.512 0 .812-.463 1.521-1.3135 1.521z"/><path d="m96.388 168.076c1.4553 0 2.3436-1.096 2.3436-2.4 0-1.314-.8883-2.391-2.3436-2.391s-2.3436 1.077-2.3436 2.391c0 1.304.8883 2.4 2.3436 2.4zm0-.879c-.841 0-1.3135-.709-1.3135-1.521 0-.804.4725-1.512 1.3135-1.512.8505 0 1.3136.708 1.3136 1.512 0 .812-.4631 1.521-1.3136 1.521z"/><path d="m100.737 167.962v-3.109c.199-.33.756-.614 1.181-.614.123 0 .218.01.303.029v-.983c-.586 0-1.134.34-1.484.775v-.662h-.9922v4.564z"/><path d="m106.591 167.962v-2.362h1.673c1.313 0 2.051-.898 2.051-1.966 0-1.077-.728-1.975-2.051-1.975h-2.778v6.303zm1.522-3.335h-1.522v-1.994h1.522c.623 0 1.068.397 1.068 1.001 0 .596-.445.993-1.068.993z"/><path d="m112.208 167.962v-3.109c.199-.33.756-.614 1.181-.614.123 0 .218.01.303.029v-.983c-.586 0-1.134.34-1.484.775v-.662h-.992v4.564z"/><path d="m114.993 162.841c.34 0 .614-.274.614-.615 0-.34-.274-.614-.614-.614s-.614.274-.614.614c0 .341.274.615.614.615zm.491 5.121v-4.564h-.992v4.564z"/><path d="m119.039 167.962 1.862-4.564h-1.058l-1.333 3.421-1.332-3.421h-1.068l1.862 4.564z"/><path d="m125.314 167.962v-3.033c0-1.219-.889-1.644-1.909-1.644-.728 0-1.389.227-1.919.737l.416.69c.388-.397.841-.586 1.351-.586.624 0 1.068.321 1.068.85v.681c-.34-.388-.86-.586-1.483-.586-.747 0-1.578.434-1.578 1.493 0 1.002.841 1.512 1.578 1.512.604 0 1.143-.217 1.483-.614v.5zm-2.079-.567c-.558 0-.983-.321-.983-.822 0-.491.425-.822.983-.822.425 0 .85.161 1.086.473v.699c-.236.312-.661.472-1.086.472z"/><path d="m128.679 168.076c.898 0 1.427-.388 1.748-.813l-.652-.614c-.255.359-.605.548-1.049.548-.822 0-1.38-.633-1.38-1.521 0-.889.558-1.512 1.38-1.512.444 0 .794.17 1.049.529l.652-.596c-.321-.434-.85-.812-1.748-.812-1.38 0-2.353 1.011-2.353 2.391 0 1.379.973 2.4 2.353 2.4z"/><path d="m131.117 169.749c.133.037.416.066.558.066.709-.01 1.247-.255 1.559-1.03l2.202-5.387h-1.058l-1.333 3.421-1.332-3.421h-1.068l1.88 4.621-.226.52c-.133.302-.341.397-.662.397-.113 0-.274-.029-.378-.076z"/><path d="m139.629 167.962v-2.362h1.673c1.314 0 2.051-.898 2.051-1.966 0-1.077-.728-1.975-2.051-1.975h-2.778v6.303zm1.522-3.335h-1.522v-1.994h1.522c.624 0 1.068.397 1.068 1.001 0 .596-.444.993-1.068.993z"/><path d="m145.246 167.962v-3.109c.199-.33.756-.614 1.181-.614.123 0 .218.01.303.029v-.983c-.586 0-1.134.34-1.484.775v-.662h-.992v4.564z"/><path d="m151.32 167.962v-3.033c0-1.219-.889-1.644-1.909-1.644-.728 0-1.39.227-1.919.737l.416.69c.388-.397.841-.586 1.351-.586.624 0 1.068.321 1.068.85v.681c-.34-.388-.86-.586-1.483-.586-.747 0-1.578.434-1.578 1.493 0 1.002.841 1.512 1.578 1.512.604 0 1.143-.217 1.483-.614v.5zm-2.079-.567c-.558 0-.983-.321-.983-.822 0-.491.425-.822.983-.822.425 0 .85.161 1.086.473v.699c-.236.312-.661.472-1.086.472z"/><path d="m154.685 168.076c.898 0 1.427-.388 1.748-.813l-.652-.614c-.255.359-.605.548-1.049.548-.822 0-1.38-.633-1.38-1.521 0-.889.558-1.512 1.38-1.512.444 0 .794.17 1.049.529l.652-.596c-.321-.434-.85-.812-1.748-.812-1.38 0-2.353 1.011-2.353 2.391 0 1.379.973 2.4 2.353 2.4z"/><path d="m158.692 168.076c.454 0 .747-.132.926-.293l-.236-.756c-.076.085-.246.17-.435.17-.283 0-.435-.236-.435-.548v-2.391h.927v-.86h-.927v-1.247h-.992v1.247h-.756v.86h.756v2.637c0 .765.397 1.181 1.172 1.181z"/><path d="m160.831 162.841c.34 0 .614-.274.614-.615 0-.34-.274-.614-.614-.614s-.614.274-.614.614c0 .341.274.615.614.615zm.491 5.121v-4.564h-.992v4.564z"/><path d="m164.688 168.076c.898 0 1.427-.388 1.749-.813l-.652-.614c-.255.359-.605.548-1.049.548-.822 0-1.38-.633-1.38-1.521 0-.889.558-1.512 1.38-1.512.444 0 .794.17 1.049.529l.652-.596c-.322-.434-.851-.812-1.749-.812-1.379 0-2.353 1.011-2.353 2.391 0 1.379.974 2.4 2.353 2.4z"/><path d="m169.433 168.076c.718 0 1.389-.236 1.852-.671l-.454-.652c-.33.331-.85.51-1.304.51-.86 0-1.37-.576-1.446-1.257h3.516v-.245c0-1.437-.87-2.476-2.24-2.476-1.351 0-2.315 1.068-2.315 2.391 0 1.445 1.011 2.4 2.391 2.4zm1.209-2.778h-2.57c.038-.549.435-1.201 1.276-1.201.898 0 1.266.662 1.294 1.201z"/><path d="m174.145 168.076c1.228 0 1.899-.614 1.899-1.427 0-1.814-2.759-1.21-2.759-2.013 0-.321.321-.567.841-.567.577 0 1.077.246 1.351.548l.416-.699c-.406-.359-.992-.633-1.767-.633-1.153 0-1.795.633-1.795 1.379 0 1.758 2.759 1.116 2.759 2.013 0 .359-.312.605-.907.605-.586 0-1.219-.302-1.541-.633l-.453.709c.472.463 1.172.718 1.956.718z"/></g><path clip-rule="evenodd" d="m240.095 160.476c-.254.252-.254.664 0 .916l2.963 2.945-2.963 2.946c-.254.251-.254.664 0 .915.253.252.667.252.921 0l3.424-3.403c.253-.252.253-.664 0-.916l-3.424-3.403c-.254-.252-.668-.252-.921 0z" fill="#aaa" fill-rule="evenodd"/><path d="m65.7495 170.141c2.9801 0 5.396-2.416 5.396-5.396s-2.4159-5.396-5.396-5.396-5.396 2.416-5.396 5.396 2.4159 5.396 5.396 5.396z" style="fill-rule:evenodd;clip-rule:evenodd;stroke:#de5833;stroke-width:1.29956;stroke-linecap:round;stroke-linejoin:round"/><path d="m67.638 162.856-3.7772 3.778" stroke="#de5833" stroke-linecap="round" stroke-width="1.29956"/><path d="m67.638 166.634-3.7772-3.778" stroke="#de5833" stroke-linecap="round" stroke-width="1.29956"/></g></g><g filter="url(#d)"><path d="m23 97h256v35h-256z" fill="#c4c4c4"/></g><g filter="url(#e)"><rect fill="#fff" height="46.9944" rx="5.00046" width="280.159" x="11" y="88.4595"/><g fill="#333"><path d="m65.6419 115.63v-1.303h-3.7324c2.2521-1.708 3.6818-3.1 3.6818-4.668 0-1.683-1.417-2.594-3.0492-2.594-1.1893 0-2.3786.443-3.1251 1.354l.8604.961c.544-.607 1.2905-.999 2.2774-.999.7718 0 1.5436.392 1.5436 1.278 0 1.227-1.2906 2.315-4.5675 4.795v1.176z"/><path d="m74.0752 115.63v-7.135h2.5558v-1.304h-6.5919v1.304h2.5558v7.135z"/><path d="m78.2246 115.63v-4.162c.2657-.443 1.0122-.823 1.5815-.823.1645 0 .291.013.4049.038v-1.315c-.7844 0-1.5183.455-1.9864 1.037v-.886h-1.3285v6.111z"/><path d="m86.356 115.63v-4.061c0-1.632-1.1893-2.201-2.5558-2.201-.9742 0-1.8599.303-2.5684.986l.5567.924c.5187-.531 1.126-.784 1.8093-.784.835 0 1.4297.43 1.4297 1.138v.911c-.4555-.518-1.1514-.784-1.9864-.784-.9996 0-2.113.582-2.113 1.999 0 1.341 1.1261 2.024 2.113 2.024.8097 0 1.5309-.291 1.9864-.822v.67zm-2.7835-.759c-.7465 0-1.3159-.43-1.3159-1.1 0-.658.5694-1.101 1.3159-1.101.5693 0 1.1387.215 1.455.632v.937c-.3163.417-.8857.632-1.455.632z"/><path d="m90.8616 115.782c1.202 0 1.9105-.518 2.3407-1.088l-.873-.822c-.3417.481-.8098.734-1.4044.734-1.1008 0-1.8473-.848-1.8473-2.037 0-1.19.7465-2.025 1.8473-2.025.5946 0 1.0627.228 1.4044.709l.873-.797c-.4302-.582-1.1387-1.088-2.3407-1.088-1.8473 0-3.1504 1.353-3.1504 3.201 0 1.847 1.3031 3.213 3.1504 3.213z"/><path d="m100.098 115.63-2.5807-3.34 2.5307-2.771h-1.645l-2.695 2.948v-5.276h-1.3285v8.439h1.3285v-1.644l.8604-.886 1.8599 2.53z"/><path d="m103.824 115.782c.962 0 1.86-.316 2.48-.898l-.607-.873c-.443.443-1.139.683-1.746.683-1.152 0-1.835-.772-1.936-1.683h4.706v-.329c0-1.923-1.164-3.314-2.998-3.314-1.81 0-3.1 1.429-3.1 3.201 0 1.935 1.354 3.213 3.201 3.213zm1.62-3.72h-3.442c.051-.733.582-1.606 1.708-1.606 1.202 0 1.696.885 1.734 1.606z"/><path d="m109.361 115.63v-4.162c.266-.443 1.012-.823 1.582-.823.164 0 .291.013.405.038v-1.315c-.785 0-1.519.455-1.987 1.037v-.886h-1.328v6.111z"/><path d="m114.519 115.782c1.645 0 2.543-.822 2.543-1.91 0-2.429-3.694-1.62-3.694-2.695 0-.43.43-.759 1.126-.759.772 0 1.442.329 1.809.734l.557-.937c-.544-.481-1.329-.847-2.366-.847-1.544 0-2.404.847-2.404 1.847 0 2.353 3.695 1.493 3.695 2.695 0 .481-.418.809-1.215.809-.785 0-1.632-.404-2.062-.847l-.608.949c.633.62 1.569.961 2.619.961z"/><path d="m125.951 115.63c1.594 0 2.454-.974 2.454-2.29 0-1.024-.721-1.923-1.632-2.062.784-.164 1.468-.886 1.468-1.936 0-1.189-.848-2.151-2.404-2.151h-4.15v8.439zm-.405-4.959h-2.379v-2.176h2.379c.746 0 1.176.468 1.176 1.088 0 .645-.43 1.088-1.176 1.088zm.063 3.656h-2.442v-2.353h2.442c.835 0 1.278.544 1.278 1.177 0 .733-.481 1.176-1.278 1.176z"/><path d="m131.194 115.63v-8.439h-1.329v8.439z"/><path d="m135.688 115.782c1.949 0 3.138-1.467 3.138-3.213 0-1.759-1.189-3.201-3.138-3.201-1.948 0-3.138 1.442-3.138 3.201 0 1.746 1.19 3.213 3.138 3.213zm0-1.176c-1.126 0-1.759-.949-1.759-2.037 0-1.076.633-2.025 1.759-2.025 1.139 0 1.759.949 1.759 2.025 0 1.088-.62 2.037-1.759 2.037z"/><path d="m142.966 115.782c1.202 0 1.91-.518 2.341-1.088l-.873-.822c-.342.481-.81.734-1.405.734-1.101 0-1.847-.848-1.847-2.037 0-1.19.746-2.025 1.847-2.025.595 0 1.063.228 1.405.709l.873-.797c-.431-.582-1.139-1.088-2.341-1.088-1.847 0-3.15 1.353-3.15 3.201 0 1.847 1.303 3.213 3.15 3.213z"/><path d="m152.203 115.63-2.581-3.34 2.53-2.771h-1.645l-2.695 2.948v-5.276h-1.328v8.439h1.328v-1.644l.861-.886 1.86 2.53z"/><path d="m155.928 115.782c.962 0 1.86-.316 2.48-.898l-.607-.873c-.443.443-1.139.683-1.746.683-1.151 0-1.835-.772-1.936-1.683h4.707v-.329c0-1.923-1.164-3.314-2.999-3.314-1.809 0-3.1 1.429-3.1 3.201 0 1.935 1.354 3.213 3.201 3.213zm1.62-3.72h-3.442c.051-.733.582-1.606 1.708-1.606 1.202 0 1.696.885 1.734 1.606z"/><path d="m165.767 115.63v-8.439h-1.328v3.176c-.481-.658-1.189-.999-1.961-.999-1.569 0-2.708 1.227-2.708 3.201 0 2.024 1.151 3.213 2.708 3.213.797 0 1.493-.379 1.961-.987v.835zm-2.897-1.024c-1.063 0-1.733-.848-1.733-2.037 0-1.177.67-2.025 1.733-2.025.62 0 1.278.367 1.569.823v2.416c-.291.456-.949.823-1.569.823z"/></g><path clip-rule="evenodd" d="m39.5637 109.669c.315.303.3251.803.0225 1.118l-3.4723 3.615c-.1491.155-.355.243-.5703.243-.2152 0-.4212-.088-.5703-.243l-1.9501-2.03c-.3025-.315-.2925-.816.0225-1.118.315-.303.8156-.293 1.1181.022l1.3798 1.437 2.902-3.021c.3026-.315.8032-.325 1.1181-.023z" fill="#3ea140" fill-rule="evenodd"/><path clip-rule="evenodd" d="m36.3048 118.509c3.6186 0 6.5521-2.934 6.5521-6.552 0-3.619-2.9335-6.552-6.5521-6.552s-6.5521 2.933-6.5521 6.552c0 3.618 2.9335 6.552 6.5521 6.552zm8.1336-6.552c0 4.492-3.6415 8.133-8.1336 8.133s-8.1337-3.641-8.1337-8.133 3.6416-8.134 8.1337-8.134 8.1336 3.642 8.1336 8.134z" fill="#3ea140" fill-rule="evenodd"/><path clip-rule="evenodd" d="m269.724 106.435c-.34.337-.34.889 0 1.226l3.967 3.943-3.967 3.944c-.34.337-.34.889 0 1.226.339.337.894.337 1.233 0l4.584-4.557c.339-.337.339-.889 0-1.226l-4.584-4.556c-.339-.337-.894-.337-1.233 0z" fill="#aaa" fill-rule="evenodd"/></g><g filter="url(#f)"><g clip-path="url(#k)"><rect fill="#fff" height="35.0834" rx="3.73306" width="209.151" x="46.8545" y="42.0997"/><g fill="#333"><path d="m86.925 61.7814v-.9729h-3.2115v-1.7569h3.1454v-.9729h-3.1454v-1.6246h3.2115v-.9729h-4.3166v6.3002z"/><path d="m92.112 61.7814v-3.2115c0-.9351-.4912-1.4641-1.4735-1.4641-.7179 0-1.3129.3684-1.6152.7274v-.614h-.9918v4.5622h.9918v-3.1926c.2361-.3023.6706-.6045 1.1713-.6045.5572 0 .9256.2267.9256.9445v2.8526z"/><path d="m95.478 61.8947c.8973 0 1.4263-.3872 1.7474-.8123l-.6517-.6139c-.2551.3589-.6045.5478-1.0485.5478-.8217 0-1.379-.6329-1.379-1.5207 0-.8879.5573-1.5113 1.379-1.5113.444 0 .7934.17 1.0485.5289l.6517-.595c-.3211-.4345-.8501-.8124-1.7474-.8124-1.3791 0-2.3519 1.0107-2.3519 2.3898 0 1.379.9728 2.3991 2.3519 2.3991z"/><path d="m99.0961 61.7814v-3.1076c.1983-.3306.7556-.614 1.1809-.614.123 0 .217.0095.302.0284v-.9824c-.5856 0-1.1335.3401-1.4829.7746v-.6612h-.9918v4.5622z"/><path d="m101.19 63.5666c.132.0378.416.0661.557.0661.709-.0094 1.247-.255 1.559-1.0296l2.201-5.3839h-1.058l-1.332 3.4193-1.332-3.4193h-1.067l1.879 4.6189-.226.5195c-.133.3022-.34.3967-.662.3967-.113 0-.273-.0284-.377-.0756z"/><path d="m108.585 61.8947c1.181 0 2.021-.8973 2.021-2.3991 0-1.5019-.84-2.3898-2.021-2.3898-.595 0-1.124.2834-1.464.7368v-.6234h-.992v6.3002h.992v-2.3709c.378.4818.888.7462 1.464.7462zm-.293-.8784c-.463 0-.954-.2834-1.171-.6234v-1.8041c.227-.34.708-.6045 1.171-.6045.784 0 1.294.6234 1.294 1.5113 0 .8878-.51 1.5207-1.294 1.5207z"/><path d="m112.978 61.8947c.454 0 .746-.1322.926-.2928l-.236-.7556c-.076.085-.246.17-.435.17-.283 0-.434-.2361-.434-.5478v-2.3898h.925v-.8595h-.925v-1.2468h-.992v1.2468h-.756v.8595h.756v2.6353c0 .7651.397 1.1807 1.171 1.1807z"/><path d="m116.731 61.8947c.718 0 1.389-.2361 1.852-.6706l-.454-.6517c-.33.3305-.85.51-1.303.51-.86 0-1.37-.5762-1.445-1.2562h3.513v-.2456c0-1.4357-.869-2.4748-2.238-2.4748-1.351 0-2.314 1.0674-2.314 2.3898 0 1.4451 1.01 2.3991 2.389 2.3991zm1.209-2.777h-2.569c.038-.5478.435-1.1995 1.275-1.1995.898 0 1.266.6611 1.294 1.1995z"/><path d="m124.077 61.7814v-6.3002h-.992v2.3708c-.359-.4911-.888-.7462-1.464-.7462-1.172 0-2.022.9163-2.022 2.3898 0 1.5112.86 2.3991 2.022 2.3991.595 0 1.114-.2833 1.464-.7367v.6234zm-2.164-.7651c-.793 0-1.294-.6329-1.294-1.5207 0-.8785.501-1.5113 1.294-1.5113.463 0 .954.2739 1.172.6139v1.8041c-.218.3401-.709.614-1.172.614z"/><path d="m130.857 61.8947c1.266 0 2.05-.6706 2.532-1.4262l-.945-.4723c-.302.5195-.916.9162-1.587.9162-1.247 0-2.172-.9635-2.172-2.2764 0-1.3318.925-2.2763 2.172-2.2763.671 0 1.285.3872 1.587.9162l.935-.4912c-.463-.7556-1.256-1.4074-2.522-1.4074-1.861 0-3.306 1.3129-3.306 3.2587 0 1.9364 1.445 3.2587 3.306 3.2587z"/><path d="m136.304 61.8947c1.454 0 2.342-1.0957 2.342-2.3991 0-1.313-.888-2.3898-2.342-2.3898-1.455 0-2.343 1.0768-2.343 2.3898 0 1.3034.888 2.3991 2.343 2.3991zm0-.8784c-.841 0-1.313-.7084-1.313-1.5207 0-.8029.472-1.5113 1.313-1.5113.85 0 1.313.7084 1.313 1.5113 0 .8123-.463 1.5207-1.313 1.5207z"/><path d="m143.739 61.7814v-3.2115c0-.9351-.491-1.4641-1.473-1.4641-.718 0-1.313.3684-1.615.7274v-.614h-.992v4.5622h.992v-3.1926c.236-.3023.67-.6045 1.171-.6045.557 0 .926.2267.926.9445v2.8526z"/><path d="m149.108 61.7814v-3.2115c0-.9351-.491-1.4641-1.474-1.4641-.717 0-1.312.3684-1.615.7274v-.614h-.992v4.5622h.992v-3.1926c.236-.3023.671-.6045 1.171-.6045.558 0 .926.2267.926.9445v2.8526z"/><path d="m152.512 61.8947c.718 0 1.388-.2361 1.851-.6706l-.453-.6517c-.331.3305-.85.51-1.304.51-.859 0-1.369-.5762-1.445-1.2562h3.514v-.2456c0-1.4357-.869-2.4748-2.239-2.4748-1.351 0-2.314 1.0674-2.314 2.3898 0 1.4451 1.011 2.3991 2.39 2.3991zm1.209-2.777h-2.569c.037-.5478.434-1.1995 1.275-1.1995.897 0 1.265.6611 1.294 1.1995z"/><path d="m157.732 61.8947c.897 0 1.426-.3872 1.747-.8123l-.652-.6139c-.255.3589-.604.5478-1.048.5478-.822 0-1.379-.6329-1.379-1.5207 0-.8879.557-1.5113 1.379-1.5113.444 0 .793.17 1.048.5289l.652-.595c-.321-.4345-.85-.8124-1.747-.8124-1.379 0-2.352 1.0107-2.352 2.3898 0 1.379.973 2.3991 2.352 2.3991z"/><path d="m161.737 61.8947c.453 0 .746-.1322.926-.2928l-.236-.7556c-.076.085-.246.17-.435.17-.283 0-.434-.2361-.434-.5478v-2.3898h.925v-.8595h-.925v-1.2468h-.992v1.2468h-.756v.8595h.756v2.6353c0 .7651.397 1.1807 1.171 1.1807z"/><path d="m163.875 56.6619c.34 0 .614-.2739.614-.6139 0-.3401-.274-.614-.614-.614s-.614.2739-.614.614c0 .34.274.6139.614.6139zm.491 5.1195v-4.5622h-.992v4.5622z"/><path d="m167.721 61.8947c1.455 0 2.343-1.0957 2.343-2.3991 0-1.313-.888-2.3898-2.343-2.3898-1.454 0-2.342 1.0768-2.342 2.3898 0 1.3034.888 2.3991 2.342 2.3991zm0-.8784c-.84 0-1.313-.7084-1.313-1.5207 0-.8029.473-1.5113 1.313-1.5113.85 0 1.313.7084 1.313 1.5113 0 .8123-.463 1.5207-1.313 1.5207z"/><path d="m175.157 61.7814v-3.2115c0-.9351-.491-1.4641-1.474-1.4641-.717 0-1.313.3684-1.615.7274v-.614h-.992v4.5622h.992v-3.1926c.236-.3023.671-.6045 1.171-.6045.558 0 .926.2267.926.9445v2.8526z"/></g><path clip-rule="evenodd" d="m68.1785 57.9336c.2351.2259.2426.5996.0168.8347l-2.5923 2.6988c-.1113.1158-.265.1814-.4257.1814s-.3144-.0656-.4258-.1814l-1.4558-1.5157c-.2259-.2351-.2183-.6088.0168-.8347.2351-.2258.6088-.2183.8347.0168l1.0301 1.0724 2.1665-2.2555c.2258-.2351.5995-.2426.8347-.0168z" fill="#3ea140" fill-rule="evenodd"/><path clip-rule="evenodd" d="m65.7455 64.5328c2.7014 0 4.8914-2.19 4.8914-4.8915 0-2.7014-2.19-4.8914-4.8914-4.8914-2.7015 0-4.8915 2.19-4.8915 4.8914 0 2.7015 2.19 4.8915 4.8915 4.8915zm6.0721-4.8915c0 3.3536-2.7186 6.0722-6.0721 6.0722-3.3536 0-6.0722-2.7186-6.0722-6.0722 0-3.3535 2.7186-6.0721 6.0722-6.0721 3.3535 0 6.0721 2.7186 6.0721 6.0721z" fill="#3ea140" fill-rule="evenodd"/></g></g><g clip-rule="evenodd" fill-rule="evenodd"><path d="m148.217 253.678-24.187-24.224 22.56-22.594c.115-.115.237-.227.363-.339l-7.988-12.191c-.904-1.38-2.87-1.671-4.046-.518l-.018.018-3.515 3.52v5.79l-3.153 3.157h-5.78l-15.693 15.713c-4.088 4.094-7.4331 12.18-7.4331 17.97v47.899c0 10.522-10.509 18.53-21.022 19.388v24.292h21.022c-3.343-4.208-8.463-6.313-14.19-6.316v-8.545c4.0408 1.48 8.3109 2.234 12.614 2.23 1.968 0 3.8971-.163 5.7801-.46v-9.014h18.82c.19-.173.386-.34.573-.515 2.215.503 4.517.778 6.885.778 17.125 0 31.007-13.903 31.007-31.053 0-10.246-5.88-18.258-12.6-24.986" fill="#9a5cb4"/><path d="m102.89 290.506h46.89v-7.368h-45.721c0 2.423-.411 4.923-1.168 7.368zm-24.5831 16.761v24.292h2.627v-22.713c10.608 0 18.986-8.75 21.9551-18.34h-4.3031c-1.492 9.205-10.662 15.975-20.28 16.76" fill="#c296e6"/><path d="m98.8029 283.138v4.74c-.0016.88-.0742 1.759-.217 2.628h4.3031c.758-2.445 1.17-4.945 1.17-7.368z" fill="#fff"/><g mask="url(#n)"><path d="m187.387 313.273-2.395 2.3v-.008l-4.968 5.074c0 .002.05.004.052.005.751 1.297 2.238 4.045 3.14 5.811l17.054-17.117c-4.6-.524-9.07.116-12.883 3.935zm-19.103-25.409-.084-.45c-2.589-1.598-5.372-2.858-8.281-3.75h-11.266l-8.632 22.643c3.563-1.227 7.305-1.853 11.074-1.853 1.61 0 3.2.111 4.76.323.347.047.69.109 1.033.165l1.522-.349c.441.087.881.176 1.316.278l.029.007c1.088.259 2.162.57 3.22.932l.016.006c1.59.55 3.137 1.218 4.627 2l.178.894c.235.13.475.254.707.39 2.935 1.703 5.585 3.855 7.855 6.377l7.511-7.523c-1.247-4.274-3.28-8.278-5.993-11.808-.251.053-.511.046-.759-.022-.247-.067-.475-.192-.665-.365l-7.667-6.993c-.26-.238-.436-.555-.5-.902" fill="#744a87"/><path d="m164.396 285.376c-1.452-.672-2.948-1.244-4.478-1.712h-9.087v.527c0 5.834-3.586 12.032-8.821 16.898l-1.989 5.218c3.563-1.227 7.305-1.853 11.073-1.853.31 0 .618.008.926.015 6.268-4.487 10.794-11.255 12.376-19.093z" fill="#230545"/><path d="m144 209.454h-7.358v-7.369h-5.256v-4.21l-8.408 8.42h4.204v5.264h7.358v7.368z" fill="#c296e6"/><path d="m143.474 226.822v15.79h44.146v-15.79z" fill="#9a5cb4"/><path d="m143.474 238.927v3.685h44.146v-3.685z" fill="#744a87"/><path d="m153.46 242.612h18.578v-15.79h-18.578z" fill="#744a87"/><path d="m153.46 242.612h18.393v-5.264h-18.393z" fill="#230545"/><path d="m146.627 267.875h11.903c-2.32-5.374-6.154-10.033-10.313-14.198l-14.466-14.486-3.416 3.42 7.897 7.908c4.16 4.166 8.395 11.04 8.395 17.356z" fill="#744a87"/><path d="m104.058 276.822h42.57v-7.368h-42.57zm2.102-54.737c-4.087 4.094-7.357 12.106-7.357 17.895v29.474h5.255v-26.842c0-5.79.717-13.876 4.805-17.97l18.32-18.346h-5.256l-15.767 15.79zm30.698-30.453c-.66.478-1.269.98-1.793 1.506l-3.679 3.684v5.263l6.142-6.15c.415-.416.992-.82 1.499-1.211l-2.17-3.092z" fill="#c296e6"/><path d="m98.803 276.822h5.255v-7.368h-5.255z" fill="#fff"/><path d="m159.06 269.182c-.165-.44-.341-.876-.527-1.307h-11.906v1.579h12.53c-.034-.09-.063-.182-.096-.272zm-36.082 39.648v.12c2.2.495 4.483.767 6.832.767 12.936 0 24.014-7.937 28.662-19.21h-13.347c-3.52 8.307-12.731 16.028-22.147 18.324zm23.649-25.692h13.859c.018-.135.04-.269.057-.403.021-.16.043-.321.062-.483.058-.514.104-1.03.138-1.546.013-.205.028-.409.038-.615.047-.906.047-1.814 0-2.72l-.016-.301c-.005-.084-.014-.165-.02-.248h-14.118z" fill="#744a87"/><path d="m160.655 275.756c-.046-.406-.101-.81-.166-1.213-.013-.083-.025-.165-.04-.247-.069-.415-.148-.829-.237-1.241l-.008-.037c-.09-.406-.19-.807-.296-1.206l-.046-.17c-.113-.414-.236-.826-.369-1.234l-.001-.004c-.106-.319-.218-.635-.336-.95h-12.529v7.368h14.118c-.023-.34-.046-.68-.083-1.015l-.007-.05zm-14.028 7.908c0 2.26-.54 4.573-1.502 6.842h13.347c.908-2.198 1.559-4.494 1.94-6.842.028-.174.05-.35.074-.526h-13.859zm40.73-52.631c-1.282 0-2.545-.304-3.687-.885-1.142-.582-2.13-1.426-2.883-2.463v6.606c.347-.065.699-.099 1.052-.1h7.357c.76.001 1.512.151 2.214.442.701.291 1.339.718 1.875 1.255.537.538.963 1.176 1.253 1.878s.44 1.454.439 2.214c.001.76-.148 1.512-.438 2.214-.291.702-.716 1.34-1.253 1.878s-1.174.964-1.876 1.256c-.701.291-1.453.441-2.213.442h-3.738c1.684.698 3.491 1.056 5.314 1.052 2.395 0 4.356-.53 6.306-1.579l13.707 2.739c.546.11 1.113-.002 1.577-.311.463-.308.785-.788.895-1.334l.226-1.135c.108-.547-.005-1.114-.314-1.579-.308-.464-.789-.787-1.335-.898l-9.015-1.806c-1.134-.226-1.01-1.123-1.01-1.992 0-.868-.106-1.579 1.05-1.579h11.037c.557-.002 1.091-.225 1.485-.619s.616-.929.617-1.486v-2.105c-.001-.557-.223-1.091-.617-1.486-.394-.394-.928-.617-1.485-.619z" fill="#9a5cb4"/><path d="m187.357 231.033h15.503c-1.156 0-1.05-.71-1.05-1.58 0-.868-.124-1.765 1.01-1.99l9.015-1.807c.547-.111 1.027-.434 1.336-.898s.422-1.032.314-1.579l-.227-1.135c-.11-.546-.432-1.026-.895-1.334-.464-.309-1.031-.421-1.577-.311l-13.707 2.739h-10.51c-1.157 0-2.772.67-3.59 1.488l-2.191 2.196v.863c.753 1.037 1.741 1.88 2.883 2.462s2.405.886 3.686.886z" fill="#9a5cb4"/><path d="m194.977 239.98c.001-.76-.148-1.512-.438-2.214s-.716-1.34-1.253-1.878c-.536-.538-1.174-.964-1.875-1.256-.702-.291-1.454-.441-2.214-.442h-7.358c-.36 0-.71.038-1.051.1v8.322c1.331 1.353 2.92 2.426 4.671 3.157h3.737c.76-.001 1.512-.151 2.214-.442.701-.291 1.339-.718 1.876-1.255.536-.538.962-1.176 1.252-1.878s.44-1.454.439-2.214z" fill="#744a87"/><path d="m200.758 237.875c.001.976-.387 1.913-1.077 2.604-.689.691-1.626 1.079-2.602 1.08h-7.883c-.976-.001-1.912-.389-2.602-1.08s-1.077-1.628-1.077-2.604c0-.483.095-.962.28-1.409.184-.447.455-.853.797-1.195s.748-.614 1.194-.799c.447-.185.926-.281 1.409-.281h7.882c.484 0 .962.096 1.409.281s.852.457 1.194.799.613.748.798 1.195c.184.447.279.926.279 1.409" fill="#744a87"/><path d="m121.927 206.296h5.255l4.204-4.21v-5.264z" fill="#fff"/><path d="m194.352 244.698c-1.677.206-3.327.088-5.144-.427-3.763-1.064-6.647-3.527-8.42-6.69v5.03c2.57 2.6 6.042 4.211 9.985 4.211 2.395 0 4.356-.53 6.306-1.579h.002l-2.73-.545z" fill="#744a87"/><path d="m185.405 221.521 14.865 14.887 7.432-7.443-14.864-14.887z" fill="#6fbf5c"/><path d="m198.876 227.569c.616-.617.962-1.454.962-2.326s-.346-1.709-.962-2.326c-.305-.305-.667-.547-1.065-.713-.399-.165-.826-.25-1.257-.25-.432 0-.859.085-1.258.25-.398.166-.76.408-1.065.713-.616.618-.961 1.454-.961 2.326s.345 1.709.961 2.326c.305.305.667.548 1.065.713.399.165.826.25 1.258.25.431 0 .858-.085 1.257-.25.398-.165.76-.408 1.065-.713z" fill="#fff"/><path d="m194.695 215.94-1.857-1.861-1.858 1.86c.244.244.533.438.852.57s.66.2 1.006.2c.345 0 .686-.068 1.005-.2s.608-.326.852-.57zm11.149 14.885 1.858-1.86-1.858-1.861c-.492.494-.769 1.163-.769 1.86 0 .698.277 1.367.769 1.861zm-18.581-11.165-1.858 1.861 1.858 1.86c.492-.494.769-1.163.769-1.86s-.277-1.366-.769-1.86zm14.865 14.887c-.244-.244-.533-.438-.852-.57-.319-.133-.661-.201-1.006-.201s-.687.068-1.006.201c-.319.132-.608.326-.852.57l1.858 1.86z" fill="#5a9c4b"/><path d="m172.904 226.822h-2.627v15.79h10.511v-15.79zm-26.277 25.263-22.597-22.631-9.986-10-2.553 2.556c-4.087 4.094-7.432 12.18-7.432 17.97v33.684h5.256l2.627-2.632 2.628 2.632h21.022l2.627-2.632 2.628 2.632 2.628-2.632 2.628 2.632h10.51l2.956-2.96c-2.067-6.59-6.48-12.15-11.35-17.027l-1.59-1.592z" fill="#230545"/><path d="m111.49 222.01 2.554-2.556-2.628-2.632-4.917 4.923c-4.233 4.24-7.696 12.614-7.696 18.609v33.31l2.627-2.632 2.628 2.632v-33.684c0-5.79 3.345-13.876 7.432-17.969" fill="#744a87"/><path d="m148.1 227.576c1.122 1.125 3.325 2.924 5.25 2.924 3.008 0 3.86-1.345 5.274-4.094 1.908-3.707 2.894-7.94 2.894-12.436 0-.935-.05-1.859-.144-2.768-2.626 5.305-6.937 9.555-12.108 12.387-2.185 1.197-2.04 3.112-1.167 3.987" fill="#fff"/><path d="m161.412 211.934c-.67 4.447-2.273 8.485-4.711 11.866-1.807 2.507-2.85 3.71-5.825 3.261-1.126-.17-2.255-.979-3.184-1.875-.39.917-.13 1.85.407 2.39 1.123 1.125 3.326 2.923 5.251 2.923 3.008 0 3.86-1.344 5.274-4.093 1.908-3.707 2.894-7.94 2.894-12.436 0-.718-.038-1.427-.094-2.132z" fill="#c0c0c0"/><path d="m129.1 254.359c.501 1.33 1.257 2.549 2.224 3.59.16.207.273.345.326.41l-.005.01.008-.008.033.04s.238-.275.602-.77c.316-.409.614-.831.893-1.266.41 1.046 1.011 1.98 1.64 2.769 1.427 2.145 2.872 3.478 2.872 3.478s1.498-1.382 2.95-3.596c.576-.759 1.117-1.636 1.493-2.62.46.717.907 1.24 1.195 1.547.162.21.277.35.331.415-.002.003-.003.007-.005.01l.008-.007.034.04s.237-.275.602-.77c.085-.108.175-.225.27-.356.401-.554.873-1.242 1.28-2.082 1.159-2.109 2.353-5.078 2.353-8.37h-21.022c0 2.878.913 5.51 1.917 7.536" fill="#744a87"/><path d="m130.557 227.576c-1.123 1.124-3.326 2.924-5.251 2.924-3.008 0-3.86-1.345-5.275-4.094-1.907-3.707-2.893-7.94-2.893-12.436 0-.935.05-1.859.144-2.768 2.626 5.305 6.938 9.555 12.108 12.387 2.185 1.197 2.039 3.112 1.167 3.987z" fill="#fff"/><path d="m129.39 223.589c-3.128-1.714-5.938-3.948-8.254-6.619.47 2.513 1.268 4.899 2.399 7.097 1.414 2.748 2.267 4.094 5.275 4.094.47 0 .956-.11 1.439-.287.109-.103.214-.203.308-.299.872-.874 1.018-2.79-1.167-3.986zm24.474-3.083h6.917c.08-.347.145-.7.213-1.052h-5.908c-.4.36-.804.713-1.222 1.052z" fill="#c0c0c0"/><path d="m123.57 219.454h-5.908c.067.352.133.705.213 1.052h6.917c-.417-.339-.824-.69-1.222-1.052zm37.847-3.158c.027-.35.05-.7.066-1.053h-2.581c-.263.358-.536.709-.816 1.053zm-41.663-1.053h-2.58c.014.353.038.703.065 1.053h3.332c-.28-.344-.553-.695-.817-1.053zm9.76 8.421h-10.686c.132.355.274.705.422 1.053h11.45c-.261-.376-.648-.736-1.187-1.053" fill="#c0c0c0"/><path d="m112.467 226.822c0 .9.096 1.783.279 2.632.778 3.616 3.148 6.632 6.553 7.92v3.652c0 6.782 5.665 12.112 12.438 12.112h12.963c6.773 0 12.438-5.33 12.438-12.112v-3.653c4.204-1.59 6.832-5.814 6.832-10.55h-51.503z" fill="#c296e6"/><path d="m142.036 224.418h-10.485c4.296 0 7.576-3.398 7.576-7.588 0-.655-.084-1.29-.24-1.897h-8.977c-4.184 0-7.576 3.398-7.576 7.588s3.392 7.588 7.576 7.588h4.798c3.53 0 6.486-2.42 7.328-5.69" fill="#744a87"/><path d="m147.678 245.77h-12.438c-1.612 0-2.92-1.544-2.92-3.158h-4.087v3.977c0 2.099 1.583 3.917 3.679 3.917h11.562c2.096 0 4.204-1.818 4.204-3.917v-.82z" fill="#230545"/><path d="m141.372 247.875h-13.664l1.576 3.684h12.088c1.16 0 2.102-.416 2.102-1.579 0-.558-.221-1.093-.615-1.488-.394-.394-.929-.616-1.487-.617z" fill="#e37151"/><path d="m142.13 250.506h2.395v-2.462zm-11.444 0h2.277v-2.462zm3.328 0h7.358v-1.052h-7.358z" fill="#fff"/><path d="m152.408 234.269c0 .258-.102.506-.285.688-.182.183-.43.286-.688.286h-.156c-.258 0-.506-.103-.688-.286-.182-.182-.285-.43-.285-.688v-.157c0-.538.436-.974.973-.974h.156c.537 0 .973.436.973.974zm-17.868 0c0 .258-.103.506-.285.689-.183.182-.431.285-.689.285h-.155c-.258 0-.506-.103-.688-.286-.182-.182-.285-.43-.285-.688v-.157c0-.538.435-.974.973-.974h.155c.538 0 .974.436.974.974zm16.618-11.131c2.625-.526 4.385-3.313 4.385-6.379 0-2.585-1.293-4.936-3.264-6.306-1.216 2.562-3.816 4.264-6.837 4.264h-3.266c1.278-1.58 1.107-3.84.239-5.443 0 0-2.558 2.347-4.145 3.937-.778.778-2.154 1.506-3.205 1.506h-1.177c-4.185 0-7.577 3.44-7.577 7.631 0 4.19 3.392 7.632 7.577 7.632h14.962c3.529 0 7.622-2.105 8.464-6.842h-6.157z" fill="#230545"/><path d="m147.678 246.589c0 2.099-2.108 3.917-4.204 3.917h-11.562c-2.096 0-3.679-1.818-3.679-3.917v-3.979h4.088c0 1.616 1.307 3.158 2.92 3.158h12.437v.82zm-21.547-5.03 2.102 10.526h21.022v-10.525h-23.125z" fill="#c296e6"/><path d="m160.817 226.822c0 4.737-2.628 8.961-6.832 10.551v3.653c0 6.782-5.666 12.112-12.438 12.112h4.204c6.773 0 12.438-5.33 12.438-12.112v-3.653c4.205-1.59 6.832-5.814 6.832-10.55h-4.204z" fill="#9a5cb4"/><path d="m146.642 235.98c-.861-1.725-2.86-2.613-4.465-2.613-1.606 0-2.908.934-2.908 2.864v3.75h9.316l-1.943-4z" fill="#e37151"/><path d="m148.585 239.98h-9.315v.93c0 1.929 1.552 3.28 3.479 3.28h4.672c1.926 0 2.798-1.177 1.937-2.904l-.772-1.306zm-4.278-4 1.943 4h2.335l-1.943-4c-.861-1.725-2.889-2.613-4.494-2.613-.371 0-.724.088-1.052.194 1.28.318 2.569 1.134 3.21 2.42" fill="#de5833"/><path d="m149.357 241.287-.772-1.307h-2.335l.771 1.307c.861 1.725-.01 2.904-1.937 2.904h2.335c1.927 0 2.8-1.179 1.938-2.904z" fill="#9c452d"/><path d="m180.788 242.612c4.01 0 7.459-2.374 9.047-5.79h6.193c1.077 0 2-.65 2.406-1.579.141-.322.222-.678.222-1.052v-1.053c0-.377-.09-.73-.235-1.053h-17.633z" fill="#9a5cb4"/><path d="m197.08 230.506h-10.511c-1.157 0-2.457.356-2.891.79l-.788.79h14.19z" fill="#c296e6"/><path d="m198.13 231.033c0-1.163-.94-1.053-2.102-1.053h-2.102c-1.16 0-2.102-.11-2.102 1.053 0 1.162.941 2.105 2.102 2.105h2.102c.558-.001 1.093-.223 1.487-.617.394-.395.615-.93.615-1.488z" fill="#c0c0c0"/><path d="m214.422 272.612h16.818v-8.422h-16.818z" fill="#6fbf5c"/><path d="m225.458 268.401c0-.345-.067-.687-.199-1.007-.132-.319-.326-.609-.57-.853-.244-.245-.534-.439-.853-.571s-.66-.201-1.006-.201c-.697.001-1.366.279-1.858.772-.493.494-.769 1.163-.769 1.86s.276 1.366.769 1.86c.492.494 1.161.771 1.858.772.346 0 .687-.069 1.006-.201s.609-.326.853-.571c.244-.244.438-.534.57-.853.132-.32.199-.662.199-1.007z" fill="#fff"/><path d="m216.524 264.19h-2.102v2.106c.558-.001 1.093-.223 1.487-.617.394-.395.615-.93.615-1.488zm14.716 2.106v-2.106h-2.103c0 1.162.941 2.105 2.102 2.105zm-16.818 4.21v2.106h2.102c0-1.163-.94-2.106-2.102-2.106zm16.818 0c-.276 0-.55.055-.805.161-.256.105-.488.261-.683.456-.195.196-.35.428-.456.683-.105.256-.159.53-.159.806h2.103zm-38.89 20 10.51-10.526-5.255-5.263-10.51 10.526z" fill="#5a9c4b"/><path d="m196.619 280.967c-.215-.216-.471-.387-.753-.504s-.584-.177-.889-.177c-.306 0-.608.06-.89.177-.281.117-.537.288-.753.504-.436.437-.681 1.028-.681 1.645s.245 1.209.681 1.645c.216.216.472.387.753.504.282.117.584.178.89.178.305 0 .607-.061.889-.178s.538-.288.753-.504c.436-.436.681-1.028.681-1.645s-.245-1.209-.681-1.645z" fill="#6fbf5c"/><path d="m188.407 283.928-1.313 1.315 1.314 1.316c.349-.349.545-.822.545-1.316 0-.493-.196-.966-.545-1.315zm10.511-7.895-1.313-1.316-1.314 1.316c.172.173.377.309.603.403.225.093.466.141.71.141s.486-.048.711-.141c.226-.094.43-.23.603-.403zm-7.882 13.157 1.313 1.316 1.314-1.315c-.172-.173-.377-.31-.603-.403-.225-.094-.467-.142-.711-.142s-.485.048-.711.142c-.225.093-.43.23-.602.403zm10.511-10.526h-.001c-.349.349-.544.823-.544 1.316s.195.967.544 1.316l1.314-1.316-1.314-1.316zm-28.439-21.257 13.595 5.639 2.816-6.808-13.596-5.639z" fill="#5a9c4b"/><path d="m183.46 257.712c.235-.57.235-1.21-.001-1.78s-.688-1.023-1.257-1.26c-.282-.117-.584-.177-.889-.176-.306 0-.608.06-.89.177-.281.117-.538.289-.753.505-.216.216-.387.472-.503.754-.235.57-.235 1.21 0 1.78.236.57.688 1.023 1.257 1.26.569.235 1.209.235 1.778-.002.569-.236 1.021-.689 1.257-1.258" fill="#6fbf5c"/><path d="m177.57 251.282-1.647-.683-.697 1.685c.972.403 1.943-.03 2.344-1.002zm11.28 6.672-.029-.031.698-1.685-1.649-.684c-.402.973.03 2.008.98 2.4zm-15.046-2.232-.696 1.685 1.648.684c.402-.973.02-1.966-.952-2.369zm13.596 5.641.04-.004c-.947-.393-1.983.032-2.384 1.003l1.647.684.696-1.683z" fill="#5a9c4b"/><path d="m227.358 298.986-13.596 5.639-2.815-6.808 13.596-5.639z" fill="#6fbf5c"/><path d="m217.007 299.291c-.235-.57-.235-1.21 0-1.78.236-.57.688-1.023 1.257-1.26.57-.235 1.209-.235 1.778.002.57.236 1.022.689 1.257 1.258.235.57.235 1.21 0 1.78-.236.57-.688 1.023-1.257 1.26-.282.117-.584.177-.889.176-.306 0-.608-.06-.89-.177-.281-.117-.537-.289-.753-.505s-.387-.472-.503-.754z" fill="#fff"/><path d="m222.896 292.861 1.647-.683.696 1.685c-.97.403-1.942-.03-2.343-1.002zm-11.28 6.672.028-.031-.697-1.685 1.649-.684c.402.973-.03 2.008-.98 2.4zm15.046-2.232.696 1.685-1.649.684c-.401-.973-.019-1.966.953-2.369zm-13.596 5.641-.04-.004c.947-.393 1.982.031 2.384 1.003l-1.648.684z" fill="#5a9c4b"/><path d="m171.328 242.612h7.357v-12.632h-7.357z" fill="#230545"/><path d="m147.302 187.493c-.012.001-.023.001-.035.002h.024zm-7.132 6.43c.02-.012.038-.026.057-.038 1.744-1.123 3.614-2.036 5.572-2.721l-1.058-3.168c-2.798.73-5.667 2.03-7.883 3.636l2.169 3.092c.22-.171.45-.335.685-.497.149-.102.304-.203.458-.304z" fill="#9a5cb4"/><path d="m148.222 187.395-.02.001-.049.006.084-.008h-.015" fill="#230545"/><path d="m149.255 187.348c-.051 0-.105.007-.157.008v-.002c-.28.004-.568.018-.861.04l-.084.008c-.279.023-.562.052-.85.09l-.012.002-.025.001c-.821.109-1.669.278-2.524.5l1.056 3.169c-1.957.685-3.827 1.598-5.57 2.721l-.058.038c-.156.1-.308.202-.458.304-.235.164-.464.328-.685.497l7.925 11.798c2.13-1.89 5.88-3.384 8.61-3.384z" fill="#230545"/><path d="m176.583 277.875c0 .58.471 1.052 1.051 1.052h4.73c.279 0 .547-.111.744-.308.198-.198.309-.465.309-.744 0-.28-.111-.547-.309-.745-.197-.197-.465-.308-.744-.308h-4.73c-.58 0-1.05.472-1.05 1.053zm-6.306 0c0 .58.47 1.052 1.05 1.052h.526c.279 0 .547-.111.744-.308.198-.198.309-.465.309-.744 0-.28-.111-.547-.309-.745-.197-.197-.465-.308-.744-.308h-.525c-.58 0-1.051.472-1.051 1.053z" fill="#fff"/><path d="m113.406 265.732 14.864 14.886 7.433-7.442-14.865-14.887z" fill="#6fbf5c"/><path d="m126.877 271.78c.616-.617.963-1.454.963-2.326 0-.873-.347-1.71-.963-2.327-.305-.305-.667-.548-1.066-.713-.398-.165-.825-.251-1.257-.251-.431 0-.859.086-1.257.251-.399.165-.761.408-1.066.713-.616.617-.962 1.454-.962 2.326s.346 1.709.962 2.326c.305.305.667.548 1.066.713.398.165.826.251 1.257.251.432 0 .859-.086 1.257-.251.399-.165.761-.408 1.066-.713" fill="#fff"/><path d="m122.696 260.15-1.858-1.86-1.858 1.86c.244.244.533.438.852.57.319.133.661.201 1.006.201s.687-.068 1.006-.201c.319-.132.608-.326.852-.57zm11.149 14.886 1.858-1.86-1.858-1.862c-.493.494-.77 1.163-.77 1.861s.277 1.367.77 1.861zm-18.581-11.165-1.858 1.86 1.858 1.861c.492-.494.769-1.163.769-1.86s-.277-1.366-.769-1.86zm14.864 14.887c-.244-.244-.533-.438-.852-.57-.319-.133-.661-.201-1.006-.201s-.687.068-1.006.201c-.319.132-.608.326-.852.57l1.858 1.86z" fill="#5a9c4b"/><path d="m122.375 309.454h-14.638v-8.421h-8.9349v-4.21c-1.867 3.174-4.594 5.884-7.66 7.894h3.982v8.947h8.4079v4.807c7.023-1.113 13.57-4.246 18.843-9.017z" fill="#c296e6"/><path d="m83.0359 327.875h3.68v-12.632h-3.68z" fill="#9a5cb4"/><path d="m78.3069 325.243h8.408v-6.316h-8.408z" fill="#230545"/><path d="m78.3069 325.243h2.627v-6.316h-2.627zm105.3041-8.099 1.577-1.579-1.577 1.58z" fill="#744a87"/><path d="m183.869 307.954-1.577 1.58-5.934 5.943c1.429 1.587 2.69 3.316 3.764 5.162l3.49-3.495 1.576-1.579c-.156-2.578-.599-5.13-1.32-7.61" fill="#230545"/><path d="m167.09 333.138c-1.846-4.97-6.56-8.421-12.087-8.421h-20.418c-5.527 0-10.24 3.451-12.087 8.42h44.592z" fill="#e5e5e5"/><path d="m114.569 298.927c0 1.163.941 2.106 2.102 2.106s2.102-.943 2.102-2.106c0-.558-.221-1.093-.615-1.488-.394-.394-.929-.616-1.487-.617-1.16 0-2.102.943-2.102 2.105zm-3.679-3.684c0 .279.111.547.308.744.198.198.465.309.744.309.28 0 .547-.111.745-.309.197-.197.308-.465.308-.744s-.111-.547-.308-.744c-.198-.198-.465-.308-.745-.308-.279 0-.546.11-.744.308-.197.197-.308.465-.308.744z" fill="#c296e6"/><path d="m161.365 175.726-9.998 10.028c-1.763 1.767-.79 4.79 1.67 5.195l2.22.366c4.316.711 7.954-3.444 6.502-7.578l-.031-.085 3.513-4.044c.396-.396.618-.934.618-1.494s-.222-1.097-.618-1.493l-.894-.895c-.196-.196-.428-.352-.684-.458s-.53-.161-.807-.161-.551.055-.807.161-.488.262-.684.458z" fill="#9a5cb4"/><path d="m172.029 200.353 20.617-4.108-2.05-10.324-20.62 4.107z" fill="#6fbf5c"/><path d="m183.89 192.626c-.067-.339-.2-.661-.391-.949-.191-.287-.438-.534-.724-.726-.287-.192-.609-.326-.948-.394s-.687-.068-1.026-.001c-.677.143-1.271.548-1.652 1.126-.381.577-.519 1.282-.385 1.961.135.679.532 1.278 1.105 1.666.573.389 1.275.536 1.956.41.684-.137 1.285-.539 1.672-1.119s.529-1.29.393-1.974z" fill="#fff"/><path d="m172.555 189.515-2.578.514.513 2.58c1.546-.307 2.371-1.545 2.065-3.094zm18.553-1.013-.513-2.58-2.578.512c.285 1.426 1.544 2.378 3.091 2.068zm-19.593 9.268.514 2.583 2.576-.513c-.308-1.55-1.543-2.377-3.09-2.07zm20.618-4.106s-2.372 1.547-2.065 3.095l2.578-.514z" fill="#5a9c4b"/><path d="m182.662 196.854-9.194-.01c-1.156 0-1.21-.904-1.38-1.756-.168-.852-.41-1.528.725-1.754l10.823-2.156c.546-.111 1.027-.433 1.336-.897.31-.464.423-1.031.316-1.578l-.41-2.065c-.11-.546-.432-1.027-.895-1.337s-1.03-.425-1.577-.318l-10.824 2.157c-1.134.226-1.17-.492-1.338-1.344-.17-.851-.465-1.706.603-2.15l8.49-3.534c.514-.216.922-.626 1.135-1.141.212-.515.212-1.094 0-1.609l-.509-.345c-.15-.103-.28-.23-.41-.358-.293-.289-.664-.486-1.068-.565-.404-.078-.822-.036-1.202.122l-12.909 5.363-10.309 2.053c-1.134.227-2.587 1.199-3.23 2.162l-1.56 2.34 2.914 14.675c3.028 2.047 6.747 2.95 10.614 2.179 2.348-.469 4.17-1.492 5.88-2.903h13.974c1.156.005 2.103-.809 2.104-1.966v-1.159c-.001-.557-.222-1.092-.616-1.487-.393-.394-.927-.617-1.484-.62" fill="#9a5cb4"/><path d="m154.578 185.16 10.309-2.053 15.343-6.33-.2-.484c-.106-.255-.261-.486-.457-.68-.195-.195-.427-.349-.682-.454s-.529-.159-.805-.158c-.275.001-.548.056-.803.162l-12.909 5.363-10.309 2.054c-1.134.226-2.587 1.198-3.23 2.161l-1.722 2.582.513 2.581 1.732-2.535c.642-.962 2.086-1.982 3.22-2.208" fill="#c296e6"/><path d="m186.114 187.465c-.17-.856-1-1.41-1.854-1.24l-2.062.41c-.406.087-.761.33-.989.676-.228.347-.31.769-.229 1.176s.318.766.662.999c.343.232.764.321 1.172.246l2.062-.411c.41-.082.771-.324 1.003-.672s.317-.774.235-1.184z" fill="#c0c0c0"/><path d="m181.131 176.128c-.079-.191-.195-.365-.341-.512-.147-.147-.32-.263-.512-.343-.191-.079-.396-.12-.603-.12-.208 0-.413.041-.604.12l-1.941.806c-.368.173-.655.48-.801.859-.147.379-.142.799.013 1.175.155.375.449.676.82.841.371.164.792.179 1.174.042l1.943-.805c.386-.161.693-.469.853-.855.159-.387.159-.821-.001-1.208z" fill="#fff"/><path d="m180.485 199.392c0-.872.706-1.517 1.577-1.517h2.102c.87 0 1.576.646 1.577 1.518 0 .872-.706 1.549-1.577 1.548l-2.103.016c-.206.001-.411-.038-.602-.116s-.365-.193-.511-.339c-.147-.145-.263-.318-.342-.509-.08-.19-.121-.395-.121-.601z" fill="#c0c0c0"/><path d="m168.557 202.085c-1.624 0-3.24.187-4.84.467-.898.156-1.813.21-2.947.21-4.683 0-7.31-.677-9.328-3.714l.82 4.128.146.488c3.029 2.048 7.508 2.075 9.986 1.58 2.627-.527 4.58-1.58 6.29-3.159z" fill="#744a87"/><path d="m154.51 194.19c.024.542.255 1.053.647 1.428s.913.584 1.455.584 1.063-.209 1.455-.584.623-.886.647-1.428c0-.558-.221-1.093-.615-1.487-.394-.395-.928-.617-1.486-.618-.558.001-1.093.223-1.488.618-.394.394-.615.93-.615 1.488zm4.205-5.263c0 .138.027.275.08.403.053.127.13.243.228.341.097.098.213.175.341.228s.264.08.403.08c.138.001.274-.027.402-.079.128-.053.244-.131.342-.228.097-.098.175-.214.228-.341.053-.128.08-.265.08-.403 0-.279-.111-.547-.308-.744s-.465-.308-.744-.308-.547.111-.744.308-.308.465-.308.744" fill="#c296e6"/><path d="m122.978 243.138c0 .279.111.547.308.744s.465.308.744.308.546-.111.744-.308c.197-.197.308-.465.308-.744s-.111-.547-.308-.744c-.198-.197-.465-.308-.744-.308s-.547.111-.744.308-.308.465-.308.744zm-1.577-3.158c0 .279.111.547.308.744.198.198.465.308.744.308.28 0 .547-.11.745-.308.197-.197.308-.465.308-.744s-.111-.547-.308-.744c-.198-.198-.465-.309-.745-.309-.279 0-.546.111-.744.309-.197.197-.308.465-.308.744z" fill="#9a5cb4"/><path d="m85.1389 312.085c-.0001.279.1106.547.3078.744s.4647.308.7437.308c.279.001.5467-.11.744-.307.1974-.198.3084-.465.3085-.744 0-.279-.1108-.547-.3081-.744s-.4649-.308-.7439-.308-.5466.111-.7439.308c-.1972.197-.3081.465-.3081.744" fill="#c296e6"/><path d="m141.372 202.085h3.153v-3.158h-3.153z" fill="#9a5cb4"/><path d="m142.423 206.296h4.204v-4.737h-4.204z" fill="#9a5cb4"/><path d="m144.788 226.559c.001-.725-.142-1.443-.419-2.114-.277-.67-.683-1.279-1.196-1.792-.512-.513-1.12-.92-1.79-1.198s-1.388-.422-2.113-.422-1.443.144-2.113.422c-.67.277-1.279.685-1.791 1.198-.513.513-.919 1.122-1.196 1.792s-.42 1.389-.419 2.114c-.001.725.142 1.443.419 2.114.277.67.683 1.279 1.196 1.792.512.513 1.121.92 1.791 1.198s1.388.422 2.113.422c.725-.001 1.443-.144 2.113-.422s1.278-.685 1.79-1.198c.513-.513.919-1.122 1.196-1.793.277-.67.42-1.388.419-2.113z" fill="#230545"/><path d="m133.489 238.664c0 .727-.588 1.316-1.314 1.316h-3.155c-.349-.001-.683-.139-.929-.386s-.384-.581-.384-.93c0-.727.588-1.316 1.313-1.316h3.154c.726 0 1.314.59 1.314 1.316zm23.124 0c0 .727-.589 1.316-1.314 1.316h-3.154c-.349-.001-.683-.139-.929-.386s-.384-.581-.384-.93c0-.727.588-1.316 1.313-1.316h3.155c.725 0 1.314.59 1.314 1.316" fill="#9a5cb4"/><path d="m171.853 234.19-1.576-1.578-1.577 1.578 1.577 1.578zm-1.576 1.58-1.577 1.577h3.153zm1.576-8.948h-3.153l1.577 1.58z" fill="#744a87"/><path d="m175.287 296.467-.016-.019c-.344-.408-.698-.808-1.06-1.2-.006-.007-.011-.014-.018-.02-.733-.796-1.503-1.559-2.306-2.284l-.007-.007c-.977-.879-2.001-1.704-3.068-2.47l-.612-3.053 1.28 6.377-7.728 1.54 1.537 7.738-7.442 1.706.008.002c.556.075 1.107.164 1.654.265l.05.01c.552.102 1.1.218 1.642.346l.028.006c1.088.258 2.162.569 3.22.932l.017.006c2.098.719 4.12 1.643 6.037 2.757l-.582-2.93 7.727-1.54-1.537-7.738 1.308-.26c-.045-.053-.087-.11-.132-.164z" fill="#9a5cb4"/><path d="m171.88 292.937.007.007c.4.362.793.733 1.176 1.112l.014.015c.381.377.753.763 1.116 1.156l.019.02c.367.399.725.806 1.075 1.22.045.054.087.11.133.165l2.456-.486c-.328-.427-.666-.846-1.013-1.258l-.016-.019c-.344-.408-.697-.808-1.059-1.2l-.018-.02c-.363-.394-.735-.78-1.116-1.157l-.014-.015c-.384-.38-.776-.75-1.177-1.112l-.006-.007c-1.628-1.472-3.388-2.792-5.257-3.944l.612 3.053c1.068.766 2.092 1.591 3.069 2.47" fill="#c296e6"/><path d="m79.3581 279.98h-6.308c-.2792 0-.5469-.111-.7443-.308-.1974-.198-.3082-.465-.3082-.745 0-.279.1108-.546.3082-.744.1974-.197.4651-.308.7443-.308h6.307c.2791 0 .5468.111.7442.308.1974.198.3083.465.3083.744 0 .28-.1109.547-.3083.745-.1974.197-.4651.308-.7442.308" fill="#e5e5e5"/><path d="m100.905 255.77h-6.3071c-.2793 0-.5471-.111-.7446-.308-.1974-.198-.3084-.466-.3084-.745s.111-.547.3084-.745c.1975-.197.4653-.308.7446-.308h6.3071c.279 0 .547.111.744.308.198.198.308.465.308.745 0 .279-.11.546-.308.744-.197.197-.465.308-.744.308" fill="#fff"/><path d="m93.0219 240.506h-6.307c-.2791 0-.5468-.111-.7442-.308-.1974-.198-.3083-.465-.3083-.745 0-.279.1109-.546.3083-.744.1974-.197.4651-.308.7442-.308h6.307c.2791 0 .5469.111.7442.308.1974.198.3083.465.3083.744 0 .28-.1109.547-.3083.745-.1973.197-.4651.308-.7442.308zm-11.562 0h-1.051c-.2791 0-.5468-.111-.7442-.308-.1974-.198-.3083-.465-.3083-.745 0-.279.1109-.546.3083-.744.1974-.197.4651-.308.7442-.308h1.05c.2791 0 .5469.111.7442.308.1974.198.3083.465.3083.744 0 .28-.1109.547-.3083.745-.1973.197-.4651.308-.7442.308zm28.3801-18.421h-11.5641c-.2791 0-.5468-.111-.7442-.308-.1974-.198-.3083-.465-.3083-.745 0-.279.1109-.546.3083-.744.1974-.197.4651-.308.7442-.308h11.5641c.279 0 .547.111.744.308.198.198.308.465.308.744 0 .28-.11.547-.308.745-.197.197-.465.308-.744.308zm100.904 112.632h-6.307c-.279 0-.547-.111-.744-.308-.198-.198-.309-.465-.309-.745 0-.279.111-.546.309-.744.197-.197.465-.308.744-.308h6.307c.279 0 .547.111.744.308.198.198.308.465.308.744 0 .28-.11.547-.308.745-.197.197-.465.308-.744.308zm-122.9781-54.737h-1.576c-.2791 0-.5468-.111-.7442-.308-.1974-.198-.3083-.465-.3083-.745 0-.279.1109-.546.3083-.744.1974-.197.4651-.308.7442-.308h1.576c.2791 0 .5469.111.7442.308.1974.198.3083.465.3083.744 0 .28-.1109.547-.3083.745-.1973.197-.4651.308-.7442.308zm108.2621 54.737h-120.8751c-.867 0-1.576-.71-1.576-1.58 0-.868.71-1.578 1.576-1.578h120.8751c.867 0 1.577.71 1.577 1.579 0 .868-.71 1.579-1.577 1.579z" fill="#e5e5e5"/></g></g></svg>