<svg xmlns="http://www.w3.org/2000/svg" xmlns:xlink="http://www.w3.org/1999/xlink" width="80" height="80"><defs><path id="a" d="M35.5 57.29a34.336 34.336 0 0 1-15.733 3.793A34.333 34.333 0 0 1 .218 55.007V.08h35.283v57.21z"/><path id="c" d="M10.7 13.64s-1.916-.805-3.75.322c-1.833 1.126-1.75 2.253-1.75 2.253s-1-2.093 1.584-3.139c1.722-.697 3.028-.51 3.917.564z"/><path id="d" d="M27.807 13.881s-1.386-.724-2.511-.724c-2.251 0-2.857.965-2.857.965s1.087-2.068 3.203-1.77c2.116.298 2.165 1.53 2.165 1.53z"/></defs><g fill="none" fill-rule="evenodd"><path fill="#DE5833" d="M39.874 79.665C17.887 79.665 0 61.853 0 39.958 0 18.065 17.887.252 39.874.252c21.986 0 39.873 17.813 39.873 39.706 0 21.895-17.887 39.707-39.873 39.707z"/><path fill="#FFF" d="M39.874 3.187c-20.362 0-36.927 16.495-36.927 36.771 0 20.277 16.565 36.772 36.927 36.772 20.36 0 36.926-16.495 36.926-36.772 0-20.276-16.565-36.771-36.926-36.771z"/><path fill="#DE5833" d="M39.874 5.996c18.836 0 34.105 15.206 34.105 33.962 0 18.758-15.27 33.963-34.105 33.963-18.836 0-34.106-15.205-34.106-33.963 0-18.756 15.27-33.962 34.106-33.962"/><g transform="translate(20.606 13.278)"><mask id="b" fill="#fff"><use xlink:href="#a"/></mask><path fill="#D5D7D8" d="M33.82 77.64c-1.185-5.56-8.212-18.032-10.836-23.256-2.624-5.31-5.333-12.724-4.148-17.528.254-.842-2.286-7.5-1.608-8.005 5.671-3.623 7.11.422 9.396-1.264 1.186-.842 2.71.674 3.133-.674 1.439-5.056-2.032-13.82-5.842-17.696-1.27-1.264-3.217-2.022-5.418-2.443-.846-1.18-2.2-2.276-4.148-3.287C12.233 2.392 7.577.875 5.122.454 3.429.2 3.09.622 2.328.79c.677.084 3.81 1.6 4.402 1.685-.592.421-2.455 0-3.555.506-.593.252-1.016 1.264-1.016 1.685 3.301-.337 8.465 0 11.428 1.348-2.455.253-6.095.59-7.619 1.433C1.397 9.89-.635 15.453.55 22.194c1.185 6.741 6.52 31.178 8.212 39.436 1.693 8.174-3.64 13.483-7.027 14.915l3.64.253L4.19 79.41c4.318.506 9.143-.927 9.143-.927-.93 2.613-7.45 3.624-7.45 3.624s3.133.927 8.212-.927c5.08-1.938 8.212-3.118 8.212-3.118l2.455 6.236 4.571-4.55 1.947 4.803c.085-.169 3.725-1.349 2.54-6.91" mask="url(#b)"/><path fill="#FFFFFE" d="M35.26 76.545c-1.186-5.561-8.212-18.032-10.837-23.341-2.624-5.309-5.333-12.724-4.148-17.527.254-.843.254-4.466.931-4.888 5.672-3.623 5.249-.084 7.535-1.77 1.185-.842 2.116-1.853 2.54-3.286 1.439-5.056-2.032-13.82-5.842-17.695-1.27-1.264-3.217-2.023-5.418-2.444-.846-1.18-2.2-2.275-4.148-3.286C12.233.369 7.746-.39 3.598.369c.677.085 2.2 1.433 2.794 1.517-.932.59-3.387.506-3.387 1.938 3.302-.337 6.942.169 9.905 1.517-2.455.253-4.656.843-6.264 1.685C2.074 9.386.889 14.19 2.074 20.93c1.185 6.741 6.519 31.263 8.212 39.352 1.693 8.174-3.64 13.483-7.027 14.915l3.64.253-1.185 2.612c4.318.506 9.143-.927 9.143-.927-.931 2.612-7.45 3.624-7.45 3.624s3.133.927 8.212-.927c5.08-1.938 8.212-3.118 8.212-3.118l2.37 6.236 4.571-4.55 1.948 4.802c.169.085 3.724-1.095 2.54-6.657" mask="url(#b)"/><path fill="#2E477A" d="M7.492 21.436c0-1.433 1.1-2.528 2.54-2.528 1.439 0 2.54 1.095 2.54 2.528 0 1.432-1.101 2.528-2.54 2.528-1.355 0-2.54-1.18-2.54-2.528" mask="url(#b)"/><path fill="#FFFFFE" d="M10.54 20.593c0-.337.254-.674.677-.674.339 0 .677.253.677.674a.666.666 0 0 1-.677.674c-.423-.084-.677-.337-.677-.674" mask="url(#b)"/><path fill="#2E477A" d="M24.847 19.919c0-1.18 1.015-2.19 2.2-2.19 1.186 0 2.202 1.01 2.202 2.19s-1.016 2.19-2.201 2.19a2.18 2.18 0 0 1-2.201-2.19" mask="url(#b)"/><path fill="#FFFFFE" d="M27.386 19.16c0-.336.254-.59.593-.59.338 0 .592.254.592.59 0 .338-.254.59-.592.59a.577.577 0 0 1-.593-.59" mask="url(#b)"/><use fill="#2E477A" xlink:href="#c"/><use fill="#2E477A" xlink:href="#d"/></g><path fill="#F7CE26" d="M38.025 43.966c.25-1.488 4.169-4.298 6.92-4.464 2.752-.165 3.669-.165 5.92-.66 2.335-.58 8.254-1.985 9.922-2.811 1.668-.744 8.671.413 3.752 3.058-2.168 1.157-7.838 3.39-12.006 4.546-4.086 1.24-6.587-1.157-7.921.827-1.084 1.57-.25 3.802 4.669 4.216 6.587.578 13.007-2.976 13.674-1.075.667 1.901-5.67 4.216-9.589 4.298-3.918.083-11.756-2.562-12.923-3.389-1.167-.661-2.752-2.562-2.418-4.546"/><path fill="#62B446" d="M40.706 63.719s-9.454-4.875-9.539-2.892c-.168 1.983 0 10.162 1.098 10.74 1.097.579 8.947-3.965 8.947-3.965l-.506-3.883m4.001-.401s6.647-4.896 8.134-4.558c1.487.337 1.75 10.383.525 10.805-1.312.422-8.922-2.532-8.922-2.532l.263-3.715"/><path fill="#409945" d="M38.47 64.3c0 3.157-.502 4.533.92 4.776 1.421.323 4.014 0 5.018-.567.92-.567.167-4.695-.168-5.423-.334-.729-5.77-.162-5.77 1.214"/><path fill="#62B446" d="M39.279 63.093c0 3.157-.508 4.533.932 4.776 1.44.323 4.067 0 4.999-.567.932-.567.17-4.695-.17-5.423-.254-.729-5.761-.162-5.761 1.214"/></g></svg>