<svg fill="none" height="525" viewBox="0 0 399 525" width="399" xmlns="http://www.w3.org/2000/svg" xmlns:xlink="http://www.w3.org/1999/xlink"><filter id="a" color-interpolation-filters="sRGB" filterUnits="userSpaceOnUse" height="222.868" width="273.905" x="63.0769" y="301.62"><feFlood flood-opacity="0" result="BackgroundImageFix"/><feColorMatrix in="SourceAlpha" type="matrix" values="0 0 0 0 0 0 0 0 0 0 0 0 0 0 0 0 0 0 127 0"/><feOffset/><feGaussianBlur stdDeviation="1.4359"/><feColorMatrix type="matrix" values="0 0 0 0 0 0 0 0 0 0 0 0 0 0 0 0 0 0 0.1 0"/><feBlend in2="BackgroundImageFix" mode="normal" result="effect1_dropShadow"/><feBlend in="SourceGraphic" in2="effect1_dropShadow" mode="normal" result="shape"/></filter><filter id="b" color-interpolation-filters="sRGB" filterUnits="userSpaceOnUse" height="20.7609" width="20.7609" x="299.508" y="405.702"><feFlood flood-opacity="0" result="BackgroundImageFix"/><feColorMatrix in="SourceAlpha" type="matrix" values="0 0 0 0 0 0 0 0 0 0 0 0 0 0 0 0 0 0 127 0"/><feOffset dy=".865036"/><feGaussianBlur stdDeviation=".865036"/><feColorMatrix type="matrix" values="0 0 0 0 0 0 0 0 0 0 0 0 0 0 0 0 0 0 0.236158 0"/><feBlend in2="BackgroundImageFix" mode="normal" result="effect1_dropShadow"/><feBlend in="SourceGraphic" in2="effect1_dropShadow" mode="normal" result="shape"/></filter><filter id="c" color-interpolation-filters="sRGB" filterUnits="userSpaceOnUse" height="93.8119" width="379.077" x="10.4275" y="222.085"><feFlood flood-opacity="0" result="BackgroundImageFix"/><feColorMatrix in="SourceAlpha" type="matrix" values="0 0 0 0 0 0 0 0 0 0 0 0 0 0 0 0 0 0 127 0"/><feOffset dy="5.74359"/><feGaussianBlur stdDeviation="11.0085"/><feColorMatrix type="matrix" values="0 0 0 0 0 0 0 0 0 0 0 0 0 0 0 0 0 0 0.16 0"/><feBlend in2="BackgroundImageFix" mode="normal" result="effect1_dropShadow"/><feBlend in="SourceGraphic" in2="effect1_dropShadow" mode="normal" result="shape"/></filter><filter id="d" color-interpolation-filters="sRGB" filterUnits="userSpaceOnUse" height="67.9562" width="367.128" x="16.1709" y="225.915"><feFlood flood-opacity="0" result="BackgroundImageFix"/><feColorMatrix in="SourceAlpha" type="matrix" values="0 0 0 0 0 0 0 0 0 0 0 0 0 0 0 0 0 0 127 0"/><feOffset/><feGaussianBlur stdDeviation="1.91453"/><feColorMatrix type="matrix" values="0 0 0 0 0 0 0 0 0 0 0 0 0 0 0 0 0 0 0.15 0"/><feBlend in2="BackgroundImageFix" mode="normal" result="effect1_dropShadow"/><feBlend in="SourceGraphic" in2="effect1_dropShadow" mode="normal" result="shape"/></filter><filter id="e" color-interpolation-filters="sRGB" filterUnits="userSpaceOnUse" height="163.97" width="273.778" x="63.0769" y="54.3535"><feFlood flood-opacity="0" result="BackgroundImageFix"/><feColorMatrix in="SourceAlpha" type="matrix" values="0 0 0 0 0 0 0 0 0 0 0 0 0 0 0 0 0 0 127 0"/><feOffset/><feGaussianBlur stdDeviation="1.4359"/><feColorMatrix type="matrix" values="0 0 0 0 0 0 0 0 0 0 0 0 0 0 0 0 0 0 0.1 0"/><feBlend in2="BackgroundImageFix" mode="normal" result="effect1_dropShadow"/><feBlend in="SourceGraphic" in2="effect1_dropShadow" mode="normal" result="shape"/></filter><filter id="f" color-interpolation-filters="sRGB" filterUnits="userSpaceOnUse" height="38.7167" width="255.645" x="72.6217" y="4.06998"><feFlood flood-opacity="0" result="BackgroundImageFix"/><feColorMatrix in="SourceAlpha" type="matrix" values="0 0 0 0 0 0 0 0 0 0 0 0 0 0 0 0 0 0 127 0"/><feOffset/><feGaussianBlur stdDeviation="1.4359"/><feColorMatrix type="matrix" values="0 0 0 0 0 0 0 0 0 0 0 0 0 0 0 0 0 0 0.1 0"/><feBlend in2="BackgroundImageFix" mode="normal" result="effect1_dropShadow"/><feBlend in="SourceGraphic" in2="effect1_dropShadow" mode="normal" result="shape"/></filter><radialGradient id="g" cx="0" cy="0" gradientTransform="matrix(0 -12.6347 12.6347 0 276.5 202.26)" gradientUnits="userSpaceOnUse" r="1"><stop offset="0" stop-color="#f6b151"/><stop offset="1" stop-color="#e09d40"/></radialGradient><linearGradient id="h"><stop offset=".01" stop-color="#6176b9"/><stop offset=".69" stop-color="#394a9f"/></linearGradient><linearGradient id="i" gradientUnits="userSpaceOnUse" x1="88.0245" x2="89.3836" xlink:href="#h" y1="21.092" y2="21.092"/><linearGradient id="j" gradientUnits="userSpaceOnUse" x1="92.2985" x2="93.537" xlink:href="#h" y1="20.4735" y2="20.4735"/><clipPath id="k"><path d="m65.9487 437.708h268.161v38.0616h-268.161z"/></clipPath><clipPath id="l"><path d="m79.7894 404.838h240.48v20.7609h-240.48z"/></clipPath><mask id="m" height="17" maskUnits="userSpaceOnUse" width="9" x="87" y="16"><path clip-rule="evenodd" d="m95.5038 31.3231c-1.0871.5044-2.2962.7858-3.5704.7858-1.7831 0-3.4403-.5526-4.813-1.4985v-13.8848h8.3834z" fill="#fff" fill-rule="evenodd"/></mask><mask id="n" height="17" maskUnits="userSpaceOnUse" width="9" x="87" y="16"><path clip-rule="evenodd" d="m95.872 31.1419c-1.1794.6179-2.5183.9673-3.938.9673-1.6443 0-3.1814-.4699-4.4872-1.2848v-14.1489h8.4252z" fill="#fff" fill-rule="evenodd"/></mask><mask id="o" height="17" maskUnits="userSpaceOnUse" width="17" x="83" y="15"><path clip-rule="evenodd" d="m91.515 31.7613c4.5543 0 8.2463-3.692 8.2463-8.2463s-3.692-8.2464-8.2463-8.2464-8.2463 3.6921-8.2463 8.2464 3.692 8.2463 8.2463 8.2463z" fill="#fff" fill-rule="evenodd"/></mask><g filter="url(#a)"><rect fill="#fff" height="217.124" rx="4.78632" width="268.161" x="65.9487" y="304.492"/><path d="m86.5868 502.205v-6.83h2.4463v-1.247h-6.3096v1.247h2.4463v6.83z" fill="#333"/><path d="m91.5724 502.351c1.865 0 3.0034-1.405 3.0034-3.076 0-1.684-1.1384-3.064-3.0034-3.064s-3.0034 1.38-3.0034 3.064c0 1.671 1.1384 3.076 3.0034 3.076zm0-1.126c-1.0778 0-1.6833-.909-1.6833-1.95 0-1.03.6055-1.938 1.6833-1.938 1.09 0 1.6834.908 1.6834 1.938 0 1.041-.5934 1.95-1.6834 1.95z" fill="#333"/><path d="m99.023 502.351c1.514 0 2.592-1.151 2.592-3.076 0-1.926-1.078-3.064-2.592-3.064-.7629 0-1.4411.363-1.8771.944v-.799h-1.2716v8.078h1.2716v-3.04c.4844.618 1.1384.957 1.8771.957zm-.3754-1.126c-.5934 0-1.2232-.364-1.5017-.8v-2.313c.2907-.436.9083-.775 1.5017-.775 1.0052 0 1.6594.799 1.6594 1.938 0 1.138-.6542 1.95-1.6594 1.95z" fill="#333"/><path d="m109.389 502.205v-6.83h2.446v-1.247h-6.31v1.247h2.447v6.83z" fill="#333"/><path d="m113.36 502.205v-3.984c.255-.424.969-.787 1.514-.787.158 0 .279.012.388.036v-1.259c-.751 0-1.454.436-1.902.993v-.848h-1.271v5.849z" fill="#333"/><path d="m121.143 502.205v-3.887c0-1.562-1.138-2.107-2.446-2.107-.932 0-1.78.29-2.458.944l.533.884c.496-.508 1.077-.75 1.731-.75.8 0 1.369.411 1.369 1.09v.872c-.436-.497-1.102-.751-1.902-.751-.956 0-2.022.557-2.022 1.913 0 1.284 1.078 1.938 2.022 1.938.776 0 1.466-.279 1.902-.787v.641zm-2.664-.726c-.714 0-1.259-.412-1.259-1.054 0-.629.545-1.053 1.259-1.053.545 0 1.09.206 1.393.605v.896c-.303.4-.848.606-1.393.606z" fill="#333"/><path d="m125.456 502.351c1.151 0 1.829-.497 2.241-1.042l-.836-.787c-.327.46-.775.703-1.344.703-1.054 0-1.768-.812-1.768-1.95 0-1.139.714-1.938 1.768-1.938.569 0 1.017.218 1.344.678l.836-.763c-.412-.557-1.09-1.041-2.241-1.041-1.768 0-3.015 1.296-3.015 3.064s1.247 3.076 3.015 3.076z" fill="#333"/><path d="m134.297 502.205-2.47-3.197 2.422-2.652h-1.574l-2.58 2.822v-5.05h-1.272v8.077h1.272v-1.574l.824-.848 1.78 2.422z" fill="#333"/><path d="m135.852 495.642c.436 0 .787-.352.787-.788s-.351-.787-.787-.787-.788.351-.788.787.352.788.788.788zm.629 6.563v-5.849h-1.271v5.849z" fill="#333"/><path d="m143.363 502.205v-4.117c0-1.199-.63-1.877-1.89-1.877-.92 0-1.683.472-2.07.932v-.787h-1.272v5.849h1.272v-4.093c.302-.387.859-.775 1.501-.775.715 0 1.187.291 1.187 1.211v3.657z" fill="#333"/><path d="m147.4 504.579c1.429 0 3.003-.569 3.003-2.676v-5.547h-1.271v.812c-.473-.63-1.139-.957-1.877-.957-1.514 0-2.592 1.102-2.592 3.003 0 1.926 1.102 3.004 2.592 3.004.763 0 1.429-.388 1.877-.981v.666c0 1.247-.897 1.635-1.732 1.635-.775 0-1.381-.206-1.865-.751l-.594.92c.727.654 1.466.872 2.459.872zm.23-3.5c-1.017 0-1.659-.739-1.659-1.865s.642-1.877 1.659-1.877c.593 0 1.211.351 1.502.775v2.192c-.291.424-.909.775-1.502.775z" fill="#333"/><path d="m158.988 502.351c2.41 0 4.13-1.768 4.13-4.178s-1.72-4.178-4.13-4.178c-2.422 0-4.13 1.768-4.13 4.178s1.708 4.178 4.13 4.178zm0-1.26c-1.635 0-2.676-1.259-2.676-2.918 0-1.672 1.041-2.919 2.676-2.919 1.623 0 2.676 1.247 2.676 2.919 0 1.659-1.053 2.918-2.676 2.918z" fill="#333"/><path d="m166.02 502.205v-4.747h1.187v-1.102h-1.187v-.327c0-.654.303-.981.811-.981.279 0 .497.097.666.255l.497-.788c-.351-.375-.872-.508-1.405-.508-1.102 0-1.841.751-1.841 2.022v.327h-.968v1.102h.968v4.747zm3.742 0v-4.747h1.187v-1.102h-1.187v-.327c0-.654.303-.981.812-.981.278 0 .496.097.666.255l.496-.788c-.351-.375-.872-.508-1.405-.508-1.102 0-1.84.751-1.84 2.022v.327h-.969v1.102h.969v4.747z" fill="#333"/><path d="m174.621 502.351c.92 0 1.78-.303 2.373-.86l-.581-.836c-.424.424-1.09.654-1.671.654-1.102 0-1.756-.738-1.853-1.61h4.505v-.315c0-1.841-1.114-3.173-2.87-3.173-1.732 0-2.967 1.368-2.967 3.064 0 1.853 1.296 3.076 3.064 3.076zm1.55-3.561h-3.294c.048-.702.557-1.538 1.635-1.538 1.15 0 1.623.848 1.659 1.538z" fill="#333"/><path d="m183.881 502.205v-4.117c0-1.199-.63-1.877-1.889-1.877-.921 0-1.684.472-2.071.932v-.787h-1.272v5.849h1.272v-4.093c.303-.387.86-.775 1.501-.775.715 0 1.187.291 1.187 1.211v3.657z" fill="#333"/><path d="m190.921 502.205v-8.077h-1.271v3.04c-.46-.63-1.139-.957-1.877-.957-1.502 0-2.592 1.175-2.592 3.064 0 1.937 1.102 3.076 2.592 3.076.763 0 1.429-.363 1.877-.945v.799zm-2.773-.98c-1.017 0-1.659-.812-1.659-1.95 0-1.127.642-1.938 1.659-1.938.594 0 1.223.351 1.502.787v2.313c-.279.436-.908.788-1.502.788z" fill="#333"/><path d="m195.282 502.351c.92 0 1.78-.303 2.374-.86l-.582-.836c-.424.424-1.09.654-1.671.654-1.102 0-1.756-.738-1.853-1.61h4.505v-.315c0-1.841-1.114-3.173-2.87-3.173-1.732 0-2.967 1.368-2.967 3.064 0 1.853 1.296 3.076 3.064 3.076zm1.55-3.561h-3.294c.048-.702.557-1.538 1.635-1.538 1.15 0 1.623.848 1.659 1.538z" fill="#333"/><path d="m200.582 502.205v-3.984c.254-.424.969-.787 1.514-.787.157 0 .278.012.387.036v-1.259c-.751 0-1.453.436-1.901.993v-.848h-1.272v5.849z" fill="#333"/><path d="m205.519 502.351c1.575 0 2.434-.787 2.434-1.829 0-2.325-3.536-1.55-3.536-2.579 0-.412.412-.727 1.078-.727.739 0 1.381.315 1.732.702l.533-.896c-.521-.46-1.272-.811-2.265-.811-1.478 0-2.301.811-2.301 1.768 0 2.252 3.536 1.429 3.536 2.579 0 .461-.399.776-1.162.776-.751 0-1.563-.388-1.974-.812l-.582.908c.606.594 1.502.921 2.507.921z" fill="#333"/><path clip-rule="evenodd" d="m313.593 493.313c-.325.323-.325.851 0 1.174l3.797 3.774-3.797 3.775c-.325.323-.325.851 0 1.174.324.322.855.322 1.18 0l4.388-4.362c.324-.323.324-.851 0-1.173l-4.388-4.362c-.325-.323-.856-.323-1.18 0z" fill="#aaa" fill-rule="evenodd"/><g clip-path="url(#k)"><g fill="#333"><path d="m223.959 460.548-1.845-2.946c.911-.146 1.788-.877 1.788-2.204 0-1.394-.978-2.35-2.462-2.35h-3.295v7.5h1.315v-2.8h1.316l1.653 2.8zm-2.688-3.958h-1.811v-2.384h1.811c.742 0 1.282.461 1.282 1.181 0 .731-.54 1.203-1.282 1.203z"/><path d="m227.535 460.683c.855 0 1.653-.281 2.204-.798l-.54-.776c-.393.394-1.012.607-1.552.607-1.023 0-1.63-.686-1.72-1.495h4.183v-.293c0-1.709-1.034-2.946-2.665-2.946-1.608 0-2.755 1.271-2.755 2.845 0 1.721 1.203 2.856 2.845 2.856zm1.439-3.306h-3.058c.045-.652.517-1.428 1.518-1.428 1.068 0 1.507.787 1.54 1.428z"/><path d="m234.372 460.683c1.406 0 2.407-1.068 2.407-2.856s-1.001-2.845-2.407-2.845c-.708 0-1.338.337-1.743.877v-.742h-1.18v7.501h1.18v-2.823c.45.574 1.057.888 1.743.888zm-.348-1.045c-.551 0-1.136-.338-1.395-.743v-2.148c.27-.404.844-.719 1.395-.719.933 0 1.54.742 1.54 1.799s-.607 1.811-1.54 1.811z"/><path d="m240.597 460.683c1.731 0 2.789-1.304 2.789-2.856 0-1.563-1.058-2.845-2.789-2.845-1.732 0-2.789 1.282-2.789 2.845 0 1.552 1.057 2.856 2.789 2.856zm0-1.045c-1.001 0-1.563-.844-1.563-1.811 0-.956.562-1.799 1.563-1.799 1.012 0 1.563.843 1.563 1.799 0 .967-.551 1.811-1.563 1.811z"/><path d="m245.945 460.548v-3.699c.236-.394.9-.731 1.406-.731.146 0 .258.011.36.033v-1.169c-.698 0-1.35.405-1.766.922v-.787h-1.181v5.431z"/><path d="m250.478 460.683c.54 0 .888-.157 1.102-.348l-.281-.9c-.09.101-.293.203-.518.203-.337 0-.517-.282-.517-.653v-2.845h1.102v-1.023h-1.102v-1.485h-1.181v1.485h-.899v1.023h.899v3.138c0 .911.473 1.405 1.395 1.405z"/><path d="m259.496 460.548c1.417 0 2.181-.865 2.181-2.035 0-.911-.641-1.709-1.45-1.833.697-.146 1.304-.787 1.304-1.721 0-1.057-.753-1.911-2.137-1.911h-3.688v7.5zm-.36-4.408h-2.114v-1.934h2.114c.663 0 1.046.416 1.046.967 0 .574-.383.967-1.046.967zm.056 3.25h-2.17v-2.091h2.17c.742 0 1.136.483 1.136 1.045 0 .653-.427 1.046-1.136 1.046z"/><path d="m264.329 460.548v-3.699c.236-.394.9-.731 1.406-.731.146 0 .258.011.359.033v-1.169c-.697 0-1.349.405-1.765.922v-.787h-1.181v5.431z"/><path d="m269.683 460.683c1.731 0 2.788-1.304 2.788-2.856 0-1.563-1.057-2.845-2.788-2.845-1.732 0-2.789 1.282-2.789 2.845 0 1.552 1.057 2.856 2.789 2.856zm0-1.045c-1.001 0-1.564-.844-1.564-1.811 0-.956.563-1.799 1.564-1.799 1.012 0 1.563.843 1.563 1.799 0 .967-.551 1.811-1.563 1.811z"/><path d="m278.933 460.548-2.294-2.968 2.249-2.463h-1.462l-2.395 2.62v-4.689h-1.181v7.5h1.181v-1.461l.765-.788 1.653 2.249z"/><path d="m282.417 460.683c.855 0 1.654-.281 2.205-.798l-.54-.776c-.394.394-1.012.607-1.552.607-1.023 0-1.631-.686-1.721-1.495h4.184v-.293c0-1.709-1.035-2.946-2.666-2.946-1.608 0-2.755 1.271-2.755 2.845 0 1.721 1.204 2.856 2.845 2.856zm1.44-3.306h-3.059c.045-.652.517-1.428 1.518-1.428 1.069 0 1.507.787 1.541 1.428z"/><path d="m291.189 460.548v-3.823c0-1.113-.585-1.743-1.754-1.743-.855 0-1.563.439-1.923.866v-.731h-1.181v5.431h1.181v-3.801c.281-.359.798-.719 1.394-.719.664 0 1.102.27 1.102 1.124v3.396z"/><path d="m298.577 460.683c2.013 0 2.901-1.079 2.901-2.327 0-2.789-4.363-1.923-4.363-3.329 0-.551.495-.933 1.259-.933.788 0 1.586.269 2.182.865l.742-.978c-.686-.675-1.642-1.057-2.8-1.057-1.653 0-2.733.956-2.733 2.204 0 2.755 4.364 1.777 4.364 3.351 0 .506-.416 1.035-1.496 1.035-1.046 0-1.867-.495-2.373-1.046l-.742 1.023c.675.698 1.676 1.192 3.059 1.192z"/><path d="m303.414 454.453c.405 0 .731-.326.731-.731 0-.404-.326-.731-.731-.731s-.731.327-.731.731c0 .405.326.731.731.731zm.585 6.095v-5.431h-1.181v5.431z"/><path d="m307.345 460.683c.54 0 .889-.157 1.102-.348l-.281-.9c-.09.101-.292.203-.517.203-.337 0-.517-.282-.517-.653v-2.845h1.102v-1.023h-1.102v-1.485h-1.181v1.485h-.9v1.023h.9v3.138c0 .911.472 1.405 1.394 1.405z"/><path d="m311.986 460.683c.855 0 1.654-.281 2.205-.798l-.54-.776c-.394.394-1.012.607-1.552.607-1.023 0-1.631-.686-1.721-1.495h4.184v-.293c0-1.709-1.035-2.946-2.665-2.946-1.609 0-2.756 1.271-2.756 2.845 0 1.721 1.204 2.856 2.845 2.856zm1.44-3.306h-3.059c.045-.652.517-1.428 1.518-1.428 1.069 0 1.507.787 1.541 1.428z"/></g><path d="m198.299 437.708h.865v38.062h-.865z" fill="#000" fill-opacity=".05"/><path d="m88.4511 460.683c2.1816 0 3.25-1.248 3.25-3.103v-4.532h-1.3383v4.498c0 1.192-.6634 1.968-1.9117 1.968-1.2482 0-1.9117-.776-1.9117-1.968v-4.498h-1.3382v4.532c0 1.855 1.0795 3.103 3.2499 3.103z" fill="#333"/><path d="m98.2922 460.548v-3.823c0-1.113-.5848-1.743-1.7543-1.743-.8547 0-1.5632.439-1.923.866v-.731h-1.1808v5.431h1.1808v-3.801c.2811-.359.7984-.719 1.3944-.719.6635 0 1.1021.27 1.1021 1.124v3.396z" fill="#333"/><path d="m102.922 460.683c1.406 0 2.407-1.068 2.407-2.856s-1.001-2.845-2.407-2.845c-.708 0-1.338.337-1.743.877v-.742h-1.1804v7.501h1.1804v-2.823c.45.574 1.057.888 1.743.888zm-.348-1.045c-.551 0-1.136-.338-1.395-.743v-2.148c.27-.404.844-.719 1.395-.719.933 0 1.54.742 1.54 1.799s-.607 1.811-1.54 1.811z" fill="#333"/><path d="m107.865 460.548v-3.699c.236-.394.899-.731 1.405-.731.147 0 .259.011.36.033v-1.169c-.697 0-1.349.405-1.765.922v-.787h-1.181v5.431z" fill="#333"/><path d="m113.218 460.683c1.732 0 2.789-1.304 2.789-2.856 0-1.563-1.057-2.845-2.789-2.845s-2.789 1.282-2.789 2.845c0 1.552 1.057 2.856 2.789 2.856zm0-1.045c-1.001 0-1.563-.844-1.563-1.811 0-.956.562-1.799 1.563-1.799 1.012 0 1.563.843 1.563 1.799 0 .967-.551 1.811-1.563 1.811z" fill="#333"/><path d="m119.028 460.683c.539 0 .888-.157 1.102-.348l-.281-.9c-.09.101-.293.203-.518.203-.337 0-.517-.282-.517-.653v-2.845h1.102v-1.023h-1.102v-1.485h-1.181v1.485h-.899v1.023h.899v3.138c0 .911.473 1.405 1.395 1.405z" fill="#333"/><path d="m123.669 460.683c.855 0 1.653-.281 2.204-.798l-.54-.776c-.393.394-1.012.607-1.552.607-1.023 0-1.63-.686-1.72-1.495h4.183v-.293c0-1.709-1.034-2.946-2.665-2.946-1.608 0-2.755 1.271-2.755 2.845 0 1.721 1.203 2.856 2.845 2.856zm1.439-3.306h-3.058c.045-.652.517-1.428 1.518-1.428 1.068 0 1.507.787 1.54 1.428z" fill="#333"/><path d="m130.057 460.683c1.068 0 1.698-.461 2.08-.967l-.776-.731c-.304.428-.72.653-1.248.653-.979 0-1.642-.754-1.642-1.811s.663-1.799 1.642-1.799c.528 0 .944.202 1.248.63l.776-.709c-.382-.517-1.012-.967-2.08-.967-1.642 0-2.801 1.203-2.801 2.845s1.159 2.856 2.801 2.856z" fill="#333"/><path d="m134.998 460.683c.54 0 .889-.157 1.102-.348l-.281-.9c-.09.101-.292.203-.517.203-.338 0-.517-.282-.517-.653v-2.845h1.102v-1.023h-1.102v-1.485h-1.181v1.485h-.9v1.023h.9v3.138c0 .911.472 1.405 1.394 1.405z" fill="#333"/><path d="m139.639 460.683c.855 0 1.654-.281 2.205-.798l-.54-.776c-.394.394-1.012.607-1.552.607-1.023 0-1.631-.686-1.721-1.495h4.184v-.293c0-1.709-1.035-2.946-2.666-2.946-1.608 0-2.755 1.271-2.755 2.845 0 1.721 1.204 2.856 2.845 2.856zm1.44-3.306h-3.059c.045-.652.517-1.428 1.518-1.428 1.069 0 1.507.787 1.541 1.428z" fill="#333"/><path d="m148.557 460.548v-7.5h-1.18v2.822c-.428-.584-1.057-.888-1.743-.888-1.395 0-2.407 1.091-2.407 2.845 0 1.799 1.023 2.856 2.407 2.856.708 0 1.327-.337 1.743-.877v.742zm-2.575-.91c-.944 0-1.54-.754-1.54-1.811 0-1.046.596-1.799 1.54-1.799.551 0 1.136.326 1.395.731v2.148c-.259.404-.844.731-1.395.731z" fill="#333"/><path d="m155.942 460.683c2.013 0 2.901-1.079 2.901-2.327 0-2.789-4.363-1.923-4.363-3.329 0-.551.494-.933 1.259-.933.787 0 1.586.269 2.182.865l.742-.978c-.686-.675-1.642-1.057-2.8-1.057-1.653 0-2.733.956-2.733 2.204 0 2.755 4.363 1.777 4.363 3.351 0 .506-.416 1.035-1.495 1.035-1.046 0-1.867-.495-2.373-1.046l-.742 1.023c.675.698 1.675 1.192 3.059 1.192z" fill="#333"/><path d="m160.779 454.453c.404 0 .731-.326.731-.731 0-.404-.327-.731-.731-.731-.405 0-.731.327-.731.731 0 .405.326.731.731.731zm.584 6.095v-5.431h-1.18v5.431z" fill="#333"/><path d="m164.71 460.683c.54 0 .888-.157 1.102-.348l-.281-.9c-.09.101-.292.203-.517.203-.338 0-.518-.282-.518-.653v-2.845h1.102v-1.023h-1.102v-1.485h-1.18v1.485h-.9v1.023h.9v3.138c0 .911.472 1.405 1.394 1.405z" fill="#333"/><path d="m169.351 460.683c.855 0 1.653-.281 2.204-.798l-.539-.776c-.394.394-1.013.607-1.552.607-1.024 0-1.631-.686-1.721-1.495h4.183v-.293c0-1.709-1.034-2.946-2.665-2.946-1.608 0-2.755 1.271-2.755 2.845 0 1.721 1.203 2.856 2.845 2.856zm1.44-3.306h-3.059c.045-.652.517-1.428 1.518-1.428 1.068 0 1.507.787 1.541 1.428z" fill="#333"/><path d="m175.132 460.683c1.462 0 2.26-.731 2.26-1.698 0-2.159-3.284-1.439-3.284-2.395 0-.382.383-.675 1.001-.675.686 0 1.282.293 1.608.653l.495-.833c-.483-.427-1.181-.753-2.103-.753-1.372 0-2.136.753-2.136 1.642 0 2.091 3.283 1.327 3.283 2.395 0 .427-.371.72-1.079.72-.698 0-1.451-.36-1.833-.754l-.54.844c.562.551 1.394.854 2.328.854z" fill="#333"/></g><path d="m0 0h268.161v43.2518h-268.161z" fill="#eee" fill-opacity=".5" transform="translate(65.9487 393.592)"/><g clip-path="url(#l)"><g fill="#333"><path d="m86.0176 419.307c2.1678 0 3.1245-1.162 3.1245-2.506 0-3.004-4.6989-2.071-4.6989-3.585 0-.594.5329-1.005 1.3564-1.005.8477 0 1.7076.29 2.3494.932l.7993-1.053c-.7387-.727-1.7681-1.139-3.0155-1.139-1.7802 0-2.9429 1.03-2.9429 2.374 0 2.967 4.6989 1.913 4.6989 3.609 0 .545-.4481 1.114-1.6107 1.114-1.1263 0-2.0103-.533-2.5553-1.126l-.7993 1.102c.7266.751 1.8045 1.283 3.2941 1.283z"/><path d="m91.0404 412.598c.436 0 .7872-.351.7872-.787s-.3512-.787-.7872-.787-.7872.351-.7872.787.3512.787.7872.787zm.6297 6.564v-5.849h-1.2716v5.849z"/><path d="m95.0879 419.307c.5813 0 .9567-.169 1.1868-.375l-.3028-.969c-.0968.109-.3148.218-.557.218-.3634 0-.5571-.303-.5571-.702v-3.064h1.1868v-1.102h-1.1868v-1.599h-1.2716v1.599h-.9689v1.102h.9689v3.379c0 .981.5086 1.513 1.5017 1.513z"/><path d="m99.8998 419.307c.9202 0 1.7802-.302 2.3732-.859l-.581-.836c-.424.424-1.09.654-1.671.654-1.1021 0-1.7561-.739-1.853-1.611h4.505v-.315c0-1.84-1.114-3.173-2.8701-3.173-1.7318 0-2.9671 1.369-2.9671 3.064 0 1.853 1.2959 3.076 3.064 3.076zm1.5502-3.56h-3.2941c.0484-.702.5571-1.538 1.6349-1.538 1.1502 0 1.6232.848 1.6592 1.538z"/><path d="m108.504 419.162v-3.027h2.143c1.684 0 2.628-1.151 2.628-2.519 0-1.381-.932-2.532-2.628-2.532h-3.56v8.078zm1.95-4.275h-1.95v-2.555h1.95c.799 0 1.368.508 1.368 1.284 0 .763-.569 1.271-1.368 1.271z"/><path d="m115.702 419.162v-3.984c.254-.424.969-.787 1.514-.787.157 0 .278.012.387.036v-1.26c-.751 0-1.453.436-1.901.994v-.848h-1.272v5.849z"/><path d="m119.271 412.598c.436 0 .787-.351.787-.787s-.351-.787-.787-.787-.788.351-.788.787.352.787.788.787zm.629 6.564v-5.849h-1.271v5.849z"/><path d="m124.457 419.162 2.385-5.849h-1.356l-1.708 4.384-1.707-4.384h-1.369l2.386 5.849z"/><path d="m132.497 419.162v-3.887c0-1.563-1.138-2.108-2.446-2.108-.933 0-1.781.291-2.459.945l.533.884c.497-.508 1.078-.751 1.732-.751.799 0 1.368.412 1.368 1.09v.872c-.436-.496-1.102-.751-1.901-.751-.957 0-2.022.557-2.022 1.914 0 1.284 1.077 1.937 2.022 1.937.775 0 1.465-.278 1.901-.787v.642zm-2.664-.726c-.715 0-1.26-.412-1.26-1.054 0-.63.545-1.054 1.26-1.054.545 0 1.09.206 1.392.606v.896c-.302.4-.847.606-1.392.606z"/><path d="m136.81 419.307c1.15 0 1.828-.496 2.24-1.041l-.835-.787c-.327.46-.776.702-1.345.702-1.053 0-1.768-.811-1.768-1.95 0-1.138.715-1.937 1.768-1.937.569 0 1.018.218 1.345.678l.835-.763c-.412-.557-1.09-1.042-2.24-1.042-1.768 0-3.016 1.296-3.016 3.064 0 1.769 1.248 3.076 3.016 3.076z"/><path d="m139.935 421.451c.169.048.533.085.714.085.909-.012 1.599-.327 1.999-1.32l2.821-6.903h-1.356l-1.708 4.384-1.707-4.384h-1.369l2.41 5.922-.29.666c-.17.387-.436.509-.848.509-.145 0-.351-.037-.485-.097z"/><path d="m150.843 419.162v-3.027h2.144c1.683 0 2.628-1.151 2.628-2.519 0-1.381-.933-2.532-2.628-2.532h-3.561v8.078zm1.95-4.275h-1.95v-2.555h1.95c.799 0 1.369.508 1.369 1.284 0 .763-.57 1.271-1.369 1.271z"/><path d="m158.041 419.162v-3.984c.255-.424.969-.787 1.514-.787.158 0 .279.012.388.036v-1.26c-.751 0-1.453.436-1.902.994v-.848h-1.271v5.849z"/><path d="m163.62 419.307c1.865 0 3.004-1.404 3.004-3.076 0-1.683-1.139-3.064-3.004-3.064s-3.003 1.381-3.003 3.064c0 1.672 1.138 3.076 3.003 3.076zm0-1.126c-1.077 0-1.683-.908-1.683-1.95 0-1.029.606-1.937 1.683-1.937 1.09 0 1.684.908 1.684 1.937 0 1.042-.594 1.95-1.684 1.95z"/><path d="m169.69 419.307c.582 0 .957-.169 1.187-.375l-.302-.969c-.097.109-.315.218-.558.218-.363 0-.557-.303-.557-.702v-3.064h1.187v-1.102h-1.187v-1.599h-1.271v1.599h-.969v1.102h.969v3.379c0 .981.508 1.513 1.501 1.513z"/><path d="m174.502 419.307c.921 0 1.781-.302 2.374-.859l-.581-.836c-.424.424-1.09.654-1.671.654-1.103 0-1.756-.739-1.853-1.611h4.505v-.315c0-1.84-1.114-3.173-2.87-3.173-1.732 0-2.968 1.369-2.968 3.064 0 1.853 1.296 3.076 3.064 3.076zm1.551-3.56h-3.294c.048-.702.557-1.538 1.634-1.538 1.151 0 1.623.848 1.66 1.538z"/><path d="m181.195 419.307c1.151 0 1.829-.496 2.241-1.041l-.836-.787c-.327.46-.775.702-1.344.702-1.054 0-1.768-.811-1.768-1.95 0-1.138.714-1.937 1.768-1.937.569 0 1.017.218 1.344.678l.836-.763c-.412-.557-1.09-1.042-2.241-1.042-1.768 0-3.015 1.296-3.015 3.064 0 1.769 1.247 3.076 3.015 3.076z"/><path d="m186.331 419.307c.581 0 .956-.169 1.186-.375l-.302-.969c-.097.109-.315.218-.557.218-.364 0-.557-.303-.557-.702v-3.064h1.186v-1.102h-1.186v-1.599h-1.272v1.599h-.969v1.102h.969v3.379c0 .981.509 1.513 1.502 1.513z"/><path d="m189.072 412.598c.436 0 .787-.351.787-.787s-.351-.787-.787-.787-.788.351-.788.787.352.787.788.787zm.629 6.564v-5.849h-1.271v5.849z"/><path d="m194.003 419.307c1.865 0 3.004-1.404 3.004-3.076 0-1.683-1.139-3.064-3.004-3.064s-3.003 1.381-3.003 3.064c0 1.672 1.138 3.076 3.003 3.076zm0-1.126c-1.078 0-1.683-.908-1.683-1.95 0-1.029.605-1.937 1.683-1.937 1.09 0 1.684.908 1.684 1.937 0 1.042-.594 1.95-1.684 1.95z"/><path d="m203.537 419.162v-4.117c0-1.199-.63-1.878-1.889-1.878-.921 0-1.684.473-2.071.933v-.787h-1.272v5.849h1.272v-4.093c.302-.388.86-.775 1.501-.775.715 0 1.187.29 1.187 1.211v3.657z"/></g><path d="m283.938 415.218c0-5.733 4.647-10.381 10.38-10.381h15.571c5.733 0 10.38 4.648 10.38 10.381s-4.647 10.38-10.38 10.38h-15.571c-5.733 0-10.38-4.647-10.38-10.38z" fill="#50a951"/><g filter="url(#b)"><path clip-rule="evenodd" d="m309.889 423.868c4.777 0 8.65-3.873 8.65-8.651 0-4.777-3.873-8.65-8.65-8.65-4.778 0-8.65 3.873-8.65 8.65 0 4.778 3.872 8.651 8.65 8.651z" fill="#fff" fill-rule="evenodd"/></g></g><path d="m65.9487 436.843h268.1613v.865h-268.1613z" fill="#000" fill-opacity=".05"/><path d="m65.9487 392.727h268.1613v.865h-268.1613z" fill="#000" fill-opacity=".05"/><g fill="#333"><path d="m114.072 375v-3.027h2.144c1.683 0 2.628-1.151 2.628-2.519 0-1.381-.933-2.532-2.628-2.532h-3.561v8.078zm1.95-4.275h-1.95v-2.555h1.95c.799 0 1.368.508 1.368 1.284 0 .762-.569 1.271-1.368 1.271z"/><path d="m122.474 375.145c1.865 0 3.003-1.404 3.003-3.076 0-1.683-1.138-3.064-3.003-3.064s-3.004 1.381-3.004 3.064c0 1.672 1.139 3.076 3.004 3.076zm0-1.126c-1.078 0-1.684-.908-1.684-1.95 0-1.029.606-1.937 1.684-1.937 1.09 0 1.683.908 1.683 1.937 0 1.042-.593 1.95-1.683 1.95z"/><path d="m129.428 375.145c1.865 0 3.003-1.404 3.003-3.076 0-1.683-1.138-3.064-3.003-3.064s-3.004 1.381-3.004 3.064c0 1.672 1.139 3.076 3.004 3.076zm0-1.126c-1.078 0-1.684-.908-1.684-1.95 0-1.029.606-1.937 1.684-1.937 1.09 0 1.683.908 1.683 1.937 0 1.042-.593 1.95-1.683 1.95z"/><path d="m135.001 375v-3.984c.254-.424.969-.787 1.514-.787.157 0 .279.012.387.036v-1.26c-.75 0-1.453.436-1.901.993v-.847h-1.271v5.849z"/><path d="m142.504 375v-3.027h2.143c1.683 0 2.628-1.151 2.628-2.519 0-1.381-.932-2.532-2.628-2.532h-3.56v8.078zm1.949-4.275h-1.949v-2.555h1.949c.8 0 1.369.508 1.369 1.284 0 .762-.569 1.271-1.369 1.271z"/><path d="m149.702 375v-3.984c.254-.424.969-.787 1.514-.787.157 0 .278.012.387.036v-1.26c-.751 0-1.453.436-1.901.993v-.847h-1.272v5.849z"/><path d="m153.27 368.436c.436 0 .788-.351.788-.787s-.352-.787-.788-.787-.787.351-.787.787.351.787.787.787zm.63 6.564v-5.849h-1.271v5.849z"/><path d="m158.456 375 2.386-5.849h-1.356l-1.708 4.384-1.708-4.384h-1.368l2.386 5.849z"/><path d="m166.497 375v-3.887c0-1.563-1.139-2.108-2.447-2.108-.932 0-1.78.291-2.458.945l.533.884c.496-.509 1.078-.751 1.732-.751.799 0 1.368.412 1.368 1.09v.872c-.436-.496-1.102-.751-1.901-.751-.957 0-2.023.557-2.023 1.914 0 1.283 1.078 1.937 2.023 1.937.775 0 1.465-.278 1.901-.787v.642zm-2.665-.726c-.714 0-1.259-.412-1.259-1.054 0-.63.545-1.054 1.259-1.054.545 0 1.09.206 1.393.606v.896c-.303.4-.848.606-1.393.606z"/><path d="m170.809 375.145c1.151 0 1.829-.496 2.241-1.041l-.836-.787c-.327.46-.775.702-1.344.702-1.054 0-1.768-.811-1.768-1.95 0-1.138.714-1.937 1.768-1.937.569 0 1.017.218 1.344.678l.836-.763c-.412-.557-1.09-1.042-2.241-1.042-1.768 0-3.015 1.296-3.015 3.064 0 1.769 1.247 3.076 3.015 3.076z"/><path d="m173.935 377.289c.169.048.532.085.714.085.908-.012 1.599-.327 1.998-1.32l2.822-6.903h-1.356l-1.708 4.384-1.707-4.384h-1.369l2.41 5.922-.291.666c-.169.387-.436.509-.847.509-.146 0-.352-.037-.485-.097z"/><path d="m184.843 375v-3.027h2.144c1.683 0 2.628-1.151 2.628-2.519 0-1.381-.933-2.532-2.628-2.532h-3.561v8.078zm1.95-4.275h-1.95v-2.555h1.95c.799 0 1.368.508 1.368 1.284 0 .762-.569 1.271-1.368 1.271z"/><path d="m192.041 375v-3.984c.254-.424.969-.787 1.514-.787.157 0 .279.012.388.036v-1.26c-.751 0-1.454.436-1.902.993v-.847h-1.271v5.849z"/><path d="m199.824 375v-3.887c0-1.563-1.138-2.108-2.446-2.108-.932 0-1.78.291-2.458.945l.532.884c.497-.509 1.078-.751 1.732-.751.8 0 1.369.412 1.369 1.09v.872c-.436-.496-1.102-.751-1.902-.751-.956 0-2.022.557-2.022 1.914 0 1.283 1.078 1.937 2.022 1.937.775 0 1.466-.278 1.902-.787v.642zm-2.664-.726c-.714 0-1.259-.412-1.259-1.054 0-.63.545-1.054 1.259-1.054.545 0 1.09.206 1.393.606v.896c-.303.4-.848.606-1.393.606z"/><path d="m204.137 375.145c1.151 0 1.829-.496 2.24-1.041l-.835-.787c-.327.46-.775.702-1.344.702-1.054 0-1.769-.811-1.769-1.95 0-1.138.715-1.937 1.769-1.937.569 0 1.017.218 1.344.678l.835-.763c-.411-.557-1.089-1.042-2.24-1.042-1.768 0-3.016 1.296-3.016 3.064 0 1.769 1.248 3.076 3.016 3.076z"/><path d="m209.272 375.145c.582 0 .957-.169 1.187-.375l-.302-.969c-.097.109-.315.218-.558.218-.363 0-.557-.303-.557-.702v-3.064h1.187v-1.102h-1.187v-1.599h-1.271v1.599h-.969v1.102h.969v3.379c0 .981.508 1.513 1.501 1.513z"/><path d="m212.013 368.436c.436 0 .788-.351.788-.787s-.352-.787-.788-.787-.787.351-.787.787.351.787.787.787zm.63 6.564v-5.849h-1.271v5.849z"/><path d="m216.957 375.145c1.151 0 1.829-.496 2.241-1.041l-.836-.787c-.327.46-.775.702-1.344.702-1.054 0-1.768-.811-1.768-1.95 0-1.138.714-1.937 1.768-1.937.569 0 1.017.218 1.344.678l.836-.763c-.412-.557-1.09-1.042-2.241-1.042-1.768 0-3.015 1.296-3.015 3.064 0 1.769 1.247 3.076 3.015 3.076z"/><path d="m223.037 375.145c.921 0 1.78-.302 2.374-.859l-.581-.836c-.424.424-1.09.654-1.672.654-1.102 0-1.756-.739-1.853-1.611h4.505v-.315c0-1.84-1.114-3.173-2.87-3.173-1.732 0-2.967 1.369-2.967 3.064 0 1.853 1.296 3.076 3.064 3.076zm1.55-3.56h-3.294c.049-.702.557-1.538 1.635-1.538 1.151 0 1.623.848 1.659 1.538z"/><path d="m229.076 375.145c1.574 0 2.434-.787 2.434-1.828 0-2.325-3.536-1.55-3.536-2.58 0-.412.412-.726 1.078-.726.738 0 1.38.314 1.732.702l.532-.896c-.52-.46-1.271-.812-2.264-.812-1.478 0-2.301.812-2.301 1.769 0 2.252 3.536 1.429 3.536 2.579 0 .46-.4.775-1.163.775-.75 0-1.562-.387-1.974-.811l-.581.908c.606.593 1.502.92 2.507.92z"/></g><path d="m65.9487 348.609h268.1613v.866h-268.1613z" fill="#000" fill-opacity=".05"/><path clip-rule="evenodd" d="m313.593 366.152c-.325.323-.325.851 0 1.174l3.797 3.774-3.797 3.775c-.325.322-.325.851 0 1.173.324.323.855.323 1.18 0l4.388-4.361c.324-.323.324-.851 0-1.174l-4.388-4.361c-.325-.323-.856-.323-1.18 0z" fill="#aaa" fill-rule="evenodd"/><path d="m90.1695 377.57c3.8218 0 6.92-3.098 6.92-6.92s-3.0982-6.92-6.92-6.92-6.92 3.098-6.92 6.92 3.0982 6.92 6.92 6.92z" style="fill-rule:evenodd;clip-rule:evenodd;stroke:#de5833;stroke-width:1.74805;stroke-linecap:round;stroke-linejoin:round"/><path d="m92.5914 368.228-4.844 4.844" stroke="#de5833" stroke-linecap="round" stroke-width="1.74805"/><path d="m92.5914 373.072-4.844-4.844" stroke="#de5833" stroke-linecap="round" stroke-width="1.74805"/><path d="m118.25 331v-1.247h-3.572c2.155-1.635 3.524-2.967 3.524-4.469 0-1.611-1.356-2.483-2.919-2.483-1.138 0-2.276.424-2.991 1.296l.824.92c.52-.581 1.235-.956 2.179-.956.739 0 1.478.375 1.478 1.223 0 1.175-1.235 2.216-4.372 4.59v1.126z" fill="#333"/><path d="m126.322 331v-6.83h2.447v-1.248h-6.31v1.248h2.447v6.83z" fill="#333"/><path d="m130.294 331v-3.984c.254-.424.969-.788 1.514-.788.157 0 .279.013.388.037v-1.26c-.751 0-1.454.436-1.902.993v-.847h-1.271v5.849z" fill="#333"/><path d="m138.077 331v-3.888c0-1.562-1.138-2.107-2.446-2.107-.932 0-1.78.291-2.458.945l.532.884c.497-.509 1.078-.751 1.732-.751.8 0 1.369.412 1.369 1.09v.872c-.436-.497-1.102-.751-1.902-.751-.956 0-2.022.557-2.022 1.914 0 1.283 1.078 1.937 2.022 1.937.775 0 1.466-.278 1.902-.787v.642zm-2.664-.727c-.714 0-1.259-.411-1.259-1.053 0-.63.545-1.054 1.259-1.054.545 0 1.09.206 1.393.606v.896c-.303.399-.848.605-1.393.605z" fill="#333"/><path d="m142.39 331.145c1.151 0 1.829-.496 2.24-1.041l-.835-.787c-.327.46-.775.702-1.344.702-1.054 0-1.769-.811-1.769-1.95 0-1.138.715-1.937 1.769-1.937.569 0 1.017.218 1.344.678l.835-.763c-.411-.557-1.089-1.042-2.24-1.042-1.768 0-3.016 1.296-3.016 3.064s1.248 3.076 3.016 3.076z" fill="#333"/><path d="m151.231 331-2.47-3.197 2.422-2.652h-1.575l-2.579 2.821v-5.05h-1.272v8.078h1.272v-1.574l.823-.848 1.781 2.422z" fill="#333"/><path d="m154.797 331.145c.921 0 1.781-.302 2.374-.86l-.581-.835c-.424.424-1.09.654-1.672.654-1.102 0-1.756-.739-1.852-1.611h4.505v-.315c0-1.841-1.115-3.173-2.871-3.173-1.731 0-2.967 1.369-2.967 3.064 0 1.853 1.296 3.076 3.064 3.076zm1.55-3.56h-3.294c.049-.703.557-1.538 1.635-1.538 1.151 0 1.623.847 1.659 1.538z" fill="#333"/><path d="m160.097 331v-3.984c.255-.424.969-.788 1.514-.788.158 0 .279.013.388.037v-1.26c-.751 0-1.454.436-1.902.993v-.847h-1.271v5.849z" fill="#333"/><path d="m165.035 331.145c1.574 0 2.434-.787 2.434-1.828 0-2.326-3.536-1.551-3.536-2.58 0-.412.411-.727 1.077-.727.739 0 1.381.315 1.732.703l.533-.896c-.521-.461-1.272-.812-2.265-.812-1.477 0-2.301.812-2.301 1.768 0 2.253 3.537 1.429 3.537 2.58 0 .46-.4.775-1.163.775-.751 0-1.562-.388-1.974-.811l-.581.908c.605.593 1.501.92 2.507.92z" fill="#333"/><path d="m175.976 331c1.526 0 2.35-.933 2.35-2.192 0-.981-.691-1.841-1.562-1.974.75-.157 1.404-.848 1.404-1.853 0-1.138-.811-2.059-2.301-2.059h-3.972v8.078zm-.387-4.747h-2.277v-2.083h2.277c.714 0 1.126.448 1.126 1.041 0 .618-.412 1.042-1.126 1.042zm.06 3.5h-2.337v-2.253h2.337c.8 0 1.224.521 1.224 1.126 0 .703-.461 1.127-1.224 1.127z" fill="#333"/><path d="m180.995 331v-8.078h-1.272v8.078z" fill="#333"/><path d="m185.297 331.145c1.865 0 3.003-1.405 3.003-3.076 0-1.683-1.138-3.064-3.003-3.064s-3.004 1.381-3.004 3.064c0 1.671 1.139 3.076 3.004 3.076zm0-1.126c-1.078 0-1.683-.908-1.683-1.95 0-1.029.605-1.937 1.683-1.937 1.09 0 1.683.908 1.683 1.937 0 1.042-.593 1.95-1.683 1.95z" fill="#333"/><path d="m192.263 331.145c1.151 0 1.829-.496 2.241-1.041l-.836-.787c-.327.46-.775.702-1.344.702-1.054 0-1.769-.811-1.769-1.95 0-1.138.715-1.937 1.769-1.937.569 0 1.017.218 1.344.678l.836-.763c-.412-.557-1.09-1.042-2.241-1.042-1.768 0-3.015 1.296-3.015 3.064s1.247 3.076 3.015 3.076z" fill="#333"/><path d="m201.104 331-2.47-3.197 2.422-2.652h-1.574l-2.58 2.821v-5.05h-1.272v8.078h1.272v-1.574l.823-.848 1.781 2.422z" fill="#333"/><path d="m204.67 331.145c.921 0 1.781-.302 2.374-.86l-.581-.835c-.424.424-1.09.654-1.672.654-1.102 0-1.756-.739-1.852-1.611h4.505v-.315c0-1.841-1.114-3.173-2.87-3.173-1.732 0-2.968 1.369-2.968 3.064 0 1.853 1.296 3.076 3.064 3.076zm1.551-3.56h-3.295c.049-.703.558-1.538 1.635-1.538 1.151 0 1.623.847 1.66 1.538z" fill="#333"/><path d="m214.088 331v-8.078h-1.272v3.04c-.46-.63-1.138-.957-1.877-.957-1.501 0-2.591 1.175-2.591 3.064 0 1.938 1.102 3.076 2.591 3.076.763 0 1.429-.363 1.877-.944v.799zm-2.773-.981c-1.018 0-1.659-.811-1.659-1.95 0-1.126.641-1.937 1.659-1.937.593 0 1.223.351 1.501.787v2.313c-.278.436-.908.787-1.501.787z" fill="#333"/><path clip-rule="evenodd" d="m93.2892 324.462c.3015.289.3111.768.0215 1.07l-3.3236 3.46c-.1427.149-.3398.233-.5458.233-.2061 0-.4032-.084-.5459-.233l-1.8666-1.943c-.2896-.302-.28-.781.0215-1.07.3015-.29.7806-.28 1.0702.021l1.3208 1.375 2.7777-2.892c.2896-.301.7687-.311 1.0702-.021z" fill="#3ea140" fill-rule="evenodd"/><path clip-rule="evenodd" d="m90.1697 332.922c3.4637 0 6.2715-2.807 6.2715-6.271s-2.8078-6.272-6.2715-6.272c-3.4636 0-6.2715 2.808-6.2715 6.272s2.8079 6.271 6.2715 6.271zm7.7854-6.271c0 4.3-3.4857 7.785-7.7854 7.785s-7.7853-3.485-7.7853-7.785 3.4856-7.785 7.7853-7.785 7.7854 3.485 7.7854 7.785z" fill="#3ea140" fill-rule="evenodd"/><path clip-rule="evenodd" d="m313.593 318.575c-.325.323-.325.851 0 1.174l3.797 3.775-3.797 3.774c-.325.323-.325.851 0 1.174.324.323.855.323 1.18 0l4.388-4.361c.324-.323.324-.851 0-1.174l-4.388-4.362c-.325-.322-.856-.322-1.18 0z" fill="#aaa" fill-rule="evenodd"/></g><g filter="url(#c)"><path d="m32.4446 238.359h335.0424v49.777h-335.0424z" fill="#c4c4c4"/></g><g filter="url(#d)"><rect fill="#fff" height="60.2981" rx="6.41605" width="359.47" x="20" y="229.744"/><g fill="#333"><path d="m88.8698 264.775v-1.672h-5.5196v-3.019h5.406v-1.672h-5.406v-2.793h5.5196v-1.672h-7.419v10.828z"/><path d="m97.7847 264.775v-5.519c0-1.607-.8441-2.517-2.5325-2.517-1.2338 0-2.2565.634-2.776 1.25v-1.055h-1.7046v7.841h1.7046v-5.487c.4058-.519 1.1526-1.039 2.013-1.039.9578 0 1.5909.39 1.5909 1.624v4.902z"/><path d="m103.57 264.97c1.542 0 2.451-.666 3.003-1.396l-1.12-1.055c-.438.617-1.039.941-1.802.941-1.412 0-2.37-1.087-2.37-2.613s.958-2.598 2.37-2.598c.763 0 1.364.292 1.802.909l1.12-1.022c-.552-.747-1.461-1.397-3.003-1.397-2.37 0-4.0424 1.737-4.0424 4.108 0 2.37 1.6724 4.123 4.0424 4.123z"/><path d="m109.788 264.775v-5.341c.341-.568 1.299-1.055 2.03-1.055.211 0 .373.016.519.049v-1.689c-1.006 0-1.948.585-2.549 1.332v-1.137h-1.704v7.841z"/><path d="m113.387 267.844c.227.064.714.113.958.113 1.217-.016 2.143-.438 2.679-1.769l3.782-9.254h-1.818l-2.289 5.877-2.289-5.877h-1.835l3.231 7.939-.39.893c-.227.519-.584.681-1.136.681-.195 0-.471-.048-.649-.129z"/><path d="m126.097 264.97c2.03 0 3.474-1.542 3.474-4.123 0-2.582-1.444-4.108-3.474-4.108-1.022 0-1.932.487-2.516 1.267v-1.072h-1.705v10.828h1.705v-4.074c.649.828 1.526 1.282 2.516 1.282zm-.503-1.51c-.795 0-1.64-.487-2.013-1.071v-3.101c.39-.584 1.218-1.039 2.013-1.039 1.347 0 2.224 1.072 2.224 2.598s-.877 2.613-2.224 2.613z"/><path d="m133.648 264.97c.779 0 1.282-.227 1.591-.503l-.406-1.299c-.13.146-.422.292-.747.292-.487 0-.747-.406-.747-.941v-4.107h1.591v-1.478h-1.591v-2.143h-1.704v2.143h-1.299v1.478h1.299v4.529c0 1.315.682 2.029 2.013 2.029z"/><path d="m140.098 264.97c1.234 0 2.387-.406 3.182-1.153l-.779-1.12c-.568.569-1.461.877-2.24.877-1.478 0-2.354-.99-2.484-2.159h6.039v-.422c0-2.468-1.494-4.254-3.848-4.254-2.321 0-3.977 1.835-3.977 4.108 0 2.483 1.737 4.123 4.107 4.123zm2.078-4.773h-4.416c.065-.941.747-2.061 2.192-2.061 1.542 0 2.175 1.136 2.224 2.061z"/><path d="m152.722 264.775v-10.828h-1.704v4.075c-.617-.844-1.526-1.283-2.516-1.283-2.013 0-3.474 1.575-3.474 4.108 0 2.597 1.477 4.123 3.474 4.123 1.022 0 1.915-.487 2.516-1.266v1.071zm-3.717-1.315c-1.364 0-2.224-1.087-2.224-2.613 0-1.51.86-2.598 2.224-2.598.795 0 1.64.471 2.013 1.055v3.101c-.373.585-1.218 1.055-2.013 1.055z"/><path d="m164.376 264.97c2.176 0 3.523-1.153 4.351-2.451l-1.623-.812c-.52.893-1.575 1.575-2.728 1.575-2.142 0-3.733-1.656-3.733-3.913 0-2.289 1.591-3.912 3.733-3.912 1.153 0 2.208.666 2.728 1.575l1.607-.845c-.796-1.298-2.159-2.418-4.335-2.418-3.198 0-5.682 2.256-5.682 5.6 0 3.328 2.484 5.601 5.682 5.601z"/><path d="m173.738 264.97c2.5 0 4.026-1.883 4.026-4.123 0-2.257-1.526-4.108-4.026-4.108s-4.026 1.851-4.026 4.108c0 2.24 1.526 4.123 4.026 4.123zm0-1.51c-1.445 0-2.257-1.217-2.257-2.613 0-1.38.812-2.598 2.257-2.598 1.461 0 2.256 1.218 2.256 2.598 0 1.396-.795 2.613-2.256 2.613z"/><path d="m186.517 264.775v-5.519c0-1.607-.844-2.517-2.532-2.517-1.234 0-2.257.634-2.776 1.25v-1.055h-1.705v7.841h1.705v-5.487c.406-.519 1.153-1.039 2.013-1.039.958 0 1.591.39 1.591 1.624v4.902z"/><path d="m195.744 264.775v-5.519c0-1.607-.844-2.517-2.532-2.517-1.234 0-2.257.634-2.776 1.25v-1.055h-1.705v7.841h1.705v-5.487c.406-.519 1.152-1.039 2.013-1.039.958 0 1.591.39 1.591 1.624v4.902z"/><path d="m201.594 264.97c1.234 0 2.387-.406 3.182-1.153l-.779-1.12c-.568.569-1.461.877-2.24.877-1.478 0-2.354-.99-2.484-2.159h6.039v-.422c0-2.468-1.494-4.254-3.847-4.254-2.322 0-3.978 1.835-3.978 4.108 0 2.483 1.737 4.123 4.107 4.123zm2.078-4.773h-4.415c.065-.941.746-2.061 2.191-2.061 1.543 0 2.176 1.136 2.224 2.061z"/><path d="m210.566 264.97c1.542 0 2.451-.666 3.003-1.396l-1.12-1.055c-.438.617-1.039.941-1.802.941-1.412 0-2.37-1.087-2.37-2.613s.958-2.598 2.37-2.598c.763 0 1.364.292 1.802.909l1.12-1.022c-.552-.747-1.461-1.397-3.003-1.397-2.37 0-4.042 1.737-4.042 4.108 0 2.37 1.672 4.123 4.042 4.123z"/><path d="m217.45 264.97c.779 0 1.283-.227 1.591-.503l-.406-1.299c-.13.146-.422.292-.747.292-.487 0-.746-.406-.746-.941v-4.107h1.591v-1.478h-1.591v-2.143h-1.705v2.143h-1.299v1.478h1.299v4.529c0 1.315.682 2.029 2.013 2.029z"/><path d="m221.124 255.976c.585 0 1.056-.47 1.056-1.055 0-.584-.471-1.055-1.056-1.055-.584 0-1.055.471-1.055 1.055 0 .585.471 1.055 1.055 1.055zm.845 8.799v-7.841h-1.705v7.841z"/><path d="m227.735 264.97c2.5 0 4.026-1.883 4.026-4.123 0-2.257-1.526-4.108-4.026-4.108s-4.026 1.851-4.026 4.108c0 2.24 1.526 4.123 4.026 4.123zm0-1.51c-1.445 0-2.256-1.217-2.256-2.613 0-1.38.811-2.598 2.256-2.598 1.461 0 2.257 1.218 2.257 2.598 0 1.396-.796 2.613-2.257 2.613z"/><path d="m240.515 264.775v-5.519c0-1.607-.844-2.517-2.533-2.517-1.233 0-2.256.634-2.776 1.25v-1.055h-1.704v7.841h1.704v-5.487c.406-.519 1.153-1.039 2.013-1.039.958 0 1.591.39 1.591 1.624v4.902z"/></g><path clip-rule="evenodd" d="m56.6497 256.957c.4041.389.4171 1.031.0289 1.435l-4.4553 4.638c-.1913.2-.4556.312-.7318.312-.2761 0-.5404-.112-.7317-.312l-2.5022-2.605c-.3882-.404-.3752-1.046.0289-1.434s1.0464-.375 1.4346.029l1.7704 1.843 3.7236-3.877c.3882-.404 1.0305-.417 1.4346-.029z" fill="#3ea140" fill-rule="evenodd"/><path clip-rule="evenodd" d="m52.4682 268.299c4.643 0 8.4069-3.764 8.4069-8.407s-3.7639-8.407-8.4069-8.407-8.407 3.764-8.407 8.407 3.764 8.407 8.407 8.407zm10.4362-8.407c0 5.763-4.6724 10.436-10.4362 10.436s-10.4362-4.673-10.4362-10.436c0-5.764 4.6724-10.437 10.4362-10.437s10.4362 4.673 10.4362 10.437z" fill="#3ea140" fill-rule="evenodd"/></g><path d="m65.9487 475.769h268.1613v.865h-268.1613z" fill="#000" fill-opacity=".05"/><g filter="url(#e)"><rect fill="#fff" height="158.227" rx="4.32313" width="268.034" x="65.9487" y="57.2253"/><g fill="#888"><path d="m124.734 200.923c1.193 0 2.168-.509 2.843-1.266v-2.584h-3.279v1.069h2.075v1.069c-.311.301-.933.622-1.639.622-1.37 0-2.386-1.058-2.386-2.5 0-1.463 1.016-2.501 2.386-2.501.768 0 1.421.405 1.795.924l.986-.571c-.55-.789-1.432-1.432-2.781-1.432-2.013 0-3.631 1.401-3.631 3.58 0 2.168 1.618 3.59 3.631 3.59z"/><path d="m135.285 200.788-1.701-2.719c.84-.134 1.65-.809 1.65-2.033 0-1.287-.903-2.169-2.273-2.169h-3.04v6.921h1.214v-2.584h1.214l1.525 2.584zm-2.479-3.652h-1.671v-2.2h1.671c.685 0 1.183.425 1.183 1.089 0 .675-.498 1.111-1.183 1.111z"/><path d="m143.763 200.788-2.718-6.921h-1.515l-2.719 6.921h1.38l.509-1.339h3.175l.508 1.339zm-2.231-2.407h-2.49l1.245-3.3z"/><path d="m148.173 200.788c2.158 0 3.61-1.422 3.61-3.466 0-2.023-1.452-3.455-3.621-3.455h-2.573v6.921zm-.011-1.069h-1.359v-4.783h1.37c1.535 0 2.365 1.058 2.365 2.386 0 1.318-.871 2.397-2.376 2.397z"/><path d="m158.778 200.788v-1.069h-3.528v-1.93h3.455v-1.068h-3.455v-1.785h3.528v-1.069h-4.742v6.921z"/><path d="m169.603 200.788v-1.069h-3.528v-1.93h3.455v-1.068h-3.455v-1.785h3.528v-1.069h-4.742v6.921z"/><path d="m177.927 200.788v-6.921h-1.214v4.794l-3.538-4.794h-1.245v6.921h1.214v-4.949l3.611 4.949z"/><path d="m186.506 200.788v-6.921h-1.213v2.822h-3.601v-2.822h-1.214v6.921h1.214v-3.03h3.601v3.03z"/><path d="m195.293 200.788-2.719-6.921h-1.514l-2.719 6.921h1.38l.508-1.339h3.175l.509 1.339zm-2.231-2.407h-2.49l1.245-3.3z"/><path d="m203.116 200.788v-6.921h-1.214v4.794l-3.538-4.794h-1.245v6.921h1.214v-4.949l3.611 4.949z"/><path d="m208.998 200.912c1.39 0 2.251-.736 2.78-1.566l-1.037-.519c-.332.57-1.006 1.006-1.743 1.006-1.37 0-2.387-1.058-2.387-2.5 0-1.463 1.017-2.501 2.387-2.501.737 0 1.411.426 1.743 1.007l1.027-.54c-.508-.83-1.38-1.546-2.77-1.546-2.044 0-3.632 1.442-3.632 3.58 0 2.127 1.588 3.579 3.632 3.579z"/><path d="m218.562 200.788v-1.069h-3.528v-1.93h3.455v-1.068h-3.455v-1.785h3.528v-1.069h-4.742v6.921z"/><path d="m223.473 200.788c2.158 0 3.611-1.422 3.611-3.466 0-2.023-1.453-3.455-3.621-3.455h-2.574v6.921zm-.01-1.069h-1.36v-4.783h1.37c1.536 0 2.366 1.058 2.366 2.386 0 1.318-.872 2.397-2.376 2.397z"/><path d="m234.306 200.788v-2.999h3.455v-1.068h-3.455v-1.785h3.528v-1.069h-4.742v6.921z"/><path d="m245.383 200.788-1.701-2.719c.84-.134 1.65-.809 1.65-2.033 0-1.287-.903-2.169-2.273-2.169h-3.04v6.921h1.214v-2.584h1.214l1.525 2.584zm-2.479-3.652h-1.671v-2.2h1.671c.684 0 1.183.425 1.183 1.089 0 .675-.499 1.111-1.183 1.111z"/><path d="m250.862 200.912c2.065 0 3.539-1.515 3.539-3.579 0-2.065-1.474-3.58-3.539-3.58-2.075 0-3.538 1.515-3.538 3.58 0 2.064 1.463 3.579 3.538 3.579zm0-1.079c-1.4 0-2.293-1.079-2.293-2.5 0-1.432.893-2.501 2.293-2.501 1.391 0 2.293 1.069 2.293 2.501 0 1.421-.902 2.5-2.293 2.5z"/><path d="m263.83 200.788v-6.921h-1.712l-1.878 4.752-1.888-4.752h-1.712v6.921h1.214v-5.344l2.127 5.344h.518l2.117-5.344v5.344z"/></g><path clip-rule="evenodd" d="m269.625 196.5c0-3.797 3.078-6.875 6.875-6.875 1.823 0 3.572.724 4.861 2.014 1.29 1.289 2.014 3.038 2.014 4.861 0 3.797-3.078 6.875-6.875 6.875s-6.875-3.078-6.875-6.875zm8.519.894c-.23.535-.749.888-1.332.903-.469 0-.919-.191-1.243-.531-.325-.339-.497-.797-.475-1.266-.023-.47.148-.928.473-1.268s.775-.531 1.245-.529c.587.01 1.113.364 1.344.903l1.378-.668c-.492-1.048-1.565-1.698-2.722-1.647-1.893 0-3.359 1.303-3.359 3.209s1.453 3.209 3.359 3.209c1.154.032 2.218-.621 2.71-1.665z" fill="url(#g)" fill-rule="evenodd"/><path d="m146.336 180.728c1.706 0 2.74-.758 3.291-1.516l-1.43-1.344c-.397.569-1 .913-1.758.913-1.327 0-2.257-.982-2.257-2.429 0-1.448.93-2.413 2.257-2.413.758 0 1.361.311 1.758.896l1.43-1.344c-.551-.758-1.585-1.499-3.291-1.499-2.55 0-4.411 1.81-4.411 4.36 0 2.567 1.861 4.376 4.411 4.376z" fill="#333"/><path d="m153.246 180.522v-5.497c.362-.534 1.327-.948 2.05-.948.259 0 .448.018.603.052v-2.137c-1.033 0-2.05.603-2.653 1.327v-1.12h-2.188v8.323z" fill="#333"/><path d="m161.178 180.728c1.292 0 2.602-.396 3.429-1.154l-.982-1.447c-.534.516-1.499.809-2.206.809-1.413 0-2.24-.844-2.395-1.861h6.186v-.516c0-2.706-1.671-4.567-4.17-4.567-2.516 0-4.308 1.947-4.308 4.36 0 2.671 1.913 4.376 4.446 4.376zm1.93-5.169h-4.101c.086-.827.672-1.775 2.033-1.775 1.448 0 1.999.983 2.068 1.775z" fill="#333"/><path d="m170.702 180.728c1.292 0 2.602-.396 3.429-1.154l-.982-1.447c-.534.516-1.499.809-2.206.809-1.413 0-2.24-.844-2.395-1.861h6.186v-.516c0-2.706-1.671-4.567-4.17-4.567-2.515 0-4.307 1.947-4.307 4.36 0 2.671 1.912 4.376 4.445 4.376zm1.93-5.169h-4.101c.086-.827.672-1.775 2.033-1.775 1.448 0 1.999.983 2.068 1.775z" fill="#333"/><path d="m181.07 180.728c2.137 0 3.688-1.602 3.688-4.376s-1.551-4.36-3.688-4.36c-1.016 0-1.929.448-2.567 1.258v-1.051h-2.188v11.493h2.188v-4.239c.689.862 1.585 1.275 2.567 1.275zm-.689-1.947c-.706 0-1.516-.43-1.878-.965v-2.929c.379-.551 1.172-.948 1.878-.948 1.258 0 2.12.983 2.12 2.413 0 1.447-.862 2.429-2.12 2.429z" fill="#333"/><path d="m186.085 183.761c.258.086.827.138 1.068.138 1.43-.035 2.533-.448 3.153-2.016l3.912-9.684h-2.344l-2.188 5.79-2.171-5.79h-2.344l3.378 8.426-.31.724c-.207.448-.586.603-1.155.603-.207 0-.5-.052-.689-.138z" fill="#333"/><path d="m198.193 180.728c2.309 0 3.618-1.12 3.618-2.653 0-3.36-4.945-2.326-4.945-3.55 0-.465.517-.81 1.309-.81 1.017 0 1.965.448 2.464.965l.879-1.55c-.827-.655-1.947-1.138-3.343-1.138-2.205 0-3.411 1.224-3.411 2.619 0 3.274 4.928 2.154 4.928 3.516 0 .516-.448.878-1.396.878-1.034 0-2.257-.568-2.877-1.154l-.948 1.585c.879.81 2.274 1.292 3.722 1.292z" fill="#333"/><path d="m204.492 171.303c.723 0 1.309-.586 1.309-1.309 0-.724-.586-1.293-1.309-1.293-.707 0-1.293.569-1.293 1.293 0 .723.586 1.309 1.293 1.309zm1.102 9.219v-8.323h-2.188v8.323z" fill="#333"/><path d="m210.556 180.728c.913 0 1.499-.241 1.826-.534l-.465-1.671c-.121.138-.431.258-.758.258-.483 0-.758-.396-.758-.93v-3.739h1.688v-1.913h-1.688v-2.274h-2.189v2.274h-1.378v1.913h1.378v4.325c0 1.499.81 2.291 2.344 2.291z" fill="#333"/><path d="m217.498 180.728c1.292 0 2.602-.396 3.429-1.154l-.983-1.447c-.534.516-1.499.809-2.205.809-1.413 0-2.24-.844-2.395-1.861h6.186v-.516c0-2.706-1.672-4.567-4.17-4.567-2.516 0-4.308 1.947-4.308 4.36 0 2.671 1.913 4.376 4.446 4.376zm1.93-5.169h-4.101c.086-.827.672-1.775 2.033-1.775 1.447 0 1.999.983 2.068 1.775z" fill="#333"/><path d="m224.163 180.711c.758 0 1.396-.637 1.396-1.396 0-.758-.638-1.395-1.396-1.395s-1.396.637-1.396 1.395c0 .759.638 1.396 1.396 1.396z" fill="#333"/><path d="m231.278 180.728c1.706 0 2.74-.758 3.291-1.516l-1.43-1.344c-.396.569-.999.913-1.757.913-1.327 0-2.258-.982-2.258-2.429 0-1.448.931-2.413 2.258-2.413.758 0 1.361.311 1.757.896l1.43-1.344c-.551-.758-1.585-1.499-3.291-1.499-2.55 0-4.411 1.81-4.411 4.36 0 2.567 1.861 4.376 4.411 4.376z" fill="#333"/><path d="m239.859 180.728c2.757 0 4.412-2.016 4.412-4.376 0-2.361-1.655-4.36-4.412-4.36-2.739 0-4.393 1.999-4.393 4.36 0 2.36 1.654 4.376 4.393 4.376zm0-1.947c-1.361 0-2.119-1.12-2.119-2.429 0-1.293.758-2.413 2.119-2.413 1.379 0 2.137 1.12 2.137 2.413 0 1.309-.758 2.429-2.137 2.429z" fill="#333"/><path d="m258.438 180.522v-6.014c0-1.706-.914-2.516-2.447-2.516-1.275 0-2.378.759-2.86 1.499-.293-.93-1.086-1.499-2.309-1.499-1.275 0-2.361.793-2.723 1.275v-1.068h-2.188v8.323h2.188v-5.618c.328-.448.965-.965 1.723-.965.896 0 1.241.552 1.241 1.327v5.256h2.205v-5.618c.31-.448.948-.965 1.723-.965.896 0 1.241.552 1.241 1.327v5.256z" fill="#333"/><path d="m199.813 156.647c24.004 0 43.462-19.595 43.462-43.766 0-24.1711-19.458-43.7657-43.462-43.7657-24.003 0-43.461 19.5946-43.461 43.7657 0 24.171 19.458 43.766 43.461 43.766z" fill="#999" fill-opacity=".25"/><path d="m199.813 69.1153c-5.801-.0072-11.545 1.1587-16.891 3.4285h.651c19.267-.0027 36.525 12.0022 43.342 30.1492s1.77 38.649-12.676 51.488c19.992-7.073 32.005-27.631 28.439-48.664-3.567-21.0328-21.675-36.4108-42.865-36.4017z" fill="#333" fill-opacity=".15"/><path d="m243.197 113.677c.016-11.096-4.305-21.7499-12.024-29.6469h-71.731c-1.495 0-2.707 1.224-2.707 2.7338v49.1041c0 2.41 1.934 4.363 4.32 4.363h72.848c6.027-7.51 9.309-16.887 9.294-26.554z" fill="#fff"/><path d="m230.833 82.2309h-74.574c-.727-.0011-1.426.2895-1.94.8076-.515.5181-.803 1.2211-.802 1.9538v3.9338h82.672c-1.563-2.4036-3.357-4.6462-5.356-6.6952z" fill="#777"/><path d="m204.407 122.685h-14.968c-.495-.004-.895-.407-.9-.905v-9.142c.007-.497.406-.899.9-.905h14.98c.494.004.895.407.899.905v9.142c.011.245-.083.484-.256.656-.174.173-.412.263-.655.249z" fill="#999" fill-opacity=".25"/><path d="m224.124 122.685h-14.984c-.494-.006-.893-.408-.899-.905v-9.142c.006-.497.405-.899.899-.905h14.984c.494.006.893.408.899.905v9.142c.004.241-.09.473-.259.644-.17.17-.401.265-.64.261z" fill="#dee2ea"/><path d="m213.677 128.515h-23.744c-.374.002-.733-.148-.997-.414-.264-.267-.411-.628-.409-1.005-.002-.376.145-.738.409-1.004.264-.267.623-.416.997-.415h23.744c.374-.001.733.148.998.415.264.266.412.628.411 1.004-.023.774-.64 1.396-1.409 1.419z" fill="#999" fill-opacity=".25"/><path d="m227.368 128.515h-8.957c-.374.002-.733-.148-.997-.414-.264-.267-.411-.628-.409-1.005-.002-.376.145-.738.409-1.004.264-.267.623-.416.997-.415h8.957c.374-.001.733.148.998.415.264.266.412.628.411 1.004.001.377-.147.739-.411 1.005-.265.266-.624.416-.998.414z" fill="#dee2ea"/><path d="m198.89 134.208h-8.957c-.374.001-.733-.148-.997-.415-.264-.266-.411-.628-.409-1.004-.002-.376.145-.738.409-1.004.264-.267.623-.416.997-.415h8.957c.374-.001.733.148.998.414.264.267.412.628.411 1.005.001.377-.147.738-.411 1.005-.265.266-.624.415-.998.414z" fill="#999" fill-opacity=".25"/><path d="m216.692 134.208h-8.961c-.374.001-.733-.148-.996-.415-.264-.266-.412-.628-.409-1.004-.003-.376.145-.738.409-1.004.263-.267.622-.416.996-.415h8.961c.374-.001.733.148.996.415.264.266.412.628.409 1.004-.021.773-.637 1.396-1.405 1.419z" fill="#999" fill-opacity=".25"/><path d="m203.31 134.188c.779 0 1.41-.636 1.41-1.419 0-.784-.631-1.419-1.41-1.419-.778 0-1.409.635-1.409 1.419 0 .783.631 1.419 1.409 1.419z" fill="#999" fill-opacity=".25"/><path d="m225.413 134.188c.778 0 1.409-.636 1.409-1.419 0-.784-.631-1.419-1.409-1.419-.779 0-1.41.635-1.41 1.419 0 .783.631 1.419 1.41 1.419z" fill="#dee2ea"/><path d="m221.346 134.188c.778 0 1.409-.636 1.409-1.419 0-.784-.631-1.419-1.409-1.419-.779 0-1.41.635-1.41 1.419 0 .783.631 1.419 1.41 1.419z" fill="#dee2ea"/><path d="m230.11 134.208h7.673c.511-.922.989-1.865 1.433-2.83-.048 0-.1 0-.148 0h-8.958c-.735.056-1.303.673-1.303 1.415s.568 1.359 1.303 1.415z" fill="#dee2ea"/><path d="m228.817 122.685h13.362c.731-3.216 1.099-6.505 1.096-9.804 0-.404 0-.768 0-1.148h-14.454c-.494.006-.893.408-.899.905v9.142c.004.497.402.899.895.905z" fill="#dee2ea"/><path d="m243.083 108.737c-.446-4.827-1.69-9.5439-3.682-13.9566h-48.983c-.497 0-.974.1989-1.325.553-.352.3541-.55.8344-.55 1.3351v10.2205c0 .501.198.981.55 1.335.351.354.828.553 1.325.553h52.42c.082-.008.164-.021.245-.04z" fill="#999" fill-opacity=".25"/><path d="m158.921 86.8803c.714 0 1.293-.5828 1.293-1.3018s-.579-1.3019-1.293-1.3019-1.293.5829-1.293 1.3019.579 1.3018 1.293 1.3018z" fill="#aaa"/><path d="m163.422 86.8803c.714 0 1.293-.5828 1.293-1.3018s-.579-1.3019-1.293-1.3019-1.293.5829-1.293 1.3019.579 1.3018 1.293 1.3018z" fill="#aaa"/><path d="m167.919 86.8803c.714 0 1.292-.5828 1.292-1.3018s-.578-1.3019-1.292-1.3019-1.293.5829-1.293 1.3019.579 1.3018 1.293 1.3018z" fill="#aaa"/><path d="m183.208 140.37h-25.295c-2.422-.011-4.383-1.985-4.396-4.423v-47.1018h29.711z" fill="#3fa140"/><path d="m174.559 119.888h-13.847c-.665 0-1.205-.543-1.205-1.213s.54-1.213 1.205-1.213h13.847c.666 0 1.205.543 1.205 1.213s-.539 1.213-1.205 1.213z" fill="#fff" opacity=".59"/><path d="m174.559 125.718h-13.847c-.665 0-1.205-.543-1.205-1.213s.54-1.213 1.205-1.213h13.847c.666 0 1.205.543 1.205 1.213s-.539 1.213-1.205 1.213z" fill="#fff" opacity=".59"/><path d="m171.038 131.588h-10.326c-.665 0-1.205-.543-1.205-1.213s.54-1.213 1.205-1.213h10.326c.665 0 1.205.543 1.205 1.213s-.54 1.213-1.205 1.213z" fill="#fff" opacity=".59"/><path d="m174.559 131.588c-.665 0-1.204-.543-1.204-1.213s.539-1.213 1.204-1.213c.666 0 1.205.543 1.205 1.213s-.539 1.213-1.205 1.213z" fill="#fff" opacity=".59"/><path d="m168.404 114.001c5.639 0 10.21-4.603 10.21-10.281 0-5.6787-4.571-10.2819-10.21-10.2819-5.638 0-10.21 4.6032-10.21 10.2819 0 5.678 4.572 10.281 10.21 10.281z" fill="#fff" opacity=".59"/><path d="m174.812 111.676c-.084-.424-.255-.826-.502-1.18-.509-.708-1.682-.708-2.621-.748-.382.035-.766-.004-1.133-.118-.59-.238-.706-1.022-.746-1.419-.314-.982-.743-1.297-1.205-1.18l-.233.234-.237-.234c-.469-.081-.662 0-.975 1.18-.04.405-.197 1.181-.743 1.419-.368.113-.753.153-1.136.118-.94 0-2.152.04-2.622.748-.29.361-.472.799-.522 1.261 1.82 1.477 4.087 2.283 6.424 2.284 2.293-.034 4.503-.87 6.251-2.365z" fill="#9b7a56"/><path d="m172.118 103.052c0 2.641-1.642 5.871-3.714 5.871-2.071 0-3.717-3.271-3.717-5.871 0-2.599 1.642-4.7663 3.717-4.7663 2.076 0 3.714 2.1263 3.714 4.7663z" fill="#9b7a56"/><path d="m164.61 99.0337h7.119v2.7573h-7.119z" fill="#af58c4"/><path d="m168.441 99.0337h3.597v2.7573h-3.597z" fill="#ce6ce5"/><path clip-rule="evenodd" d="m174.422 99.1389c.195.3986.211.8621.045 1.2731.342.356.49.856.398 1.342s-.412.896-.86 1.1c.703.906.39 2.087-.626 2.402-.084.79-.741 1.391-1.53 1.399-.209.419-.598.718-1.056.808h-.076c.808-1.12 1.231-2.476 1.205-3.861-.006-.381-.033-.762-.081-1.14-.19-.042-.358-.155-.47-.315-.179.155-.419.218-.651.171-.232-.046-.43-.197-.537-.41-.158.174-.386.267-.62.252s-.449-.136-.584-.329c-.139.212-.375.34-.627.34s-.487-.128-.626-.34c-.129.202-.346.329-.583.344-.238.016-.468-.084-.622-.267-.103.212-.298.363-.528.41-.229.047-.467-.017-.644-.171-.114.141-.273.24-.45.279-.048.378-.075.759-.08 1.14.01 1.4.478 2.757 1.333 3.861h-.136c-.463-.1-.86-.394-1.093-.809-.771-.03-1.412-.609-1.525-1.378-1.096-.352-1.217-1.593-.627-2.402-.447-.197-.773-.599-.874-1.081-.101-.481.035-.982.365-1.345-.174-.41-.161-.8761.034-1.2765s.553-.6958.981-.8093c-.107-.4387.006-.9025.304-1.2407.297-.3382.74-.5077 1.186-.4534.209-.4055.573-.707 1.009-.8338.436-.1269.904-.0681 1.295.1627.329-.3842.808-.605 1.311-.605.504 0 .982.2208 1.311.605.385-.2332.85-.2934 1.281-.1658.431.1275.789.4311.988.8369.443-.0489.883.1223 1.178.4593.296.3369.41.7974.307 1.2348.425.1184.78.4142.975.8127zm-8.876 2.0211c1.489-2.6398 4.147-2.5994 5.621 0-1.721-1.078-3.901-1.078-5.621 0z" fill="#323335" fill-rule="evenodd"/><path d="m172.199 103.368c.061.689-.047 1.383-.314 2.021.976-.606 1.133-2.179.314-2.021z" fill="#7b5d3f"/><path d="m164.546 103.368c-.063.689.044 1.384.313 2.021-.996-.606-1.152-2.179-.313-2.021z" fill="#8c6e48"/><path d="m167.308 106.085v.226c.005.246.106.481.282.652.177.17.413.263.658.258h.401c.505.004.919-.402.928-.91v-.234z" fill="#fff"/><path d="m167.192 104.273c.195 0 .353-.193.353-.432s-.158-.433-.353-.433-.353.194-.353.433.158.432.353.432z" fill="#323335"/><path d="m169.46 104.273c.196 0 .354-.193.354-.432s-.158-.433-.354-.433c-.195 0-.353.194-.353.433s.158.432.353.432z" fill="#323335"/><path d="m174.31 110.459c-.509-.711-1.682-.711-2.621-.752-.382.036-.766-.004-1.133-.117-.04 0-.04-.04-.08-.04-.49.645-1.231 1.047-2.035 1.103-.8-.046-1.537-.451-2.008-1.103-.01 0-.02.004-.027.012-.007.007-.01.018-.009.028-.368.113-.754.153-1.136.117-.94 0-2.152.041-2.622.752-.291.404-.471.878-.522 1.375 1.83 1.45 4.096 2.229 6.424 2.207 2.338-.041 4.588-.898 6.368-2.425-.161-.405-.361-.792-.599-1.157z" fill="#ce6ce5"/><path d="m169.83 108.397c-.398.316-.883.5-1.389.526-.493-.002-.972-.163-1.366-.461-.031.252-.101.498-.208.728.426.4.991.615 1.574.598.599-.013 1.171-.251 1.606-.667-.108-.229-.181-.473-.217-.724z" fill="#7b5d3f"/><path d="m226.525 136.838c16.414 0 29.721-13.399 29.721-29.928 0-16.5294-13.307-29.9289-29.721-29.9289s-29.721 13.3995-29.721 29.9289c0 16.529 13.307 29.928 29.721 29.928z" fill="#4c863e"/><path d="m227.773 134.77c16.68 0 30.201-13.616 30.201-30.412 0-16.7955-13.521-30.4113-30.201-30.4113-16.679 0-30.2 13.6158-30.2 30.4113 0 16.796 13.521 30.412 30.2 30.412z" fill="#3fa140"/><path clip-rule="evenodd" d="m222.137 115.6h-11.575v-21.3831h11.223c4.061 0 6.139 2.5967 6.139 5.4499 0 2.6612-1.663 4.4882-3.677 4.9052 2.302.352 4.093 2.564 4.093 5.225 0 3.238-2.111 5.803-6.203 5.803zm-1.343-12.888c1.534 0 2.494-.865 2.494-2.244 0-1.3141-.96-2.2438-2.494-2.2438h-5.692v4.4878zm.191 8.88c1.695 0 2.718-.897 2.718-2.436 0-1.346-.959-2.436-2.718-2.436h-5.883v4.872z" fill="#fff" fill-rule="evenodd"/><path clip-rule="evenodd" d="m233.04 102.776h14.389v4.008h-14.389z" fill="#fff" fill-rule="evenodd"/><path clip-rule="evenodd" d="m238.236 111.592v-14.4257h3.997v14.4257z" fill="#fff" fill-rule="evenodd"/></g><g filter="url(#f)" opacity=".7"><path d="m75.4935 15.6189c0-4.7922 3.8849-8.67713 8.6772-8.67713h232.5473c4.792 0 8.677 3.88493 8.677 8.67713v15.6189c0 4.7922-3.885 8.6771-8.677 8.6771h-232.5473c-4.7923 0-8.6772-3.8849-8.6772-8.6771z" fill="#fff"/><rect fill="#aaa" height="5.20628" rx=".867714" transform="matrix(.70710678 -.70710678 .70710678 .70710678 71.996006 225.727335)" width="1.73543" x="308.475" y="25.9568"/><path d="m309.514 19.3264c1.779 1.779 1.779 4.6634 0 6.4424s-4.663 1.779-6.442 0c-1.78-1.779-1.78-4.6634 0-6.4424 1.779-1.7791 4.663-1.7791 6.442 0z" stroke="#aaa" stroke-width="1.30157"/><g fill="#999"><path d="m118.185 27.5001c2.174 0 3.134-1.1662 3.134-2.5146 0-3.0127-4.713-2.0773-4.713-3.5958 0-.5953.534-1.0083 1.36-1.0083.851 0 1.713.2915 2.357.9354l.802-1.0569c-.741-.7289-1.774-1.1419-3.025-1.1419-1.786 0-2.952 1.0326-2.952 2.381 0 2.9762 4.713 1.9194 4.713 3.6201 0 .5466-.449 1.1176-1.615 1.1176-1.13 0-2.017-.5345-2.563-1.1298l-.802 1.1055c.729.7532 1.81 1.2877 3.304 1.2877z"/><path d="m125.301 27.5001c.923 0 1.785-.3037 2.381-.8625l-.583-.8382c-.426.4252-1.094.656-1.677.656-1.105 0-1.761-.7411-1.858-1.6157h4.519v-.3159c0-1.8465-1.118-3.1827-2.88-3.1827-1.737 0-2.976 1.3727-2.976 3.0734 0 1.8586 1.3 3.0856 3.074 3.0856zm1.555-3.5715h-3.305c.049-.7046.559-1.5428 1.64-1.5428 1.154 0 1.628.8504 1.665 1.5428z"/><path d="m134.213 27.3543v-3.8995c0-1.5671-1.142-2.1137-2.454-2.1137-.935 0-1.786.2915-2.466.9475l.535.8868c.498-.5102 1.081-.7532 1.737-.7532.801 0 1.372.4131 1.372 1.0934v.8746c-.437-.4981-1.105-.7532-1.907-.7532-.96 0-2.029.5588-2.029 1.9194 0 1.2877 1.082 1.9437 2.029 1.9437.778 0 1.47-.2794 1.907-.7896v.6438zm-2.673-.7289c-.716 0-1.263-.413-1.263-1.0568 0-.6317.547-1.0569 1.263-1.0569.547 0 1.094.2065 1.397.6074v.8989c-.303.4009-.85.6074-1.397.6074z"/><path d="m137.142 27.3543v-3.9967c.255-.4251.972-.7896 1.518-.7896.158 0 .28.0122.389.0365v-1.2634c-.753 0-1.458.4373-1.907.9961v-.8504h-1.276v5.8675z"/><path d="m142.75 27.5001c1.154 0 1.835-.4981 2.248-1.0447l-.838-.7897c-.328.4617-.778.7046-1.349.7046-1.057 0-1.773-.8139-1.773-1.9558s.716-1.9437 1.773-1.9437c.571 0 1.021.2187 1.349.6803l.838-.7653c-.413-.5588-1.094-1.0447-2.248-1.0447-1.773 0-3.024 1.2998-3.024 3.0734s1.251 3.0856 3.024 3.0856z"/><path d="m151.376 27.3543v-4.1546c0-1.2026-.632-1.8586-1.895-1.8586-.923 0-1.676.4737-2.065.9354v-3.0249h-1.276v8.1027h1.276v-4.106c.291-.3887.85-.7775 1.506-.7775.717 0 1.179.2673 1.179 1.1905v3.693z"/><path d="m159.226 27.3543c2.527 0 4.227-1.6643 4.227-4.0574 0-2.3689-1.7-4.0453-4.239-4.0453h-3.013v8.1027zm-.012-1.2512h-1.592v-5.6002h1.604c1.798 0 2.769 1.239 2.769 2.794 0 1.5428-1.02 2.8062-2.781 2.8062z"/><path d="m170.025 27.3543v-5.8675h-1.276v4.1182c-.291.3887-.85.7653-1.494.7653-.729 0-1.19-.2915-1.19-1.2026v-3.6809h-1.276v4.1547c0 1.1905.632 1.8586 1.895 1.8586.923 0 1.652-.4616 2.065-.9233v.7775z"/><path d="m174.354 27.5001c1.154 0 1.835-.4981 2.248-1.0447l-.839-.7897c-.328.4617-.777.7046-1.348.7046-1.057 0-1.774-.8139-1.774-1.9558s.717-1.9437 1.774-1.9437c.571 0 1.02.2187 1.348.6803l.839-.7653c-.413-.5588-1.094-1.0447-2.248-1.0447-1.773 0-3.025 1.2998-3.025 3.0734s1.252 3.0856 3.025 3.0856z"/><path d="m183.223 27.3543-2.478-3.207 2.429-2.6605h-1.579l-2.588 2.8305v-5.0657h-1.275v8.1027h1.275v-1.5792l.826-.8504 1.786 2.4296z"/><path d="m187.199 27.3543c2.527 0 4.228-1.6643 4.228-4.0574 0-2.3689-1.701-4.0453-4.24-4.0453h-3.012v8.1027zm-.012-1.2512h-1.591v-5.6002h1.603c1.798 0 2.77 1.239 2.77 2.794 0 1.5428-1.02 2.8062-2.782 2.8062z"/><path d="m197.998 27.3543v-5.8675h-1.275v4.1182c-.292.3887-.85.7653-1.494.7653-.729 0-1.191-.2915-1.191-1.2026v-3.6809h-1.275v4.1547c0 1.1905.631 1.8586 1.895 1.8586.923 0 1.652-.4616 2.065-.9233v.7775z"/><path d="m202.328 27.5001c1.154 0 1.834-.4981 2.247-1.0447l-.838-.7897c-.328.4617-.778.7046-1.348.7046-1.057 0-1.774-.8139-1.774-1.9558s.717-1.9437 1.774-1.9437c.57 0 1.02.2187 1.348.6803l.838-.7653c-.413-.5588-1.093-1.0447-2.247-1.0447-1.774 0-3.025 1.2998-3.025 3.0734s1.251 3.0856 3.025 3.0856z"/><path d="m211.196 27.3543-2.478-3.207 2.43-2.6605h-1.579l-2.588 2.8305v-5.0657h-1.276v8.1027h1.276v-1.5792l.826-.8504 1.786 2.4296z"/><path d="m216.048 27.5122c1.397 0 2.539-.5952 3.328-1.482v-3.0249h-3.839v1.2513h2.43v1.2512c-.364.3523-1.093.7289-1.919.7289-1.604 0-2.794-1.2391-2.794-2.9277 0-1.7128 1.19-2.9276 2.794-2.9276.899 0 1.664.4737 2.101 1.0811l1.154-.6681c-.644-.9232-1.676-1.6764-3.255-1.6764-2.357 0-4.252 1.64-4.252 4.191 0 2.539 1.895 4.2032 4.252 4.2032z"/><path d="m223.48 27.5001c1.871 0 3.012-1.4092 3.012-3.0856 0-1.6886-1.141-3.0734-3.012-3.0734s-3.013 1.3848-3.013 3.0734c0 1.6764 1.142 3.0856 3.013 3.0856zm0-1.1298c-1.081 0-1.689-.9111-1.689-1.9558 0-1.0326.608-1.9437 1.689-1.9437 1.093 0 1.688.9111 1.688 1.9437 0 1.0447-.595 1.9558-1.688 1.9558z"/></g><path clip-rule="evenodd" d="m91.8498 32.8425c5.2715 0 9.5452-4.2734 9.5452-9.5448 0-5.2715-4.2737-9.5449-9.5452-9.5449s-9.5449 4.2734-9.5449 9.5449c0 5.2714 4.2734 9.5448 9.5449 9.5448z" fill="#fff" fill-rule="evenodd"/><path clip-rule="evenodd" d="m91.9249 14.786c4.7484 0 8.5981 3.8485 8.5981 8.5958 0 4.7474-3.8497 8.5959-8.5981 8.5959-4.7485 0-8.5978-3.8485-8.5978-8.5959 0-4.7473 3.8493-8.5958 8.5978-8.5958z" fill="#de5833" fill-rule="evenodd"/><g mask="url(#m)"><path clip-rule="evenodd" d="m95.4423 36.3342c-.3007-1.4028-2.0552-4.5632-2.7069-5.9153-.6684-1.3352-1.3201-3.2282-1.0193-4.4449.0501-.2197-.5681-1.9098-.401-2.0281 1.4036-.9296 1.771.1014 2.3393-.3212.2841-.2197.6849.1691.7854-.1859.3676-1.2844-.5013-3.5153-1.4705-4.4787-.3175-.3211-.8022-.5239-1.3367-.6253-.2173-.2873-.5515-.5747-1.0193-.8282-.5347-.2873-1.6877-.6591-2.2892-.7605-.4178-.0676-.518.0507-.6851.0845.1671.0169.9524.4056 1.1028.4225-.1504.1014-.6015 0-.8856.1183-.1504.0676-.2507.3211-.2507.4395.8188-.0846 2.1055 0 2.8574.338-.6016.0676-1.5206.1521-1.9049.3549-1.1363.6084-1.6543 2.0281-1.3535 3.7351s1.6208 7.9094 2.0553 9.9884c.4177 2.0788-.9023 3.4138-1.7545 3.7858l.9023.0676-.3008.676c1.0862.1183 2.2892-.2366 2.2892-.2366-.2339.676-1.8714.9126-1.8714.9126s.7853.2365 2.0553-.2366c1.2699-.4901 2.0552-.7945 2.0552-.7945l.6016 1.5889 1.1529-1.1493.4846 1.2169c-.0336-.0169.8689-.3211.5681-1.7239z" fill="#d5d7d8" fill-rule="evenodd"/></g><g mask="url(#n)"><path clip-rule="evenodd" d="m95.8105 36.0471c-.3009-1.4028-2.0554-4.5632-2.7069-5.9153-.6684-1.3352-1.3202-3.2281-1.0195-4.4449.0503-.2197.0503-1.1324.2341-1.2507 1.4035-.9295 1.3032-.0338 1.8715-.4394.2839-.2197.5178-.4732.6181-.8282.3676-1.2844-.5013-3.5153-1.4704-4.4787-.3174-.3211-.8021-.5239-1.3368-.6253-.2172-.2873-.5514-.5746-1.0191-.8282-.9024-.4901-2.0219-.676-3.0581-.4901.1671.0169.5516.3549.702.3887-.2339.1521-.8523.1352-.8355.4902.8186-.0845 1.721.0507 2.4729.3887-.6014.0676-1.1697.2197-1.5538.4225-1.153.6084-1.4539 1.8253-1.153 3.5323.3006 1.707 1.6207 7.9265 2.0551 9.9884.4178 2.0788-.9021 3.414-1.7376 3.7858l.9021.0676-.3006.676c1.0861.1183 2.2891-.2366 2.2891-.2366-.234.676-1.8713.9127-1.8713.9127s.7851.2366 2.0551-.2367c1.2699-.4901 2.0553-.7943 2.0553-.7943l.6017 1.5887 1.1528-1.1662.4847 1.2169c-.0336-.0169.8689-.3211.5681-1.7239z" fill="#fff" fill-rule="evenodd"/></g><path clip-rule="evenodd" d="m88.8752 22.0525c0-.3549.2841-.6422.635-.6422s.635.2873.635.6422c0 .355-.2841.6423-.635.6423s-.635-.2873-.635-.6423z" fill="#2d4f8e" fill-rule="evenodd"/><path clip-rule="evenodd" d="m89.6271 21.8807c0-.1085.0867-.217.2169-.217.1085 0 .2169.0868.2169.217 0 .1084-.0867.2169-.2169.2169s-.2169-.0868-.2169-.2169z" fill="#fff" fill-rule="evenodd"/><path clip-rule="evenodd" d="m93.203 21.6636c0-.3042.2506-.5408.5514-.5408.301 0 .5516.2535.5516.5408 0 .3042-.2506.5577-.5516.5577-.3175 0-.5514-.2535-.5514-.5577z" fill="#2d4f8e" fill-rule="evenodd"/><path clip-rule="evenodd" d="m93.8379 21.5765c0-.1355.1084-.2169.2171-.2169.1355 0 .2167.1085.2167.2169 0 .1356-.1086.217-.2167.217-.1087 0-.2171-.1085-.2171-.217z" fill="#fff" fill-rule="evenodd"/><path clip-rule="evenodd" d="m88.7511 19.9599c-.6789.257-.4243.7872-.4243.7872s-.017-.2892.4582-.5623c.4582-.2892.9504-.0803.9504-.0803s-.1852-.2306-.5626-.2306c-.1208 0-.2614.0236-.4217.086z" fill="#2d4f8e" fill-rule="evenodd"/><path clip-rule="evenodd" d="m92.792 20.1648s.1511-.2282.7053-.2282c.252 0 .6045.1826.6045.1826s-.1343-.3194-.5204-.3802c-.0573-.0074-.1103-.0108-.1597-.0108-.5587 0-.6297.4366-.6297.4366z" fill="#2d4f8e" fill-rule="evenodd"/><path clip-rule="evenodd" d="m91.3806 24.4265c.0672-.3866 1.0591-1.1095 1.7652-1.16.7061-.0504.9247-.0336 1.5131-.1681s2.1015-.5212 2.5217-.7061c.4203-.2017 2.2026.1009.9417.7902-.5382.3026-2.0008.8574-3.0599 1.1768-1.0424.3194-1.6812-.3026-2.0343.2185-.269.4035-.0504.9751 1.1937 1.0928 1.6811.1513 3.3121-.7565 3.4802-.269.1847.4876-1.446 1.0928-2.4377 1.1096-.9921.0168-2.9927-.6557-3.2953-.8574-.269-.2354-.6725-.7229-.5884-1.2273z" fill="#fdd20a" fill-rule="evenodd"/><path clip-rule="evenodd" d="m92.1373 29.5205s-2.3705-1.2609-2.4041-.7565c-.0337.5213 0 2.6058.269 2.7739.2689.1513 2.2527-1.0255 2.2527-1.0255z" fill="#65bc46" fill-rule="evenodd"/><path clip-rule="evenodd" d="m93.045 29.4369s1.614-1.2272 1.9838-1.1432c.3529.0841.437 2.6059.1177 2.7236-.3194.1178-2.1687-.6387-2.1687-.6387z" fill="#65bc46" fill-rule="evenodd"/><path clip-rule="evenodd" d="m91.5653 29.6555c0 .8236-.1176 1.1768.2354 1.2609.3531.084 1.0255 0 1.2609-.1514s.0336-1.2272-.0336-1.429c-.0841-.2019-1.4627-.0338-1.4627.3195z" fill="#43a244" fill-rule="evenodd"/><path clip-rule="evenodd" d="m91.7169 29.4706c0 .8238-.1176 1.1938.2354 1.2609.3531.084 1.0255 0 1.2609-.1512.2354-.1514.0338-1.2274-.0336-1.429-.0841-.2019-1.4627-.0338-1.4627.3193z" fill="#65bc46" fill-rule="evenodd"/><path clip-rule="evenodd" d="m91.515 33.03c5.255 0 9.515-4.26 9.515-9.515s-4.26-9.515-9.515-9.515-9.515 4.26-9.515 9.515 4.26 9.515 9.515 9.515z" fill="#de5833" fill-rule="evenodd"/><g mask="url(#o)"><path clip-rule="evenodd" d="m93.28 32.0087c-.3981-.7739-.7787-1.4859-1.0149-1.9569-.628-1.2576-1.2592-3.0306-.9722-4.1739.0524-.2078-.5915-7.6929-1.0466-7.934-.5059-.2696-1.6049-.6248-2.1742-.7199-.3965-.0635-.4868.0475-.6534.0729.157.0159.904.3838 1.0483.4044-.1443.0983-.5709-.0032-.8437.1173-.138.0635-.241.2982-.2379.4092.7771-.0793 1.9918-.0016 2.7118.3172-.5725.065-1.4415.1379-1.8158.3346-1.0847.5709-1.5636 1.9077-1.2781 3.5094.2838 1.5985 1.5414 7.4296 1.9426 9.377.3996 1.9459 4.997 1.5383 4.3325.2427z" fill="#d5d7d8" fill-rule="evenodd"/><path d="m91.6386 25.6099c-.2855 1.1433.3425 2.9147.9721 4.1739.2115.4206.5379 1.0346.8891 1.7142-.8191.203-2.8067.4872-4.2035 0-.3996-1.9426-1.6572-7.7753-1.9442-9.377-.2855-1.6017 0-2.7451 1.0879-3.316.3726-.1966.9055-.3393 1.4764-.4028-.72-.3203-1.5732-.444-2.3534-.3647-.0032-.3299.5788-.3108.7977-.4599-.1443-.0206-.5027-.3441-.6613-.36.9897-.1697 2.0078-.0092 2.8973.4567.4536.2427.7739.5028.9721.7755.517.0983.9737.2855 1.2719.5836.9166.915 1.7349 3.0067 1.3923 4.2088-.0967.333-.3171.5757-.5931.7771-.536.3901-.4408-.452-1.7745.4202-.1729.1126-.1729.9626-.2268 1.1704z" fill="#fff"/></g><path clip-rule="evenodd" d="m89.2108 22.803c.3319 0 .601-.2691.601-.6011 0-.3319-.2691-.601-.601-.601-.332 0-.6011.2691-.6011.601 0 .332.2691.6011.6011.6011z" fill="#2d4f8e" fill-rule="evenodd"/><path clip-rule="evenodd" d="m89.4788 22.1575c.0858 0 .1554-.0696.1554-.1554s-.0696-.1554-.1554-.1554c-.0859 0-.1554.0696-.1554.1554s.0695.1554.1554.1554z" fill="#fff" fill-rule="evenodd"/><path clip-rule="evenodd" d="m93.2261 22.3605c.2846 0 .5154-.2307.5154-.5154 0-.2846-.2308-.5154-.5154-.5154-.2847 0-.5154.2308-.5154.5154 0 .2847.2307.5154.5154.5154z" fill="#2d4f8e" fill-rule="evenodd"/><path clip-rule="evenodd" d="m93.4561 21.807c.0736 0 .1332-.0596.1332-.1332 0-.0735-.0596-.1332-.1332-.1332s-.1332.0597-.1332.1332c0 .0736.0596.1332.1332.1332z" fill="#fff" fill-rule="evenodd"/><path clip-rule="evenodd" d="m89.3836 20.4623s-.4536-.2062-.8928.0713c-.4393.276-.4234.5582-.4234.5582s-.2332-.5201.3885-.7754c.6232-.2538.9277.1459.9277.1459z" fill="url(#i)" fill-rule="evenodd"/><path clip-rule="evenodd" d="m93.537 20.421s-.3251-.1855-.5788-.1824c-.5186.0064-.6597.2347-.6597.2347s.0872-.5455.7501-.4361c.2161.0396.3989.1832.4884.3838z" fill="url(#j)" fill-rule="evenodd"/><path clip-rule="evenodd" d="m91.0504 24.5188c.0603-.3647.9991-1.0514 1.6651-1.0942.6661-.0412.8722-.0317 1.4273-.1649.5566-.1317 1.9886-.4885 2.3835-.6724.3964-.1824 2.0774.0904.8928.7517-.5122.287-1.8935.8135-2.8815 1.1085-.9863.2949-1.5842-.2823-1.9125.2029-.26.3854-.0523.9135 1.126 1.0229 1.5921.1475 3.1177-.7168 3.2858-.2569s-1.367 1.0308-2.3026 1.0498c-.9357.0175-2.8196-.6185-3.1019-.8151-.2839-.1951-.6597-.6549-.582-1.1323z" fill="#fdd20a" fill-rule="evenodd"/><path clip-rule="evenodd" d="m94.4916 27.7701c-.3362-.0746-1.865 1.0815-1.865 1.0815h.0016l-.0713.8881s1.7475.7152 2.0457.6042c.2981-.1142.2236-2.4977-.111-2.5738zm-4.9938.4472c.0365-.4837 2.2725.7104 2.2725.7104l.0016-.0016.111.9325s-1.8634 1.1164-2.125.9674c-.2601-.1491-.2982-2.1235-.2601-2.6087z" fill="#65bc46" fill-rule="evenodd"/><path clip-rule="evenodd" d="m91.2295 29.053c0 .7818-.1126 1.118.222 1.1925.3362.0746.969 0 1.1942-.149.222-.1491.0364-1.1545-.0381-1.3416-.0745-.1872-1.3797-.0381-1.3797.2981z" fill="#43a244" fill-rule="evenodd"/><path clip-rule="evenodd" d="m91.3722 28.8802c0 .7818-.1126 1.1164.222 1.1909.3347.0761.9674 0 1.1926-.1491.2236-.149.038-1.1544-.0365-1.3416-.0745-.1871-1.3797-.0364-1.3797.2982z" fill="#65bc46" fill-rule="evenodd"/><path clip-rule="evenodd" d="m91.5151 31.4937c4.4065 0 7.9787-3.5722 7.9787-7.9787s-3.5722-7.9787-7.9787-7.9787c-4.4066 0-7.9788 3.5722-7.9788 7.9787s3.5722 7.9787 7.9788 7.9787zm0 .7434c4.817 0 8.7219-3.905 8.7219-8.7221s-3.9049-8.7221-8.7219-8.7221c-4.8171 0-8.7221 3.905-8.7221 8.7221s3.905 8.7221 8.7221 8.7221z" fill="#fff" fill-rule="evenodd"/><path d="m111.938 15.6189h.867v15.6188h-.867z" fill="#666"/></g></svg>