<svg fill="none" height="548" viewBox="0 0 399 548" width="399" xmlns="http://www.w3.org/2000/svg" xmlns:xlink="http://www.w3.org/1999/xlink"><filter id="a" color-interpolation-filters="sRGB" filterUnits="userSpaceOnUse" height="276.472" width="283.638" x="57.7471" y="271.212"><feFlood flood-opacity="0" result="BackgroundImageFix"/><feColorMatrix in="SourceAlpha" type="matrix" values="0 0 0 0 0 0 0 0 0 0 0 0 0 0 0 0 0 0 127 0"/><feOffset/><feGaussianBlur stdDeviation="1.48692"/><feColorMatrix type="matrix" values="0 0 0 0 0 0 0 0 0 0 0 0 0 0 0 0 0 0 0.1 0"/><feBlend in2="BackgroundImageFix" mode="normal" result="effect1_dropShadow"/><feBlend in="SourceGraphic" in2="effect1_dropShadow" mode="normal" result="shape"/></filter><filter id="b" color-interpolation-filters="sRGB" filterUnits="userSpaceOnUse" height="21.4986" width="21.4986" x="302.58" y="424.675"><feFlood flood-opacity="0" result="BackgroundImageFix"/><feColorMatrix in="SourceAlpha" type="matrix" values="0 0 0 0 0 0 0 0 0 0 0 0 0 0 0 0 0 0 127 0"/><feOffset dy=".895774"/><feGaussianBlur stdDeviation=".895774"/><feColorMatrix type="matrix" values="0 0 0 0 0 0 0 0 0 0 0 0 0 0 0 0 0 0 0.236158 0"/><feBlend in2="BackgroundImageFix" mode="normal" result="effect1_dropShadow"/><feBlend in="SourceGraphic" in2="effect1_dropShadow" mode="normal" result="shape"/></filter><filter id="c" color-interpolation-filters="sRGB" filterUnits="userSpaceOnUse" height="233.942" width="366.773" x="16.1134" y="55.1131"><feFlood flood-opacity="0" result="BackgroundImageFix"/><feColorMatrix in="SourceAlpha" type="matrix" values="0 0 0 0 0 0 0 0 0 0 0 0 0 0 0 0 0 0 127 0"/><feOffset dy="9.91279"/><feGaussianBlur stdDeviation="11.3997"/><feColorMatrix type="matrix" values="0 0 0 0 0 0 0 0 0 0 0 0 0 0 0 0 0 0 0.1 0"/><feBlend in2="BackgroundImageFix" mode="normal" result="effect1_dropShadow"/><feBlend in="SourceGraphic" in2="effect1_dropShadow" mode="normal" result="shape"/></filter><filter id="d" color-interpolation-filters="sRGB" filterUnits="userSpaceOnUse" height="209.23" width="348.93" x="25.0349" y="53.1306"><feFlood flood-opacity="0" result="BackgroundImageFix"/><feColorMatrix in="SourceAlpha" type="matrix" values="0 0 0 0 0 0 0 0 0 0 0 0 0 0 0 0 0 0 127 0"/><feOffset/><feGaussianBlur stdDeviation="1.98256"/><feColorMatrix type="matrix" values="0 0 0 0 0 0 0 0 0 0 0 0 0 0 0 0 0 0 0.15 0"/><feBlend in2="BackgroundImageFix" mode="normal" result="effect1_dropShadow"/><feBlend in="SourceGraphic" in2="effect1_dropShadow" mode="normal" result="shape"/></filter><filter id="e" color-interpolation-filters="sRGB" filterUnits="userSpaceOnUse" height="42.075" width="266.712" x="66.6399" y="3.81644"><feFlood flood-opacity="0" result="BackgroundImageFix"/><feColorMatrix in="SourceAlpha" type="matrix" values="0 0 0 0 0 0 0 0 0 0 0 0 0 0 0 0 0 0 127 0"/><feOffset/><feGaussianBlur stdDeviation="1.98256"/><feColorMatrix type="matrix" values="0 0 0 0 0 0 0 0 0 0 0 0 0 0 0 0 0 0 0.1 0"/><feBlend in2="BackgroundImageFix" mode="normal" result="effect1_dropShadow"/><feBlend in="SourceGraphic" in2="effect1_dropShadow" mode="normal" result="shape"/></filter><radialGradient id="f" cx="0" cy="0" gradientTransform="matrix(0 -14.3194 14.3194 0 295.5 245.028)" gradientUnits="userSpaceOnUse" r="1"><stop offset="0" stop-color="#f6b151"/><stop offset="1" stop-color="#e09d40"/></radialGradient><linearGradient id="g"><stop offset=".01" stop-color="#6176b9"/><stop offset=".69" stop-color="#394a9f"/></linearGradient><linearGradient id="h" gradientUnits="userSpaceOnUse" x1="83.8289" x2="85.3693" xlink:href="#g" y1="22.0386" y2="22.0386"/><linearGradient id="i" gradientUnits="userSpaceOnUse" x1="88.6731" x2="90.0769" xlink:href="#g" y1="21.3375" y2="21.3375"/><clipPath id="j"><path d="m60.7209 457.82h277.69v39.414h-277.69z"/></clipPath><clipPath id="k"><path d="m75.0533 423.78h249.025v21.4986h-249.025z"/></clipPath><clipPath id="l"><path d="m60.7209 274.186h277.69v46.5802h-277.69z"/></clipPath><mask id="m" height="17" maskUnits="userSpaceOnUse" width="10" x="82" y="17"><path clip-rule="evenodd" d="m91.3261 33.0284c-1.1257.5223-2.3778.8138-3.6972.8138-1.8465 0-3.5626-.5723-4.9841-1.5518v-14.3782h8.6813z" fill="#fff" fill-rule="evenodd"/></mask><mask id="n" height="17" maskUnits="userSpaceOnUse" width="10" x="82" y="17"><path clip-rule="evenodd" d="m91.7084 32.8411c-1.2214.6398-2.6079 1.0017-4.078 1.0017-1.7027 0-3.2945-.4867-4.6466-1.3305v-14.6516h8.7246z" fill="#fff" fill-rule="evenodd"/></mask><mask id="o" height="20" maskUnits="userSpaceOnUse" width="20" x="78" y="15"><path clip-rule="evenodd" d="m87.7851 34.132c5.1622 0 9.347-4.1848 9.347-9.347s-4.1848-9.347-9.347-9.347-9.347 4.1848-9.347 9.347 4.1848 9.347 9.347 9.347z" fill="#fff" fill-rule="evenodd"/></mask><g filter="url(#a)"><rect fill="#fff" height="269.628" rx="4.47887" width="277.69" x="60.7209" y="274.186"/><path d="m82.0923 524.253v-7.073h2.5333v-1.291h-6.5338v1.291h2.5332v7.073z" fill="#333"/><path d="m87.2551 524.404c1.9313 0 3.1102-1.455 3.1102-3.186 0-1.743-1.1789-3.172-3.1102-3.172s-3.1101 1.429-3.1101 3.172c0 1.731 1.1788 3.186 3.1101 3.186zm0-1.167c-1.1161 0-1.7431-.94-1.7431-2.019 0-1.066.627-2.006 1.7431-2.006 1.1287 0 1.7432.94 1.7432 2.006 0 1.079-.6145 2.019-1.7432 2.019z" fill="#333"/><path d="m94.9705 524.404c1.5676 0 2.6837-1.192 2.6837-3.186s-1.1161-3.172-2.6837-3.172c-.7901 0-1.4924.376-1.9438.978v-.828h-1.3168v8.365h1.3168v-3.148c.5016.64 1.1788.991 1.9438.991zm-.3888-1.167c-.6145 0-1.2666-.376-1.555-.827v-2.396c.3009-.451.9405-.802 1.555-.802 1.0409 0 1.7181.828 1.7181 2.006 0 1.179-.6772 2.019-1.7181 2.019z" fill="#333"/><path d="m105.704 524.253v-7.073h2.534v-1.291h-6.534v1.291h2.533v7.073z" fill="#333"/><path d="m109.817 524.253v-4.126c.264-.439 1.003-.815 1.568-.815.163 0 .288.013.401.038v-1.304c-.777 0-1.505.451-1.969 1.028v-.878h-1.317v6.057z" fill="#333"/><path d="m117.877 524.253v-4.025c0-1.618-1.179-2.182-2.533-2.182-.966 0-1.844.301-2.546.978l.552.915c.514-.527 1.116-.777 1.793-.777.828 0 1.417.426 1.417 1.128v.903c-.451-.514-1.141-.777-1.969-.777-.991 0-2.094.577-2.094 1.981 0 1.33 1.116 2.007 2.094 2.007.803 0 1.518-.289 1.969-.815v.664zm-2.759-.752c-.74 0-1.304-.427-1.304-1.091 0-.652.564-1.091 1.304-1.091.564 0 1.129.213 1.442.627v.928c-.313.414-.878.627-1.442.627z" fill="#333"/><path d="m122.343 524.404c1.191 0 1.893-.514 2.32-1.079l-.865-.815c-.339.477-.803.727-1.392.727-1.092 0-1.831-.84-1.831-2.019 0-1.178.739-2.006 1.831-2.006.589 0 1.053.226 1.392.702l.865-.79c-.427-.577-1.129-1.078-2.32-1.078-1.831 0-3.123 1.341-3.123 3.172s1.292 3.186 3.123 3.186z" fill="#333"/><path d="m131.498 524.253-2.558-3.311 2.508-2.746h-1.63l-2.671 2.922v-5.229h-1.317v8.364h1.317v-1.63l.852-.878 1.844 2.508z" fill="#333"/><path d="m133.108 517.456c.451 0 .815-.364.815-.815 0-.452-.364-.815-.815-.815-.452 0-.815.363-.815.815 0 .451.363.815.815.815zm.652 6.797v-6.057h-1.317v6.057z" fill="#333"/><path d="m140.886 524.253v-4.264c0-1.241-.652-1.943-1.957-1.943-.953 0-1.743.489-2.144.965v-.815h-1.317v6.057h1.317v-4.239c.313-.401.89-.802 1.555-.802.74 0 1.229.301 1.229 1.254v3.787z" fill="#333"/><path d="m145.066 526.711c1.48 0 3.11-.589 3.11-2.771v-5.744h-1.316v.84c-.489-.652-1.179-.99-1.944-.99-1.568 0-2.684 1.141-2.684 3.11 0 1.994 1.141 3.11 2.684 3.11.79 0 1.48-.402 1.944-1.016v.69c0 1.291-.928 1.693-1.794 1.693-.802 0-1.429-.213-1.931-.778l-.614.953c.752.678 1.517.903 2.545.903zm.239-3.624c-1.054 0-1.719-.765-1.719-1.931 0-1.167.665-1.944 1.719-1.944.614 0 1.254.364 1.555.802v2.27c-.301.439-.941.803-1.555.803z" fill="#333"/><path d="m157.066 524.404c2.496 0 4.277-1.831 4.277-4.327 0-2.495-1.781-4.326-4.277-4.326-2.508 0-4.276 1.831-4.276 4.326 0 2.496 1.768 4.327 4.276 4.327zm0-1.305c-1.693 0-2.771-1.304-2.771-3.022 0-1.73 1.078-3.022 2.771-3.022 1.681 0 2.772 1.292 2.772 3.022 0 1.718-1.091 3.022-2.772 3.022z" fill="#333"/><path d="m164.348 524.253v-4.916h1.229v-1.141h-1.229v-.339c0-.677.314-1.015.84-1.015.289 0 .514.1.69.263l.514-.815c-.363-.389-.903-.527-1.455-.527-1.141 0-1.906.778-1.906 2.094v.339h-1.003v1.141h1.003v4.916zm3.875 0v-4.916h1.229v-1.141h-1.229v-.339c0-.677.314-1.015.84-1.015.289 0 .515.1.69.263l.514-.815c-.363-.389-.903-.527-1.454-.527-1.142 0-1.907.778-1.907 2.094v.339h-1.003v1.141h1.003v4.916z" fill="#333"/><path d="m173.254 524.404c.953 0 1.844-.314 2.458-.891l-.602-.865c-.439.439-1.128.677-1.73.677-1.141 0-1.819-.765-1.919-1.668h4.665v-.326c0-1.906-1.154-3.285-2.972-3.285-1.793 0-3.072 1.417-3.072 3.172 0 1.919 1.341 3.186 3.172 3.186zm1.606-3.687h-3.412c.051-.728.577-1.593 1.694-1.593 1.191 0 1.68.878 1.718 1.593z" fill="#333"/><path d="m182.844 524.253v-4.264c0-1.241-.653-1.943-1.957-1.943-.953 0-1.743.489-2.144.965v-.815h-1.317v6.057h1.317v-4.239c.313-.401.89-.802 1.555-.802.74 0 1.229.301 1.229 1.254v3.787z" fill="#333"/><path d="m190.134 524.253v-8.364h-1.316v3.147c-.477-.652-1.179-.99-1.944-.99-1.555 0-2.684 1.216-2.684 3.172 0 2.007 1.141 3.186 2.684 3.186.79 0 1.48-.376 1.944-.978v.827zm-2.872-1.016c-1.053 0-1.718-.84-1.718-2.019 0-1.166.665-2.006 1.718-2.006.615 0 1.267.364 1.556.815v2.395c-.289.452-.941.815-1.556.815z" fill="#333"/><path d="m194.65 524.404c.953 0 1.843-.314 2.458-.891l-.602-.865c-.439.439-1.129.677-1.731.677-1.141 0-1.818-.765-1.919-1.668h4.666v-.326c0-1.906-1.154-3.285-2.973-3.285-1.793 0-3.072 1.417-3.072 3.172 0 1.919 1.342 3.186 3.173 3.186zm1.605-3.687h-3.411c.05-.728.577-1.593 1.693-1.593 1.191 0 1.68.878 1.718 1.593z" fill="#333"/><path d="m200.138 524.253v-4.126c.263-.439 1.003-.815 1.568-.815.163 0 .288.013.401.038v-1.304c-.778 0-1.505.451-1.969 1.028v-.878h-1.317v6.057z" fill="#333"/><path d="m205.251 524.404c1.63 0 2.52-.815 2.52-1.894 0-2.408-3.661-1.605-3.661-2.671 0-.427.426-.753 1.116-.753.765 0 1.429.326 1.793.728l.552-.928c-.539-.477-1.317-.84-2.345-.84-1.53 0-2.383.84-2.383 1.83 0 2.333 3.662 1.48 3.662 2.672 0 .476-.414.802-1.204.802-.778 0-1.618-.401-2.044-.84l-.602.941c.627.614 1.555.953 2.596.953z" fill="#333"/><path clip-rule="evenodd" d="m317.165 515.4c-.337.334-.337.881 0 1.215l3.932 3.909-3.932 3.908c-.337.334-.337.881 0 1.216.336.334.886.334 1.222 0l4.544-4.517c.336-.334.336-.881 0-1.215l-4.544-4.516c-.336-.335-.886-.335-1.222 0z" fill="#aaa" fill-rule="evenodd"/><g clip-path="url(#j)"><g fill="#333"><path d="m224.346 481.152-1.91-3.051c.943-.151 1.851-.908 1.851-2.282 0-1.444-1.013-2.434-2.55-2.434h-3.412v7.767h1.363v-2.899h1.362l1.712 2.899zm-2.783-4.099h-1.875v-2.468h1.875c.768 0 1.327.477 1.327 1.222 0 .757-.559 1.246-1.327 1.246z"/><path d="m228.049 481.292c.885 0 1.712-.291 2.282-.827l-.559-.803c-.407.407-1.048.629-1.607.629-1.059 0-1.688-.711-1.781-1.549h4.332v-.303c0-1.77-1.072-3.051-2.76-3.051-1.665 0-2.853 1.316-2.853 2.946 0 1.782 1.246 2.958 2.946 2.958zm1.491-3.424h-3.168c.047-.675.536-1.478 1.572-1.478 1.106 0 1.561.815 1.596 1.478z"/><path d="m235.13 481.292c1.455 0 2.492-1.106 2.492-2.958 0-1.851-1.037-2.946-2.492-2.946-.734 0-1.386.349-1.805.908v-.768h-1.223v7.767h1.223v-2.923c.465.594 1.094.92 1.805.92zm-.361-1.083c-.571 0-1.177-.349-1.444-.768v-2.225c.279-.419.873-.745 1.444-.745.966 0 1.595.769 1.595 1.863 0 1.095-.629 1.875-1.595 1.875z"/><path d="m241.575 481.292c1.793 0 2.888-1.351 2.888-2.958 0-1.618-1.095-2.946-2.888-2.946s-2.888 1.328-2.888 2.946c0 1.607 1.095 2.958 2.888 2.958zm0-1.083c-1.037 0-1.619-.873-1.619-1.875 0-.99.582-1.863 1.619-1.863 1.048 0 1.619.873 1.619 1.863 0 1.002-.571 1.875-1.619 1.875z"/><path d="m247.113 481.152v-3.831c.245-.407.932-.757 1.456-.757.151 0 .268.012.373.035v-1.211c-.722 0-1.398.419-1.829.955v-.815h-1.222v5.624z"/><path d="m251.807 481.292c.559 0 .92-.163 1.141-.361l-.291-.932c-.093.105-.303.21-.536.21-.349 0-.535-.291-.535-.675v-2.947h1.141v-1.059h-1.141v-1.537h-1.223v1.537h-.932v1.059h.932v3.249c0 .944.489 1.456 1.444 1.456z"/><path d="m261.145 481.152c1.468 0 2.26-.896 2.26-2.107 0-.944-.664-1.77-1.503-1.899.722-.151 1.351-.815 1.351-1.781 0-1.095-.78-1.98-2.212-1.98h-3.82v7.767zm-.372-4.565h-2.19v-2.002h2.19c.687 0 1.083.43 1.083 1.001 0 .594-.396 1.001-1.083 1.001zm.058 3.366h-2.248v-2.166h2.248c.769 0 1.176.501 1.176 1.083 0 .675-.442 1.083-1.176 1.083z"/><path d="m266.15 481.152v-3.831c.245-.407.932-.757 1.456-.757.151 0 .268.012.373.035v-1.211c-.722 0-1.398.419-1.829.955v-.815h-1.222v5.624z"/><path d="m271.694 481.292c1.794 0 2.888-1.351 2.888-2.958 0-1.618-1.094-2.946-2.888-2.946-1.793 0-2.888 1.328-2.888 2.946 0 1.607 1.095 2.958 2.888 2.958zm0-1.083c-1.036 0-1.618-.873-1.618-1.875 0-.99.582-1.863 1.618-1.863 1.048 0 1.619.873 1.619 1.863 0 1.002-.571 1.875-1.619 1.875z"/><path d="m281.274 481.152-2.376-3.074 2.329-2.55h-1.514l-2.48 2.713v-4.856h-1.223v7.767h1.223v-1.514l.792-.815 1.711 2.329z"/><path d="m284.882 481.292c.885 0 1.711-.291 2.282-.827l-.559-.803c-.407.407-1.048.629-1.607.629-1.06 0-1.688-.711-1.782-1.549h4.332v-.303c0-1.77-1.071-3.051-2.759-3.051-1.666 0-2.854 1.316-2.854 2.946 0 1.782 1.246 2.958 2.947 2.958zm1.49-3.424h-3.167c.046-.675.535-1.478 1.572-1.478 1.106 0 1.56.815 1.595 1.478z"/><path d="m293.965 481.152v-3.959c0-1.153-.605-1.805-1.817-1.805-.885 0-1.618.454-1.991.897v-.757h-1.223v5.624h1.223v-3.936c.291-.372.827-.745 1.444-.745.687 0 1.141.28 1.141 1.165v3.516z"/><path d="m301.615 481.292c2.085 0 3.005-1.118 3.005-2.41 0-2.888-4.519-1.992-4.519-3.447 0-.571.513-.967 1.305-.967.815 0 1.642.28 2.259.897l.768-1.013c-.71-.699-1.7-1.095-2.899-1.095-1.712 0-2.83.99-2.83 2.282 0 2.853 4.518 1.84 4.518 3.471 0 .524-.431 1.071-1.549 1.071-1.083 0-1.933-.512-2.457-1.083l-.768 1.06c.698.722 1.735 1.234 3.167 1.234z"/><path d="m306.624 474.841c.419 0 .757-.338.757-.757s-.338-.757-.757-.757-.757.338-.757.757.338.757.757.757zm.606 6.311v-5.624h-1.223v5.624z"/><path d="m310.695 481.292c.559 0 .92-.163 1.141-.361l-.291-.932c-.093.105-.302.21-.535.21-.35 0-.536-.291-.536-.675v-2.947h1.141v-1.059h-1.141v-1.537h-1.223v1.537h-.931v1.059h.931v3.249c0 .944.489 1.456 1.444 1.456z"/><path d="m315.501 481.292c.885 0 1.712-.291 2.283-.827l-.559-.803c-.408.407-1.048.629-1.607.629-1.06 0-1.689-.711-1.782-1.549h4.332v-.303c0-1.77-1.071-3.051-2.76-3.051-1.665 0-2.853 1.316-2.853 2.946 0 1.782 1.246 2.958 2.946 2.958zm1.491-3.424h-3.167c.046-.675.535-1.478 1.572-1.478 1.106 0 1.56.815 1.595 1.478z"/></g><path d="m197.774 457.82h.896v39.414h-.896z" fill="#000" fill-opacity=".05"/><path d="m84.0231 481.292c2.2592 0 3.3655-1.293 3.3655-3.214v-4.693h-1.3858v4.658c0 1.234-.6871 2.038-1.9797 2.038s-1.9796-.804-1.9796-2.038v-4.658h-1.3858v4.693c0 1.921 1.1179 3.214 3.3654 3.214z" fill="#333"/><path d="m94.2139 481.152v-3.959c0-1.153-.6056-1.805-1.8167-1.805-.885 0-1.6186.454-1.9913.897v-.757h-1.2227v5.624h1.2227v-3.936c.2912-.372.8268-.745 1.444-.745.6871 0 1.1412.28 1.1412 1.165v3.516z" fill="#333"/><path d="m99.0086 481.292c1.4554 0 2.4924-1.106 2.4924-2.958 0-1.851-1.037-2.946-2.4924-2.946-.7336 0-1.3857.349-1.8049.908v-.768h-1.2228v7.767h1.2228v-2.923c.4658.594 1.0946.92 1.8049.92zm-.361-1.083c-.5706 0-1.1761-.349-1.4439-.768v-2.225c.2794-.419.8733-.745 1.4439-.745.9666 0 1.5954.769 1.5954 1.863 0 1.095-.6288 1.875-1.5954 1.875z" fill="#333"/><path d="m104.126 481.152v-3.831c.245-.407.932-.757 1.456-.757.152 0 .268.012.373.035v-1.211c-.722 0-1.398.419-1.829.955v-.815h-1.222v5.624z" fill="#333"/><path d="m109.67 481.292c1.794 0 2.888-1.351 2.888-2.958 0-1.618-1.094-2.946-2.888-2.946-1.793 0-2.888 1.328-2.888 2.946 0 1.607 1.095 2.958 2.888 2.958zm0-1.083c-1.036 0-1.618-.873-1.618-1.875 0-.99.582-1.863 1.618-1.863 1.048 0 1.619.873 1.619 1.863 0 1.002-.571 1.875-1.619 1.875z" fill="#333"/><path d="m115.686 481.292c.559 0 .92-.163 1.141-.361l-.291-.932c-.093.105-.303.21-.535.21-.35 0-.536-.291-.536-.675v-2.947h1.141v-1.059h-1.141v-1.537h-1.223v1.537h-.931v1.059h.931v3.249c0 .944.489 1.456 1.444 1.456z" fill="#333"/><path d="m120.492 481.292c.885 0 1.712-.291 2.283-.827l-.559-.803c-.408.407-1.048.629-1.607.629-1.06 0-1.689-.711-1.782-1.549h4.332v-.303c0-1.77-1.071-3.051-2.76-3.051-1.665 0-2.853 1.316-2.853 2.946 0 1.782 1.246 2.958 2.946 2.958zm1.491-3.424h-3.168c.047-.675.536-1.478 1.573-1.478 1.106 0 1.56.815 1.595 1.478z" fill="#333"/><path d="m127.107 481.292c1.106 0 1.758-.477 2.154-1.001l-.803-.757c-.315.442-.745.675-1.293.675-1.013 0-1.7-.78-1.7-1.875 0-1.094.687-1.863 1.7-1.863.548 0 .978.21 1.293.652l.803-.733c-.396-.536-1.048-1.002-2.154-1.002-1.7 0-2.9 1.246-2.9 2.946s1.2 2.958 2.9 2.958z" fill="#333"/><path d="m132.224 481.292c.559 0 .92-.163 1.141-.361l-.291-.932c-.093.105-.302.21-.535.21-.35 0-.536-.291-.536-.675v-2.947h1.141v-1.059h-1.141v-1.537h-1.223v1.537h-.931v1.059h.931v3.249c0 .944.489 1.456 1.444 1.456z" fill="#333"/><path d="m137.03 481.292c.885 0 1.712-.291 2.283-.827l-.559-.803c-.408.407-1.048.629-1.607.629-1.06 0-1.689-.711-1.782-1.549h4.332v-.303c0-1.77-1.071-3.051-2.76-3.051-1.665 0-2.853 1.316-2.853 2.946 0 1.782 1.246 2.958 2.946 2.958zm1.491-3.424h-3.168c.047-.675.536-1.478 1.573-1.478 1.106 0 1.56.815 1.595 1.478z" fill="#333"/><path d="m146.265 481.152v-7.767h-1.223v2.923c-.442-.606-1.094-.92-1.805-.92-1.444 0-2.492 1.13-2.492 2.946 0 1.863 1.06 2.958 2.492 2.958.734 0 1.375-.349 1.805-.908v.768zm-2.667-.943c-.978 0-1.595-.78-1.595-1.875 0-1.083.617-1.863 1.595-1.863.571 0 1.177.338 1.444.757v2.224c-.267.419-.873.757-1.444.757z" fill="#333"/><path d="m153.912 481.292c2.084 0 3.004-1.118 3.004-2.41 0-2.888-4.518-1.992-4.518-3.447 0-.571.512-.967 1.304-.967.815 0 1.642.28 2.259.897l.769-1.013c-.71-.699-1.7-1.095-2.9-1.095-1.712 0-2.83.99-2.83 2.282 0 2.853 4.519 1.84 4.519 3.471 0 .524-.431 1.071-1.549 1.071-1.083 0-1.933-.512-2.457-1.083l-.769 1.06c.699.722 1.735 1.234 3.168 1.234z" fill="#333"/><path d="m158.921 474.841c.419 0 .757-.338.757-.757s-.338-.757-.757-.757c-.42 0-.757.338-.757.757s.337.757.757.757zm.605 6.311v-5.624h-1.222v5.624z" fill="#333"/><path d="m162.992 481.292c.559 0 .92-.163 1.141-.361l-.291-.932c-.093.105-.303.21-.536.21-.349 0-.535-.291-.535-.675v-2.947h1.141v-1.059h-1.141v-1.537h-1.223v1.537h-.932v1.059h.932v3.249c0 .944.489 1.456 1.444 1.456z" fill="#333"/><path d="m167.798 481.292c.885 0 1.712-.291 2.282-.827l-.559-.803c-.407.407-1.048.629-1.607.629-1.059 0-1.688-.711-1.781-1.549h4.332v-.303c0-1.77-1.072-3.051-2.76-3.051-1.665 0-2.853 1.316-2.853 2.946 0 1.782 1.246 2.958 2.946 2.958zm1.49-3.424h-3.167c.047-.675.536-1.478 1.572-1.478 1.106 0 1.561.815 1.595 1.478z" fill="#333"/><path d="m173.784 481.292c1.514 0 2.34-.757 2.34-1.758 0-2.236-3.4-1.491-3.4-2.481 0-.396.396-.698 1.036-.698.711 0 1.328.302 1.666.675l.512-.862c-.501-.442-1.223-.78-2.178-.78-1.42 0-2.212.78-2.212 1.7 0 2.166 3.4 1.374 3.4 2.481 0 .442-.384.745-1.118.745-.722 0-1.502-.373-1.898-.78l-.559.873c.582.571 1.444.885 2.411.885z" fill="#333"/></g><path d="m60.7209 497.234h277.6901v.895h-277.6901z" fill="#000" fill-opacity=".05"/><path d="m0 0h277.69v44.7887h-277.69z" fill="#eee" fill-opacity=".5" transform="translate(60.7209 412.135)"/><g clip-path="url(#k)"><g fill="#333"><path d="m81.5029 438.409c2.2448 0 3.2355-1.203 3.2355-2.595 0-3.111-4.8658-2.145-4.8658-3.713 0-.614.5518-1.04 1.4046-1.04.8778 0 1.7682.301 2.4329.965l.8277-1.091c-.765-.752-1.831-1.179-3.1227-1.179-1.8435 0-3.0474 1.066-3.0474 2.458 0 3.073 4.8658 1.982 4.8658 3.737 0 .565-.464 1.154-1.6679 1.154-1.1663 0-2.0818-.552-2.6461-1.166l-.8277 1.141c.7524.778 1.8686 1.329 3.4111 1.329z"/><path d="m86.7042 431.462c.4515 0 .8152-.364.8152-.815 0-.452-.3637-.815-.8152-.815s-.8151.363-.8151.815c0 .451.3636.815.8151.815zm.6521 6.797v-6.057h-1.3168v6.057z"/><path d="m90.8955 438.409c.602 0 .9907-.175 1.229-.388l-.3135-1.004c-.1003.113-.3261.226-.5769.226-.3762 0-.5769-.313-.5769-.727v-3.173h1.229v-1.141h-1.229v-1.656h-1.3168v1.656h-1.0032v1.141h1.0032v3.499c0 1.016.5267 1.567 1.5551 1.567z"/><path d="m95.8784 438.409c.9531 0 1.8435-.313 2.458-.89l-.6019-.865c-.439.439-1.1287.677-1.7307.677-1.1412 0-1.8184-.765-1.9187-1.668h4.6652v-.326c0-1.906-1.1538-3.286-2.9722-3.286-1.7933 0-3.0725 1.417-3.0725 3.173 0 1.919 1.3419 3.185 3.1728 3.185zm1.6052-3.687h-3.4111c.0502-.727.5769-1.592 1.6931-1.592 1.1913 0 1.6804.878 1.718 1.592z"/><path d="m104.788 438.259v-3.135h2.22c1.743 0 2.721-1.192 2.721-2.609 0-1.429-.965-2.621-2.721-2.621h-3.687v8.365zm2.019-4.427h-2.019v-2.646h2.019c.828 0 1.417.527 1.417 1.329 0 .79-.589 1.317-1.417 1.317z"/><path d="m112.242 438.259v-4.126c.263-.439 1.003-.815 1.568-.815.163 0 .288.012.401.038v-1.305c-.778 0-1.505.452-1.969 1.029v-.878h-1.317v6.057z"/><path d="m115.938 431.462c.451 0 .815-.364.815-.815 0-.452-.364-.815-.815-.815-.452 0-.816.363-.816.815 0 .451.364.815.816.815zm.652 6.797v-6.057h-1.317v6.057z"/><path d="m121.308 438.259 2.47-6.057h-1.404l-1.769 4.54-1.768-4.54h-1.417l2.471 6.057z"/><path d="m129.634 438.259v-4.026c0-1.617-1.179-2.182-2.533-2.182-.966 0-1.844.301-2.546.978l.552.916c.514-.527 1.116-.778 1.793-.778.828 0 1.417.427 1.417 1.129v.903c-.451-.514-1.141-.778-1.969-.778-.99 0-2.094.577-2.094 1.982 0 1.329 1.116 2.006 2.094 2.006.803 0 1.518-.288 1.969-.815v.665zm-2.759-.752c-.74 0-1.304-.427-1.304-1.092 0-.652.564-1.091 1.304-1.091.564 0 1.129.214 1.442.627v.928c-.313.414-.878.628-1.442.628z"/><path d="m134.1 438.409c1.191 0 1.894-.514 2.32-1.078l-.865-.815c-.339.476-.803.727-1.392.727-1.092 0-1.831-.84-1.831-2.019s.739-2.006 1.831-2.006c.589 0 1.053.225 1.392.702l.865-.79c-.426-.577-1.129-1.079-2.32-1.079-1.831 0-3.123 1.342-3.123 3.173s1.292 3.185 3.123 3.185z"/><path d="m137.336 440.629c.176.05.552.088.74.088.94-.013 1.655-.339 2.069-1.367l2.922-7.148h-1.404l-1.769 4.54-1.768-4.54h-1.417l2.496 6.132-.301.69c-.176.401-.452.527-.878.527-.151 0-.364-.038-.502-.101z"/><path d="m148.632 438.259v-3.135h2.22c1.743 0 2.721-1.192 2.721-2.609 0-1.429-.966-2.621-2.721-2.621h-3.687v8.365zm2.019-4.427h-2.019v-2.646h2.019c.828 0 1.417.527 1.417 1.329 0 .79-.589 1.317-1.417 1.317z"/><path d="m156.086 438.259v-4.126c.263-.439 1.003-.815 1.568-.815.163 0 .288.012.401.038v-1.305c-.778 0-1.505.452-1.969 1.029v-.878h-1.317v6.057z"/><path d="m161.863 438.409c1.932 0 3.11-1.454 3.11-3.185 0-1.743-1.178-3.173-3.11-3.173-1.931 0-3.11 1.43-3.11 3.173 0 1.731 1.179 3.185 3.11 3.185zm0-1.166c-1.116 0-1.743-.94-1.743-2.019 0-1.066.627-2.006 1.743-2.006 1.129 0 1.743.94 1.743 2.006 0 1.079-.614 2.019-1.743 2.019z"/><path d="m168.149 438.409c.602 0 .991-.175 1.229-.388l-.314-1.004c-.1.113-.326.226-.576.226-.377 0-.577-.313-.577-.727v-3.173h1.229v-1.141h-1.229v-1.656h-1.317v1.656h-1.003v1.141h1.003v3.499c0 1.016.527 1.567 1.555 1.567z"/><path d="m173.132 438.409c.953 0 1.843-.313 2.458-.89l-.602-.865c-.439.439-1.129.677-1.731.677-1.141 0-1.818-.765-1.918-1.668h4.665v-.326c0-1.906-1.154-3.286-2.972-3.286-1.794 0-3.073 1.417-3.073 3.173 0 1.919 1.342 3.185 3.173 3.185zm1.605-3.687h-3.411c.05-.727.577-1.592 1.693-1.592 1.191 0 1.681.878 1.718 1.592z"/><path d="m180.062 438.409c1.192 0 1.894-.514 2.321-1.078l-.866-.815c-.338.476-.802.727-1.392.727-1.091 0-1.831-.84-1.831-2.019s.74-2.006 1.831-2.006c.59 0 1.054.225 1.392.702l.866-.79c-.427-.577-1.129-1.079-2.321-1.079-1.83 0-3.122 1.342-3.122 3.173s1.292 3.185 3.122 3.185z"/><path d="m185.38 438.409c.602 0 .991-.175 1.229-.388l-.313-1.004c-.1.113-.326.226-.577.226-.376 0-.577-.313-.577-.727v-3.173h1.229v-1.141h-1.229v-1.656h-1.317v1.656h-1.003v1.141h1.003v3.499c0 1.016.527 1.567 1.555 1.567z"/><path d="m188.219 431.462c.451 0 .815-.364.815-.815 0-.452-.364-.815-.815-.815-.452 0-.815.363-.815.815 0 .451.363.815.815.815zm.652 6.797v-6.057h-1.317v6.057z"/><path d="m193.326 438.409c1.931 0 3.11-1.454 3.11-3.185 0-1.743-1.179-3.173-3.11-3.173-1.932 0-3.111 1.43-3.111 3.173 0 1.731 1.179 3.185 3.111 3.185zm0-1.166c-1.117 0-1.744-.94-1.744-2.019 0-1.066.627-2.006 1.744-2.006 1.128 0 1.743.94 1.743 2.006 0 1.079-.615 2.019-1.743 2.019z"/><path d="m203.198 438.259v-4.264c0-1.241-.652-1.944-1.956-1.944-.954 0-1.744.489-2.145.966v-.815h-1.317v6.057h1.317v-4.239c.314-.401.891-.802 1.555-.802.74 0 1.229.301 1.229 1.254v3.787z"/></g><path d="m286.456 434.53c0-5.937 4.813-10.75 10.749-10.75h16.124c5.937 0 10.749 4.813 10.749 10.75 0 5.936-4.812 10.749-10.749 10.749h-16.124c-5.936 0-10.749-4.813-10.749-10.749z" fill="#50a951"/><g filter="url(#b)"><path clip-rule="evenodd" d="m313.329 443.487c4.947 0 8.958-4.011 8.958-8.958s-4.011-8.958-8.958-8.958-8.958 4.011-8.958 8.958 4.011 8.958 8.958 8.958z" fill="#fff" fill-rule="evenodd"/></g></g><path d="m60.7209 456.924h277.6901v.896h-277.6901z" fill="#000" fill-opacity=".05"/><path d="m60.7209 411.239h277.6901v.896h-277.6901z" fill="#000" fill-opacity=".05"/><g fill="#333"><path d="m110.555 393v-3.135h2.219c1.744 0 2.722-1.192 2.722-2.609 0-1.429-.966-2.621-2.722-2.621h-3.687v8.365zm2.019-4.427h-2.019v-2.646h2.019c.827 0 1.417.527 1.417 1.329 0 .79-.59 1.317-1.417 1.317z"/><path d="m119.255 393.151c1.931 0 3.11-1.455 3.11-3.186 0-1.743-1.179-3.173-3.11-3.173-1.932 0-3.111 1.43-3.111 3.173 0 1.731 1.179 3.186 3.111 3.186zm0-1.167c-1.117 0-1.744-.94-1.744-2.019 0-1.066.627-2.006 1.744-2.006 1.128 0 1.743.94 1.743 2.006 0 1.079-.615 2.019-1.743 2.019z"/><path d="m126.456 393.151c1.931 0 3.11-1.455 3.11-3.186 0-1.743-1.179-3.173-3.11-3.173-1.932 0-3.11 1.43-3.11 3.173 0 1.731 1.178 3.186 3.11 3.186zm0-1.167c-1.116 0-1.743-.94-1.743-2.019 0-1.066.627-2.006 1.743-2.006 1.128 0 1.743.94 1.743 2.006 0 1.079-.615 2.019-1.743 2.019z"/><path d="m132.227 393v-4.126c.264-.439 1.004-.815 1.568-.815.163 0 .288.012.401.038v-1.305c-.777 0-1.505.452-1.969 1.029v-.878h-1.316v6.057z"/><path d="m139.996 393v-3.135h2.22c1.743 0 2.721-1.192 2.721-2.609 0-1.429-.965-2.621-2.721-2.621h-3.687v8.365zm2.019-4.427h-2.019v-2.646h2.019c.828 0 1.417.527 1.417 1.329 0 .79-.589 1.317-1.417 1.317z"/><path d="m147.45 393v-4.126c.264-.439 1.003-.815 1.568-.815.163 0 .288.012.401.038v-1.305c-.777 0-1.505.452-1.969 1.029v-.878h-1.317v6.057z"/><path d="m151.146 386.203c.451 0 .815-.364.815-.815 0-.452-.364-.815-.815-.815-.452 0-.815.363-.815.815 0 .451.363.815.815.815zm.652 6.797v-6.057h-1.317v6.057z"/><path d="m156.516 393 2.47-6.057h-1.404l-1.768 4.54-1.769-4.54h-1.417l2.471 6.057z"/><path d="m164.842 393v-4.026c0-1.617-1.179-2.182-2.533-2.182-.966 0-1.844.301-2.546.979l.552.915c.514-.527 1.116-.778 1.793-.778.828 0 1.417.427 1.417 1.129v.903c-.451-.514-1.141-.777-1.969-.777-.99 0-2.094.576-2.094 1.981 0 1.329 1.116 2.007 2.094 2.007.803 0 1.518-.289 1.969-.816v.665zm-2.759-.752c-.74 0-1.304-.427-1.304-1.091 0-.653.564-1.092 1.304-1.092.564 0 1.129.214 1.442.628v.928c-.313.413-.878.627-1.442.627z"/><path d="m169.308 393.151c1.191 0 1.894-.515 2.32-1.079l-.865-.815c-.339.476-.803.727-1.392.727-1.091 0-1.831-.84-1.831-2.019s.74-2.006 1.831-2.006c.589 0 1.053.225 1.392.702l.865-.79c-.426-.577-1.129-1.079-2.32-1.079-1.831 0-3.123 1.342-3.123 3.173s1.292 3.186 3.123 3.186z"/><path d="m172.544 395.37c.176.05.552.088.74.088.941-.012 1.655-.339 2.069-1.367l2.922-7.148h-1.404l-1.769 4.54-1.768-4.54h-1.417l2.496 6.132-.301.69c-.176.401-.452.527-.878.527-.151 0-.364-.038-.502-.101z"/><path d="m183.84 393v-3.135h2.22c1.743 0 2.721-1.192 2.721-2.609 0-1.429-.965-2.621-2.721-2.621h-3.687v8.365zm2.019-4.427h-2.019v-2.646h2.019c.828 0 1.417.527 1.417 1.329 0 .79-.589 1.317-1.417 1.317z"/><path d="m191.294 393v-4.126c.263-.439 1.003-.815 1.568-.815.163 0 .288.012.401.038v-1.305c-.777 0-1.505.452-1.969 1.029v-.878h-1.317v6.057z"/><path d="m199.354 393v-4.026c0-1.617-1.179-2.182-2.533-2.182-.966 0-1.844.301-2.546.979l.552.915c.514-.527 1.116-.778 1.793-.778.828 0 1.417.427 1.417 1.129v.903c-.451-.514-1.141-.777-1.969-.777-.991 0-2.094.576-2.094 1.981 0 1.329 1.116 2.007 2.094 2.007.803 0 1.518-.289 1.969-.816v.665zm-2.759-.752c-.74 0-1.304-.427-1.304-1.091 0-.653.564-1.092 1.304-1.092.564 0 1.129.214 1.442.628v.928c-.313.413-.878.627-1.442.627z"/><path d="m203.82 393.151c1.191 0 1.893-.515 2.32-1.079l-.865-.815c-.339.476-.803.727-1.393.727-1.091 0-1.83-.84-1.83-2.019s.739-2.006 1.83-2.006c.59 0 1.054.225 1.393.702l.865-.79c-.427-.577-1.129-1.079-2.32-1.079-1.831 0-3.123 1.342-3.123 3.173s1.292 3.186 3.123 3.186z"/><path d="m209.138 393.151c.602 0 .99-.176 1.229-.389l-.314-1.004c-.1.113-.326.226-.577.226-.376 0-.577-.313-.577-.727v-3.173h1.229v-1.141h-1.229v-1.656h-1.316v1.656h-1.004v1.141h1.004v3.499c0 1.016.526 1.568 1.555 1.568z"/><path d="m211.976 386.203c.452 0 .815-.364.815-.815 0-.452-.363-.815-.815-.815-.451 0-.815.363-.815.815 0 .451.364.815.815.815zm.652 6.797v-6.057h-1.317v6.057z"/><path d="m217.095 393.151c1.192 0 1.894-.515 2.32-1.079l-.865-.815c-.338.476-.802.727-1.392.727-1.091 0-1.831-.84-1.831-2.019s.74-2.006 1.831-2.006c.59 0 1.054.225 1.392.702l.865-.79c-.426-.577-1.128-1.079-2.32-1.079-1.831 0-3.122 1.342-3.122 3.173s1.291 3.186 3.122 3.186z"/><path d="m223.392 393.151c.953 0 1.843-.314 2.458-.891l-.602-.865c-.439.439-1.129.677-1.731.677-1.141 0-1.819-.765-1.919-1.668h4.665v-.326c0-1.906-1.153-3.286-2.972-3.286-1.793 0-3.072 1.417-3.072 3.173 0 1.919 1.342 3.186 3.173 3.186zm1.605-3.687h-3.411c.05-.728.577-1.593 1.693-1.593 1.191 0 1.68.878 1.718 1.593z"/><path d="m229.645 393.151c1.63 0 2.521-.816 2.521-1.894 0-2.408-3.662-1.605-3.662-2.671 0-.427.426-.753 1.116-.753.765 0 1.429.326 1.793.728l.552-.928c-.539-.477-1.317-.841-2.345-.841-1.53 0-2.383.841-2.383 1.831 0 2.333 3.662 1.48 3.662 2.671 0 .477-.414.803-1.204.803-.777 0-1.618-.401-2.044-.84l-.602.94c.627.615 1.555.954 2.596.954z"/></g><path d="m60.7209 365.555h277.6901v.896h-277.6901z" fill="#000" fill-opacity=".05"/><path clip-rule="evenodd" d="m317.165 383.721c-.337.334-.337.881 0 1.215l3.932 3.909-3.932 3.909c-.337.334-.337.881 0 1.215.336.334.886.334 1.222 0l4.544-4.516c.336-.334.336-.881 0-1.216l-4.544-4.516c-.336-.334-.886-.334-1.222 0z" fill="#aaa" fill-rule="evenodd"/><path d="m85.8048 396.128c3.9588 0 7.168-3.209 7.168-7.168s-3.2092-7.168-7.168-7.168c-3.9587 0-7.168 3.209-7.168 7.168s3.2093 7.168 7.168 7.168z" style="fill-rule:evenodd;clip-rule:evenodd;stroke:#de5833;stroke-width:1.71552;stroke-linecap:round;stroke-linejoin:round"/><path d="m88.3136 386.451-5.0176 5.018" stroke="#de5833" stroke-linecap="round" stroke-width="1.71552"/><path d="m88.3136 391.469-5.0176-5.018" stroke="#de5833" stroke-linecap="round" stroke-width="1.71552"/><path d="m114.881 347v-1.292h-3.699c2.232-1.693 3.649-3.072 3.649-4.627 0-1.668-1.404-2.571-3.022-2.571-1.179 0-2.358.439-3.098 1.342l.853.953c.539-.602 1.279-.991 2.257-.991.765 0 1.53.389 1.53 1.267 0 1.216-1.279 2.295-4.527 4.753v1.166z" fill="#333"/><path d="m123.24 347v-7.073h2.533v-1.292h-6.533v1.292h2.533v7.073z" fill="#333"/><path d="m127.353 347v-4.126c.263-.439 1.003-.815 1.568-.815.163 0 .288.012.401.037v-1.304c-.778 0-1.505.452-1.969 1.029v-.878h-1.317v6.057z" fill="#333"/><path d="m135.413 347v-4.026c0-1.617-1.179-2.182-2.533-2.182-.966 0-1.844.301-2.546.978l.552.916c.514-.527 1.116-.778 1.793-.778.828 0 1.417.427 1.417 1.129v.903c-.451-.514-1.141-.778-1.969-.778-.991 0-2.094.577-2.094 1.982 0 1.329 1.116 2.006 2.094 2.006.803 0 1.518-.288 1.969-.815v.665zm-2.759-.752c-.74 0-1.304-.427-1.304-1.092 0-.652.564-1.091 1.304-1.091.564 0 1.128.214 1.442.627v.928c-.314.414-.878.628-1.442.628z" fill="#333"/><path d="m139.879 347.15c1.191 0 1.893-.514 2.32-1.078l-.866-.815c-.338.476-.802.727-1.392.727-1.091 0-1.831-.84-1.831-2.019s.74-2.006 1.831-2.006c.59 0 1.054.225 1.392.702l.866-.79c-.427-.577-1.129-1.079-2.32-1.079-1.831 0-3.123 1.342-3.123 3.173s1.292 3.185 3.123 3.185z" fill="#333"/><path d="m149.034 347-2.558-3.311 2.508-2.746h-1.63l-2.672 2.922v-5.23h-1.316v8.365h1.316v-1.63l.853-.878 1.844 2.508z" fill="#333"/><path d="m152.727 347.15c.953 0 1.843-.313 2.458-.89l-.602-.865c-.439.439-1.129.677-1.731.677-1.141 0-1.818-.765-1.918-1.668h4.665v-.326c0-1.906-1.154-3.286-2.972-3.286-1.794 0-3.073 1.417-3.073 3.173 0 1.919 1.342 3.185 3.173 3.185zm1.605-3.687h-3.411c.05-.727.577-1.592 1.693-1.592 1.191 0 1.68.878 1.718 1.592z" fill="#333"/><path d="m158.215 347v-4.126c.264-.439 1.003-.815 1.568-.815.163 0 .288.012.401.037v-1.304c-.777 0-1.505.452-1.969 1.029v-.878h-1.317v6.057z" fill="#333"/><path d="m163.328 347.15c1.63 0 2.521-.815 2.521-1.893 0-2.408-3.662-1.605-3.662-2.671 0-.427.426-.753 1.116-.753.765 0 1.429.326 1.793.728l.552-.929c-.539-.476-1.317-.84-2.345-.84-1.53 0-2.383.84-2.383 1.831 0 2.333 3.662 1.48 3.662 2.671 0 .477-.414.803-1.204.803-.777 0-1.618-.401-2.044-.84l-.602.94c.627.615 1.555.953 2.596.953z" fill="#333"/><path d="m174.658 347c1.581 0 2.433-.966 2.433-2.27 0-1.016-.714-1.906-1.617-2.044.777-.163 1.454-.878 1.454-1.919 0-1.179-.84-2.132-2.382-2.132h-4.114v8.365zm-.401-4.916h-2.358v-2.157h2.358c.74 0 1.166.464 1.166 1.078 0 .64-.426 1.079-1.166 1.079zm.063 3.624h-2.421v-2.332h2.421c.828 0 1.266.539 1.266 1.166 0 .727-.476 1.166-1.266 1.166z" fill="#333"/><path d="m179.856 347v-8.365h-1.317v8.365z" fill="#333"/><path d="m184.31 347.15c1.931 0 3.11-1.454 3.11-3.185 0-1.743-1.179-3.173-3.11-3.173s-3.11 1.43-3.11 3.173c0 1.731 1.179 3.185 3.11 3.185zm0-1.166c-1.116 0-1.743-.94-1.743-2.019 0-1.066.627-2.006 1.743-2.006 1.129 0 1.743.94 1.743 2.006 0 1.079-.614 2.019-1.743 2.019z" fill="#333"/><path d="m191.524 347.15c1.191 0 1.894-.514 2.32-1.078l-.865-.815c-.339.476-.803.727-1.392.727-1.091 0-1.831-.84-1.831-2.019s.74-2.006 1.831-2.006c.589 0 1.053.225 1.392.702l.865-.79c-.426-.577-1.129-1.079-2.32-1.079-1.831 0-3.123 1.342-3.123 3.173s1.292 3.185 3.123 3.185z" fill="#333"/><path d="m200.679 347-2.558-3.311 2.508-2.746h-1.63l-2.671 2.922v-5.23h-1.317v8.365h1.317v-1.63l.852-.878 1.844 2.508z" fill="#333"/><path d="m204.372 347.15c.953 0 1.844-.313 2.458-.89l-.602-.865c-.439.439-1.129.677-1.731.677-1.141 0-1.818-.765-1.918-1.668h4.665v-.326c0-1.906-1.154-3.286-2.972-3.286-1.794 0-3.073 1.417-3.073 3.173 0 1.919 1.342 3.185 3.173 3.185zm1.605-3.687h-3.411c.05-.727.577-1.592 1.693-1.592 1.192 0 1.681.878 1.718 1.592z" fill="#333"/><path d="m214.124 347v-8.365h-1.316v3.148c-.477-.652-1.179-.991-1.944-.991-1.555 0-2.684 1.217-2.684 3.173 0 2.007 1.141 3.185 2.684 3.185.79 0 1.48-.376 1.944-.978v.828zm-2.872-1.016c-1.053 0-1.718-.84-1.718-2.019 0-1.166.665-2.006 1.718-2.006.615 0 1.267.363 1.556.815v2.395c-.289.451-.941.815-1.556.815z" fill="#333"/><path clip-rule="evenodd" d="m89.0328 340.691c.3122.3.3222.796.0223 1.108l-3.4417 3.583c-.1478.154-.3519.241-.5653.241-.2133 0-.4174-.087-.5652-.241l-1.9329-2.012c-.2999-.312-.2899-.808.0223-1.108.3121-.3.8083-.29 1.1082.022l1.3676 1.424 2.8765-2.995c.2999-.312.796-.322 1.1082-.022z" fill="#3ea140" fill-rule="evenodd"/><path clip-rule="evenodd" d="m85.8026 349.452c3.5867 0 6.4943-2.907 6.4943-6.494s-2.9076-6.494-6.4943-6.494c-3.5868 0-6.4944 2.907-6.4944 6.494s2.9076 6.494 6.4944 6.494zm8.0619-6.494c0 4.453-3.6094 8.062-8.0619 8.062s-8.062-3.609-8.062-8.062c0-4.452 3.6095-8.062 8.062-8.062s8.0619 3.61 8.0619 8.062z" fill="#3ea140" fill-rule="evenodd"/><path d="m60.7209 319.871h277.6901v.895h-277.6901z" fill="#000" fill-opacity=".05"/><g clip-path="url(#l)"><g fill="#333"><path d="m113.923 301.206v-1.292h-4.264v-2.333h4.176v-1.291h-4.176v-2.157h4.264v-1.292h-5.731v8.365z"/><path d="m120.809 301.206v-4.264c0-1.242-.652-1.944-1.956-1.944-.953 0-1.743.489-2.144.966v-.816h-1.317v6.058h1.317v-4.239c.313-.401.89-.803 1.555-.803.74 0 1.229.301 1.229 1.254v3.788z"/><path d="m125.279 301.356c1.191 0 1.893-.514 2.32-1.078l-.866-.816c-.338.477-.802.728-1.392.728-1.091 0-1.831-.84-1.831-2.019s.74-2.007 1.831-2.007c.59 0 1.054.226 1.392.703l.866-.791c-.427-.576-1.129-1.078-2.32-1.078-1.831 0-3.123 1.342-3.123 3.173s1.292 3.185 3.123 3.185z"/><path d="m130.082 301.206v-4.126c.264-.439 1.004-.815 1.568-.815.163 0 .288.012.401.037v-1.304c-.777 0-1.505.451-1.969 1.028v-.878h-1.317v6.058z"/><path d="m132.862 303.576c.176.05.552.088.74.088.941-.013 1.656-.339 2.069-1.367l2.922-7.149h-1.404l-1.768 4.54-1.769-4.54h-1.417l2.496 6.133-.301.69c-.176.401-.452.526-.878.526-.15 0-.364-.037-.502-.1z"/><path d="m142.681 301.356c1.567 0 2.684-1.191 2.684-3.185s-1.117-3.173-2.684-3.173c-.79 0-1.492.376-1.944.978v-.828h-1.317v8.365h1.317v-3.148c.502.64 1.179.991 1.944.991zm-.389-1.166c-.614 0-1.267-.376-1.555-.828v-2.395c.301-.452.941-.803 1.555-.803 1.041 0 1.718.828 1.718 2.007s-.677 2.019-1.718 2.019z"/><path d="m148.514 301.356c.602 0 .99-.175 1.229-.389l-.314-1.003c-.1.113-.326.226-.577.226-.376 0-.577-.314-.577-.728v-3.172h1.229v-1.142h-1.229v-1.655h-1.316v1.655h-1.004v1.142h1.004v3.499c0 1.015.526 1.567 1.555 1.567z"/><path d="m153.497 301.356c.953 0 1.843-.313 2.458-.89l-.602-.866c-.439.439-1.129.678-1.731.678-1.141 0-1.818-.765-1.919-1.668h4.665v-.326c0-1.907-1.153-3.286-2.972-3.286-1.793 0-3.072 1.417-3.072 3.173 0 1.919 1.342 3.185 3.173 3.185zm1.605-3.687h-3.411c.05-.727.577-1.593 1.693-1.593 1.191 0 1.68.878 1.718 1.593z"/><path d="m163.249 301.206v-8.365h-1.317v3.148c-.477-.652-1.179-.991-1.944-.991-1.555 0-2.684 1.216-2.684 3.173 0 2.006 1.142 3.185 2.684 3.185.79 0 1.48-.376 1.944-.978v.828zm-2.872-1.016c-1.053 0-1.718-.84-1.718-2.019 0-1.167.665-2.007 1.718-2.007.614 0 1.267.364 1.555.815v2.396c-.288.451-.941.815-1.555.815z"/><path d="m172.251 301.356c1.681 0 2.722-.89 3.361-1.894l-1.254-.627c-.401.69-1.216 1.217-2.107 1.217-1.655 0-2.884-1.279-2.884-3.022 0-1.769 1.229-3.023 2.884-3.023.891 0 1.706.514 2.107 1.217l1.242-.652c-.615-1.004-1.668-1.869-3.349-1.869-2.47 0-4.389 1.743-4.389 4.327 0 2.57 1.919 4.326 4.389 4.326z"/><path d="m179.483 301.356c1.931 0 3.11-1.455 3.11-3.185 0-1.743-1.179-3.173-3.11-3.173s-3.11 1.43-3.11 3.173c0 1.73 1.179 3.185 3.11 3.185zm0-1.166c-1.116 0-1.743-.941-1.743-2.019 0-1.066.627-2.007 1.743-2.007 1.129 0 1.743.941 1.743 2.007 0 1.078-.614 2.019-1.743 2.019z"/><path d="m189.355 301.206v-4.264c0-1.242-.652-1.944-1.956-1.944-.953 0-1.743.489-2.144.966v-.816h-1.317v6.058h1.317v-4.239c.313-.401.89-.803 1.555-.803.74 0 1.229.301 1.229 1.254v3.788z"/><path d="m196.483 301.206v-4.264c0-1.242-.652-1.944-1.956-1.944-.953 0-1.743.489-2.145.966v-.816h-1.317v6.058h1.317v-4.239c.314-.401.891-.803 1.555-.803.74 0 1.229.301 1.229 1.254v3.788z"/><path d="m201.002 301.356c.953 0 1.844-.313 2.458-.89l-.602-.866c-.439.439-1.128.678-1.73.678-1.141 0-1.819-.765-1.919-1.668h4.665v-.326c0-1.907-1.154-3.286-2.972-3.286-1.793 0-3.073 1.417-3.073 3.173 0 1.919 1.342 3.185 3.173 3.185zm1.606-3.687h-3.412c.051-.727.577-1.593 1.693-1.593 1.192 0 1.681.878 1.719 1.593z"/><path d="m207.933 301.356c1.191 0 1.894-.514 2.32-1.078l-.865-.816c-.339.477-.803.728-1.392.728-1.091 0-1.831-.84-1.831-2.019s.74-2.007 1.831-2.007c.589 0 1.053.226 1.392.703l.865-.791c-.426-.576-1.129-1.078-2.32-1.078-1.831 0-3.123 1.342-3.123 3.173s1.292 3.185 3.123 3.185z"/><path d="m213.251 301.356c.602 0 .991-.175 1.229-.389l-.314-1.003c-.1.113-.326.226-.577.226-.376 0-.576-.314-.576-.728v-3.172h1.229v-1.142h-1.229v-1.655h-1.317v1.655h-1.004v1.142h1.004v3.499c0 1.015.526 1.567 1.555 1.567z"/><path d="m216.089 294.409c.452 0 .815-.364.815-.816 0-.451-.363-.815-.815-.815-.451 0-.815.364-.815.815 0 .452.364.816.815.816zm.652 6.797v-6.058h-1.316v6.058z"/><path d="m221.196 301.356c1.931 0 3.11-1.455 3.11-3.185 0-1.743-1.179-3.173-3.11-3.173s-3.11 1.43-3.11 3.173c0 1.73 1.179 3.185 3.11 3.185zm0-1.166c-1.116 0-1.743-.941-1.743-2.019 0-1.066.627-2.007 1.743-2.007 1.129 0 1.743.941 1.743 2.007 0 1.078-.614 2.019-1.743 2.019z"/><path d="m231.068 301.206v-4.264c0-1.242-.652-1.944-1.956-1.944-.953 0-1.743.489-2.144.966v-.816h-1.317v6.058h1.317v-4.239c.313-.401.89-.803 1.555-.803.739 0 1.229.301 1.229 1.254v3.788z"/></g><path clip-rule="evenodd" d="m89.0328 295.209c.3122.3.3222.796.0223 1.109l-3.4417 3.583c-.1478.154-.3519.241-.5653.241-.2133 0-.4174-.087-.5652-.241l-1.9329-2.013c-.2999-.312-.2899-.808.0223-1.108.3121-.3.8083-.29 1.1082.022l1.3676 1.424 2.8765-2.994c.2999-.312.796-.322 1.1082-.023z" fill="#3ea140" fill-rule="evenodd"/><path clip-rule="evenodd" d="m85.8026 303.971c3.5867 0 6.4943-2.907 6.4943-6.494s-2.9076-6.495-6.4943-6.495c-3.5868 0-6.4944 2.908-6.4944 6.495s2.9076 6.494 6.4944 6.494zm8.0619-6.494c0 4.452-3.6094 8.062-8.0619 8.062s-8.062-3.61-8.062-8.062c0-4.453 3.6095-8.062 8.062-8.062s8.0619 3.609 8.0619 8.062z" fill="#3ea140" fill-rule="evenodd"/></g><path clip-rule="evenodd" d="m317.165 334.453c-.337.334-.337.881 0 1.215l3.932 3.909-3.932 3.909c-.337.334-.337.881 0 1.215.336.334.886.334 1.222 0l4.544-4.516c.336-.335.336-.881 0-1.216l-4.544-4.516c-.336-.334-.886-.334-1.222 0z" fill="#aaa" fill-rule="evenodd"/></g><g filter="url(#c)"><path d="m38.9128 67.9997h321.1742v188.3433h-321.1742z" fill="#c4c4c4"/></g><g filter="url(#d)"><rect fill="#fff" height="201.3" rx="5.5" width="341" x="29" y="57.0957"/><g fill="#888"><path d="m103.788 243.267c1.518 0 2.759-.647 3.617-1.61v-3.287h-4.171v1.36h2.64v1.359c-.396.383-1.188.792-2.086.792-1.742 0-3.036-1.346-3.036-3.181 0-1.861 1.294-3.181 3.036-3.181.977 0 1.808.515 2.284 1.175l1.254-.726c-.7-1.004-1.822-1.822-3.538-1.822-2.561 0-4.62 1.782-4.62 4.554 0 2.759 2.059 4.567 4.62 4.567z"/><path d="m117.212 243.096-2.165-3.459c1.069-.171 2.099-1.029 2.099-2.587 0-1.637-1.149-2.759-2.891-2.759h-3.868v8.805h1.545v-3.287h1.544l1.941 3.287zm-3.155-4.647h-2.125v-2.798h2.125c.871 0 1.505.541 1.505 1.386 0 .858-.634 1.412-1.505 1.412z"/><path d="m127.997 243.096-3.458-8.805h-1.927l-3.459 8.805h1.756l.647-1.703h4.039l.647 1.703zm-2.838-3.063h-3.168l1.584-4.197z"/><path d="m133.607 243.096c2.746 0 4.594-1.809 4.594-4.409 0-2.574-1.848-4.396-4.607-4.396h-3.273v8.805zm-.013-1.36h-1.729v-6.085h1.742c1.954 0 3.01 1.346 3.01 3.036 0 1.676-1.109 3.049-3.023 3.049z"/><path d="m147.1 243.096v-1.36h-4.488v-2.455h4.395v-1.36h-4.395v-2.27h4.488v-1.36h-6.033v8.805z"/><path d="m160.871 243.096v-1.36h-4.488v-2.455h4.396v-1.36h-4.396v-2.27h4.488v-1.36h-6.032v8.805z"/><path d="m171.462 243.096v-8.805h-1.545v6.099l-4.501-6.099h-1.584v8.805h1.544v-6.297l4.594 6.297z"/><path d="m182.377 243.096v-8.805h-1.545v3.591h-4.58v-3.591h-1.545v8.805h1.545v-3.855h4.58v3.855z"/><path d="m193.555 243.096-3.459-8.805h-1.927l-3.458 8.805h1.755l.647-1.703h4.039l.647 1.703zm-2.838-3.063h-3.168l1.584-4.197z"/><path d="m203.508 243.096v-8.805h-1.545v6.099l-4.501-6.099h-1.584v8.805h1.545v-6.297l4.593 6.297z"/><path d="m210.991 243.254c1.768 0 2.864-.937 3.537-1.993l-1.32-.66c-.422.726-1.28 1.28-2.217 1.28-1.743 0-3.036-1.346-3.036-3.181 0-1.861 1.293-3.181 3.036-3.181.937 0 1.795.541 2.217 1.28l1.307-.686c-.647-1.056-1.756-1.967-3.524-1.967-2.601 0-4.62 1.835-4.62 4.554 0 2.706 2.019 4.554 4.62 4.554z"/><path d="m223.159 243.096v-1.36h-4.488v-2.455h4.395v-1.36h-4.395v-2.27h4.488v-1.36h-6.033v8.805z"/><path d="m229.406 243.096c2.746 0 4.594-1.809 4.594-4.409 0-2.574-1.848-4.396-4.607-4.396h-3.273v8.805zm-.013-1.36h-1.729v-6.085h1.742c1.954 0 3.01 1.346 3.01 3.036 0 1.676-1.109 3.049-3.023 3.049z"/><path d="m243.189 243.096v-3.815h4.395v-1.36h-4.395v-2.27h4.488v-1.36h-6.033v8.805z"/><path d="m257.281 243.096-2.164-3.459c1.069-.171 2.098-1.029 2.098-2.587 0-1.637-1.148-2.759-2.89-2.759h-3.868v8.805h1.544v-3.287h1.545l1.94 3.287zm-3.154-4.647h-2.126v-2.798h2.126c.871 0 1.504.541 1.504 1.386 0 .858-.633 1.412-1.504 1.412z"/><path d="m264.252 243.254c2.627 0 4.501-1.927 4.501-4.554s-1.874-4.554-4.501-4.554c-2.64 0-4.501 1.927-4.501 4.554s1.861 4.554 4.501 4.554zm0-1.373c-1.782 0-2.917-1.373-2.917-3.181 0-1.822 1.135-3.181 2.917-3.181 1.769 0 2.917 1.359 2.917 3.181 0 1.808-1.148 3.181-2.917 3.181z"/><path d="m280.75 243.096v-8.805h-2.178l-2.39 6.046-2.402-6.046h-2.178v8.805h1.544v-6.798l2.706 6.798h.66l2.693-6.798v6.798z"/></g><path clip-rule="evenodd" d="m287.708 238.5c0-4.303 3.489-7.792 7.792-7.792 2.067 0 4.048.821 5.51 2.282 1.461 1.462 2.282 3.444 2.282 5.51 0 4.303-3.489 7.792-7.792 7.792s-7.792-3.489-7.792-7.792zm9.655 1.013c-.26.606-.849 1.006-1.509 1.023-.532.001-1.041-.216-1.409-.601s-.563-.903-.539-1.435c-.026-.532.168-1.052.536-1.437.369-.385.879-.602 1.412-.599.665.011 1.261.412 1.523 1.023l1.562-.758c-.558-1.187-1.774-1.923-3.085-1.866-2.146 0-3.807 1.477-3.807 3.637s1.647 3.637 3.807 3.637c1.308.037 2.513-.704 3.071-1.887z" fill="url(#f)" fill-rule="evenodd"/><path d="m137.819 214.095c1.96 0 3.148-.871 3.782-1.743l-1.643-1.544c-.456.653-1.149 1.049-2.02 1.049-1.525 0-2.594-1.128-2.594-2.791 0-1.664 1.069-2.772 2.594-2.772.871 0 1.564.356 2.02 1.029l1.643-1.544c-.634-.871-1.822-1.723-3.782-1.723-2.93 0-5.069 2.079-5.069 5.01 0 2.95 2.139 5.029 5.069 5.029z" fill="#333"/><path d="m145.76 213.857v-6.316c.415-.614 1.524-1.089 2.356-1.089.297 0 .515.02.693.059v-2.455c-1.188 0-2.356.693-3.049 1.525v-1.287h-2.515v9.563z" fill="#333"/><path d="m154.875 214.095c1.485 0 2.989-.456 3.94-1.327l-1.129-1.663c-.614.594-1.722.931-2.534.931-1.624 0-2.574-.971-2.752-2.139h7.108v-.594c0-3.108-1.921-5.247-4.792-5.247-2.891 0-4.95 2.238-4.95 5.01 0 3.069 2.198 5.029 5.109 5.029zm2.217-5.94h-4.712c.099-.951.772-2.04 2.336-2.04 1.663 0 2.297 1.129 2.376 2.04z" fill="#333"/><path d="m165.819 214.095c1.485 0 2.989-.456 3.94-1.327l-1.129-1.663c-.614.594-1.722.931-2.534.931-1.624 0-2.574-.971-2.752-2.139h7.108v-.594c0-3.108-1.921-5.247-4.792-5.247-2.891 0-4.95 2.238-4.95 5.01 0 3.069 2.198 5.029 5.109 5.029zm2.217-5.94h-4.712c.099-.951.772-2.04 2.336-2.04 1.663 0 2.297 1.129 2.376 2.04z" fill="#333"/><path d="m177.733 214.095c2.455 0 4.237-1.842 4.237-5.029 0-3.188-1.782-5.01-4.237-5.01-1.168 0-2.218.515-2.95 1.446v-1.208h-2.515v13.206h2.515v-4.87c.792.99 1.821 1.465 2.95 1.465zm-.792-2.238c-.812 0-1.742-.495-2.158-1.108v-3.366c.435-.634 1.346-1.089 2.158-1.089 1.445 0 2.435 1.128 2.435 2.772 0 1.663-.99 2.791-2.435 2.791z" fill="#333"/><path d="m183.495 217.58c.297.099.95.158 1.228.158 1.643-.04 2.91-.515 3.623-2.317l4.495-11.127h-2.693l-2.515 6.653-2.495-6.653h-2.692l3.88 9.682-.356.832c-.238.514-.673.693-1.327.693-.237 0-.574-.06-.792-.159z" fill="#333"/><path d="m197.408 214.095c2.654 0 4.158-1.287 4.158-3.049 0-3.861-5.682-2.673-5.682-4.079 0-.535.594-.931 1.505-.931 1.168 0 2.257.515 2.831 1.109l1.01-1.782c-.951-.752-2.238-1.307-3.841-1.307-2.535 0-3.921 1.406-3.921 3.01 0 3.762 5.663 2.475 5.663 4.039 0 .594-.515 1.01-1.604 1.01-1.188 0-2.594-.654-3.306-1.327l-1.089 1.822c1.009.93 2.613 1.485 4.276 1.485z" fill="#333"/><path d="m204.646 203.264c.832 0 1.505-.673 1.505-1.505 0-.831-.673-1.485-1.505-1.485-.811 0-1.485.654-1.485 1.485 0 .832.674 1.505 1.485 1.505zm1.268 10.593v-9.563h-2.515v9.563z" fill="#333"/><path d="m211.615 214.095c1.049 0 1.722-.277 2.098-.614l-.534-1.921c-.139.159-.495.297-.871.297-.555 0-.872-.455-.872-1.069v-4.296h1.941v-2.198h-1.941v-2.614h-2.514v2.614h-1.584v2.198h1.584v4.969c0 1.723.93 2.634 2.693 2.634z" fill="#333"/><path d="m219.592 214.095c1.485 0 2.99-.456 3.94-1.327l-1.129-1.663c-.613.594-1.722.931-2.534.931-1.624 0-2.574-.971-2.752-2.139h7.108v-.594c0-3.108-1.921-5.247-4.792-5.247-2.89 0-4.95 2.238-4.95 5.01 0 3.069 2.198 5.029 5.109 5.029zm2.217-5.94h-4.712c.099-.951.772-2.04 2.336-2.04 1.664 0 2.297 1.129 2.376 2.04z" fill="#333"/><path d="m227.251 214.075c.871 0 1.604-.733 1.604-1.604s-.733-1.604-1.604-1.604-1.604.733-1.604 1.604.733 1.604 1.604 1.604z" fill="#333"/><path d="m235.427 214.095c1.96 0 3.148-.871 3.782-1.743l-1.644-1.544c-.455.653-1.148 1.049-2.019 1.049-1.525 0-2.594-1.128-2.594-2.791 0-1.664 1.069-2.772 2.594-2.772.871 0 1.564.356 2.019 1.029l1.644-1.544c-.634-.871-1.822-1.723-3.782-1.723-2.93 0-5.069 2.079-5.069 5.01 0 2.95 2.139 5.029 5.069 5.029z" fill="#333"/><path d="m245.288 214.095c3.168 0 5.069-2.317 5.069-5.029 0-2.713-1.901-5.01-5.069-5.01-3.148 0-5.049 2.297-5.049 5.01 0 2.712 1.901 5.029 5.049 5.029zm0-2.238c-1.564 0-2.435-1.287-2.435-2.791 0-1.485.871-2.772 2.435-2.772 1.584 0 2.455 1.287 2.455 2.772 0 1.504-.871 2.791-2.455 2.791z" fill="#333"/><path d="m266.636 213.857v-6.91c0-1.96-1.049-2.891-2.811-2.891-1.466 0-2.733.871-3.287 1.723-.337-1.069-1.248-1.723-2.653-1.723-1.466 0-2.713.911-3.129 1.465v-1.227h-2.514v9.563h2.514v-6.455c.376-.514 1.109-1.108 1.98-1.108 1.03 0 1.426.633 1.426 1.524v6.039h2.534v-6.455c.357-.514 1.089-1.108 1.98-1.108 1.03 0 1.426.633 1.426 1.524v6.039z" fill="#333"/><path d="m199.306 183.581c30.538 0 55.293-24.929 55.293-55.68 0-30.7512-24.755-55.68-55.293-55.68s-55.293 24.9288-55.293 55.68c0 30.751 24.755 55.68 55.293 55.68z" fill="#999" fill-opacity=".25"/><path d="m199.306 72.2211c-7.381-.0092-14.688 1.4741-21.489 4.3618h.828c24.512-.0035 46.468 15.2695 55.141 38.3571 8.672 23.087 2.251 49.169-16.127 65.503 25.433-8.997 40.718-35.152 36.18-61.91-4.538-26.7592-27.575-46.3235-54.533-46.3119z" fill="#333" fill-opacity=".15"/><path d="m254.5 128.914c.02-14.117-5.477-27.671-15.297-37.718h-91.259c-1.902 0-3.444 1.5572-3.444 3.4782v62.4718c0 3.065 2.461 5.55 5.496 5.55h92.68c7.668-9.555 11.843-21.484 11.824-33.782z" fill="#fff"/><path d="m238.77 88.907h-94.875c-.925-.0013-1.814.3684-2.468 1.0275-.655.6591-1.022 1.5535-1.021 2.4857v5.0047h105.178c-1.988-3.0579-4.27-5.911-6.814-8.5179z" fill="#777"/><path d="m205.15 140.374h-19.043c-.629-.005-1.138-.518-1.144-1.152v-11.63c.008-.632.516-1.143 1.144-1.152h19.058c.629.006 1.138.518 1.144 1.152v11.63c.014.312-.105.616-.326.835-.221.22-.524.335-.833.317z" fill="#999" fill-opacity=".25"/><path d="m230.235 140.374h-19.063c-.629-.008-1.136-.519-1.144-1.152v-11.63c.008-.632.515-1.143 1.144-1.152h19.063c.628.009 1.135.52 1.144 1.152v11.63c.004.307-.115.603-.331.82-.215.217-.509.337-.813.332z" fill="#dee2ea"/><path d="m216.944 147.792h-30.209c-.475.001-.931-.189-1.267-.528s-.523-.799-.52-1.278c-.003-.479.184-.939.52-1.278s.792-.529 1.267-.527h30.209c.476-.002.932.188 1.269.527.336.339.525.799.524 1.278-.03.985-.816 1.776-1.793 1.806z" fill="#999" fill-opacity=".25"/><path d="m234.362 147.792h-11.396c-.476.001-.932-.189-1.268-.528-.335-.339-.523-.799-.52-1.278-.003-.479.185-.939.52-1.278.336-.339.792-.529 1.268-.527h11.396c.476-.002.932.188 1.269.527.336.339.525.799.524 1.278.001.479-.188.939-.524 1.278-.337.339-.793.529-1.269.528z" fill="#dee2ea"/><path d="m198.131 155.034h-11.396c-.475.001-.931-.189-1.267-.528s-.523-.799-.52-1.278c-.003-.478.184-.938.52-1.277s.792-.529 1.267-.528h11.396c.476-.001.933.188 1.269.527.337.339.525.799.524 1.278.001.48-.187.94-.524 1.279-.336.338-.793.528-1.269.527z" fill="#999" fill-opacity=".25"/><path d="m220.78 155.034h-11.401c-.476.001-.932-.189-1.268-.528-.335-.339-.523-.799-.52-1.278-.003-.478.185-.938.52-1.277.336-.339.792-.529 1.268-.528h11.401c.475-.001.932.189 1.267.528.336.339.523.799.521 1.277-.027.984-.811 1.776-1.788 1.806z" fill="#999" fill-opacity=".25"/><path d="m203.755 155.008c.99 0 1.793-.808 1.793-1.805s-.803-1.806-1.793-1.806-1.793.809-1.793 1.806.803 1.805 1.793 1.805z" fill="#999" fill-opacity=".25"/><path d="m231.874 155.008c.99 0 1.793-.808 1.793-1.805s-.803-1.806-1.793-1.806-1.793.809-1.793 1.806.803 1.805 1.793 1.805z" fill="#dee2ea"/><path d="m226.7 155.008c.99 0 1.793-.808 1.793-1.805s-.803-1.806-1.793-1.806-1.793.809-1.793 1.806.803 1.805 1.793 1.805z" fill="#dee2ea"/><path d="m237.85 155.034h9.762c.65-1.173 1.258-2.373 1.823-3.601-.061 0-.128 0-.189 0h-11.396c-.935.071-1.657.856-1.657 1.801 0 .944.722 1.729 1.657 1.8z" fill="#dee2ea"/><path d="m236.206 140.374h16.999c.93-4.091 1.397-8.276 1.394-12.473 0-.514 0-.977 0-1.461h-18.388c-.629.009-1.136.52-1.144 1.152v11.63c.005.632.511 1.144 1.139 1.152z" fill="#dee2ea"/><path d="m254.354 122.629c-.566-6.141-2.15-12.142-4.684-17.756h-62.316c-.633 0-1.24.253-1.687.703-.448.451-.699 1.062-.699 1.699v13.003c0 .637.251 1.248.699 1.699.447.45 1.054.703 1.687.703h66.689c.104-.01.209-.027.311-.051z" fill="#999" fill-opacity=".25"/><path d="m147.282 94.8222c.908 0 1.645-.7415 1.645-1.6562s-.737-1.6563-1.645-1.6563c-.909 0-1.645.7416-1.645 1.6563s.736 1.6562 1.645 1.6562z" fill="#aaa"/><path d="m153.008 94.8222c.908 0 1.645-.7415 1.645-1.6562s-.737-1.6563-1.645-1.6563c-.909 0-1.645.7416-1.645 1.6563s.736 1.6562 1.645 1.6562z" fill="#aaa"/><path d="m158.729 94.8222c.908 0 1.644-.7415 1.644-1.6562s-.736-1.6563-1.644-1.6563c-.909 0-1.645.7416-1.645 1.6563s.736 1.6562 1.645 1.6562z" fill="#aaa"/><path d="m178.18 162.873h-32.18c-3.082-.014-5.577-2.525-5.594-5.627v-59.9239h37.799z" fill="#3fa140"/><path d="m167.177 136.815h-17.617c-.846 0-1.532-.691-1.532-1.543s.686-1.543 1.532-1.543h17.617c.847 0 1.533.691 1.533 1.543s-.686 1.543-1.533 1.543z" fill="#fff" opacity=".59"/><path d="m167.177 144.232h-17.617c-.846 0-1.532-.691-1.532-1.543s.686-1.543 1.532-1.543h17.617c.847 0 1.533.691 1.533 1.543s-.686 1.543-1.533 1.543z" fill="#fff" opacity=".59"/><path d="m162.698 151.701h-13.138c-.846 0-1.532-.691-1.532-1.543 0-.853.686-1.543 1.532-1.543h13.138c.846 0 1.532.69 1.532 1.543 0 .852-.686 1.543-1.532 1.543z" fill="#fff" opacity=".59"/><path d="m167.177 151.701c-.846 0-1.532-.691-1.532-1.543 0-.853.686-1.543 1.532-1.543s1.533.69 1.533 1.543c0 .852-.687 1.543-1.533 1.543z" fill="#fff" opacity=".59"/><path d="m159.347 129.326c7.174 0 12.989-5.856 12.989-13.08 0-7.225-5.815-13.081-12.989-13.081s-12.99 5.856-12.99 13.081c0 7.224 5.816 13.08 12.99 13.08z" fill="#fff" opacity=".59"/><path d="m167.499 126.368c-.107-.54-.324-1.051-.638-1.502-.649-.9-2.141-.9-3.336-.951-.485.045-.975-.006-1.44-.149-.751-.304-.899-1.302-.95-1.806-.399-1.25-.945-1.651-1.533-1.502l-.296.299-.301-.299c-.598-.103-.843 0-1.242 1.502-.051.514-.25 1.502-.945 1.806-.467.143-.958.194-1.445.149-1.195 0-2.738.051-3.336.951-.369.46-.6 1.017-.664 1.605 2.315 1.88 5.199 2.905 8.173 2.906 2.917-.044 5.729-1.107 7.953-3.009z" fill="#9b7a56"/><path d="m164.072 115.397c0 3.359-2.09 7.468-4.725 7.468-2.636 0-4.73-4.161-4.73-7.468 0-3.308 2.089-6.065 4.73-6.065s4.725 2.706 4.725 6.065z" fill="#9b7a56"/><path d="m154.52 110.284h9.056v3.508h-9.056z" fill="#af58c4"/><path d="m159.393 110.284h4.576v3.508h-4.576z" fill="#ce6ce5"/><path clip-rule="evenodd" d="m167.002 110.418c.248.507.269 1.096.058 1.62.434.452.623 1.089.506 1.707s-.525 1.14-1.094 1.4c.894 1.152.496 2.654-.797 3.055-.106 1.005-.943 1.77-1.946 1.78-.265.534-.761.914-1.343 1.029h-.097c1.028-1.426 1.566-3.151 1.532-4.913-.007-.485-.041-.969-.102-1.45-.242-.054-.455-.197-.598-.401-.228.197-.534.277-.829.218-.295-.06-.546-.252-.683-.522-.201.222-.491.34-.789.321s-.571-.173-.743-.419c-.177.27-.476.432-.797.432-.32 0-.62-.162-.797-.432-.164.256-.439.419-.741.438s-.596-.107-.791-.34c-.131.269-.38.462-.672.521-.292.06-.595-.021-.819-.217-.146.18-.348.305-.573.355-.061.481-.095.965-.102 1.45.013 1.781.609 3.508 1.696 4.912h-.174c-.588-.126-1.093-.501-1.389-1.028-.982-.039-1.797-.776-1.941-1.754-1.394-.448-1.548-2.027-.797-3.056-.569-.251-.983-.763-1.112-1.375s.044-1.249.464-1.711c-.221-.522-.205-1.115.043-1.624.248-.51.704-.886 1.249-1.03-.137-.558.007-1.148.386-1.578.378-.431.942-.646 1.509-.577.265-.516.73-.9 1.284-1.061.554-.162 1.15-.087 1.648.207.418-.489 1.027-.77 1.668-.77.64 0 1.249.281 1.667.77.49-.297 1.081-.373 1.629-.211.549.162 1.005.548 1.257 1.065.565-.063 1.124.155 1.5.584s.521 1.015.39 1.571c.541.151.992.527 1.24 1.034zm-11.292 2.572c1.895-3.359 5.276-3.308 7.151 0-2.189-1.372-4.962-1.372-7.151 0z" fill="#323335" fill-rule="evenodd"/><path d="m164.174 115.798c.078.877-.059 1.76-.399 2.572 1.242-.772 1.441-2.773.399-2.572z" fill="#7b5d3f"/><path d="m154.438 115.798c-.081.877.056 1.761.398 2.572-1.266-.772-1.466-2.773-.398-2.572z" fill="#8c6e48"/><path d="m157.952 119.255v.288c.006.313.135.611.359.828.224.218.525.336.837.329h.51c.642.006 1.169-.511 1.18-1.157v-.299z" fill="#fff"/><path d="m157.804 116.95c.248 0 .45-.246.45-.55s-.202-.551-.45-.551-.449.247-.449.551.201.55.449.55z" fill="#323335"/><path d="m160.69 116.95c.248 0 .45-.246.45-.55s-.202-.551-.45-.551-.449.247-.449.551.201.55.449.55z" fill="#323335"/><path d="m166.861 124.82c-.649-.905-2.141-.905-3.336-.957-.485.046-.974-.005-1.44-.149-.051 0-.051-.051-.103-.051-.623.82-1.566 1.332-2.589 1.404-1.017-.059-1.955-.575-2.554-1.404-.013 0-.026.005-.035.015-.008.01-.013.023-.011.036-.468.144-.959.194-1.446.149-1.195 0-2.738.052-3.335.957-.371.514-.6 1.117-.664 1.749 2.327 1.845 5.21 2.836 8.172 2.808 2.974-.052 5.838-1.143 8.102-3.086-.204-.515-.459-1.008-.761-1.471z" fill="#ce6ce5"/><path d="m161.16 122.197c-.506.402-1.124.635-1.767.668-.627-.002-1.236-.207-1.737-.586-.04.321-.129.633-.266.926.542.509 1.262.783 2.003.761.762-.017 1.49-.32 2.043-.849-.137-.291-.229-.601-.276-.92z" fill="#7b5d3f"/><path d="m233.289 158.38c20.883 0 37.812-17.047 37.812-38.076 0-21.0286-16.929-38.0758-37.812-38.0758-20.882 0-37.811 17.0472-37.811 38.0758 0 21.029 16.929 38.076 37.811 38.076z" fill="#4c863e"/><path d="m234.878 155.749c21.219 0 38.421-17.323 38.421-38.691 0-21.3679-17.202-38.6903-38.421-38.6903-21.22 0-38.422 17.3224-38.422 38.6903 0 21.368 17.202 38.691 38.422 38.691z" fill="#3fa140"/><path clip-rule="evenodd" d="m227.706 131.36h-14.726v-27.204h14.279c5.166 0 7.81 3.304 7.81 6.934 0 3.385-2.115 5.71-4.678 6.24 2.929.448 5.207 3.263 5.207 6.648 0 4.119-2.685 7.382-7.892 7.382zm-1.708-16.396c1.952 0 3.173-1.101 3.173-2.855 0-1.672-1.221-2.855-3.173-2.855h-7.241v5.71zm.244 11.298c2.156 0 3.457-1.142 3.457-3.1 0-1.713-1.22-3.1-3.457-3.1h-7.485v6.2z" fill="#fff" fill-rule="evenodd"/><path clip-rule="evenodd" d="m241.578 115.046h18.305v5.098h-18.305z" fill="#fff" fill-rule="evenodd"/><path clip-rule="evenodd" d="m248.188 126.262v-18.354h5.085v18.354z" fill="#fff" fill-rule="evenodd"/></g><g filter="url(#e)" opacity=".7"><path d="m70.605 16.767c0-4.9625 4.0229-8.98544 8.9854-8.98544h240.8106c4.962 0 8.985 4.02294 8.985 8.98544v16.1739c0 4.9625-4.023 8.9854-8.985 8.9854h-240.8106c-4.9625 0-8.9854-4.0229-8.9854-8.9854z" fill="#fff"/><rect fill="#aaa" height="5.39128" rx=".898546" transform="matrix(.70710678 -.70710678 .70710678 .70710678 71.916941 228.568453)" width="1.79709" x="311.865" y="27.4728"/><path d="m312.941 20.6069c1.842 1.8422 1.842 4.8291 0 6.6713-1.842 1.8423-4.829 1.8423-6.672 0-1.842-1.8422-1.842-4.8291 0-6.6713 1.843-1.8423 4.83-1.8423 6.672 0z" stroke="#aaa" stroke-width="1.34782"/><g fill="#999"><path d="m114.813 28.7152c2.252 0 3.246-1.2076 3.246-2.604 0-3.1197-4.881-2.1511-4.881-3.7235 0-.6164.553-1.0441 1.409-1.0441.88 0 1.774.3019 2.44.9686l.831-1.0944c-.768-.7548-1.837-1.1825-3.133-1.1825-1.849 0-3.057 1.0692-3.057 2.4656 0 3.082 4.881 1.9876 4.881 3.7487 0 .5661-.465 1.1574-1.673 1.1574-1.17 0-2.088-.5536-2.654-1.17l-.83 1.1448c.754.7799 1.874 1.3334 3.421 1.3334z"/><path d="m122.182 28.7152c.956 0 1.849-.3145 2.465-.8931l-.603-.868c-.441.4403-1.133.6793-1.736.6793-1.145 0-1.824-.7674-1.925-1.6731h4.68v-.3271c0-1.9121-1.158-3.2958-2.982-3.2958-1.799 0-3.082 1.4215-3.082 3.1826 0 1.9247 1.346 3.1952 3.183 3.1952zm1.61-3.6984h-3.422c.051-.7296.579-1.5976 1.699-1.5976 1.195 0 1.685.8806 1.723 1.5976z"/><path d="m131.411 28.5643v-4.0381c0-1.6228-1.183-2.1888-2.541-2.1888-.969 0-1.85.3019-2.554.9812l.553.9183c.516-.5284 1.12-.78 1.799-.78.831 0 1.422.4278 1.422 1.1322v.9057c-.453-.5157-1.145-.7799-1.975-.7799-.994 0-2.101.5787-2.101 1.9876 0 1.3334 1.12 2.0127 2.101 2.0127.805 0 1.522-.2893 1.975-.8176v.6667zm-2.768-.7548c-.742 0-1.308-.4277-1.308-1.0944 0-.6542.566-1.0945 1.308-1.0945.566 0 1.132.2139 1.447.629v.9309c-.315.4151-.881.629-1.447.629z"/><path d="m134.444 28.5643v-4.1387c.264-.4403 1.006-.8177 1.572-.8177.164 0 .29.0126.403.0377v-1.3082c-.78 0-1.51.4528-1.975 1.0315v-.8806h-1.321v6.076z"/><path d="m140.252 28.7152c1.195 0 1.899-.5157 2.327-1.0818l-.868-.8177c-.34.478-.805.7296-1.397.7296-1.094 0-1.836-.8428-1.836-2.0253s.742-2.0127 1.836-2.0127c.592 0 1.057.2264 1.397.7044l.868-.7925c-.428-.5787-1.132-1.0818-2.327-1.0818-1.837 0-3.133 1.346-3.133 3.1826s1.296 3.1952 3.133 3.1952z"/><path d="m149.184 28.5643v-4.3023c0-1.2453-.654-1.9246-1.963-1.9246-.956 0-1.736.4906-2.138.9686v-3.1323h-1.321v8.3906h1.321v-4.2519c.302-.4026.88-.8051 1.56-.8051.742 0 1.22.2767 1.22 1.2328v3.8242z"/><path d="m157.312 28.5643c2.617 0 4.378-1.7234 4.378-4.2016 0-2.4531-1.761-4.189-4.39-4.189h-3.12v8.3906zm-.012-1.2957h-1.648v-5.7992h1.66c1.862 0 2.869 1.2831 2.869 2.8933 0 1.5976-1.057 2.9059-2.881 2.9059z"/><path d="m168.495 28.5643v-6.076h-1.321v4.2645c-.302.4026-.88.7925-1.547.7925-.755 0-1.233-.3019-1.233-1.2454v-3.8116h-1.321v4.3023c0 1.2328.654 1.9246 1.963 1.9246.956 0 1.711-.478 2.138-.956v.8051z"/><path d="m172.978 28.7152c1.195 0 1.9-.5157 2.328-1.0818l-.868-.8177c-.34.478-.806.7296-1.397.7296-1.094 0-1.836-.8428-1.836-2.0253s.742-2.0127 1.836-2.0127c.591 0 1.057.2264 1.397.7044l.868-.7925c-.428-.5787-1.133-1.0818-2.328-1.0818-1.836 0-3.132 1.346-3.132 3.1826s1.296 3.1952 3.132 3.1952z"/><path d="m182.162 28.5643-2.566-3.321 2.516-2.755h-1.636l-2.679 2.9311v-5.2457h-1.321v8.3906h1.321v-1.6354l.855-.8805 1.85 2.5159z"/><path d="m186.28 28.5643c2.616 0 4.378-1.7234 4.378-4.2016 0-2.4531-1.762-4.189-4.391-4.189h-3.119v8.3906zm-.013-1.2957h-1.648v-5.7992h1.661c1.862 0 2.868 1.2831 2.868 2.8933 0 1.5976-1.057 2.9059-2.881 2.9059z"/><path d="m197.463 28.5643v-6.076h-1.321v4.2645c-.302.4026-.881.7925-1.547.7925-.755 0-1.233-.3019-1.233-1.2454v-3.8116h-1.321v4.3023c0 1.2328.654 1.9246 1.962 1.9246.956 0 1.711-.478 2.139-.956v.8051z"/><path d="m201.946 28.7152c1.195 0 1.899-.5157 2.327-1.0818l-.868-.8177c-.34.478-.805.7296-1.396.7296-1.095 0-1.837-.8428-1.837-2.0253s.742-2.0127 1.837-2.0127c.591 0 1.056.2264 1.396.7044l.868-.7925c-.428-.5787-1.132-1.0818-2.327-1.0818-1.837 0-3.132 1.346-3.132 3.1826s1.295 3.1952 3.132 3.1952z"/><path d="m211.13 28.5643-2.567-3.321 2.516-2.755h-1.635l-2.679 2.9311v-5.2457h-1.321v8.3906h1.321v-1.6354l.855-.8805 1.849 2.5159z"/><path d="m216.153 28.7278c1.447 0 2.629-.6164 3.447-1.5347v-3.1323h-3.975v1.2957h2.516v1.2957c-.378.3648-1.132.7548-1.988.7548-1.66 0-2.893-1.2832-2.893-3.0317 0-1.7738 1.233-3.0317 2.893-3.0317.931 0 1.724.4906 2.177 1.1196l1.195-.6919c-.667-.9561-1.736-1.736-3.372-1.736-2.44 0-4.403 1.6982-4.403 4.34 0 2.6291 1.963 4.3525 4.403 4.3525z"/><path d="m223.849 28.7152c1.938 0 3.12-1.4592 3.12-3.1952 0-1.7486-1.182-3.1826-3.12-3.1826-1.937 0-3.119 1.434-3.119 3.1826 0 1.736 1.182 3.1952 3.119 3.1952zm0-1.1699c-1.119 0-1.748-.9434-1.748-2.0253 0-1.0693.629-2.0127 1.748-2.0127 1.133 0 1.749.9434 1.749 2.0127 0 1.0819-.616 2.0253-1.749 2.0253z"/></g><path clip-rule="evenodd" d="m87.5425 34.603c5.4587 0 9.884-4.4252 9.884-9.884s-4.4253-9.884-9.884-9.884c-5.4588 0-9.8841 4.4252-9.8841 9.884s4.4253 9.884 9.8841 9.884z" fill="#fff" fill-rule="evenodd"/><path clip-rule="evenodd" d="m87.6203 15.9044c4.9171 0 8.9032 3.9852 8.9032 8.9012 0 4.9161-3.9861 8.9013-8.9032 8.9013-4.9172 0-8.9033-3.9852-8.9033-8.9013 0-4.916 3.9861-8.9012 8.9033-8.9012z" fill="#de5833" fill-rule="evenodd"/><g mask="url(#m)"><path clip-rule="evenodd" d="m91.2625 38.2176c-.3115-1.4526-2.1283-4.7254-2.8032-6.1255-.6921-1.3826-1.3669-3.3429-1.0555-4.6029.0519-.2275-.5883-1.9776-.4153-2.1001 1.4535-.9626 1.834.105 2.4225-.3326.2942-.2275.7093.1751.8133-.1925.3806-1.3301-.5191-3.6403-1.5227-4.6378-.3288-.3326-.8308-.5426-1.3843-.6476-.2249-.2975-.571-.595-1.0555-.8576-.5537-.2975-1.7476-.6825-2.3706-.7875-.4325-.07-.5364.0525-.7094.0875.173.0175.9863.42 1.142.4375-.1557.105-.6229 0-.9171.1225-.1557.07-.2595.3325-.2595.4551.8479-.0875 2.1802 0 2.9589.35-.623.07-1.5746.1575-1.9726.3675-1.1766.6301-1.713 2.1002-1.4016 3.8678.3115 1.7677 1.6784 8.1905 2.1283 10.3434.4326 2.1526-.9344 3.5351-1.8168 3.9203l.9344.07-.3115.7c1.1247.1225 2.3706-.245 2.3706-.245-.2423.7001-1.938.9451-1.938.9451s.8132.2448 2.1283-.245c1.315-.5076 2.1283-.8228 2.1283-.8228l.6229 1.6453 1.194-1.1901.5018 1.2601c-.0348-.0175.8997-.3325.5883-1.7851z" fill="#d5d7d8" fill-rule="evenodd"/></g><g mask="url(#n)"><path clip-rule="evenodd" d="m91.6447 37.9206c-.3116-1.4526-2.1285-4.7254-2.8031-6.1255-.6922-1.3826-1.3672-3.3428-1.0557-4.6029.0521-.2275.0521-1.1726.2424-1.2951 1.4533-.9626 1.3495-.035 1.938-.455.294-.2275.5362-.4901.64-.8576.3807-1.3301-.5191-3.6403-1.5227-4.6379-.3285-.3325-.8305-.5425-1.3842-.6475-.225-.2975-.571-.5951-1.0553-.8576-.9344-.5075-2.0938-.7-3.1667-.5075.173.0175.5711.3675.7269.4025-.2423.1575-.8827.14-.8652.5076.8477-.0876 1.7821.0525 2.5607.4025-.6227.07-1.2112.2275-1.609.4375-1.1939.6301-1.5056 1.8902-1.1939 3.6578.3113 1.7677 1.6782 8.2082 2.1281 10.3433.4326 2.1527-.9342 3.5353-1.7994 3.9204l.9342.07-.3113.7c1.1248.1225 2.3704-.245 2.3704-.245-.2422.7001-1.9378.9451-1.9378.9451s.8131.245 2.1282-.245c1.315-.5076 2.1283-.8226 2.1283-.8226l.6231 1.6451 1.1937-1.2076.502 1.2601c-.0348-.0175.8998-.3325.5883-1.7851z" fill="#fff" fill-rule="evenodd"/></g><path clip-rule="evenodd" d="m84.4622 23.4291c0-.3675.2941-.6651.6575-.6651s.6575.2976.6575.6651-.2941.665-.6575.665-.6575-.2975-.6575-.665z" fill="#2d4f8e" fill-rule="evenodd"/><path clip-rule="evenodd" d="m85.2408 23.2511c0-.1123.0899-.2246.2247-.2246.1123 0 .2246.0898.2246.2246 0 .1123-.0898.2246-.2246.2246s-.2247-.0898-.2247-.2246z" fill="#fff" fill-rule="evenodd"/><path clip-rule="evenodd" d="m88.9437 23.0268c0-.3151.2596-.5601.571-.5601.3117 0 .5712.2625.5712.5601 0 .315-.2595.5775-.5712.5775-.3287 0-.571-.2625-.571-.5775z" fill="#2d4f8e" fill-rule="evenodd"/><path clip-rule="evenodd" d="m89.6012 22.9368c0-.1404.1122-.2246.2248-.2246.1403 0 .2245.1123.2245.2246 0 .1404-.1126.2246-.2245.2246-.1126 0-.2248-.1123-.2248-.2246z" fill="#fff" fill-rule="evenodd"/><path clip-rule="evenodd" d="m84.3337 21.2622c-.7029.2662-.4393.8153-.4393.8153s-.0176-.2995.4745-.5823c.4745-.2995.9841-.0832.9841-.0832s-.1917-.2388-.5826-.2388c-.1251 0-.2706.0245-.4367.089z" fill="#2d4f8e" fill-rule="evenodd"/><path clip-rule="evenodd" d="m88.5178 21.4745s.1565-.2364.7304-.2364c.261 0 .626.1891.626.1891s-.1391-.3307-.5389-.3936c-.0593-.0078-.1143-.0112-.1654-.0112-.5785 0-.6521.4521-.6521.4521z" fill="#2d4f8e" fill-rule="evenodd"/><path clip-rule="evenodd" d="m87.0565 25.8873c.0696-.4004 1.0968-1.149 1.828-1.2013.7312-.0522.9575-.0348 1.5668-.1741.6093-.1392 2.1762-.5396 2.6114-.7311.4352-.209 2.2808.1044.9751.8182-.5573.3134-2.0719.8879-3.1687 1.2186-1.0793.3308-1.7409-.3133-2.1065.2264-.2785.4178-.0522 1.0097 1.2361 1.1315 1.7409.1567 3.4297-.7834 3.6038-.2785.1914.5049-1.4973 1.1316-2.5243 1.149-1.0273.0174-3.099-.6789-3.4124-.8879-.2785-.2437-.6963-.7486-.6093-1.2708z" fill="#fdd20a" fill-rule="evenodd"/><path clip-rule="evenodd" d="m87.84 31.1621s-2.4547-1.3057-2.4895-.7834c-.0348.5398 0 2.6984.2785 2.8725.2786.1567 2.3329-1.062 2.3329-1.062z" fill="#65bc46" fill-rule="evenodd"/><path clip-rule="evenodd" d="m88.7801 31.0753s1.6713-1.2709 2.0543-1.1838c.3654.087.4524 2.6984.1218 2.8203-.3307.122-2.2458-.6614-2.2458-.6614z" fill="#65bc46" fill-rule="evenodd"/><path clip-rule="evenodd" d="m87.248 31.3018c0 .8529-.1219 1.2186.2437 1.3057.3656.087 1.062 0 1.3057-.1567.2438-.1569.0349-1.2709-.0348-1.4798-.087-.2091-1.5146-.035-1.5146.3308z" fill="#43a244" fill-rule="evenodd"/><path clip-rule="evenodd" d="m87.4049 31.11c0 .8531-.1219 1.2363.2437 1.3057.3656.0871 1.062 0 1.3057-.1565.2437-.1568.035-1.271-.0348-1.4798-.0871-.209-1.5146-.035-1.5146.3306z" fill="#65bc46" fill-rule="evenodd"/><path clip-rule="evenodd" d="m87.785 35.57c5.9564 0 10.785-4.8286 10.785-10.785s-4.8286-10.785-10.785-10.785-10.785 4.8286-10.785 10.785 4.8286 10.785 10.785 10.785z" fill="#de5833" fill-rule="evenodd"/><g mask="url(#o)"><path clip-rule="evenodd" d="m89.7857 34.4124c-.4512-.8772-.8826-1.6843-1.1504-2.2181-.7118-1.4254-1.4272-3.435-1.1019-4.731.0593-.2355-.6705-8.7197-1.1863-8.9929-.5734-.3056-1.8191-.7082-2.4644-.8161-.4494-.0719-.5518.0539-.7406.0827.178.018 1.0246.435 1.1882.4584-.1636.1114-.6471-.0036-.9563.133-.1564.0719-.2732.3379-.2696.4637.8807-.0899 2.2576-.0018 3.0737.3595-.6489.0737-1.6339.1564-2.0581.3793-1.2295.6471-1.7724 2.1624-1.4488 3.9779.3217 1.8118 1.7471 8.4212 2.2019 10.6286.453 2.2055 5.6639 1.7435 4.9108.275z" fill="#d5d7d8" fill-rule="evenodd"/><path d="m87.9253 27.1595c-.3236 1.296.3882 3.3038 1.1018 4.731.2398.4768.6097 1.1727 1.0078 1.9431-.9285.2301-3.1813.5522-4.7646 0-.4529-2.2019-1.8783-8.8131-2.2037-10.6286-.3235-1.8155 0-3.1115 1.2331-3.7586.4224-.2229 1.0264-.3846 1.6735-.4565-.8161-.3631-1.7832-.5033-2.6675-.4135-.0036-.3738.6561-.3523.9041-.5212-.1636-.0234-.5698-.3901-.7495-.4081 1.1218-.1924 2.2758-.0105 3.284.5177.5141.275.8772.5698 1.1019.879.5859.1114 1.1036.3235 1.4416.6615 1.0389 1.0371 1.9664 3.408 1.5782 4.7705-.1097.3775-.3595.6525-.6723.8808-.6076.4422-.4997-.5123-2.0114.4763-.1959.1277-.1959 1.0911-.257 1.3266z" fill="#fff"/></g><path clip-rule="evenodd" d="m85.1733 23.9779c.3763 0 .6813-.305.6813-.6812 0-.3763-.305-.6813-.6813-.6813-.3762 0-.6812.305-.6812.6813 0 .3762.305.6812.6812.6812z" fill="#2d4f8e" fill-rule="evenodd"/><path clip-rule="evenodd" d="m85.4772 23.2463c.0973 0 .1761-.0788.1761-.1761s-.0788-.1762-.1761-.1762-.1762.0789-.1762.1762.0789.1761.1762.1761z" fill="#fff" fill-rule="evenodd"/><path clip-rule="evenodd" d="m89.7246 23.4764c.3226 0 .5842-.2615.5842-.5842 0-.3226-.2616-.5842-.5842-.5842-.3227 0-.5842.2616-.5842.5842 0 .3227.2615.5842.5842.5842z" fill="#2d4f8e" fill-rule="evenodd"/><path clip-rule="evenodd" d="m89.9852 22.8491c.0834 0 .151-.0676.151-.151s-.0676-.151-.151-.151-.151.0676-.151.151.0676.151.151.151z" fill="#fff" fill-rule="evenodd"/><path clip-rule="evenodd" d="m85.3693 21.3248s-.5141-.2337-1.012.0809c-.4979.3128-.4799.6327-.4799.6327s-.2642-.5896.4404-.879c.7064-.2876 1.0515.1654 1.0515.1654z" fill="url(#h)" fill-rule="evenodd"/><path clip-rule="evenodd" d="m90.0769 21.2781s-.3684-.2103-.656-.2067c-.5878.0071-.7478.266-.7478.266s.0989-.6184.8502-.4943c.245.0448.4522.2075.5536.435z" fill="url(#i)" fill-rule="evenodd"/><path clip-rule="evenodd" d="m87.2584 25.9228c.0683-.4134 1.1325-1.1917 1.8874-1.2403.755-.0467.9886-.0359 1.6178-.1869.6309-.1492 2.254-.5536 2.7016-.7621.4494-.2068 2.3547.1024 1.012.852-.5806.3253-2.1462.9221-3.2661 1.2564-1.118.3344-1.7957-.3199-2.1677.2301-.2948.4368-.0594 1.0354 1.2762 1.1594 1.8047.1672 3.5339-.8125 3.7244-.2912s-1.5494 1.1684-2.61 1.1899c-1.0605.0198-3.1959-.701-3.5159-.9239-.3217-.2211-.7477-.7423-.6597-1.2834z" fill="#fdd20a" fill-rule="evenodd"/><path clip-rule="evenodd" d="m91.1591 29.608c-.3811-.0845-2.1139 1.2259-2.1139 1.2259h.0018l-.0809 1.0066s1.9809.8107 2.3188.6849c.3379-.1295.2534-2.8311-.1258-2.9174zm-5.6604.5069c.0414-.5482 2.5758.8053 2.5758.8053l.0018-.0018.1259 1.0569s-2.1121 1.2655-2.4087 1.0965c-.2948-.169-.3379-2.4069-.2948-2.9569z" fill="#65bc46" fill-rule="evenodd"/><path clip-rule="evenodd" d="m87.4616 31.0622c0 .8862-.1277 1.2672.2516 1.3517.3811.0845 1.0983 0 1.3535-.169.2517-.1689.0414-1.3085-.0431-1.5206-.0845-.2122-1.5638-.0432-1.5638.3379z" fill="#43a244" fill-rule="evenodd"/><path clip-rule="evenodd" d="m87.6234 30.8663c0 .8861-.1276 1.2654.2517 1.3499.3793.0863 1.0965 0 1.3517-.169.2535-.1689.0431-1.3086-.0413-1.5207-.0845-.2121-1.5639-.0413-1.5639.338z" fill="#65bc46" fill-rule="evenodd"/><path clip-rule="evenodd" d="m87.7851 33.8287c4.9946 0 9.0436-4.049 9.0436-9.0437s-4.049-9.0437-9.0436-9.0437c-4.9947 0-9.0437 4.049-9.0437 9.0437s4.049 9.0437 9.0437 9.0437zm0 .8425c5.46 0 9.8862-4.4262 9.8862-9.8862s-4.4262-9.8863-9.8862-9.8863c-5.4601 0-9.8863 4.4263-9.8863 9.8863s4.4262 9.8862 9.8863 9.8862z" fill="#fff" fill-rule="evenodd"/><path d="m108.344 16.7671h.899v16.1738h-.899z" fill="#666"/></g></svg>