<svg fill="none" height="514" viewBox="0 0 399 514" width="399" xmlns="http://www.w3.org/2000/svg" xmlns:xlink="http://www.w3.org/1999/xlink"><filter id="a" color-interpolation-filters="sRGB" filterUnits="userSpaceOnUse" height="160.328" width="267.696" x="65.1839" y="79.8031"><feFlood flood-opacity="0" result="BackgroundImageFix"/><feColorMatrix in="SourceAlpha" type="matrix" values="0 0 0 0 0 0 0 0 0 0 0 0 0 0 0 0 0 0 127 0"/><feOffset/><feGaussianBlur stdDeviation="1.404"/><feColorMatrix type="matrix" values="0 0 0 0 0 0 0 0 0 0 0 0 0 0 0 0 0 0 0.1 0"/><feBlend in2="BackgroundImageFix" mode="normal" result="effect1_dropShadow"/><feBlend in="SourceGraphic" in2="effect1_dropShadow" mode="normal" result="shape"/></filter><filter id="b" color-interpolation-filters="sRGB" filterUnits="userSpaceOnUse" height="81" width="366" x="17" y="4.81958"><feFlood flood-opacity="0" result="BackgroundImageFix"/><feColorMatrix in="SourceAlpha" type="matrix" values="0 0 0 0 0 0 0 0 0 0 0 0 0 0 0 0 0 0 127 0"/><feOffset dy="6"/><feGaussianBlur stdDeviation="11.5"/><feColorMatrix type="matrix" values="0 0 0 0 0 0 0 0 0 0 0 0 0 0 0 0 0 0 0.16 0"/><feBlend in2="BackgroundImageFix" mode="normal" result="effect1_dropShadow"/><feBlend in="SourceGraphic" in2="effect1_dropShadow" mode="normal" result="shape"/></filter><filter id="c" color-interpolation-filters="sRGB" filterUnits="userSpaceOnUse" height="53.9677" width="356.387" x="21.3063" y="12.4969"><feFlood flood-opacity="0" result="BackgroundImageFix"/><feColorMatrix in="SourceAlpha" type="matrix" values="0 0 0 0 0 0 0 0 0 0 0 0 0 0 0 0 0 0 127 0"/><feOffset/><feGaussianBlur stdDeviation="2"/><feColorMatrix type="matrix" values="0 0 0 0 0 0 0 0 0 0 0 0 0 0 0 0 0 0 0.15 0"/><feBlend in2="BackgroundImageFix" mode="normal" result="effect1_dropShadow"/><feBlend in="SourceGraphic" in2="effect1_dropShadow" mode="normal" result="shape"/></filter><filter id="d" color-interpolation-filters="sRGB" filterUnits="userSpaceOnUse" height="261.054" width="267.82" x="65.1839" y="249.425"><feFlood flood-opacity="0" result="BackgroundImageFix"/><feColorMatrix in="SourceAlpha" type="matrix" values="0 0 0 0 0 0 0 0 0 0 0 0 0 0 0 0 0 0 127 0"/><feOffset/><feGaussianBlur stdDeviation="1.404"/><feColorMatrix type="matrix" values="0 0 0 0 0 0 0 0 0 0 0 0 0 0 0 0 0 0 0.1 0"/><feBlend in2="BackgroundImageFix" mode="normal" result="effect1_dropShadow"/><feBlend in="SourceGraphic" in2="effect1_dropShadow" mode="normal" result="shape"/></filter><filter id="e" color-interpolation-filters="sRGB" filterUnits="userSpaceOnUse" height="20.2997" width="20.2997" x="296.364" y="394.331"><feFlood flood-opacity="0" result="BackgroundImageFix"/><feColorMatrix in="SourceAlpha" type="matrix" values="0 0 0 0 0 0 0 0 0 0 0 0 0 0 0 0 0 0 127 0"/><feOffset dy=".845821"/><feGaussianBlur stdDeviation=".845821"/><feColorMatrix type="matrix" values="0 0 0 0 0 0 0 0 0 0 0 0 0 0 0 0 0 0 0.236158 0"/><feBlend in2="BackgroundImageFix" mode="normal" result="effect1_dropShadow"/><feBlend in="SourceGraphic" in2="effect1_dropShadow" mode="normal" result="shape"/></filter><radialGradient id="f" cx="0" cy="0" gradientTransform="matrix(0 -12.6347 12.6347 0 274.5 225.26)" gradientUnits="userSpaceOnUse" r="1"><stop offset="0" stop-color="#f6b151"/><stop offset="1" stop-color="#e09d40"/></radialGradient><linearGradient id="g"><stop offset=".01" stop-color="#6176b9"/><stop offset=".69" stop-color="#394a9f"/></linearGradient><linearGradient id="h" gradientUnits="userSpaceOnUse" x1="42.4243" x2="44.3247" xlink:href="#g" y1="35.9169" y2="35.9169"/><linearGradient id="i" gradientUnits="userSpaceOnUse" x1="48.4005" x2="50.1324" xlink:href="#g" y1="35.052" y2="35.052"/><clipPath id="j"><path d="m67.9919 425.625h262.204v37.2161h-262.204z"/></clipPath><clipPath id="k"><path d="m81.5251 393.485h235.138v20.2997h-235.138z"/></clipPath><clipPath id="l"><path d="m67.9919 252.233h262.204v43.9827h-262.204z"/></clipPath><mask id="m" height="22" maskUnits="userSpaceOnUse" width="13" x="41" y="30"><path clip-rule="evenodd" d="m53.2025 50.4871c-1.5156.7031-3.2012 1.0955-4.9775 1.0955-2.4858 0-4.7962-.7705-6.7099-2.0892v-19.3567h11.6874z" fill="#fff" fill-rule="evenodd"/></mask><mask id="n" height="22" maskUnits="userSpaceOnUse" width="13" x="41" y="30"><path clip-rule="evenodd" d="m53.7147 50.2342c-1.6442.8614-3.5108 1.3485-5.49 1.3485-2.2922 0-4.4352-.6551-6.2556-1.7911v-19.7249h11.7456z" fill="#fff" fill-rule="evenodd"/></mask><mask id="o" height="24" maskUnits="userSpaceOnUse" width="24" x="35" y="27"><path clip-rule="evenodd" d="m47.305 50.8361c6.3684 0 11.5311-5.1627 11.5311-11.5311 0-6.3683-5.1627-11.531-11.5311-11.531-6.3683 0-11.531 5.1627-11.531 11.531 0 6.3684 5.1627 11.5311 11.531 11.5311z" fill="#fff" fill-rule="evenodd"/></mask><g filter="url(#a)"><rect fill="#fff" height="154.712" rx="4.2271" width="262.08" x="67.9919" y="82.6111"/><g fill="#888"><path d="m125.471 223.293c1.167 0 2.121-.497 2.78-1.238v-2.526h-3.206v1.045h2.029v1.045c-.304.294-.913.609-1.603.609-1.339 0-2.333-1.035-2.333-2.445 0-1.431.994-2.445 2.333-2.445.751 0 1.39.395 1.756.903l.963-.558c-.537-.771-1.4-1.4-2.719-1.4-1.968 0-3.55 1.369-3.55 3.5 0 2.12 1.582 3.51 3.55 3.51z"/><path d="m135.789 223.161-1.664-2.658c.822-.132 1.613-.791 1.613-1.988 0-1.258-.883-2.121-2.222-2.121h-2.972v6.767h1.187v-2.526h1.186l1.492 2.526zm-2.425-3.571h-1.633v-2.151h1.633c.669 0 1.156.416 1.156 1.065 0 .66-.487 1.086-1.156 1.086z"/><path d="m144.078 223.161-2.658-6.767h-1.481l-2.658 6.767h1.349l.497-1.309h3.104l.497 1.309zm-2.181-2.354h-2.435l1.217-3.226z"/><path d="m148.39 223.161c2.11 0 3.53-1.39 3.53-3.388 0-1.979-1.42-3.379-3.541-3.379h-2.516v6.767zm-.011-1.045h-1.329v-4.677h1.34c1.501 0 2.313 1.035 2.313 2.334 0 1.288-.853 2.343-2.324 2.343z"/><path d="m158.759 223.161v-1.045h-3.449v-1.887h3.378v-1.045h-3.378v-1.745h3.449v-1.045h-4.636v6.767z"/><path d="m169.343 223.161v-1.045h-3.449v-1.887h3.378v-1.045h-3.378v-1.745h3.449v-1.045h-4.636v6.767z"/><path d="m177.483 223.161v-6.767h-1.187v4.687l-3.46-4.687h-1.217v6.767h1.187v-4.839l3.53 4.839z"/><path d="m185.872 223.161v-6.767h-1.187v2.76h-3.521v-2.76h-1.187v6.767h1.187v-2.962h3.521v2.962z"/><path d="m194.463 223.161-2.658-6.767h-1.481l-2.658 6.767h1.349l.497-1.309h3.104l.497 1.309zm-2.181-2.354h-2.435l1.217-3.226z"/><path d="m202.112 223.161v-6.767h-1.187v4.687l-3.459-4.687h-1.218v6.767h1.187v-4.839l3.531 4.839z"/><path d="m207.863 223.283c1.36 0 2.202-.721 2.719-1.532l-1.014-.507c-.325.558-.984.984-1.705.984-1.339 0-2.333-1.035-2.333-2.445 0-1.431.994-2.445 2.333-2.445.721 0 1.38.416 1.705.984l1.004-.528c-.497-.811-1.349-1.511-2.709-1.511-1.998 0-3.55 1.41-3.55 3.5 0 2.079 1.552 3.5 3.55 3.5z"/><path d="m217.215 223.161v-1.045h-3.449v-1.887h3.378v-1.045h-3.378v-1.745h3.449v-1.045h-4.636v6.767z"/><path d="m222.017 223.161c2.11 0 3.531-1.39 3.531-3.388 0-1.979-1.421-3.379-3.541-3.379h-2.516v6.767zm-.01-1.045h-1.329v-4.677h1.339c1.502 0 2.313 1.035 2.313 2.334 0 1.288-.852 2.343-2.323 2.343z"/><path d="m232.61 223.161v-2.932h3.378v-1.045h-3.378v-1.745h3.449v-1.045h-4.636v6.767z"/><path d="m243.441 223.161-1.664-2.658c.822-.132 1.613-.791 1.613-1.988 0-1.258-.883-2.121-2.222-2.121h-2.972v6.767h1.187v-2.526h1.187l1.491 2.526zm-2.425-3.571h-1.633v-2.151h1.633c.67 0 1.157.416 1.157 1.065 0 .66-.487 1.086-1.157 1.086z"/><path d="m248.798 223.283c2.019 0 3.46-1.481 3.46-3.5s-1.441-3.5-3.46-3.5c-2.029 0-3.459 1.481-3.459 3.5s1.43 3.5 3.459 3.5zm0-1.055c-1.369 0-2.242-1.055-2.242-2.445 0-1.4.873-2.445 2.242-2.445 1.36 0 2.242 1.045 2.242 2.445 0 1.39-.882 2.445-2.242 2.445z"/><path d="m261.478 223.161v-6.767h-1.674l-1.837 4.647-1.846-4.647h-1.674v6.767h1.187v-5.225l2.08 5.225h.507l2.07-5.225v5.225z"/></g><path clip-rule="evenodd" d="m267.625 219.5c0-3.797 3.078-6.875 6.875-6.875 1.823 0 3.572.724 4.861 2.014 1.29 1.289 2.014 3.038 2.014 4.861 0 3.797-3.078 6.875-6.875 6.875s-6.875-3.078-6.875-6.875zm8.519.894c-.23.535-.749.888-1.332.903-.469 0-.919-.191-1.243-.531-.325-.339-.497-.797-.475-1.266-.023-.47.148-.928.473-1.268s.775-.531 1.245-.529c.587.01 1.113.364 1.344.903l1.378-.668c-.492-1.048-1.565-1.698-2.722-1.647-1.893 0-3.359 1.303-3.359 3.209s1.453 3.209 3.359 3.209c1.154.032 2.218-.621 2.71-1.665z" fill="url(#f)" fill-rule="evenodd"/><path d="m146.593 203.659c1.668 0 2.679-.742 3.218-1.483l-1.398-1.314c-.387.556-.977.893-1.718.893-1.298 0-2.208-.961-2.208-2.376s.91-2.359 2.208-2.359c.741 0 1.331.304 1.718.877l1.398-1.315c-.539-.741-1.55-1.465-3.218-1.465-2.493 0-4.313 1.769-4.313 4.262 0 2.511 1.82 4.28 4.313 4.28z" fill="#333"/><path d="m153.35 203.456v-5.374c.354-.522 1.297-.927 2.005-.927.253 0 .438.017.59.051v-2.089c-1.011 0-2.005.589-2.595 1.297v-1.095h-2.14v8.137z" fill="#333"/><path d="m161.106 203.659c1.264 0 2.544-.388 3.353-1.129l-.961-1.415c-.522.505-1.465.791-2.156.791-1.382 0-2.19-.825-2.342-1.819h6.048v-.506c0-2.645-1.634-4.464-4.077-4.464-2.46 0-4.212 1.903-4.212 4.262 0 2.612 1.87 4.28 4.347 4.28zm1.887-5.055h-4.01c.084-.809.657-1.735 1.988-1.735 1.415 0 1.955.96 2.022 1.735z" fill="#333"/><path d="m170.418 203.659c1.264 0 2.544-.388 3.353-1.129l-.96-1.415c-.522.505-1.466.791-2.157.791-1.381 0-2.19-.825-2.342-1.819h6.049v-.506c0-2.645-1.634-4.464-4.077-4.464-2.46 0-4.212 1.903-4.212 4.262 0 2.612 1.87 4.28 4.346 4.28zm1.887-5.055h-4.009c.084-.809.657-1.735 1.988-1.735 1.415 0 1.954.96 2.021 1.735z" fill="#333"/><path d="m180.556 203.659c2.09 0 3.606-1.567 3.606-4.28 0-2.712-1.516-4.262-3.606-4.262-.994 0-1.887.438-2.51 1.23v-1.028h-2.14v11.237h2.14v-4.144c.674.842 1.55 1.247 2.51 1.247zm-.674-1.904c-.69 0-1.482-.421-1.836-.944v-2.864c.371-.539 1.146-.927 1.836-.927 1.23 0 2.073.961 2.073 2.359 0 1.415-.843 2.376-2.073 2.376z" fill="#333"/><path d="m185.459 206.624c.253.084.809.135 1.045.135 1.398-.034 2.477-.438 3.083-1.972l3.825-9.468h-2.292l-2.139 5.661-2.123-5.661h-2.292l3.303 8.238-.304.708c-.202.438-.573.59-1.128.59-.203 0-.489-.051-.674-.135z" fill="#333"/><path d="m197.298 203.659c2.258 0 3.538-1.096 3.538-2.595 0-3.285-4.835-2.274-4.835-3.471 0-.455.505-.792 1.28-.792.995 0 1.921.438 2.41.944l.859-1.516c-.809-.641-1.904-1.112-3.269-1.112-2.156 0-3.335 1.196-3.335 2.561 0 3.201 4.818 2.106 4.818 3.437 0 .505-.438.859-1.365.859-1.01 0-2.207-.556-2.813-1.129l-.927 1.55c.859.792 2.224 1.264 3.639 1.264z" fill="#333"/><path d="m203.457 194.443c.708 0 1.281-.573 1.281-1.281 0-.707-.573-1.263-1.281-1.263-.69 0-1.263.556-1.263 1.263 0 .708.573 1.281 1.263 1.281zm1.079 9.013v-8.137h-2.14v8.137z" fill="#333"/><path d="m209.387 203.659c.893 0 1.465-.236 1.786-.523l-.455-1.634c-.118.135-.422.253-.742.253-.471 0-.741-.388-.741-.91v-3.656h1.651v-1.87h-1.651v-2.224h-2.14v2.224h-1.348v1.87h1.348v4.229c0 1.466.792 2.241 2.292 2.241z" fill="#333"/><path d="m216.175 203.659c1.263 0 2.544-.388 3.352-1.129l-.96-1.415c-.522.505-1.466.791-2.157.791-1.381 0-2.19-.825-2.341-1.819h6.048v-.506c0-2.645-1.634-4.464-4.077-4.464-2.46 0-4.212 1.903-4.212 4.262 0 2.612 1.87 4.28 4.347 4.28zm1.887-5.055h-4.01c.084-.809.657-1.735 1.988-1.735 1.415 0 1.954.96 2.022 1.735z" fill="#333"/><path d="m222.692 203.642c.741 0 1.365-.624 1.365-1.365s-.624-1.365-1.365-1.365-1.365.624-1.365 1.365.624 1.365 1.365 1.365z" fill="#333"/><path d="m229.649 203.659c1.668 0 2.679-.742 3.218-1.483l-1.399-1.314c-.387.556-.977.893-1.718.893-1.297 0-2.207-.961-2.207-2.376s.91-2.359 2.207-2.359c.741 0 1.331.304 1.718.877l1.399-1.315c-.539-.741-1.55-1.465-3.218-1.465-2.494 0-4.313 1.769-4.313 4.262 0 2.511 1.819 4.28 4.313 4.28z" fill="#333"/><path d="m238.04 203.659c2.695 0 4.313-1.972 4.313-4.28s-1.618-4.262-4.313-4.262c-2.679 0-4.297 1.954-4.297 4.262s1.618 4.28 4.297 4.28zm0-1.904c-1.331 0-2.073-1.095-2.073-2.376 0-1.263.742-2.359 2.073-2.359 1.347 0 2.089 1.096 2.089 2.359 0 1.281-.742 2.376-2.089 2.376z" fill="#333"/><path d="m256.205 203.456v-5.88c0-1.667-.893-2.459-2.392-2.459-1.247 0-2.325.741-2.797 1.465-.287-.909-1.062-1.465-2.258-1.465-1.247 0-2.308.775-2.662 1.246v-1.044h-2.14v8.137h2.14v-5.492c.32-.438.944-.944 1.685-.944.876 0 1.213.54 1.213 1.298v5.138h2.157v-5.492c.303-.438.926-.944 1.684-.944.876 0 1.213.54 1.213 1.298v5.138z" fill="#333"/><path d="m198.883 179.823c23.47 0 42.496-19.159 42.496-42.794 0-23.634-19.026-42.7932-42.496-42.7932s-42.496 19.1592-42.496 42.7932c0 23.635 19.026 42.794 42.496 42.794z" fill="#999" fill-opacity=".25"/><path d="m198.883 94.2359c-5.673-.007-11.289 1.1329-16.516 3.3523h.636c18.84-.0026 35.714 11.7358 42.38 29.4798 6.665 17.744 1.73 37.79-12.395 50.344 19.548-6.916 31.295-27.017 27.807-47.583s-21.193-35.602-41.912-35.5931z" fill="#333" fill-opacity=".15"/><path d="m241.303 137.808c.015-10.85-4.21-21.267-11.757-28.989h-70.138c-1.462 0-2.647 1.197-2.647 2.673v48.014c0 2.356 1.891 4.266 4.224 4.266h71.231c5.893-7.344 9.102-16.512 9.087-25.964z" fill="#fff"/><path d="m229.213 107.06h-72.917c-.711-.001-1.394.283-1.897.79-.503.506-.785 1.194-.784 1.91v3.847h80.835c-1.527-2.351-3.282-4.543-5.237-6.547z" fill="#777"/><path d="m203.374 146.616h-14.635c-.484-.004-.875-.398-.88-.886v-8.938c.007-.486.397-.879.88-.885h14.647c.484.004.875.398.879.885v8.938c.011.24-.08.474-.25.642-.17.169-.403.258-.641.244z" fill="#999" fill-opacity=".25"/><path d="m222.653 146.616h-14.65c-.483-.006-.873-.399-.88-.886v-8.938c.007-.486.397-.879.88-.885h14.65c.483.006.874.399.88.885v8.938c.003.236-.089.463-.254.63-.166.167-.391.259-.626.256z" fill="#dee2ea"/><path d="m212.439 152.317h-23.217c-.366.001-.716-.145-.974-.406-.258-.26-.402-.614-.4-.982-.002-.368.142-.721.4-.982s.608-.407.974-.405h23.217c.365-.002.717.144.975.405.259.26.404.614.403.982-.023.757-.627 1.365-1.378 1.388z" fill="#999" fill-opacity=".25"/><path d="m225.825 152.317h-8.758c-.365.001-.716-.145-.974-.406-.258-.26-.402-.614-.4-.982-.002-.368.142-.721.4-.982s.609-.407.974-.405h8.758c.366-.002.717.144.976.405.259.26.403.614.402.982.001.368-.143.722-.402.982-.259.261-.61.407-.976.406z" fill="#dee2ea"/><path d="m197.98 157.883h-8.758c-.366.001-.716-.145-.974-.406-.258-.26-.402-.614-.4-.982-.002-.368.142-.722.4-.982.258-.261.608-.407.974-.406h8.758c.366-.001.717.145.976.406.258.26.403.614.402.982.001.368-.144.722-.402.982-.259.261-.61.407-.976.406z" fill="#999" fill-opacity=".25"/><path d="m215.387 157.883h-8.762c-.366.001-.717-.145-.975-.406-.258-.26-.402-.614-.399-.982-.003-.368.141-.722.399-.982.258-.261.609-.407.975-.406h8.762c.365-.001.716.145.974.406.258.26.402.614.4.982-.021.756-.623 1.365-1.374 1.388z" fill="#999" fill-opacity=".25"/><path d="m202.302 157.863c.761 0 1.378-.621 1.378-1.388 0-.766-.617-1.387-1.378-1.387s-1.378.621-1.378 1.387c0 .767.617 1.388 1.378 1.388z" fill="#999" fill-opacity=".25"/><path d="m223.914 157.863c.761 0 1.378-.621 1.378-1.388 0-.766-.617-1.387-1.378-1.387s-1.378.621-1.378 1.387c0 .767.617 1.388 1.378 1.388z" fill="#dee2ea"/><path d="m219.937 157.863c.761 0 1.378-.621 1.378-1.388 0-.766-.617-1.387-1.378-1.387s-1.378.621-1.378 1.387c0 .767.617 1.388 1.378 1.388z" fill="#dee2ea"/><path d="m228.507 157.882h7.502c.5-.901.967-1.823 1.401-2.767-.047 0-.098 0-.145 0h-8.758c-.719.055-1.274.658-1.274 1.384s.555 1.329 1.274 1.383z" fill="#dee2ea"/><path d="m227.243 146.616h13.065c.714-3.145 1.074-6.361 1.071-9.587 0-.395 0-.751 0-1.122h-14.132c-.483.006-.873.399-.88.885v8.938c.004.486.393.88.876.886z" fill="#dee2ea"/><path d="m241.191 132.977c-.435-4.719-1.652-9.332-3.6-13.646h-47.894c-.486 0-.953.194-1.297.541-.343.346-.537.815-.537 1.305v9.994c0 .489.194.959.537 1.305.344.346.811.541 1.297.541h51.254c.081-.008.161-.021.24-.04z" fill="#999" fill-opacity=".25"/><path d="m158.899 111.606c.698 0 1.264-.57 1.264-1.273s-.566-1.273-1.264-1.273-1.264.57-1.264 1.273.566 1.273 1.264 1.273z" fill="#aaa"/><path d="m163.3 111.606c.698 0 1.264-.57 1.264-1.273s-.566-1.273-1.264-1.273-1.264.57-1.264 1.273.566 1.273 1.264 1.273z" fill="#aaa"/><path d="m167.697 111.606c.698 0 1.264-.57 1.264-1.273s-.566-1.273-1.264-1.273-1.264.57-1.264 1.273.566 1.273 1.264 1.273z" fill="#aaa"/><path d="m182.646 163.907h-24.732c-2.368-.01-4.286-1.94-4.299-4.324v-46.055h29.051z" fill="#3fa140"/><path d="m174.19 143.88h-13.54c-.65 0-1.178-.53-1.178-1.185s.528-1.186 1.178-1.186h13.54c.65 0 1.178.531 1.178 1.186s-.528 1.185-1.178 1.185z" fill="#fff" opacity=".59"/><path d="m174.19 149.581h-13.54c-.65 0-1.178-.531-1.178-1.186s.528-1.186 1.178-1.186h13.54c.65 0 1.178.531 1.178 1.186s-.528 1.186-1.178 1.186z" fill="#fff" opacity=".59"/><path d="m170.747 155.321h-10.097c-.65 0-1.178-.531-1.178-1.186s.528-1.186 1.178-1.186h10.097c.651 0 1.178.531 1.178 1.186s-.527 1.186-1.178 1.186z" fill="#fff" opacity=".59"/><path d="m174.19 155.321c-.651 0-1.178-.531-1.178-1.186s.527-1.186 1.178-1.186c.65 0 1.178.531 1.178 1.186s-.528 1.186-1.178 1.186z" fill="#fff" opacity=".59"/><path d="m168.172 138.124c5.513 0 9.983-4.501 9.983-10.053s-4.47-10.053-9.983-10.053c-5.514 0-9.984 4.501-9.984 10.053s4.47 10.053 9.984 10.053z" fill="#fff" opacity=".59"/><path d="m174.437 135.851c-.082-.415-.249-.808-.491-1.154-.498-.692-1.644-.692-2.563-.731-.373.035-.749-.004-1.107-.115-.577-.233-.691-1-.73-1.388-.306-.96-.727-1.269-1.178-1.154l-.228.229-.231-.229c-.46-.079-.648 0-.954 1.154-.04.396-.193 1.155-.727 1.388-.359.11-.736.149-1.111.115-.918 0-2.104.039-2.563.731-.284.353-.461.782-.51 1.233 1.779 1.445 3.995 2.233 6.281 2.234 2.242-.034 4.403-.851 6.112-2.313z" fill="#9b7a56"/><path d="m171.803 127.419c0 2.582-1.606 5.74-3.631 5.74-2.026 0-3.636-3.198-3.636-5.74s1.606-4.661 3.636-4.661c2.029 0 3.631 2.08 3.631 4.661z" fill="#9b7a56"/><path d="m164.462 123.49h6.96v2.696h-6.96z" fill="#af58c4"/><path d="m168.207 123.49h3.518v2.696h-3.518z" fill="#ce6ce5"/><path clip-rule="evenodd" d="m174.055 123.592c.191.39.207.843.045 1.246.334.347.479.836.389 1.311s-.403.877-.841 1.076c.687.886.381 2.04-.612 2.349-.082.772-.725 1.36-1.496 1.367-.204.411-.585.703-1.032.791h-.075c.79-1.096 1.204-2.421 1.178-3.775-.006-.373-.032-.745-.079-1.115-.186-.041-.35-.151-.459-.308-.176.151-.411.213-.637.167-.227-.045-.421-.193-.525-.401-.155.171-.378.261-.607.247-.229-.015-.439-.133-.571-.322-.136.207-.366.332-.612.332-.247 0-.477-.125-.613-.332-.126.197-.338.322-.57.337-.232.014-.457-.083-.607-.262-.101.207-.292.355-.517.401-.224.046-.457-.016-.63-.167-.112.138-.267.234-.439.272-.048.37-.074.742-.079 1.115.009 1.369.468 2.696 1.303 3.775h-.133c-.452-.097-.841-.385-1.068-.79-.754-.03-1.381-.596-1.492-1.348-1.071-.344-1.189-1.558-.612-2.348-.438-.193-.756-.587-.855-1.057-.099-.471.034-.961.356-1.315-.169-.402-.157-.857.034-1.249.191-.391.541-.68.96-.791-.106-.429.005-.883.296-1.213.291-.331.724-.497 1.16-.444.204-.396.561-.691.987-.815s.884-.067 1.266.159c.322-.375.79-.591 1.282-.591.493 0 .96.216 1.282.591.376-.228.83-.287 1.252-.162.421.125.772.422.966.818.434-.047.864.12 1.153.449.289.33.4.78.299 1.208.416.116.763.405.953.794zm-8.678 1.977c1.456-2.581 4.055-2.542 5.496 0-1.683-1.054-3.814-1.054-5.496 0z" fill="#323335" fill-rule="evenodd"/><path d="m171.882 127.728c.06.674-.046 1.352-.307 1.976.954-.593 1.108-2.131.307-1.976z" fill="#7b5d3f"/><path d="m164.399 127.728c-.062.674.043 1.353.306 1.976-.973-.593-1.126-2.131-.306-1.976z" fill="#8c6e48"/><path d="m167.1 130.384v.222c.004.24.103.47.276.636.172.167.403.258.643.253h.392c.494.004.898-.393.907-.889v-.23z" fill="#fff"/><path d="m166.986 128.613c.191 0 .346-.19.346-.423 0-.234-.155-.423-.346-.423s-.345.189-.345.423c0 .233.154.423.345.423z" fill="#323335"/><path d="m169.204 128.613c.191 0 .346-.19.346-.423 0-.234-.155-.423-.346-.423s-.345.189-.345.423c0 .233.154.423.345.423z" fill="#323335"/><path d="m173.947 134.661c-.499-.695-1.645-.695-2.564-.735-.373.035-.749-.004-1.107-.114-.039 0-.039-.04-.079-.04-.479.631-1.203 1.024-1.99 1.079-.782-.045-1.502-.441-1.963-1.079-.01 0-.019.004-.026.012-.007.007-.01.017-.009.028-.36.11-.737.149-1.111.114-.919 0-2.104.04-2.564.735-.284.395-.461.859-.51 1.345 1.789 1.418 4.005 2.179 6.281 2.158 2.286-.04 4.487-.879 6.227-2.372-.157-.396-.353-.774-.585-1.131z" fill="#ce6ce5"/><path d="m169.565 132.645c-.389.309-.863.489-1.358.514-.481-.002-.95-.16-1.335-.45-.03.246-.099.486-.204.711.417.392.97.602 1.539.585.586-.013 1.146-.246 1.57-.652-.105-.224-.176-.463-.212-.708z" fill="#7b5d3f"/><path d="m225.001 160.455c16.05 0 29.061-13.102 29.061-29.264s-13.011-29.264-29.061-29.264c-16.049 0-29.06 13.102-29.06 29.264s13.011 29.264 29.06 29.264z" fill="#4c863e"/><path d="m226.222 158.432c16.309 0 29.53-13.313 29.53-29.736s-13.221-29.736-29.53-29.736-29.53 13.313-29.53 29.736 13.221 29.736 29.53 29.736z" fill="#3fa140"/><path clip-rule="evenodd" d="m220.71 139.688h-11.318v-20.908h10.974c3.971 0 6.003 2.539 6.003 5.329 0 2.601-1.626 4.388-3.595 4.796 2.251.344 4.002 2.507 4.002 5.109 0 3.166-2.064 5.674-6.066 5.674zm-1.313-12.601c1.501 0 2.439-.847 2.439-2.195 0-1.285-.938-2.194-2.439-2.194h-5.565v4.389zm.188 8.682c1.657 0 2.657-.877 2.657-2.382 0-1.316-.938-2.382-2.657-2.382h-5.753v4.764z" fill="#fff" fill-rule="evenodd"/><path clip-rule="evenodd" d="m231.371 127.149h14.069v3.918h-14.069z" fill="#fff" fill-rule="evenodd"/><path clip-rule="evenodd" d="m236.452 135.769v-14.105h3.908v14.105z" fill="#fff" fill-rule="evenodd"/></g><g filter="url(#b)"><path d="m40 21.8196h320v35h-320z" fill="#c4c4c4"/></g><g filter="url(#c)"><path d="m25.3063 28.5937c0-6.6808 5.4159-12.0968 12.0967-12.0968h324.194c6.68 0 12.096 5.416 12.096 12.0968v21.7742c0 6.6809-5.416 12.0968-12.096 12.0968h-324.1939c-6.6809 0-12.0968-5.4159-12.0968-12.0968z" fill="#fff"/><rect fill="#aaa" height="7.25806" rx="1.20968" transform="matrix(.70710678 -.70710678 .70710678 .70710678 72.133617 260.157756)" width="2.41935" x="350.105" y="43.0059"/><path d="m351.554 33.7624c2.48 2.4801 2.48 6.5012 0 8.9813-2.481 2.4802-6.502 2.4802-8.982 0-2.48-2.4801-2.48-6.5012 0-8.9813 2.48-2.4802 6.501-2.4802 8.982 0z" stroke="#aaa" stroke-width="1.81452"/><g fill="#999"><path d="m84.8225 44.2166c3.0315 0 4.3694-1.6258 4.3694-3.5056 0-4.2-6.571-2.896-6.571-5.0129 0-.8299.7452-1.4057 1.8968-1.4057 1.1855 0 2.3879.4065 3.2855 1.3041l1.1177-1.4734c-1.0331-1.0162-2.4726-1.592-4.2169-1.592-2.4895 0-4.1154 1.4395-4.1154 3.3194 0 4.1492 6.571 2.6758 6.571 5.0468 0 .7621-.6266 1.558-2.2524 1.558-1.575 0-2.8113-.7451-3.5734-1.575l-1.1177 1.5411c1.0161 1.05 2.5234 1.7952 4.6064 1.7952z"/><path d="m94.7425 44.2166c1.2871 0 2.4895-.4234 3.3193-1.2024l-.8129-1.1686c-.5927.5928-1.5242.9146-2.3371.9146-1.5411 0-2.4556-1.0331-2.5911-2.2525h6.3v-.4403c0-2.5742-1.5581-4.4371-4.0137-4.4371-2.4218 0-4.1492 1.9137-4.1492 4.2847 0 2.5911 1.8121 4.3016 4.2847 4.3016zm2.1677-4.979h-4.6064c.0677-.9823.779-2.1508 2.2863-2.1508 1.6088 0 2.2693 1.1855 2.3201 2.1508z"/><path d="m107.167 44.0134v-5.4363c0-2.1847-1.592-2.9468-3.421-2.9468-1.304 0-2.489.4065-3.438 1.321l.745 1.2363c.695-.7113 1.508-1.05 2.422-1.05 1.118 0 1.914.5758 1.914 1.5242v1.2193c-.61-.6943-1.541-1.05-2.659-1.05-1.338 0-2.8283.7791-2.8283 2.6758 0 1.7952 1.5073 2.7097 2.8283 2.7097 1.084 0 2.049-.3895 2.659-1.1008v.8976zm-3.726-1.0161c-.999 0-1.761-.5759-1.761-1.4734 0-.8807.762-1.4734 1.761-1.4734.762 0 1.524.2879 1.948.8468v1.2532c-.424.5589-1.186.8468-1.948.8468z"/><path d="m111.25 44.0134v-5.5718c.356-.5927 1.355-1.1008 2.117-1.1008.22 0 .39.0169.542.0508v-1.7613c-1.05 0-2.032.6097-2.659 1.3887v-1.1855h-1.778v8.1799z"/><path d="m119.069 44.2166c1.609 0 2.557-.6943 3.133-1.4564l-1.168-1.1008c-.458.6435-1.084.9822-1.88.9822-1.474 0-2.473-1.1347-2.473-2.7266s.999-2.7097 2.473-2.7097c.796 0 1.422.3049 1.88.9484l1.168-1.0669c-.576-.7791-1.524-1.4565-3.133-1.4565-2.472 0-4.217 1.8121-4.217 4.2847s1.745 4.3016 4.217 4.3016z"/><path d="m131.094 44.0134v-5.7919c0-1.6767-.881-2.5912-2.642-2.5912-1.287 0-2.337.6605-2.879 1.3041v-4.217h-1.778v11.296h1.778v-5.7242c.407-.5419 1.186-1.0839 2.1-1.0839.999 0 1.643.3726 1.643 1.6597v5.1484z"/><path d="m142.037 44.0134c3.523 0 5.894-2.3202 5.894-5.6565 0-3.3024-2.371-5.6395-5.911-5.6395h-4.2v11.296zm-.017-1.7444h-2.218v-7.8072h2.235c2.507 0 3.862 1.7274 3.862 3.8951 0 2.1508-1.423 3.9121-3.879 3.9121z"/><path d="m157.092 44.0134v-8.1799h-1.778v5.7412c-.406.5419-1.185 1.0669-2.083 1.0669-1.016 0-1.66-.4064-1.66-1.6766v-5.1315h-1.778v5.792c0 1.6597.881 2.5911 2.642 2.5911 1.287 0 2.303-.6435 2.879-1.2871v1.0839z"/><path d="m163.128 44.2166c1.609 0 2.557-.6943 3.133-1.4564l-1.169-1.1008c-.457.6435-1.084.9822-1.879.9822-1.474 0-2.473-1.1347-2.473-2.7266s.999-2.7097 2.473-2.7097c.795 0 1.422.3049 1.879.9484l1.169-1.0669c-.576-.7791-1.524-1.4565-3.133-1.4565-2.473 0-4.217 1.8121-4.217 4.2847s1.744 4.3016 4.217 4.3016z"/><path d="m175.492 44.0134-3.455-4.471 3.387-3.7089h-2.202l-3.607 3.946v-7.0621h-1.778v11.296h1.778v-2.2016l1.152-1.1855 2.489 3.3871z"/><path d="m181.035 44.0134c3.523 0 5.894-2.3202 5.894-5.6565 0-3.3024-2.371-5.6395-5.911-5.6395h-4.2v11.296zm-.017-1.7444h-2.218v-7.8072h2.235c2.507 0 3.862 1.7274 3.862 3.8951 0 2.1508-1.423 3.9121-3.879 3.9121z"/><path d="m196.09 44.0134v-8.1799h-1.778v5.7412c-.406.5419-1.185 1.0669-2.083 1.0669-1.016 0-1.66-.4064-1.66-1.6766v-5.1315h-1.778v5.792c0 1.6597.881 2.5911 2.642 2.5911 1.287 0 2.303-.6435 2.879-1.2871v1.0839z"/><path d="m202.126 44.2166c1.609 0 2.557-.6943 3.133-1.4564l-1.169-1.1008c-.457.6435-1.084.9822-1.88.9822-1.473 0-2.472-1.1347-2.472-2.7266s.999-2.7097 2.472-2.7097c.796 0 1.423.3049 1.88.9484l1.169-1.0669c-.576-.7791-1.524-1.4565-3.133-1.4565-2.473 0-4.217 1.8121-4.217 4.2847s1.744 4.3016 4.217 4.3016z"/><path d="m214.489 44.0134-3.454-4.471 3.387-3.7089h-2.202l-3.607 3.946v-7.0621h-1.778v11.296h1.778v-2.2016l1.151-1.1855 2.49 3.3871z"/><path d="m221.253 44.2335c1.947 0 3.539-.8298 4.64-2.0661v-4.2169h-5.352v1.7443h3.387v1.7444c-.508.4911-1.524 1.0161-2.675 1.0161-2.236 0-3.896-1.7274-3.896-4.0814 0-2.3879 1.66-4.0815 3.896-4.0815 1.253 0 2.32.6605 2.929 1.5073l1.609-.9315c-.897-1.2871-2.337-2.3371-4.538-2.3371-3.286 0-5.928 2.2863-5.928 5.8428 0 3.5395 2.642 5.8596 5.928 5.8596z"/><path d="m231.614 44.2166c2.608 0 4.2-1.9645 4.2-4.3016 0-2.354-1.592-4.2847-4.2-4.2847s-4.2 1.9307-4.2 4.2847c0 2.3371 1.592 4.3016 4.2 4.3016zm0-1.575c-1.508 0-2.354-1.2701-2.354-2.7266 0-1.4395.846-2.7097 2.354-2.7097 1.524 0 2.354 1.2702 2.354 2.7097 0 1.4565-.83 2.7266-2.354 2.7266z"/></g><path clip-rule="evenodd" d="m48.1086 52.6063c7.3489 0 13.3064-5.9575 13.3064-13.3064 0-7.349-5.9575-13.3065-13.3064-13.3065-7.349 0-13.3065 5.9575-13.3065 13.3065 0 7.3489 5.9575 13.3064 13.3065 13.3064z" fill="#fff" fill-rule="evenodd"/><path clip-rule="evenodd" d="m48.2135 27.4329c6.6197 0 11.986 5.3651 11.986 11.9834s-5.3663 11.9834-11.986 11.9834c-6.6198 0-11.9861-5.3651-11.9861-11.9834s5.3663-11.9834 11.9861-11.9834z" fill="#de5833" fill-rule="evenodd"/><g mask="url(#m)"><path clip-rule="evenodd" d="m53.1168 57.473c-.4193-1.9556-2.8653-6.3616-3.7738-8.2465-.9318-1.8613-1.8403-4.5005-1.421-6.1966.0699-.3063-.792-2.6625-.559-2.8274 1.9567-1.2959 2.469.1414 3.2612-.4477.3961-.3063.9549.2356 1.0949-.2592.5125-1.7906-.6988-4.9007-2.0499-6.2437-.4426-.4477-1.1184-.7304-1.8636-.8718-.3029-.4006-.7688-.8011-1.421-1.1545-.7454-.4006-2.3528-.9189-3.1914-1.0603-.5824-.0942-.7221.0707-.9551.1178.233.0236 1.3278.5655 1.5375.5891-.2097.1413-.8386 0-1.2346.1649-.2097.0942-.3495.4477-.3495.6126 1.1415-.1178 2.9352 0 3.9834.4712-.8386.0943-2.1198.2121-2.6556.4948-1.584.8482-2.3062 2.8274-1.8868 5.2071.4193 2.3797 2.2595 11.0265 2.8652 13.9248.5824 2.8981-1.2579 4.7592-2.4459 5.2778l1.2579.0942-.4193.9425c1.5141.1649 3.1914-.3299 3.1914-.3299-.3262.9425-2.6091 1.2723-2.6091 1.2723s1.0949.3296 2.8653-.3298c1.7704-.6833 2.8653-1.1077 2.8653-1.1077l.8386 2.215 1.6073-1.6021.6756 1.6964c-.0469-.0236 1.2113-.4477.792-2.4033z" fill="#d5d7d8" fill-rule="evenodd"/></g><g mask="url(#n)"><path clip-rule="evenodd" d="m53.629 57.0725c-.4195-1.9556-2.8655-6.3616-3.7737-8.2465-.9318-1.8613-1.8406-4.5002-1.4213-6.1966.0702-.3063.0702-1.5786.3264-1.7436 1.9565-1.2959 1.8168-.0471 2.609-.6126.3958-.3063.7219-.6597.8617-1.1545.5125-1.7907-.6989-4.9008-2.05-6.2438-.4423-.4476-1.1181-.7304-1.8635-.8717-.3029-.4006-.7688-.8011-1.4208-1.1546-1.2579-.6832-2.8187-.9424-4.2632-.6832.233.0235.769.4948.9786.5419-.3261.212-1.1882.1885-1.1647.6833 1.1412-.1178 2.3991.0706 3.4474.5419-.8384.0942-1.6306.3063-2.1662.589-1.6073.8482-2.0269 2.5446-1.6073 4.9244.4191 2.3797 2.2593 11.0503 2.865 13.9248.5824 2.898-1.2577 4.7594-2.4224 5.2777l1.2577.0943-.4191.9424c1.5142.165 3.1911-.3298 3.1911-.3298-.3261.9424-2.6087 1.2723-2.6087 1.2723s1.0946.3298 2.865-.3299c1.7704-.6833 2.8653-1.1074 2.8653-1.1074l.8388 2.2148 1.6071-1.6257.6758 1.6964c-.0468-.0236 1.2113-.4477.792-2.4033z" fill="#fff" fill-rule="evenodd"/></g><path clip-rule="evenodd" d="m43.9619 37.5644c0-.4948.396-.8953.8852-.8953s.8852.4005.8852.8953-.396.8953-.8852.8953-.8852-.4005-.8852-.8953z" fill="#2d4f8e" fill-rule="evenodd"/><path clip-rule="evenodd" d="m45.01 37.324c0-.1512.121-.3024.3024-.3024.1512 0 .3024.121.3024.3024 0 .1512-.1209.3024-.3024.3024-.1814 0-.3024-.1209-.3024-.3024z" fill="#fff" fill-rule="evenodd"/><path clip-rule="evenodd" d="m49.9952 37.0215c0-.4241.3495-.7539.7688-.7539.4195 0 .7689.3534.7689.7539 0 .4242-.3494.7776-.7689.7776-.4426 0-.7688-.3534-.7688-.7776z" fill="#2d4f8e" fill-rule="evenodd"/><path clip-rule="evenodd" d="m50.8804 36.9003c0-.189.1511-.3024.3026-.3024.1889 0 .3022.1512.3022.3024 0 .189-.1515.3024-.3022.3024-.1515 0-.3026-.1512-.3026-.3024z" fill="#fff" fill-rule="evenodd"/><path clip-rule="evenodd" d="m43.789 34.6458c-.9464.3584-.5915 1.0975-.5915 1.0975s-.0237-.4031.6388-.7839c.6388-.4032 1.3249-.112 1.3249-.112s-.2581-.3214-.7843-.3214c-.1684 0-.3643.0329-.5879.1198z" fill="#2d4f8e" fill-rule="evenodd"/><path clip-rule="evenodd" d="m49.422 34.9324s.2107-.3182.9832-.3182c.3514 0 .8428.2546.8428.2546s-.1873-.4452-.7255-.53c-.0798-.0104-.1538-.0151-.2226-.0151-.7789 0-.8779.6087-.8779.6087z" fill="#2d4f8e" fill-rule="evenodd"/><path clip-rule="evenodd" d="m47.4545 40.8718c.0937-.539 1.4765-1.5468 2.4609-1.6171s1.2891-.0469 2.1094-.2344 2.9296-.7266 3.5156-.9844c.5859-.2812 3.0705.1407 1.3127 1.1016-.7503.4219-2.7893 1.1953-4.2658 1.6406-1.4532.4453-2.3438-.4219-2.836.3047-.375.5625-.0703 1.3593 1.6641 1.5234 2.3437.2109 4.6174-1.0547 4.8517-.375.2576.6797-2.0158 1.5234-3.3984 1.5469-1.383.0234-4.172-.9141-4.5939-1.1953-.375-.3282-.9375-1.0078-.8203-1.711z" fill="#fdd20a" fill-rule="evenodd"/><path clip-rule="evenodd" d="m48.5092 47.973s-3.3046-1.7578-3.3515-1.0547c-.0469.7268 0 3.6328.375 3.8672.375.2109 3.1406-1.4297 3.1406-1.4297z" fill="#65bc46" fill-rule="evenodd"/><path clip-rule="evenodd" d="m49.7748 47.8565s2.25-1.711 2.7656-1.5938c.4919.1172.6091 3.6328.164 3.7969-.4453.1643-3.0234-.8904-3.0234-.8904z" fill="#65bc46" fill-rule="evenodd"/><path clip-rule="evenodd" d="m47.7124 48.1611c0 1.1482-.1641 1.6406.3281 1.7578s1.4297 0 1.7578-.2109c.3282-.2112.0469-1.711-.0468-1.9922-.1172-.2815-2.0391-.0471-2.0391.4453z" fill="#43a244" fill-rule="evenodd"/><path clip-rule="evenodd" d="m47.9235 47.903c0 1.1485-.1641 1.6643.3281 1.7578.4922.1172 1.4297 0 1.7578-.2107.3281-.2111.0471-1.7111-.0469-1.9921-.1172-.2815-2.039-.0471-2.039.445z" fill="#65bc46" fill-rule="evenodd"/><path clip-rule="evenodd" d="m47.305 52.61c7.3481 0 13.305-5.9569 13.305-13.305s-5.9569-13.305-13.305-13.305-13.305 5.9569-13.305 13.305 5.9569 13.305 13.305 13.305z" fill="#de5833" fill-rule="evenodd"/><g mask="url(#o)"><path clip-rule="evenodd" d="m49.7731 51.1819c-.5566-1.0821-1.0888-2.0777-1.4192-2.7363-.8781-1.7585-1.7607-4.2377-1.3593-5.8365.0731-.2905-.8272-10.7571-1.4636-11.0942-.7074-.3769-2.2441-.8736-3.0402-1.0067-.5544-.0887-.6808.0665-.9136.102.2195.0222 1.264.5366 1.4658.5655-.2018.1375-.7983-.0045-1.1797.1641-.193.0887-.3371.4169-.3327.5721 1.0866-.1109 2.7852-.0022 3.792.4435-.8006.0909-2.0157.1929-2.5391.4679-1.5167.7983-2.1864 2.6676-1.7873 4.9073.3969 2.2352 2.1554 10.389 2.7165 13.1121.5588 2.7208 6.9873 2.1509 6.0582.3392z" fill="#d5d7d8" fill-rule="evenodd"/><path d="m47.478 42.2343c-.3992 1.5988.479 4.0758 1.3593 5.8365.2958.5882.7522 1.4467 1.2433 2.3971-1.1455.2838-3.9247.6812-5.8779 0-.5588-2.7164-2.3172-10.8724-2.7186-13.1121-.3992-2.2396 0-3.8385 1.5212-4.6368.5211-.2749 1.2662-.4745 2.0645-.5632-1.0068-.4479-2.1998-.6209-3.2908-.51-.0044-.4613.8094-.4347 1.1154-.6431-.2018-.0288-.7029-.4812-.9247-.5034 1.384-.2373 2.8076-.0129 4.0514.6387.6342.3392 1.0821.7029 1.3593 1.0843.7229.1375 1.3616.3992 1.7784.8161 1.2818 1.2795 2.426 4.2043 1.947 5.8852-.1353.4657-.4435.805-.8293 1.0866-.7495.5455-.6165-.632-2.4814.5876-.2417.1575-.2417 1.346-.3171 1.6365z" fill="#fff"/></g><path clip-rule="evenodd" d="m44.083 38.3094c.4641 0 .8404-.3763.8404-.8404 0-.4642-.3763-.8405-.8404-.8405-.4642 0-.8404.3763-.8404.8405 0 .4641.3762.8404.8404.8404z" fill="#2d4f8e" fill-rule="evenodd"/><path clip-rule="evenodd" d="m44.4578 37.4069c.12 0 .2173-.0973.2173-.2173s-.0973-.2173-.2173-.2173-.2173.0973-.2173.2173.0973.2173.2173.2173z" fill="#fff" fill-rule="evenodd"/><path clip-rule="evenodd" d="m49.6977 37.6908c.3981 0 .7207-.3227.7207-.7207s-.3226-.7207-.7207-.7207c-.398 0-.7206.3227-.7206.7207s.3226.7207.7206.7207z" fill="#2d4f8e" fill-rule="evenodd"/><path clip-rule="evenodd" d="m50.0193 36.9169c.1029 0 .1862-.0834.1862-.1863s-.0833-.1863-.1862-.1863-.1863.0834-.1863.1863.0834.1863.1863.1863z" fill="#fff" fill-rule="evenodd"/><path clip-rule="evenodd" d="m44.3247 35.0363s-.6342-.2883-1.2484.0998c-.6143.3858-.5921.7806-.5921.7806s-.326-.7274.5433-1.0844c.8715-.3548 1.2972.204 1.2972.204z" fill="url(#h)" fill-rule="evenodd"/><path clip-rule="evenodd" d="m50.1324 34.9787s-.4546-.2595-.8094-.255c-.7251.0088-.9225.3281-.9225.3281s.122-.7628 1.0489-.6098c.3022.0553.5578.2561.683.5367z" fill="url(#i)" fill-rule="evenodd"/><path clip-rule="evenodd" d="m46.6554 40.7087c.0842-.51 1.397-1.4702 2.3283-1.53.9314-.0577 1.2197-.0444 1.9958-.2307.7783-.184 2.7807-.6829 3.3329-.9402.5544-.255 2.9049.1264 1.2484 1.0511-.7162.4014-2.6477 1.1376-4.0292 1.5501-1.3792.4124-2.2152-.3948-2.6743.2838-.3636.5388-.0731 1.2773 1.5745 1.4303 2.2263.2062 4.3596-1.0023 4.5946-.3593.2351.6431-1.9115 1.4414-3.2198 1.468-1.3083.0244-3.9427-.8648-4.3374-1.1398-.397-.2727-.9225-.9158-.8138-1.5833z" fill="#fdd20a" fill-rule="evenodd"/><path clip-rule="evenodd" d="m51.4673 45.255c-.4701-.1043-2.6078 1.5123-2.6078 1.5123h.0022l-.0998 1.2418s2.4437 1.0001 2.8606.8449c.4169-.1597.3127-3.4926-.1552-3.599zm-6.9829.6253c.051-.6763 3.1776.9934 3.1776.9934l.0023-.0022.1552 1.3039s-2.6056 1.5611-2.9715 1.3527c-.3636-.2085-.4169-2.9693-.3636-3.6478z" fill="#65bc46" fill-rule="evenodd"/><path clip-rule="evenodd" d="m46.9058 47.0489c0 1.0932-.1574 1.5634.3105 1.6676.4701.1042 1.3549 0 1.6698-.2085.3104-.2084.051-1.6143-.0532-1.876-.1043-.2616-1.9293-.0532-1.9293.4169z" fill="#43a244" fill-rule="evenodd"/><path clip-rule="evenodd" d="m47.1054 46.8072c0 1.0932-.1574 1.5611.3105 1.6653.4679.1065 1.3527 0 1.6675-.2084.3127-.2085.0533-1.6144-.051-1.876-.1042-.2617-1.9292-.051-1.9292.4169z" fill="#65bc46" fill-rule="evenodd"/><path clip-rule="evenodd" d="m47.305 50.4618c6.1617 0 11.1568-4.9951 11.1568-11.1568s-4.9951-11.1568-11.1568-11.1568-11.1568 4.9951-11.1568 11.1568 4.9951 11.1568 11.1568 11.1568zm0 1.0395c6.7358 0 12.1963-5.4605 12.1963-12.1963s-5.4605-12.1962-12.1963-12.1962-12.1962 5.4604-12.1962 12.1962 5.4604 12.1963 12.1962 12.1963z" fill="#fff" fill-rule="evenodd"/><path d="m76.113 28.5936h1.2097v21.7742h-1.2097z" fill="#666"/></g><g filter="url(#d)"><rect fill="#fff" height="254.592" rx="4.2291" width="262.204" x="67.9919" y="252.233"/><path d="m88.1716 487.912v-6.679h2.392v-1.219h-6.1694v1.219h2.3919v6.679z" fill="#333"/><path d="m93.0465 488.054c1.8236 0 2.9367-1.374 2.9367-3.008 0-1.646-1.1131-2.996-2.9367-2.996s-2.9367 1.35-2.9367 2.996c0 1.634 1.1131 3.008 2.9367 3.008zm0-1.101c-1.0539 0-1.646-.888-1.646-1.907 0-1.006.5921-1.894 1.646-1.894 1.0657 0 1.646.888 1.646 1.894 0 1.019-.5803 1.907-1.646 1.907z" fill="#333"/><path d="m100.332 488.054c1.48 0 2.534-1.125 2.534-3.008s-1.054-2.996-2.534-2.996c-.7464 0-1.4095.356-1.8358.924v-.782h-1.2434v7.899h1.2434v-2.973c.4736.604 1.1131.936 1.8358.936zm-.3675-1.101c-.5802 0-1.196-.356-1.4683-.782v-2.262c.2842-.426.8881-.757 1.4683-.757.9825 0 1.6225.781 1.6225 1.894s-.64 1.907-1.6225 1.907z" fill="#333"/><path d="m110.467 487.912v-6.679h2.392v-1.219h-6.17v1.219h2.392v6.679z" fill="#333"/><path d="m114.35 487.912v-3.896c.249-.414.948-.77 1.481-.77.153 0 .272.012.378.036v-1.232c-.734 0-1.421.427-1.859.971v-.829h-1.243v5.72z" fill="#333"/><path d="m121.961 487.912v-3.801c0-1.528-1.113-2.061-2.392-2.061-.912 0-1.741.284-2.404.924l.521.864c.485-.497 1.054-.734 1.693-.734.782 0 1.338.403 1.338 1.066v.853c-.426-.486-1.077-.735-1.859-.735-.935 0-1.977.545-1.977 1.871 0 1.255 1.054 1.895 1.977 1.895.758 0 1.433-.272 1.859-.77v.628zm-2.605-.711c-.699 0-1.232-.402-1.232-1.03 0-.616.533-1.03 1.232-1.03.532 0 1.065.201 1.361.592v.876c-.296.391-.829.592-1.361.592z" fill="#333"/><path d="m126.178 488.054c1.124 0 1.788-.486 2.19-1.018l-.817-.77c-.32.45-.758.687-1.314.687-1.03 0-1.729-.794-1.729-1.907s.699-1.894 1.729-1.894c.556 0 .994.213 1.314.663l.817-.746c-.402-.545-1.066-1.019-2.19-1.019-1.729 0-2.949 1.267-2.949 2.996s1.22 3.008 2.949 3.008z" fill="#333"/><path d="m134.822 487.912-2.415-3.126 2.368-2.594h-1.539l-2.523 2.759v-4.937h-1.243v7.898h1.243v-1.54l.806-.828 1.74 2.368z" fill="#333"/><path d="m136.342 481.494c.426 0 .77-.344.77-.77s-.344-.77-.77-.77-.77.344-.77.77.344.77.77.77zm.616 6.418v-5.72h-1.243v5.72z" fill="#333"/><path d="m143.686 487.912v-4.026c0-1.173-.615-1.836-1.847-1.836-.9 0-1.646.462-2.025.912v-.77h-1.243v5.72h1.243v-4.003c.296-.379.841-.757 1.469-.757.698 0 1.16.284 1.16 1.184v3.576z" fill="#333"/><path d="m147.634 490.233c1.397 0 2.937-.557 2.937-2.617v-5.424h-1.244v.794c-.462-.616-1.113-.936-1.835-.936-1.48 0-2.534 1.078-2.534 2.937 0 1.883 1.077 2.937 2.534 2.937.746 0 1.397-.379 1.835-.959v.651c0 1.219-.876 1.598-1.693 1.598-.758 0-1.35-.201-1.824-.734l-.58.9c.71.64 1.433.853 2.404.853zm.225-3.422c-.995 0-1.622-.723-1.622-1.824s.627-1.835 1.622-1.835c.58 0 1.184.343 1.468.757v2.144c-.284.414-.888.758-1.468.758z" fill="#333"/><path d="m158.965 488.054c2.356 0 4.038-1.729 4.038-4.085 0-2.357-1.682-4.086-4.038-4.086-2.369 0-4.038 1.729-4.038 4.086 0 2.356 1.669 4.085 4.038 4.085zm0-1.232c-1.599 0-2.617-1.231-2.617-2.853 0-1.635 1.018-2.854 2.617-2.854 1.586 0 2.617 1.219 2.617 2.854 0 1.622-1.031 2.853-2.617 2.853z" fill="#333"/><path d="m165.84 487.912v-4.642h1.161v-1.078h-1.161v-.319c0-.64.296-.959.794-.959.272 0 .485.094.651.248l.485-.77c-.343-.367-.852-.497-1.373-.497-1.078 0-1.8.734-1.8 1.978v.319h-.947v1.078h.947v4.642zm3.659 0v-4.642h1.161v-1.078h-1.161v-.319c0-.64.296-.959.794-.959.272 0 .485.094.651.248l.485-.77c-.343-.367-.852-.497-1.373-.497-1.078 0-1.8.734-1.8 1.978v.319h-.947v1.078h.947v4.642z" fill="#333"/><path d="m174.25 488.054c.9 0 1.741-.296 2.321-.841l-.568-.817c-.415.415-1.066.64-1.635.64-1.077 0-1.717-.723-1.811-1.575h4.405v-.308c0-1.8-1.09-3.103-2.807-3.103-1.693 0-2.901 1.338-2.901 2.996 0 1.812 1.267 3.008 2.996 3.008zm1.516-3.481h-3.221c.047-.687.545-1.504 1.598-1.504 1.125 0 1.587.829 1.623 1.504z" fill="#333"/><path d="m183.304 487.912v-4.026c0-1.173-.615-1.836-1.847-1.836-.9 0-1.646.462-2.025.912v-.77h-1.243v5.72h1.243v-4.003c.296-.379.841-.757 1.469-.757.698 0 1.16.284 1.16 1.184v3.576z" fill="#333"/><path d="m190.189 487.912v-7.898h-1.244v2.972c-.45-.616-1.113-.936-1.835-.936-1.469 0-2.534 1.149-2.534 2.996 0 1.895 1.077 3.008 2.534 3.008.746 0 1.397-.355 1.835-.924v.782zm-2.712-.959c-.995 0-1.622-.794-1.622-1.907 0-1.101.627-1.894 1.622-1.894.58 0 1.196.343 1.468.769v2.262c-.272.426-.888.77-1.468.77z" fill="#333"/><path d="m194.452 488.054c.9 0 1.741-.296 2.321-.841l-.568-.817c-.415.415-1.066.64-1.634.64-1.078 0-1.717-.723-1.812-1.575h4.405v-.308c0-1.8-1.09-3.103-2.807-3.103-1.693 0-2.901 1.338-2.901 2.996 0 1.812 1.267 3.008 2.996 3.008zm1.516-3.481h-3.221c.047-.687.545-1.504 1.599-1.504 1.125 0 1.586.829 1.622 1.504z" fill="#333"/><path d="m199.635 487.912v-3.896c.248-.414.947-.77 1.48-.77.154 0 .272.012.379.036v-1.232c-.735 0-1.421.427-1.859.971v-.829h-1.244v5.72z" fill="#333"/><path d="m204.462 488.054c1.539 0 2.38-.77 2.38-1.788 0-2.274-3.458-1.516-3.458-2.522 0-.403.403-.711 1.054-.711.723 0 1.35.308 1.694.687l.521-.876c-.509-.45-1.244-.794-2.215-.794-1.444 0-2.25.794-2.25 1.729 0 2.203 3.458 1.397 3.458 2.522 0 .45-.391.758-1.137.758-.734 0-1.527-.379-1.93-.793l-.568.888c.592.58 1.468.9 2.451.9z" fill="#333"/><path clip-rule="evenodd" d="m310.135 479.995c-.318.315-.318.832 0 1.147l3.713 3.691-3.713 3.69c-.318.316-.318.832 0 1.148.317.316.837.316 1.154 0l4.29-4.264c.318-.316.318-.833 0-1.148l-4.29-4.264c-.317-.316-.837-.316-1.154 0z" fill="#aaa" fill-rule="evenodd"/><g clip-path="url(#j)"><g fill="#333"><path d="m222.492 448.158-1.803-2.88c.89-.143 1.748-.858 1.748-2.156 0-1.363-.956-2.298-2.408-2.298h-3.222v7.334h1.287v-2.737h1.286l1.617 2.737zm-2.628-3.87h-1.77v-2.331h1.77c.726 0 1.254.451 1.254 1.154 0 .715-.528 1.177-1.254 1.177z"/><path d="m225.989 448.29c.836 0 1.616-.275 2.155-.78l-.528-.759c-.385.385-.989.594-1.517.594-1.001 0-1.594-.671-1.682-1.463h4.09v-.286c0-1.671-1.012-2.88-2.606-2.88-1.572 0-2.694 1.242-2.694 2.781 0 1.683 1.177 2.793 2.782 2.793zm1.407-3.232h-2.99c.044-.638.505-1.397 1.484-1.397 1.045 0 1.473.77 1.506 1.397z"/><path d="m232.675 448.29c1.374 0 2.353-1.044 2.353-2.793 0-1.748-.979-2.781-2.353-2.781-.693 0-1.309.329-1.705.857v-.725h-1.154v7.334h1.154v-2.76c.44.561 1.034.868 1.705.868zm-.341-1.022c-.539 0-1.111-.33-1.364-.726v-2.1c.264-.396.825-.704 1.364-.704.912 0 1.506.726 1.506 1.759 0 1.034-.594 1.771-1.506 1.771z"/><path d="m238.761 448.29c1.693 0 2.726-1.275 2.726-2.793 0-1.528-1.033-2.781-2.726-2.781-1.694 0-2.727 1.253-2.727 2.781 0 1.518 1.033 2.793 2.727 2.793zm0-1.022c-.979 0-1.529-.825-1.529-1.771 0-.934.55-1.759 1.529-1.759.989 0 1.528.825 1.528 1.759 0 .946-.539 1.771-1.528 1.771z"/><path d="m243.99 448.158v-3.617c.231-.385.88-.715 1.375-.715.143 0 .252.011.351.033v-1.143c-.681 0-1.319.395-1.726.901v-.769h-1.154v5.31z"/><path d="m248.422 448.29c.528 0 .869-.154 1.078-.34l-.275-.88c-.088.099-.286.198-.506.198-.33 0-.506-.275-.506-.638v-2.782h1.078v-1h-1.078v-1.452h-1.154v1.452h-.88v1h.88v3.068c0 .891.461 1.374 1.363 1.374z"/><path d="m257.24 448.158c1.385 0 2.133-.846 2.133-1.99 0-.89-.627-1.671-1.419-1.792.682-.143 1.276-.77 1.276-1.682 0-1.034-.737-1.87-2.089-1.87h-3.607v7.334zm-.352-4.31h-2.067v-1.891h2.067c.649 0 1.022.407 1.022.946 0 .56-.373.945-1.022.945zm.055 3.178h-2.122v-2.045h2.122c.726 0 1.11.472 1.11 1.022 0 .638-.417 1.023-1.11 1.023z"/><path d="m261.966 448.158v-3.617c.231-.385.879-.715 1.374-.715.143 0 .253.011.352.033v-1.143c-.682 0-1.32.395-1.726.901v-.769h-1.155v5.31z"/><path d="m267.2 448.29c1.694 0 2.727-1.275 2.727-2.793 0-1.528-1.033-2.781-2.727-2.781-1.693 0-2.727 1.253-2.727 2.781 0 1.518 1.034 2.793 2.727 2.793zm0-1.022c-.978 0-1.528-.825-1.528-1.771 0-.934.55-1.759 1.528-1.759.99 0 1.529.825 1.529 1.759 0 .946-.539 1.771-1.529 1.771z"/><path d="m276.245 448.158-2.243-2.902 2.199-2.408h-1.429l-2.342 2.562v-4.586h-1.155v7.334h1.155v-1.429l.748-.77 1.616 2.199z"/><path d="m279.652 448.29c.836 0 1.617-.275 2.155-.78l-.527-.759c-.385.385-.99.594-1.518.594-1 0-1.594-.671-1.682-1.463h4.09v-.286c0-1.671-1.011-2.88-2.606-2.88-1.572 0-2.694 1.242-2.694 2.781 0 1.683 1.177 2.793 2.782 2.793zm1.408-3.232h-2.991c.044-.638.506-1.397 1.484-1.397 1.045 0 1.474.77 1.507 1.397z"/><path d="m288.229 448.158v-3.738c0-1.089-.572-1.704-1.715-1.704-.836 0-1.529.428-1.88.846v-.714h-1.155v5.31h1.155v-3.716c.275-.352.78-.704 1.363-.704.649 0 1.078.264 1.078 1.1v3.32z"/><path d="m295.453 448.29c1.968 0 2.837-1.055 2.837-2.276 0-2.727-4.267-1.88-4.267-3.254 0-.539.484-.913 1.232-.913.769 0 1.55.264 2.133.847l.726-.957c-.671-.66-1.606-1.034-2.738-1.034-1.617 0-2.672.935-2.672 2.156 0 2.693 4.266 1.737 4.266 3.276 0 .495-.407 1.012-1.462 1.012-1.023 0-1.826-.484-2.32-1.023l-.726 1.001c.66.682 1.638 1.165 2.991 1.165z"/><path d="m300.182 442.199c.396 0 .715-.319.715-.715s-.319-.715-.715-.715-.714.319-.714.715.318.715.714.715zm.572 5.959v-5.31h-1.154v5.31z"/><path d="m304.026 448.29c.528 0 .869-.154 1.078-.34l-.275-.88c-.088.099-.286.198-.506.198-.33 0-.506-.275-.506-.638v-2.782h1.078v-1h-1.078v-1.452h-1.154v1.452h-.88v1h.88v3.068c0 .891.462 1.374 1.363 1.374z"/><path d="m308.565 448.29c.835 0 1.616-.275 2.155-.78l-.528-.759c-.385.385-.99.594-1.518.594-1 0-1.594-.671-1.682-1.463h4.091v-.286c0-1.671-1.012-2.88-2.606-2.88-1.573 0-2.694 1.242-2.694 2.781 0 1.683 1.176 2.793 2.782 2.793zm1.407-3.232h-2.991c.044-.638.506-1.397 1.485-1.397 1.044 0 1.473.77 1.506 1.397z"/></g><path d="m197.403 425.625h.845v37.216h-.845z" fill="#000" fill-opacity=".05"/><path d="m89.9948 448.29c2.1331 0 3.1777-1.22 3.1777-3.034v-4.432h-1.3085v4.399c0 1.165-.6487 1.924-1.8692 1.924-1.2206 0-1.8693-.759-1.8693-1.924v-4.399h-1.3085v4.432c0 1.814 1.0556 3.034 3.1778 3.034z" fill="#333"/><path d="m99.6172 448.158v-3.738c0-1.089-.5718-1.704-1.7153-1.704-.8357 0-1.5284.428-1.8803.846v-.714h-1.1545v5.31h1.1545v-3.716c.2749-.352.7807-.704 1.3635-.704.6487 0 1.0776.264 1.0776 1.1v3.32z" fill="#333"/><path d="m104.145 448.29c1.374 0 2.353-1.044 2.353-2.793 0-1.748-.979-2.781-2.353-2.781-.693 0-1.309.329-1.705.857v-.725h-1.154v7.334h1.154v-2.76c.44.561 1.034.868 1.705.868zm-.341-1.022c-.539 0-1.111-.33-1.364-.726v-2.1c.264-.396.825-.704 1.364-.704.912 0 1.506.726 1.506 1.759 0 1.034-.594 1.771-1.506 1.771z" fill="#333"/><path d="m108.977 448.158v-3.617c.231-.385.88-.715 1.374-.715.143 0 .253.011.352.033v-1.143c-.681 0-1.319.395-1.726.901v-.769h-1.155v5.31z" fill="#333"/><path d="m114.212 448.29c1.693 0 2.727-1.275 2.727-2.793 0-1.528-1.034-2.781-2.727-2.781-1.694 0-2.727 1.253-2.727 2.781 0 1.518 1.033 2.793 2.727 2.793zm0-1.022c-.979 0-1.529-.825-1.529-1.771 0-.934.55-1.759 1.529-1.759.989 0 1.528.825 1.528 1.759 0 .946-.539 1.771-1.528 1.771z" fill="#333"/><path d="m119.892 448.29c.528 0 .869-.154 1.078-.34l-.275-.88c-.088.099-.286.198-.506.198-.33 0-.506-.275-.506-.638v-2.782h1.078v-1h-1.078v-1.452h-1.154v1.452h-.88v1h.88v3.068c0 .891.461 1.374 1.363 1.374z" fill="#333"/><path d="m124.43 448.29c.836 0 1.617-.275 2.155-.78l-.527-.759c-.385.385-.99.594-1.518.594-1 0-1.594-.671-1.682-1.463h4.09v-.286c0-1.671-1.011-2.88-2.606-2.88-1.572 0-2.694 1.242-2.694 2.781 0 1.683 1.177 2.793 2.782 2.793zm1.408-3.232h-2.991c.044-.638.506-1.397 1.484-1.397 1.045 0 1.474.77 1.507 1.397z" fill="#333"/><path d="m130.676 448.29c1.045 0 1.66-.45 2.034-.945l-.758-.715c-.297.418-.704.638-1.221.638-.957 0-1.605-.737-1.605-1.771 0-1.033.648-1.759 1.605-1.759.517 0 .924.198 1.221.616l.758-.693c-.374-.506-.989-.945-2.034-.945-1.605 0-2.738 1.176-2.738 2.781 0 1.606 1.133 2.793 2.738 2.793z" fill="#333"/><path d="m135.508 448.29c.528 0 .869-.154 1.077-.34l-.274-.88c-.088.099-.286.198-.506.198-.33 0-.506-.275-.506-.638v-2.782h1.078v-1h-1.078v-1.452h-1.155v1.452h-.879v1h.879v3.068c0 .891.462 1.374 1.364 1.374z" fill="#333"/><path d="m140.046 448.29c.836 0 1.616-.275 2.155-.78l-.528-.759c-.384.385-.989.594-1.517.594-1.001 0-1.594-.671-1.682-1.463h4.09v-.286c0-1.671-1.012-2.88-2.606-2.88-1.572 0-2.694 1.242-2.694 2.781 0 1.683 1.177 2.793 2.782 2.793zm1.407-3.232h-2.99c.044-.638.505-1.397 1.484-1.397 1.045 0 1.473.77 1.506 1.397z" fill="#333"/><path d="m148.766 448.158v-7.334h-1.155v2.76c-.418-.572-1.033-.868-1.704-.868-1.363 0-2.353 1.066-2.353 2.781 0 1.76 1.001 2.793 2.353 2.793.693 0 1.297-.329 1.704-.857v.725zm-2.518-.89c-.924 0-1.507-.737-1.507-1.771 0-1.022.583-1.759 1.507-1.759.539 0 1.11.319 1.363.715v2.1c-.253.396-.824.715-1.363.715z" fill="#333"/><path d="m155.986 448.29c1.968 0 2.837-1.055 2.837-2.276 0-2.727-4.266-1.88-4.266-3.254 0-.539.483-.913 1.231-.913.77 0 1.55.264 2.133.847l.726-.957c-.671-.66-1.605-1.034-2.738-1.034-1.616 0-2.672.935-2.672 2.156 0 2.693 4.266 1.737 4.266 3.276 0 .495-.406 1.012-1.462 1.012-1.023 0-1.825-.484-2.32-1.023l-.726 1.001c.66.682 1.639 1.165 2.991 1.165z" fill="#333"/><path d="m160.716 442.199c.395 0 .714-.319.714-.715s-.319-.715-.714-.715c-.396 0-.715.319-.715.715s.319.715.715.715zm.571 5.959v-5.31h-1.154v5.31z" fill="#333"/><path d="m164.56 448.29c.527 0 .868-.154 1.077-.34l-.275-.88c-.088.099-.286.198-.505.198-.33 0-.506-.275-.506-.638v-2.782h1.077v-1h-1.077v-1.452h-1.155v1.452h-.879v1h.879v3.068c0 .891.462 1.374 1.364 1.374z" fill="#333"/><path d="m169.098 448.29c.835 0 1.616-.275 2.155-.78l-.528-.759c-.385.385-.989.594-1.517.594-1.001 0-1.595-.671-1.683-1.463h4.091v-.286c0-1.671-1.012-2.88-2.606-2.88-1.573 0-2.694 1.242-2.694 2.781 0 1.683 1.176 2.793 2.782 2.793zm1.407-3.232h-2.991c.044-.638.506-1.397 1.485-1.397 1.044 0 1.473.77 1.506 1.397z" fill="#333"/><path d="m174.75 448.29c1.429 0 2.21-.714 2.21-1.66 0-2.111-3.211-1.407-3.211-2.342 0-.374.374-.66.979-.66.671 0 1.253.286 1.572.638l.484-.814c-.473-.418-1.154-.736-2.056-.736-1.342 0-2.089.736-2.089 1.605 0 2.045 3.21 1.297 3.21 2.342 0 .418-.362.704-1.055.704-.682 0-1.419-.352-1.792-.737l-.528.825c.55.538 1.363.835 2.276.835z" fill="#333"/></g><path d="m67.9919 462.842h262.2041v.845h-262.2041z" fill="#000" fill-opacity=".05"/><path d="m0 0h262.204v42.291h-262.204z" fill="#eee" fill-opacity=".5" transform="translate(67.9919 382.489)"/><g clip-path="url(#k)"><g fill="#333"><path d="m87.6151 406.856c2.1196 0 3.0551-1.137 3.0551-2.451 0-2.937-4.5945-2.025-4.5945-3.505 0-.581.521-.983 1.3262-.983.8289 0 1.6697.284 2.2973.912l.7815-1.031c-.7223-.71-1.7289-1.113-2.9485-1.113-1.7407 0-2.8775 1.007-2.8775 2.321 0 2.901 4.5945 1.871 4.5945 3.529 0 .533-.4382 1.089-1.5749 1.089-1.1013 0-1.9657-.521-2.4986-1.101l-.7815 1.078c.7105.734 1.7643 1.255 3.2209 1.255z"/><path d="m92.5263 400.296c.4263 0 .7697-.344.7697-.77s-.3434-.77-.7697-.77-.7697.344-.7697.77.3434.77.7697.77zm.6158 6.418v-5.72h-1.2434v5.72z"/><path d="m96.4839 406.856c.5684 0 .9354-.166 1.1604-.367l-.296-.947c-.0947.106-.3079.213-.5447.213-.3553 0-.5447-.296-.5447-.687v-2.996h1.1604v-1.078h-1.1604v-1.563h-1.2434v1.563h-.9473v1.078h.9473v3.304c0 .959.4974 1.48 1.4684 1.48z"/><path d="m101.189 406.856c.9 0 1.741-.296 2.321-.841l-.569-.817c-.414.415-1.065.64-1.634.64-1.077 0-1.7167-.723-1.8114-1.575h4.4054v-.308c0-1.8-1.09-3.103-2.807-3.103-1.6932 0-2.901 1.338-2.901 2.996 0 1.812 1.2671 3.008 2.996 3.008zm1.516-3.481h-3.2213c.0474-.687.5443-1.504 1.5983-1.504 1.125 0 1.587.829 1.623 1.504z"/><path d="m109.602 406.714v-2.961h2.096c1.646 0 2.569-1.124 2.569-2.463 0-1.349-.912-2.474-2.569-2.474h-3.482v7.898zm1.906-4.18h-1.906v-2.499h1.906c.782 0 1.338.498 1.338 1.255 0 .746-.556 1.244-1.338 1.244z"/><path d="m116.64 406.714v-3.896c.249-.414.947-.77 1.48-.77.154 0 .273.012.379.036v-1.232c-.734 0-1.421.427-1.859.971v-.829h-1.243v5.72z"/><path d="m120.129 400.296c.427 0 .77-.344.77-.77s-.343-.77-.77-.77c-.426 0-.769.344-.769.77s.343.77.769.77zm.616 6.418v-5.72h-1.243v5.72z"/><path d="m125.2 406.714 2.333-5.72h-1.326l-1.67 4.287-1.67-4.287h-1.338l2.333 5.72z"/><path d="m133.062 406.714v-3.801c0-1.528-1.113-2.061-2.392-2.061-.912 0-1.741.284-2.404.924l.521.864c.486-.497 1.054-.734 1.694-.734.781 0 1.338.403 1.338 1.066v.853c-.427-.486-1.078-.735-1.859-.735-.936 0-1.978.545-1.978 1.871 0 1.255 1.054 1.895 1.978 1.895.757 0 1.432-.272 1.859-.77v.628zm-2.605-.711c-.699 0-1.232-.402-1.232-1.03 0-.616.533-1.03 1.232-1.03.533 0 1.066.201 1.362.592v.876c-.296.391-.829.592-1.362.592z"/><path d="m137.279 406.856c1.125 0 1.788-.486 2.191-1.018l-.817-.77c-.32.45-.758.687-1.315.687-1.03 0-1.729-.794-1.729-1.907s.699-1.894 1.729-1.894c.557 0 .995.213 1.315.663l.817-.746c-.403-.545-1.066-1.019-2.191-1.019-1.729 0-2.949 1.267-2.949 2.996s1.22 3.008 2.949 3.008z"/><path d="m140.335 408.952c.165.047.521.083.698.083.888-.012 1.563-.32 1.954-1.291l2.759-6.75h-1.326l-1.67 4.287-1.669-4.287h-1.339l2.357 5.791-.284.651c-.166.379-.427.498-.829.498-.142 0-.344-.036-.474-.095z"/><path d="m151.001 406.714v-2.961h2.096c1.646 0 2.569-1.124 2.569-2.463 0-1.349-.912-2.474-2.569-2.474h-3.482v7.898zm1.906-4.18h-1.906v-2.499h1.906c.782 0 1.338.498 1.338 1.255 0 .746-.556 1.244-1.338 1.244z"/><path d="m158.039 406.714v-3.896c.249-.414.947-.77 1.48-.77.154 0 .273.012.379.036v-1.232c-.734 0-1.421.427-1.859.971v-.829h-1.243v5.72z"/><path d="m163.494 406.856c1.824 0 2.937-1.374 2.937-3.008 0-1.646-1.113-2.996-2.937-2.996-1.823 0-2.937 1.35-2.937 2.996 0 1.634 1.114 3.008 2.937 3.008zm0-1.101c-1.054 0-1.646-.888-1.646-1.907 0-1.006.592-1.894 1.646-1.894 1.066 0 1.646.888 1.646 1.894 0 1.019-.58 1.907-1.646 1.907z"/><path d="m169.429 406.856c.569 0 .936-.166 1.161-.367l-.296-.947c-.095.106-.308.213-.545.213-.355 0-.545-.296-.545-.687v-2.996h1.161v-1.078h-1.161v-1.563h-1.243v1.563h-.947v1.078h.947v3.304c0 .959.497 1.48 1.468 1.48z"/><path d="m174.134 406.856c.9 0 1.741-.296 2.321-.841l-.568-.817c-.415.415-1.066.64-1.634.64-1.078 0-1.717-.723-1.812-1.575h4.405v-.308c0-1.8-1.089-3.103-2.806-3.103-1.694 0-2.902 1.338-2.902 2.996 0 1.812 1.267 3.008 2.996 3.008zm1.516-3.481h-3.221c.048-.687.545-1.504 1.599-1.504 1.125 0 1.587.829 1.622 1.504z"/><path d="m180.678 406.856c1.125 0 1.788-.486 2.191-1.018l-.817-.77c-.32.45-.758.687-1.314.687-1.031 0-1.729-.794-1.729-1.907s.698-1.894 1.729-1.894c.556 0 .994.213 1.314.663l.817-.746c-.403-.545-1.066-1.019-2.191-1.019-1.728 0-2.948 1.267-2.948 2.996s1.22 3.008 2.948 3.008z"/><path d="m185.7 406.856c.568 0 .935-.166 1.16-.367l-.296-.947c-.095.106-.308.213-.545.213-.355 0-.544-.296-.544-.687v-2.996h1.16v-1.078h-1.16v-1.563h-1.244v1.563h-.947v1.078h.947v3.304c0 .959.498 1.48 1.469 1.48z"/><path d="m188.38 400.296c.426 0 .77-.344.77-.77s-.344-.77-.77-.77-.77.344-.77.77.344.77.77.77zm.616 6.418v-5.72h-1.244v5.72z"/><path d="m193.202 406.856c1.823 0 2.937-1.374 2.937-3.008 0-1.646-1.114-2.996-2.937-2.996-1.824 0-2.937 1.35-2.937 2.996 0 1.634 1.113 3.008 2.937 3.008zm0-1.101c-1.054 0-1.646-.888-1.646-1.907 0-1.006.592-1.894 1.646-1.894 1.066 0 1.646.888 1.646 1.894 0 1.019-.58 1.907-1.646 1.907z"/><path d="m202.524 406.714v-4.026c0-1.173-.616-1.836-1.848-1.836-.899 0-1.645.462-2.024.912v-.77h-1.244v5.72h1.244v-4.003c.296-.379.84-.757 1.468-.757.699 0 1.16.284 1.16 1.184v3.576z"/></g><path d="m281.139 403.635c0-5.606 4.544-10.15 10.15-10.15h15.224c5.606 0 10.15 4.544 10.15 10.15 0 5.605-4.544 10.15-10.15 10.15h-15.224c-5.606 0-10.15-4.545-10.15-10.15z" fill="#50a951"/><g filter="url(#e)"><path clip-rule="evenodd" d="m306.514 412.093c4.671 0 8.458-3.787 8.458-8.458 0-4.672-3.787-8.458-8.458-8.458-4.672 0-8.459 3.786-8.459 8.458 0 4.671 3.787 8.458 8.459 8.458z" fill="#fff" fill-rule="evenodd"/></g></g><path d="m67.9919 424.78h262.2041v.846h-262.2041z" fill="#000" fill-opacity=".05"/><path d="m67.9919 381.643h262.2041v.846h-262.2041z" fill="#000" fill-opacity=".05"/><g fill="#333"><path d="m115.047 365.269v-2.961h2.096c1.645 0 2.569-1.125 2.569-2.463 0-1.35-.912-2.475-2.569-2.475h-3.482v7.899zm1.906-4.181h-1.906v-2.498h1.906c.782 0 1.338.497 1.338 1.255 0 .746-.556 1.243-1.338 1.243z"/><path d="m123.261 365.411c1.824 0 2.937-1.374 2.937-3.008 0-1.646-1.113-2.996-2.937-2.996-1.823 0-2.936 1.35-2.936 2.996 0 1.634 1.113 3.008 2.936 3.008zm0-1.102c-1.054 0-1.646-.888-1.646-1.906 0-1.007.592-1.895 1.646-1.895 1.066 0 1.646.888 1.646 1.895 0 1.018-.58 1.906-1.646 1.906z"/><path d="m130.061 365.411c1.824 0 2.937-1.374 2.937-3.008 0-1.646-1.113-2.996-2.937-2.996s-2.937 1.35-2.937 2.996c0 1.634 1.113 3.008 2.937 3.008zm0-1.102c-1.054 0-1.646-.888-1.646-1.906 0-1.007.592-1.895 1.646-1.895 1.066 0 1.646.888 1.646 1.895 0 1.018-.58 1.906-1.646 1.906z"/><path d="m135.511 365.269v-3.896c.248-.415.947-.77 1.48-.77.154 0 .272.012.379.035v-1.231c-.734 0-1.421.426-1.859.971v-.829h-1.244v5.72z"/><path d="m142.846 365.269v-2.961h2.096c1.646 0 2.57-1.125 2.57-2.463 0-1.35-.912-2.475-2.57-2.475h-3.481v7.899zm1.907-4.181h-1.907v-2.498h1.907c.781 0 1.338.497 1.338 1.255 0 .746-.557 1.243-1.338 1.243z"/><path d="m149.885 365.269v-3.896c.248-.415.947-.77 1.48-.77.154 0 .272.012.379.035v-1.231c-.734 0-1.421.426-1.859.971v-.829h-1.244v5.72z"/><path d="m153.374 358.85c.426 0 .77-.343.77-.769 0-.427-.344-.77-.77-.77s-.77.343-.77.77c0 .426.344.769.77.769zm.616 6.419v-5.72h-1.244v5.72z"/><path d="m158.445 365.269 2.332-5.72h-1.326l-1.669 4.287-1.67-4.287h-1.338l2.333 5.72z"/><path d="m166.307 365.269v-3.802c0-1.527-1.113-2.06-2.392-2.06-.912 0-1.741.284-2.404.924l.521.864c.485-.497 1.054-.734 1.693-.734.782 0 1.338.402 1.338 1.066v.852c-.426-.485-1.077-.734-1.859-.734-.935 0-1.977.545-1.977 1.871 0 1.255 1.054 1.895 1.977 1.895.758 0 1.433-.273 1.859-.77v.628zm-2.605-.711c-.699 0-1.232-.403-1.232-1.03 0-.616.533-1.03 1.232-1.03.532 0 1.065.201 1.361.592v.876c-.296.391-.829.592-1.361.592z"/><path d="m170.524 365.411c1.124 0 1.788-.486 2.19-1.019l-.817-.769c-.32.45-.758.686-1.314.686-1.031 0-1.729-.793-1.729-1.906s.698-1.895 1.729-1.895c.556 0 .994.213 1.314.663l.817-.746c-.402-.544-1.066-1.018-2.19-1.018-1.729 0-2.949 1.267-2.949 2.996s1.22 3.008 2.949 3.008z"/><path d="m173.579 367.507c.166.047.521.082.699.082.888-.011 1.563-.319 1.954-1.29l2.759-6.75h-1.327l-1.669 4.287-1.67-4.287h-1.338l2.357 5.791-.285.651c-.165.379-.426.497-.829.497-.142 0-.343-.035-.473-.095z"/><path d="m184.245 365.269v-2.961h2.096c1.646 0 2.57-1.125 2.57-2.463 0-1.35-.912-2.475-2.57-2.475h-3.481v7.899zm1.907-4.181h-1.907v-2.498h1.907c.781 0 1.338.497 1.338 1.255 0 .746-.557 1.243-1.338 1.243z"/><path d="m191.284 365.269v-3.896c.248-.415.947-.77 1.48-.77.154 0 .272.012.379.035v-1.231c-.734 0-1.421.426-1.859.971v-.829h-1.244v5.72z"/><path d="m198.894 365.269v-3.802c0-1.527-1.113-2.06-2.392-2.06-.912 0-1.741.284-2.404.924l.521.864c.486-.497 1.054-.734 1.693-.734.782 0 1.339.402 1.339 1.066v.852c-.427-.485-1.078-.734-1.86-.734-.935 0-1.977.545-1.977 1.871 0 1.255 1.054 1.895 1.977 1.895.758 0 1.433-.273 1.86-.77v.628zm-2.605-.711c-.699 0-1.232-.403-1.232-1.03 0-.616.533-1.03 1.232-1.03.533 0 1.065.201 1.362.592v.876c-.297.391-.829.592-1.362.592z"/><path d="m203.111 365.411c1.125 0 1.788-.486 2.19-1.019l-.817-.769c-.319.45-.758.686-1.314.686-1.03 0-1.729-.793-1.729-1.906s.699-1.895 1.729-1.895c.556 0 .995.213 1.314.663l.817-.746c-.402-.544-1.065-1.018-2.19-1.018-1.729 0-2.949 1.267-2.949 2.996s1.22 3.008 2.949 3.008z"/><path d="m208.132 365.411c.568 0 .936-.166 1.161-.367l-.297-.948c-.094.107-.307.213-.544.213-.355 0-.545-.296-.545-.686v-2.996h1.161v-1.078h-1.161v-1.563h-1.243v1.563h-.948v1.078h.948v3.303c0 .96.497 1.481 1.468 1.481z"/><path d="m210.812 358.85c.427 0 .77-.343.77-.769 0-.427-.343-.77-.77-.77-.426 0-.769.343-.769.77 0 .426.343.769.769.769zm.616 6.419v-5.72h-1.243v5.72z"/><path d="m215.646 365.411c1.125 0 1.788-.486 2.191-1.019l-.817-.769c-.32.45-.758.686-1.315.686-1.03 0-1.729-.793-1.729-1.906s.699-1.895 1.729-1.895c.557 0 .995.213 1.315.663l.817-.746c-.403-.544-1.066-1.018-2.191-1.018-1.729 0-2.948 1.267-2.948 2.996s1.219 3.008 2.948 3.008z"/><path d="m221.591 365.411c.9 0 1.741-.296 2.321-.841l-.568-.817c-.415.414-1.066.639-1.635.639-1.077 0-1.717-.722-1.811-1.575h4.405v-.308c0-1.799-1.09-3.102-2.807-3.102-1.693 0-2.901 1.338-2.901 2.996 0 1.812 1.267 3.008 2.996 3.008zm1.516-3.482h-3.221c.047-.687.545-1.504 1.598-1.504 1.125 0 1.587.829 1.623 1.504z"/><path d="m227.496 365.411c1.539 0 2.38-.77 2.38-1.788 0-2.274-3.458-1.516-3.458-2.523 0-.402.403-.71 1.054-.71.722 0 1.35.308 1.693.687l.521-.877c-.509-.45-1.243-.793-2.214-.793-1.445 0-2.25.793-2.25 1.729 0 2.202 3.458 1.397 3.458 2.522 0 .45-.391.758-1.137.758-.734 0-1.528-.379-1.93-.793l-.569.888c.593.58 1.469.9 2.452.9z"/></g><path d="m67.9919 338.506h262.2041v.846h-262.2041z" fill="#000" fill-opacity=".05"/><path clip-rule="evenodd" d="m310.135 355.66c-.318.315-.318.832 0 1.147l3.713 3.691-3.713 3.69c-.318.316-.318.832 0 1.148.317.316.837.316 1.154 0l4.29-4.264c.318-.316.318-.832 0-1.148l-4.29-4.264c-.317-.316-.837-.316-1.154 0z" fill="#aaa" fill-rule="evenodd"/><path d="m91.6768 367.779c3.7379 0 6.768-3.03 6.768-6.768s-3.0301-6.768-6.768-6.768-6.768 3.03-6.768 6.768 3.0301 6.768 6.768 6.768z" style="fill-rule:evenodd;clip-rule:evenodd;stroke:#de5833;stroke-width:1.67832;stroke-linecap:round;stroke-linejoin:round"/><path d="m94.0456 358.643-4.7376 4.737" stroke="#de5833" stroke-linecap="round" stroke-width="1.67832"/><path d="m94.0456 363.38-4.7376-4.737" stroke="#de5833" stroke-linecap="round" stroke-width="1.67832"/><path d="m119.132 320.44v-1.22h-3.493c2.108-1.598 3.446-2.901 3.446-4.369 0-1.575-1.327-2.428-2.854-2.428-1.113 0-2.226.415-2.925 1.267l.805.9c.509-.568 1.208-.935 2.132-.935.722 0 1.444.367 1.444 1.196 0 1.148-1.207 2.167-4.274 4.488v1.101z" fill="#333"/><path d="m127.025 320.44v-6.679h2.392v-1.219h-6.17v1.219h2.392v6.679z" fill="#333"/><path d="m130.908 320.44v-3.896c.249-.414.948-.77 1.48-.77.154 0 .273.012.379.036v-1.232c-.734 0-1.421.427-1.859.971v-.828h-1.243v5.719z" fill="#333"/><path d="m138.519 320.44v-3.801c0-1.528-1.114-2.061-2.392-2.061-.912 0-1.741.285-2.404.924l.521.865c.485-.498 1.054-.735 1.693-.735.782 0 1.338.403 1.338 1.066v.853c-.426-.486-1.077-.734-1.859-.734-.935 0-1.977.544-1.977 1.87 0 1.256 1.053 1.895 1.977 1.895.758 0 1.433-.272 1.859-.77v.628zm-2.606-.71c-.698 0-1.231-.403-1.231-1.031 0-.615.533-1.03 1.231-1.03.533 0 1.066.201 1.362.592v.876c-.296.391-.829.593-1.362.593z" fill="#333"/><path d="m142.735 320.582c1.125 0 1.789-.485 2.191-1.018l-.817-.77c-.32.45-.758.687-1.314.687-1.031 0-1.729-.794-1.729-1.907s.698-1.894 1.729-1.894c.556 0 .994.213 1.314.663l.817-.746c-.402-.545-1.066-1.019-2.191-1.019-1.728 0-2.948 1.268-2.948 2.996 0 1.729 1.22 3.008 2.948 3.008z" fill="#333"/><path d="m151.38 320.44-2.415-3.126 2.368-2.593h-1.539l-2.523 2.759v-4.938h-1.243v7.898h1.243v-1.539l.806-.829 1.74 2.368z" fill="#333"/><path d="m154.867 320.582c.9 0 1.741-.296 2.321-.841l-.568-.817c-.415.415-1.066.64-1.634.64-1.078 0-1.717-.723-1.812-1.575h4.405v-.308c0-1.8-1.09-3.103-2.807-3.103-1.693 0-2.901 1.339-2.901 2.996 0 1.812 1.267 3.008 2.996 3.008zm1.516-3.481h-3.221c.047-.687.545-1.504 1.599-1.504 1.125 0 1.586.829 1.622 1.504z" fill="#333"/><path d="m160.049 320.44v-3.896c.249-.414.948-.77 1.481-.77.154 0 .272.012.379.036v-1.232c-.735 0-1.421.427-1.86.971v-.828h-1.243v5.719z" fill="#333"/><path d="m164.877 320.582c1.539 0 2.38-.77 2.38-1.788 0-2.274-3.458-1.516-3.458-2.522 0-.403.403-.711 1.054-.711.723 0 1.35.308 1.694.687l.521-.876c-.509-.45-1.244-.794-2.215-.794-1.444 0-2.25.794-2.25 1.729 0 2.203 3.458 1.398 3.458 2.523 0 .45-.391.757-1.137.757-.734 0-1.527-.378-1.93-.793l-.568.888c.592.58 1.468.9 2.451.9z" fill="#333"/><path d="m175.576 320.44c1.492 0 2.297-.912 2.297-2.143 0-.959-.675-1.8-1.528-1.93.735-.154 1.374-.829 1.374-1.812 0-1.113-.793-2.013-2.25-2.013h-3.884v7.898zm-.379-4.642h-2.226v-2.037h2.226c.698 0 1.101.439 1.101 1.019 0 .604-.403 1.018-1.101 1.018zm.059 3.422h-2.285v-2.202h2.285c.782 0 1.196.509 1.196 1.101 0 .687-.45 1.101-1.196 1.101z" fill="#333"/><path d="m180.483 320.44v-7.898h-1.243v7.898z" fill="#333"/><path d="m184.689 320.582c1.824 0 2.937-1.373 2.937-3.008 0-1.646-1.113-2.996-2.937-2.996-1.823 0-2.936 1.35-2.936 2.996 0 1.635 1.113 3.008 2.936 3.008zm0-1.101c-1.054 0-1.646-.888-1.646-1.907 0-1.006.592-1.894 1.646-1.894 1.066 0 1.646.888 1.646 1.894 0 1.019-.58 1.907-1.646 1.907z" fill="#333"/><path d="m191.501 320.582c1.125 0 1.788-.485 2.19-1.018l-.817-.77c-.319.45-.758.687-1.314.687-1.03 0-1.729-.794-1.729-1.907s.699-1.894 1.729-1.894c.556 0 .995.213 1.314.663l.817-.746c-.402-.545-1.065-1.019-2.19-1.019-1.729 0-2.949 1.268-2.949 2.996 0 1.729 1.22 3.008 2.949 3.008z" fill="#333"/><path d="m200.145 320.44-2.415-3.126 2.368-2.593h-1.539l-2.523 2.759v-4.938h-1.243v7.898h1.243v-1.539l.806-.829 1.74 2.368z" fill="#333"/><path d="m203.632 320.582c.9 0 1.741-.296 2.321-.841l-.568-.817c-.415.415-1.066.64-1.634.64-1.078 0-1.717-.723-1.812-1.575h4.405v-.308c0-1.8-1.089-3.103-2.806-3.103-1.694 0-2.902 1.339-2.902 2.996 0 1.812 1.267 3.008 2.996 3.008zm1.516-3.481h-3.221c.048-.687.545-1.504 1.599-1.504 1.125 0 1.587.829 1.622 1.504z" fill="#333"/><path d="m212.841 320.44v-7.898h-1.244v2.972c-.45-.616-1.113-.936-1.835-.936-1.468 0-2.534 1.149-2.534 2.996 0 1.895 1.077 3.008 2.534 3.008.746 0 1.397-.355 1.835-.924v.782zm-2.712-.959c-.995 0-1.622-.794-1.622-1.907 0-1.101.627-1.894 1.622-1.894.58 0 1.196.343 1.468.769v2.262c-.272.426-.888.77-1.468.77z" fill="#333"/><path clip-rule="evenodd" d="m94.725 315.22c.2948.283.3043.752.0211 1.046l-3.2498 3.384c-.1395.145-.3323.227-.5337.227-.2015 0-.3942-.082-.5338-.227l-1.8251-1.9c-.2832-.295-.2737-.764.021-1.047.2948-.283.7633-.274 1.0465.021l1.2914 1.345 2.716-2.828c.2832-.295.7517-.304 1.0464-.021z" fill="#3ea140" fill-rule="evenodd"/><path clip-rule="evenodd" d="m91.675 323.493c3.3867 0 6.1322-2.745 6.1322-6.132s-2.7455-6.132-6.1322-6.132-6.1322 2.745-6.1322 6.132 2.7455 6.132 6.1322 6.132zm7.6124-6.132c0 4.204-3.4082 7.612-7.6124 7.612s-7.6124-3.408-7.6124-7.612 3.4082-7.612 7.6124-7.612 7.6124 3.408 7.6124 7.612z" fill="#3ea140" fill-rule="evenodd"/><path d="m67.9919 295.369h262.2041v.846h-262.2041z" fill="#000" fill-opacity=".05"/><g clip-path="url(#l)"><g fill="#333"><path d="m118.227 277.303v-1.22h-4.026v-2.202h3.943v-1.22h-3.943v-2.037h4.026v-1.219h-5.412v7.898z"/><path d="m124.73 277.303v-4.026c0-1.172-.616-1.836-1.848-1.836-.899 0-1.646.462-2.024.912v-.769h-1.244v5.719h1.244v-4.002c.296-.379.84-.758 1.468-.758.699 0 1.16.284 1.16 1.184v3.576z"/><path d="m128.95 277.445c1.124 0 1.788-.485 2.19-1.018l-.817-.77c-.32.45-.758.687-1.314.687-1.03 0-1.729-.794-1.729-1.907s.699-1.894 1.729-1.894c.556 0 .994.213 1.314.663l.817-.746c-.402-.545-1.066-1.019-2.19-1.019-1.729 0-2.949 1.267-2.949 2.996s1.22 3.008 2.949 3.008z"/><path d="m133.485 277.303v-3.896c.249-.414.948-.77 1.481-.77.154 0 .272.012.379.036v-1.232c-.735 0-1.421.427-1.86.971v-.828h-1.243v5.719z"/><path d="m136.11 279.541c.166.047.521.083.699.083.888-.012 1.563-.32 1.954-1.291l2.759-6.749h-1.326l-1.67 4.286-1.67-4.286h-1.338l2.357 5.79-.284.651c-.166.379-.427.498-.829.498-.142 0-.344-.036-.474-.095z"/><path d="m145.381 277.445c1.481 0 2.535-1.125 2.535-3.008 0-1.882-1.054-2.996-2.535-2.996-.746 0-1.409.356-1.835.924v-.781h-1.243v7.898h1.243v-2.972c.474.603 1.113.935 1.835.935zm-.367-1.101c-.58 0-1.196-.355-1.468-.782v-2.261c.284-.427.888-.758 1.468-.758.983 0 1.623.781 1.623 1.894s-.64 1.907-1.623 1.907z"/><path d="m150.889 277.445c.568 0 .935-.166 1.16-.367l-.296-.947c-.094.106-.307.213-.544.213-.356 0-.545-.296-.545-.687v-2.996h1.16v-1.077h-1.16v-1.564h-1.243v1.564h-.948v1.077h.948v3.304c0 .959.497 1.48 1.468 1.48z"/><path d="m155.594 277.445c.9 0 1.741-.296 2.321-.841l-.568-.817c-.415.415-1.066.64-1.635.64-1.077 0-1.717-.723-1.811-1.575h4.405v-.308c0-1.8-1.09-3.103-2.807-3.103-1.693 0-2.901 1.338-2.901 2.996 0 1.812 1.267 3.008 2.996 3.008zm1.516-3.481h-3.221c.047-.687.545-1.504 1.598-1.504 1.125 0 1.587.829 1.623 1.504z"/><path d="m164.802 277.303v-7.898h-1.243v2.972c-.45-.616-1.113-.936-1.835-.936-1.469 0-2.534 1.149-2.534 2.996 0 1.895 1.077 3.008 2.534 3.008.746 0 1.397-.355 1.835-.924v.782zm-2.711-.959c-.995 0-1.623-.794-1.623-1.907 0-1.101.628-1.894 1.623-1.894.58 0 1.196.343 1.468.769v2.262c-.272.426-.888.77-1.468.77z"/><path d="m173.303 277.445c1.587 0 2.57-.841 3.174-1.788l-1.185-.592c-.379.651-1.148 1.149-1.989 1.149-1.563 0-2.723-1.208-2.723-2.854 0-1.67 1.16-2.854 2.723-2.854.841 0 1.61.485 1.989 1.149l1.173-.616c-.581-.948-1.575-1.765-3.162-1.765-2.333 0-4.144 1.646-4.144 4.086 0 2.427 1.811 4.085 4.144 4.085z"/><path d="m180.131 277.445c1.824 0 2.937-1.374 2.937-3.008 0-1.646-1.113-2.996-2.937-2.996-1.823 0-2.936 1.35-2.936 2.996 0 1.634 1.113 3.008 2.936 3.008zm0-1.101c-1.054 0-1.646-.888-1.646-1.907 0-1.006.592-1.894 1.646-1.894 1.066 0 1.646.888 1.646 1.894 0 1.019-.58 1.907-1.646 1.907z"/><path d="m189.453 277.303v-4.026c0-1.172-.616-1.836-1.847-1.836-.9 0-1.646.462-2.025.912v-.769h-1.243v5.719h1.243v-4.002c.296-.379.841-.758 1.468-.758.699 0 1.161.284 1.161 1.184v3.576z"/><path d="m196.183 277.303v-4.026c0-1.172-.615-1.836-1.847-1.836-.9 0-1.646.462-2.025.912v-.769h-1.243v5.719h1.243v-4.002c.296-.379.841-.758 1.469-.758.698 0 1.16.284 1.16 1.184v3.576z"/><path d="m200.451 277.445c.9 0 1.74-.296 2.321-.841l-.569-.817c-.414.415-1.066.64-1.634.64-1.078 0-1.717-.723-1.812-1.575h4.405v-.308c0-1.8-1.089-3.103-2.806-3.103-1.693 0-2.901 1.338-2.901 2.996 0 1.812 1.267 3.008 2.996 3.008zm1.515-3.481h-3.221c.048-.687.545-1.504 1.599-1.504 1.125 0 1.587.829 1.622 1.504z"/><path d="m206.995 277.445c1.125 0 1.788-.485 2.19-1.018l-.817-.77c-.319.45-.758.687-1.314.687-1.03 0-1.729-.794-1.729-1.907s.699-1.894 1.729-1.894c.556 0 .995.213 1.314.663l.817-.746c-.402-.545-1.065-1.019-2.19-1.019-1.729 0-2.949 1.267-2.949 2.996s1.22 3.008 2.949 3.008z"/><path d="m212.016 277.445c.568 0 .935-.166 1.16-.367l-.296-.947c-.094.106-.307.213-.544.213-.356 0-.545-.296-.545-.687v-2.996h1.161v-1.077h-1.161v-1.564h-1.243v1.564h-.948v1.077h.948v3.304c0 .959.497 1.48 1.468 1.48z"/><path d="m214.696 270.885c.426 0 .77-.344.77-.77s-.344-.77-.77-.77-.77.344-.77.77.344.77.77.77zm.616 6.418v-5.719h-1.243v5.719z"/><path d="m219.518 277.445c1.824 0 2.937-1.374 2.937-3.008 0-1.646-1.113-2.996-2.937-2.996-1.823 0-2.937 1.35-2.937 2.996 0 1.634 1.114 3.008 2.937 3.008zm0-1.101c-1.054 0-1.646-.888-1.646-1.907 0-1.006.592-1.894 1.646-1.894 1.066 0 1.646.888 1.646 1.894 0 1.019-.58 1.907-1.646 1.907z"/><path d="m228.84 277.303v-4.026c0-1.172-.616-1.836-1.847-1.836-.9 0-1.646.462-2.025.912v-.769h-1.244v5.719h1.244v-4.002c.296-.379.841-.758 1.468-.758.699 0 1.161.284 1.161 1.184v3.576z"/></g><path clip-rule="evenodd" d="m94.725 272.084c.2948.283.3043.751.0211 1.046l-3.2498 3.383c-.1395.146-.3323.228-.5337.228-.2015 0-.3942-.082-.5338-.228l-1.8251-1.9c-.2832-.295-.2737-.763.021-1.046.2948-.283.7633-.274 1.0465.021l1.2914 1.344 2.716-2.827c.2832-.295.7517-.305 1.0464-.021z" fill="#3ea140" fill-rule="evenodd"/><path clip-rule="evenodd" d="m91.675 280.356c3.3867 0 6.1322-2.745 6.1322-6.132s-2.7455-6.132-6.1322-6.132-6.1322 2.745-6.1322 6.132 2.7455 6.132 6.1322 6.132zm7.6124-6.132c0 4.204-3.4082 7.613-7.6124 7.613s-7.6124-3.409-7.6124-7.613 3.4082-7.612 7.6124-7.612 7.6124 3.408 7.6124 7.612z" fill="#3ea140" fill-rule="evenodd"/></g><path clip-rule="evenodd" d="m310.135 309.139c-.318.315-.318.832 0 1.147l3.713 3.691-3.713 3.691c-.318.315-.318.832 0 1.147.317.316.837.316 1.154 0l4.29-4.264c.318-.316.318-.832 0-1.148l-4.29-4.264c-.317-.316-.837-.316-1.154 0z" fill="#aaa" fill-rule="evenodd"/></g></svg>