<svg fill="none" height="540" viewBox="0 0 399 540" width="399" xmlns="http://www.w3.org/2000/svg" xmlns:xlink="http://www.w3.org/1999/xlink"><filter id="a" color-interpolation-filters="sRGB" filterUnits="userSpaceOnUse" height="168.693" width="281.664" x="59.0455" y="50.9322"><feFlood flood-opacity="0" result="BackgroundImageFix"/><feColorMatrix in="SourceAlpha" type="matrix" values="0 0 0 0 0 0 0 0 0 0 0 0 0 0 0 0 0 0 127 0"/><feOffset/><feGaussianBlur stdDeviation="1.47726"/><feColorMatrix type="matrix" values="0 0 0 0 0 0 0 0 0 0 0 0 0 0 0 0 0 0 0.1 0"/><feBlend in2="BackgroundImageFix" mode="normal" result="effect1_dropShadow"/><feBlend in="SourceGraphic" in2="effect1_dropShadow" mode="normal" result="shape"/></filter><filter id="b" color-interpolation-filters="sRGB" filterUnits="userSpaceOnUse" height="39.832" width="263.009" x="68.8653" y="5.1407"><feFlood flood-opacity="0" result="BackgroundImageFix"/><feColorMatrix in="SourceAlpha" type="matrix" values="0 0 0 0 0 0 0 0 0 0 0 0 0 0 0 0 0 0 127 0"/><feOffset/><feGaussianBlur stdDeviation="1.47726"/><feColorMatrix type="matrix" values="0 0 0 0 0 0 0 0 0 0 0 0 0 0 0 0 0 0 0.2 0"/><feBlend in2="BackgroundImageFix" mode="normal" result="effect1_dropShadow"/><feBlend in="SourceGraphic" in2="effect1_dropShadow" mode="normal" result="shape"/></filter><filter id="c" color-interpolation-filters="sRGB" filterUnits="userSpaceOnUse" height="184.165" width="282.649" x="59.3178" y="355.4"><feFlood flood-opacity="0" result="BackgroundImageFix"/><feColorMatrix in="SourceAlpha" type="matrix" values="0 0 0 0 0 0 0 0 0 0 0 0 0 0 0 0 0 0 127 0"/><feOffset/><feGaussianBlur stdDeviation="1.47726"/><feColorMatrix type="matrix" values="0 0 0 0 0 0 0 0 0 0 0 0 0 0 0 0 0 0 0.1 0"/><feBlend in2="BackgroundImageFix" mode="normal" result="effect1_dropShadow"/><feBlend in="SourceGraphic" in2="effect1_dropShadow" mode="normal" result="shape"/></filter><filter id="d" color-interpolation-filters="sRGB" filterUnits="userSpaceOnUse" height="21.3589" width="21.3589" x="302.56" y="417.102"><feFlood flood-opacity="0" result="BackgroundImageFix"/><feColorMatrix in="SourceAlpha" type="matrix" values="0 0 0 0 0 0 0 0 0 0 0 0 0 0 0 0 0 0 127 0"/><feOffset dy=".889954"/><feGaussianBlur stdDeviation=".889954"/><feColorMatrix type="matrix" values="0 0 0 0 0 0 0 0 0 0 0 0 0 0 0 0 0 0 0.236158 0"/><feBlend in2="BackgroundImageFix" mode="normal" result="effect1_dropShadow"/><feBlend in="SourceGraphic" in2="effect1_dropShadow" mode="normal" result="shape"/></filter><filter id="e" color-interpolation-filters="sRGB" filterUnits="userSpaceOnUse" height="96.5142" width="389.996" x="5.15168" y="278.61"><feFlood flood-opacity="0" result="BackgroundImageFix"/><feColorMatrix in="SourceAlpha" type="matrix" values="0 0 0 0 0 0 0 0 0 0 0 0 0 0 0 0 0 0 127 0"/><feOffset dy="5.90903"/><feGaussianBlur stdDeviation="11.3256"/><feColorMatrix type="matrix" values="0 0 0 0 0 0 0 0 0 0 0 0 0 0 0 0 0 0 0.16 0"/><feBlend in2="BackgroundImageFix" mode="normal" result="effect1_dropShadow"/><feBlend in="SourceGraphic" in2="effect1_dropShadow" mode="normal" result="shape"/></filter><filter id="f" color-interpolation-filters="sRGB" filterUnits="userSpaceOnUse" height="69.8385" width="377.254" x="11.0606" y="281.644"><feFlood flood-opacity="0" result="BackgroundImageFix"/><feColorMatrix in="SourceAlpha" type="matrix" values="0 0 0 0 0 0 0 0 0 0 0 0 0 0 0 0 0 0 127 0"/><feOffset/><feGaussianBlur stdDeviation="1.96968"/><feColorMatrix type="matrix" values="0 0 0 0 0 0 0 0 0 0 0 0 0 0 0 0 0 0 0.15 0"/><feBlend in2="BackgroundImageFix" mode="normal" result="effect1_dropShadow"/><feBlend in="SourceGraphic" in2="effect1_dropShadow" mode="normal" result="shape"/></filter><filter id="g" color-interpolation-filters="sRGB" filterUnits="userSpaceOnUse" height="52.1647" width="281.664" x="59.3178" y="225.466"><feFlood flood-opacity="0" result="BackgroundImageFix"/><feColorMatrix in="SourceAlpha" type="matrix" values="0 0 0 0 0 0 0 0 0 0 0 0 0 0 0 0 0 0 127 0"/><feOffset/><feGaussianBlur stdDeviation="1.47726"/><feColorMatrix type="matrix" values="0 0 0 0 0 0 0 0 0 0 0 0 0 0 0 0 0 0 0.1 0"/><feBlend in2="BackgroundImageFix" mode="normal" result="effect1_dropShadow"/><feBlend in="SourceGraphic" in2="effect1_dropShadow" mode="normal" result="shape"/></filter><radialGradient id="h" cx="0" cy="0" gradientTransform="matrix(0 -12.6347 12.6347 0 278.5 204.26)" gradientUnits="userSpaceOnUse" r="1"><stop offset="0" stop-color="#f6b151"/><stop offset="1" stop-color="#e09d40"/></radialGradient><linearGradient id="i"><stop offset=".01" stop-color="#6176b9"/><stop offset=".69" stop-color="#394a9f"/></linearGradient><linearGradient id="j" gradientUnits="userSpaceOnUse" x1="85.0245" x2="86.3836" xlink:href="#i" y1="22.092" y2="22.092"/><linearGradient id="k" gradientUnits="userSpaceOnUse" x1="89.2985" x2="90.537" xlink:href="#i" y1="21.4736" y2="21.4736"/><clipPath id="l"><path d="m62.2723 450.19h275.886v39.158h-275.886z"/></clipPath><clipPath id="m"><path d="m76.5117 416.213h247.407v21.3589h-247.407z"/></clipPath><clipPath id="n"><rect height="46.2557" rx="4.92186" width="275.755" x="62.2723" y="228.421"/></clipPath><mask id="o" height="16" maskUnits="userSpaceOnUse" width="10" x="83" y="18"><path clip-rule="evenodd" d="m92.4062 33.1779c-1.1185.5189-2.3624.8085-3.6732.8085-1.8345 0-3.5395-.5686-4.9518-1.5418l.0001-14.2847h8.6249z" fill="#fff" fill-rule="evenodd"/></mask><mask id="p" height="16" maskUnits="userSpaceOnUse" width="9" x="84" y="18"><path clip-rule="evenodd" d="m92.7837 32.992c-1.2134.6356-2.5909.9952-4.0515.9952-1.6916 0-3.2731-.4835-4.6165-1.3218v-14.5565h8.668z" fill="#fff" fill-rule="evenodd"/></mask><mask id="q" height="17" maskUnits="userSpaceOnUse" width="17" x="80" y="16"><path clip-rule="evenodd" d="m88.515 32.7613c4.5543 0 8.2463-3.692 8.2463-8.2463s-3.692-8.2463-8.2463-8.2463-8.2463 3.692-8.2463 8.2463 3.692 8.2463 8.2463 8.2463z" fill="#fff" fill-rule="evenodd"/></mask><g filter="url(#a)"><rect fill="#fff" height="162.784" rx="4.44766" width="275.755" x="62" y="53.8867"/><g fill="#888"><path d="m122.478 202.492c1.228 0 2.231-.523 2.925-1.302v-2.658h-3.373v1.099h2.135v1.1c-.32.309-.961.64-1.687.64-1.409 0-2.455-1.089-2.455-2.572 0-1.506 1.046-2.573 2.455-2.573.79 0 1.463.416 1.847.95l1.014-.587c-.566-.811-1.473-1.473-2.861-1.473-2.07 0-3.736 1.441-3.736 3.683 0 2.23 1.666 3.693 3.736 3.693z"/><path d="m133.334 202.353-1.751-2.797c.865-.138 1.698-.832 1.698-2.092 0-1.323-.929-2.231-2.338-2.231h-3.128v7.12h1.249v-2.658h1.249l1.569 2.658zm-2.551-3.757h-1.719v-2.263h1.719c.704 0 1.217.437 1.217 1.121 0 .693-.513 1.142-1.217 1.142z"/><path d="m142.056 202.353-2.797-7.12h-1.558l-2.797 7.12h1.42l.523-1.377h3.266l.523 1.377zm-2.295-2.476h-2.562l1.281-3.395z"/><path d="m146.592 202.353c2.221 0 3.715-1.462 3.715-3.565 0-2.082-1.494-3.555-3.725-3.555h-2.647v7.12zm-.01-1.099h-1.399v-4.921h1.409c1.58 0 2.434 1.089 2.434 2.455 0 1.355-.896 2.466-2.444 2.466z"/><path d="m157.503 202.353v-1.099h-3.629v-1.986h3.554v-1.099h-3.554v-1.836h3.629v-1.1h-4.878v7.12z"/><path d="m168.64 202.353v-1.099h-3.63v-1.986h3.555v-1.099h-3.555v-1.836h3.63v-1.1h-4.879v7.12z"/><path d="m177.204 202.353v-7.12h-1.249v4.932l-3.64-4.932h-1.281v7.12h1.249v-5.092l3.715 5.092z"/><path d="m186.03 202.353v-7.12h-1.249v2.904h-3.704v-2.904h-1.248v7.12h1.248v-3.117h3.704v3.117z"/><path d="m195.07 202.353-2.797-7.12h-1.558l-2.797 7.12h1.42l.523-1.377h3.266l.523 1.377zm-2.295-2.476h-2.562l1.281-3.395z"/><path d="m203.118 202.353v-7.12h-1.249v4.932l-3.639-4.932h-1.281v7.12h1.248v-5.092l3.715 5.092z"/><path d="m209.17 202.481c1.43 0 2.316-.758 2.86-1.612l-1.067-.533c-.342.587-1.036 1.035-1.793 1.035-1.409 0-2.455-1.089-2.455-2.572 0-1.506 1.046-2.573 2.455-2.573.757 0 1.451.438 1.793 1.035l1.057-.555c-.523-.854-1.42-1.59-2.85-1.59-2.103 0-3.736 1.484-3.736 3.683 0 2.188 1.633 3.682 3.736 3.682z"/><path d="m219.009 202.353v-1.099h-3.629v-1.986h3.555v-1.099h-3.555v-1.836h3.629v-1.1h-4.878v7.12z"/><path d="m224.062 202.353c2.22 0 3.714-1.462 3.714-3.565 0-2.082-1.494-3.555-3.725-3.555h-2.647v7.12zm-.011-1.099h-1.398v-4.921h1.409c1.579 0 2.433 1.089 2.433 2.455 0 1.355-.896 2.466-2.444 2.466z"/><path d="m235.207 202.353v-3.085h3.554v-1.099h-3.554v-1.836h3.629v-1.1h-4.878v7.12z"/><path d="m246.603 202.353-1.75-2.797c.864-.138 1.697-.832 1.697-2.092 0-1.323-.929-2.231-2.338-2.231h-3.127v7.12h1.249v-2.658h1.248l1.57 2.658zm-2.551-3.757h-1.718v-2.263h1.718c.705 0 1.217.437 1.217 1.121 0 .693-.512 1.142-1.217 1.142z"/><path d="m252.24 202.481c2.124 0 3.64-1.558 3.64-3.682 0-2.125-1.516-3.683-3.64-3.683-2.135 0-3.64 1.558-3.64 3.683 0 2.124 1.505 3.682 3.64 3.682zm0-1.11c-1.441 0-2.359-1.11-2.359-2.572 0-1.474.918-2.573 2.359-2.573 1.431 0 2.359 1.099 2.359 2.573 0 1.462-.928 2.572-2.359 2.572z"/><path d="m265.581 202.353v-7.12h-1.761l-1.932 4.889-1.943-4.889h-1.761v7.12h1.249v-5.497l2.188 5.497h.534l2.177-5.497v5.497z"/></g><path clip-rule="evenodd" d="m271.625 198.5c0-3.797 3.078-6.875 6.875-6.875 1.823 0 3.572.724 4.861 2.014 1.29 1.289 2.014 3.038 2.014 4.861 0 3.797-3.078 6.875-6.875 6.875s-6.875-3.078-6.875-6.875zm8.519.894c-.23.535-.749.888-1.332.903-.469 0-.919-.191-1.243-.531-.325-.339-.497-.797-.475-1.266-.023-.47.148-.928.473-1.268s.775-.531 1.245-.529c.587.01 1.113.364 1.344.903l1.378-.668c-.492-1.048-1.565-1.698-2.722-1.647-1.893 0-3.359 1.303-3.359 3.209s1.453 3.209 3.359 3.209c1.154.032 2.218-.621 2.71-1.665z" fill="url(#h)" fill-rule="evenodd"/><path d="m144.703 181.572c1.755 0 2.818-.78 3.386-1.56l-1.472-1.383c-.407.585-1.028.94-1.808.94-1.365 0-2.322-1.01-2.322-2.5 0-1.489.957-2.481 2.322-2.481.78 0 1.401.319 1.808.921l1.472-1.382c-.568-.78-1.631-1.543-3.386-1.543-2.624 0-4.538 1.862-4.538 4.485 0 2.642 1.914 4.503 4.538 4.503z" fill="#333"/><path d="m151.812 181.359v-5.655c.372-.549 1.365-.975 2.109-.975.266 0 .461.018.621.054v-2.199c-1.064 0-2.11.621-2.73 1.365v-1.152h-2.252v8.562z" fill="#333"/><path d="m159.972 181.572c1.33 0 2.677-.408 3.528-1.188l-1.01-1.489c-.55.532-1.543.834-2.269.834-1.454 0-2.305-.869-2.464-1.915h6.364v-.532c0-2.783-1.72-4.698-4.29-4.698-2.588 0-4.432 2.004-4.432 4.485 0 2.748 1.968 4.503 4.573 4.503zm1.986-5.318h-4.219c.089-.851.691-1.826 2.092-1.826 1.489 0 2.056 1.011 2.127 1.826z" fill="#333"/><path d="m169.771 181.572c1.329 0 2.677-.408 3.528-1.188l-1.011-1.489c-.549.532-1.542.834-2.269.834-1.454 0-2.304-.869-2.464-1.915h6.364v-.532c0-2.783-1.72-4.698-4.29-4.698-2.588 0-4.432 2.004-4.432 4.485 0 2.748 1.968 4.503 4.574 4.503zm1.985-5.318h-4.219c.089-.851.692-1.826 2.092-1.826 1.489 0 2.056 1.011 2.127 1.826z" fill="#333"/><path d="m180.438 181.572c2.198 0 3.793-1.648 3.793-4.503 0-2.854-1.595-4.485-3.793-4.485-1.046 0-1.986.461-2.641 1.295v-1.082h-2.252v11.824h2.252v-4.361c.709.887 1.63 1.312 2.641 1.312zm-.709-2.003c-.727 0-1.56-.443-1.932-.993v-3.013c.39-.568 1.205-.975 1.932-.975 1.294 0 2.18 1.01 2.18 2.481 0 1.49-.886 2.5-2.18 2.5z" fill="#333"/><path d="m185.597 184.692c.266.089.851.142 1.099.142 1.471-.036 2.606-.461 3.244-2.074l4.024-9.963h-2.411l-2.251 5.957-2.234-5.957h-2.411l3.475 8.669-.32.744c-.212.461-.602.621-1.187.621-.213 0-.514-.053-.709-.142z" fill="#333"/><path d="m198.053 181.572c2.376 0 3.723-1.152 3.723-2.73 0-3.457-5.088-2.393-5.088-3.652 0-.478.532-.833 1.348-.833 1.046 0 2.021.461 2.535.993l.904-1.596c-.851-.673-2.003-1.17-3.439-1.17-2.269 0-3.51 1.259-3.51 2.695 0 3.368 5.07 2.216 5.07 3.616 0 .532-.461.904-1.436.904-1.064 0-2.323-.585-2.961-1.187l-.975 1.631c.904.833 2.34 1.329 3.829 1.329z" fill="#333"/><path d="m204.534 171.875c.744 0 1.347-.602 1.347-1.347 0-.744-.603-1.329-1.347-1.329-.727 0-1.33.585-1.33 1.329 0 .745.603 1.347 1.33 1.347zm1.134 9.484v-8.562h-2.251v8.562z" fill="#333"/><path d="m210.772 181.572c.94 0 1.543-.248 1.879-.549l-.478-1.72c-.124.142-.443.266-.78.266-.497 0-.78-.408-.78-.957v-3.847h1.737v-1.968h-1.737v-2.34h-2.251v2.34h-1.419v1.968h1.419v4.449c0 1.543.833 2.358 2.41 2.358z" fill="#333"/><path d="m217.914 181.572c1.33 0 2.677-.408 3.528-1.188l-1.01-1.489c-.55.532-1.543.834-2.269.834-1.454 0-2.305-.869-2.464-1.915h6.364v-.532c0-2.783-1.72-4.698-4.29-4.698-2.588 0-4.432 2.004-4.432 4.485 0 2.748 1.968 4.503 4.573 4.503zm1.986-5.318h-4.219c.089-.851.691-1.826 2.092-1.826 1.489 0 2.056 1.011 2.127 1.826z" fill="#333"/><path d="m224.772 181.554c.78 0 1.436-.656 1.436-1.435 0-.78-.656-1.436-1.436-1.436s-1.436.656-1.436 1.436c0 .779.656 1.435 1.436 1.435z" fill="#333"/><path d="m232.092 181.572c1.755 0 2.818-.78 3.386-1.56l-1.472-1.383c-.407.585-1.028.94-1.808.94-1.365 0-2.322-1.01-2.322-2.5 0-1.489.957-2.481 2.322-2.481.78 0 1.401.319 1.808.921l1.472-1.382c-.568-.78-1.631-1.543-3.386-1.543-2.624 0-4.538 1.862-4.538 4.485 0 2.642 1.914 4.503 4.538 4.503z" fill="#333"/><path d="m240.92 181.572c2.837 0 4.539-2.074 4.539-4.503 0-2.428-1.702-4.485-4.539-4.485-2.818 0-4.52 2.057-4.52 4.485 0 2.429 1.702 4.503 4.52 4.503zm0-2.003c-1.4 0-2.18-1.152-2.18-2.5 0-1.329.78-2.481 2.18-2.481 1.419 0 2.199 1.152 2.199 2.481 0 1.348-.78 2.5-2.199 2.5z" fill="#333"/><path d="m260.034 181.359v-6.186c0-1.755-.94-2.589-2.518-2.589-1.311 0-2.446.78-2.942 1.543-.302-.958-1.117-1.543-2.376-1.543-1.312 0-2.428.816-2.801 1.312v-1.099h-2.251v8.562h2.251v-5.779c.337-.461.993-.992 1.773-.992.922 0 1.276.567 1.276 1.365v5.406h2.27v-5.779c.319-.461.975-.992 1.772-.992.922 0 1.277.567 1.277 1.365v5.406z" fill="#333"/><path d="m199.721 156.171c24.694 0 44.713-20.159 44.713-45.026 0-24.8678-20.019-45.0268-44.713-45.0268-24.695 0-44.714 20.159-44.714 45.0268 0 24.867 20.019 45.026 44.714 45.026z" fill="#999" fill-opacity=".25"/><path d="m199.721 66.1182c-5.969-.0074-11.878 1.1921-17.378 3.5272h.669c19.823-.0027 37.578 12.348 44.591 31.0176 7.013 18.67 1.821 39.762-13.041 52.971 20.567-7.276 32.927-28.426 29.258-50.065-3.67-21.6392-22.3-37.4602-44.099-37.4508z" fill="#333" fill-opacity=".15"/><path d="m244.354 111.964c.016-11.416-4.429-22.3769-12.37-30.5014h-73.798c-1.538 0-2.785 1.2593-2.785 2.8127v50.5187c0 2.479 1.99 4.488 4.444 4.488h74.948c6.2-7.726 9.577-17.373 9.561-27.318z" fill="#fff"/><path d="m231.634 79.6116h-76.722c-.749-.0011-1.467.2978-1.996.8308-.53.5331-.826 1.2563-.825 2.0101v4.0472h85.053c-1.608-2.4728-3.453-4.78-5.51-6.8881z" fill="#777"/><path d="m204.446 121.231h-15.399c-.509-.004-.921-.419-.925-.931v-9.405c.007-.512.417-.925.925-.932h15.411c.51.005.921.419.926.932v9.405c.011.252-.085.498-.264.675-.178.178-.423.271-.674.256z" fill="#999" fill-opacity=".25"/><path d="m224.731 121.231h-15.415c-.508-.006-.919-.42-.925-.931v-9.405c.006-.512.417-.925.925-.932h15.415c.509.007.919.42.926.932v9.405c.003.248-.093.487-.268.662-.174.176-.411.273-.658.269z" fill="#dee2ea"/><path d="m213.984 127.229h-24.429c-.384.002-.753-.152-1.025-.426-.271-.274-.423-.646-.42-1.034-.003-.387.149-.759.42-1.033.272-.274.641-.428 1.025-.427h24.429c.384-.001.754.153 1.026.427s.425.646.423 1.033c-.023.797-.659 1.437-1.449 1.46z" fill="#999" fill-opacity=".25"/><path d="m228.069 127.229h-9.215c-.385.002-.754-.152-1.025-.426-.272-.274-.423-.646-.421-1.034-.002-.387.149-.759.421-1.033.271-.274.64-.428 1.025-.427h9.215c.385-.001.754.153 1.026.427s.425.646.424 1.033c.001.388-.152.76-.424 1.034s-.641.428-1.026.426z" fill="#dee2ea"/><path d="m198.771 133.086h-9.216c-.384.001-.753-.152-1.025-.427-.271-.274-.423-.646-.42-1.033-.003-.387.149-.759.42-1.033.272-.274.641-.428 1.025-.427h9.216c.384-.001.754.152 1.026.426s.425.646.423 1.034c.002.388-.151.76-.423 1.034s-.642.427-1.026.426z" fill="#999" fill-opacity=".25"/><path d="m217.086 133.086h-9.22c-.384.001-.753-.152-1.025-.427-.271-.274-.423-.646-.421-1.033-.002-.387.15-.759.421-1.033.272-.274.641-.428 1.025-.427h9.22c.384-.001.753.153 1.025.427.271.274.423.646.42 1.033-.021.796-.655 1.436-1.445 1.46z" fill="#999" fill-opacity=".25"/><path d="m203.318 133.065c.801 0 1.45-.653 1.45-1.46 0-.806-.649-1.46-1.45-1.46-.8 0-1.449.654-1.449 1.46 0 .807.649 1.46 1.449 1.46z" fill="#999" fill-opacity=".25"/><path d="m226.057 133.065c.801 0 1.45-.653 1.45-1.46 0-.806-.649-1.46-1.45-1.46-.8 0-1.45.654-1.45 1.46 0 .807.65 1.46 1.45 1.46z" fill="#dee2ea"/><path d="m221.873 133.065c.801 0 1.45-.653 1.45-1.46 0-.806-.649-1.46-1.45-1.46s-1.45.654-1.45 1.46c0 .807.649 1.46 1.45 1.46z" fill="#dee2ea"/><path d="m230.89 133.086h7.894c.526-.948 1.017-1.919 1.474-2.912-.049 0-.103 0-.152 0h-9.216c-.756.058-1.34.693-1.34 1.456 0 .764.584 1.398 1.34 1.456z" fill="#dee2ea"/><path d="m229.56 121.231h13.747c.752-3.308 1.13-6.692 1.127-10.086 0-.416 0-.791 0-1.182h-14.87c-.508.007-.918.42-.925.932v9.405c.004.511.414.925.921.931z" fill="#dee2ea"/><path d="m244.236 106.881c-.458-4.965-1.738-9.8185-3.788-14.3583h-50.393c-.512 0-1.002.2047-1.364.5689-.362.3643-.565.8584-.565 1.3736v10.5148c0 .516.203 1.01.565 1.374s.852.569 1.364.569h53.929c.085-.008.169-.022.252-.042z" fill="#999" fill-opacity=".25"/><path d="m157.65 84.395c.735 0 1.331-.5996 1.331-1.3393s-.596-1.3394-1.331-1.3394c-.734 0-1.33.5997-1.33 1.3394s.596 1.3393 1.33 1.3393z" fill="#aaa"/><path d="m162.281 84.395c.734 0 1.33-.5996 1.33-1.3393s-.596-1.3394-1.33-1.3394c-.735 0-1.33.5997-1.33 1.3394s.595 1.3393 1.33 1.3393z" fill="#aaa"/><path d="m166.907 84.395c.735 0 1.33-.5996 1.33-1.3393s-.595-1.3394-1.33-1.3394c-.734 0-1.33.5997-1.33 1.3394s.596 1.3393 1.33 1.3393z" fill="#aaa"/><path d="m182.636 139.425h-26.022c-2.492-.011-4.51-2.041-4.523-4.55v-48.4585h30.566z" fill="#3fa140"/><path d="m173.739 118.353h-14.246c-.685 0-1.239-.559-1.239-1.248s.554-1.248 1.239-1.248h14.246c.685 0 1.239.559 1.239 1.248s-.554 1.248-1.239 1.248z" fill="#fff" opacity=".59"/><path d="m173.739 124.351h-14.246c-.685 0-1.239-.559-1.239-1.248s.554-1.248 1.239-1.248h14.246c.685 0 1.239.559 1.239 1.248s-.554 1.248-1.239 1.248z" fill="#fff" opacity=".59"/><path d="m170.117 130.391h-10.624c-.685 0-1.239-.559-1.239-1.248s.554-1.248 1.239-1.248h10.624c.684 0 1.239.559 1.239 1.248s-.555 1.248-1.239 1.248z" fill="#fff" opacity=".59"/><path d="m173.739 130.391c-.684 0-1.239-.559-1.239-1.248s.555-1.248 1.239-1.248c.685 0 1.239.559 1.239 1.248s-.554 1.248-1.239 1.248z" fill="#fff" opacity=".59"/><path d="m167.407 112.297c5.801 0 10.504-4.736 10.504-10.578 0-5.8415-4.703-10.5773-10.504-10.5773s-10.504 4.7358-10.504 10.5773c0 5.842 4.703 10.578 10.504 10.578z" fill="#fff" opacity=".59"/><path d="m173.999 109.905c-.086-.436-.262-.85-.516-1.214-.525-.728-1.731-.728-2.697-.77-.393.037-.788-.004-1.165-.12-.607-.246-.727-1.053-.768-1.46-.323-1.011-.765-1.336-1.24-1.215l-.239.241-.244-.241c-.483-.083-.681 0-1.004 1.215-.041.416-.202 1.214-.764 1.46-.378.116-.775.157-1.169.12-.966 0-2.214.042-2.697.77-.299.372-.485.822-.537 1.297 1.872 1.52 4.204 2.35 6.609 2.351 2.359-.036 4.633-.896 6.431-2.434z" fill="#9b7a56"/><path d="m171.228 101.033c0 2.716-1.69 6.04-3.821 6.04s-3.825-3.366-3.825-6.04c0-2.6746 1.689-4.9041 3.825-4.9041 2.135 0 3.821 2.1879 3.821 4.9041z" fill="#9b7a56"/><path d="m163.504 96.8984h7.323v2.8368h-7.323z" fill="#af58c4"/><path d="m167.444 96.8984h3.701v2.8368h-3.701z" fill="#ce6ce5"/><path clip-rule="evenodd" d="m173.598 97.0068c.2.41.217.8867.046 1.3101.352.3656.504.8805.41 1.3803-.095.4998-.425.9218-.885 1.1318.723.932.401 2.147-.644 2.471-.086.812-.763 1.431-1.574 1.439-.215.432-.616.739-1.086.832h-.079c.832-1.153 1.267-2.548 1.239-3.972-.005-.392-.033-.784-.082-1.173-.196-.044-.368-.159-.484-.325-.184.16-.432.225-.67.177-.239-.048-.442-.204-.552-.4221-.163.1791-.398.2741-.639.2591-.24-.015-.461-.1397-.6-.3381-.143.2179-.385.3491-.645.3491-.259 0-.501-.1312-.644-.3491-.133.207-.356.3381-.6.3541-.244.015-.482-.087-.639-.2751-.107.2181-.307.3731-.543.4211-.237.049-.482-.017-.664-.176-.117.146-.28.247-.462.287-.05.389-.077.781-.083 1.173.01 1.44.492 2.837 1.372 3.973h-.141c-.475-.103-.884-.406-1.123-.832-.794-.032-1.453-.627-1.57-1.419-1.128-.362-1.252-1.638-.644-2.47-.461-.203-.796-.617-.9-1.1124-.104-.4951.036-1.0104.375-1.3837-.178-.4223-.165-.9017.035-1.3136.201-.412.57-.7158 1.01-.8327-.11-.4512.006-.9284.312-1.2764.306-.3479.762-.5223 1.221-.4664.214-.4172.59-.7273 1.038-.8579.448-.1305.93-.07 1.333.1674.338-.3952.83-.6224 1.348-.6224s1.011.2272 1.349.6224c.396-.2399.874-.3018 1.317-.1706.444.1313.812.4436 1.017.8611.456-.0504.908.1258 1.212.4725.304.3466.422.8204.316 1.2703.437.1219.802.4262 1.003.8362zm-9.132 2.0796c1.532-2.7162 4.267-2.6746 5.783 0-1.77-1.1092-4.013-1.1092-5.783 0z" fill="#323335" fill-rule="evenodd"/><path d="m171.31 101.357c.063.71-.047 1.424-.322 2.08 1.004-.624 1.165-2.242.322-2.08z" fill="#7b5d3f"/><path d="m163.437 101.357c-.065.71.046 1.424.323 2.08-1.025-.624-1.186-2.242-.323-2.08z" fill="#8c6e48"/><path d="m166.279 104.153v.233c.005.253.109.494.29.67.182.175.425.271.677.265h.413c.519.005.945-.413.954-.935v-.242z" fill="#fff"/><path d="m166.16 102.289c.2 0 .363-.199.363-.445s-.163-.445-.363-.445c-.201 0-.364.199-.364.445s.163.445.364.445z" fill="#323335"/><path d="m168.493 102.289c.201 0 .364-.199.364-.445s-.163-.445-.364-.445c-.2 0-.363.199-.363.445s.163.445.363.445z" fill="#323335"/><path d="m173.483 108.653c-.525-.732-1.731-.732-2.697-.773-.393.036-.788-.005-1.165-.121-.041 0-.041-.042-.083-.042-.504.664-1.266 1.077-2.094 1.136-.823-.048-1.58-.465-2.065-1.136-.011 0-.021.005-.028.013s-.011.018-.009.029c-.379.116-.776.157-1.169.121-.967 0-2.214.041-2.698.773-.299.416-.485.904-.537 1.414 1.883 1.492 4.214 2.294 6.609 2.271 2.405-.042 4.721-.924 6.551-2.495-.165-.417-.371-.815-.615-1.19z" fill="#ce6ce5"/><path d="m168.873 106.532c-.409.325-.908.514-1.429.541-.507-.002-.999-.168-1.404-.475-.033.26-.105.512-.215.749.438.412 1.02.633 1.619.616.616-.014 1.205-.259 1.652-.687-.11-.235-.185-.486-.223-.744z" fill="#7b5d3f"/><path d="m227.202 135.792c16.887 0 30.577-13.785 30.577-30.791 0-17.0048-13.69-30.7903-30.577-30.7903s-30.577 13.7855-30.577 30.7903c0 17.006 13.69 30.791 30.577 30.791z" fill="#4c863e"/><path d="m228.486 133.664c17.16 0 31.071-14.008 31.071-31.287 0-17.2802-13.911-31.2881-31.071-31.2881s-31.07 14.0079-31.07 31.2881c0 17.279 13.91 31.287 31.07 31.287z" fill="#3fa140"/><path clip-rule="evenodd" d="m222.687 113.942h-11.909v-21.999h11.547c4.178 0 6.316 2.6715 6.316 5.6069 0 2.7371-1.711 4.6171-3.783 5.0461 2.368.363 4.211 2.639 4.211 5.376 0 3.331-2.172 5.97-6.382 5.97zm-1.382-13.259c1.579 0 2.566-.8904 2.566-2.3086 0-1.3523-.987-2.3088-2.566-2.3088h-5.855v4.6174zm.198 9.136c1.743 0 2.796-.923 2.796-2.506 0-1.386-.987-2.507-2.796-2.507h-6.053v5.013z" fill="#fff" fill-rule="evenodd"/><path clip-rule="evenodd" d="m233.904 100.749h14.803v4.123h-14.803z" fill="#fff" fill-rule="evenodd"/><path clip-rule="evenodd" d="m239.25 109.819v-14.8417h4.112v14.8417z" fill="#fff" fill-rule="evenodd"/></g><g filter="url(#b)" opacity=".7"><path d="m71.8198 17.0223c0-4.9303 3.9968-8.92709 8.9271-8.92709h239.2461c4.93 0 8.927 3.99679 8.927 8.92709v16.0688c0 4.9303-3.997 8.9271-8.927 8.9271h-239.2461c-4.9303 0-8.9271-3.9968-8.9271-8.9271z" fill="#fff"/><rect fill="#aaa" height="5.35625" rx=".892709" transform="matrix(.70710678 -.70710678 .70710678 .70710678 71.682805 228.373)" width="1.78542" x="311.512" y="27.6577"/><path d="m312.581 20.8363c1.83 1.8302 1.83 4.7977 0 6.628s-4.798 1.8303-6.628 0-1.83-4.7978 0-6.628c1.83-1.8303 4.798-1.8303 6.628 0z" stroke="#aaa" stroke-width="1.33906"/><g fill="#999"><path d="m115.741 28.958c2.237 0 3.224-1.1998 3.224-2.587 0-3.0995-4.849-2.1372-4.849-3.6994 0-.6124.55-1.0373 1.4-1.0373.875 0 1.762.2999 2.425.9623l.824-1.0873c-.762-.7499-1.824-1.1748-3.111-1.1748-1.838 0-3.037 1.0623-3.037 2.4496 0 3.062 4.849 1.9746 4.849 3.7243 0 .5625-.463 1.1499-1.663 1.1499-1.162 0-2.074-.55-2.637-1.1624l-.824 1.1374c.749.7748 1.862 1.3247 3.399 1.3247z"/><path d="m123.062 28.958c.949 0 1.837-.3124 2.449-.8873l-.6-.8624c-.437.4375-1.124.6749-1.724.6749-1.138 0-1.813-.7624-1.913-1.6622h4.65v-.325c0-1.8996-1.15-3.2744-2.962-3.2744-1.788 0-3.062 1.4123-3.062 3.162 0 1.9121 1.337 3.1744 3.162 3.1744zm1.599-3.6743h-3.399c.05-.7249.575-1.5873 1.687-1.5873 1.187 0 1.675.8749 1.712 1.5873z"/><path d="m132.231 28.8081v-4.0119c0-1.6122-1.175-2.1746-2.525-2.1746-.962 0-1.837.2999-2.537.9748l.55.9124c.512-.5249 1.112-.7749 1.787-.7749.825 0 1.412.4249 1.412 1.1248v.8999c-.45-.5124-1.137-.7749-1.962-.7749-.987 0-2.087.5749-2.087 1.9747 0 1.3248 1.112 1.9996 2.087 1.9996.8 0 1.512-.2874 1.962-.8123v.6624zm-2.75-.7499c-.737 0-1.3-.4249-1.3-1.0873 0-.6499.563-1.0873 1.3-1.0873.562 0 1.125.2124 1.437.6248v.9249c-.312.4124-.875.6249-1.437.6249z"/><path d="m135.244 28.8081v-4.1119c.262-.4374 1-.8123 1.562-.8123.163 0 .288.0125.4.0375v-1.2998c-.775 0-1.5.4499-1.962 1.0248v-.8748h-1.312v6.0365z"/><path d="m141.014 28.958c1.187 0 1.887-.5124 2.312-1.0748l-.862-.8123c-.338.4749-.8.7248-1.387.7248-1.088 0-1.825-.8373-1.825-2.0121s.737-1.9997 1.825-1.9997c.587 0 1.049.225 1.387.6999l.862-.7874c-.425-.5749-1.125-1.0748-2.312-1.0748-1.825 0-3.112 1.3373-3.112 3.162s1.287 3.1744 3.112 3.1744z"/><path d="m149.888 28.8081v-4.2743c0-1.2373-.65-1.9122-1.95-1.9122-.949 0-1.724.4874-2.124.9623v-3.112h-1.312v8.3362h1.312v-4.2243c.3-.4.875-.7999 1.55-.7999.737 0 1.212.275 1.212 1.2248v3.7994z"/><path d="m157.964 28.8081c2.6 0 4.349-1.7123 4.349-4.1743 0-2.4371-1.749-4.1619-4.362-4.1619h-3.099v8.3362zm-.013-1.2873h-1.637v-5.7616h1.65c1.85 0 2.849 1.2748 2.849 2.8746 0 1.5872-1.049 2.887-2.862 2.887z"/><path d="m169.074 28.8081v-6.0365h-1.312v4.2368c-.3.3999-.875.7873-1.537.7873-.75 0-1.225-.2999-1.225-1.2373v-3.7868h-1.312v4.2743c0 1.2248.649 1.9121 1.949 1.9121.95 0 1.7-.4749 2.125-.9498v.7999z"/><path d="m173.528 28.958c1.187 0 1.887-.5124 2.312-1.0748l-.862-.8123c-.338.4749-.8.7248-1.387.7248-1.088 0-1.825-.8373-1.825-2.0121s.737-1.9997 1.825-1.9997c.587 0 1.049.225 1.387.6999l.862-.7874c-.425-.5749-1.125-1.0748-2.312-1.0748-1.825 0-3.112 1.3373-3.112 3.162s1.287 3.1744 3.112 3.1744z"/><path d="m182.652 28.8081-2.549-3.2995 2.499-2.737h-1.624l-2.663 2.912v-5.2117h-1.312v8.3362h1.312v-1.6248l.85-.8748 1.838 2.4996z"/><path d="m186.743 28.8081c2.6 0 4.35-1.7123 4.35-4.1743 0-2.4371-1.75-4.1619-4.362-4.1619h-3.1v8.3362zm-.012-1.2873h-1.637v-5.7616h1.649c1.85 0 2.85 1.2748 2.85 2.8746 0 1.5872-1.05 2.887-2.862 2.887z"/><path d="m197.854 28.8081v-6.0365h-1.313v4.2368c-.3.3999-.875.7873-1.537.7873-.75 0-1.225-.2999-1.225-1.2373v-3.7868h-1.312v4.2743c0 1.2248.65 1.9121 1.95 1.9121.949 0 1.699-.4749 2.124-.9498v.7999z"/><path d="m202.308 28.958c1.187 0 1.887-.5124 2.312-1.0748l-.863-.8123c-.337.4749-.8.7248-1.387.7248-1.087 0-1.825-.8373-1.825-2.0121s.738-1.9997 1.825-1.9997c.587 0 1.05.225 1.387.6999l.863-.7874c-.425-.5749-1.125-1.0748-2.312-1.0748-1.825 0-3.112 1.3373-3.112 3.162s1.287 3.1744 3.112 3.1744z"/><path d="m211.432 28.8081-2.55-3.2995 2.5-2.737h-1.625l-2.662 2.912v-5.2117h-1.312v8.3362h1.312v-1.6248l.85-.8748 1.837 2.4996z"/><path d="m216.423 28.9705c1.437 0 2.612-.6124 3.424-1.5247v-3.112h-3.949v1.2873h2.499v1.2873c-.375.3624-1.125.7499-1.974.7499-1.65 0-2.875-1.2748-2.875-3.012 0-1.7623 1.225-3.012 2.875-3.012.924 0 1.712.4874 2.162 1.1123l1.187-.6874c-.662-.9499-1.725-1.7247-3.349-1.7247-2.425 0-4.375 1.6872-4.375 4.3118 0 2.612 1.95 4.3242 4.375 4.3242z"/><path d="m224.069 28.958c1.924 0 3.099-1.4497 3.099-3.1744 0-1.7372-1.175-3.162-3.099-3.162-1.925 0-3.1 1.4248-3.1 3.162 0 1.7247 1.175 3.1744 3.1 3.1744zm0-1.1623c-1.113 0-1.737-.9373-1.737-2.0121 0-1.0624.624-1.9997 1.737-1.9997 1.125 0 1.737.9373 1.737 1.9997 0 1.0748-.612 2.0121-1.737 2.0121z"/></g><path clip-rule="evenodd" d="m88.6473 34.7426c5.4233 0 9.8198-4.3965 9.8198-9.8198s-4.3965-9.8198-9.8198-9.8198-9.8198 4.3965-9.8198 9.8198 4.3965 9.8198 9.8198 9.8198z" fill="#fff" fill-rule="evenodd"/><path clip-rule="evenodd" d="m88.7244 16.1655c4.8852 0 8.8454 3.9593 8.8454 8.8435 0 4.8841-3.9602 8.8434-8.8454 8.8434s-8.8454-3.9593-8.8454-8.8434c0-4.8842 3.9602-8.8435 8.8454-8.8435z" fill="#de5833" fill-rule="evenodd"/><g mask="url(#o)"><path clip-rule="evenodd" d="m92.343 38.3334c-.3095-1.4432-2.1145-4.6947-2.785-6.0857-.6876-1.3737-1.3581-3.3213-1.0486-4.573.0515-.226-.5845-1.9648-.4126-2.0865 1.444-.9564 1.8221.1043 2.4067-.3304.2923-.226.7047.1739.808-.1913.3782-1.3214-.5157-3.6166-1.5128-4.6077-.3266-.3304-.8253-.539-1.3753-.6433-.2235-.2956-.5673-.5912-1.0486-.852-.5501-.2956-1.7363-.6782-2.3552-.7825-.4298-.0695-.5329.0522-.7048.087.1719.0173.9799.4173 1.1346.4346-.1547.1044-.6189 0-.9111.1218-.1547.0695-.2579.3303-.2579.452.8424-.0869 2.1661 0 2.9397.3478-.6189.0695-1.5644.1565-1.9598.3651-1.169.626-1.7019 2.0866-1.3925 3.8427.3095 1.7562 1.6675 8.1373 2.1145 10.2761.4298 2.1387-.9283 3.5122-1.805 3.8949l.9283.0695-.3095.6955c1.1174.1218 2.3552-.2434 2.3552-.2434-.2407.6955-1.9254.939-1.9254.939s.808.2432 2.1145-.2435c1.3065-.5042 2.1145-.8174 2.1145-.8174l.6188 1.6346 1.1862-1.1823.4986 1.2519c-.0346-.0174.8939-.3304.5845-1.7735z" fill="#d5d7d8" fill-rule="evenodd"/></g><g mask="url(#p)"><path clip-rule="evenodd" d="m92.7204 38.0385c-.3096-1.4432-2.1146-4.6947-2.7849-6.0857-.6877-1.3736-1.3583-3.3211-1.0488-4.573.0517-.226.0517-1.1649.2408-1.2867 1.4439-.9563 1.3407-.0347 1.9254-.452.2921-.2261.5327-.4869.6359-.852.3782-1.3215-.5157-3.6167-1.5128-4.6078-.3265-.3303-.8252-.539-1.3753-.6433-.2235-.2956-.5673-.5912-1.0485-.852-.9283-.5043-2.0801-.6955-3.1461-.5043.1719.0174.5675.3652.7222.4-.2407.1564-.8769.1391-.8595.5042.8421-.0869 1.7705.0522 2.544.3999-.6187.0696-1.2033.2261-1.5985.4347-1.1862.626-1.4958 1.8779-1.1862 3.634.3093 1.7562 1.6673 8.1549 2.1143 10.2762.4298 2.1387-.9281 3.5123-1.7877 3.8948l.9282.0696-.3093.6955c1.1174.1217 2.355-.2435 2.355-.2435-.2407.6955-1.9252.939-1.9252.939s.8078.2434 2.1143-.2435c1.3065-.5042 2.1145-.8172 2.1145-.8172l.619 1.6345 1.186-1.1998.4987 1.2519c-.0345-.0174.8939-.3303.5845-1.7735z" fill="#fff" fill-rule="evenodd"/></g><path clip-rule="evenodd" d="m85.5869 23.6412c0-.3651.2923-.6607.6533-.6607s.6532.2956.6532.6607-.2922.6607-.6532.6607-.6533-.2956-.6533-.6607z" fill="#2d4f8e" fill-rule="evenodd"/><path clip-rule="evenodd" d="m86.3605 23.4644c0-.1116.0893-.2232.2232-.2232.1116 0 .2232.0893.2232.2232 0 .1117-.0892.2233-.2232.2233-.1339 0-.2232-.0893-.2232-.2233z" fill="#fff" fill-rule="evenodd"/><path clip-rule="evenodd" d="m90.0393 23.24c0-.3127.2577-.5559.5668-.5559.3094 0 .5671.2606.5671.5559 0 .3128-.2577.5734-.5671.5734-.3263 0-.5668-.2606-.5668-.5734z" fill="#2d4f8e" fill-rule="evenodd"/><path clip-rule="evenodd" d="m90.6925 23.1519c0-.1395.1116-.2232.2234-.2232.1394 0 .2231.1116.2231.2232 0 .1396-.1118.2233-.2231.2233-.1118 0-.2234-.1116-.2234-.2233z" fill="#fff" fill-rule="evenodd"/><path clip-rule="evenodd" d="m85.4593 21.4883c-.6984.2645-.4365.81-.4365.81s-.0174-.2976.4715-.5786c.4714-.2975.9777-.0826.9777-.0826s-.1905-.2372-.5788-.2372c-.1243 0-.2689.0243-.4339.0884z" fill="#2d4f8e" fill-rule="evenodd"/><path clip-rule="evenodd" d="m89.6162 21.6997s.1555-.2349.7256-.2349c.2593 0 .622.1879.622.1879s-.1383-.3285-.5354-.3911c-.0589-.0077-.1135-.0111-.1643-.0111-.5748 0-.6479.4492-.6479.4492z" fill="#2d4f8e" fill-rule="evenodd"/><path clip-rule="evenodd" d="m88.1645 26.0829c.0691-.3979 1.0896-1.1416 1.8161-1.1935.7264-.0519.9512-.0346 1.5566-.1729.6054-.1384 2.162-.5362 2.5944-.7265.4324-.2075 2.266.1038.9688.8129-.5537.3114-2.0584.8821-3.1481 1.2108-1.0724.3286-1.7296-.3114-2.0928.2248-.2768.4151-.0519 1.0032 1.228 1.1243 1.7296.1556 3.4075-.7784 3.5805-.2768.1901.5016-1.4877 1.1243-2.508 1.1416-1.0206.0173-3.0788-.6746-3.3902-.8821-.2767-.2422-.6918-.7438-.6053-1.2626z" fill="#fdd20a" fill-rule="evenodd"/><path clip-rule="evenodd" d="m88.9425 31.3237s-2.4387-1.2972-2.4733-.7783c-.0346.5363 0 2.6809.2767 2.8538.2768.1557 2.3177-1.055 2.3177-1.055z" fill="#65bc46" fill-rule="evenodd"/><path clip-rule="evenodd" d="m89.8767 31.2365s1.6604-1.2626 2.0409-1.1761c.3631.0865.4495 2.6809.1211 2.802-.3286.1212-2.2312-.6571-2.2312-.6571z" fill="#65bc46" fill-rule="evenodd"/><path clip-rule="evenodd" d="m88.3546 31.4624c0 .8473-.1211 1.2107.2421 1.2972s1.0551 0 1.2972-.1557c.2422-.1558.0346-1.2626-.0346-1.4701-.0864-.2078-1.5047-.0348-1.5047.3286z" fill="#43a244" fill-rule="evenodd"/><path clip-rule="evenodd" d="m88.5103 31.2718c0 .8475-.121 1.2282.2422 1.2972.3632.0865 1.055 0 1.2972-.1555.2421-.1558.0348-1.2628-.0346-1.4702-.0865-.2077-1.5048-.0347-1.5048.3285z" fill="#65bc46" fill-rule="evenodd"/><path clip-rule="evenodd" d="m88.515 34.03c5.255 0 9.515-4.26 9.515-9.515s-4.26-9.515-9.515-9.515-9.515 4.26-9.515 9.515 4.26 9.515 9.515 9.515z" fill="#de5833" fill-rule="evenodd"/><g mask="url(#q)"><path clip-rule="evenodd" d="m90.28 33.0087c-.3981-.7738-.7787-1.4859-1.0149-1.9569-.628-1.2575-1.2592-3.0305-.9722-4.1739.0524-.2077-.5915-7.6929-1.0466-7.9339-.5059-.2696-1.6049-.6248-2.1742-.72-.3965-.0634-.4868.0476-.6534.073.157.0158.904.3837 1.0483.4044-.1443.0983-.5709-.0032-.8437.1173-.138.0634-.241.2981-.2379.4092.7771-.0793 1.9918-.0016 2.7118.3171-.5725.065-1.4415.138-1.8158.3346-1.0847.5709-1.5636 1.9078-1.2781 3.5095.2838 1.5985 1.5414 7.4296 1.9426 9.377.3996 1.9458 4.997 1.5383 4.3325.2426z" fill="#d5d7d8" fill-rule="evenodd"/><path d="m88.6386 26.6099c-.2855 1.1434.3425 2.9148.9721 4.174.2115.4206.5379 1.0345.8891 1.7142-.8191.203-2.8067.4872-4.2035 0-.3996-1.9426-1.6572-7.7753-1.9442-9.377-.2855-1.6017 0-2.7451 1.0879-3.316.3726-.1966.9055-.3393 1.4764-.4028-.72-.3203-1.5732-.444-2.3534-.3647-.0032-.3299.5788-.3108.7977-.4599-.1443-.0206-.5027-.3441-.6613-.36.9897-.1697 2.0078-.0092 2.8973.4567.4536.2427.7739.5027.9721.7755.517.0983.9737.2855 1.2719.5836.9166.915 1.7349 3.0067 1.3923 4.2088-.0967.333-.3171.5757-.5931.7771-.536.3901-.4408-.452-1.7745.4202-.1729.1126-.1729.9626-.2268 1.1703z" fill="#fff"/></g><path clip-rule="evenodd" d="m86.2108 23.803c.3319 0 .601-.2691.601-.601 0-.332-.2691-.601-.601-.601-.332 0-.6011.269-.6011.601 0 .3319.2691.601.6011.601z" fill="#2d4f8e" fill-rule="evenodd"/><path clip-rule="evenodd" d="m86.4788 23.1575c.0858 0 .1554-.0696.1554-.1554s-.0696-.1554-.1554-.1554c-.0859 0-.1554.0696-.1554.1554s.0695.1554.1554.1554z" fill="#fff" fill-rule="evenodd"/><path clip-rule="evenodd" d="m90.2261 23.3605c.2846 0 .5154-.2307.5154-.5154 0-.2846-.2308-.5154-.5154-.5154-.2847 0-.5154.2308-.5154.5154 0 .2847.2307.5154.5154.5154z" fill="#2d4f8e" fill-rule="evenodd"/><path clip-rule="evenodd" d="m90.4561 22.8071c.0736 0 .1332-.0597.1332-.1332 0-.0736-.0596-.1333-.1332-.1333s-.1332.0597-.1332.1333c0 .0735.0596.1332.1332.1332z" fill="#fff" fill-rule="evenodd"/><path clip-rule="evenodd" d="m86.3836 21.4623s-.4536-.2062-.8928.0714c-.4393.2759-.4234.5582-.4234.5582s-.2332-.5202.3885-.7755c.6232-.2537.9277.1459.9277.1459z" fill="url(#j)" fill-rule="evenodd"/><path clip-rule="evenodd" d="m90.537 21.4211s-.3251-.1855-.5788-.1824c-.5186.0064-.6597.2347-.6597.2347s.0872-.5455.7501-.4361c.2161.0396.3989.1831.4884.3838z" fill="url(#k)" fill-rule="evenodd"/><path clip-rule="evenodd" d="m88.0504 25.5189c.0603-.3648.9991-1.0514 1.6651-1.0942.6661-.0413.8722-.0318 1.4273-.165.5566-.1316 1.9886-.4884 2.3835-.6724.3964-.1823 2.0774.0904.8928.7517-.5122.2871-1.8935.8136-2.8815 1.1085-.9863.295-1.5842-.2823-1.9125.203-.26.3854-.0523.9134 1.126 1.0229 1.5921.1475 3.1177-.7168 3.2858-.2569s-1.367 1.0308-2.3026 1.0498c-.9357.0174-2.8196-.6185-3.1019-.8151-.2839-.1951-.6597-.655-.582-1.1323z" fill="#fdd20a" fill-rule="evenodd"/><path clip-rule="evenodd" d="m91.4916 28.7701c-.3362-.0746-1.865 1.0815-1.865 1.0815h.0016l-.0713.8881s1.7475.7152 2.0457.6042c.2981-.1142.2236-2.4977-.111-2.5738zm-4.9938.4472c.0365-.4837 2.2725.7104 2.2725.7104l.0016-.0016.111.9325s-1.8634 1.1164-2.125.9674c-.2601-.1491-.2982-2.1235-.2601-2.6087z" fill="#65bc46" fill-rule="evenodd"/><path clip-rule="evenodd" d="m88.2295 30.053c0 .7818-.1126 1.118.222 1.1926.3362.0745.969 0 1.1942-.1491.222-.1491.0364-1.1545-.0381-1.3416s-1.3797-.0381-1.3797.2981z" fill="#43a244" fill-rule="evenodd"/><path clip-rule="evenodd" d="m88.3722 29.8801c0 .7818-.1126 1.1164.222 1.191.3347.0761.9674 0 1.1926-.1491.2236-.1491.038-1.1545-.0365-1.3416s-1.3797-.0365-1.3797.2981z" fill="#65bc46" fill-rule="evenodd"/><path clip-rule="evenodd" d="m88.5151 32.4938c4.4065 0 7.9787-3.5722 7.9787-7.9787 0-4.4066-3.5722-7.9788-7.9787-7.9788-4.4066 0-7.9788 3.5722-7.9788 7.9788 0 4.4065 3.5722 7.9787 7.9788 7.9787zm0 .7433c4.817 0 8.722-3.905 8.722-8.722 0-4.8171-3.905-8.7221-8.722-8.7221-4.8171 0-8.7221 3.905-8.7221 8.7221 0 4.817 3.905 8.722 8.7221 8.722z" fill="#fff" fill-rule="evenodd"/><path d="m109.313 17.022h.893v16.0687h-.893z" fill="#666"/></g><g filter="url(#c)"><rect fill="#fff" height="178.256" rx="4.9242" width="276.74" x="62.2723" y="358.355"/><path d="m83.5047 516.258v-7.027h2.5168v-1.284h-6.4913v1.284h2.5167v7.027z" fill="#333"/><path d="m88.634 516.407c1.9187 0 3.0899-1.445 3.0899-3.164 0-1.732-1.1712-3.153-3.0899-3.153-1.9188 0-3.09 1.421-3.09 3.153 0 1.719 1.1712 3.164 3.09 3.164zm0-1.158c-1.1089 0-1.7319-.935-1.7319-2.006 0-1.059.623-1.994 1.7319-1.994 1.1213 0 1.7318.935 1.7318 1.994 0 1.071-.6105 2.006-1.7318 2.006z" fill="#333"/><path d="m96.2992 516.407c1.5574 0 2.6663-1.183 2.6663-3.164s-1.1089-3.153-2.6663-3.153c-.785 0-1.4827.374-1.9312.972v-.822h-1.3083v8.31h1.3083v-3.127c.4984.636 1.1712.984 1.9312.984zm-.3863-1.158c-.6105 0-1.2584-.374-1.5449-.823v-2.379c.299-.449.9344-.798 1.5449-.798 1.0342 0 1.707.823 1.707 1.994s-.6728 2.006-1.707 2.006z" fill="#333"/><path d="m106.963 516.258v-7.027h2.517v-1.284h-6.491v1.284h2.517v7.027z" fill="#333"/><path d="m111.049 516.258v-4.099c.262-.436.997-.81 1.558-.81.162 0 .286.012.399.037v-1.296c-.773 0-1.496.449-1.957 1.022v-.872h-1.308v6.018z" fill="#333"/><path d="m119.057 516.258v-4c0-1.607-1.171-2.168-2.517-2.168-.959 0-1.832.3-2.529.972l.548.91c.511-.523 1.109-.773 1.782-.773.822 0 1.408.424 1.408 1.122v.897c-.449-.511-1.134-.773-1.957-.773-.984 0-2.08.573-2.08 1.969 0 1.321 1.109 1.993 2.08 1.993.798 0 1.508-.286 1.957-.809v.66zm-2.741-.748c-.735 0-1.296-.423-1.296-1.084 0-.648.561-1.084 1.296-1.084.56 0 1.121.212 1.433.623v.922c-.312.411-.873.623-1.433.623z" fill="#333"/><path d="m123.494 516.407c1.183 0 1.881-.51 2.305-1.071l-.86-.81c-.336.473-.797.723-1.383.723-1.084 0-1.819-.835-1.819-2.006s.735-1.994 1.819-1.994c.586 0 1.047.224 1.383.698l.86-.785c-.424-.573-1.122-1.072-2.305-1.072-1.819 0-3.103 1.334-3.103 3.153s1.284 3.164 3.103 3.164z" fill="#333"/><path d="m132.59 516.258-2.542-3.289 2.492-2.729h-1.62l-2.654 2.903v-5.196h-1.308v8.311h1.308v-1.62l.847-.872 1.832 2.492z" fill="#333"/><path d="m134.189 509.505c.448 0 .81-.361.81-.81 0-.448-.362-.81-.81-.81-.449 0-.81.362-.81.81 0 .449.361.81.81.81zm.648 6.753v-6.018h-1.309v6.018z" fill="#333"/><path d="m141.916 516.258v-4.236c0-1.234-.648-1.932-1.944-1.932-.946 0-1.731.486-2.13.96v-.81h-1.308v6.018h1.308v-4.211c.311-.399.885-.798 1.545-.798.735 0 1.221.299 1.221 1.246v3.763z" fill="#333"/><path d="m146.07 518.7c1.47 0 3.089-.586 3.089-2.754v-5.706h-1.308v.835c-.486-.648-1.171-.985-1.931-.985-1.557 0-2.666 1.134-2.666 3.09 0 1.981 1.134 3.09 2.666 3.09.785 0 1.47-.398 1.931-1.009v.685c0 1.284-.922 1.682-1.781 1.682-.798 0-1.421-.211-1.919-.772l-.611.947c.748.673 1.508.897 2.53.897zm.236-3.601c-1.046 0-1.707-.76-1.707-1.919 0-1.158.661-1.931 1.707-1.931.611 0 1.246.362 1.545.798v2.255c-.299.436-.934.797-1.545.797z" fill="#333"/><path d="m157.991 516.407c2.48 0 4.249-1.819 4.249-4.298 0-2.48-1.769-4.299-4.249-4.299-2.491 0-4.248 1.819-4.248 4.299 0 2.479 1.757 4.298 4.248 4.298zm0-1.295c-1.682 0-2.753-1.296-2.753-3.003 0-1.719 1.071-3.003 2.753-3.003 1.67 0 2.754 1.284 2.754 3.003 0 1.707-1.084 3.003-2.754 3.003z" fill="#333"/><path d="m165.226 516.258v-4.884h1.221v-1.134h-1.221v-.336c0-.673.311-1.01.835-1.01.286 0 .511.1.685.262l.511-.81c-.361-.386-.897-.523-1.445-.523-1.134 0-1.894.772-1.894 2.081v.336h-.997v1.134h.997v4.884zm3.85 0v-4.884h1.221v-1.134h-1.221v-.336c0-.673.311-1.01.835-1.01.286 0 .511.1.685.262l.511-.81c-.362-.386-.897-.523-1.445-.523-1.134 0-1.894.772-1.894 2.081v.336h-.997v1.134h.997v4.884z" fill="#333"/><path d="m174.074 516.407c.947 0 1.832-.311 2.443-.884l-.599-.86c-.436.436-1.121.673-1.719.673-1.134 0-1.807-.76-1.906-1.657h4.635v-.324c0-1.894-1.147-3.265-2.953-3.265-1.782 0-3.053 1.408-3.053 3.153 0 1.906 1.333 3.164 3.152 3.164zm1.595-3.663h-3.389c.05-.722.573-1.582 1.682-1.582 1.184 0 1.67.872 1.707 1.582z" fill="#333"/><path d="m183.601 516.258v-4.236c0-1.234-.647-1.932-1.943-1.932-.947 0-1.732.486-2.131.96v-.81h-1.308v6.018h1.308v-4.211c.312-.399.885-.798 1.545-.798.735 0 1.221.299 1.221 1.246v3.763z" fill="#333"/><path d="m190.845 516.258v-8.311h-1.308v3.128c-.474-.648-1.172-.985-1.932-.985-1.545 0-2.666 1.209-2.666 3.153 0 1.993 1.134 3.164 2.666 3.164.785 0 1.471-.373 1.932-.971v.822zm-2.853-1.009c-1.047 0-1.707-.835-1.707-2.006 0-1.159.66-1.994 1.707-1.994.61 0 1.258.362 1.545.81v2.38c-.287.448-.935.81-1.545.81z" fill="#333"/><path d="m195.331 516.407c.947 0 1.831-.311 2.442-.884l-.598-.86c-.436.436-1.122.673-1.72.673-1.133 0-1.806-.76-1.906-1.657h4.635v-.324c0-1.894-1.146-3.265-2.953-3.265-1.782 0-3.052 1.408-3.052 3.153 0 1.906 1.333 3.164 3.152 3.164zm1.595-3.663h-3.389c.05-.722.573-1.582 1.682-1.582 1.183 0 1.669.872 1.707 1.582z" fill="#333"/><path d="m200.784 516.258v-4.099c.261-.436.996-.81 1.557-.81.162 0 .287.012.399.037v-1.296c-.773 0-1.495.449-1.956 1.022v-.872h-1.309v6.018z" fill="#333"/><path d="m205.863 516.407c1.62 0 2.504-.809 2.504-1.881 0-2.392-3.638-1.595-3.638-2.654 0-.423.424-.747 1.109-.747.76 0 1.42.324 1.782.722l.548-.922c-.536-.473-1.308-.835-2.33-.835-1.52 0-2.367.835-2.367 1.82 0 2.317 3.638 1.47 3.638 2.653 0 .474-.411.798-1.196.798-.773 0-1.607-.399-2.031-.835l-.598.934c.623.611 1.545.947 2.579.947z" fill="#333"/><path clip-rule="evenodd" d="m317.05 507.396c-.334.332-.334.875 0 1.207l3.906 3.884-3.906 3.883c-.334.332-.334.875 0 1.207s.88.332 1.214 0l4.514-4.487c.334-.332.334-.875 0-1.207l-4.514-4.487c-.334-.332-.88-.332-1.214 0z" fill="#aaa" fill-rule="evenodd"/><g clip-path="url(#l)"><g fill="#333"><path d="m224.834 473.43-1.897-3.031c.937-.15 1.839-.902 1.839-2.268 0-1.434-1.006-2.418-2.534-2.418h-3.389v7.717h1.353v-2.881h1.354l1.7 2.881zm-2.765-4.072h-1.863v-2.453h1.863c.763 0 1.319.474 1.319 1.215 0 .752-.556 1.238-1.319 1.238z"/><path d="m228.513 473.569c.879 0 1.701-.289 2.268-.821l-.556-.799c-.404.405-1.041.625-1.596.625-1.053 0-1.678-.706-1.77-1.539h4.304v-.301c0-1.758-1.065-3.031-2.742-3.031-1.655 0-2.835 1.308-2.835 2.927 0 1.77 1.238 2.939 2.927 2.939zm1.481-3.401h-3.147c.046-.671.532-1.47 1.562-1.47 1.099 0 1.55.81 1.585 1.47z"/><path d="m235.548 473.569c1.446 0 2.476-1.099 2.476-2.939 0-1.839-1.03-2.927-2.476-2.927-.729 0-1.377.347-1.794.903v-.764h-1.214v7.717h1.214v-2.904c.463.59 1.088.914 1.794.914zm-.359-1.076c-.567 0-1.168-.347-1.435-.764v-2.209c.278-.417.868-.741 1.435-.741.96 0 1.585.764 1.585 1.851 0 1.088-.625 1.863-1.585 1.863z"/><path d="m241.951 473.569c1.782 0 2.869-1.342 2.869-2.939 0-1.608-1.087-2.927-2.869-2.927-1.781 0-2.869 1.319-2.869 2.927 0 1.597 1.088 2.939 2.869 2.939zm0-1.076c-1.029 0-1.608-.868-1.608-1.863 0-.983.579-1.851 1.608-1.851 1.041 0 1.608.868 1.608 1.851 0 .995-.567 1.863-1.608 1.863z"/><path d="m247.454 473.43v-3.806c.243-.405.925-.752 1.446-.752.15 0 .266.011.37.034v-1.203c-.717 0-1.388.417-1.816.949v-.81h-1.215v5.588z"/><path d="m252.117 473.569c.555 0 .914-.162 1.134-.359l-.29-.925c-.092.104-.3.208-.532.208-.347 0-.532-.289-.532-.671v-2.927h1.134v-1.053h-1.134v-1.527h-1.215v1.527h-.925v1.053h.925v3.228c0 .937.486 1.446 1.435 1.446z"/><path d="m261.395 473.43c1.457 0 2.244-.891 2.244-2.094 0-.937-.659-1.758-1.492-1.886.717-.15 1.342-.81 1.342-1.77 0-1.087-.776-1.967-2.199-1.967h-3.794v7.717zm-.371-4.535h-2.175v-1.99h2.175c.683 0 1.076.428 1.076.995 0 .59-.393.995-1.076.995zm.058 3.343h-2.233v-2.151h2.233c.764 0 1.169.497 1.169 1.076 0 .671-.44 1.075-1.169 1.075z"/><path d="m266.367 473.43v-3.806c.243-.405.926-.752 1.446-.752.151 0 .266.011.37.034v-1.203c-.717 0-1.388.417-1.816.949v-.81h-1.215v5.588z"/><path d="m271.875 473.569c1.782 0 2.869-1.342 2.869-2.939 0-1.608-1.087-2.927-2.869-2.927s-2.869 1.319-2.869 2.927c0 1.597 1.087 2.939 2.869 2.939zm0-1.076c-1.03 0-1.608-.868-1.608-1.863 0-.983.578-1.851 1.608-1.851 1.041 0 1.608.868 1.608 1.851 0 .995-.567 1.863-1.608 1.863z"/><path d="m281.392 473.43-2.36-3.054 2.314-2.534h-1.504l-2.465 2.696v-4.825h-1.214v7.717h1.214v-1.504l.787-.81 1.701 2.314z"/><path d="m284.977 473.569c.879 0 1.7-.289 2.267-.821l-.555-.799c-.405.405-1.041.625-1.597.625-1.053 0-1.677-.706-1.77-1.539h4.304v-.301c0-1.758-1.064-3.031-2.742-3.031-1.654 0-2.834 1.308-2.834 2.927 0 1.77 1.237 2.939 2.927 2.939zm1.481-3.401h-3.147c.046-.671.532-1.47 1.561-1.47 1.1 0 1.551.81 1.586 1.47z"/><path d="m294.001 473.43v-3.933c0-1.146-.602-1.794-1.805-1.794-.879 0-1.608.451-1.978.891v-.752h-1.215v5.588h1.215v-3.91c.289-.371.821-.741 1.434-.741.683 0 1.134.278 1.134 1.157v3.494z"/><path d="m301.601 473.569c2.071 0 2.985-1.111 2.985-2.395 0-2.869-4.489-1.978-4.489-3.424 0-.567.509-.961 1.296-.961.81 0 1.631.278 2.245.891l.763-1.006c-.705-.695-1.689-1.088-2.881-1.088-1.7 0-2.811.983-2.811 2.268 0 2.834 4.489 1.828 4.489 3.447 0 .521-.428 1.065-1.539 1.065-1.076 0-1.92-.509-2.441-1.076l-.763 1.053c.694.717 1.723 1.226 3.146 1.226z"/><path d="m306.578 467.159c.416 0 .752-.335.752-.752 0-.416-.336-.752-.752-.752-.417 0-.752.336-.752.752 0 .417.335.752.752.752zm.601 6.271v-5.588h-1.214v5.588z"/><path d="m310.622 473.569c.556 0 .914-.162 1.134-.359l-.289-.925c-.093.104-.301.208-.532.208-.347 0-.532-.289-.532-.671v-2.927h1.133v-1.053h-1.133v-1.527h-1.215v1.527h-.926v1.053h.926v3.228c0 .937.486 1.446 1.434 1.446z"/><path d="m315.397 473.569c.88 0 1.701-.289 2.268-.821l-.555-.799c-.405.405-1.042.625-1.597.625-1.053 0-1.677-.706-1.77-1.539h4.304v-.301c0-1.758-1.065-3.031-2.742-3.031-1.655 0-2.835 1.308-2.835 2.927 0 1.77 1.238 2.939 2.927 2.939zm1.481-3.401h-3.147c.047-.671.533-1.47 1.562-1.47 1.099 0 1.551.81 1.585 1.47z"/></g><path d="m198.435 450.19h.89v39.158h-.89z" fill="#000" fill-opacity=".05"/><path d="m85.423 473.569c2.2445 0 3.3436-1.284 3.3436-3.193v-4.663h-1.3768v4.628c0 1.226-.6826 2.025-1.9668 2.025s-1.9668-.799-1.9668-2.025v-4.628h-1.3767v4.663c0 1.909 1.1106 3.193 3.3435 3.193z" fill="#333"/><path d="m95.5475 473.43v-3.933c0-1.146-.6016-1.794-1.8048-1.794-.8793 0-1.6081.451-1.9784.891v-.752h-1.2147v5.588h1.2147v-3.91c.2893-.371.8215-.741 1.4347-.741.6825 0 1.1338.278 1.1338 1.157v3.494z" fill="#333"/><path d="m100.311 473.569c1.446 0 2.476-1.099 2.476-2.939 0-1.839-1.03-2.927-2.476-2.927-.7287 0-1.3766.347-1.7931.903v-.764h-1.2148v7.717h1.2148v-2.904c.4628.59 1.0875.914 1.7931.914zm-.3585-1.076c-.5669 0-1.1685-.347-1.4346-.764v-2.209c.2777-.417.8677-.741 1.4346-.741.9605 0 1.5855.764 1.5855 1.851 0 1.088-.625 1.863-1.5855 1.863z" fill="#333"/><path d="m105.396 473.43v-3.806c.243-.405.925-.752 1.446-.752.15 0 .266.011.37.034v-1.203c-.717 0-1.388.417-1.816.949v-.81h-1.215v5.588z" fill="#333"/><path d="m110.904 473.569c1.781 0 2.869-1.342 2.869-2.939 0-1.608-1.088-2.927-2.869-2.927-1.782 0-2.87 1.319-2.87 2.927 0 1.597 1.088 2.939 2.87 2.939zm0-1.076c-1.03 0-1.609-.868-1.609-1.863 0-.983.579-1.851 1.609-1.851 1.041 0 1.608.868 1.608 1.851 0 .995-.567 1.863-1.608 1.863z" fill="#333"/><path d="m116.88 473.569c.556 0 .914-.162 1.134-.359l-.289-.925c-.093.104-.301.208-.532.208-.347 0-.532-.289-.532-.671v-2.927h1.133v-1.053h-1.133v-1.527h-1.215v1.527h-.926v1.053h.926v3.228c0 .937.486 1.446 1.434 1.446z" fill="#333"/><path d="m121.655 473.569c.88 0 1.701-.289 2.268-.821l-.555-.799c-.405.405-1.042.625-1.597.625-1.053 0-1.678-.706-1.77-1.539h4.304v-.301c0-1.758-1.065-3.031-2.742-3.031-1.655 0-2.835 1.308-2.835 2.927 0 1.77 1.238 2.939 2.927 2.939zm1.481-3.401h-3.147c.047-.671.532-1.47 1.562-1.47 1.099 0 1.55.81 1.585 1.47z" fill="#333"/><path d="m128.227 473.569c1.099 0 1.747-.474 2.14-.995l-.798-.752c-.312.44-.74.671-1.284.671-1.007 0-1.689-.775-1.689-1.863 0-1.087.682-1.851 1.689-1.851.544 0 .972.208 1.284.648l.798-.729c-.393-.532-1.041-.995-2.14-.995-1.689 0-2.881 1.238-2.881 2.927s1.192 2.939 2.881 2.939z" fill="#333"/><path d="m133.311 473.569c.555 0 .914-.162 1.134-.359l-.289-.925c-.093.104-.301.208-.533.208-.347 0-.532-.289-.532-.671v-2.927h1.134v-1.053h-1.134v-1.527h-1.215v1.527h-.925v1.053h.925v3.228c0 .937.486 1.446 1.435 1.446z" fill="#333"/><path d="m138.086 473.569c.879 0 1.701-.289 2.267-.821l-.555-.799c-.405.405-1.041.625-1.596.625-1.053 0-1.678-.706-1.771-1.539h4.304v-.301c0-1.758-1.064-3.031-2.742-3.031-1.654 0-2.834 1.308-2.834 2.927 0 1.77 1.238 2.939 2.927 2.939zm1.481-3.401h-3.147c.046-.671.532-1.47 1.562-1.47 1.099 0 1.55.81 1.585 1.47z" fill="#333"/><path d="m147.261 473.43v-7.717h-1.215v2.904c-.44-.601-1.088-.914-1.793-.914-1.435 0-2.476 1.122-2.476 2.927 0 1.851 1.053 2.939 2.476 2.939.729 0 1.365-.347 1.793-.902v.763zm-2.65-.937c-.972 0-1.585-.775-1.585-1.863 0-1.076.613-1.851 1.585-1.851.567 0 1.169.336 1.435.752v2.21c-.266.416-.868.752-1.435.752z" fill="#333"/><path d="m154.858 473.569c2.071 0 2.985-1.111 2.985-2.395 0-2.869-4.489-1.978-4.489-3.424 0-.567.509-.961 1.295-.961.81 0 1.632.278 2.245.891l.763-1.006c-.705-.695-1.689-1.088-2.88-1.088-1.701 0-2.812.983-2.812 2.268 0 2.834 4.489 1.828 4.489 3.447 0 .521-.428 1.065-1.539 1.065-1.076 0-1.92-.509-2.441-1.076l-.763 1.053c.694.717 1.724 1.226 3.147 1.226z" fill="#333"/><path d="m159.834 467.159c.416 0 .752-.335.752-.752 0-.416-.336-.752-.752-.752s-.752.336-.752.752c0 .417.336.752.752.752zm.602 6.271v-5.588h-1.215v5.588z" fill="#333"/><path d="m163.879 473.569c.555 0 .914-.162 1.133-.359l-.289-.925c-.092.104-.301.208-.532.208-.347 0-.532-.289-.532-.671v-2.927h1.134v-1.053h-1.134v-1.527h-1.215v1.527h-.926v1.053h.926v3.228c0 .937.486 1.446 1.435 1.446z" fill="#333"/><path d="m168.654 473.569c.879 0 1.7-.289 2.267-.821l-.555-.799c-.405.405-1.041.625-1.597.625-1.053 0-1.677-.706-1.77-1.539h4.304v-.301c0-1.758-1.064-3.031-2.742-3.031-1.654 0-2.835 1.308-2.835 2.927 0 1.77 1.238 2.939 2.928 2.939zm1.48-3.401h-3.146c.046-.671.532-1.47 1.561-1.47 1.1 0 1.551.81 1.585 1.47z" fill="#333"/><path d="m174.601 473.569c1.504 0 2.325-.752 2.325-1.747 0-2.221-3.378-1.481-3.378-2.464 0-.394.393-.694 1.029-.694.706 0 1.319.3 1.655.671l.509-.857c-.498-.439-1.215-.775-2.164-.775-1.411 0-2.198.775-2.198 1.689 0 2.152 3.378 1.366 3.378 2.465 0 .439-.381.74-1.11.74-.718 0-1.493-.37-1.886-.775l-.555.868c.578.567 1.434.879 2.395.879z" fill="#333"/></g><path d="m62.2723 489.348h275.8857v.89h-275.8857z" fill="#000" fill-opacity=".05"/><path d="m0 0h276.74v44.3178h-276.74z" fill="#eee" fill-opacity=".5" transform="translate(62.2723 404.643)"/><g clip-path="url(#m)"><g fill="#333"><path d="m82.9191 430.812c2.2302 0 3.2145-1.196 3.2145-2.579 0-3.09-4.8342-2.131-4.8342-3.688 0-.611.5482-1.035 1.3954-1.035.8722 0 1.7568.3 2.4171.96l.8224-1.084c-.7601-.748-1.8191-1.171-3.1024-1.171-1.8315 0-3.0276 1.059-3.0276 2.442 0 3.052 4.8342 1.968 4.8342 3.713 0 .56-.461 1.146-1.6571 1.146-1.1587 0-2.0683-.548-2.6289-1.159l-.8223 1.134c.7475.772 1.8564 1.321 3.3889 1.321z"/><path d="m88.0866 423.909c.4486 0 .8099-.361.8099-.81 0-.448-.3613-.81-.8099-.81-.4485 0-.8098.362-.8098.81 0 .449.3613.81.8098.81zm.6479 6.753v-6.018h-1.3082v6.018z"/><path d="m92.2507 430.812c.598 0 .9843-.175 1.221-.387l-.3115-.996c-.0997.112-.3239.224-.5731.224-.3738 0-.5732-.312-.5732-.723v-3.152h1.2211v-1.134h-1.2211v-1.644h-1.3082v1.644h-.9967v1.134h.9967v3.476c0 1.009.5233 1.558 1.545 1.558z"/><path d="m97.2012 430.812c.9469 0 1.8315-.312 2.4421-.885l-.5981-.86c-.4361.436-1.1213.673-1.7194.673-1.1338 0-1.8066-.76-1.9063-1.657h4.6345v-.324c0-1.894-1.1459-3.264-2.9525-3.264-1.7816 0-3.0525 1.408-3.0525 3.152 0 1.906 1.3332 3.165 3.1522 3.165zm1.5948-3.663h-3.3889c.0498-.723.5731-1.583 1.682-1.583 1.1836 0 1.6695.872 1.7069 1.583z"/><path d="m106.053 430.662v-3.115h2.205c1.732 0 2.704-1.183 2.704-2.591 0-1.421-.959-2.604-2.704-2.604h-3.663v8.31zm2.006-4.398h-2.006v-2.629h2.006c.822 0 1.408.523 1.408 1.321 0 .785-.586 1.308-1.408 1.308z"/><path d="m113.459 430.662v-4.099c.261-.436.996-.81 1.557-.81.162 0 .287.013.399.038v-1.296c-.773 0-1.495.448-1.956 1.021v-.872h-1.309v6.018z"/><path d="m117.13 423.909c.449 0 .81-.361.81-.81 0-.448-.361-.81-.81-.81-.448 0-.81.362-.81.81 0 .449.362.81.81.81zm.648 6.753v-6.018h-1.308v6.018z"/><path d="m122.465 430.662 2.455-6.018h-1.396l-1.756 4.511-1.757-4.511h-1.408l2.454 6.018z"/><path d="m130.737 430.662v-3.999c0-1.608-1.171-2.168-2.516-2.168-.96 0-1.832.299-2.53.972l.549.909c.51-.523 1.108-.772 1.781-.772.823 0 1.408.423 1.408 1.121v.897c-.448-.511-1.134-.772-1.956-.772-.984 0-2.081.573-2.081 1.968 0 1.321 1.109 1.994 2.081 1.994.797 0 1.508-.287 1.956-.81v.66zm-2.741-.747c-.735 0-1.295-.424-1.295-1.084 0-.648.56-1.084 1.295-1.084.561 0 1.122.211 1.433.623v.922c-.311.411-.872.623-1.433.623z"/><path d="m135.174 430.812c1.184 0 1.882-.511 2.305-1.072l-.859-.81c-.337.474-.798.723-1.383.723-1.084 0-1.819-.835-1.819-2.006s.735-1.993 1.819-1.993c.585 0 1.046.224 1.383.697l.859-.785c-.423-.573-1.121-1.071-2.305-1.071-1.819 0-3.102 1.333-3.102 3.152s1.283 3.165 3.102 3.165z"/><path d="m138.389 433.017c.175.05.549.087.736.087.934-.012 1.644-.336 2.055-1.358l2.903-7.102h-1.395l-1.757 4.511-1.757-4.511h-1.408l2.48 6.093-.299.685c-.175.399-.449.523-.872.523-.15 0-.362-.037-.499-.099z"/><path d="m149.612 430.662v-3.115h2.205c1.732 0 2.704-1.183 2.704-2.591 0-1.421-.959-2.604-2.704-2.604h-3.663v8.31zm2.006-4.398h-2.006v-2.629h2.006c.822 0 1.408.523 1.408 1.321 0 .785-.586 1.308-1.408 1.308z"/><path d="m157.018 430.662v-4.099c.261-.436.996-.81 1.557-.81.162 0 .287.013.399.038v-1.296c-.773 0-1.495.448-1.956 1.021v-.872h-1.309v6.018z"/><path d="m162.757 430.812c1.919 0 3.09-1.446 3.09-3.165 0-1.732-1.171-3.152-3.09-3.152-1.918 0-3.09 1.42-3.09 3.152 0 1.719 1.172 3.165 3.09 3.165zm0-1.159c-1.108 0-1.731-.934-1.731-2.006 0-1.059.623-1.993 1.731-1.993 1.122 0 1.732.934 1.732 1.993 0 1.072-.61 2.006-1.732 2.006z"/><path d="m169.002 430.812c.598 0 .985-.175 1.221-.387l-.311-.996c-.1.112-.324.224-.573.224-.374 0-.573-.312-.573-.723v-3.152h1.221v-1.134h-1.221v-1.644h-1.309v1.644h-.996v1.134h.996v3.476c0 1.009.524 1.558 1.545 1.558z"/><path d="m173.953 430.812c.947 0 1.831-.312 2.442-.885l-.598-.86c-.436.436-1.122.673-1.72.673-1.133 0-1.806-.76-1.906-1.657h4.635v-.324c0-1.894-1.146-3.264-2.953-3.264-1.782 0-3.052 1.408-3.052 3.152 0 1.906 1.333 3.165 3.152 3.165zm1.595-3.663h-3.389c.049-.723.573-1.583 1.682-1.583 1.183 0 1.669.872 1.707 1.583z"/><path d="m180.838 430.812c1.184 0 1.882-.511 2.305-1.072l-.859-.81c-.337.474-.798.723-1.383.723-1.084 0-1.819-.835-1.819-2.006s.735-1.993 1.819-1.993c.585 0 1.046.224 1.383.697l.859-.785c-.423-.573-1.121-1.071-2.305-1.071-1.819 0-3.102 1.333-3.102 3.152s1.283 3.165 3.102 3.165z"/><path d="m186.122 430.812c.598 0 .984-.175 1.221-.387l-.312-.996c-.099.112-.324.224-.573.224-.374 0-.573-.312-.573-.723v-3.152h1.221v-1.134h-1.221v-1.644h-1.308v1.644h-.997v1.134h.997v3.476c0 1.009.523 1.558 1.545 1.558z"/><path d="m188.942 423.909c.448 0 .81-.361.81-.81 0-.448-.362-.81-.81-.81-.449 0-.81.362-.81.81 0 .449.361.81.81.81zm.648 6.753v-6.018h-1.309v6.018z"/><path d="m194.015 430.812c1.919 0 3.09-1.446 3.09-3.165 0-1.732-1.171-3.152-3.09-3.152-1.918 0-3.09 1.42-3.09 3.152 0 1.719 1.172 3.165 3.09 3.165zm0-1.159c-1.109 0-1.732-.934-1.732-2.006 0-1.059.623-1.993 1.732-1.993 1.122 0 1.732.934 1.732 1.993 0 1.072-.61 2.006-1.732 2.006z"/><path d="m203.824 430.662v-4.236c0-1.233-.648-1.931-1.944-1.931-.947 0-1.732.486-2.131.959v-.81h-1.308v6.018h1.308v-4.211c.312-.399.885-.797 1.545-.797.735 0 1.221.299 1.221 1.245v3.763z"/></g><path d="m286.541 426.892c0-5.898 4.781-10.679 10.679-10.679h16.019c5.898 0 10.68 4.781 10.68 10.679s-4.782 10.68-10.68 10.68h-16.019c-5.898 0-10.679-4.782-10.679-10.68z" fill="#50a951"/><g filter="url(#d)"><path clip-rule="evenodd" d="m313.24 435.791c4.915 0 8.899-3.985 8.899-8.9s-3.984-8.899-8.899-8.899c-4.916 0-8.9 3.984-8.9 8.899s3.984 8.9 8.9 8.9z" fill="#fff" fill-rule="evenodd"/></g></g><path d="m62.2723 449.14h275.8857v.89h-275.8857z" fill="#000" fill-opacity=".05"/><path d="m62.2723 403.752h275.8857v.89h-275.8857z" fill="#000" fill-opacity=".05"/><g fill="#333"><path d="m111.782 386v-3.115h2.206c1.731 0 2.703-1.183 2.703-2.591 0-1.421-.959-2.604-2.703-2.604h-3.664v8.31zm2.006-4.398h-2.006v-2.629h2.006c.822 0 1.408.523 1.408 1.321 0 .785-.586 1.308-1.408 1.308z"/><path d="m120.426 386.15c1.918 0 3.09-1.446 3.09-3.165 0-1.732-1.172-3.152-3.09-3.152-1.919 0-3.09 1.42-3.09 3.152 0 1.719 1.171 3.165 3.09 3.165zm0-1.159c-1.109 0-1.732-.935-1.732-2.006 0-1.059.623-1.994 1.732-1.994 1.121 0 1.731.935 1.731 1.994 0 1.071-.61 2.006-1.731 2.006z"/><path d="m127.58 386.15c1.919 0 3.09-1.446 3.09-3.165 0-1.732-1.171-3.152-3.09-3.152s-3.09 1.42-3.09 3.152c0 1.719 1.171 3.165 3.09 3.165zm0-1.159c-1.109 0-1.732-.935-1.732-2.006 0-1.059.623-1.994 1.732-1.994 1.121 0 1.732.935 1.732 1.994 0 1.071-.611 2.006-1.732 2.006z"/><path d="m133.314 386v-4.099c.262-.436.997-.81 1.557-.81.162 0 .287.013.399.038v-1.296c-.772 0-1.495.448-1.956 1.021v-.872h-1.308v6.018z"/><path d="m141.032 386v-3.115h2.206c1.732 0 2.703-1.183 2.703-2.591 0-1.421-.959-2.604-2.703-2.604h-3.663v8.31zm2.006-4.398h-2.006v-2.629h2.006c.823 0 1.408.523 1.408 1.321 0 .785-.585 1.308-1.408 1.308z"/><path d="m148.438 386v-4.099c.262-.436.997-.81 1.557-.81.162 0 .287.013.399.038v-1.296c-.772 0-1.495.448-1.956 1.021v-.872h-1.308v6.018z"/><path d="m152.11 379.247c.448 0 .809-.361.809-.81 0-.448-.361-.81-.809-.81-.449 0-.81.362-.81.81 0 .449.361.81.81.81zm.647 6.753v-6.018h-1.308v6.018z"/><path d="m157.445 386 2.454-6.018h-1.395l-1.757 4.511-1.757-4.511h-1.408l2.455 6.018z"/><path d="m165.717 386v-3.999c0-1.608-1.171-2.168-2.517-2.168-.959 0-1.831.299-2.529.972l.548.909c.511-.523 1.109-.772 1.782-.772.822 0 1.408.423 1.408 1.121v.897c-.449-.511-1.134-.772-1.956-.772-.985 0-2.081.573-2.081 1.968 0 1.321 1.109 1.994 2.081 1.994.797 0 1.507-.287 1.956-.81v.66zm-2.741-.747c-.735 0-1.296-.424-1.296-1.084 0-.648.561-1.084 1.296-1.084.561 0 1.121.211 1.433.623v.922c-.312.411-.872.623-1.433.623z"/><path d="m170.154 386.15c1.183 0 1.881-.511 2.305-1.072l-.86-.81c-.336.474-.797.723-1.383.723-1.084 0-1.819-.835-1.819-2.006s.735-1.994 1.819-1.994c.586 0 1.047.225 1.383.698l.86-.785c-.424-.573-1.122-1.071-2.305-1.071-1.819 0-3.103 1.333-3.103 3.152s1.284 3.165 3.103 3.165z"/><path d="m173.369 388.355c.174.05.548.087.735.087.934-.012 1.645-.336 2.056-1.358l2.903-7.102h-1.396l-1.756 4.511-1.757-4.511h-1.408l2.479 6.093-.299.685c-.174.399-.448.523-.872.523-.149 0-.361-.037-.498-.099z"/><path d="m184.592 386v-3.115h2.205c1.732 0 2.704-1.183 2.704-2.591 0-1.421-.96-2.604-2.704-2.604h-3.663v8.31zm2.006-4.398h-2.006v-2.629h2.006c.822 0 1.407.523 1.407 1.321 0 .785-.585 1.308-1.407 1.308z"/><path d="m191.997 386v-4.099c.262-.436.997-.81 1.558-.81.161 0 .286.013.398.038v-1.296c-.772 0-1.495.448-1.956 1.021v-.872h-1.308v6.018z"/><path d="m200.004 386v-3.999c0-1.608-1.171-2.168-2.516-2.168-.96 0-1.832.299-2.53.972l.549.909c.51-.523 1.109-.772 1.781-.772.823 0 1.408.423 1.408 1.121v.897c-.448-.511-1.134-.772-1.956-.772-.984 0-2.081.573-2.081 1.968 0 1.321 1.109 1.994 2.081 1.994.798 0 1.508-.287 1.956-.81v.66zm-2.741-.747c-.735 0-1.295-.424-1.295-1.084 0-.648.56-1.084 1.295-1.084.561 0 1.122.211 1.433.623v.922c-.311.411-.872.623-1.433.623z"/><path d="m204.441 386.15c1.184 0 1.882-.511 2.305-1.072l-.859-.81c-.337.474-.798.723-1.383.723-1.084 0-1.819-.835-1.819-2.006s.735-1.994 1.819-1.994c.585 0 1.046.225 1.383.698l.859-.785c-.423-.573-1.121-1.071-2.305-1.071-1.819 0-3.102 1.333-3.102 3.152s1.283 3.165 3.102 3.165z"/><path d="m209.725 386.15c.598 0 .984-.175 1.221-.387l-.312-.996c-.099.112-.324.224-.573.224-.374 0-.573-.312-.573-.723v-3.152h1.221v-1.134h-1.221v-1.644h-1.308v1.644h-.997v1.134h.997v3.476c0 1.009.523 1.558 1.545 1.558z"/><path d="m212.545 379.247c.448 0 .81-.361.81-.81 0-.448-.362-.81-.81-.81-.449 0-.81.362-.81.81 0 .449.361.81.81.81zm.648 6.753v-6.018h-1.309v6.018z"/><path d="m217.631 386.15c1.183 0 1.881-.511 2.305-1.072l-.86-.81c-.336.474-.797.723-1.383.723-1.084 0-1.819-.835-1.819-2.006s.735-1.994 1.819-1.994c.586 0 1.047.225 1.383.698l.86-.785c-.424-.573-1.122-1.071-2.305-1.071-1.819 0-3.103 1.333-3.103 3.152s1.284 3.165 3.103 3.165z"/><path d="m223.886 386.15c.947 0 1.831-.312 2.442-.885l-.598-.86c-.436.436-1.121.673-1.719.673-1.134 0-1.807-.76-1.907-1.657h4.635v-.324c0-1.894-1.146-3.264-2.953-3.264-1.781 0-3.052 1.408-3.052 3.152 0 1.906 1.333 3.165 3.152 3.165zm1.595-3.663h-3.389c.05-.723.573-1.583 1.682-1.583 1.183 0 1.669.872 1.707 1.583z"/><path d="m230.099 386.15c1.619 0 2.504-.81 2.504-1.882 0-2.392-3.638-1.595-3.638-2.654 0-.423.424-.747 1.109-.747.76 0 1.42.324 1.781.723l.549-.922c-.536-.474-1.309-.835-2.33-.835-1.52 0-2.368.835-2.368 1.819 0 2.317 3.639 1.47 3.639 2.654 0 .473-.412.797-1.196.797-.773 0-1.608-.399-2.031-.835l-.598.935c.623.61 1.545.947 2.579.947z"/></g><path clip-rule="evenodd" d="m317.05 376.573c-.334.332-.334.876 0 1.208l3.906 3.883-3.906 3.883c-.334.332-.334.876 0 1.208s.88.332 1.214 0l4.514-4.487c.334-.332.334-.876 0-1.208l-4.514-4.487c-.334-.332-.88-.332-1.214 0z" fill="#aaa" fill-rule="evenodd"/><path d="m87.1773 389.011c3.93 0 7.116-3.186 7.116-7.116s-3.186-7.116-7.116-7.116c-3.9301 0-7.116 3.186-7.116 7.116s3.1859 7.116 7.116 7.116z" style="fill-rule:evenodd;clip-rule:evenodd;stroke:#de5833;stroke-width:1.77086;stroke-linecap:round;stroke-linejoin:round"/><path d="m89.6678 379.404-4.9812 4.982" stroke="#de5833" stroke-linecap="round" stroke-width="1.77086"/><path d="m89.6678 384.386-4.9812-4.982" stroke="#de5833" stroke-linecap="round" stroke-width="1.77086"/></g><g filter="url(#e)"><path d="m27.803 295.352h344.694v51.212h-344.694z" fill="#c4c4c4"/></g><g filter="url(#f)"><rect fill="#fff" height="61.9597" rx="6.59286" width="369.375" x="15" y="285.583"/><g fill="#333"><path d="m87.0425 321.223v-1.719h-4.921c2.9693-2.252 4.8543-4.086 4.8543-6.155 0-2.219-1.8684-3.42-4.0203-3.42-1.568 0-3.1361.584-4.1203 1.785l1.1343 1.268c.7173-.801 1.7016-1.318 3.0027-1.318 1.0176 0 2.0351.517 2.0351 1.685 0 1.618-1.7015 3.053-6.022 6.322v1.552z"/><path d="m98.1613 321.223v-9.409h3.3697v-1.718h-8.6911v1.718h3.3697v9.409z"/><path d="m103.632 321.223v-5.489c.35-.583 1.335-1.084 2.085-1.084.217 0 .384.017.534.05v-1.735c-1.034 0-2.002.601-2.619 1.368v-1.167h-1.751v8.057z"/><path d="m114.353 321.223v-5.355c0-2.152-1.568-2.903-3.37-2.903-1.284 0-2.452.401-3.386 1.302l.734 1.217c.684-.7 1.485-1.034 2.385-1.034 1.101 0 1.885.567 1.885 1.501v1.201c-.6-.684-1.518-1.034-2.619-1.034-1.317 0-2.785.767-2.785 2.636 0 1.768 1.484 2.669 2.785 2.669 1.068 0 2.019-.384 2.619-1.084v.884zm-3.67-1.001c-.984 0-1.735-.567-1.735-1.451 0-.868.751-1.452 1.735-1.452.751 0 1.501.284 1.918.834v1.235c-.417.55-1.167.834-1.918.834z"/><path d="m120.293 321.423c1.585 0 2.519-.684 3.086-1.435l-1.151-1.084c-.45.634-1.067.967-1.851.967-1.452 0-2.436-1.117-2.436-2.685s.984-2.669 2.436-2.669c.784 0 1.401.3 1.851.934l1.151-1.051c-.567-.767-1.501-1.435-3.086-1.435-2.435 0-4.153 1.785-4.153 4.221 0 2.435 1.718 4.237 4.153 4.237z"/><path d="m132.472 321.223-3.403-4.404 3.336-3.653h-2.169l-3.553 3.886v-6.956h-1.751v11.127h1.751v-2.169l1.134-1.168 2.453 3.337z"/><path d="m137.384 321.423c1.267 0 2.452-.417 3.269-1.185l-.8-1.151c-.584.584-1.502.901-2.303.901-1.518 0-2.418-1.017-2.552-2.218h6.206v-.434c0-2.536-1.535-4.371-3.954-4.371-2.385 0-4.087 1.885-4.087 4.221 0 2.552 1.785 4.237 4.221 4.237zm2.135-4.904h-4.537c.066-.968.767-2.119 2.252-2.119 1.584 0 2.235 1.168 2.285 2.119z"/><path d="m144.684 321.223v-5.489c.35-.583 1.335-1.084 2.085-1.084.217 0 .384.017.534.05v-1.735c-1.034 0-2.002.601-2.619 1.368v-1.167h-1.751v8.057z"/><path d="m151.485 321.423c2.168 0 3.353-1.084 3.353-2.519 0-3.203-4.871-2.135-4.871-3.553 0-.567.567-1.001 1.484-1.001 1.018 0 1.902.434 2.386.967l.734-1.234c-.717-.634-1.752-1.118-3.12-1.118-2.035 0-3.169 1.118-3.169 2.436 0 3.103 4.871 1.968 4.871 3.553 0 .634-.551 1.068-1.601 1.068-1.035 0-2.152-.534-2.72-1.118l-.8 1.251c.834.817 2.068 1.268 3.453 1.268z"/><path d="m166.556 321.223c2.102 0 3.237-1.285 3.237-3.02 0-1.351-.951-2.535-2.152-2.719 1.034-.217 1.935-1.167 1.935-2.552 0-1.568-1.118-2.836-3.17-2.836h-5.471v11.127zm-.533-6.539h-3.137v-2.87h3.137c.984 0 1.551.618 1.551 1.435 0 .851-.567 1.435-1.551 1.435zm.083 4.82h-3.22v-3.102h3.22c1.101 0 1.685.717 1.685 1.551 0 .968-.634 1.551-1.685 1.551z"/><path d="m173.469 321.223v-11.127h-1.751v11.127z"/><path d="m179.395 321.423c2.569 0 4.137-1.935 4.137-4.237 0-2.319-1.568-4.221-4.137-4.221s-4.137 1.902-4.137 4.221c0 2.302 1.568 4.237 4.137 4.237zm0-1.552c-1.485 0-2.319-1.251-2.319-2.685 0-1.418.834-2.669 2.319-2.669 1.501 0 2.319 1.251 2.319 2.669 0 1.434-.818 2.685-2.319 2.685z"/><path d="m188.99 321.423c1.585 0 2.519-.684 3.086-1.435l-1.151-1.084c-.45.634-1.067.967-1.851.967-1.452 0-2.436-1.117-2.436-2.685s.984-2.669 2.436-2.669c.784 0 1.401.3 1.851.934l1.151-1.051c-.567-.767-1.501-1.435-3.086-1.435-2.435 0-4.153 1.785-4.153 4.221 0 2.435 1.718 4.237 4.153 4.237z"/><path d="m201.169 321.223-3.403-4.404 3.336-3.653h-2.169l-3.553 3.886v-6.956h-1.751v11.127h1.751v-2.169l1.134-1.168 2.453 3.337z"/><path d="m206.081 321.423c1.267 0 2.452-.417 3.269-1.185l-.8-1.151c-.584.584-1.502.901-2.303.901-1.518 0-2.418-1.017-2.552-2.218h6.206v-.434c0-2.536-1.535-4.371-3.954-4.371-2.385 0-4.087 1.885-4.087 4.221 0 2.552 1.785 4.237 4.221 4.237zm2.135-4.904h-4.537c.066-.968.767-2.119 2.252-2.119 1.584 0 2.235 1.168 2.285 2.119z"/><path d="m219.053 321.223v-11.127h-1.752v4.187c-.634-.867-1.568-1.318-2.585-1.318-2.069 0-3.57 1.618-3.57 4.221 0 2.669 1.518 4.237 3.57 4.237 1.051 0 1.968-.501 2.585-1.301v1.101zm-3.82-1.352c-1.401 0-2.286-1.117-2.286-2.685 0-1.552.885-2.669 2.286-2.669.817 0 1.685.483 2.068 1.084v3.186c-.383.601-1.251 1.084-2.068 1.084z"/></g><path clip-rule="evenodd" d="m52.6598 313.547c.4152.399.4285 1.059.0296 1.475l-4.5781 4.766c-.1965.204-.4681.32-.7519.32s-.5553-.116-.7519-.32l-2.5711-2.677c-.3989-.415-.3856-1.075.0297-1.474.4152-.399 1.0752-.386 1.4741.029l1.8192 1.894 3.8262-3.983c.3989-.415 1.0589-.428 1.4742-.03z" fill="#3ea140" fill-rule="evenodd"/><path clip-rule="evenodd" d="m48.3627 325.202c4.771 0 8.6386-3.867 8.6386-8.638s-3.8676-8.639-8.6386-8.639-8.6386 3.868-8.6386 8.639 3.8676 8.638 8.6386 8.638zm10.7238-8.638c0 5.922-4.8012 10.723-10.7238 10.723s-10.7238-4.801-10.7238-10.723c0-5.923 4.8012-10.724 10.7238-10.724s10.7238 4.801 10.7238 10.724z" fill="#3ea140" fill-rule="evenodd"/><path clip-rule="evenodd" d="m356.114 309.282c-.447.445-.447 1.172 0 1.617l5.23 5.199-5.23 5.199c-.447.445-.447 1.172 0 1.617.447.444 1.179.444 1.626 0l6.044-6.008c.447-.444.447-1.172 0-1.616l-6.044-6.008c-.447-.444-1.179-.444-1.626 0z" fill="#aaa" fill-rule="evenodd"/></g><g filter="url(#g)"><g clip-path="url(#n)"><rect fill="#fff" height="46.2557" rx="4.92186" width="275.755" x="62.2723" y="228.421"/><g fill="#333"><path d="m115.103 255.141v-1.283h-4.234v-2.316h4.147v-1.283h-4.147v-2.142h4.234v-1.282h-5.691v8.306z"/><path d="m121.942 255.141v-4.234c0-1.233-.648-1.93-1.943-1.93-.946 0-1.731.485-2.129.959v-.81h-1.308v6.015h1.308v-4.209c.311-.399.884-.797 1.544-.797.735 0 1.22.299 1.22 1.245v3.761z"/><path d="m126.38 255.291c1.183 0 1.88-.511 2.304-1.071l-.859-.81c-.337.473-.798.722-1.383.722-1.083 0-1.818-.834-1.818-2.005 0-1.17.735-1.992 1.818-1.992.585 0 1.046.224 1.383.697l.859-.784c-.424-.573-1.121-1.071-2.304-1.071-1.818 0-3.101 1.332-3.101 3.15 0 1.819 1.283 3.164 3.101 3.164z"/><path d="m131.15 255.141v-4.097c.262-.436.996-.81 1.557-.81.162 0 .286.013.398.038v-1.295c-.772 0-1.494.448-1.955 1.021v-.872h-1.307v6.015z"/><path d="m133.911 257.495c.174.05.548.087.735.087.934-.013 1.643-.336 2.054-1.357l2.902-7.099h-1.395l-1.756 4.508-1.756-4.508h-1.407l2.478 6.09-.298.685c-.175.398-.449.523-.872.523-.15 0-.361-.038-.498-.1z"/><path d="m143.661 255.291c1.557 0 2.665-1.184 2.665-3.164s-1.108-3.15-2.665-3.15c-.785 0-1.482.373-1.93.971v-.822h-1.308v8.307h1.308v-3.126c.498.635 1.17.984 1.93.984zm-.386-1.159c-.61 0-1.258-.373-1.544-.822v-2.378c.299-.449.934-.797 1.544-.797 1.034 0 1.706.822 1.706 1.992 0 1.171-.672 2.005-1.706 2.005z"/><path d="m149.453 255.291c.598 0 .984-.175 1.221-.387l-.312-.996c-.099.112-.324.224-.573.224-.373 0-.572-.311-.572-.722v-3.151h1.22v-1.133h-1.22v-1.644h-1.308v1.644h-.996v1.133h.996v3.475c0 1.009.523 1.557 1.544 1.557z"/><path d="m154.401 255.291c.947 0 1.831-.312 2.441-.885l-.598-.859c-.435.436-1.12.673-1.718.673-1.133 0-1.806-.76-1.906-1.657h4.633v-.324c0-1.893-1.146-3.262-2.951-3.262-1.781 0-3.051 1.407-3.051 3.15 0 1.906 1.332 3.164 3.15 3.164zm1.594-3.662h-3.387c.05-.722.573-1.581 1.681-1.581 1.183 0 1.669.871 1.706 1.581z"/><path d="m164.086 255.141v-8.306h-1.308v3.125c-.473-.647-1.171-.983-1.93-.983-1.544 0-2.665 1.208-2.665 3.15 0 1.993 1.133 3.164 2.665 3.164.784 0 1.469-.374 1.93-.972v.822zm-2.852-1.009c-1.046 0-1.706-.834-1.706-2.005 0-1.158.66-1.992 1.706-1.992.61 0 1.258.361 1.544.809v2.379c-.286.448-.934.809-1.544.809z"/><path d="m173.026 255.291c1.668 0 2.702-.885 3.337-1.881l-1.245-.623c-.399.685-1.208 1.208-2.092 1.208-1.644 0-2.865-1.27-2.865-3.001 0-1.756 1.221-3.001 2.865-3.001.884 0 1.693.51 2.092 1.208l1.233-.648c-.611-.996-1.657-1.855-3.325-1.855-2.454 0-4.359 1.731-4.359 4.296 0 2.553 1.905 4.297 4.359 4.297z"/><path d="m180.207 255.291c1.918 0 3.088-1.445 3.088-3.164 0-1.731-1.17-3.15-3.088-3.15s-3.089 1.419-3.089 3.15c0 1.719 1.171 3.164 3.089 3.164zm0-1.159c-1.109 0-1.731-.934-1.731-2.005 0-1.058.622-1.992 1.731-1.992 1.121 0 1.731.934 1.731 1.992 0 1.071-.61 2.005-1.731 2.005z"/><path d="m190.01 255.141v-4.234c0-1.233-.647-1.93-1.942-1.93-.947 0-1.731.485-2.13.959v-.81h-1.308v6.015h1.308v-4.209c.311-.399.884-.797 1.544-.797.735 0 1.221.299 1.221 1.245v3.761z"/><path d="m197.088 255.141v-4.234c0-1.233-.647-1.93-1.942-1.93-.947 0-1.731.485-2.13.959v-.81h-1.308v6.015h1.308v-4.209c.311-.399.884-.797 1.544-.797.735 0 1.221.299 1.221 1.245v3.761z"/><path d="m201.576 255.291c.947 0 1.831-.312 2.441-.885l-.598-.859c-.436.436-1.121.673-1.718.673-1.134 0-1.806-.76-1.906-1.657h4.633v-.324c0-1.893-1.146-3.262-2.952-3.262-1.78 0-3.051 1.407-3.051 3.15 0 1.906 1.333 3.164 3.151 3.164zm1.594-3.662h-3.387c.05-.722.573-1.581 1.681-1.581 1.183 0 1.669.871 1.706 1.581z"/><path d="m208.458 255.291c1.183 0 1.881-.511 2.304-1.071l-.859-.81c-.336.473-.797.722-1.382.722-1.084 0-1.819-.834-1.819-2.005 0-1.17.735-1.992 1.819-1.992.585 0 1.046.224 1.382.697l.859-.784c-.423-.573-1.121-1.071-2.304-1.071-1.818 0-3.101 1.332-3.101 3.15 0 1.819 1.283 3.164 3.101 3.164z"/><path d="m213.739 255.291c.598 0 .984-.175 1.221-.387l-.312-.996c-.099.112-.323.224-.573.224-.373 0-.572-.311-.572-.722v-3.151h1.22v-1.133h-1.22v-1.644h-1.308v1.644h-.996v1.133h.996v3.475c0 1.009.523 1.557 1.544 1.557z"/><path d="m216.558 248.391c.448 0 .809-.361.809-.809s-.361-.81-.809-.81-.81.362-.81.81.362.809.81.809zm.647 6.75v-6.015h-1.307v6.015z"/><path d="m221.629 255.291c1.918 0 3.088-1.445 3.088-3.164 0-1.731-1.17-3.15-3.088-3.15s-3.088 1.419-3.088 3.15c0 1.719 1.17 3.164 3.088 3.164zm0-1.159c-1.108 0-1.731-.934-1.731-2.005 0-1.058.623-1.992 1.731-1.992 1.121 0 1.731.934 1.731 1.992 0 1.071-.61 2.005-1.731 2.005z"/><path d="m231.433 255.141v-4.234c0-1.233-.648-1.93-1.943-1.93-.947 0-1.731.485-2.13.959v-.81h-1.307v6.015h1.307v-4.209c.312-.399.885-.797 1.545-.797.734 0 1.22.299 1.22 1.245v3.761z"/></g><path clip-rule="evenodd" d="m90.3868 249.298c.31.298.3199.791.0221 1.101l-3.4177 3.558c-.1468.153-.3495.239-.5614.239-.2118 0-.4145-.086-.5613-.239l-1.9194-1.999c-.2978-.31-.2879-.802.0221-1.1s.8027-.288 1.1005.022l1.3581 1.414 2.8565-2.974c.2977-.31.7905-.32 1.1005-.022z" fill="#3ea140" fill-rule="evenodd"/><path clip-rule="evenodd" d="m87.1795 257.998c3.5617 0 6.4491-2.887 6.4491-6.449s-2.8874-6.449-6.4491-6.449-6.4491 2.887-6.4491 6.449 2.8874 6.449 6.4491 6.449zm8.0058-6.449c0 4.421-3.5843 8.006-8.0058 8.006s-8.0058-3.585-8.0058-8.006c0-4.422 3.5843-8.006 8.0058-8.006s8.0058 3.584 8.0058 8.006z" fill="#3ea140" fill-rule="evenodd"/></g></g></svg>