<svg xmlns="http://www.w3.org/2000/svg" width="354" height="260"><g fill="none" fill-rule="evenodd"><path fill="#BEBFC2" fill-rule="nonzero" d="M162.3 179.1h-20.1c-1.4 0-2.5 1.1-2.5 2.5v5c0 1.4 1.1 2.5 2.5 2.5h20.1c1.4 0 2.5-1.1 2.5-2.5v-5c0-1.4-1.1-2.5-2.5-2.5z"/><path fill="#E0E1E5" fill-rule="nonzero" d="M22.8 214.2H2.7c-1.4 0-2.5-1.1-2.5-2.5v-5c0-1.4 1.1-2.5 2.5-2.5h20.1c1.4 0 2.5 1.1 2.5 2.5v5c0 1.4-1.2 2.5-2.5 2.5zM37 198.3H16.9c-1.4 0-2.5-1.1-2.5-2.5v-5c0-1.4 1.1-2.5 2.5-2.5H37c1.4 0 2.5 1.1 2.5 2.5v5c0 1.4-1.2 2.5-2.5 2.5z"/><g fill-rule="nonzero"><path fill="#E0E1E5" d="M14.4 67.1v74.4c0 2.8 2.2 5 5 5h60.2c2.8 0 5-2.2 5-5V67.1H14.4z"/><path d="M35.7 106.4h-5.9s-2.3-3.6-4.6-4.2H12v9.2h27.6v-1.2c-.1-2.1-1.8-3.8-3.9-3.8zm49.7 23.4v-13.4H69.9c-2.1 0-3.9 1.6-4 3.7-.1 1.5.2 1.4.9 3h-3.9c-3.9 0-7.1 2.7-7.4 6.7h29.9zM87.9 73v-3.3h-10v-5h-2.5v5H22.8v-5h-2.5v5h-8.4V73h8.4v2.5h-8.4v4.2h9.2v2.5h-9.2v4.2h76v-4.2h-10v-2.5h10v-4.2h-10V73h10zm-12.5 9.2H22.8v-2.5h52.6v2.5zm0-6.7H22.8V73h52.6v2.5z" fill="#FFF"/></g><g transform="translate(116)"><path fill="#E0E1E5" fill-rule="nonzero" d="M169.9 214.2h-20.1c-1.4 0-2.5 1.1-2.5 2.5v5c0 1.4 1.1 2.5 2.5 2.5h20.1c1.4 0 2.5-1.1 2.5-2.5v-5c.1-1.4-1.1-2.5-2.5-2.5zm15.9 15.9h-20.1c-1.4 0-2.5 1.1-2.5 2.5v5c0 1.4 1.1 2.5 2.5 2.5h20.1c1.4 0 2.5-1.1 2.5-2.5v-5c0-1.4-1.1-2.5-2.5-2.5z"/><g fill-rule="nonzero"><path fill="#E0E1E5" d="M106.4 105.6V51.3H.3v54.3c0 3.7 3 6.7 6.7 6.7h92.7c3.8-.1 6.7-3 6.7-6.7z"/><path fill="#240F45" d="M101.4 21.2H5.9c-3 0-5.5 2.5-5.5 5.5v6.2h106.9V27c0-3.2-2.7-5.8-5.9-5.8z"/><path fill="#BEBFC2" d="M.3 32.9h106.1v18.4H.3z"/><path fill="#FFF" d="M102.3 46.2c0 .5-.4.8-.8.8H6.3c-.5 0-.8-.4-.8-.8v-8.4c0-.5.4-.8.8-.8h95.2c.5 0 .8.4.8.8v8.4z"/></g><path fill="#E0E1E5" fill-rule="nonzero" d="M63.8 118.1h20.1c2.8 0 5-2.2 5-5s-2.2-5-5-5H63.8c-2.8 0-5 2.2-5 5 0 2.7 2.3 5 5 5zM56 129h5.7c1.6 0 3-1.4 3-3v-.7c0-1.6-1.3-3-3-3H56c-1.6 0-3 1.4-3 3v.7c0 1.6 1.3 3 3 3z"/><g transform="translate(82)"><circle cx="24.4" cy="24.5" r="24.2" fill="#FFF" fill-rule="nonzero"/><circle cx="24.4" cy="24.5" r="20.9" fill="#9ECE70" fill-rule="nonzero"/><circle cx="24.4" cy="24.5" r="17.5" fill="#6FC05C" fill-rule="nonzero"/><path d="M12.7 13.7h23.4v23.4H12.7z"/><text fill="#FFF" stroke="#FFF" stroke-width=".209" font-family="Helvetica" font-size="26.736" transform="translate(12 7)"><tspan x="1.966" y="26.303">A</tspan></text></g><g fill-rule="nonzero" transform="translate(8 61)"><path fill="#BEBFC2" d="M40.8 37.9H2.4c-.9 0-1.7-.7-1.7-1.7V1.9C.7 1 1.4.2 2.4.2h38.4c.9 0 1.7.7 1.7 1.7v34.3c0 .9-.8 1.7-1.7 1.7z"/><circle cx="9.9" cy="9.5" r="4.2" fill="#FFF"/><path fill="#FFF" d="M29.6 13.7c-.4-.6-.9-.9-1.5-.9-.5 0-1.1.3-1.5.9L16.3 29l-5-7.3c-.4-.6-1-.9-1.5-.9s-1.1.3-1.5.9L.7 32.9v3.3c0 .9.7 1.7 1.7 1.7h38.4c.9 0 1.7-.7 1.7-1.7v-3.3L29.6 13.7z"/></g><circle cx="7" cy="27" r="1.7" fill="#FFF" fill-rule="nonzero"/><circle cx="12.9" cy="27" r="1.7" fill="#FFF" fill-rule="nonzero"/><circle cx="18.7" cy="27" r="1.7" fill="#FFF" fill-rule="nonzero"/><path d="M60.1 65.5h37.6c.7 0 1.3-.6 1.3-1.3v-1.7c0-.7-.6-1.3-1.3-1.3H60.1c-.7 0-1.3.6-1.3 1.3v1.7c0 .7.6 1.3 1.3 1.3zm0 33.4h37.6c.7 0 1.3-.6 1.3-1.3V96c0-.7-.6-1.3-1.3-1.3H60.1c-.7 0-1.3.6-1.3 1.3v1.7c0 .6.6 1.2 1.3 1.2zm27.5-29.3H60c-.7 0-1.3.6-1.3 1.3v1.7c0 .7.6 1.3 1.3 1.3h27.6c.7 0 1.3-.6 1.3-1.3v-1.7c0-.7-.6-1.3-1.3-1.3zM60.1 82.2h37.6c.7 0 1.3-.6 1.3-1.3v-1.7c0-.7-.6-1.3-1.3-1.3H60.1c-.7 0-1.3.6-1.3 1.3v1.7c0 .7.6 1.3 1.3 1.3zm27.5 4.1H60c-.7 0-1.3.6-1.3 1.3v1.7c0 .7.6 1.3 1.3 1.3h27.6c.7 0 1.3-.6 1.3-1.3v-1.7c0-.7-.6-1.3-1.3-1.3z" fill="#FFF" fill-rule="nonzero"/><path fill="#E0E1E5" fill-rule="nonzero" d="M142.2 118.1h10.4c2.2 0 4-1.8 4-4v-1.2c0-2.2-1.8-4-4-4h-10.4c-2.2 0-4 1.8-4 4v1.2c0 2.2 1.8 4 4 4zm-6.5 8.3h4.2c1.4 0 2.5-1.1 2.5-2.5s-1.1-2.5-2.5-2.5h-4.2c-1.4 0-2.5 1.1-2.5 2.5s1.1 2.5 2.5 2.5z"/><g fill-rule="nonzero"><path fill="#240F45" d="M216.2 37h-67.4c-2.2 0-3.9 1.8-3.9 3.9v5.3h75.2V41c0-2.2-1.8-4-3.9-4z"/><path fill="#E0E1E5" d="M144.9 46.2h75.2v12.5h-75.2zm0 48.5V111c0 1.6 1.3 2.9 2.9 2.9H217c1.7 0 3.1-1.4 3.1-3.1V94.6h-75.2v.1z"/><path fill="#BEBFC2" d="M144.9 58.8h75.2v35.9h-75.2z"/><path fill="#FFF" d="M216.7 54.6c0 .5-.4.8-.8.8h-66.8c-.5 0-.8-.4-.8-.8v-5c0-.5.4-.8.8-.8h66.8c.5 0 .8.4.8.8v5z"/></g><g transform="translate(203 24)"><circle cx="17.1" cy="17.2" r="17.1" fill="#FFF" fill-rule="nonzero"/><circle cx="17.1" cy="17.2" r="15" fill="#FDC681" fill-rule="nonzero"/><circle cx="17.1" cy="17.2" r="12.5" fill="#FCB555" fill-rule="nonzero"/><path d="M7 9.7h18.4v16.7H7z"/><text fill="#FFF" stroke="#FFF" stroke-width=".627" font-family="Helvetica" font-size="20.052" transform="translate(7 5)"><tspan x="1.841" y="19.443">C</tspan></text></g><g fill-rule="nonzero"><path fill="#FFF" d="M190.8 82.2h-16.7c-1.8 0-3.3-1.5-3.3-3.3V68c0-1.8 1.5-3.3 3.3-3.3h16.7c1.8 0 3.3 1.5 3.3 3.3v10.9c.1 1.8-1.4 3.3-3.3 3.3z"/><path fill="#BEBFC2" d="M179.1 70.3v7.3c0 .5.5.8.9.6l6.8-3.7c.4-.2.4-.9 0-1.1l-6.8-3.7c-.4-.2-.9.1-.9.6z"/><path fill="#FDC781" d="M157.3 87.2c-1.2 0-2.1 1.2-1.5 2.5.3.5.8.8 1.4.8h33.5v-3.3h-33.4z"/><path fill="#FCB555" d="M206.1 87.2h-15.3v3.3h15.3c1.2 0 2.1-1.2 1.5-2.5-.3-.5-.9-.8-1.5-.8z"/></g><path fill="#E0E1E5" fill-rule="nonzero" d="M188.3 90.5h-31.7c-.9 0-1.7-.7-1.7-1.7 0-.9.7-1.7 1.7-1.7h31.7c.9 0 1.7.7 1.7 1.7s-.8 1.7-1.7 1.7z"/><path d="M179 102.2h-23.1c-.6 0-1-.4-1-1v-1.3c0-.6.4-1 1-1H179c.6 0 1 .4 1 1v1.3c0 .6-.5 1-1 1zm29.2 0h-23.1c-.6 0-1-.4-1-1v-1.3c0-.6.4-1 1-1h23.1c.6 0 1 .4 1 1v1.3c0 .6-.4 1-1 1zm-32.6 6.7h-19.7c-.6 0-1-.4-1-1v-1.3c0-.6.4-1 1-1h19.7c.6 0 1 .4 1 1v1.3c0 .6-.4 1-1 1zm29.3 0h-19.7c-.6 0-1-.4-1-1v-1.3c0-.6.4-1 1-1h19.7c.6 0 1 .4 1 1v1.3c0 .6-.5 1-1 1z" fill="#FFF" fill-rule="nonzero"/><path fill="#E0E1E5" fill-rule="nonzero" d="M191.7 90.5h15c.9 0 1.7-.7 1.7-1.7 0-.9-.7-1.7-1.7-1.7h-15c-.9 0-1.7.7-1.7 1.7s.7 1.7 1.7 1.7z"/><circle cx="190" cy="88.8" r="3.3" fill="#FFF" fill-rule="nonzero"/><circle cx="149.9" cy="42.1" r="1.7" fill="#FFF" fill-rule="nonzero"/><circle cx="155.7" cy="42.1" r="1.7" fill="#FFF" fill-rule="nonzero"/><circle cx="161.6" cy="42.1" r="1.7" fill="#FFF" fill-rule="nonzero"/><g transform="translate(64 129)"><path fill="#E0E1E5" fill-rule="nonzero" d="M3.2 18.3h3.3c1.4 0 2.5-1.1 2.5-2.5s-1.1-2.5-2.5-2.5H3.2c-1.4 0-2.5 1.1-2.5 2.5s1.1 2.5 2.5 2.5zM10.3 30h7.5c2.1 0 3.8-1.7 3.8-3.8 0-2.1-1.7-3.8-3.8-3.8h-7.5c-2.1 0-3.8 1.7-3.8 3.8 0 2.1 1.7 3.8 3.8 3.8z"/><g fill-rule="nonzero"><path fill="#240F45" d="M98.7 11.7H31.1c-2 0-3.7 1.6-3.7 3.7v5.5h75.2v-5.3c0-2.2-1.8-3.9-3.9-3.9z"/><path fill="#BEBFC2" d="M27.4 20.8h75.2v12.5H27.4zm0 12.6v37c0 1.7 1.4 3.1 3.1 3.1h21.1V33.4H27.4z"/><path fill="#E0E1E5" d="M51.6 33.4v40.1h47.8c1.7 0 3.1-1.4 3.1-3.1v-37H51.6z"/><path fill="#FFF" d="M99.3 29.2c0 .5-.4.8-.8.8H30.8c-.5 0-.8-.4-.8-.8v-5c0-.5.4-.8.8-.8h67.7c.5 0 .8.4.8.8v5zm-42.7 15h29.2c.5 0 .8-.4.8-.8v-1.7c0-.5-.4-.8-.8-.8H56.6c-.5 0-.8.4-.8.8v1.7c0 .5.4.8.8.8zm0 15.1h29.2c.5 0 .8-.4.8-.8v-1.7c0-.5-.4-.8-.8-.8H56.6c-.5 0-.8.4-.8.8v1.7c0 .4.4.8.8.8zm21.8-10.9H56.7c-.5 0-.8.4-.8.8v1.7c0 .5.4.8.8.8h21.7c.5 0 .8-.4.8-.8v-1.7c0-.4-.4-.8-.8-.8zm0 15.1H56.7c-.5 0-.8.4-.8.8V66c0 .5.4.8.8.8h21.7c.5 0 .8-.4.8-.8v-1.7c0-.5-.4-.8-.8-.8zm-47.7-9.2h15c.5 0 .8-.4.8-.8v-1.7c0-.5-.4-.8-.8-.8h-15c-.5 0-.8.4-.8.8v1.7c0 .4.4.8.8.8zm12.6 3.3H30.8c-.5 0-.8.4-.8.8v1.7c0 .5.4.8.8.8h12.5c.5 0 .8-.4.8-.8v-1.7c0-.4-.4-.8-.8-.8zm2-10.9H32.9c-1.7 0-3-1.3-3-3V43c0-1.7 1.3-3 3-3h12.4c1.7 0 3 1.3 3 3v.7c0 1.7-1.3 3-3 3z"/></g><circle cx="32.4" cy="16.7" r="1.7" fill="#FFF" fill-rule="nonzero"/><circle cx="38.3" cy="16.7" r="1.7" fill="#FFF" fill-rule="nonzero"/><circle cx="44.1" cy="16.7" r="1.7" fill="#FFF" fill-rule="nonzero"/><g transform="translate(85)"><circle cx="17.6" cy="17.5" r="17.1" fill="#FFF" fill-rule="nonzero"/><circle cx="17.6" cy="17.5" r="15" fill="#F7A9AB" fill-rule="nonzero"/><circle cx="17.6" cy="17.5" r="12.5" fill="#E27151" fill-rule="nonzero"/><path d="M8.4 10h18.4v16.7H8.4z"/><text fill="#FFF" stroke="#FFF" stroke-width=".627" font-family="Helvetica" font-size="20.052" transform="translate(8 5)"><tspan x="3.025" y="19.717">F</tspan></text></g></g></g><g fill-rule="nonzero"><path fill="#240F45" d="M60.4 215h5v44.3h-5zm95.8-49.3h-1.5L138 199.1h4.2l15.5-31c.6-1.1-.2-2.4-1.5-2.4z"/><path fill="#FFF" d="M110.8 197.9l15.3-30.7c.1-.1.2-.2.4-.2h26.2l-15.5 30.9h-26.4z"/><path fill="#F2A748" d="M150.7 168.2l-14.2 28.4h-23.6l14.2-28.4h23.6zm4.1-2.5h-28.2c-.6 0-1.2.4-1.5.9l-16.2 32.5h29.2l16.7-33.4z"/><path fill="#6FC05C" d="M127.8 172.9l-1.7 3.3c-.3.6.1 1.2.7 1.2h14c.3 0 .6-.2.7-.5l1.7-3.3c.3-.6-.1-1.2-.7-1.2h-14c-.3 0-.6.2-.7.5z"/><path fill="#E0E1E5" d="M124.5 180.4l-.8 1.7c-.3.6.1 1.2.7 1.2H135c.3 0 .6-.2.7-.5l.8-1.7c.3-.6-.1-1.2-.7-1.2h-10.7c-.2 0-.5.2-.6.5zm-3.1 8.7h10.7c.3 0 .6-.2.7-.5l.8-1.7c.3-.6-.1-1.2-.7-1.2h-10.7c-.3 0-.6.2-.7.5l-.8 1.7c-.3.6.1 1.2.7 1.2z"/><path fill="#554563" d="M118.8 204.1H89.6c-1.4 0-2.5-1.1-2.5-2.5s1.1-2.5 2.5-2.5h29.2v5z"/><path fill="#240F45" d="M142.2 204.1H113c-1.4 0-2.5-1.1-2.5-2.5s1.1-2.5 2.5-2.5h29.2v5zm-23.4 0H189v5.8h-70.2z"/><path fill="#554563" d="M35.3 204.1h83.6v5.8H35.3z"/><path fill="#240F45" d="M44.5 208.3h135.4v8.4H44.5zm40.1-61.6c0 4.5-3.7 8.1-8.2 8.1h-.3c-4.5 0-8.2-3.6-8.2-8.1v-5.5c0-4.5 3.7-8.1 8.2-8.1h.3c4.5 0 8.2 3.6 8.2 8.1v5.5z"/><path fill="#DE5934" d="M68.9 165c-2.6 2.6-2.6 6.9 0 9.5 2.6 2.6 6.9 2.6 9.5 0l9.5-9.5c2.6-2.6 2.6-6.9 0-9.5-2.6-2.6-6.9-2.6-9.5 0l-9.5 9.5z"/><path fill="#240F45" d="M108.8 143.6c0-2.6-2.1-4.7-4.7-4.7H95c-2.6 0-4.7 2.1-4.7 4.7v.7c0 2.6 2.1 4.7 4.7 4.7h9.1c2.6 0 4.7-2.1 4.7-4.7v-.7z"/><path fill="#DE5934" d="M100.5 147.3c0-5.1-4.1-9.2-9.2-9.2s-9.2 4.1-9.2 9.2v15c0 5.1 4.1 9.2 9.2 9.2s9.2-4.1 9.2-9.2v-15z"/><path fill="#240F45" d="M101.8 132.3H86.3c-1.8 0-3.1.7-4.2 2l-10.9 10.9v9.3c0 2.9 2.2 5.2 5 5.2 2.9 0 5-2.3 5-5.2v-2.6s.3.1.4.1c5.9 0 11-3.8 13.6-8h6.6c3.1 0 5.3-2.7 5.3-5.9v-.3c0-3.2-2.2-5.5-5.3-5.5z"/><path fill="#DE5934" d="M85.4 152.3c0 2.3-1.9 4.2-4.2 4.2-2.3 0-4.2-1.9-4.2-4.2 0-2.3 1.9-4.2 4.2-4.2 2.3 0 4.2 1.9 4.2 4.2z"/><path fill="#240F45" d="M89.6 147.4c0-1.9-1.4-3.4-3.2-3.4h-.3c-1.8 0-3.2 1.5-3.2 3.4v6.6c0 1.9 1.4 3.4 3.2 3.4h.3c1.8 0 3.2-1.5 3.2-3.4v-6.6z"/><path fill="#DE5934" d="M113 183.3l-15 7.5-15-15-9.2 9.2 16.6 16.6c1.5 1.5 3.9 1.9 5.8.9l20-10.1-3.2-9.1z"/><path fill="#F1A032" d="M57.4 196.2l22-22.1L69 163.8c-2.7 0-5.6.3-8.1 1-15.7 3.8-28 18.5-28 35.6V215H68v-1.2c-.1-7.7-4.4-14.1-10.6-17.6z"/><path fill="#FCB554" d="M44.5 203.9c0-20 11.2-33.9 30.5-33.9l-6.3-6.2c-19.3 0-35.9 16.6-35.9 36.6V215h11.7v-11.1z"/><path fill="#240F45" d="M32.8 215h35.1v5H32.8z"/><path fill="#240F45" d="M108.1 220H32.8c0 9.2 7.8 16.7 17.2 16.7h58.1c4.5 0 8.3-3.8 8.3-8.4 0-4.6-3.8-8.3-8.3-8.3z"/><path fill="#FCB555" d="M61.6 172.8l12.1 12.1 9.2-9.2-12.1-12.1c-2.5-2.5-6.7-2.5-9.2 0-2.5 2.6-2.5 6.7 0 9.2z"/><path fill="#6FC05C" d="M57.9 236.7H31c-2.3 0-4.1 1.9-4.1 4.2 0 2.3 1.9 4.2 4.1 4.2h26.9v-8.4z"/><path fill="#5B9C4A" d="M82.9 240.9c0-2.3-1.9-4.1-4.1-4.1H47c-2.3 0-4.1 1.9-4.1 4.1v.1c0 2.3 1.9 4.1 4.1 4.1h31.8c2.3 0 4.1-1.9 4.1-4.2z"/><path fill="#6FC05C" d="M35.3 208.1v-19.6c0-1.5 1.3-2.8 2.9-2.8H24c-1.6 0-2.9 1.2-2.9 2.8v19.6c0 1.5 1.3 2.8 2.9 2.8h14.2c-1.6-.1-2.9-1.3-2.9-2.8z"/><path fill="#5B9C4A" d="M41.1 208.1v-19.6c0-1.5-1.3-2.8-2.9-2.8h-.1c-1.6 0-2.9 1.2-2.9 2.8v19.6c0 1.5 1.3 2.8 2.9 2.8h.1c1.7-.1 2.9-1.3 2.9-2.8z"/><path fill="#554563" d="M32.8 215h11.7v5H32.8z"/><path fill="#DE5934" d="M132.2 187.8c0-3.4-2.8-6.2-6.2-6.2h-9.3c-3.4 0-6.2 2.8-6.2 6.2v.1c0 3.4 2.8 6.2 6.2 6.2h9.3c3.4 0 6.2-2.8 6.2-6.2v-.1z"/><g fill="#240F45"><path d="M88.8 215h5.8v44.3h-5.8zm80.2 0h5v44.3h-5zm-28.4 0h5v44.3h-5z"/><path d="M143.9 246.8h27.6v4.2h-27.6z"/></g><path fill="#240F45" d="M48.7 246.8h6.7v12.5h-6.7zm55.7 12.5l11.7-28.3c1.3-3.2-.2-6.8-3.4-8.2-3.2-1.3-6.8.2-8.2 3.4l-13.7 33.1h13.6z"/><path fill="#240F45" d="M35.3 245.1c0 2.3 1.9 4.2 4.2 4.2h25.1c2.3 0 4.2-1.9 4.2-4.2H35.3zm-6.7-1.7c-1.4 0-2.5-1.1-2.5-2.5v-40.1c0-1.4 1.1-2.5 2.5-2.5s2.5 1.1 2.5 2.5v40.1c0 1.4-1.1 2.5-2.5 2.5zm66.5-87.7h-.2c-.6 0-1.2-.5-1.2-1.1v-.2c0-.6.5-1.1 1.2-1.1h.2c.6 0 1.2.5 1.2 1.1v.2c0 .6-.5 1.1-1.2 1.1z"/></g><path fill="#BEBFC2" fill-rule="nonzero" d="M199 253.7c-1.7 1.7-3 3.6-3.7 5.6h23.1c-.8-2-2-3.9-3.7-5.5-.8-.8-1.7-1.5-2.6-2h15.6c-2.6-3.3-6.6-5-11.6-5h-3.9l11.1-11.1c-4.2-.5-8.9 1-12.4 4.5-1.9 1.8-3 3.9-3.9 6.1-.9-2.2-2.1-4.4-3.9-6.2-3.6-3.5-8.2-4.9-12.4-4.4l11.1 11h-3.9c-5 0-9.1 1.8-11.6 5h15.6c-1.2.6-2.1 1.2-2.9 2z"/></g></svg>